<?xml version="1.0" encoding="utf-8"?>
<!-- Generator: Adobe Illustrator 16.0.0, SVG Export Plug-In . SVG Version: 6.00 Build 0)  -->
<!DOCTYPE svg PUBLIC "-//W3C//DTD SVG 1.1//EN" "http://www.w3.org/Graphics/SVG/1.1/DTD/svg11.dtd">
<svg version="1.1" id="Ñëîé_1" xmlns="http://www.w3.org/2000/svg" xmlns:xlink="http://www.w3.org/1999/xlink" x="0px" y="0px"
	 width="7457.668px" height="2482.436px" viewBox="0 0 7457.668 2482.436" enable-background="new 0 0 7457.668 2482.436"
	 xml:space="preserve">
<rect x="-255.12" y="1440.244" fill="none" width="4959.973" height="1071.965"/>
<image overflow="visible" width="1200" height="1185" xlink:href="E7951217.png"  transform="matrix(0.8682 0 0 0.8682 2240.5015 1272.5801)">
</image>
<image overflow="visible" width="416" height="402" xlink:href="../JPG/349-3492563_client6-bangladesh-police-logo-png-transparent-png.png"  transform="matrix(2.597 0 0 2.5977 4233.4473 197.5186)">
</image>
<image overflow="visible" width="320" height="375" xlink:href="../JPG/779-7790356_-ministry-of-forest.png"  transform="matrix(2.8387 0 0 2.8387 5794.6221 204.0903)">
</image>
<image overflow="visible" width="800" height="900" xlink:href="E795121D.png"  transform="matrix(1.2803 0 0 1.2803 2730.415 118.8994)">
</image>
<image overflow="visible" width="1200" height="1505" xlink:href="../JPG/1200px-Crest_of_the_Bangladesh_Navy.png"  transform="matrix(0.7666 0 0 0.7666 5332.3857 1147.6992)">
</image>
<image overflow="visible" width="300" height="300" xlink:href="../JPG/bangladesh-customs-logo-3BA7F61126-seeklogo.com.png"  transform="matrix(3.345 0 0 3.345 3739.2725 1297.9375)">
</image>
<image overflow="visible" width="320" height="320" xlink:href="../JPG/Government of Bangladesh.png"  transform="matrix(3.1311 0 0 3.1311 1240.7432 238.2695)">
</image>
<image overflow="visible" width="500" height="473" xlink:href="../JPG/motsho-Office-LOGO.png"  transform="matrix(2.1182 0 0 2.1182 673.0889 1299.5322)">
</image>
</svg>
