<svg id="Layer_1" data-name="Layer 1" xmlns="http://www.w3.org/2000/svg" viewBox="0 0 19.76 46.52"><defs><style>.cls-1{fill:#a47a4b;}</style></defs><path class="cls-1" d="M21.1,21s1-2.34,2.07-2.89a3.48,3.48,0,0,0,1.64-3.35s-.62-5.94,1.4-7.28c0,0,2.21-2.23,7.5-1.81a12.16,12.16,0,0,1,4.52-.46s-3.44,1.41-4,2.47a5.71,5.71,0,0,0-.35,7.56s3.92,3.37,3.59,10.1c0,0-1.14,10.4-4.14,13.25a13,13,0,0,1,.75-3.7,5.8,5.8,0,0,0,1.17-2.93s-.64,2-1.09,2.29a9.5,9.5,0,0,0-1.23,4.56,15.48,15.48,0,0,0,1.3,4.37A2.27,2.27,0,0,0,35,44a2.76,2.76,0,0,1,.77,1,2.24,2.24,0,0,1,1,1.52s.75,1.25,0,1.59c0,0-.11-1-.38-1.2,0,0-.28,0-.59-.66a1.14,1.14,0,0,0-1.06-1s.09,1.9.18,2.36c0,0,.15,2.64-.31,3a4.27,4.27,0,0,0-.16-1A1.57,1.57,0,0,1,34.4,48a4,4,0,0,0-.51-1.37,3.47,3.47,0,0,1-.16-1.1s-.26-.62-.39-.62-.73.77-.71,1.13c0,0-.15,1-.51,1,0,0-.44.53-.31.79a1.44,1.44,0,0,1,0-1.54s.1-.58.4-.73c0,0,.4-1.48.84-1.74,0,0,.16-2.93-1.47-4.39a12.07,12.07,0,0,1-.93-2,5.53,5.53,0,0,0,.57,1.74s-.28,3.54.2,4.42c0,0,.13.26-.31-.2,0,0,.6,3.28-.42,3.7,0,0-4.28,2.14-6.06-1.1a6.89,6.89,0,0,1,.2-2s-.51.42-.18-.16l.82-4.34a6.52,6.52,0,0,0,.66-1.61,18.66,18.66,0,0,1-1.19,1.94l-.22.4s-1.92,3.53-1.79,4.36a5.2,5.2,0,0,1,.77,2.89,2.33,2.33,0,0,1-.15,1.63,14.21,14.21,0,0,0-.22-1.6.77.77,0,0,1-.42-.83l-.4-1.19s0-.26-.33,0c0,0-.7.17-.86,2.91a9.44,9.44,0,0,1-.22,2.36,2.51,2.51,0,0,0,0,.85s-.4,0-.42-1.41a3.31,3.31,0,0,1,0-1.58s.09-1.26.07-1.5L21,46s0-.29-.27-.19a1.17,1.17,0,0,0-1.14.74A2.75,2.75,0,0,1,19,47.65,1.85,1.85,0,0,0,19.18,49s-.72-.2-.72-1.38a2.3,2.3,0,0,0,.35-.88s.26-1.25,2.62-2.14c0,0,.15.45,2.25-4.31L24.21,38a8.16,8.16,0,0,0-1-3l-1-2.6a17.4,17.4,0,0,0,1.07,3.5,5.81,5.81,0,0,1,.12,4s-3.26-4.52-3.22-12.5C20.17,27.38,20.53,21.83,21.1,21Z" transform="translate(-18.46 -5.09)"/></svg>