<svg id="Layer_1" data-name="Layer 1" xmlns="http://www.w3.org/2000/svg" viewBox="0 0 44.07 30.23"><defs><style>.cls-1{fill:#e2b436;}</style></defs><path class="cls-1" d="M15.71,28s1.33-.55,1.24.37c0,0-.39.58.36,1.24l1,1s.57.12-.21.81l-1.45.91L16.2,31.1s-.84-.87-1.06-.1c0,0-.22.47.41.81,0,0,1,.76.48,1.29,0,0-1,.26-1.2,0,0,0-.8-.18-1,.21,0,0-.24,1,.68.67L15.74,34s.56,0,.16.34l-.71.72s-.75.15-.68.68c0,0,.22,1.1,1.14,0a2.34,2.34,0,0,1,.93-1.08s.4-.36.48.35l.05.85s-.11.23-.18.41c0,0-.27.61.34.75,0,0,.94.15.51-1l-.16-1.37s0-.25.35-.18c0,0,.82.24.88.46,0,0,.39,1,1.07.21,0,0,.4-.83-.61-1l-.8-.14s-.45-.29,0-.68l1.84-1.59a1,1,0,0,0,.1-1.28L19.53,29s-.14-.26.33-.17c0,0,6.42,2.65,11.51,0a22.18,22.18,0,0,1,2.22-1.3s.38-.28.29.49c0,0,0,3.95,1.4,4l2-.27s.76.09.9.32c0,0,.23.45.52.54,0,0,.23.44,0,.6,0,0-.83.39-.49.9,0,0,.45.86,1,.15a6.64,6.64,0,0,0,.28-1.11s.3-.41.6-.3a1.21,1.21,0,0,1,.79.5s.14.91.87.68c0,0,1-.42-.12-1.26a2.64,2.64,0,0,1-.64-.24.83.83,0,0,1,.1-.87s.38-.35.61-.14c0,0,.72.2.76-.46a.55.55,0,0,0-.92-.34s-.65.43-.71.45a.49.49,0,0,1-.27-.69,1.9,1.9,0,0,1,.52-.21.53.53,0,0,0,.11-.94s-.59-.36-.86.49l-.24.55s-.11.16-.25.12a.72.72,0,0,1-.56-.39.84.84,0,0,1,0-.41.58.58,0,0,0,0-.81s-.75-.45-.81.28c0,0-.15.2.21.76l.19.41s.09.12-.17.23A1.91,1.91,0,0,1,37,30.42s-.37-.16-.5-.91a7.41,7.41,0,0,0,.84-2.5l0-1a1.15,1.15,0,0,1,.5-.28s5.61-2.51,9.45,1.56c0,0,3.25,4.71.74,9,0,0-1.87,3.57-7.58,5.41L36.91,43s-.53.28-.24.48a2,2,0,0,0,.85-.12,21,21,0,0,0,4.64-1.25,15.69,15.69,0,0,0,6.11-4s5.61-5.94,0-13.45c0,0-1.44-2.09-6.93-3.06a13.85,13.85,0,0,0-3,.12s-1.84.61-3.65-2.22c0,0-.71-.77.33-1a1.61,1.61,0,0,1,1.91.65s.41,1.31,1.32.44a1,1,0,0,0-.76-1.35.81.81,0,0,1-.9-.48,1,1,0,0,1,.66-1,3.36,3.36,0,0,1,.73-.09s1-.28.5-1.11c0,0-.57-.83-1-.26,0,0-.48.55-.72.76,0,0-.44.27-.37-.22l.25-.69s.15-.25.35-.27a.53.53,0,0,0,.06-.79s-1.06-.78-1.09.4a4.56,4.56,0,0,1-.23,1s-.17.4-.52-.27c0,0-.2-.5-.09-.67,0,0,.15-1.06-1-.59a.71.71,0,0,0,0,1s.39.09.46.31l.43.84a.38.38,0,0,1-.18.22s-.12.16-.33-.17l-.28-.45a.71.71,0,0,0-.69-.8s-.76.29-.42.82c0,0,.15.46.5.43a6.7,6.7,0,0,1,.7.66s-.06.17-.55,0c0,0-3.42-.75-3.6.47a3.06,3.06,0,0,0,.67,2.36l1.48,2.23s.29.34-.32.58a4.4,4.4,0,0,1-3.11,0s-4.51-1.41-5.51-1a8.27,8.27,0,0,0-1.62.53s-.43.14-.23-.62a4.63,4.63,0,0,1,.75-1s2-1.89,2-2.4c0,0,.38-1.23-2.2-1.8a22.8,22.8,0,0,1-2.31-.45s-.4,0-.37-.89c0,0,.51-.86.43-1s-.57-1-1.13-.43c0,0-.33.34,0,1.06a3.07,3.07,0,0,1,0,.73s-.14.53-.5-.23c0,0-.38-1.26-.81-1.5,0,0-1.35-.25-1.08.93a.89.89,0,0,0,1,.58s.33,0,.57.73c0,0,.07.26-.35.35a.86.86,0,0,1-.75-.23s-1-.45-1.12.29a.82.82,0,0,0,.85.94l.84-.23a.33.33,0,0,1,.41.18s.27.36,0,.44c0,0-1.16.32-1.26.65,0,0-.37.78.67.87a2.9,2.9,0,0,0,.8-1,.45.45,0,0,1,.79.08,2.32,2.32,0,0,1-.09,1,.48.48,0,0,0,.4.71s.74,0,.58-.67L19.25,18s-.05-.17.25-.26l.43-.18s.37-.14.54-.05l1.19.19s.3.07.14.44A4.55,4.55,0,0,1,20,19.82a2.87,2.87,0,0,0-1.42,1.72s-.43,1-1,.24a4.91,4.91,0,0,0-5.18-2s-3.45.68-3.92.63c0,0-1.89.45-1.8,1.15,0,0,.84,2.09,1.13,2.64a2.07,2.07,0,0,0,1,1.13,6.38,6.38,0,0,0,3,2.35A7.14,7.14,0,0,0,15.71,28Z" transform="translate(-6.7 -13.23)"/></svg>