<svg id="Layer_1" data-name="Layer 1" xmlns="http://www.w3.org/2000/svg" viewBox="0 0 48.31 19.71"><defs><style>.cls-1{fill:#6d6e71;}</style></defs><path class="cls-1" d="M17.89,37.4s-.08.59-.88-.31A10.83,10.83,0,0,1,15.19,34l-1-3.13s-.05-.08-.33-.15a12.42,12.42,0,0,0-2.45-.64l-2.15-.55a14.77,14.77,0,0,1-2.07-.79s-.35-.22-.1-.45c0,0,.16-.11-.13-.16a6.94,6.94,0,0,1-1.47-.41A4.75,4.75,0,0,1,4.17,27s-.48-.3.37-.72c0,0,2.44-1.15,2.64-1.23a27.4,27.4,0,0,1,4.33-1.28s4.31-.94,5.41-1.07a4.84,4.84,0,0,0,1.76-.47,9.19,9.19,0,0,0,2.1-1.9A17.74,17.74,0,0,1,23,18.46s1.33-.78,1.85-.54a2.41,2.41,0,0,1,0,.85A5.76,5.76,0,0,0,25.07,21a3.22,3.22,0,0,0,1,1.54A1.61,1.61,0,0,0,27,23s.06.05-.05.05-2.25-.25-1.19,0a17.3,17.3,0,0,0,1.93.21,41.39,41.39,0,0,1,4.07.89,22.77,22.77,0,0,0,3.29.72,2.35,2.35,0,0,0,1.37-.26s1.84-1.3,2-.41c0,0,.1.9.26,1a9.64,9.64,0,0,1,.7.72,6.51,6.51,0,0,0,2.23.2.77.77,0,0,0,.71-.22s4.75-3.2,4.88-3.25,3.36-2.12,3.53-2.16c0,0,1.72-.79,1.58-.33,0,0,.08.13-.35.43a1.48,1.48,0,0,0-.65,1.37s.19.63-.36.43c0,0-.66-.61-.79.17,0,0,0,.16-.32.57l-3.25,3.54s-1.16,1.16-1.08,1.6a5.17,5.17,0,0,0,.87,2.15s.58.89.88,1c0,0,.06.1-.23.07a5.27,5.27,0,0,1-2.71-1,10.67,10.67,0,0,1-1.12-1,8.62,8.62,0,0,0-1.49-1.28,1.13,1.13,0,0,0-.5,0,1.63,1.63,0,0,1-.34.06s-2.73.14-2.28.25a3.1,3.1,0,0,0,.38.09s.16.06.1.14-.88.59-.32,1c0,0,.73.78-.21.57a2.83,2.83,0,0,1-1.4-.66,2.42,2.42,0,0,0-1.31-.48,26.28,26.28,0,0,0-2.64.07s0,.09.6.06a3.11,3.11,0,0,1,.59.14s.08,0-.18.37l-1.08,1.49s-.11.22-.55,0a8.69,8.69,0,0,0-1.3-.6,4.7,4.7,0,0,0-3.07.35,25.79,25.79,0,0,1-3.14.77,34.66,34.66,0,0,1-6.1,0,3.66,3.66,0,0,0-1.26,2.93l.08,1.68Z" transform="translate(-4.03 -17.88)"/></svg>