<svg id="Layer_1" data-name="Layer 1" xmlns="http://www.w3.org/2000/svg" viewBox="0 0 46.36 31.29"><defs><style>.cls-1{fill:#8cc540;}</style></defs><polygon class="cls-1" points="46.33 5.58 46.33 5.58 46.28 5.3 44.25 3.65 43.85 2.65 43.8 2.4 43.8 2.4 43.77 2.21 43.23 1.94 43.23 1.94 42.37 1.51 42.28 0.71 41.73 0 41.09 0.27 40.64 0.95 40.6 0.94 39.38 1.15 37.78 1.79 36.68 3.18 36.68 3.18 36.59 3.29 35.21 3.97 32.64 4.86 32.62 4.86 32.62 4.86 31.64 5.24 30.99 5.77 29.86 5.78 29.86 5.78 29.43 5.78 29.43 5.78 27.78 5.79 27.78 5.79 26.95 5.79 26.95 5.8 26.66 5.8 25.88 5.82 25.88 5.82 24.79 5.86 24.79 5.86 23.82 5.89 23.82 5.89 23.15 5.91 22.84 5.92 19.57 6.12 19.31 6.08 19.31 6.08 18.91 6.01 18.91 6.01 17.81 5.82 17.81 5.82 17.08 5.69 17.08 5.69 15.64 5.45 14.78 5.63 14.78 5.63 14.35 5.72 13.02 6 12.25 6.77 10.77 7.68 8.63 11.98 8.48 12.6 8.48 12.6 8.43 12.8 8.02 14.44 7.99 14.54 7.99 14.54 7.72 15.62 7.7 15.72 7.7 15.72 7.49 16.51 7.37 17 7.37 17 7.17 17.8 7.17 17.8 6.62 19.99 6.62 19.99 6.55 20.28 6.26 20.58 6.26 20.58 5.03 21.84 3.44 22.11 1.81 21.46 1 19.75 0.24 19.55 0 20.28 1.03 22.93 3.14 23.69 4.98 23.81 5.88 23.3 5.84 23.46 6.41 24.19 6.58 24.93 6.64 25.14 6.64 25.14 7.58 29.17 8.09 29.67 8.63 30.55 10.01 30.67 11.04 30.62 11.04 30.62 11.26 30.61 11.32 30.44 11.32 30.44 11.34 30.38 12.15 30.17 12.02 29.29 11.39 28.85 11.07 28.74 11.07 28.74 10.1 28.44 10.1 28.44 10.07 28.43 9.71 26.93 9.28 24.14 9.84 23.58 9.84 23.58 9.93 23.49 12.1 21.52 11.91 22.75 11.23 23.58 11.29 24.34 12.29 25.34 13.67 27.14 14.56 28.61 14.94 28.76 15.54 29.61 15.56 29.96 15.91 30.17 17.11 30.26 18.49 30.26 18.62 29.88 19 29.88 19.43 29.76 19.35 29.17 18.84 28.2 18.21 28.05 16.89 27.75 15.86 26.78 14.45 24.87 14.45 24.4 15.13 23.81 16.55 22.38 16.55 22.38 16.56 22.37 17.54 20.6 17.54 20.6 17.94 19.88 18.11 19.57 18.53 17.87 20.41 18.87 23 19.37 24.18 19.11 25.1 18.9 25.1 18.9 26.17 18.66 28.34 18.19 30.31 18.66 30.99 19.31 31.07 20.26 31.07 20.26 31.12 20.86 31.21 21.93 31.2 22.38 31.2 22.38 31.18 23.2 31.18 23.2 31.15 24.08 31.15 24.08 31.1 26.43 30.69 27.43 30.98 28 30.98 28 31.07 28.17 30.91 29.35 31.18 29.85 32.02 30.41 32.23 31.02 33.78 31.29 34.92 31.12 34.92 31.12 35.21 31.08 35.26 30.97 35.26 30.97 35.35 30.79 35.78 30.76 35.89 29.96 35.72 29.79 36.05 29.76 36.3 29.61 36.73 29.32 36.73 28.9 35.94 27.93 35.27 27.4 35.16 26.82 35.24 25.9 35.5 23.07 35.52 22.83 35.52 22.83 35.7 20.84 36.34 18.24 37.16 17.07 37.67 14.63 38.6 13.22 39.87 11.51 40.13 10.52 40.13 10.52 40.25 10.07 40.44 9.36 40.95 8.74 40.95 8.74 41.22 8.42 42.76 8.15 43.98 8.8 44.6 8.83 44.79 8.51 44.96 7.86 44.99 7.82 44.99 7.82 45.11 7.7 45.11 7.7 45.44 7.36 45.77 6.83 45.93 6.36 46.36 5.74 46.33 5.58"/></svg>