<?xml version="1.0" encoding="UTF-8" standalone="no"?>
<!-- Created with Inkscape (http://www.inkscape.org/) -->

<svg
   width="512mm"
   height="512mm"
   viewBox="0 0 512 512"
   version="1.1"
   id="svg5"
   inkscape:export-filename="/home/nafis/wor-logo.png"
   inkscape:export-xdpi="10.57"
   inkscape:export-ydpi="10.57"
   inkscape:version="1.1.2 (0a00cf5339, 2022-02-04)"
   sodipodi:docname="wor-logo.svg"
   xmlns:inkscape="http://www.inkscape.org/namespaces/inkscape"
   xmlns:sodipodi="http://sodipodi.sourceforge.net/DTD/sodipodi-0.dtd"
   xmlns="http://www.w3.org/2000/svg"
   xmlns:svg="http://www.w3.org/2000/svg">
  <sodipodi:namedview
     id="namedview7"
     pagecolor="#ffffff"
     bordercolor="#666666"
     borderopacity="1.0"
     inkscape:pageshadow="2"
     inkscape:pageopacity="0.0"
     inkscape:pagecheckerboard="0"
     inkscape:document-units="mm"
     showgrid="false"
     inkscape:zoom="0.39"
     inkscape:cx="1069.2308"
     inkscape:cy="1008.9744"
     inkscape:window-width="1551"
     inkscape:window-height="1082"
     inkscape:window-x="26"
     inkscape:window-y="23"
     inkscape:window-maximized="0"
     inkscape:current-layer="layer1" />
  <defs
     id="defs2">
    <rect
       x="63.753502"
       y="415.03314"
       width="638.92126"
       height="264.41656"
       id="rect3224" />
    <rect
       x="63.753502"
       y="415.03314"
       width="1879.9903"
       height="458.95772"
       id="rect3224-3" />
    <rect
       x="63.753502"
       y="415.03314"
       width="1778.3905"
       height="337.8999"
       id="rect121843" />
    <rect
       x="63.753502"
       y="415.03314"
       width="1879.9903"
       height="458.95772"
       id="rect164307" />
  </defs>
  <g
     inkscape:label="Layer 1"
     inkscape:groupmode="layer"
     id="layer1">
    <text
       xml:space="preserve"
       transform="matrix(0.26458333,0,0,0.26458333,125.89039,276.402)"
       id="text3222"
       style="font-style:normal;font-weight:normal;font-size:333.333px;line-height:1.25;font-family:sans-serif;letter-spacing:0px;word-spacing:0px;white-space:pre;shape-inside:url(#rect3224-3);fill:#1c4106;fill-opacity:1;stroke:none"><tspan
         x="63.753906"
         y="725.69466"
         id="tspan166070"><tspan
           style="font-family:'Archivo Black';-inkscape-font-specification:'Archivo Black, '"
           id="tspan166068">WOR</tspan></tspan></text>
    <text
       xml:space="preserve"
       transform="matrix(0.26458333,0,0,0.26458333,34.777191,518.31867)"
       id="text121841"
       style="font-style:normal;font-weight:normal;font-size:100px;line-height:1.25;font-family:sans-serif;letter-spacing:0px;word-spacing:0px;white-space:pre;shape-inside:url(#rect121843);fill:#000000;fill-opacity:1;stroke:none"><tspan
         x="63.753906"
         y="508.23173"
         id="tspan166074"><tspan
           style="font-family:'Archivo Black';-inkscape-font-specification:'Archivo Black, '"
           id="tspan166072">Wildlife Offence Reporting</tspan></tspan></text>
    <g
       id="g1152"
       transform="matrix(0.77392997,-0.26594311,-0.26594311,-0.77392997,-103.88176,929.94307)"
       style="fill:#1c4106;fill-opacity:1">
      <path
         d="m 576.46304,798.12758 c 6.693,7.738 14.699,13.786 25.128,16.556 1.987,0.528 4.066,0.78 6.633,1.258 -10.653,-18.564 -17.714,-37.625 -17.516,-59.277 -8.893,8.255 -19.172,10.491 -30.551,9.095 0.06,0.535 0.056,0.814 0.125,1.073 3.114,11.556 8.251,22.124 16.181,31.295"
         style="fill:#1c4106;fill-opacity:1;fill-rule:nonzero;stroke:none;stroke-width:0.1"
         id="path32" />
      <path
         d="m 719.85266,894.72657 c 3.805,1.52 7.93,2.373 11.91,3.529 0.147,-0.237 0.293,-0.474 0.439,-0.711 -5.442,-9.193 -9.875,-18.819 -13.052,-28.981 -3.169,-10.136 -5.017,-20.517 -4.757,-31.789 -4.626,4.358 -9.395,7.435 -15.028,8.475 -5.421,1.002 -10.971,1.219 -16.425,1.776 1.884,9.257 7.872,21.607 14.824,30.331 5.916,7.426 12.91,13.7 22.089,17.37"
         style="fill:#1c4106;fill-opacity:1;fill-rule:nonzero;stroke:none;stroke-width:0.1"
         id="path34" />
      <path
         d="m 693.62994,836.34188 c 44.26873,3.68927 21.23628,-86.10733 15.85823,-104.29264 -1.83722,-4.11889 -4.97638,-11.95675 -8.78267,-19.47328 -4.10492,-8.10681 -9.54585,-15.37971 -17.21256,-20.86429 -6.05653,-4.33195 -12.89545,-6.77168 -20.68441,-5.4741 -25.34032,4.22368 -40.01798,29.39722 -38.58418,52.34235 1.31155,20.98916 9.63142,43.71249 20.59971,61.55289 9.82789,15.98483 27.81847,34.46004 48.80588,36.20907"
         style="fill:#1c4106;fill-opacity:1;fill-rule:nonzero;stroke:none;stroke-width:0.0873202"
         id="path36" />
      <path
         d="m 805.81866,874.44857 c 0.15,-0.05 0.3,-0.1 0.451,-0.15 0.236,-0.371 0.407,-0.801 0.715,-1.105 5.594,-5.515 9.302,-12.018 11.399,-19.268 4.976,-17.195 2.764,-33.7 -3.581,-49.762 -0.091,-0.23 -0.387,-0.38 -0.65,-0.626 -8.51,8.199 -18.425,12.544 -30.704,11.269 1.393,1.896 2.543,3.366 3.588,4.901 8.568,12.582 13.486,26.604 16.515,41.345 0.911,4.432 1.519,8.929 2.267,13.396"
         style="fill:#1c4106;fill-opacity:1;fill-rule:nonzero;stroke:none;stroke-width:0.1"
         id="path38" />
      <path
         d="m 743.84605,660.14018 c -35.81002,8.83593 -32.3338,41.22125 -20.63551,71.05856 7.24495,18.48045 17.64566,35.98379 23.81833,46.30591 8.14959,13.62894 22.50504,36.14183 42.9432,30.18485 41.43781,-12.07726 24.1388,-87.24337 12.7243,-110.7718 -5.32478,-10.97789 -12.33834,-20.83285 -22.30769,-28.469 -10.59369,-8.11554 -22.55219,-11.76029 -36.54263,-8.30852"
         style="fill:#1c4106;fill-opacity:1;fill-rule:nonzero;stroke:none;stroke-width:0.0873202"
         id="path40" />
      <path
         d="m 857.45804,739.96958 c 5.619,-5.731 9.162,-12.487 11.14,-19.923 4.423,-16.627 2.246,-32.578 -3.81,-48.09 -0.126,-0.322 -0.364,-0.6 -0.662,-1.079 -8.542,8.163 -18.35,12.65 -31.008,11.304 7.164,8.784 11.763,18.243 15.32,28.212 3.577,10.03 5.821,20.396 6.992,31.48 0.928,-0.868 1.5,-1.367 2.028,-1.904"
         style="fill:#1c4106;fill-opacity:1;fill-rule:nonzero;stroke:none;stroke-width:0.1"
         id="path42" />
      <path
         d="m 775.089,613 c 6.917,18.668 15.838,37.61 31.68,50.817 42.455,35.389 66.626,-14.499 63.769,-52.028 -0.366,-4.81 -1.128,-9.845 -2.288,-14.939 -2.211,-9.705 -5.741,-19.435 -10.69,-28.095 -8.376,-14.659 -21.479,-28.331 -39.125,-32.598 -19.29,-4.666 -38.899,4.211 -47.296,22.222 -8.581,18.404 -2.523,37.151 3.95,54.621"
         style="fill:#1c4106;fill-opacity:1;fill-rule:nonzero;stroke:none;stroke-width:0.1"
         id="path44" />
      <path
         d="m 721.261,445.17 c -19.678,6.297 -38.295,22.783 -54.173,32.539 -21.179,13.013 -44.13,20.726 -68.972,21.982 -23.82,1.205 -49.497,-2.85 -70.413,12.213 -21.557,15.524 -20.902,42.19 -8.194,61.575 14.102,21.51 40.966,31.858 65.468,39.42 14.443,4.457 29.213,8.334 42.966,14.426 15.132,6.704 27.313,17.554 44.332,20.373 37.977,6.29 48.095,-52.457 62.868,-74.419 14.667,-21.804 36.135,-42.315 41.741,-68.238 4.598,-21.257 -1.974,-48.903 -23.709,-58.786 -10.772,-4.896 -21.491,-4.419 -31.914,-1.085"
         style="fill:#1c4106;fill-opacity:1;fill-rule:nonzero;stroke:none;stroke-width:0.1"
         id="path46" />
      <path
         d="m 574.594,632.743 c -18.582,-19.231 -43.205,-10.757 -60.487,7.932 -8.053,8.712 -11.385,19.234 -11.748,30.457 -0.26,8.03 1.35,18.479 4.633,29.394 9.753,32.427 34.274,68.974 68.408,58.483 48.213,-14.819 22.205,-102.45 -0.806,-126.266"
         style="fill:#1c4106;fill-opacity:1;fill-rule:nonzero;stroke:none;stroke-width:0.1"
         id="path48" />
    </g>
    <g
       id="g164321"
       transform="translate(897.36787,-47.98753)">
      <text
         xml:space="preserve"
         transform="matrix(0.26458333,0,0,0.26458333,125.89039,276.402)"
         id="text164285"
         style="font-style:normal;font-weight:normal;font-size:333.333px;line-height:1.25;font-family:sans-serif;letter-spacing:0px;word-spacing:0px;white-space:pre;shape-inside:url(#rect164307);fill:#2b6609;fill-opacity:1;stroke:none"><tspan
           x="63.753906"
           y="725.69466"
           id="tspan166078"><tspan
             style="font-family:'Archivo Black';-inkscape-font-specification:'Archivo Black, '"
             id="tspan166076">WOR</tspan></tspan></text>
      <g
         id="g164305"
         transform="matrix(0.77392997,-0.26594311,-0.26594311,-0.77392997,-103.88176,929.94307)"
         style="fill:#2b6609;fill-opacity:1">
        <path
           d="m 571.62982,784.06239 c 6.693,7.738 14.699,13.786 25.128,16.556 1.987,0.528 4.066,0.78 6.633,1.258 -10.653,-18.564 -17.714,-37.625 -17.516,-59.277 -8.893,8.255 -19.172,10.491 -30.551,9.095 0.06,0.535 0.056,0.814 0.125,1.073 3.114,11.556 8.251,22.124 16.181,31.295"
           style="fill:#2b6609;fill-opacity:1;fill-rule:nonzero;stroke:none;stroke-width:0.1"
           id="path164287" />
        <path
           d="m 714.38902,878.82679 c 3.805,1.52 7.93,2.373 11.91,3.529 0.147,-0.237 0.293,-0.474 0.439,-0.711 -5.442,-9.193 -9.875,-18.819 -13.052,-28.981 -3.169,-10.136 -5.017,-20.517 -4.757,-31.789 -4.626,4.358 -9.395,7.435 -15.028,8.475 -5.421,1.002 -10.971,1.219 -16.425,1.776 1.884,9.257 7.872,21.607 14.824,30.331 5.916,7.426 12.91,13.7 22.089,17.37"
           style="fill:#2b6609;fill-opacity:1;fill-rule:nonzero;stroke:none;stroke-width:0.1"
           id="path164289" />
        <path
           d="m 693.62994,836.34188 c 44.26873,3.68927 21.23628,-86.10733 15.85823,-104.29264 -1.83722,-4.11889 -4.97638,-11.95675 -8.78267,-19.47328 -4.10492,-8.10681 -9.54585,-15.37971 -17.21256,-20.86429 -6.05653,-4.33195 -12.89545,-6.77168 -20.68441,-5.4741 -25.34032,4.22368 -40.01798,29.39722 -38.58418,52.34235 1.31155,20.98916 9.63142,43.71249 20.59971,61.55289 9.82789,15.98483 27.81847,34.46004 48.80588,36.20907"
           style="fill:#2b6609;fill-opacity:1;fill-rule:nonzero;stroke:none;stroke-width:0.0873202"
           id="path164291" />
        <path
           d="m 800.35502,858.54879 c 0.15,-0.05 0.3,-0.1 0.451,-0.15 0.236,-0.371 0.407,-0.801 0.715,-1.105 5.594,-5.515 9.302,-12.018 11.399,-19.268 4.976,-17.195 2.764,-33.7 -3.581,-49.762 -0.091,-0.23 -0.387,-0.38 -0.65,-0.626 -8.51,8.199 -18.425,12.544 -30.704,11.269 1.393,1.896 2.543,3.366 3.588,4.901 8.568,12.582 13.486,26.604 16.515,41.345 0.911,4.432 1.519,8.929 2.267,13.396"
           style="fill:#2b6609;fill-opacity:1;fill-rule:nonzero;stroke:none;stroke-width:0.1"
           id="path164293" />
        <path
           d="m 743.84605,660.14018 c -35.81002,8.83593 -32.3338,41.22125 -20.63551,71.05856 7.24495,18.48045 17.64566,35.98379 23.81833,46.30591 8.14959,13.62894 22.50504,36.14183 42.9432,30.18485 41.43781,-12.07726 24.1388,-87.24337 12.7243,-110.7718 -5.32478,-10.97789 -12.33834,-20.83285 -22.30769,-28.469 -10.59369,-8.11554 -22.55219,-11.76029 -36.54263,-8.30852"
           style="fill:#2b6609;fill-opacity:1;fill-rule:nonzero;stroke:none;stroke-width:0.0873202"
           id="path164295" />
        <path
           d="m 852.62482,725.90439 c 5.619,-5.731 9.162,-12.487 11.14,-19.923 4.423,-16.627 2.246,-32.578 -3.81,-48.09 -0.126,-0.322 -0.364,-0.6 -0.662,-1.079 -8.542,8.163 -18.35,12.65 -31.008,11.304 7.164,8.784 11.763,18.243 15.32,28.212 3.577,10.03 5.821,20.396 6.992,31.48 0.928,-0.868 1.5,-1.367 2.028,-1.904"
           style="fill:#2b6609;fill-opacity:1;fill-rule:nonzero;stroke:none;stroke-width:0.1"
           id="path164297" />
        <path
           d="m 775.089,613 c 6.917,18.668 15.838,37.61 31.68,50.817 42.455,35.389 66.626,-14.499 63.769,-52.028 -0.366,-4.81 -1.128,-9.845 -2.288,-14.939 -2.211,-9.705 -5.741,-19.435 -10.69,-28.095 -8.376,-14.659 -21.479,-28.331 -39.125,-32.598 -19.29,-4.666 -38.899,4.211 -47.296,22.222 -8.581,18.404 -2.523,37.151 3.95,54.621"
           style="fill:#2b6609;fill-opacity:1;fill-rule:nonzero;stroke:none;stroke-width:0.1"
           id="path164299" />
        <path
           d="m 721.261,445.17 c -19.678,6.297 -38.295,22.783 -54.173,32.539 -21.179,13.013 -44.13,20.726 -68.972,21.982 -23.82,1.205 -49.497,-2.85 -70.413,12.213 -21.557,15.524 -20.902,42.19 -8.194,61.575 14.102,21.51 40.966,31.858 65.468,39.42 14.443,4.457 29.213,8.334 42.966,14.426 15.132,6.704 27.313,17.554 44.332,20.373 37.977,6.29 48.095,-52.457 62.868,-74.419 14.667,-21.804 36.135,-42.315 41.741,-68.238 4.598,-21.257 -1.974,-48.903 -23.709,-58.786 -10.772,-4.896 -21.491,-4.419 -31.914,-1.085"
           style="fill:#2b6609;fill-opacity:1;fill-rule:nonzero;stroke:none;stroke-width:0.1"
           id="path164301" />
        <path
           d="m 574.594,632.743 c -18.582,-19.231 -43.205,-10.757 -60.487,7.932 -8.053,8.712 -11.385,19.234 -11.748,30.457 -0.26,8.03 1.35,18.479 4.633,29.394 9.753,32.427 34.274,68.974 68.408,58.483 48.213,-14.819 22.205,-102.45 -0.806,-126.266"
           style="fill:#2b6609;fill-opacity:1;fill-rule:nonzero;stroke:none;stroke-width:0.1"
           id="path164303" />
      </g>
    </g>
  </g>
</svg>
