<svg id="Layer_1" data-name="Layer 1" xmlns="http://www.w3.org/2000/svg" viewBox="0 0 34.71 39.38"><defs><style>.cls-1{fill:#6d6e71;}</style></defs><path class="cls-1" d="M13.27,15s0,.26.12.21.09-.06,0-.32c0,0-.18-.49-.47,0a3.16,3.16,0,0,0-.22,1.5,7,7,0,0,1-.2,2.39,62.91,62.91,0,0,0-1.41,6.51,37.25,37.25,0,0,0-.11,7.49s.41,2.22.41,2.3a10.81,10.81,0,0,0,.41,1.22l.74,1.5.65,1s1.4,2,1.6,2.14c0,0,1.55,1.54,1.6,1.66a5.68,5.68,0,0,0,.81.77s2.7,2.07,3.15,2.34A9.62,9.62,0,0,0,23.8,47.4a34,34,0,0,0,5.22.78,17.37,17.37,0,0,0,3.75-.45,18.87,18.87,0,0,0,3.14-1.15,4.51,4.51,0,0,0,1.85-1.84A6.77,6.77,0,0,0,38.27,42a11.53,11.53,0,0,0-.59-2.34L37.5,39a5.58,5.58,0,0,0,.83,1s.63.58.92,0c0,0,.18-.3-.31-1a4.27,4.27,0,0,1-.58-1.84s.12,1,1.35.44a7.2,7.2,0,0,0,2.79-2.66,28.71,28.71,0,0,0,2.12-4.41,35.9,35.9,0,0,0,.79-4.79,23.13,23.13,0,0,0-.23-5.56L44.69,17s-.54-1.86-.63-2a10.52,10.52,0,0,0-1.78-3.85A7.29,7.29,0,0,0,37.75,8.9a20,20,0,0,0-4.69.1s-5,.64-5.52.6l-4.26.49a6.78,6.78,0,0,0-1.13.2,8.78,8.78,0,0,1-1.36.18h-.27s-.56-.39-.71.14a1.68,1.68,0,0,1-.23.76s-1.95,3.14-2.2,3.48A46.55,46.55,0,0,0,15,19s-2.51,4.34-2.53,4.59a9.86,9.86,0,0,0-.8,2.36,6.22,6.22,0,0,0,.27,3.86A20.21,20.21,0,0,0,16,35a54.45,54.45,0,0,0,6,4.2s2.73,1.65,4.38,1.6a7.78,7.78,0,0,0,3.81.62s1.47.35,2.15-.51c0,0,1.79-.15,2.09-1.17,0,0,2,1.88,2.14,2.14,0,0,1,2.83-2.25,4.34a13.64,13.64,0,0,1-3.83,1.15s-3.48.35-4.59-.11a25.71,25.71,0,0,1-3.13-.73,19.61,19.61,0,0,1-5.12-3.47,26,26,0,0,1-3.74-4s-1.54-2.36-1.66-2.71a14.32,14.32,0,0,1-.92-3.89s-.21-3.81-.15-4.48c0,0,.2-2.7.28-3,0,0,.32-2.45.4-2.62,0,0,.6-2.72.68-2.85s.39-1.74.38-1.9c0,0,0-1.27,0-1.47a4.7,4.7,0,0,1,.12-.8A1.2,1.2,0,0,0,13,15S13.07,14.52,13.27,15Z" transform="translate(-10.78 -8.8)"/></svg>