<svg id="Layer_1" data-name="Layer 1" xmlns="http://www.w3.org/2000/svg" viewBox="0 0 48.79 24.44"><defs><style>.cls-1{fill:#3b2416;}</style></defs><path class="cls-1" d="M53.08,23.59l-.88-1.22-4-.68L47,21.9l-3.4,1.45L43.48,23l-1.09.18h0l-.43.07-1.42.41-.33.13-.72-.54-.88-.66-4-3.29-3.09-2.18L30.7,17h0l-2.59-.57-5.52.25L17.37,18l-3.88,2.58h0l-.38.26L8.29,26.32l0,.05L6.92,29.11,5,30.6H5l-.69.54.09,1.27h.28c.06.47.15,1.07.18,1.16A27.55,27.55,0,0,0,7.31,35.1l-.8,1.62.1,1.82.82.77,1-.05.28.86L9.2,40v-.78l1.09,0,.28.67.36,0,0-.64.35,0,1-.1.26.56h.4v-.85l.61-1-.8-.76h0l-.21-.2-.07-.37.88.17,4.11.61L19.5,37l9.78-.2,3.8-.71,2.41-.57-.22.82-.62,2.89.17,0-.32,1.07.31.2.49-1.14.37.1-.3,1.09.35.15.49-1.09.42.11-.3,1,.3.05.41-.92.61.16.13-.08-.13.89.35-.2.19-.95.42-.26.09-.24h0l1.78-4.87.21,2,.71,2.08h.28l.23.93.45-.06,0-.88.58,0,.22.8.31-.1v-.71l.64-.62.22.82.31-.2-.2-.93.3-.29.15-2.63-.56-3.05-.41-.4-1.4-.25.14-.16-.31-.19,4.41-1.63.24-.17h0l.42-.29L47.31,28l1.91-.64,2.44-1,.54-.61,0-1.06.62.11Z" transform="translate(-4.29 -16.39)"/></svg>