<?xml version="1.0" encoding="utf-8"?>
<!-- Generator: Adobe Illustrator 16.0.0, SVG Export Plug-In . SVG Version: 6.00 Build 0)  -->
<!DOCTYPE svg PUBLIC "-//W3C//DTD SVG 1.1//EN" "http://www.w3.org/Graphics/SVG/1.1/DTD/svg11.dtd">
<svg version="1.1" id="Layer_1" xmlns="http://www.w3.org/2000/svg" xmlns:xlink="http://www.w3.org/1999/xlink" x="0px" y="0px"
	 width="543.808px" height="484.567px" viewBox="25.516 203.747 543.808 484.567"
	 enable-background="new 25.516 203.747 543.808 484.567" xml:space="preserve">
<path d="M531.436,419.457c5.209,2.083,9.674,3.571,13.691,5.655c20.239,10.862,29.169,33.781,21.431,56.7
	c-23.067,68.902-67.713,118.162-134.235,147.777c-5.357,2.381-10.565,5.507-15.18,9.078c-19.347,14.733-38.247,29.913-57.445,44.795
	c-7.439,5.804-12.648,6.399-17.263,1.786c-5.507-5.358-3.721-11.013-0.446-16.817c4.167-6.994,7.887-14.138,12.798-22.77
	c-14.731,3.423-28.127,6.398-41.521,9.523c-24.108,5.655-48.219,11.461-72.326,16.967c-10.715,2.529-18.007-2.53-15.924-11.607
	c0.744-3.423,4.314-7.293,7.59-8.93c19.495-9.228,39.14-17.858,58.784-26.787c2.977-1.34,5.804-2.679,7.292-3.423
	c-0.299-5.806-2.382-11.608-0.446-15.031c2.083-3.721,7.888-6.102,12.5-7.441c12.799-3.72,25.746-6.695,37.949-9.673
	c0-12.055,0-23.364,0-35.271c-25.448-3.869-51.193-7.888-75.749-11.757c-7.292,9.971-13.84,21.28-22.771,30.211
	c-12.648,12.798-28.274,20.091-47.324,19.495c-26.489-0.744-53.129-0.299-79.618-0.148c-6.697,0-11.905-1.936-13.245-9.228
	c-1.19-6.25,2.084-10.863,9.376-12.947c13.988-3.869,28.127-7.738,43.604-12.056c-5.654-4.762-10.12-8.631-14.882-12.501
	c-4.763-3.868-7.144-8.481-4.316-14.285c2.978-6.251,8.482-7.145,14.586-5.508c11.459,3.126,22.918,6.251,34.377,9.675
	c5.209,1.637,7.59,0.595,8.779-5.061c3.125-15.031,6.995-29.913,10.27-44.944c0.445-1.935,0.148-4.465-0.894-6.102
	c-9.821-16.072-19.793-31.996-30.211-47.622c-1.935-2.828-5.506-5.804-8.779-6.398c-37.205-7.889-64.29-28.425-80.362-63.101
	c-1.042-2.381-2.828-4.614-4.763-6.548c-5.357-5.208-10.566-10.566-16.37-15.18c-17.412-13.84-29.765-31.55-40.479-50.748
	c-9.375-16.816-3.272-34.824,13.691-43.902c19.496-10.269,40.926-13.096,62.059-16.519c5.357-0.893,9.228-2.828,12.799-7.441
	c20.09-26.341,57.594-22.472,73.22,6.995c1.785,3.423,5.654,6.846,9.376,8.334c54.021,20.239,108.043,40.33,162.214,60.272
	c33.633,12.352,62.653,31.699,86.91,58.04c3.423,3.721,6.847,4.911,11.607,4.763c12.203-0.447,24.259,0.148,36.462-0.596
	c16.071-1.042,29.764,3.125,37.8,18.007C544.681,392.372,542.003,406.36,531.436,419.457z M477.861,381.508
	c-0.147,0.595-0.446,1.339-0.595,1.935c6.548,6.846,13.096,13.84,19.645,20.686c7.738,8.187,7.738,8.334,16.37,1.488
	c4.613-3.571,7.292-8.036,5.655-14.138c-1.786-6.25-6.102-9.673-12.353-9.971C496.91,381.21,487.385,381.508,477.861,381.508z"/>
<path fill="#FFFFFF" d="M113.698,280.161c0-14.584,10.566-25.299,25.002-25.448c14.733-0.148,26.043,11.013,26.043,25.448
	c-0.147,13.691-12.054,25.597-25.597,25.597C125.157,305.758,113.698,294.15,113.698,280.161z M151.377,279.567
	c-6.237-4.159-10.395-9.011-13.86-8.664c-3.467,0.347-8.665,6.238-8.665,9.357c0,3.466,5.544,9.011,9.01,9.011
	C141.327,289.618,145.138,284.419,151.377,279.567z"/>
</svg>
