<?xml version="1.0" encoding="utf-8"?>
<!-- Generator: Adobe Illustrator 16.0.0, SVG Export Plug-In . SVG Version: 6.00 Build 0)  -->
<!DOCTYPE svg PUBLIC "-//W3C//DTD SVG 1.1//EN" "http://www.w3.org/Graphics/SVG/1.1/DTD/svg11.dtd">
<svg version="1.1" id="Layer_1" xmlns="http://www.w3.org/2000/svg" xmlns:xlink="http://www.w3.org/1999/xlink" x="0px" y="0px"
	 width="243.842px" height="284.495px" viewBox="-57.002 -82.003 243.842 284.495"
	 enable-background="new -57.002 -82.003 243.842 284.495" xml:space="preserve">
<g>
	<path d="M173.109,108.677c-0.007-0.004-0.016-0.009-0.02-0.013c-0.137-0.016-0.242-0.026-0.372-0.039
		c-0.117-0.013-0.208-0.026-0.318-0.034c-0.294-0.03-0.551-0.053-0.78-0.069c-0.493-0.498-1.215-1.004-2.29-1.464
		c0.007,0,0.011,0,0.018,0c-0.525-0.223-1.126-0.439-1.831-0.634c-0.605-0.171-1.354-0.233-2.162-0.246
		c-0.1,0-0.187-0.009-0.286-0.009c-0.786,0.009-1.656,0.084-2.563,0.212c-0.144,0.018-0.286,0.039-0.435,0.059
		c-0.917,0.141-1.868,0.33-2.84,0.564c-0.14,0.034-0.276,0.066-0.417,0.104c-1.012,0.251-2.03,0.536-3.038,0.86
		c-0.047,0.018-0.093,0.034-0.138,0.048c-1.062,0.344-2.102,0.72-3.088,1.115c-0.007,0-0.013,0.005-0.021,0.005
		c-0.141,0.058-0.276,0.116-0.417,0.173l0,0c-0.003,0.004-0.007,0.004-0.009,0.004c-0.666,0.277-1.293,0.558-1.892,0.844
		c0.734-1.67,1.4-3.33,1.995-4.982c0.143-0.396,0.296-0.787,0.431-1.18c0.778-2.269,1.431-4.515,1.984-6.729
		c0.1-0.406,0.19-0.806,0.285-1.21c0.521-2.26,0.967-4.493,1.285-6.678c0.017-0.123,0.03-0.237,0.047-0.358
		c0.312-2.184,0.52-4.312,0.655-6.394c0.011-0.149,0.041-0.317,0.05-0.469c-0.004,0.027-0.018,0.052-0.021,0.077
		c0.24-3.924,0.207-7.637-0.013-11.083c0.004-0.03,0.009-0.059,0.013-0.091c-0.011-0.153-0.032-0.29-0.043-0.438
		c-0.113-1.631-0.26-3.198-0.439-4.692c-0.036-0.313-0.08-0.604-0.121-0.91c-0.173-1.319-0.361-2.582-0.568-3.771
		c-0.039-0.216-0.069-0.438-0.108-0.646c-0.082-0.464-0.169-0.896-0.255-1.339c0.119-0.544,0.207-1.115,0.255-1.711
		c0.009-0.113,0.005-0.23,0.009-0.343c0.043-0.649,0.043-1.313,0.009-1.99c-0.013-0.277-0.041-0.548-0.065-0.826
		c-0.052-0.547-0.125-1.086-0.22-1.625c-0.048-0.271-0.087-0.534-0.144-0.8c-0.155-0.719-0.341-1.423-0.572-2.088
		c0.002,0.016,0.004,0.031,0.006,0.047c-0.579-1.685-1.361-3.15-2.33-4.08c-1.604-1.546-5.557-2.184-9.629-2.408
		c0-0.002-0.002-0.002-0.002-0.004c-0.082-0.004-0.164-0.004-0.246-0.009c-0.19-0.009-0.381-0.021-0.571-0.029
		c-0.382-11.242-1.306-18.497-1.306-18.497c-0.073-0.747-0.287-1.453-0.502-2.159c0.02,0.024,0.046,0.04,0.069,0.064
		c-0.032-0.1-0.091-0.19-0.125-0.29c-0.164-0.512-0.39-0.999-0.618-1.485c-0.169-0.353-0.329-0.7-0.528-1.039
		c-0.189-0.33-0.385-0.655-0.603-0.972c0.02-0.013,0.041-0.033,0.061-0.047c0.454-0.332,0.921-0.71,1.405-1.104
		c0.317-0.254,0.611-0.483,0.937-0.765c0.778-0.677,1.567-1.418,2.344-2.246c0.207-0.22,0.393-0.477,0.594-0.705
		c0.578-0.653,1.145-1.33,1.676-2.069c0.286-0.393,0.532-0.819,0.801-1.235c0.276-0.435,0.581-0.833,0.836-1.293
		c-0.036,0.018-0.08,0.028-0.118,0.044c0.966-1.726,1.812-3.567,2.287-5.659c1.429-6.316,3.022-16.01,3.788-25.305
		c0.921,0.173,8.125,1.461,14.923,1.054c7.268-0.44,5.401-5.55,6.433-4.68c1.027,0.872,2.801,0.942,6.655,2.167
		c3.857,1.226,6.472-11.983,5.857-13.433c-0.021-0.052-0.046-0.091-0.071-0.122c-0.009,0.027-0.02,0.049-0.023,0.076
		c-0.753-0.784-3.516,6.066-5.467,7.749c-0.44,0.378-0.713,0.467-0.916,0.407c-0.173-0.049-0.297-0.212-0.381-0.493
		c-0.011-0.031-0.018-0.073-0.028-0.107c-0.082-0.315-0.145-0.719-0.223-1.2c0-0.006-0.004-0.017-0.004-0.023
		c-0.013-0.082-0.03-0.162-0.044-0.249c-0.043-0.26-0.086-0.52-0.146-0.803c-0.021-0.1-0.048-0.201-0.073-0.304
		c-0.03-0.123-0.063-0.237-0.1-0.364c-0.046-0.16-0.078-0.314-0.134-0.477c-0.135-0.387-0.295-0.777-0.507-1.154
		c-0.116-0.205-0.23-0.357-0.352-0.488c0.006,0.03,0.006,0.062,0.013,0.093c-1.14-1.271-2.541,0.6-4.815,2.225
		c-0.048,0.034-0.1,0.066-0.145,0.1c-0.839,0.585-1.793,1.118-2.894,1.428c-3.929,1.101-13.705,3.569-17.245,3.773
		c0.018-0.372,0.046-0.758,0.063-1.127c-0.864,0.242-1.719,0.49-2.549,0.764c0,0.002-0.002,0.006-0.002,0.011
		c-2.962,0.979-5.646,2.324-7.499,5.243c-1.392,2.194-2.041,4.783-2.486,7.386C140.899-8.312,141.15-1.69,141.5,6.07
		c0,0,0.048,0.14,0.085,0.279c0.011,0.037,0.023,0.082,0.032,0.126c0.059,0.222,0.121,0.514,0.143,0.846
		c0.002,0.009,0,0.021,0.002,0.029c0.021,0.316-0.004,0.659-0.075,0.996c-0.011,0.049-0.018,0.096-0.033,0.145
		c-0.077,0.278-0.248,0.53-0.44,0.771c-0.093,0.118-0.18,0.233-0.31,0.335c-0.078,0.062-0.149,0.13-0.244,0.184
		c-0.322,0.187-0.703,0.341-1.222,0.402c-0.521,0.065-1.038,0.176-1.548,0.302l-0.002-0.002c-0.037,0.009-0.063,0.021-0.098,0.031
		c-0.696,0.18-1.371,0.396-1.989,0.635c-0.59-1.661-1.211-3.062-1.651-3.865c-0.801-1.459-2.746-1.698-4.673-1.537
		c-0.007-0.007-0.016-0.016-0.02-0.023c-0.141,0.011-0.269,0.044-0.404,0.06c-0.353,0.04-0.686,0.088-1.024,0.147
		c-0.016,0.002-0.031,0.005-0.046,0.007c-0.757-5.329-2.75-11.591-4.755-15.005c-0.871-1.482-1.779-2.852-2.709-4.166
		c-0.244-0.353-0.497-0.693-0.748-1.035c-0.78-1.053-1.574-2.058-2.392-3.006c-0.182-0.213-0.356-0.44-0.542-0.649
		c-0.99-1.113-2.007-2.152-3.049-3.126c-0.228-0.209-0.454-0.403-0.682-0.606c-0.873-0.784-1.764-1.523-2.668-2.221
		c-0.255-0.196-0.51-0.401-0.771-0.591c-1.118-0.822-2.256-1.599-3.421-2.305c-0.073-0.044-0.149-0.081-0.223-0.125
		c-1.099-0.659-2.227-1.261-3.373-1.83c-0.292-0.144-0.584-0.285-0.878-0.425c-1.106-0.525-2.231-1.019-3.377-1.473
		c-0.125-0.048-0.242-0.102-0.363-0.151c-1.282-0.497-2.59-0.947-3.918-1.37c-0.1-0.033-0.194-0.073-0.294-0.105
		c0.009,0.01,0.021,0.019,0.034,0.025c-1.582-0.496-3.195-0.952-4.843-1.361c0.08-0.056,0.139-0.141,0.216-0.202
		c0.108-0.086,0.199-0.177,0.294-0.277c0.224-0.222,0.409-0.465,0.569-0.739c0.063-0.106,0.127-0.206,0.182-0.321
		c0.157-0.338,0.253-0.702,0.298-1.092c0.009-0.062,0.046-0.11,0.046-0.174c-0.005,0.002-0.009,0-0.014,0.004
		c0.083-1.191-0.458-2.542-1.887-3.834c0.257-0.317,0.525-0.623,0.866-0.837c0.091-0.061,0.19-0.107,0.286-0.151
		c0.009-0.044,0.025-0.082,0.036-0.125c0.067,0.015,0.137,0.015,0.203,0.023c0.487-0.184,0.995-0.243,1.517-0.285
		c0.521-0.266,1.02-0.689,1.487-1.218c0.013-0.015,3.539,0.003,3.844-0.042c1.021-0.144,2.022-0.524,2.776-1.274
		c0.493-0.485,0.891-0.921,1.339-1.453c-0.032,0.034,0.841,0.357,1.048,0.372c1.401,0.088,2.525-0.449,3.777-1.013
		c0.677-0.521,1.335-1.085,1.989-1.664c0.301-0.757,0.744-1.393,1.667-1.43c2.858-0.113,5.319,0.128,6.822-2.832
		c0.054-0.113,0.196-0.19,0.319-0.184c0.306,0.008,0.6,0.006,0.892,0.002c0.499-0.131,1.115-0.281,1.106-0.281
		c0.924-0.252,1.979-1.076,2.563-1.787c0.367-0.444,0.735-0.894,1.031-1.393c0.034-0.058,1.929-0.403,2.205-0.53
		c1.991-0.9,3.337-3.15,4.171-5.059c0.536-1.229,1.563-0.946,2.39-1.897c0.668-0.777,0.962-1.493,1.137-2.33
		c1.027,0.021,1.734-0.197,2.817-1.016c0.206-0.157,0.374-0.332,0.523-0.516c0.413-0.75,0.684-1.57,0.77-2.429
		c0.02-0.221,0.156-0.351,0.374-0.378c1.393-0.152,3.177-0.471,4.158-1.583c0.921-1.039,1.191-2.606,1.306-3.955
		c0.143-1.667,0.117-3.378-0.251-5.009c-0.209-0.385-0.474-0.704-0.761-0.971c-0.039-0.034-0.057-0.091-0.095-0.122
		c0,0.015-0.007,0.033-0.007,0.048c-0.662-0.553-1.485-0.711-2.445,0.14c-2.069,1.833-2.409,4.709-3.204,7.27
		c-0.05-0.037-0.091-0.074-0.147-0.108c-0.272-0.157-0.573-0.11-0.834,0.065c-0.991,0.67-1.659,1.864-1.882,3.108
		c-1.215,0.773-2.426,2.436-3.321,3.727v-0.002c-0.021,0.032-0.038,0.057-0.061,0.091v0.002c-0.125,0.182-0.266,0.378-0.376,0.538
		c-2.406,0.208-4.713,2.777-5.085,5.314c-2,0.444-3.213,2.007-4.231,3.761c0-0.007-0.002-0.011-0.005-0.015
		c-0.032,0.055-0.066,0.114-0.099,0.175c-0.005,0.013-0.011,0.026-0.016,0.039c-0.063,0.113-0.139,0.219-0.199,0.335
		c-2.168,0.06-3.057,0.744-3.753,2.433c-0.002-0.002-0.002-0.004-0.005-0.006c-0.009,0.029-0.021,0.048-0.034,0.078
		c-0.121,0.015-0.26,0.064-0.417,0.168c0.121-0.078,0.11-0.122,0.058-0.153c-0.013-0.009-0.03-0.015-0.052-0.021
		c-0.02-0.004-0.02-0.013-0.043-0.018c0,0.004-0.004,0.009-0.004,0.013c-0.301-0.051-1.017,0.032-1.099,0.032
		c-0.677,0.016-1.496,0.12-2.08,0.488c-0.774,0.485-1.332,0.936-1.812,1.443c-0.005-0.02-0.009-0.035-0.009-0.055
		c-0.215,0.219-0.415,0.454-0.593,0.715c-0.063-0.014-0.13-0.014-0.192-0.022c-0.002,0.004-0.007,0.009-0.011,0.013
		c-2.028-0.342-4.091,0.661-5.647,1.985c-0.123,0.102-0.164,0.141-0.244,0.216v-0.002c-0.256,0.226-0.349,0.313-0.441,0.363
		c-0.013,0.008-0.037,0.031-0.05,0.036c-0.095,0.04-0.182,0.02-0.419,0.006c0,0.002-0.003,0.002-0.005,0.004
		c-0.112-0.006-0.216-0.017-0.419-0.011c-1.756,0.051-3.473,0.549-5.064,1.281c-0.298,0.141-1.688,1.287-2.525,1.799
		c-0.303,0.184-0.54,0.294-0.614,0.229c-0.189-0.172-0.394-0.277-0.601-0.349c0,0.002-0.002,0.004-0.002,0.006
		c-0.69-0.232-1.444,0.004-2.11,0.304c-0.431,0.192-1.116,0.702-1.743,1.291c-0.002-0.006-0.006-0.012-0.009-0.019
		c-0.112,0.105-0.231,0.211-0.335,0.323c-0.199-0.125-0.415-0.218-0.648-0.298c0.009,0.015,0.004,0.038,0.009,0.051
		c-1.321-0.465-3.101-0.272-4.192-0.124c-2.896,0.392-5.685,2.216-6.638,5.037c-3.38-1.226-7.311-2.01-12.054-2.019
		c-6.075-0.012-10.935,1.154-14.821,3.058c-0.497-3.452-3.728-5.637-6.979-6.078c-1.089-0.148-2.869-0.34-4.191,0.125
		c0.007-0.016,0.003-0.038,0.012-0.053c-0.233,0.079-0.454,0.172-0.651,0.298c-0.106-0.112-0.226-0.219-0.336-0.323
		c0,0.007-0.007,0.011-0.007,0.019c-0.627-0.589-1.311-1.098-1.743-1.291c-0.668-0.299-1.421-0.536-2.109-0.306
		c0-0.002-0.003-0.002-0.003-0.004c-0.207,0.07-0.411,0.177-0.602,0.349c-0.075,0.065-0.313-0.043-0.615-0.23
		c-0.835-0.509-2.228-1.658-2.522-1.798c-1.591-0.735-3.309-1.23-5.064-1.281c-0.207-0.008-0.311,0.002-0.422,0.011
		c0-0.002-0.002-0.002-0.002-0.004c-0.239,0.013-0.325,0.034-0.421-0.006c-0.015-0.005-0.042-0.031-0.058-0.04
		c-0.088-0.051-0.182-0.135-0.431-0.359c0,0,0,0,0,0.002c-0.082-0.073-0.125-0.112-0.244-0.217
		c-1.562-1.325-3.622-2.329-5.652-1.983c0-0.004-0.004-0.009-0.007-0.013c-0.064,0.009-0.131,0.009-0.193,0.021
		c-0.176-0.26-0.378-0.495-0.59-0.714c0,0.021-0.007,0.038-0.007,0.055c-0.487-0.507-1.043-0.961-1.813-1.445
		c-0.592-0.368-1.408-0.469-2.082-0.488c-0.082,0-0.801-0.084-1.1-0.032c0-0.004-0.003-0.01-0.003-0.014
		c-0.023,0.004-0.025,0.014-0.044,0.018c-0.023,0.007-0.04,0.013-0.051,0.022c-0.053,0.031-0.063,0.076,0.055,0.153
		c-0.156-0.105-0.296-0.153-0.416-0.168c-0.011-0.029-0.023-0.049-0.034-0.078c0,0.002-0.004,0.004-0.004,0.007
		c-0.697-1.689-1.587-2.373-3.752-2.433c-0.063-0.116-0.138-0.222-0.201-0.335c-0.004-0.013-0.012-0.026-0.014-0.039
		c-0.035-0.061-0.066-0.118-0.102-0.175c0,0.004-0.003,0.009-0.005,0.015c-1.016-1.753-2.229-3.316-4.229-3.762
		c-0.372-2.536-2.682-5.104-5.086-5.313c-0.11-0.159-0.25-0.358-0.376-0.537v-0.002c-0.024-0.031-0.042-0.058-0.062-0.091v0.002
		c-0.895-1.291-2.108-2.954-3.321-3.727c-0.222-1.247-0.886-2.438-1.88-3.109c-0.26-0.174-0.563-0.22-0.835-0.063
		c-0.057,0.033-0.097,0.071-0.146,0.108c-0.795-2.559-1.14-5.438-3.207-7.27c-0.963-0.851-1.787-0.693-2.444-0.14
		c0-0.013-0.008-0.034-0.006-0.049c-0.038,0.03-0.057,0.089-0.095,0.121c-0.287,0.269-0.551,0.587-0.762,0.972
		c-0.367,1.63-0.396,3.341-0.252,5.009c0.118,1.348,0.387,2.916,1.304,3.955c0.981,1.109,2.768,1.43,4.16,1.583
		c0.219,0.027,0.354,0.157,0.379,0.378c0.063,0.866,0.338,1.686,0.739,2.434c0.148,0.184,0.319,0.361,0.522,0.516
		c1.08,0.819,1.792,1.039,2.814,1.016c0.177,0.834,0.471,1.552,1.14,2.33c0.826,0.954,1.853,0.67,2.389,1.897
		c0.835,1.906,2.177,4.158,4.173,5.059c0.275,0.126,2.17,0.47,2.206,0.529c0.294,0.499,0.661,0.947,1.029,1.393
		c0.587,0.709,1.639,1.535,2.562,1.787c-0.009,0,0.606,0.15,1.105,0.281c0.296,0.004,0.59,0.006,0.888-0.002
		c0.126-0.004,0.27,0.07,0.325,0.184c1.498,2.96,3.963,2.719,6.819,2.831c0.923,0.038,1.367,0.671,1.667,1.43
		c0.657,0.579,1.313,1.143,1.988,1.663c1.248,0.563,2.376,1.1,3.779,1.014c0.205-0.015,1.075-0.338,1.048-0.372
		c0.446,0.532,0.848,0.967,1.337,1.453c0.755,0.75,1.756,1.131,2.778,1.275c0.306,0.044,3.83,0.027,3.844,0.042
		c0.467,0.53,0.963,0.955,1.487,1.218c0.519,0.042,1.028,0.102,1.515,0.286c0.066-0.006,0.135-0.006,0.204-0.025
		c0.011,0.044,0.026,0.082,0.035,0.126c0.096,0.046,0.195,0.093,0.288,0.15c0.568,0.361,0.942,0.981,1.386,1.47
		c0.038,0.042,0.093,0.044,0.136,0.08c-0.902,1.071-1.254,2.15-1.188,3.124c-0.002-0.002-0.009,0-0.013-0.002
		c0.004,0.057,0.038,0.102,0.044,0.157c0.047,0.395,0.142,0.764,0.303,1.107c0.051,0.116,0.118,0.213,0.182,0.321
		c0.16,0.272,0.344,0.516,0.563,0.737c0.097,0.099,0.191,0.192,0.299,0.279c0.235,0.19,0.489,0.336,0.757,0.463
		c0.025,0.011,0.045,0.031,0.069,0.042C27.188-29.793,15.979-23.669,7.404-9.07C6.903-8.216,6.413-7.145,5.927-5.996
		c0.004-0.021,0.002-0.04,0.004-0.059c-0.11,0.264-0.214,0.558-0.323,0.832c-0.14,0.356-0.279,0.698-0.416,1.07
		C5.003-3.629,4.824-3.084,4.645-2.538c-0.102,0.313-0.21,0.61-0.308,0.932C4.081-0.762,3.841,0.101,3.622,0.971
		c-0.084,0.337-0.154,0.671-0.232,1.01C3.252,2.563,3.125,3.141,3.011,3.72C2.942,4.08,2.882,4.425,2.823,4.779
		C2.75,5.213,2.679,5.643,2.617,6.068c0-0.002-0.002-0.002-0.005-0.005c0,0.007,0,0.011,0,0.017C2.566,6.07,2.515,6.063,2.473,6.052
		C2.251,6.006,2.04,5.97,1.807,5.93C1.47,5.871,1.14,5.823,0.789,5.783c-0.138-0.016-0.266-0.047-0.403-0.06
		C0.376,5.731,0.373,5.74,0.364,5.747c-1.929-0.161-3.871,0.078-4.675,1.537c-0.44,0.801-1.061,2.204-1.649,3.865
		c-0.62-0.237-1.293-0.453-1.986-0.633c-0.035-0.009-0.066-0.024-0.102-0.033c-0.002,0-0.002,0.002-0.002,0.002
		c-0.509-0.129-1.027-0.236-1.547-0.302c-0.519-0.062-0.901-0.214-1.223-0.402c-0.095-0.054-0.167-0.122-0.245-0.184
		c-0.126-0.1-0.215-0.217-0.308-0.335c-0.192-0.241-0.366-0.493-0.443-0.774c-0.013-0.046-0.02-0.093-0.028-0.142
		c-0.076-0.339-0.099-0.684-0.076-1.001c0-0.006,0-0.016,0-0.024c0.025-0.332,0.084-0.626,0.142-0.848
		c0.012-0.044,0.023-0.091,0.034-0.127c0.042-0.139,0.084-0.278,0.084-0.278c0.349-7.76,0.6-14.383,0.777-19.986
		c-0.443-2.603-1.092-5.192-2.487-7.386c-1.851-2.919-4.535-4.263-7.497-5.243c0-0.002-0.002-0.007-0.002-0.011
		c-0.83-0.275-1.686-0.52-2.548-0.765c0.015,0.37,0.046,0.756,0.062,1.128c-3.537-0.205-13.314-2.673-17.24-3.773
		c-1.107-0.311-2.064-0.843-2.905-1.431c-0.044-0.029-0.084-0.057-0.126-0.088c-2.283-1.627-3.686-3.505-4.829-2.231
		c0.006-0.031,0.006-0.063,0.015-0.093c-0.123,0.131-0.239,0.283-0.355,0.488c-0.211,0.376-0.372,0.767-0.505,1.154
		c-0.053,0.162-0.089,0.317-0.133,0.477c-0.038,0.125-0.072,0.239-0.1,0.364c-0.025,0.103-0.053,0.205-0.076,0.304
		c-0.06,0.29-0.108,0.556-0.148,0.823c-0.013,0.07-0.027,0.14-0.038,0.208c-0.002,0.018-0.006,0.04-0.009,0.058
		c-0.073,0.476-0.139,0.875-0.222,1.186c-0.008,0.034-0.017,0.076-0.026,0.107c-0.084,0.281-0.208,0.444-0.381,0.493
		c-0.206,0.063-0.478-0.026-0.917-0.407c-1.95-1.685-4.713-8.533-5.466-7.749c-0.006-0.025-0.015-0.049-0.023-0.076
		c-0.03,0.031-0.051,0.068-0.074,0.122c-0.611,1.45,2.001,14.659,5.858,13.433c3.854-1.225,5.628-1.295,6.655-2.167
		c1.031-0.873-0.834,4.24,6.439,4.68c6.792,0.408,13.997-0.881,14.918-1.054c0.764,9.295,2.358,18.99,3.79,25.305
		c0.477,2.092,1.322,3.934,2.286,5.661c-0.04-0.018-0.08-0.028-0.12-0.046c0.26,0.467,0.57,0.874,0.853,1.314
		c0.258,0.407,0.503,0.824,0.782,1.206c0.542,0.752,1.116,1.44,1.705,2.104c0.193,0.219,0.37,0.465,0.567,0.676
		c0.779,0.83,1.569,1.571,2.351,2.253c0.321,0.276,0.611,0.5,0.923,0.753c0.489,0.397,0.961,0.777,1.419,1.111
		c0.195,0.142,0.376,0.279,0.562,0.412c-0.022,0.033-0.042,0.068-0.063,0.102c-0.009,0.013-0.02,0.025-0.028,0.038
		c0.004-0.002,0.009-0.005,0.013-0.007c-1.04,1.632-1.75,3.44-1.942,5.385c0,0-0.923,7.243-1.304,18.474
		c-0.454,0.013-0.906,0.031-1.36,0.053c-0.084,0.005-0.167,0.005-0.252,0.009c0,0.002-0.002,0.002-0.002,0.006
		c-4.067,0.225-8.02,0.862-9.627,2.406c-0.967,0.93-1.753,2.397-2.331,4.084c0.002-0.017,0.002-0.035,0.006-0.053
		c-0.23,0.664-0.416,1.371-0.574,2.092c-0.055,0.262-0.093,0.521-0.14,0.784c-0.095,0.547-0.169,1.09-0.224,1.641
		c-0.026,0.277-0.049,0.543-0.064,0.815c-0.036,0.681-0.036,1.353,0.006,2.008c0.007,0.107,0,0.222,0.009,0.327
		c0.049,0.596,0.14,1.167,0.257,1.714c-0.086,0.443-0.173,0.872-0.255,1.335c-0.039,0.209-0.07,0.431-0.108,0.643
		c-0.208,1.199-0.399,2.471-0.573,3.799c-0.038,0.298-0.078,0.575-0.116,0.88c-0.18,1.492-0.328,3.055-0.438,4.681
		c-0.012,0.16-0.034,0.299-0.044,0.459c0.002,0.032,0.009,0.064,0.011,0.095c-0.219,3.446-0.253,7.157-0.011,11.083
		c-0.004-0.025-0.016-0.054-0.021-0.082c0.009,0.16,0.04,0.333,0.049,0.493c0.137,2.063,0.344,4.178,0.651,6.34
		c0.021,0.134,0.031,0.264,0.048,0.397c0.321,2.171,0.762,4.397,1.282,6.65c0.095,0.415,0.188,0.822,0.293,1.237
		c0.548,2.214,1.202,4.449,1.979,6.711c0.137,0.4,0.293,0.798,0.439,1.202c0.596,1.647,1.257,3.304,1.988,4.969
		c-0.587-0.281-1.2-0.554-1.853-0.826c-0.015-0.004-0.027-0.013-0.044-0.021v0.002c-0.14-0.058-0.279-0.116-0.423-0.175
		c-0.002,0-0.008-0.004-0.014-0.004c-0.985-0.396-2.03-0.772-3.093-1.118c-0.046-0.015-0.089-0.03-0.135-0.046
		c-1.006-0.324-2.025-0.609-3.039-0.86c-0.14-0.038-0.275-0.073-0.417-0.107c-0.975-0.229-1.926-0.42-2.845-0.563
		c-0.146-0.021-0.288-0.043-0.432-0.061c-0.91-0.125-1.778-0.203-2.566-0.21c-0.1,0-0.186,0.009-0.283,0.009
		c-0.809,0.011-1.555,0.076-2.163,0.246c-0.704,0.195-1.306,0.413-1.832,0.634c0.006,0,0.011,0,0.019,0
		c-1.075,0.459-1.8,0.969-2.292,1.462c-0.226,0.02-0.479,0.043-0.769,0.069c-0.117,0.013-0.214,0.021-0.338,0.039
		c-0.122,0.013-0.228,0.021-0.357,0.036c-0.004,0.005-0.011,0.007-0.017,0.011c-3.646,0.424-10.273,1.711-11.812,5.603
		c-2.201,5.563-1.498,5.567,0.812,3.851c0.116-0.084,0.253-0.19,0.376-0.285c0.37-0.281,0.769-0.588,1.203-0.921
		c0.277-0.217,0.584-0.45,0.886-0.679c0.23-0.178,0.462-0.355,0.706-0.537c0.498-0.367,1.018-0.743,1.565-1.115
		c0.066-0.046,0.135-0.091,0.205-0.139c0.547-0.369,1.121-0.727,1.705-1.068c0.202-0.116,0.414-0.223,0.616-0.332
		c0.438-0.24,0.883-0.468,1.337-0.68c0.237-0.11,0.478-0.212,0.719-0.311c0.46-0.19,0.927-0.351,1.4-0.493
		c0.223-0.069,0.444-0.147,0.67-0.203c0.604-0.149,1.216-0.247,1.827-0.299c9.465,0.225,18.458,3.097,22.684,3.481
		c0.068,0.052,0.142,0.1,0.223,0.143c-0.004,0-0.006,0.004-0.013,0.009c0.173,0.091,0.372,0.155,0.596,0.19
		c0.074,0.008,0.159,0,0.239,0.004c0.208,0.009,0.435-0.018,0.686-0.071c0.102-0.024,0.204-0.046,0.313-0.08
		c0.363-0.112,0.752-0.269,1.207-0.532c2.563-1.494,3.097-11.347,2.741-22.495c-1.217-5.596-2.973-11.087-5.005-16.465
		c-0.831-2.194-1.862-4.387-2.09-6.757c-0.165-1.695-0.005-3.351,0.167-5.033c0.579-0.184,1.191-0.445,1.855-0.809
		c2.281-1.252,4.138-3.125,6.078-4.841c0.222,12.504,1.351,27.258,4.466,41.888c-0.015-0.057-0.038-0.117-0.053-0.176
		c0.048,0.228,0.11,0.45,0.159,0.677c0.335,1.557,0.693,3.107,1.077,4.659c-0.012,0.003-0.018,0.005-0.027,0.007
		c-0.177,0.052-0.37,0.098-0.536,0.156c0,0,0,0.004,0,0.008c-0.972,0.333-1.786,0.735-2.32,1.25
		c-2.55,2.454-3.879,8.497-3.104,12.899c-0.021-0.03-0.049-0.048-0.069-0.078c0.054,0.327,0.14,0.628,0.22,0.935
		c0.033,0.125,0.051,0.257,0.088,0.381c0.186,0.627,0.437,1.188,0.735,1.69c0.068,0.121,0.146,0.229,0.228,0.337
		c0.19,0.277,0.403,0.518,0.636,0.735c1.498,9.207,5.303,25.738,8.761,34.272c-0.405-0.004-0.788-0.028-1.214-0.011
		c-0.053,0-0.097-0.004-0.148-0.002c-0.239,0.011-0.499,0.045-0.74,0.059c-0.142,0.008-0.264-0.005-0.41,0.004
		c0.007,0.013,0.011,0.021,0.019,0.032c-0.04,0.003-0.08,0.007-0.12,0.011c-0.399,0.035-0.794,0.065-1.207,0.113
		c-0.494,0.056-0.978,0.107-1.49,0.181c-0.35,0.053-0.713,0.126-1.07,0.185c-0.181,0.032-0.36,0.061-0.542,0.093
		c-0.319,0.059-0.621,0.1-0.941,0.162c-0.558,0.11-1.131,0.244-1.703,0.374c-0.444,0.1-0.888,0.207-1.342,0.315
		c-0.442,0.112-0.875,0.208-1.321,0.324c-0.022,0.007-0.042,0.009-0.065,0.016c0,0,0,0.002-0.002,0.004
		c-0.648,0.173-1.306,0.379-1.961,0.573c-0.379,0.108-0.749,0.207-1.13,0.326c-1.498,0.465-3,0.971-4.5,1.521
		c-0.219,0.077-0.43,0.166-0.65,0.248c-1.281,0.482-2.546,0.979-3.801,1.512c-0.45,0.186-0.881,0.381-1.329,0.575
		c-1.046,0.458-2.07,0.926-3.077,1.407c-0.42,0.201-0.834,0.4-1.245,0.6c-1.181,0.588-2.317,1.185-3.405,1.79
		c-0.14,0.073-0.297,0.146-0.433,0.229c0.031-0.017,0.063-0.029,0.093-0.045c-5.44,3.06-9.573,6.272-10.833,8.901
		c-0.046,0.096-0.063,0.247-0.105,0.357c-0.34,0.079-0.685,0.223-1.021,0.404c-0.036,0.021-0.068,0.017-0.104,0.036
		c0,0.005,0,0.007,0,0.011c-0.019,0.009-0.034,0.009-0.047,0.021c0-0.004,0.002-0.004,0.002-0.004c-0.002,0-0.002,0.004-0.002,0.004
		c-0.06,0.035-0.116,0.108-0.177,0.147c-0.644,0.441-1.253,1.094-1.727,2.132c-0.282,0.614-0.627,1.314-1.007,2.071
		c-0.339,0.682-0.707,1.401-1.088,2.156c-0.137,0.266-0.264,0.533-0.403,0.806c-0.303,0.605-0.6,1.216-0.898,1.843
		c-0.148,0.313-0.286,0.618-0.429,0.93c-0.268,0.579-0.521,1.15-0.765,1.726c-0.068,0.164-0.15,0.328-0.219,0.492
		c0.016-0.03,0.038-0.052,0.051-0.079c-1.116,2.718-1.824,5.286-1.492,7.124c-0.013,0.048-0.034,0.089-0.047,0.138
		c0.032,0.141,0.064,0.281,0.108,0.416c1.324,4.099,0.545,5.954,1.324,4.099c0.779-1.863,0.148-2.533,1.829-8.354
		c1.177-4.086,5.324-8.782,7.718-11.247c1.238,0.229,2.341-0.388,3.292-1.185c1.798-1.51,3.735-2.842,5.575-4.295
		c1.719-1.359,3.393-2.771,5.18-4.032c0.488-0.186,0.978-0.369,1.475-0.551c-0.959,0.949-2.609,2.369-2.512,3.662
		c0.315,4.044,5.921-1.053,6.965-1.859c2.578-2.002,6.04-3.939,9.229-4.661c2.856-0.649,5.774-0.938,8.608-1.678
		c2.103-0.55,4.162-1.367,5.799-2.842c0.123-0.112,0.243-0.225,0.359-0.328c1.017-0.523,1.703-1.14,2.212-1.775
		c0.176,0.105,0.351,0.246,0.517,0.258c0.166,0.008,0.323-0.007,0.482-0.014c-0.011-0.013-0.02-0.025-0.033-0.039
		c4.13-0.164,5.783-5.635,4.394-6.971c-0.887-0.852-9.021-13.829-9.497-28.748c-0.069-2.166-0.086-3.646-0.175-4.934
		c0.544-0.377,1.096-0.74,1.607-1.163c0.766,1.989,1.563,3.958,2.436,5.887c11.342,25.107,32.62,42.675,57.824,47.946
		c1.743,0.363,3.356,0.727,4.995,0.813c0.071,0.008,0.146,0.013,0.219,0.021c0.173,0.004,0.353,0,0.53,0
		c0.176,0,0.352,0.004,0.526,0c0.075-0.009,0.146-0.014,0.223-0.021c0.177-0.009,0.348-0.046,0.521-0.065
		c0.004,0.023,0.006,0.048,0.008,0.065c0-0.018,0.003-0.046,0.005-0.065c1.457-0.13,2.903-0.422,4.456-0.748
		c25.209-5.271,46.482-22.839,57.829-47.946c0.761-1.688,1.466-3.407,2.149-5.142c0.039-0.097,0.082-0.192,0.121-0.289
		c0.319,0.248,0.646,0.481,0.978,0.707c-0.091,1.288-0.108,2.768-0.178,4.934c-0.476,14.919-8.609,27.896-9.494,28.748
		c-1.386,1.336,0.262,6.807,4.392,6.971c-0.013,0.014-0.02,0.026-0.032,0.039c0.157,0.007,0.317,0.021,0.481,0.014
		c0.167-0.012,0.344-0.152,0.518-0.258c0.508,0.636,1.195,1.252,2.212,1.775c0.116,0.107,0.237,0.216,0.363,0.328
		c1.634,1.475,3.692,2.292,5.794,2.842c2.833,0.739,5.758,1.028,8.61,1.678c3.187,0.722,6.65,2.659,9.229,4.661
		c1.042,0.807,6.649,5.903,6.965,1.859c0.095-1.293-1.553-2.716-2.511-3.662c0.491,0.182,0.984,0.365,1.473,0.551
		c1.786,1.261,3.459,2.673,5.181,4.032c1.838,1.453,3.775,2.787,5.574,4.295c0.951,0.797,2.056,1.414,3.29,1.185
		c2.396,2.465,6.543,7.161,7.72,11.247c1.682,5.823,1.051,6.495,1.827,8.354c0.78,1.855,0,0,1.325-4.099
		c0.045-0.135,0.077-0.272,0.108-0.416c-0.014-0.047-0.031-0.086-0.046-0.138c0.331-1.838-0.376-4.402-1.492-7.124
		c0.016,0.027,0.037,0.049,0.05,0.079c-0.064-0.159-0.146-0.324-0.214-0.483c-0.244-0.589-0.504-1.164-0.776-1.752
		c-0.139-0.303-0.272-0.599-0.415-0.899c-0.305-0.64-0.605-1.254-0.915-1.872c-0.136-0.269-0.257-0.528-0.391-0.787
		c-0.383-0.757-0.748-1.477-1.09-2.158c-0.381-0.757-0.727-1.457-1.008-2.071c-0.471-1.042-1.081-1.695-1.729-2.134
		c-0.059-0.041-0.114-0.11-0.173-0.146c-0.005-0.004-0.005-0.004-0.005-0.004l0,0c-0.013-0.009-0.03-0.009-0.043-0.018
		c-0.002-0.004-0.002-0.006-0.002-0.011c-0.037-0.02-0.067-0.015-0.104-0.032c-0.338-0.186-0.677-0.326-1.021-0.408
		c-0.041-0.11-0.059-0.262-0.106-0.357c-1.256-2.629-5.388-5.842-10.832-8.901c0.034,0.016,0.063,0.028,0.095,0.045
		c-0.139-0.077-0.294-0.15-0.433-0.227c-1.09-0.607-2.231-1.206-3.411-1.797c-0.407-0.199-0.813-0.394-1.225-0.59
		c-1.021-0.486-2.054-0.963-3.113-1.425c-0.428-0.19-0.856-0.377-1.293-0.563c-1.271-0.536-2.56-1.047-3.866-1.531
		c-0.194-0.075-0.389-0.155-0.588-0.229c-1.505-0.554-3.014-1.06-4.519-1.524c-0.372-0.119-0.731-0.214-1.103-0.322
		c-0.662-0.194-1.326-0.402-1.979-0.577c-0.003-0.002-0.003-0.005-0.005-0.005c-0.02-0.006-0.041-0.008-0.061-0.015
		c-0.447-0.121-0.884-0.217-1.329-0.324c-0.45-0.112-0.889-0.214-1.337-0.315c-0.57-0.13-1.144-0.262-1.703-0.375
		c-0.32-0.063-0.623-0.105-0.938-0.162c-0.187-0.032-0.368-0.061-0.55-0.093c-0.354-0.059-0.715-0.132-1.065-0.184
		c-0.508-0.073-0.997-0.13-1.49-0.182c-0.41-0.048-0.809-0.078-1.206-0.112c-0.039-0.004-0.08-0.009-0.121-0.011
		c0.009-0.011,0.013-0.02,0.02-0.032c-0.145-0.009-0.266,0.004-0.408-0.005c-0.242-0.017-0.502-0.048-0.74-0.059
		c-0.052-0.002-0.095,0.003-0.148,0.003c-0.424-0.018-0.807,0.006-1.214,0.011c3.46-8.534,7.261-25.066,8.762-34.272
		c0.233-0.219,0.445-0.463,0.64-0.735c0.078-0.112,0.149-0.219,0.223-0.333c0.299-0.506,0.552-1.063,0.737-1.699
		c0.035-0.117,0.052-0.242,0.085-0.363c0.079-0.313,0.166-0.614,0.223-0.947c-0.022,0.03-0.05,0.048-0.069,0.078
		c0.773-4.402-0.558-10.445-3.105-12.899c-0.501-0.482-1.245-0.878-2.141-1.198c0.091-0.383,0.182-0.768,0.272-1.15
		c0.104-0.415,0.206-0.834,0.303-1.25c0.433-1.863,0.839-3.727,1.207-5.591c0.002-0.018,0.006-0.034,0.009-0.052
		c0.363-1.851,0.691-3.702,0.992-5.548c0.063-0.381,0.125-0.762,0.186-1.142c0.279-1.761,0.539-3.516,0.768-5.263
		c0.014-0.087,0.026-0.178,0.039-0.265c0.251-1.922,0.472-3.829,0.666-5.721c0.009-0.071,0.018-0.143,0.026-0.212
		c-0.003,0.005-0.005,0.013-0.007,0.018c0.735-7.161,1.101-14.059,1.23-20.399c1.669,1.513,3.321,3.059,5.297,4.145
		c0.664,0.363,1.276,0.624,1.855,0.809c0.173,1.682,0.333,3.338,0.171,5.033c-0.231,2.365-1.263,4.563-2.093,6.757
		c-2.033,5.377-3.788,10.864-5.004,16.465c-0.356,11.147,0.182,21.001,2.739,22.493c0.454,0.266,0.844,0.421,1.207,0.533
		c0.108,0.035,0.21,0.057,0.312,0.08c0.251,0.055,0.478,0.08,0.688,0.072c0.077-0.005,0.164,0.004,0.237-0.005
		c0.226-0.037,0.42-0.1,0.597-0.19c-0.008-0.004-0.008-0.009-0.017-0.009c0.08-0.045,0.153-0.091,0.225-0.143
		c4.225-0.385,13.217-3.261,22.686-3.48c0.614,0.047,1.224,0.146,1.824,0.298c0.228,0.055,0.45,0.134,0.671,0.203
		c0.472,0.141,0.94,0.303,1.401,0.493c0.237,0.1,0.479,0.201,0.718,0.312c0.454,0.212,0.899,0.437,1.34,0.679
		c0.204,0.112,0.411,0.219,0.61,0.333c0.586,0.342,1.158,0.698,1.708,1.068c0.064,0.047,0.13,0.089,0.198,0.134
		c0.55,0.376,1.077,0.757,1.579,1.129c0.229,0.169,0.44,0.331,0.657,0.497c0.324,0.246,0.648,0.493,0.944,0.723
		c0.427,0.328,0.822,0.631,1.186,0.907c0.125,0.096,0.262,0.199,0.376,0.286c2.31,1.717,3.012,1.708,0.811-3.852
		C183.375,110.387,176.756,109.103,173.109,108.677z M47.206-36.872c-0.467-0.934-1.094-1.999-1.851-2.861
		c-0.004-0.004-0.007-0.011-0.011-0.015c0,0,0,0-0.002,0.002c-0.063-0.074-0.131-0.138-0.196-0.206
		c0.579-0.005,1.147,0.123,1.776,0.484c0.538,0.308,0.994,0.748,1.424,1.222c0.135,0.147,0.266,0.293,0.392,0.447
		c0.004,0.002,0.007,0.004,0.009,0.009C48.231-37.485,47.684-37.204,47.206-36.872z M83.524-39.745v-0.002
		c-0.009,0.007-0.014,0.015-0.018,0.022c-0.426,0.489-0.813,1.041-1.154,1.601c-0.005,0.008-0.011,0.016-0.016,0.027
		c-0.095,0.157-0.184,0.312-0.271,0.467c-0.704-0.428-1.388-0.872-2.166-1.246c0.229-0.195,0.426-0.443,0.689-0.592
		c1.045-0.6,1.939-0.573,2.962-0.306C83.543-39.763,83.535-39.754,83.524-39.745z"/>
</g>
</svg>
