<?xml version="1.0" encoding="utf-8"?>
<!-- Generator: Adobe Illustrator 16.0.0, SVG Export Plug-In . SVG Version: 6.00 Build 0)  -->
<!DOCTYPE svg PUBLIC "-//W3C//DTD SVG 1.1//EN" "http://www.w3.org/Graphics/SVG/1.1/DTD/svg11.dtd">
<svg version="1.1" xmlns="http://www.w3.org/2000/svg" xmlns:xlink="http://www.w3.org/1999/xlink" x="0px" y="0px"
	 width="806.734px" height="613.442px" viewBox="0 0 806.734 613.442" enable-background="new 0 0 806.734 613.442"
	 xml:space="preserve">
<g id="Layer_1">
</g>
<g id="Layer_2">
	<path d="M0.807,489.677c0.879-1.591,2.082-3.121,3.446-4.477c9.134-9.104,20.271-16.462,32.319-22.856
		C47.566,456.51,180.9,348.291,188.873,344.116c13.902-7.276,47.219-43.732,47.219-43.732s-45.977,23.699-48.574,22.759
		c-7.889-2.848,121.834-106.106,150.814-125.742c17.297-14.574,49.008-27.571,68.407-41.064
		c29.128-20.262,69.478-30.326,102.175-48.547c-1.979-7.4,43.936-57.598,47.049-61.242c12.172-14.254,30.33-32.698,53.927-41.553
		c23.598-8.852,57.847-3.24,57.847-3.24c10.119,1.961,20.205,4.233,38.137,14.467c26.875,15.331,39.318,51.619,39.803,55.26
		c19.006,4.918,51.623,19.135,61.059,33.984c-20.816,8.951-64.088-6.206-81.756,9.215c-3.87,3.379-14.104,19.61-17.027,23.166
		c-13.653,16.625-27.834,51.112-27.956,52.121c-5.661,47.052-21.897,83.168-40.342,116.981c-4.062,7.453-17.37,23.398-28.671,37.533
		c-8.141,10.196-26.08,35.734-32.598,41.123c-19.521,16.15-54.293,45.237-62.236,56.801c-1.416-1.168-28.57,35.602-50.071,23.759
		c-11.468,8.034-42.664,20.411-42.664,20.411l59.145,66.627c10.253-0.602,36.62-1.938,49.171-0.529
		c8.159,0.913,16.521,0.913,24.322,3.5c7.798,2.586,15.201,8.509,16.691,16.687c-16.768-8.794-62.705-2.537-60.402-0.505
		c0.768,0.68,22.379,14.002,25.148,17.355c2.77,3.354,4.829,14.592,2.957,18.534c-7.166-5.223-11.006-8.09-18.94-12.007
		c-6.659-3.287-21.226-8.479-27.948-11.625c-3.732-1.746-19.109-9.255-22.605-6.84c-13.096,9.046-34.322,28.386-49.865,31.78
		c0.508-1.404,2.566-11.315,8.092-18.345c3.473-4.416,21.676-26.238,26.826-28.396c0.98-0.412,1.967-0.823,2.949-1.233
		l-74.801-69.647c0.186-3.306-40.632-9.088-60.063-11.214l11.239,70.151c11.73,1.063,34.482,3.391,45.604,6.309
		c7.946,2.088,16.225,3.297,23.578,6.985c7.358,3.688,13.848,10.622,14.172,18.932c-15.355-11.131-61.707-11.587-59.713-9.239
		c0.666,0.785,20.176,17.098,22.444,20.818c2.27,3.721,2.72,15.136,0.313,18.769c-6.357-6.204-9.753-9.597-17.054-14.624
		c-6.128-4.217-19.812-11.465-26.023-15.548c-3.446-2.27-11.193-11.927-14.994-10.044c-14.234,7.061-44.384,36.121-60.245,37.229
		c0.705-1.33,4.137-17.325,10.594-23.476c4.057-3.87,18.736-22.833,24.136-24.224c2.298-0.593,11.012-7.683,13.31-8.273
		l-25.293-75.264c-13.209,2.276-30.089-2.216-41.015,0.122c-1.796-0.729-7.22-1.694-12.509-3.167
		c-5.702,1.998-11.4,4.002-17.053,6.082c-12.875,4.736-25.854,9.355-38.336,14.707c-24.14,10.346-44.688,30.87-68.756,41.326
		c-7.065,3.069-14.44,5.917-22.07,7.855c-8.92,2.264-13.71-1.898-11.666-9.248c0.16-0.569,0.363-1.148,0.664-1.68
		c2.835-4.976,5.486-10.033,8.615-14.889c2.486-3.858,5.566-7.469,8.381-11.189c-1.867-0.294-2.968-0.031-3.927,0.428
		c-13.065,6.216-26.409,11.923-41.281,14.902c-3.511,0.703-7.007,1.91-10.54,1.986c-12.08,0.264-17.052-5.813-11.082-14.115
		c3.713-5.169,8.95-9.669,13.82-14.253c4.113-3.872,8.68-7.431,14.182-12.087c-12.943,3.3-24.021,6.287-35.234,8.904
		c-4.15,0.971-8.637,1.574-12.93,1.448C0.564,496.207-1.184,493.288,0.807,489.677z"/>
</g>
</svg>
