<?xml version="1.0" encoding="utf-8"?>
<!-- Generator: Adobe Illustrator 16.0.0, SVG Export Plug-In . SVG Version: 6.00 Build 0)  -->
<!DOCTYPE svg PUBLIC "-//W3C//DTD SVG 1.1//EN" "http://www.w3.org/Graphics/SVG/1.1/DTD/svg11.dtd">
<svg version="1.1" id="Layer_1" xmlns="http://www.w3.org/2000/svg" xmlns:xlink="http://www.w3.org/1999/xlink" x="0px" y="0px"
	 width="471.091px" height="477.611px" viewBox="62.168 189.996 471.091 477.611"
	 enable-background="new 62.168 189.996 471.091 477.611" xml:space="preserve">
<g>
	<g>
		<path d="M479.796,606.077c2.977,6.548,1.487,12.203-3.125,17.412c-2.529,2.977-4.613,6.102-6.549,8.929
			c6.994,1.34,13.841,2.828,20.687,3.721c2.231,0.299,4.763-0.893,6.847-1.784c10.715-4.764,19.793-2.978,26.341,6.846
			c3.722,5.506,6.25,12.054,8.78,18.305c1.637,4.315-1.042,7.59-5.655,8.036c-1.339,0.148-2.529,0-3.868,0
			c-147.778,0-295.706,0-443.483,0c-1.042,0-1.936,0-2.978,0c-3.869,0.148-6.398-1.488-6.846-5.357
			c-0.298-3.571,1.786-5.654,5.209-6.398c14.732-3.423,28.127-9.524,40.925-17.412c1.786-1.042,3.721-2.827,4.465-4.762
			c11.905-27.83,23.067-55.957,29.468-85.722c1.041-4.763,1.339-9.674,1.784-14.436c0.744-6.846-2.381-12.055-8.035-15.478
			c-4.613-2.978-9.822-5.061-14.286-8.186c-7.889-5.358-15.775-10.716-23.218-16.668c-8.481-6.697-16.369-14.287-24.703-21.281
			c-6.25-5.356-8.186-13.097-4.315-19.496c4.019-6.548,11.459-8.929,19.049-5.208c11.014,5.357,21.729,11.311,32.891,17.114
			c10.269-11.013,15.773-24.109,12.798-40.33c-1.19-6.398-1.339-13.245-1.19-19.794c0.149-8.631-2.977-15.477-10.269-19.644
			c-7.59-4.464-15.774-8.185-23.662-12.203c-9.673-4.911-19.646-9.227-28.871-14.733c-7.441-4.465-12.354-11.459-15.031-19.793
			c-2.529-7.59,1.191-13.84,9.229-13.989c5.804-0.149,11.904,0.893,17.561,2.679c7.888,2.53,15.18,6.399,22.918,9.375
			c3.721,1.488,7.59,2.977,11.459,3.87c4.167,1.042,5.953-0.596,5.209-4.911c-0.446-2.381-1.488-4.614-2.679-6.697
			c-10.27-18.603-21.579-36.609-30.508-55.807c-7.145-15.626-11.906-32.443-16.668-49.111c-2.978-10.417-1.341-20.686,7.144-28.722
			c6.103-5.804,13.84-6.25,18.604,0.595c4.91,6.995,8.334,15.18,11.459,23.365c3.272,8.78,4.762,18.156,10.565,25.895
			c0.744,1.042,1.488,2.083,2.827,4.018c1.19-4.911,2.084-8.929,3.274-12.947c0.893-3.274,1.784-6.548,3.272-9.673
			c5.357-11.757,15.924-16.222,26.639-11.608c10.717,4.614,16.223,17.71,11.014,28.574c-2.977,6.25-7.44,12.203-12.055,17.561
			c-9.376,10.864-12.799,23.067-9.523,37.056c0.446,2.083,1.488,4.465,2.827,6.102c7.59,8.632,12.946,18.454,16.52,30.657
			c4.763-5.953,9.077-11.162,13.244-16.222c4.465-5.357,9.972-7.738,16.817-5.953c11.31,2.977,15.773,15.18,9.375,25.597
			c-8.78,14.138-17.562,28.425-26.787,42.265c-3.125,4.614-3.125,8.037,0.298,12.65c6.548,8.929,8.78,19.198,6.696,30.062
			c-2.232,11.758-0.894,22.918,3.126,33.932c3.272,9.078,7.292,18.007,11.161,26.937c0.445,1.042,1.935,1.786,2.977,2.68
			c0.595-1.19,1.339-2.382,1.488-3.571c1.339-8.93,2.381-18.008,4.018-26.938c0.446-2.679,1.786-5.357,3.274-7.44
			c2.381-3.423,2.083-6.399,0-9.822c-9.228-14.286-18.156-28.722-27.383-43.158c-2.828-4.464-4.167-9.227-2.68-14.287
			c1.638-6.102,5.655-10.269,11.905-11.757c6.25-1.488,11.905,0.149,16.222,5.357c4.464,5.357,8.78,10.864,13.691,16.817
			c0.744-1.786,1.042-3.125,1.637-4.316c3.721-7.144,6.399-15.18,11.459-21.281c10.418-12.501,9.674-25.15,3.423-38.544
			c-2.083-4.613-5.951-8.334-9.227-12.352c-4.911-5.953-9.524-11.906-10.715-19.793c-1.488-10.864,4.762-21.132,14.584-24.109
			c10.418-3.125,19.793,1.042,24.406,12.054c2.977,6.846,4.613,14.436,8.036,22.174c2.827-5.953,6.103-11.757,8.632-17.858
			c2.679-6.846,4.465-14.138,6.846-21.281c1.189-3.274,2.828-6.548,4.763-9.524c7.292-11.608,17.709-11.757,25.448-0.298
			c5.804,8.483,5.506,17.71,3.273,27.085c-6.847,27.532-17.858,53.426-32.295,77.833c-4.762,8.036-9.523,16.221-14.285,24.257
			c-0.597,1.042-1.488,1.935-1.638,2.977c-0.298,2.828-0.148,5.655-0.298,8.483c2.381,0,5.061,0.744,6.994-0.149
			c9.524-3.721,18.752-8.185,28.275-11.608c5.805-2.083,12.203-3.721,18.306-4.167c10.119-0.595,14.882,6.697,11.161,16.072
			c-3.572,9.078-9.674,16.222-18.305,20.835c-9.229,4.911-19.05,8.93-28.426,13.543c-7.144,3.571-14.287,6.994-20.982,11.161
			c-6.548,4.167-9.524,10.418-9.524,18.603c0,8.036-0.596,16.223-1.638,24.259c-2.083,14.882,4.167,26.341,13.691,37.354
			c4.465-2.977,8.93-5.952,13.395-8.78c8.334-5.06,14.882-4.612,20.239,0.895c5.209,5.356,5.506,12.054,0.893,20.09
			c-9.077,15.627-21.728,26.938-39.734,31.104c-5.952,1.34-12.202,1.935-18.305,2.382c-7.888,0.595-13.989,3.869-18.008,10.715
			c-2.381,4.314-4.613,8.631-7.145,13.542c8.931-1.041,16.668-2.381,24.557-2.976c22.323-1.488,43.455,2.381,62.058,15.18
			c9.078,6.25,18.604,8.036,29.021,7.143c11.459-1.041,22.918-2.679,34.377-3.423c4.911-0.297,9.971,0.895,14.882,1.34
			c2.382,0.148,4.911,0.298,9.078,0.446c-3.423-7.441-6.102-13.691-9.078-19.645c-5.208-10.418-9.822-20.834-9.078-32.74
			c0.149-2.083,0.447-4.167,1.042-6.25c1.34-5.062,4.465-8.78,9.674-9.822c4.911-0.894,8.93,1.488,11.905,5.209
			c2.978,3.72,5.655,7.738,8.929,12.203c4.466-7.888,5.806-15.924,6.251-23.96c1.043-14.883,4.315-28.574,14.437-40.479
			c5.804-6.696,3.274-19.793-3.869-28.274c-3.572-4.316-7.144-8.931-9.523-13.989c-2.978-6.399-1.639-12.799,3.125-18.008
			c4.314-4.911,9.971-6.548,16.222-5.061c6.25,1.638,9.523,6.399,11.606,12.056c1.19,3.125,1.936,6.398,4.167,9.673
			c1.638-4.167,3.125-8.334,4.764-12.501c2.381-6.103,4.167-12.649,7.292-18.453c5.506-9.971,14.732-9.822,21.132-0.446
			c4.763,6.994,4.167,14.437,2.231,22.025c-5.06,19.495-12.946,37.948-23.216,55.359c-3.272,5.508-6.695,11.162-9.821,16.817
			c-0.894,1.637-1.488,3.423-2.827,6.846c3.721-1.042,6.102-1.487,8.334-2.382c8.334-3.125,16.519-6.397,24.853-9.375
			c2.232-0.744,4.911-0.744,7.145-0.446c6.251,0.743,9.674,5.805,7.888,11.905c-2.232,7.889-7.441,13.691-14.436,17.562
			c-6.847,3.721-13.989,6.696-20.983,9.971c-4.614,2.231-9.376,4.465-13.691,7.293c-4.613,2.827-6.696,6.994-6.696,12.649
			c0,5.951-0.299,12.055-1.042,18.007c-1.339,9.376,2.679,16.668,8.334,23.514c8.186-4.911,15.774-13.543,25.895-3.869
			C479.052,605.333,479.349,605.631,479.796,606.077z"/>
		<path d="M419.374,351.148c-0.147,15.031-12.202,26.639-27.383,26.341c-15.18-0.298-26.488-12.352-26.191-27.83
			c0.298-14.436,12.501-26.043,27.383-25.746C408.214,323.915,419.673,335.82,419.374,351.148z"/>
		<path d="M93.459,604.143c-11.757,0-20.982-9.077-20.982-20.835c0-11.904,9.077-20.982,20.834-21.132
			c12.055,0,21.28,9.077,21.28,21.132C114.443,595.064,105.216,604.143,93.459,604.143z"/>
		<path d="M227.695,235.069c-11.161,0-20.389-9.227-20.389-20.388c0-11.608,9.376-20.835,21.133-20.835
			c11.311,0.149,20.687,9.524,20.389,20.983C248.678,226.14,239.303,235.069,227.695,235.069z"/>
		<path d="M330.232,468.717c11.312,0,20.091,8.93,20.091,20.389c0,11.311-9.078,20.389-20.24,20.389
			c-11.31,0-20.834-9.674-20.536-20.835C309.695,477.646,319.07,468.567,330.232,468.717z"/>
		<path d="M479.796,606.077c-0.298-0.298-0.743-0.595-1.041-1.042c-2.53-5.506-4.911-11.013-3.274-17.263
			c2.232-8.931,9.822-15.479,18.604-15.925c9.674-0.445,17.71,4.911,20.686,13.691c2.977,8.482-0.148,18.156-7.44,23.364
			c-7.737,5.507-17.264,5.061-24.854-0.743C481.581,607.417,480.539,606.673,479.796,606.077z"/>
		<path d="M478.903,329.718c0,9.376-7.292,16.519-16.815,16.37c-8.931-0.148-16.37-7.441-16.37-16.37
			c0-9.227,7.439-16.667,16.668-16.667C471.76,313.051,478.903,320.194,478.903,329.718z"/>
		<path d="M414.822,444.238c0,8.632-7.292,15.626-15.924,15.626c-8.632-0.148-15.626-7.292-15.478-15.924
			c0.147-8.482,6.993-15.328,15.626-15.328C407.678,428.612,414.822,435.606,414.822,444.238z"/>
		<path fill="#FFFFFF" d="M171.441,532.709c-0.298-1.637-0.596-4.613-1.339-7.59c-1.191-4.02-0.149-6.846,3.72-8.187
			c3.721-1.339,6.251,0.895,7.59,4.316c2.978,7.59,2.53,15.477,1.042,23.065c-2.53,12.204-5.953,24.109-9.227,36.164
			c-1.34,5.061-4.316,6.847-7.889,5.655c-3.721-1.34-4.763-4.167-3.273-9.228C166.083,562.771,170.548,548.931,171.441,532.709z"/>
		<path fill="#FFFFFF" d="M162.66,589.559c2.827,0.148,4.911,2.231,5.061,5.805c0.298,5.209-3.869,10.862-7.738,10.715
			c-3.721,0-5.655-2.083-5.804-5.804C154.029,594.916,157.898,589.559,162.66,589.559z"/>
	</g>
</g>
</svg>
