<?xml version="1.0" encoding="utf-8"?>
<!-- Generator: Adobe Illustrator 16.0.0, SVG Export Plug-In . SVG Version: 6.00 Build 0)  -->
<!DOCTYPE svg PUBLIC "-//W3C//DTD SVG 1.1//EN" "http://www.w3.org/Graphics/SVG/1.1/DTD/svg11.dtd">
<svg version="1.1" id="Layer_1" xmlns="http://www.w3.org/2000/svg" xmlns:xlink="http://www.w3.org/1999/xlink" x="0px" y="0px"
	 width="532.598px" height="349.523px" viewBox="31.404 246.579 532.598 349.523"
	 enable-background="new 31.404 246.579 532.598 349.523" xml:space="preserve">
<g>
	<path d="M171.739,489.254c-12.501-1.191-25.3-4.614-37.503-2.977c-19.049,2.528-37.503,5.06-56.402-0.149
		c-2.529-0.744-7.144,0.744-8.632,2.679c-5.953,8.633-10.715,18.009-16.52,26.788c-2.382,3.571-6.103,8.78-9.077,8.78
		c-3.423-0.148-8.483-4.763-9.525-8.334c-6.846-21.728,0.298-41.074,11.757-59.528c13.245-21.28,33.782-19.347,54.022-16.37
		c9.971,1.488,19.495,6.252,29.615,8.187c6.993,1.339,14.285,0.298,21.43,0.298c0.298-12.501-5.209-20.538-13.245-28.425
		c-11.607-11.312-22.472-23.514-31.698-36.759c-36.164-52.385-10.863-120.247,50.6-136.617c4.018-1.042,9.078,1.488,13.69,2.381
		c-1.042,4.614-0.744,9.971-3.273,13.542c-12.203,16.817-18.156,29.467-19.049,46.432c5.356-9.822,10.715-19.793,16.222-29.466
		c2.529-4.465,4.762-9.524,8.481-12.799c2.68-2.232,8.187-3.274,11.459-2.083c2.383,0.893,4.316,6.548,4.02,9.822
		c-1.786,17.263-3.721,34.526-6.697,51.641c-1.488,8.483-4.018,16.965-7.738,24.704c-9.077,18.751-8.035,29.317,6.847,45.241
		c22.918-15.328,45.39-32.294,75.897-26.937c0.446-1.19,0.894-2.232,1.488-3.423c-2.828-1.786-5.655-4.613-8.632-4.911
		c-9.228-0.893-15.328-4.465-15.328-14.436c0-9.227,5.654-14.138,14.436-13.543c9.375,0.595,13.395,6.697,13.097,16.222
		c-0.597,16.072,4.167,20.686,20.238,20.834c10.716,0,21.432,0,32.146,0c15.774-0.149,19.645-4.167,20.389-19.942
		c0.148-3.423-0.298-8.631,1.785-9.971c4.764-3.274,11.608-7.292,15.925-5.953c4.465,1.34,10.119,9.673,9.376,13.692
		c-1.042,4.911-7.889,9.078-12.947,12.798c-2.828,2.083-6.846,2.53-9.822,6.102c30.807-2.232,53.575,13.84,76.195,29.466
		c14.585-14.436,15.924-26.639,7.44-44.646c-4.314-9.078-6.846-19.347-8.632-29.317c-2.679-15.478-4.314-31.252-5.654-47.027
		c-0.299-3.571,2.231-10.269,4.167-10.566c3.721-0.744,9.821,1.042,12.055,4.018c5.209,6.846,8.93,14.882,13.096,22.472
		c3.423,6.102,6.847,12.203,11.162,17.858c-1.637-16.37-8.78-30.21-18.008-43.456c-3.125-4.464-3.273-11.013-4.91-16.519
		c5.804-0.297,12.203-2.53,17.263-0.893c58.934,19.198,81.555,83.935,46.878,135.128c-8.779,13.096-19.644,24.853-30.655,36.164
		c-7.889,8.036-16.521,14.732-13.245,30.508c9.227-1.488,19.347-3.273,29.615-5.06c11.606-2.084,23.216-4.316,34.973-6.103
		c21.132-2.977,34.973,7.887,43.753,25.448c7.292,14.584,12.799,30.21,8.334,46.878c-1.488,5.209-6.846,9.376-10.418,13.989
		c-3.422-4.167-7.44-8.036-10.27-12.501c-6.102-9.376-11.606-19.198-17.41-28.724c-22.474,7.889-43.011,5.655-63.993,2.383
		c-11.905-1.786-24.854,2.083-37.354,3.57c0,1.936,0,3.722,0,5.655c15.181,2.679,30.359,5.357,45.539,8.186
		c35.865,6.549,51.491,45.538,29.912,75.451c-2.679,3.722-8.78,5.061-13.394,7.59c-1.638-4.762-4.763-9.673-4.613-14.285
		c0.744-15.329-4.911-22.474-19.495-26.641c-10.418-2.976-20.091-9.078-30.359-13.096c-8.632-3.423-17.561-6.697-26.639-8.93
		c-3.423-0.744-7.739,1.785-13.841,3.423c31.55,12.353,30.657,47.177,16.816,63.249c-2.529,2.827-7.144,3.869-10.716,5.654
		c-1.785-3.571-4.762-6.994-5.06-10.715c-1.786-23.217-7.441-27.979-30.359-26.342c-11.311,0.744-22.77-0.147-34.229-0.147
		c-33.484-0.149-67.117-0.299-100.604-0.299c-11.161,0-18.899,4.613-20.239,16.816c-0.298,3.572,0,7.292-0.893,10.566
		c-1.042,3.571-2.53,8.334-5.209,9.523c-2.381,1.042-7.59-1.189-9.971-3.571c-17.562-18.453-12.947-55.51,12.798-63.1
		c0.148-1.042,0.148-2.084,0.298-3.126c-5.655-0.297-11.757-1.935-16.816-0.446c-9.673,2.828-18.603,7.739-27.979,11.608
		c-8.036,3.272-15.924,7.292-24.258,9.375c-12.799,3.126-17.858,8.186-18.603,21.579c-0.148,2.828,0.894,5.655,0.148,8.334
		c-1.042,3.721-2.53,9.674-4.911,10.269c-3.125,0.895-8.78-1.487-11.014-4.314c-11.904-14.733-12.055-31.996-8.632-49.559
		c3.869-19.346,18.9-25.001,35.271-28.424c15.18-2.977,30.508-5.356,45.688-8.036C171.589,493.421,171.589,491.337,171.739,489.254z
		 M429.941,470.354c0.596,1.34,1.34,2.68,1.936,4.019c5.356-0.446,11.161,0.149,16.222-1.488c2.827-0.893,4.613-5.356,6.846-8.185
		c-3.273-1.042-7.144-3.571-9.822-2.68C439.763,463.656,435.002,467.377,429.941,470.354z M163.405,474.521
		c0.595-1.19,1.19-2.53,1.786-3.722c-5.358-3.125-10.418-6.994-16.073-9.227c-2.381-0.895-5.952,1.487-9.078,2.381
		c1.639,2.827,2.828,7.292,5.062,8.036C151.052,473.776,157.303,473.776,163.405,474.521z M54.022,465.591
		c-3.274,9.972-5.953,17.858-8.482,25.746c0.894,0.298,1.936,0.596,2.827,0.894C50.45,484.045,68.159,481.068,54.022,465.591z
		 M547.212,493.421c0.893-0.298,1.935-0.744,2.826-1.042c-2.976-8.334-5.951-16.52-9.673-26.788
		C527.269,482.259,545.574,484.64,547.212,493.421z"/>
	<path fill="#FFFFFF" d="M292.134,476.157c-1.042,12.946-1.785,25.895-3.423,38.842c-0.445,4.019-2.679,8.483-5.356,11.608
		c-1.786,2.083-5.953,1.935-9.078,2.826c-0.744-2.826-2.978-6.25-2.084-8.334c11.013-24.405,4.613-50.003,4.315-74.855
		c-0.148-6.103-7.59-12.947-12.946-18.155c-6.399-6.251-14.437-10.864-20.984-17.115c-1.935-1.784-0.744-6.695-0.893-10.269
		c3.423,0.298,7.144,0,10.269,1.34c2.679,1.19,4.315,4.911,6.994,6.25C287.521,422.284,296.598,445.649,292.134,476.157z"/>
	<path fill="#FFFFFF" d="M303.741,470.502c0-0.595,0.596-3.869,0.298-6.994c-3.125-24.704,7.145-41.817,29.169-52.979
		c4.019-2.083,6.847-6.696,10.863-8.93c2.53-1.487,6.103-0.894,9.376-1.189c0.148,3.272,1.638,7.738,0.148,9.375
		c-5.357,5.655-11.311,11.311-18.007,15.18c-13.395,7.739-19.793,18.156-18.306,33.933c1.19,13.394-0.298,26.937,0.446,40.329
		c0.298,6.549,3.571,12.8,4.465,19.348c0.446,3.57-1.042,7.292-1.638,11.013c-3.423-1.786-8.929-2.828-9.971-5.655
		c-3.125-8.779-5.209-18.155-6.399-27.383C302.849,488.807,303.741,480.92,303.741,470.502z"/>
</g>
</svg>
