<?xml version="1.0" encoding="utf-8"?>
<!-- Generator: Adobe Illustrator 16.0.0, SVG Export Plug-In . SVG Version: 6.00 Build 0)  -->
<!DOCTYPE svg PUBLIC "-//W3C//DTD SVG 1.1//EN" "http://www.w3.org/Graphics/SVG/1.1/DTD/svg11.dtd">
<svg version="1.1" id="Layer_1" xmlns="http://www.w3.org/2000/svg" xmlns:xlink="http://www.w3.org/1999/xlink" x="0px" y="0px"
	 width="560.6px" height="466.241px" viewBox="18.009 183.13 560.6 466.241" enable-background="new 18.009 183.13 560.6 466.241"
	 xml:space="preserve">
<g>
	<g>
		<path d="M18.156,239.831c5.952-9.673,9.673-11.162,20.686-7.739c23.364,7.144,42.712,19.942,56.553,40.479
			c4.167,6.399,7.439,6.995,14.286,3.423c26.191-13.691,53.574-24.257,82.148-31.698c1.785-0.447,4.019-1.935,4.911-3.572
			c7.887-14.287,19.644-24.556,33.335-33.187c6.549-4.167,12.947-8.929,18.604-14.138c14.585-13.543,35.717-13.84,50.302,0
			c11.31,10.864,20.687,23.067,27.383,37.205c2.529,5.209,5.654,7.292,11.161,8.334c26.192,4.614,51.194,12.65,73.964,26.49
			c8.036,4.911,15.626,10.566,22.918,16.667c9.822,8.187,9.524,18.007-0.445,26.192c-1.19,1.042-2.382,2.083-3.572,3.125
			c6.251,12.054,5.061,17.263-5.654,26.043c-26.64,21.579-57.594,33.782-90.93,40.033c-38.692,7.441-77.387,6.846-116.079-0.744
			c-2.828-0.595-6.548,0.149-9.228,1.488c-19.793,9.822-40.331,16.667-62.505,18.007c-16.815,1.042-26.937-12.798-21.876-29.02
			c2.083-6.548,4.315-13.096,6.548-19.942c-7.888-4.019-15.626-8.334-23.365-11.906c-4.762-2.232-8.779-0.446-11.606,4.018
			c-13.543,20.835-32.89,33.633-56.105,41.074c-11.311,3.572-15.03,2.381-21.579-7.143c0-2.53,0-5.06,0-7.59
			c1.936-2.828,3.869-5.655,5.953-8.483c14.733-20.239,19.646-42.711,15.181-67.416c-2.978-16.221-11.162-29.615-21.134-42.265
			C18.156,245.04,18.156,242.51,18.156,239.831z M218.766,236.854c0.297,0.447,0.595,1.042,0.893,1.488
			c29.467-4.911,59.081-6.25,89.888-3.423c-6.251-11.905-13.69-21.43-22.473-29.764c-7.738-7.441-18.453-6.994-26.639-0.148
			c-7.738,6.548-16.072,12.203-24.258,18.454C230.373,227.925,224.57,232.39,218.766,236.854z M146.141,354.422
			c-2.231,6.548-4.763,12.947-6.398,19.496c-1.042,4.018,1.488,6.25,5.654,5.953c14.287-1.488,28.128-4.613,41.818-10.566
			C173.227,364.245,159.982,359.482,146.141,354.422z"/>
		<path d="M388.866,507.856c5.805,0,11.608-0.149,17.562,0c5.061,0.147,8.482,3.423,8.632,7.887c0.147,4.763-3.423,8.334-8.78,8.334
			c-9.971,0.148-20.091,0-30.062,0c-7.889,0-12.947,3.273-15.329,9.228c-2.231,6.103-0.446,11.459,5.655,16.816
			c7.888,6.696,17.113,10.119,27.383,11.161c3.273,0.298,6.549,0.445,9.821,0.894c4.764,0.595,8.036,4.166,7.591,8.333
			c-0.446,4.465-3.125,7.888-7.591,7.888c-21.43,0.149-40.925-5.506-54.766-23.066c-7.44-9.375-7.59-20.239-2.232-30.954
			c5.21-10.417,13.989-16.072,25.746-16.668C377.854,507.559,383.361,507.856,388.866,507.856z"/>
		<path fill="#FFFFFF" d="M285.437,275.548c4.763,0,9.523-0.149,14.138,0c5.357,0.298,8.482,3.274,8.482,8.036
			c0.148,4.762-3.273,8.334-8.779,8.483c-8.187,0.149-16.371,0.149-24.556,0c-5.061-0.149-8.931,1.637-10.716,6.548
			c-1.785,4.911,0.298,8.333,3.869,11.459c8.036,6.846,17.562,9.227,27.829,9.524c6.399,0.149,10.716,4.762,9.376,9.971
			c-1.042,3.87-3.423,6.399-7.739,6.548c-16.071,0.297-30.655-3.87-42.412-15.329c-7.889-7.739-10.566-16.965-6.697-27.383
			c3.869-10.566,11.459-16.668,22.77-17.562c4.764-0.447,9.524,0,14.139,0C285.437,275.697,285.437,275.697,285.437,275.548z"/>
		<path fill="#FFFFFF" d="M380.532,304.419c-6.398,0-9.523-2.083-10.269-6.548c-0.744-4.465,1.786-8.483,6.102-9.673
			c6.399-1.637,12.501,0.297,14.437,4.613C393.48,299.21,388.866,304.419,380.532,304.419z"/>
		<path d="M61.792,458.41c7.265-11.807,11.806-13.622,25.246-9.446c28.517,8.72,52.128,24.34,69.021,49.405
			c5.086,7.811,9.081,8.537,17.436,4.178c31.968-16.711,65.388-29.605,100.262-38.688c2.18-0.545,4.904-2.361,5.994-4.359
			c9.625-17.438,23.976-29.971,40.686-40.506c7.992-5.087,15.802-10.902,22.704-17.26c17.801-16.532,43.592-16.896,61.393,0
			c13.804,13.263,25.246,28.159,33.42,45.412c3.087,6.357,6.901,8.901,13.622,10.173c31.969,5.632,62.482,15.438,90.272,32.331
			c9.808,5.994,19.071,12.896,27.971,20.343c11.988,9.99,11.624,21.979-0.545,31.968c-1.453,1.271-2.905,2.542-4.358,3.815
			c7.629,14.711,6.176,21.067-6.901,31.783c-32.514,26.339-70.292,41.231-110.979,48.86c-47.224,9.081-94.447,8.355-141.673-0.908
			c-3.451-0.727-7.991,0.183-11.261,1.816c-24.157,11.986-49.225,20.342-76.286,21.976c-20.524,1.272-32.876-15.619-26.7-35.418
			c2.542-7.991,5.267-15.981,7.992-24.338c-9.627-4.904-19.071-10.171-28.518-14.531c-5.812-2.725-10.716-0.544-14.167,4.904
			c-16.528,25.429-40.142,41.05-68.476,50.131c-13.804,4.358-18.345,2.907-26.337-8.719c0-3.087,0-6.175,0-9.265
			c2.361-3.449,4.722-6.899,7.266-10.353c17.982-24.701,23.977-52.128,18.527-82.28c-3.633-19.797-13.624-36.145-25.792-51.582
			C61.792,464.767,61.792,461.68,61.792,458.41z M306.633,454.777c0.361,0.544,0.727,1.271,1.09,1.815
			c35.964-5.994,72.106-7.63,109.705-4.178c-7.628-14.53-16.709-26.154-27.426-36.328c-9.444-9.085-22.522-8.539-32.514-0.182
			c-9.443,7.993-19.615,14.896-29.605,22.523C320.8,443.88,313.717,449.329,306.633,454.777z M217.995,598.267
			c-2.724,7.992-5.812,15.803-7.81,23.796c-1.271,4.902,1.815,7.628,6.9,7.266c17.438-1.816,34.33-5.631,51.04-12.896
			C251.052,610.254,234.887,604.442,217.995,598.267z"/>
		<path fill="#FFFFFF" d="M388.004,502.002c5.813,0,11.625-0.183,17.255,0c6.539,0.363,10.353,3.996,10.353,9.808
			c0.184,5.813-3.995,10.173-10.715,10.354c-9.99,0.183-19.98,0.183-29.97,0c-6.175-0.181-10.898,1.999-13.077,7.993
			c-2.18,5.992,0.362,10.172,4.722,13.984c9.81,8.355,21.434,11.262,33.966,11.624c7.811,0.184,13.077,5.813,11.442,12.17
			c-1.271,4.724-4.177,7.811-9.445,7.991c-19.615,0.363-37.415-4.723-51.765-18.708c-9.627-9.443-12.896-20.705-8.174-33.42
			c4.723-12.896,13.984-20.343,27.79-21.433c5.813-0.546,11.624,0,17.255,0C388.004,502.185,388.004,502.185,388.004,502.002z"/>
		<path fill="#FFFFFF" d="M504.067,537.238c-7.811,0-11.625-2.542-12.533-7.991c-0.907-5.449,2.182-10.354,7.447-11.808
			c7.811-1.997,15.257,0.363,17.618,5.631C519.868,530.882,514.238,537.238,504.067,537.238z"/>
	</g>
</g>
<path fill="#FFFFFF" d="M365.807,369.112l-7.334,2.333c0,0-33.999-56.125-4.499-129.125l10.416,2.708
	C364.39,245.029,337.89,305.695,365.807,369.112z"/>
<path fill="#FFFFFF" d="M494.973,613.196l-12.5,4.5c0,0-60.272-68.188-8.35-155.687l17.267,4.936
	C491.39,466.945,445.836,537.186,494.973,613.196z"/>
<path display="none" fill="#A3CC54" d="M64.191,461.949c7.329-11.911,11.911-13.744,25.471-9.53
	c28.771,8.798,52.592,24.556,69.635,49.845c5.132,7.88,9.162,8.613,17.592,4.215c32.252-16.858,65.97-29.869,101.154-39.031
	c2.198-0.55,4.947-2.382,6.047-4.397c9.711-17.592,24.188-30.237,41.048-40.865c8.063-5.131,15.941-10.994,22.906-17.407
	c17.959-16.676,43.979-17.042,61.938,0c13.926,13.377,25.472,28.402,33.718,45.811c3.114,6.414,6.963,8.98,13.743,10.263
	c32.252,5.683,63.038,15.577,91.075,32.618c9.896,6.049,19.241,13.013,28.221,20.524c12.095,10.079,11.729,22.174-0.55,32.252
	c-1.466,1.283-2.932,2.565-4.398,3.85c7.697,14.843,6.231,21.256-6.963,32.067c-32.803,26.571-70.918,41.598-111.966,49.295
	c-47.645,9.162-95.289,8.43-142.935-0.916c-3.481-0.733-8.063,0.183-11.36,1.833c-24.373,12.093-49.662,20.522-76.966,22.171
	c-20.707,1.283-33.168-15.759-26.938-35.732c2.565-8.063,5.314-16.125,8.063-24.556c-9.713-4.948-19.241-10.262-28.771-14.66
	c-5.863-2.749-10.812-0.549-14.293,4.948c-16.676,25.654-40.499,41.415-69.085,50.576c-13.927,4.396-18.509,2.934-26.571-8.796
	c0-3.114,0-6.23,0-9.347c2.383-3.48,4.765-6.963,7.331-10.444c18.143-24.921,24.189-52.592,18.691-83.013
	c-3.665-19.974-13.745-36.468-26.022-52.041C64.191,468.361,64.191,465.247,64.191,461.949z M311.212,458.283
	c0.365,0.55,0.731,1.283,1.1,1.833c36.284-6.048,72.749-7.697,110.682-4.215c-7.695-14.659-16.856-26.389-27.671-36.649
	c-9.527-9.163-22.722-8.612-32.801-0.183c-9.528,8.062-19.791,15.025-29.87,22.722C325.505,447.289,318.358,452.787,311.212,458.283
	z M221.784,603.05c-2.748,8.064-5.863,15.943-7.878,24.007c-1.283,4.947,1.833,7.696,6.962,7.33
	c17.592-1.832,34.635-5.681,51.494-13.011C255.137,615.145,238.827,609.281,221.784,603.05z"/>
<path display="none" fill="#FFFFFF" d="M393.307,505.929c5.864,0,11.728-0.185,17.408,0c6.597,0.366,10.444,4.032,10.444,9.896
	c0.185,5.862-4.03,10.262-10.811,10.444c-10.079,0.185-20.159,0.185-30.237,0c-6.229-0.184-10.995,2.017-13.192,8.063
	c-2.199,6.046,0.364,10.262,4.765,14.109c9.895,8.43,21.623,11.36,34.267,11.729c7.88,0.185,13.194,5.864,11.546,12.277
	c-1.282,4.766-4.215,7.88-9.529,8.063c-19.79,0.366-37.748-4.765-52.227-18.874c-9.712-9.528-13.011-20.89-8.246-33.718
	c4.765-13.012,14.109-20.524,28.037-21.624c5.864-0.551,11.729,0,17.408,0C393.307,506.112,393.307,506.112,393.307,505.929z"/>
<path display="none" fill="#FFFFFF" d="M510.403,541.479c-7.88,0-11.728-2.564-12.644-8.063c-0.917-5.497,2.198-10.444,7.513-11.911
	c7.88-2.016,15.395,0.366,17.775,5.68C526.345,535.066,520.665,541.479,510.403,541.479z"/>
<path display="none" fill="#FFFFFF" d="M492.271,621.138l-9.031,2.874c0,0-41.864-69.108-5.54-158.998l12.826,3.336
	C490.526,468.35,457.895,543.051,492.271,621.138z"/>
</svg>
