<?xml version="1.0" encoding="utf-8"?>
<!-- Generator: Adobe Illustrator 24.1.1, SVG Export Plug-In . SVG Version: 6.00 Build 0)  -->
<svg version="1.1" id="Layer_1" xmlns="http://www.w3.org/2000/svg" xmlns:xlink="http://www.w3.org/1999/xlink" x="0px" y="0px"
	 viewBox="0 0 548.3 426.7" style="enable-background:new 0 0 548.3 426.7;" xml:space="preserve">
<style type="text/css">
	.st0{fill:#231F20;}
</style>
<g id="BACKGROUND">
</g>
<g id="OBJECTS">
	<g>
		<g>
			<path class="st0" d="M81.4,355.9c-1.6-0.1-3.4-0.6-5.1-1.8c-0.7-0.5-1.4-1.1-2.1-1.7c0,0,0,0-0.1,0.1c-0.1-0.1-0.2-0.3-0.3-0.4
				c-0.3-0.2-0.5-0.5-0.7-0.8c0.6,1,1.3,2,2,2.9c2.6,3.6,6.3,8.4,11,8C85.8,358.8,83.2,357.7,81.4,355.9z"/>
			<path class="st0" d="M545.2,173.9c-2.9-0.5-4.7,2.2-7.6,4c-14,8.4-35.3,12.6-54.1,16.3c-14.6,2.9-30.3,4.6-46.8,6
				c-5.4,0.4-10.5,1.6-15.6,2c-8.3,0.6-15.7-1-23.2-0.3c-3.2,0.3-5.3,1.3-9.6,0.7c-5.3-0.8-10.8-3.1-16.3-4.6
				c-26.9-7.7-55.1-14.6-84-20.6c-20.8-4.3-46-5.8-67.7-1.3c-9.4,1.9-20.8,5.1-26.6,10.3c-7.9,7.3-12.6,20.5-11.6,35.2
				c0.3,3.8,1.4,6.9,2.9,9.7v0.1c0.5,2,1.2,3.8,2.2,5.4c-0.1,0-0.1,0-0.2,0c0.5,0.9,1.1,1.6,1.6,2.2c3,3.8,7.3,6.4,12,8.4
				c1.9,1.2,4,2.1,6.2,2.8c0.1,0.4,0.2,0.9,0.2,1.3c0.7,0.1,1.3,0.2,2,0.3c2.6,0.2,5.3-0.3,8,0c1.8,0.2,3.7,0.7,5.7,1.1
				c0.2,0.1,0.3,0.2,0.6,0.3c1.5,0.5,2.9,0.8,4.3,1.1c-15.4,3.9-28.7,10.2-37.4,19.3c-2.8,2.9-6.4,8.6-9,12.9
				c-2.5,4.3-6.1,10.1-7.3,14.3c-2.6,9,0.1,18.9,3.3,26.2c-0.5,3.7,0.7,5.7,2,7.6c-11.4,0.8-21.2,5.7-31.5,8.3
				c-5.5,1.4-11,2-16.3,3.7c-4.8,1.5-9.4,4-14.3,5.3c-7.6,2-15.8,0.9-23.8,2.2c-7-3-13.4-6.9-17.4-12.5c-7.9-11.2-4.7-27-1.7-41
				c1.1-3.2,2.2-6.4,3.4-9.5c0.1-0.2,0.3-0.3,0.4-0.5c0.2-0.3,0.2-0.7,0.1-0.9c1.9-5,3.9-10.1,6.1-15c9.4-21.3,22.6-39.4,40-54.8
				c29.9-26.6,67.9-46.8,87.8-82.9c17.6-31.8,12.4-68.6-11.2-95.9C173,9.1,129.6,3.5,89.8,0.5C78.6-0.3,67.1-0.2,56,1.9
				c-6.7,1.3-19.2,3.4-22.7,10.5c-1.3,2.7-0.8,5-0.1,7.7c1.2,4.4,2.4,4.3,0.9,9.8c-0.6,2.1-1.6,2.6-1.6,4.9c0,3.6,1.9,6,4.5,7.7
				c-0.6,1.6-0.6,3.4-0.6,5.3c-0.1,3-0.2,6.1-0.6,9.2c-6.9,14.4-6,32.2-9,48c-2.5,13.2-8.3,25.4-11.6,38.3
				c-3.1,11.8-4.7,24.1-4.7,36.3c0,8.8,1,17.4,2.2,26.1c-0.5,0.7-0.4,1.8,0.3,2.2c0.4,2.8,0.8,5.6,1.2,8.3c0.7,5,1.1,9.9,1.1,14.7
				c-0.2,0.2-0.4,0.5-0.4,0.9c0,4.9-0.2,9.7-0.6,14.5c-0.6,4.4-1.6,8.8-2.9,13.3c-2.8,9.7-4.8,19-5.7,28.4
				c-1.1,3.7-2.1,7.5-2.8,11.4c-2.1,8.9-3.6,17.9-2.5,26.8c0,0.1,0.1,0.1,0.1,0.2c0,0.6-0.1,1.2-0.1,1.7c-0.1,1.3-0.1,4.2,0,5.6
				c1.5,20.9,8.7,45.8,21.9,59.1c3.3,3.4,6.8,5.9,11.3,7.9c3.8,2.9,8.1,5.4,12.3,7.9c8.6,5.1,17.4,9.9,27,12.9
				c9.1,2.9,18.5,3.5,27.9,3.9c1.1,0.2,2.2,0.4,3.2,0.5c0.5-0.1,1.1-0.2,1.6-0.3c10.3,0.6,22.4,2.8,32.1-0.7c0.5-0.2,0.7-0.6,0.8-1
				c19.5-1.1,39.7-3.5,60-4.4c20.6-0.9,40.8-4.8,61.1-3.3c18.2,1.3,40.6-0.2,59.1,0.7c0.1,0,0.2,0,0.4,0c3.7-0.8,6.4-0.1,10.9-0.4
				c5.7-0.4,12.1-2.2,17.7-3.7c7.1-1.9,13.8-4.5,19.6-9c2.5-2,4.8-4.1,7.2-5.9l0,0c4.7-6.1,14.8-13.5,15.9-24.9c0-0.2,0-0.4,0-0.6
				c0.3-0.2,0.5-0.5,0.6-0.9c0.6-7.7-0.6-16-4.2-23c-0.5-5-3.6-9.6-6.4-12.7c-9.1-9.9-25.3-17.8-38.5-22.6c11.9-0.3,20-2.3,29.5-7
				c11.9-5.8,18.3-9.1,24.6-19.9c3.8-6.6,6.2-11.9,5.6-22.2c-0.7-14.7-6.8-25.2-14.2-34.2c1,0.1,2,0.2,2.9,0.4
				c1.9,0.7,5,0.6,7.3,0.6c13.4,0.9,27.2,0.5,40.4-0.5c15-1.1,31.4-3.1,45.3-9.5c6.8-2.5,13.1-5.9,19.9-8.5
				c8.2-3.2,15.6-6.5,23.6-11c7-3.9,15.3-8.9,19.3-14.9C548.2,183.1,550.2,174.9,545.2,173.9z M103.8,5.2c-2.5,1.1-5.1,1.5-6.9-0.8
				C99.2,4.6,101.5,4.8,103.8,5.2z M87.3,3.5C86.1,4.2,85,4.8,83.6,5c-2.5,0.4-4.3-0.7-6.2-1.9C80.7,3.1,84,3.2,87.3,3.5z
				 M41.9,34.1c1.1,0.2,2.3,0,3.4-0.4c1.8,0.4,3.7,0.1,5.7,0c2.1-0.1,2.2-3.1,0.4-3.4c-0.1-1.3-0.7-2.7-1-3.9c0-0.1-0.1-0.2-0.2-0.3
				c0.9,0,1.7,0,2.4,0c1.1,0,2.2-0.1,3.4-0.1c-0.1,0.1-0.1,0.2-0.2,0.4c-0.3,1.3-0.4,2.6-0.6,4v0.1l0,0c0,0.2-0.1,0.3-0.1,0.5
				C55,32.1,56,32.6,57,32.5c0.4,0.2,0.8,0.3,1.2,0.3c4.1-0.7,8.3-1.1,12.5-1.6c3.8-0.5,7.3-1.3,11.1-1.1c-3.8,0.4-7.6,0.8-11.4,1.4
				c-4.2,0.6-33.5,6.2-32.4,0.2c0.1-0.5-0.1-1-0.5-1.3c0.1-0.4,0.1-0.8,0.1-1.4c0-2,0.2-3.2-0.2-5.1c0-0.1,0-0.1,0-0.2
				c0.9,0.6,2,1.1,3.2,1.5c-0.7,1.7-2.4,4.2-2.3,6C38.4,32.8,40.4,33.8,41.9,34.1z M83.2,29c0.6,0.2,1.3,0.4,1.9,0.6
				c-1.1,0.1-2.1,0.2-3.2,0.3C82.6,29.9,83,29.5,83.2,29z M21.5,134.5c1.6,0.3,3.2,0.2,4.8-0.5c0.2-0.1,0.3-0.3,0.4-0.5
				c1.6,4.7,7.4,5.5,12,4.6c1-0.2,0.7-1.6-0.2-1.7c-3.5-0.3-10.1,0.2-10.6-4.8c-0.1-1.1-1.8-1.1-1.7,0c0,0.3,0.1,0.6,0.2,0.8
				c-0.1-0.1-0.2-0.2-0.4-0.2c-1.2-0.2-2.5-0.3-3.7-0.5c1.8-5.2,3.6-10.5,5.1-15.8c2.5,0.9,5.4,0.8,7.5-0.9c0.6,0.7,1.4,1.4,2.3,1.8
				c3.1,1.5,6.5,0.8,9.6-0.3c1.4-0.5,0.9-2.5-0.6-2.2c-3.2,0.5-10.3,1.8-10.4-3.5c0-1.5-2.1-1.4-2.2,0c-0.1,0.8,0.1,1.6,0.3,2.3
				c-1.9,0.6-3.8,1.1-5.7,0.3c2.2-8.1,2.8-17.1,3.6-26c1.7,3,6.2,4.5,8.9,1.9c0.1-0.1,0.1-0.2,0.2-0.3c0.5,1.2,1.4,2.3,2.6,3
				c3,1.9,6.6,1.2,9.6-0.3c0.9-0.5,0.3-1.8-0.7-1.6c-2.1,0.5-4.4,1-6.5,0.4c-2.3-0.6-4.1-2.8-3.5-5.2c0.3-1.1-1.3-1.5-1.7-0.5
				c-0.3,0.9-0.4,1.9-0.2,2.8c-0.2-0.2-0.5-0.3-0.8-0.2c-2.2,0.5-4.6,0.1-5.5-2.1c-0.4-0.9-1.4-0.9-2-0.4c0.6-5.8,1.4-11.5,2.7-16.9
				c1.7,2.4,5.3,3.3,7.6,1.2c0.7,0.9,1.6,1.6,2.2,2c2.2,1.4,4.9,2.2,7.5,2.2c0,0.1,0,0.2,0,0.3c1.3,5.7,8,9,13.2,6.2
				c1.1-0.6,0.3-2.4-0.9-2c-4,1.4-9-0.5-10.4-4.7c0.6-0.1,1.3-0.3,1.8-0.5c0.9-0.4,0.9-1.8-0.2-1.8c-2.2,0-4.3,0-6.4-0.5
				c-1.3-0.3-6.2-1.9-5.6-3.9c0.2-0.7-0.6-1.1-1.1-0.9c-0.8,0.4-1.1,0.9-1.2,1.5c-0.1,0-0.1,0-0.2,0.1c-1.7,0.9-4.2,0.4-4.9-1.5
				c-0.1-0.4-0.4-0.6-0.6-0.7c1.5-2.5,2.4-5.1,3.1-7.8c0.1-0.2,0.2-0.5,0.4-0.7c0-0.1-0.1-0.2-0.1-0.2c0.4-2.1,0.7-4.2,0.9-6.3
				c2.7,1.7,6.4,2.2,9.1,0.7c1-0.6,0.5-2-0.6-2c-1.6-0.1-3.1,0.1-4.7-0.2c-1.3-0.2-2.5-0.7-3.6-1.3c0.2-1.7,0.4-3.5,0.6-5.3
				c4.3,3.6,9.2,4,14.6,5.6c9.8,2.9,17.1,10.6,20.1,20.4c1.3,4.4,1.9,8.8,1.8,13.2c-0.5-0.1-1,0.2-1.3,0.8c-0.5,1.4-2.1,2.1-3.5,1.7
				c-1.5-0.6-2.2,2-0.5,2.5c2,0.6,4,0,5.3-1.5c-0.4,4.4-1.3,8.9-2.5,13.2c-1.4,0.2-2.9,0.1-4.3-0.6c-1.5-0.8-2.8,1.4-1.3,2.2
				c1.5,0.8,3.1,1.2,4.7,1.2c-0.7,2.1-1.4,4.3-2.2,6.4c-3.2,1.4-6.8,0.9-9.1-1.9c-0.9-1.1-2.8,0.4-1.9,1.5c2.2,3.1,6.2,4.7,9.7,3.8
				c-2.1,5.3-4.4,10.5-6.5,15.6c-0.9,2.1-1.7,4.3-2.5,6.4c-0.1,0-0.1,0-0.1,0l0,0c-1.6-0.4-2.8,1.9-1.2,2.8c0.1,0.1,0.2,0.1,0.3,0.2
				c-0.9,2.5-1.7,5-2.5,7.5c-1.7,0.9-3.7,1.2-5.6,0.3c-1.5-0.7-2.9,1.5-1.4,2.3c1.9,1,3.9,1.2,5.8,0.8c-1.4,4.5-2.8,9.1-4.3,13.6
				c-0.2,0-0.3,0-0.5,0.1c-2.3,1.2-5.2,1.1-7.1-0.9c-1.1-1.2-2.8,0.6-1.8,1.8c2,2.4,5.5,3.2,8.3,2.1c-1.3,3.7-2.6,7.3-4.1,10.9
				c-2,0.1-4-0.6-5.1-2.4c-1-1.5-3.4-0.1-2.5,1.4c1.4,2.2,3.8,3.7,6.3,3.9c-0.2,0.4-0.3,0.8-0.5,1.2c-1.9,4.2-4.2,8.2-6.5,12.3
				c-0.3-0.3-0.8-0.3-1.1,0.2c-5.9,9.7-10.2,20.3-13.7,31.2c-0.3,0.6-0.6,1.2-0.9,1.8c-0.4-0.6-1.4-0.8-1.9,0
				c-1.1,1.8-2,3.6-2.8,5.5c-0.4-7.2-1.3-14.3-2.3-21.6c1-0.5,1.9-1.2,2.6-2.2c0.9-1.3-1.1-2.8-2.2-1.7c-0.3,0.3-0.5,0.5-0.8,0.7
				c-0.8-5.9-1.4-12-1.7-18.1c0-0.9,0-1.8-0.1-2.7c1.6-0.3,3.1-0.8,4.5-1.7c3.1,2,7,2.7,10.5,1.3c1.1-0.5,0.7-2.2-0.5-1.9
				c-2.9,0.7-5.8,0.4-8.3-1c-0.1-0.6-0.9-1.1-1.5-0.8l0,0c-0.3-0.1-0.6,0.1-0.8,0.3c-1.2,0.5-2.5,0.9-3.8,1.2
				c0-7.4,0.5-14.9,1.6-22.3c0.5,0,1.1,0,1.6-0.1c1.6,4,5.8,6.8,10.2,5c0.7-0.3,0.8-1.7-0.2-1.6c-3,0.4-6.7-0.9-8.2-3.6
				c1-0.4,0.9-1.9-0.3-2c-0.9-0.1-1.8-0.1-2.7-0.1c0.5-3,1.1-6,1.8-9C18.8,143,20.1,138.8,21.5,134.5z M79.9,95
				c11.3,1.1,23,2.4,34.7,2.9c-2,1.1-8.5,0.2-10.3,0.2c-4,0-8.1-0.3-12.1-0.8c-1.7-0.2-2.6,2.4-0.8,2.7c0.1,0,0.3,0.1,0.4,0.1
				c-0.3,0.1-0.6,0.2-0.8,0.3c-1.3,0.7-0.7,2.3,0.4,2.7c0.3,0.1,0.6,0.2,0.9,0.3c-5,0.4-10,0.9-15,1.5c-1.5,0.2-1.5,2.5,0,2.4
				c16.9-1.7,33.8-1.7,50.7-1.6c1.8,0,1.7-2.6,0-2.7c-1.6-0.1-3.2-0.2-4.7-0.3c0.1-0.8-0.2-1.6-1-2c-1.2-0.5-2.4-0.9-3.6-1.2
				c0.1-0.6-0.1-1.2-0.6-1.7c6,0.2,11.9,0.1,17.7-0.3c0.2,3.8,0.2,7.5,0,11.3c0,0.3,0,0.5-0.1,0.7l-0.1,0.1
				c-0.4,0.9-0.4,1.9-0.1,2.8c-0.8,9.1-2.8,18-5.7,26.6c-3.5-2.4-7.3-4.5-11.3-6.2c0.5-0.4,0.8-1.1,0.6-1.9
				c-0.1-0.3-0.2-0.5-0.3-0.7c2.4,0.9,4.9,1.7,7.5,2c1.7,0.2,2.6-2.3,1.4-3.4c-4.4-3.8-10.7-5.8-17.2-7c-4.1-3.7-10.2-4.9-15.7-4.1
				c-1.3,0.2-1.5,1.7-0.9,2.6c-0.7,0-1.4,0-2.1-0.1c-0.3,0-0.5,0-0.7,0.1c-1.9-0.4-3.8-0.8-5.7-1.2c-2.2-0.4-3.1,2.8-0.9,3.4
				c5.6,1.5,11.6,2.7,17.3,4.3c-10.7-2.8-21.7-4.3-31.9-5.2c-1.5-0.1-1.9,2.5-0.4,2.7c10.6,1.4,21.1,3.6,31.3,6.7
				c9.6,3,18.5,7.7,27.9,11c-2.1,5.6-4.6,11.1-7.5,16.4c-4.3,1.3-8.5,2.2-12.8,2.8c0.7-1.1,0.5-2.7-1.1-3.1
				c-0.8-0.2-1.6-0.3-2.3-0.5c0-0.7-0.3-1.5-1-1.9c-8.6-5.1-20.7-6.4-30.3-8.7c-2-0.5-2.8,2.5-0.9,3.1c4,1.2,8,2.8,12.1,4.4
				c-4.7-1-9.3-2.3-13.9-3.7c-1.3-0.4-2.1,0.8-1.9,1.8c-0.8,0.5-1.1,1.8-0.1,2.5c-0.5,0.2-0.8,0.7-0.9,1.2c-2.9-1.2-5.8-2.5-8.7-4
				c-0.3-0.2-0.6-0.2-0.9-0.1c1.1-3.3,2.1-6.5,3.1-9.8l0,0c0.1-0.2,0.2-0.4,0.2-0.6c0.6-1.8,1.1-3.5,1.7-5.3
				c16.2,8,36.9,12.7,54.6,13.1c1.7,0,1.9-2.4,0.4-2.9c-9.4-3.2-19.3-4.4-28.9-6.7c-8.4-1.9-16.6-4.7-24.9-7.1
				c2.1-6.3,4.3-12.6,6.8-18.7c1.9-4.7,3.8-9.6,5.3-14.7c1-0.4,1.9-1,2.7-1.9c0.8-0.9-0.3-2.5-1.3-1.7c-0.1,0.1-0.3,0.2-0.4,0.3
				c0.2-0.8,0.4-1.6,0.6-2.4C78.8,94.6,79.3,95,79.9,95z M111,43.3c0.2-0.1,0.3-0.3,0.3-0.4c0.3,0.3,0.7,0.6,1,0.9
				C111.9,43.7,111.4,43.5,111,43.3C111,43.4,111,43.3,111,43.3z M139.5,87.2c0.5,1.7,1.1,3.4,1.5,5.1c-0.5,0.1-0.9,0.2-1.4,0.2
				C139.6,90.7,139.6,88.9,139.5,87.2z M109.1,177.7c-2.9,3.8-5.9,7.5-8.9,11.3c0.5-1.3-0.4-2.9-2.2-2.5c-2.8,0.6-5.5,1.1-8.3,1.5
				c1-0.9,0.7-2.9-0.8-3.2c-1.6-0.4-3.2-0.4-4.8-0.4c-4.3-7-15.7-5.6-22.5-4.6c-2.3,0.3-2.2,3.7-0.5,4.7c-0.8-0.1-1.6-0.2-2.5-0.3
				c-1-0.1-1.8,0.4-2.1,1.2c-0.4,0-0.8-0.1-1.2-0.1c-0.7-0.1-1.1,0.3-1.4,0.8c-2-0.6-3.9-1.2-5.9-2c-2.3-0.9-3.3,2.8-1,3.7
				c16.5,6.8,34.8,8.5,51.8,2.3c0.2-0.1,0.4-0.2,0.5-0.3c-10.4,12.9-20.5,25.9-26,41.9c-1.1,3.1-2,6.3-3,9.5
				c-0.2-0.2-0.4-0.4-0.7-0.4c-10.7-2.4-21.4-4.2-31.9-6.9c6.7,1.4,13.5,2.8,20.2,3.3c1.6,0.1,1.8-2.3,0.4-2.7
				c-8.7-2.6-18.1-3.4-27-4.9c-1.3-0.2-2.1,1.2-1.8,2.1c-1.7-0.5-3.4-1-5-1.6l0,0c0.7-2.1,1.5-4.2,2.3-6.3c0,0,0.1,0,0.1-0.1
				c0.4-1,0.8-2,1.2-3.1c14,6,29.5,9.4,44.6,6.7c1.2-0.2,0.9-2-0.3-2c-15.2-0.1-29.3-1.3-43.5-7c0.4-0.9,0.8-1.9,1.2-2.8
				c0.2,0,0.3,0.1,0.5,0.1c2.9,0,3.5-3.6,1.7-5.1c5.6-11.7,12.5-22.7,17.6-34.7c0.2-0.1,0.4-0.2,0.5-0.3c0.6-0.4,0.6-1.2,0.3-1.8
				c0.2-0.6,0.5-1.1,0.7-1.7c0.5-1.2,0.9-2.5,1.4-3.7c15,5.5,31.6,9.1,47.6,7.4c2.2-0.2,2.2-3.3,0-3.4c-15.9-1.1-31.1-2.6-46.3-7.6
				c1.2-3.3,2.3-6.6,3.4-9.9c0.1,0.1,0.2,0.2,0.3,0.2c10.6,5.6,22.1,10.7,34,12.9c1.4,0.3,2.1-1.2,1.5-2.1
				c8.3,0.9,16.7,0.2,24.9-2.1C115.7,168.5,112.5,173.2,109.1,177.7z M63,184.7c3.1-0.3,6.3-0.5,9.5,0c0.7,0.1,1.3,0.3,2,0.4
				C70.6,185.2,66.8,185.1,63,184.7z M65.7,262.6c-0.1-1.2-0.9-2.4-2.3-2.6c-2.3-0.3-4.6-0.7-6.9-1.1c0.1-0.6,0-1.2-0.3-1.7
				c0.4,0,0.7,0.1,1.1,0.1c3.5,0.2,3.4-5,0-5.4c-11.7-1.2-24.1-7.8-35.8-5.7c-1.7,0.3-2,2.9-0.5,3.7c3.4,1.7,6.8,3.2,10.2,4.8
				c-4-0.7-7.9-1.3-11.9-1.9c0.2-2.6,0.2-5.1,0.1-7.7c1.5-4.2,2.9-8.3,4.4-12.5c0.1,0,0.1,0.1,0.2,0.1c14.4,5.4,29.9,10.6,45.5,11.2
				c0.2,0,0.3,0,0.5-0.1C68.3,249.9,66.9,256.2,65.7,262.6z M535.2,191.9c-10.9,7.6-22.1,11.7-35.2,16.9c-6.2,2.5-12,6.2-17.9,8
				c-12.9,3.9-29,6.1-44.8,7.3c-11.3,0.8-23.2,1.7-37.5,1.7c-2.2,0-9-0.4-10.6,1.3c-1.2,0-2.4,0-3.6,0.1c-0.1,0-0.1,0-0.2,0
				c-0.5-0.6-1-1.2-1.6-1.8c-2.8-8.3-13.4-8.9-21.5-11.9c-0.1,0-0.3,0-0.4,0h0.3c0,0,0,0,0.1,0c3.8,0.1,8.5,1.9,12.9,2.3
				c-1.1-3.3-5.4-3-8.3-3.7c-6.3-1.3-12.8-2.6-19.9-3.7c-4.6-0.7-8.8-1.2-12.6-0.7c-4.2,0.6-10-0.9-15.9-1.3c-27.6-1.9-60-1.6-82-9
				c0.3-0.7,2.1,0.1,1.7-1.3c-2.6-0.8-5.7,0.2-6.3,2.3c0.5,2.4,0.9-0.5,2,0c0.7,0.3,1.5,2.5,2.3,3c4.3,2.6,12.7,3.3,19.9,4.3
				c27.3,4.1,56.6,2.4,86,6.3c6.7,0.9,13.5,3.1,19.6,5c7,2.2,13.7,3.5,17.6,6.6c4.7,3.8,8.7,11.1,12.6,18.3c2,3.8,4.1,6.7,5,10.6
				c1.3,5.7,2.7,14.7,1,20.9c-1,3.7-3.3,8-5.6,11.6c-2,3-4.8,7.5-7.6,9.6c-3.8,2.9-10.8,5.8-15.6,8c-9.2,4.2-18.7,6.6-31.5,6
				c-1.1,1.2,0,1.7,0.3,3c-23.6-6.3-49.4-11.9-75-16.6c-4.2-0.8-8.5-1.6-12.3-3c-3.6-1.4-6.8-4.4-11-3.7c0,3.5,3.9,4.8,6.3,6
				c7.7,3.9,19.2,5.4,29.2,7.3c13.3,2.5,27.6,4.6,40.5,8.3c12.9,3.7,26.2,5.6,37.5,11.3c9.4,4.7,22.3,12,27.9,20.6
				c0.2,0.4,0.4,0.8,0.6,1.2c-0.2,0.3-0.2,0.7,0.1,1c0.4,0.5,0.6,1,0.9,1.5c0.4,1.4,0.8,2.9,1.4,4.3c0.5,1.1,1.1,1.8,1.7,2.5
				c1.6,5,2.1,10.2,2.8,15.6c-0.2,2.8-0.6,5.5-1.5,7.8c-3.9,10.6-15.8,21-25.6,26.6c-23.7,13.6-65.8,10.9-101.6,9.3
				c-9.5-0.4-19.2-0.9-28.6-0.3c-11,0.7-21.9,2.8-33.2,3.3c-18.2,0.8-36.5,2.7-53.1,3.7c0.8-1.3,4.8-2.3,5-5.3c-1.3-0.8-2.7,2-4.3,3
				c-1.8,1.1-4.1,1.4-5.3,2.7c-2,0-4.1-0.1-5.6,0.3c1.8-2.9,6.2-6.2,6.6-11.6c0.5-0.8,2.8,0.1,3-1c-0.3-2.2-5.2-1.5-6-0.3
				c0.2,1,1.3,1.1,2.7,1c-4.4,8-9,14.4-24.2,12.3c6.2-3.8,14.1-5.8,15.3-14.6c-2.7,1.7-5.1,6.6-9,8.3c-0.1-0.8,2.3-2.7,0.7-4.3
				c-4.1-0.1-6.6,4.3-11,5c1.4-3.7,6.9-6.2,7.3-11.9c-2.7-0.5-2.5,5.2-6.3,3c-3.2,3.2-6.4,6.3-10.3,8.6c1.3-2.4,4.6-5,6.6-8.3
				c1.8-3,4.2-7.4,2.3-11c-2.1,1.5-1.7,5.6-3.3,7.6c-1.5,0.3-3-1.2-3.3-1c-6,5.4-10.2,12.6-20.6,13.6c7.4-5.3,19-11.1,17.6-23.6
				c-1.8,1.1-1.1,4.6-2.7,6c-0.5,1.4-1.4-0.8-2.7,0.3c-5.8,6.6-11,13.8-22.9,14.3c4.8-2.1,9.8-5.7,13.9-10c4.4-4.5,9.8-10,9.6-17.3
				c-1.5,2.1-2.5,4.8-4,7c-0.9,0.7-1.4-1.3-3.3-0.7c-5.2,12.5-21.4,14-35.2,17.9c-2.6-0.6-4-2.4-6.6-3c13.9,1.3,24-1.9,32.2-8.3
				c5.1-4,10.8-9.2,12.3-15.6c-2.4,1.2-3.2,4.1-5,6c0-1.3-0.3-3.1-2-3.3c-2.2-0.2-2.9,2.7-4,4c-2.6,3.1-8.3,7.9-13.3,10
				c-4.6,1.9-9.6,0.7-13.9,3c-0.5,0.5-0.3,1.7-0.3,2.7c-9.8,0.6-15.6-2.8-20.6-7c6.6,1.4,12.1,2.7,20.3,2.3
				c8.8-0.4,14.4-3.6,19.9-8.3c5.1-4.3,10.7-9.1,12.6-15.3c-2.7,0.2-3.2,2.6-4.3,4.3c-1.4-0.9-2.3-0.4-3.7-1.3
				c-8.3,6-17.7,10.9-29.9,12.9c-1.3-0.2-1,1.3-1,2.3c-4.7,0.5-8.5-1.3-12.6-0.3c-1.1,0.7,0.7,1.8,0,2c-2.4,1.2-5.5-1-7.9-3.3
				c-0.5-0.6-1-1.1-1.4-1.7c-0.2-0.3-0.4-0.3-0.7-0.3c-6-6.2-11-15.7-14.3-23.2c11.8,6.1,35.5,7.5,49.8,1.7c2.3-0.9,4.6-2,6.6-3
				c2.1-0.9,4.8-1.5,5.3-3.7c-2.6,0.6-5,1.5-7,2.7c0.5-1.1,2.9-4.2,0.3-6c-7.3,4.8-17.7,6.5-29.2,7c-1.2-0.2-0.6,1.4-1.3,1.7
				c-5.1,0.4-12.9-3.8-15.6,0.3c-3.3-0.9-6-2.4-9.6-3c-1-2.3-1.7-4.9-2.3-7.6c5.1,0.2,9.8,3.7,15.9,4c-0.1-0.8-1-0.7-1.3-1.3
				c16.2,1.8,37.6,3.4,44.2-8c-1.3-0.6-1.5,0.9-2.3,0.7c-1.5-0.4-2-5-4.3-5.6c-1.4-0.4-5.4,1.2-8.3,1.7c-2.7,0.5-6.1,1.1-8.3,1.3
				c-6.6,0.6-11.3-1.6-15.9,0c-0.9,1.8,0,4.3,1,5.3c-5.1-0.3-9.5-2.8-14.9-1.7c-0.5,2.5,1.7,2.3,2.7,3.3c-3.8-0.8-6.4-2.9-9.6-4.3
				c-0.5-4.3-2-9.2-2-12.9c10.8,4.9,27.3,8.3,44.8,7c6.3-0.5,12.7-2,16.5-5.6c-0.2-0.3-0.3-0.7-0.4-1c-4,0.5-7.3,3.5-12.1,3.6
				c3.3-0.6,5.1-2.7,6.3-5.3c-1.4-2.4-4.4-1.8-8.3-1.7c-7.6,0.3-17.8-1-23.6,0c-0.8,0.9-0.1,2.6,0,3.7c-3.7-0.7-7.8-0.8-11.3-1.7
				c-0.7,0.7-2.2,0.7-1.7,2.7c-3.3-1.3-6.9-2.1-10-3.7c0.4-4.5,0.5-9.5,0.7-14.3c7.4,4.5,24.1,10.1,35.9,11c7.9,0.6,15.5,0.3,21.3-2
				c-0.2-0.6-0.4-1.2-0.5-1.9c-0.6,0.3-1.3,0.5-1.8,0.5c-1.6-0.5-2.2-2-4.3-2c-1-3.4,2.2-2.7,2-5.3c-4.7-1.4-10.6-0.4-16.3-0.7
				c-6.5-0.3-12.9-2.7-16.3,0c0.1,2.7,3.7,1.8,5.3,3c-5.5,1.1-9.1-4.2-14.6-3c-0.9,1.1-0.4,1.8,0,3c-4.2-0.7-7-2.7-10.3-4.3
				c-0.1-1.1-0.1-2.1-0.1-3.1c0.9-4.3,1.8-8.6,2.7-12.9c1,2.7,5.5,5,8.4,6.4c8,3.8,20.3,6.4,31.5,7c3.6,0.2,7.9,0.3,11.6-0.4
				c-0.1-0.8-0.2-1.6-0.3-2.4c-2.9,0.4-6,0.8-9.3,0.4c2.5-0.5,5.4-0.5,7-2c0.4-1.7,1.5-2.7,2-4.3c-5.5,0.6-10.4-0.7-16.6-1.7
				c-5.4-0.9-11.8-4.2-12.3,1c-1.4-0.4-4.7-0.8-5.6,0.3c-0.2,1.7,0.8,2.3,2,2.7c-3.3-0.4-6.8-1.8-10-3.3c-3.1-1.5-5.5-3.9-8.2-4.5
				c2.1-9.9,4.3-19.7,6.7-29.7c3,1.3,6,2.5,9.1,3.5c0.2,0.2,0.4,0.4,0.7,0.5c4.5,1.5,9.1,2.8,13.8,3.7c3.5,0.7,7.6,1.8,11.2,0.8
				c2.6,0.1,5.1,0.2,7.7,0.1c1.5-0.1,1.5-2.3,0-2.3c-1.9-0.1-3.8-0.2-5.6-0.3c-0.1-0.5-0.4-0.9-0.9-1.2c-0.7-0.4-1.5-0.6-2.3-0.8
				c0.3-0.1,0.6-0.3,0.8-0.6c0.4,0,0.8,0,1.1-0.1c2.2-0.2,3.2-3.7,0.6-4.2c-2.8-0.5-5.7-0.8-8.6-1.1c-1.5-0.2-3.1-0.3-4.6-0.5
				c-0.5-0.1-1-0.1-1.5-0.1c-1.7-0.2-3.5-0.4-5.2-0.7c-0.8-0.1-1.4,0.1-1.9,0.5c-2.3,0.1-4.6,0.2-7,0.5c-1.3,0.1-2,1.2-2.1,2.2
				c-1.7-0.6-3.3-1.2-5-1.9c1.3-5.4,2.3-10.9,2.9-16.4c6.1,1.8,12.4,3.3,18.7,4.4c0.3,0.8,1,1.4,2,1.6c3.4,0.6,6.4,0.7,9.4,0.3
				c0.6,0.1,1.2,0.2,1.9,0.3c4.2,1.5,8.3,2.5,13,1.6c0.8-0.2,1.2-0.5,1.5-1c-2.5,13.8-3.9,27.8-4.5,41.1c-0.1,1.8,2.5,1.7,2.8,0
				c1.6-12.3,2.8-25.3,4.7-38.2c1.6,0.8,3.6,0.9,5.3-0.2c0.9-0.5,0.3-1.9-0.7-1.7c-1.4,0.4-3,0.1-4.2-0.8
				c1.7-10.8,4.1-21.5,7.8-31.5c0.9,1.7,2.9,2.8,4.8,2.7c1,0,1.3-1.5,0.2-1.8c-2.1-0.5-3-1.9-3.7-3.8c0-0.1-0.1-0.1-0.1-0.2
				c1.3-3.1,2.7-6.2,4.3-9.1c1.4,2,3.3,3.6,5.6,4.5c1.3,0.5,1.8-1.3,0.8-2c-2-1.5-3.7-3.2-4.9-5.4c2.5-4.4,5.3-8.5,8.3-12.6
				c0.9,1.5,2.7,2.4,4.9,1.6c1.2-0.4,0.7-2.1-0.5-1.9c-1.3,0.2-2.5-0.6-2.8-1.7c2.3-3.1,4.7-6.1,7.1-9.2c0,0.2,0,0.4,0.1,0.6
				c1,2.2,2.8,4.2,5.2,4.7c0.9,0.2,1.8-1,1-1.7c-1.5-1.3-2.9-2.6-3.7-4.4c-0.3-0.7-0.9-0.8-1.5-0.7c1.4-1.7,2.7-3.4,4.1-5.1
				c0.5,3.3,2.9,6.4,6.4,6.4c0.9,0,1.4-1.4,0.5-1.8c-2.9-1.5-5.4-3.9-4.6-7.5l0,0c2-2.5,4-5.1,5.9-7.7c0.4,0.5,0.9,0.9,1.5,1.2
				c2.1,1.1,4.5,0.7,6.6-0.1c0.9-0.4,0.8-1.7-0.2-1.7c-1.7,0-5.4,0.4-6.2-1.6c2.8-3.9,5.5-8,7.9-12.2c0.4-0.3,0.7-0.8,0.7-1.3
				c0.6-1,1.1-2.1,1.7-3.1c1.1-2.1,2-4.2,3-6.4c0.3,0.7,0.8,1.3,1.4,1.8c2,1.7,4.6,1.9,7.1,1.5c0.8,1,1.8,1.8,3,2.4
				c3.8,1.7,7.9,0.2,11.4-1.5c1.4-0.7,0.2-2.6-1.2-2c-2.2,0.9-4.6,1.9-7.1,1.8c-1.4-0.1-2.8-0.6-3.8-1.5c0.4-0.8-0.1-2-1.1-2
				c-0.1,0-0.2,0-0.3,0c-0.2-0.6-0.3-1.2-0.2-2c0.2-1.3-1.7-1.9-2-0.5c-0.2,0.9-0.2,1.7,0,2.6c-1,0-2.1-0.1-3-0.4
				c-1.4-0.5-2.8-2.2-2-3.7c0.3-0.6,0.2-1.1-0.2-1.4c1.4-3.7,2.7-7.5,3.8-11.3c2,2.8,6.5,2.3,9.4,0.7c0.2-0.1,0.3-0.3,0.4-0.5
				c0.5,1.1,1.2,2,2.3,2.7c4,2.6,8.7,1,12.7-0.8c1.4-0.6,0.4-3.1-1.1-2.5c-2.3,0.9-4.9,2-7.4,1.9c-3.1-0.2-6.2-3.1-4-6.1
				c0.6-0.9-0.8-1.9-1.5-1.1c-1.2,1.4-1.6,3.1-1.3,4.8c-0.1-0.1-0.3-0.2-0.5-0.1c-2.1,0.2-6.4,1.6-7.4-1.3c-0.1-0.4-0.4-0.6-0.6-0.7
				c1.3-5.3,2.3-10.7,2.9-16.2c1.7,0.5,3.7,0,5.2-1c1.1-0.7,0.4-2.5-0.9-2.1c-1.1,0.3-2.4,0.8-3.6,0.5c-0.2,0-0.3-0.1-0.5-0.2
				c0.2-2.3,0.3-4.6,0.4-6.9c0.2-3.5,0.4-7.3,0.4-11.1c0.8-0.1,1.6-0.2,2.4-0.4c0.2,0,0.3,0,0.4-0.1c4.2-0.9,8.1-3,10.9-6.4
				c3,0.6,6.2,0,8.5-2.2c2.8,1.1,6.6-0.2,9.1-1.9c0.8-0.5,0.3-2-0.7-1.6c-2.8,0.9-7.5,3.1-9.3-0.5c-0.7-1.4-2.6-0.2-2.1,1.2
				c0.2,0.5,0.5,1,0.8,1.4c-1.6,0.8-3.3,1.2-5,1.2c-0.2-0.7-1.2-1.2-1.8-0.5c-0.1,0.1-0.1,0.1-0.2,0.2c-1.1-0.3-2.2-0.9-3.2-1.7
				c-1.1-1-2.8,0.6-1.7,1.7c0.8,0.8,1.8,1.5,2.9,2c-2.5,2.3-5.2,4-8.4,4.9c-0.7-2.8-1.4-5.5-2.3-8.2c0.4,0.1,0.8-0.2,0.7-0.7
				c-0.7-2.2-1.6-4.3-2.5-6.5c-0.1-0.3-0.1-0.6-0.2-0.8c2.4-0.1,4.9-1.2,7-2.7c2.7,1.4,6.3,1.1,9.1,0.3c1.7-0.4,1-3-0.7-2.6
				c-1.1,0.3-4,0.7-6.1,0.3l0,0c0.9-0.9-0.2-2.2-1.3-1.7c-0.3,0.2-0.6,0.3-1,0.5c-0.2-0.3-0.3-0.7-0.1-1.2c0.2-0.7-0.6-1.4-1.2-1
				c-1.3,0.8-1.3,2.2-0.7,3.3c-1.8,1-3.7,1.8-5.6,1.9c-0.5-1.8-1-3.5-1.7-5.2c-0.3-0.8-1.5-1-1.9-0.4c-1-1.8-2-3.7-3.1-5.4
				c-0.4-0.9-0.9-1.8-1.4-2.7c0.3-0.1,0.7-0.2,0.9-0.5c0.8,0.2,1.6,0.3,2.5,0.3c2.8-0.1,7.1-1.6,8.4-4.2c0.3-0.7-0.1-1.6-0.9-1.6
				c-2.2,0-3.8,1.7-5.8,2.3c-2.4,0.8-4.9,0.6-6.6-1.5c-0.1-0.2-0.3-0.3-0.5-0.4c-1.9-2-3.9-4.1-6.1-6.2c0.8-0.1,1.6-0.3,2.4-0.7
				c2.3-1,4.9-3.2,4.6-6c-0.1-0.9-1.2-1.5-1.9-0.8c-1.3,1.4-2.1,3-3.8,4c-1.3,0.7-2.7,1-4.1,0.9c-5.4-5-11.4-9.4-17.8-11.7
				c-1.5-0.5-2.1,1.8-0.6,2.4c3.6,1.4,6.7,3.5,9.7,5.8c-3.7,1.3-7.3,2.6-10.8,3.7c0.7-0.3,1.4-0.6,2.1-1c1.5-0.8,0.8-3.2-0.9-3.2
				c-7.3,0-15.4,3.6-22.4,5.6c-1.6,0.5-1.5,2.3-0.5,3c-1.5,0.1-3,0.1-4.6,0.1c-1.5,0-1.5,2.3,0,2.4c11.8,0.7,25.5-0.8,35.9-7.2
				c0.1,0.2,0.2,0.3,0.4,0.4c17.5,10.6,25,29,26.7,48.5c-18.3-2-37.3-1.6-55.8-2.5c-0.3,0-0.6,0-0.8,0.1c1.8-9,1.8-18.2-1.6-27
				c-2.2-5.8-5.9-11.1-10.8-14.9c-7.6-5.9-17.8-4.2-25.2-9.9c-0.1-0.1-0.1-0.1-0.2-0.1c-0.4-0.7-0.9-1.5-1.5-2.5
				c3.8,1.2,8.8,0.8,12,0.5c15.5-1.7,30.2-6.1,45.9-6c2.1,0,2.1-3.3,0-3.3c-8.8,0.2-16.7-3.4-25.3-4.4c-0.5-0.1-1-0.1-1.7-0.1
				c-0.4,0-0.9,0-1.3,0C59.9,24,37.5,26.6,37,17c0.3-0.7,0.7-1.5,1.2-2.6c2.6-5.6,4.1-6.1,9.8-7.8c5.6-1.8,11.5-2.7,17.4-3.2
				c2.9-0.2,5.9-0.3,8.9-0.4c4.5,6,12.1,6.1,16.9,0.8C92.1,3.8,93,3.9,94,4c0,0.1,0,0.1,0,0.2c2.4,5.5,10.1,5.8,13.7,1.5
				c6.5,0.9,12.9,2,19.1,3.1c4.9,0.8,9.8,1.9,14.6,3.1c-0.9,1.1-1.9,2.1-3.1,2.9c-2.9,2-8.4,4.5-10.3,0.1l0,0
				c0.1-0.1,0.2-0.3,0.3-0.4c0.7-1.1-1-2-1.7-1c-0.1,0.2-0.3,0.3-0.4,0.5c-0.4,0-0.8,0.1-1.1,0.5c-2.6,3.8-7.6,4.5-11.6,2.7
				c-1.3-0.6-3,1.1-1.7,2.2c4.5,3.9,11.4,2.2,14.5-2.5c3.3,7.2,14.3,1.7,18.2-4.1c3.1,0.9,6.1,1.8,9.1,2.9c-2.9,2.7-5.7,5.6-10,3.7
				c-0.8-0.4-2,0.7-1.1,1.4c4.6,3.7,10.5-0.3,13.3-4.3c2.5,0.9,5,2,7.4,3.1c-0.6,0.5-1.1,1-1.7,1.5c-1.5,1.2-3.3,2.2-5.1,3
				c-1.3,0.6-0.4,2.8,1,2.3c2.9-1.2,6.4-3,8.4-5.6c2.5,1.2,4.9,2.4,7.3,3.8c-1.6,1.3-3.3,2.4-5.2,3.1c-1.2,0.4-0.7,2.3,0.5,1.9
				c2.5-0.8,4.7-2.1,6.6-3.9c10.9,6.5,20.6,14.8,28.1,25.3c-0.3-0.1-0.6-0.1-0.9,0.1c-2.4,1.3-4.5,2.7-7.3,2.9c-3,0.1-7-1.1-7.2-4.7
				c-0.1-1.2-1.8-1.2-1.8,0c-0.1,8.7,13.3,8.8,17.7,3.7c0.2-0.2,0.3-0.5,0.3-0.8c2,2.9,3.9,6.1,5.6,9.4c-0.1,0-0.2,0-0.3,0.1
				c-1.8,1.6-2.9,3.3-5.5,3.7c-2.2,0.3-4.2-0.5-5.6-1.9c0.8-1.3,1.4-2.8,1.7-4.2c0.3-1.5-1.8-2.1-2.3-0.6c-0.4,1.2-0.9,2.2-1.6,3.2
				c-0.2,0.1-0.4,0.4-0.4,0.6c-2.3,3-5.9,4.5-9.7,5c0.3-1,0.6-2,0.7-3c0.1-1.1-1.6-1.3-1.8-0.3c-0.3,1.3-0.8,2.5-1.4,3.6
				c-0.3,0.2-0.5,0.5-0.5,0.8c-2.1,3.2-5.3,5.4-9,7c-0.9,0.4-0.4,1.8,0.5,1.8c4.6-0.3,8.3-3.3,10.4-7.2c4.8,1,9.6-1.5,12.5-5.3
				c1.6,1.7,3.9,2.8,6.4,2.7c2.6-0.1,6-1.7,6.9-4.3c1.1,2.3,2.1,4.6,3,7c0.3,0.7,0.5,1.4,0.7,2.1c-2.4,5.2-6.9,9.3-13,6.9
				c-1.7-0.7-2.6,2-1.2,2.9c3.3,2.1,7.4,1.5,10.6-0.6c2.2-1.5,3.7-3.6,4.7-5.9c3,10.2,3.6,20.1,2.2,29.7c-1.4,2.1-3.7,3.5-6.2,4
				c-3.7,0.8-7.3-0.5-10.9-0.2c-0.9,0.1-1.4,1.3-0.5,1.8c5,2.9,12.5,2.4,16.9-1.4c-0.8,3.9-1.8,7.7-3.2,11.4
				c-0.4-0.5-1.1-0.8-1.6-0.2c-3.6,4.6-9.9,4.7-13.9,0.5c-1.3-1.4-3.2,0.6-2.1,2.1c4.5,5.6,12.3,5.2,16.6,0.1
				c-1.7,4.3-3.7,8.5-6,12.6c-0.2-0.6-0.7-1.1-1.5-0.9c-2.3,0.5-5.3,1.5-7.3,0c-2.9-2.1,0.1-4.5,2-5.8c1.3-0.8,0.1-2.9-1.2-2.1
				c-3,1.8-6.3,4.9-4,8.7c2.4,3.9,7.4,3.2,11.1,1.8c-2.6,4.4-5.5,8.6-8.6,12.7c-1.5,0.7-3.1,0.9-4.7-0.1c-1.2-0.8-1.9-2.3-1-3.6
				c1-1.5,2.5-0.6,3.8-0.6c0.6,0,1.3-0.7,1-1.4c-1-2.4-4.2-2.2-6.1-0.9c-1.9,1.4-2.5,4.3-1.4,6.4c1.1,2.1,3.5,3.3,5.9,3
				c0.1,0,0.2,0,0.2-0.1c-1,1.2-2,2.4-3.1,3.6c-0.3,0-0.5,0.2-0.7,0.4c-1.5,2-4.2,3-6.5,1.8c-2.2-1.1-2.4-3.2-3.3-5.2
				c-0.4-0.9-1.9-1.5-2.4-0.3c-1.5,3.4,1.4,7.4,4.7,8.5c1.1,0.4,2.2,0.4,3.2,0.3c-2.1,2.2-4.3,4.4-6.5,6.5c-0.6,0.5-1.1,1-1.7,1.5
				c-0.2-0.9-1.5-1.4-2.1-0.4c-1.3,2.4-4.5,2.2-6.5,0.7c-2-1.6-2.9-4.2-4.2-6.3c-0.4-0.7-1.6-0.4-1.6,0.4c0.2,3.7,2.4,7.9,6.1,9.2
				c1.3,0.5,2.7,0.5,4,0.3c-3.7,3.2-7.4,6.3-11.2,9.4c-0.3-0.4-0.8-0.6-1.3-0.3c-4.5,2.7-8.4,0.8-10.9-3.4c-0.4-0.7-1.7-0.5-1.6,0.4
				c0.2,4.9,5.1,7.4,9.4,6.7c-4.1,3.2-8.3,6.4-12.4,9.6c-2.1,0.3-4.2-1.4-4.8-3.4c-0.1-0.4-0.4-0.6-0.7-0.7c1.7,0.3,3.5,0.1,5.4-0.7
				c1-0.4,1.1-2.3-0.3-2.2c-5.9,0.6-11.7-1.9-12.5-8.3c-0.2-1.6-2.7-1.6-2.5,0c0.2,1.5,0.6,3,1.3,4.4c-1.4,0.9-3,1.7-4.6,1.8
				c-1.8,0.1-3.8-1.5-3.2-3.4c0.5-1.7-1.9-2.2-2.5-0.7c-1.2,2.8,0.8,5.8,3.4,6.8c0.8,0.3,1.6,0.4,2.5,0.4c-0.1,0.1-0.2,0.2-0.3,0.3
				c-1.5,2.2-0.8,5.2,1.1,7c2.5,2.4,6.2,2.3,9.3,1.4c1.2-0.3,0.9-2-0.3-2.1c-2.1-0.1-4.6,0.2-6.5-0.8c-1.6-0.8-2.7-2.7-1.7-4.4
				c0.4-0.7,0.1-1.3-0.5-1.5c1.8-0.3,3.4-1.2,4.9-2.4c1.7,2.2,4.1,3.8,6.8,4.3c-0.6,0-1.2,0.3-1.2,1c0.1,2.7,2,4.4,4.4,5
				c-4.4,3.4-8.8,6.8-13.1,10.4c-2.3-0.3-4.5-1.1-6.4-2.5c-0.8-0.5-1.7,0.7-1,1.3c1.6,1.4,3.5,2.3,5.6,2.7c-4.3,3.5-8.4,7.2-12.5,11
				c-1.1,0-2.1-0.3-2.9-1c-1.6-1.4-2-3.8-1.5-5.7c0.3-1.3-1.5-2.1-2.1-0.9c-1.7,3-0.8,7,2.1,9c0.6,0.4,1.3,0.7,2.1,0.9
				c-3.2,3.1-6.2,6.3-9.1,9.7c-2,0.2-4-1.6-4-3.9c0-1.1-1.6-1.3-1.9-0.3c-0.7,2.6,0.7,5.3,3.3,6.2c0.2,0.1,0.5,0.1,0.7,0.2
				c-1.1,1.3-2.2,2.6-3.2,4c-0.6,0.8-1.2,1.7-1.8,2.5c-2.4-0.2-4.5-1.4-5.4-3.9c-0.4-0.9-2-0.9-1.9,0.3c0.3,3,2.7,5.5,5.5,6.2
				c-2.8,4.1-5.3,8.3-7.6,12.6c-1.4,0.7-3.2,0.4-4.5-0.4c-0.7-0.4-1.5,0.4-1.1,1.1c1,1.5,2.6,2.1,4.2,2c-1.8,3.4-3.4,6.9-4.9,10.4
				c-1.5,0.7-3.3,0.8-5,0.4c-1.2-0.3-2,1.4-0.9,2c1.4,0.8,3,1,4.5,0.7c-2,4.8-3.9,9.6-5.6,14.5c-0.6-0.3-1.4-0.1-1.7,0.8
				c0,0.1-0.1,0.3-0.1,0.4c-0.9-0.6-1.9-1.5-2.3-1.9c-0.9-0.8-2,0.2-1.5,1.2c0.6,1.4,1.6,2.7,3,3.4c-2.5,8-5.7,17.1-7,26.2
				c-2,9.2-2.1,18.4,3.1,26.7c0.5,0.9,1.8,0.1,1.4-0.8c0.2,0.3,0.4,0.6,0.6,0.9c9.7,13,29.7,19.6,45.2,19.8c0.6,0,0.9-0.3,1.1-0.6
				c3.8,0.3,7.7,0.5,11.6,0.3c-5.5-2.9-13.1-3.8-20.3-5c-1.5-0.5-3-1-4.5-1.5c13.9-0.7,23.9-6.5,35.5-9.2c14.6-3.4,27.6-8,43.2-11
				c14.9-2.8,29.4-4.5,48.5-3.7c13.2,0.6,31.3,2.3,44.2-0.7c5,1.2,11.7-0.1,17.9-0.3c15.8-0.7,33.2-0.4,43.5-6.3c-2.2-2.4-6,0-9,0.7
				c-9.6,2.1-22.2,1.9-33.5,2.3c-2.4-1.3-4.3-3-7.3-3.7c-0.4,2.1,4.1,2.1,5.3,3.7c-27.9,3.7-57.1-1.1-86.7,0.3
				c-3.2,0.2-7.2,0.7-11,1.3c-5.7,0.9-12,4.2-13.6-2c-0.3-1.2,0.1-2.5,0-3.7c-0.6-6.9-4.6-15-2-23.9c1.4-4.6,4.5-9.4,7-13.6
				c5.1-8.9,11.9-16.5,21.2-21.6c14-7.5,33.8-11.9,54.8-12.9c16.3-0.8,32-1.5,48.1-4s34.4-4.5,39.8-16.3c-0.4-4.5-6.2-8.9-10-5
				c0.3,1.7,3.1,0.9,4.3,1.7c1.4,0.8,2.1,2.3,3,3.7c-2.3,2.5-5.6,4.6-9,6c-8.3,3.5-19,4.1-27.9,7c-5.6-0.3-11.4,0.6-17.3,1
				c-9.9,0.6-19.8,0.8-30.9,1.3c-8,0.4-15.9,1.2-23.6,2.5c-0.2-0.4-0.5-0.8-1-1c-3-1.1-6.1-1.7-9.3-2.1c0-0.7-0.2-1.3-1-1.4
				c-18.5-1.1-33.5-7-38.5-21.3c-4.7-13.1,2.6-32.2,10.3-37.5c5.1-3.6,13.2-5.4,20.9-7.3c23.5-5.7,54.6-2.5,76.4,2.3
				c23.6,5.2,45.9,10.2,68.4,16.3c7.4,2,15.1,5.2,22.2,6c2.2,0.2,4.8-0.4,7-0.3c8.8,0.4,16.6,2.3,26.2,1.7
				c5.6-0.4,11.4-1.8,17.3-2.3c29.4-2.7,57.2-7.6,82-14.9c7.4-2.2,14.1-5.4,19.9-9.3c1.7-1.2,3.2-3.2,5.3-3.7
				C547.1,183.3,539.4,188.9,535.2,191.9z M37.5,370.2c2.7,0.2,6.2-0.4,8.3,0.3C43.1,370.3,39.6,370.9,37.5,370.2z M30.2,343.6
				c2.5,0,6.7-0.1,7.3,0.7C34.9,344.2,31.9,344.6,30.2,343.6z M37.6,277.5c0.3,0,0.6,0.1,0.8,0.1c-0.8-0.1-1.7-0.2-2.5-0.3
				C36.4,277.4,37,277.4,37.6,277.5z"/>
			<path class="st0" d="M250.3,184.9c2.5,0,5.1,0,7.6,0c0.5,0.6,0.5,1.7,1.3,2c0.8-0.3,1.6-0.6,1.3-2c1.3,0.3,2.9,0.4,4.6,0.3
				c-2.4-3.6-11.7-1.7-17.9-2.3c1,1.1,1.5,2.7,2.7,3.7C251.4,186.7,250.2,185.5,250.3,184.9z"/>
			<path class="st0" d="M244.7,184.9c0.1-2.4-4-1.7-5.6-1.3C239.5,185.5,242.5,184.8,244.7,184.9z"/>
			<path class="st0" d="M269.9,185.9c0.7,1.1,0.5,3.1,2.7,2.7c0.6-1.2-0.1-1.2-0.3-2.3c1.9,0.1,3.6,0.4,5.3,0.7c-1-3.3-6.6-2-10-3
				C267.8,185.1,268.2,186.1,269.9,185.9z"/>
			<path class="st0" d="M237,185.6c-2.5-3.6-9.2,0.3-11.6,2C229.1,189,232,184.9,237,185.6z"/>
			<path class="st0" d="M279.9,185.6c-0.2,2.1,1.7,2,3.7,2C283.2,186,281.9,185.5,279.9,185.6z"/>
			<path class="st0" d="M293.2,191.5c1.3,0.2,1-1.2,1.7-1.7c4.2,0.1,6.3,2.1,8.6,4c-2.1-6.6-11.7-5.7-18.6-7.6
				C286.2,189.5,292,188.1,293.2,191.5z"/>
			<path class="st0" d="M214.1,188.9c1.4-1,3-0.6,4.3-2c-4.7-0.4-7.7,2.4-8,5.3C212.6,192.2,212.8,189.9,214.1,188.9z"/>
			<path class="st0" d="M224.1,189.6c-1.4-2.9-6,1.4-5.3,3.7C220.9,192.3,221.7,190.2,224.1,189.6z"/>
			<path class="st0" d="M511,195.9c0.4,0.7,1.6,0.6,2,1.3c5.6-1.9,11.9-3.1,15.3-7.3c0.1-0.7-0.2-0.9-0.3-1.3
				C523.4,192.2,517.3,194.2,511,195.9z"/>
			<path class="st0" d="M264.3,194.9c1.1-0.9-0.9-1.6-1-2.3c1-0.2,1,0.6,2,0.3c-3.4-4.5-12.8-3-19.9-3.7
				C248.8,194,261.6,189.3,264.3,194.9z"/>
			<path class="st0" d="M224.4,194.2c4.5,0.2,8.2-3.3,14.3-2.7c2.2,1.2,4.3,2.3,7.3,2.7C244,186.1,227.8,189.3,224.4,194.2z"/>
			<path class="st0" d="M316.7,194.5c-0.2-2.5-3.7-2.2-5.6-2.7c-2.3-0.5-4.6-1.1-6.6-1.3C306.5,193.9,312.7,193.1,316.7,194.5z"/>
			<path class="st0" d="M267.6,191.5c-0.1,1,0.7,1,0.7,2c3.3-0.2,4.8,1.4,6.6,2.7c0.3-0.9-0.5-0.9-0.3-1.7c1.5,0.7,3.9,0.5,5.3,1.3
				C279.5,192,271.5,192.9,267.6,191.5z"/>
			<path class="st0" d="M338.3,198.2c-5.3-2.3-12.1-3.1-18.6-4.3c2.2,4.2,11.6,1.2,13.9,5.3c0.9,0.1,1.1-0.5,1-1.3
				C336,197.8,336.7,198.4,338.3,198.2z"/>
			<path class="st0" d="M213.1,199.5c0.9-0.3-0.7-1.6,0.7-1.7c-1.5-1.1-2.4-2.7-4-3.6C208.2,196.2,211.7,198.4,213.1,199.5z"/>
			<path class="st0" d="M206.2,203.2c-0.5-3.8-3.7-5-4-9c-0.5-0.1-0.6,0.3-1,0.3C200.1,198.8,203.5,201.5,206.2,203.2z"/>
			<path class="st0" d="M241.7,197.2c12.1,0.3,21.9,1.5,32.2,3c-5.7-2.8-14.9-4-24.2-4C247,196.2,243.6,195.4,241.7,197.2z"/>
			<path class="st0" d="M510,198.2c-5.7-1.8-12.5,3-18.9,3.7c3,2.8,8.9-0.9,12.6-1.7c1,1.3,4,1.2,5.6,1c0.3-0.8,0.6-1.9-0.7-2
				C508.7,198.5,509.5,198.5,510,198.2z"/>
			<path class="st0" d="M337.3,199.8c5,2.1,12.4,1.8,15.9,5.3c0.4-0.3,0.1-1.2,1-1c-3.5-3.3-11-3.1-16.6-5
				C337.3,199.3,336.8,199.8,337.3,199.8z"/>
			<path class="st0" d="M303.4,199.2c-1,2.4,5.8,2.6,9,3c1.3,0.6,0.9,2.8,3,2.7c0.4-0.4,0.4-1.2,0.3-2c3.2,0,6.6,1.2,9.3,0.7
				c-2.9-2.3-9.5-0.9-12-3.7C310.4,201.3,306.5,199.4,303.4,199.2z"/>
			<path class="st0" d="M487.4,205.2c0.2-0.8,1.9-0.1,1.7-1.3c-5.3-1.3-10.6,2.8-16.3,3.3c3.3,1,6.8-1.1,10-1c2.5,0.1,4.3,2.1,6.6,1
				C489.6,205.6,488.7,205.2,487.4,205.2z"/>
			<path class="st0" d="M208.8,205.2c1.5,0.2,2,1.4,3.7,1.3c0,2.1-0.4,4.5,2,4.3c0-1.2-0.3-2.1-0.7-3c0.3-0.9,1.4,0.1,2,0
				c-1-2.8-5-2.6-6.6-4.6C208.4,203.2,209,204.6,208.8,205.2z"/>
			<path class="st0" d="M398.1,213.5c1,0.2,0.3-1.5,1-1.7c1.4,0,3.5,0.9,4.6,0c-1.7-1.4-6.1-0.1-7.3-2c-1.2-0.5-0.2,1.1-1,1
				c-4.2-0.8-9.8-0.1-12.6-2.3c-8.8,0.9-19.3-3.7-27.6-4.3c11.7,4.3,25.9,6.2,40.5,7.6C396.9,211.9,397.2,213,398.1,213.5z"/>
			<path class="st0" d="M424,212.5c13.1,0,26.3-1.2,35.2-5.3c-4.2-0.5-8.6,1.4-13.3,2.3c-8.8,1.7-18.9,1.8-29.5,2
				C418.2,213.2,421.4,212.5,424,212.5z"/>
			<path class="st0" d="M194.5,206.8c-0.3,0-0.7,0-1,0c0.1,3.8,2.9,5.1,4.6,7.3C199.9,211.2,194.9,209.9,194.5,206.8z"/>
			<path class="st0" d="M468.8,208.1c-0.7-1.2-3.9-1.2-5.3-0.7C463.5,209.3,468.2,209.9,468.8,208.1z"/>
			<path class="st0" d="M465.5,214.8c5.7-1.6,11.6-3,16.3-5.6c-6.2-0.1-11.6,3.5-18.3,4C463.4,214.4,465.1,213.9,465.5,214.8z"/>
			<path class="st0" d="M225.1,212.1c0.8-2.4-3.1-2.9-5.6-3C220.5,211,223.4,210.9,225.1,212.1z"/>
			<path class="st0" d="M409,212.1c1.1,1.7,1.3,4.2,4,4.3c0.9-1.5-0.2-3.5-1.7-3.6c0.1-0.7,1.6-0.1,2.3-0.3
				c-1.1-1.9-4.9-1.1-7.6-1.3C405.8,212.7,407.9,212,409,212.1z"/>
			<path class="st0" d="M228.7,215.4c1.4,0.3,1.4-0.8,1.3-2c4.3,0.9,8.4,2,13.3,2.3c0.6,1.2,0.1,3.4,2,3.3c0.6-7.8-12.1-5.2-17.6-8
				C228.8,212.1,228.6,214.5,228.7,215.4z"/>
			<path class="st0" d="M360.5,226.7c-9.5-10.9-29.1-13.4-47.1-14.6c8.3,2.5,17.5,2.9,25.9,5C347.6,219.1,354.6,222.7,360.5,226.7z"
				/>
			<path class="st0" d="M447.2,215.8c0.9,2.5,3.5,0.7,5.3,1c2.4,0.3,4.4,3,6.6,2c0.3-1.6-0.6-2.1-1.7-2.3c0.9-0.8,2.8-0.5,4-1
				C458.5,212.6,451.6,215.8,447.2,215.8z"/>
			<path class="st0" d="M206.8,221.1c-0.3-2.1-2.1-2.8-2-5.3c-1.6,0.1-4.1-3.5-3.7,0.3c1.4,0.2,1.9,1.2,3.3,1.3
				C204.3,219.6,204.6,221.3,206.8,221.1z"/>
			<path class="st0" d="M377.5,216.4c2.4-0.1,1.6,3,4,3c0.7-0.7,0-1.7-0.3-2.3c1.7-0.3,4.7,0.7,5.3-0.7c-1.9-1.8-6.4-1.1-9.3-2
				C377.5,214.8,377.5,215.6,377.5,216.4z"/>
			<path class="st0" d="M259.3,218.1c0,0.7,0.1,4.2,2,3c0.6-1.2-0.4-2.1-1-3c1.1,0.1,1.9,0.5,3.3,0.3c-1.1-2.6-4.8-1.9-7.6-2.3
				c-2.9-0.4-6-1.3-8.6-1.3c-0.4,0.1-0.6-0.1-0.7-0.3C247,218.2,255.6,216.6,259.3,218.1z"/>
			<path class="st0" d="M434.9,217.1c1.9,1.8,4.1,1.8,6.6,3.3c0.6-1.1-0.2-1.5-0.7-2.3c1.5-0.1,2.6-0.5,4.3-0.3
				C443.8,214.3,438.3,217.5,434.9,217.1z"/>
			<path class="st0" d="M220.8,221.8c-5.3-0.4-8.4-2.9-12.3-4.6c0.1,3.5,5.9,4.1,9.3,5.3c0.6,0.6,0.1,2.3,1.3,2.3
				c1.5,0.7,0.6-2.7,1.7-1.3C221.7,223.1,220.3,222.6,220.8,221.8z"/>
			<path class="st0" d="M418.3,218.4c0.6,1.1,1.5,2,3.7,1.7c2,0.7,2.7,2.8,5,3.3c1.2-1.7-0.7-2.7-1.3-3.7c2.8,0,5.1-0.4,7.6-0.7
				C430.8,215.7,423.5,219.2,418.3,218.4z"/>
			<path class="st0" d="M272.9,219.4c0.7,0.8,0,3.1,2,2.7c0.2-2-1.3-2.3-1.3-4c-2.3-0.4-5-0.6-7.6-0.7
				C266.3,220,270.4,219,272.9,219.4z"/>
			<path class="st0" d="M287.5,220.1c0.1-1.9-3-1.6-4.6-1.7c-2.3-0.1-4.9,0.1-6.6-0.3C277.1,221.4,284.9,219.6,287.5,220.1z"/>
			<path class="st0" d="M394.7,218.8c1.9,2.3,7.1,1.4,11,1.7C404.8,217.3,398,218.6,394.7,218.8z"/>
			<path class="st0" d="M408,218.8c1,1.4,0.1,4.5,3,4c0.4-1,0.3-1.7-0.3-2.3c1.7,0,3.3,0,5,0C415.5,217.5,410.7,219.2,408,218.8z"/>
			<path class="st0" d="M291.8,221.8c1,0.3,0.6-0.7,0.7-1.3c4.4,0.8,11.2-0.8,13.3,2.3c0.2-1.1-0.6-1,0-1.7c0.8,0.3,1.8,0.4,3,0.3
				c-0.3-2.1-2.4-1.4-4-1.7c-4.5-0.6-11.1-0.8-14.9-0.7C289.1,221.3,292.6,219.4,291.8,221.8z"/>
			<path class="st0" d="M314.4,222.1c0.7,0.9,0.4,2.7,2,2.7c0.4-0.9,0.1-1.4-0.3-2.3c3.4,0.6,6.8,1.2,9.6,2.3
				c0.6-2.1-2.7-1.8-4.6-2.3c-3-0.8-6-2-10-2C311.3,221.8,312.8,222,314.4,222.1z"/>
			<path class="st0" d="M194.2,221.4c0.1,1.5,0.7,2.4,2,2.7c-0.7-0.5,0-2.5-0.7-3C194.8,221,194.7,221.3,194.2,221.4z"/>
			<path class="st0" d="M223.4,222.4c1.4,3.4,7.5,2,10.6,3.7c0.7,0.7,0.4,2.5,2.3,2c0-1.7-0.7-2.6-1.3-3.7
				C230.7,224.2,227.4,223,223.4,222.4z"/>
			<path class="st0" d="M205.2,225.7c0.1,1.1-0.4,1.6-1.3,1.7c-1.8-1-2.1-3.5-5-3.3c-0.4,3.3,2.9,2.9,5,3.7c-0.8,1.7-0.3,4.7,2,4.3
				c0.9-1.2,0-3-0.7-3.7c2.3,0.1,3.9,1,6.3,1c-0.4,1.5-0.8,4.1,1.7,3.7c0.9-1.1-0.1-2.6-0.7-3.3c3.2,0.4,6.2,0.9,8.3,2.3
				c0.7-0.9-1-2.4-1-3.7C214.7,227.7,209.9,226.8,205.2,225.7z"/>
			<path class="st0" d="M328.7,224.4c0.7,1.9,3.4,1.9,5.3,2.7C333.3,225.1,330.7,225,328.7,224.4z"/>
			<path class="st0" d="M238,225.1c0.8,3.3,6.3,1.9,9.6,2.7C246.6,224.7,241,226.3,238,225.1z"/>
			<path class="st0" d="M372.2,228.4c0.2-1.4-0.6-1.9-1-2.7C369.8,225.9,370.3,229.3,372.2,228.4z"/>
			<path class="st0" d="M380.8,226.1c-0.3,0-0.7,0-1,0c0.4,3.2-0.7,4.8-0.7,7.6C381.6,233.1,382.1,228.4,380.8,226.1z"/>
			<path class="st0" d="M257,228.4c-0.3-2.9-5.1-1.3-7.6-2c0,1.4,1.3,1.6,1.3,3C251.2,226.7,254.6,228.9,257,228.4z"/>
			<path class="st0" d="M269.6,227.4c-3.1-0.4-7.2-0.2-10.3-0.3c1.7,3.2,10.8,1.3,13.9,2C273.3,227.2,270.8,227.5,269.6,227.4z"/>
			<path class="st0" d="M280.9,229.7c0.1,0.8-0.4,4.4,2,4c0.7-0.9,0.2-2.7-0.3-3.3c0.1-0.5,0.8-0.3,1.3-0.3c-0.6-2.8-5.1-1.7-8.3-2
				C275.8,230.1,278.6,229.6,280.9,229.7z"/>
			<path class="st0" d="M300.1,229.1c0.1,3,5,1.2,7.6,1.7c1.2,0.4,0.7,2.6,2.7,2.3c0.5-1.1-1-2.9-1.3-4.3
				C307.2,229.8,302.5,229.5,300.1,229.1z"/>
			<path class="st0" d="M295.1,230.4c1.7,0,0.7,2.6,3,2c0.5-5.8-7.2-2.6-12-3.7C286.8,231.6,292.1,229.9,295.1,230.4z"/>
			<path class="st0" d="M266.3,229.1c-0.5-0.1-0.6,0.3-1,0.3c0,1.4,0,2.6,1.3,2.7C267.3,231.3,266.9,229.5,266.3,229.1z"/>
			<path class="st0" d="M322.7,230.4c0,0.3,0,0.7,0,1c-3.7-0.3-7.6-2.1-11.3-1.3c2.3,2.1,7.7,1.1,11,2.3c0.9,0.5,0.5,2.4,1.7,2.7
				s0.6-1.8,0.3-2c2.1,0,3.2,1,5,1.3C328,232.2,323.9,232.7,322.7,230.4z"/>
			<path class="st0" d="M371.5,230.4c-3.1,0.4-5.7,3.4-8.3,5.3C367.8,236.8,369.9,233.3,371.5,230.4z"/>
			<path class="st0" d="M233.1,233.7c-3.2-0.7-5.9-1.8-9.3-2.3c0,0.3,0,0.7,0,1c0.8,1.6,3.4,1.3,5,2c0,1.8-0.1,3.7,2,3.3
				c0.5-0.5,0.5-2.2,0-2.7c1.2,0,1.9,0.5,3,0.7C233.5,235,232.9,234.8,233.1,233.7z"/>
			<path class="st0" d="M237,234.7c-1.6,0.1,0.3,1.2,0,2c2.5,0.5,4.9,1.1,7.3,1.7c0.7,0.3,0.1,1.9,1,2c2.2,0,1.5-2.2,1-3.3
				C243.2,236.3,239.8,235.8,237,234.7z"/>
			<path class="st0" d="M384.1,237c0.9-2.8-3.5-2.3-4.3-1.3C379.9,237.4,382.7,237.7,384.1,237z"/>
			<path class="st0" d="M359.6,239.7c1.4-0.3,2.4-1.2,3.7-1.7c-1.7-1.5-4.8-0.9-6.3,0.3C357.4,239.1,358.8,239.1,359.6,239.7z"/>
			<path class="st0" d="M249.3,237.7c0.6,2.9,5,2.1,8,2.7c1.1,0.5,1,2.1,2,2.7c2.1,0.1,0.2-2.4,2-2
				C260,236.8,253.5,239.4,249.3,237.7z"/>
			<path class="st0" d="M291.2,239.7c-1.7,0-3.5,0.4-4.6,0.7c0.8,1.6,3.9,0.8,4,3c1.1,0,1.5-0.8,1.3-2c1.2-0.2,3.3,0.4,4-0.3
				C295.5,239.6,292.6,239.7,291.2,239.7z"/>
			<path class="st0" d="M263.6,239.7c1,2.8,5.9,1.6,9.3,2C271.8,239,266.5,240.5,263.6,239.7z"/>
			<path class="st0" d="M356.2,241.3c-4.8-2.9-12,1.4-16.6,3C345.4,246.2,351.4,242.6,356.2,241.3z"/>
			<path class="st0" d="M298.1,240.3c1.3,1.9,5.3,1.1,8,1.7c-0.7,1-1.2,3.5,1,3.3c0.9-1.4-0.3-3.1-0.7-4.3
				C303.9,240.8,300.7,239.5,298.1,240.3z"/>
			<path class="st0" d="M277.9,244.3c0.5-0.5,0.3-1.7,0.3-2.7c2,0,4,0,6,0c0.3-0.9-0.5-0.9-0.3-1.7c-2.3,0.7-5.8,0.2-8.6,0.3
				C276.2,241.5,275.6,244.4,277.9,244.3z"/>
			<path class="st0" d="M375.2,240.7c-1.5-0.9-2.6,1.4-4,1.7C372.4,244.5,374.1,241.6,375.2,240.7z"/>
			<path class="st0" d="M314.4,243.7c-1.3-1.3-3.2-1.9-5.6-2C309.5,243.5,312.4,243.1,314.4,243.7z"/>
			<path class="st0" d="M362.9,247c2.5,2.6,5.2-1.7,7.6-2.3C368.1,242.3,365.7,246.7,362.9,247z"/>
			<path class="st0" d="M391.8,246c-1.5,0.8-1.3,4.8-1.3,6C392.2,251.2,392.2,247.9,391.8,246z"/>
			<path class="st0" d="M380.8,250.6c2.2-0.1,3.8,1.8,6,0.7c-0.2-1.8-2-2-3.6-2.3c0-1.4,1.3-1.6,1.3-3c-1.5,0.7-1.6,2.8-4.3,2.3
				c0.3,2-2.6,2.3-2,3.7C379.8,252.3,379.8,251,380.8,250.6z"/>
			<path class="st0" d="M349.9,252c1.3,2.7,5.2,0.9,8,2.3c0.3-1.4-0.5-1.7-1.3-2c1.8-1,3.6-1.9,5.6-2.7
				C359,246.6,354.5,252.2,349.9,252z"/>
			<path class="st0" d="M376.5,253c-2.9-0.3-5.3,2.7-8.3,3.3C370.9,258.5,375.8,254.7,376.5,253z"/>
			<path class="st0" d="M349.9,254.6c-2.2-4.1-7.9,0.8-11.9,1C340.8,259.2,345.9,254.9,349.9,254.6z"/>
			<path class="st0" d="M391.8,257.6c-0.3-1.1-0.9-2-2.3-2C389.8,256.7,390.4,257.6,391.8,257.6z"/>
			<path class="st0" d="M373.8,256.3c0.3,0.8,1.2,1,1.7,1.7C376.6,257.1,374.6,256.4,373.8,256.3z"/>
			<path class="st0" d="M364.9,258.3c1.5,0.2,2.5,1.1,3.6,0c-0.1-0.6-1-0.6-0.7-1.7C366.9,257.2,365.1,257,364.9,258.3z"/>
			<path class="st0" d="M313.7,263.9c4.9-0.1,8.6-1.3,12.6-2.3c1.4,0.4,2.9,2.3,4.3,1.7c0.2-1.4-0.9-1.5-1.7-2
				c2.2-1.4,5.5-1.6,8-2.7c-0.5-0.4-1.5-1.9-2.7-1.7c-5.7,1.3-15,4.4-21.9,5C312.6,262.8,313.8,262.8,313.7,263.9z"/>
			<path class="st0" d="M381.5,261.6c0.5,4-6.7,5-9,8.3c2.2,1.7,2.2-1.5,4-1.7c0.4,0,1,0.9,1.3,1c2.2,1,5.8,2,8,1
				c-1.4-2-4.8-2-7.3-3c1.1-1.6,3.3-2,4.3-3.7c0.6,0.3,0.8,0.9,2,0.7c-0.8-2.5,1.8-3.7,3.3-5.6C385.8,258.2,385.3,262.5,381.5,261.6
				z"/>
			<path class="st0" d="M347.6,264.9c-0.1,1.3,1.5,0.9,1.7,2c3.9-1.8,8.1-3.2,11.6-5.3c2.7,0.4,3.7,2.4,6.6,2.7
				C364.1,254.6,354.8,263.5,347.6,264.9z"/>
			<path class="st0" d="M249,261.9c-0.6-1.8-3.9-1.4-5.3-0.7C245,261.9,247.5,263.5,249,261.9z"/>
			<path class="st0" d="M296.8,265.6c3.8,0.3,7.8-1.4,11-0.7c2.2,0.5,2.6,3.3,5,3c0.2-1.9-0.7-2.6-2-3c0.1-0.4,0.6-0.3,1-0.3
				c-0.1-1.2-1.2-1.3-1.3-2.3c-6,0-11,1-17.3,0.7C293.9,264.2,295.6,264.6,296.8,265.6z"/>
			<path class="st0" d="M232.4,267.6c3.8-0.7,6.1-3,10-3.7C239.2,261.4,233.3,263.9,232.4,267.6z"/>
			<path class="st0" d="M287.5,265.9c2.2,1,4.8,4,7.3,2.7c-0.3-2.1-3.3-2-3-3.7c-3.6-3.1-11.4-0.9-16.9-1c0.5,0.9,1.4,1.3,1.7,2.3
				C280.3,266.2,283.5,265.7,287.5,265.9z"/>
			<path class="st0" d="M270.6,267.2c1.8,0.2,2.4,2,4.3,1.7c-0.2-7.8-14.4-2.5-19.3-0.3C259.5,271.2,265.8,266.6,270.6,267.2z"/>
			<path class="st0" d="M339.6,270.2c1.9-0.6,4-1.1,5.6-2c2,1.2,2.9,3.5,5.6,4c0.2-2.7-4.2-3.5-5-6.3c-3.1,0.4-5.4,1.7-8.3,2.3
				C338.2,269,338.8,269.7,339.6,270.2z"/>
			<path class="st0" d="M219.4,269.9c1.2-1.3,2.5-1.2,4-2.3c-6.1-2.3-9.8,7-7.6,12.9C217.9,277.4,217,272.6,219.4,269.9z"/>
			<path class="st0" d="M253,267.9c-3.9-1-8.6,0-12,0.7C243.1,271.6,249.6,268.6,253,267.9z"/>
			<path class="st0" d="M337,270.2c-2.6-2.9-7.4,0.7-11.6,0.3c0.2,1.2,1.2,1.7,2,2.3c4.6-1.3,8-1,10.6,1.7c0.8-1.2-0.8-2.4-1.7-3
				C336.3,270.9,337.2,271.1,337,270.2z"/>
			<path class="st0" d="M227.7,278.9c3.7-2.8,7-6,11.9-7.6C234.9,269.1,228,274.4,227.7,278.9z"/>
			<path class="st0" d="M371.8,271.2c-2.8-1.7-4.3,2.5-8.3,1.7c-0.4,1-0.9,1.7-2.3,1.7c-0.1,0.9,0.9,0.8,1.3,1.3
				c3.4-2.2,6.9,2.6,10,0.7c-0.4-1.9-2.6-2.1-4.3-2.7C368.9,272.5,371.3,272.8,371.8,271.2z"/>
			<path class="st0" d="M322.4,271.2c-16.6,4.5-37.8,4-58.1,4c4.2,2,10.5,2,16.3,2.3c1.7,0.1,5,0.6,7.6,0.3c1.7,1.5,2.5,3.9,5.6,4
				c-0.1-2.3-2.6-2.2-3.3-4c3.9-0.1,8.3,0.3,11.3-0.7c2.3,0.6,2.3,3.5,5.3,3.3c-0.1-2-2-2.2-2.7-3.7c3.5,0,5.9-1.8,8.6-1.3
				c3,0.5,4.3,4.4,7.6,4.3c-0.3-2.6-2.3-3.4-4-4.6c1.8-1.2,5-1,7.3-1.7C325.4,273.3,322.9,271.8,322.4,271.2z"/>
			<path class="st0" d="M200.5,274.2c0.5,0.5-0.5,2.7,0.3,3.7c1.9-0.5,1.7-3.2,2.7-4.6c-2-0.9-6.6-0.9-5.6,1.7
				C199.1,275,199.5,274.3,200.5,274.2z"/>
			<path class="st0" d="M383.1,277.2c2,0.3,3.4-2.4,4.3-4.3C385.6,273.9,384.2,275.4,383.1,277.2z"/>
			<path class="st0" d="M386.4,275.9c0.2,1.6,3,1.5,4,1.3c-0.1-0.4,0.1-0.6,0.3-0.7C390.8,275,387.1,274.6,386.4,275.9z"/>
			<path class="st0" d="M350.3,281.2c3.3-3.4,7.5,1.9,10-0.3c-0.3-1.4-1.6-1.8-3-2c0.4-1.4,2.9-0.7,3-2.3c-3.9-1.4-7.6,2.4-11.6,3
				C348.7,280.5,350,280.3,350.3,281.2z"/>
			<path class="st0" d="M260.9,276.5c-4.3-1-8.8,0.4-12.6,1c0.2,1,1.3,1.1,1.7,2c2.2-0.7,3.2-0.6,5,0.3c0.6-0.6,0-0.8,0-1.7
				C257.1,277.7,259.9,278,260.9,276.5z"/>
			<path class="st0" d="M28.6,286.6c1.8,0.9,3.7,1.6,5.9,1.9c1,0.1,1.9-0.4,3-0.3c3.9,0.1,8.4,2,12.9,2.3c3.3,0.3,6.9,0.3,10.2,0.2
				c0.1-0.7,0.1-1.3,0.2-2c-8.6,0.1-17.2-0.8-24.7-2.8C33.6,286.1,31.1,286.3,28.6,286.6z"/>
			<path class="st0" d="M200.9,279.2c-0.4-1.6-3.2-0.8-5-1C195,280.8,200.3,280.1,200.9,279.2z"/>
			<path class="st0" d="M381.1,283.2c0.3-1.4-1.5-0.7-2-1.3c0.8-1.2,2.4-1.6,3-3c-3.3-0.3-5.7,2.8-8,4.7
				C375.7,284,379.2,284.2,381.1,283.2z"/>
			<path class="st0" d="M280.5,282.2c-0.6-2.2-2.2-3.3-4.6-3.7C276.8,280.4,278.2,281.7,280.5,282.2z"/>
			<path class="st0" d="M233.7,286.5c4.9-1.6,7.8-5.3,13.6-6C244.6,276.3,234.2,282.1,233.7,286.5z"/>
			<path class="st0" d="M59.9,287.2c-5.9-0.8-11.7-1.4-17.6-1.5C46.1,287.6,54.6,289,59.9,287.2z"/>
			<path class="st0" d="M346.6,280.5c-5.3,0.8-9.8,2.4-14.9,3.3c0.9,0.6,1.4,1.4,2.3,2c4.7-1,9-2.5,13.6-3.7
				C347.8,281.1,346.7,281.3,346.6,280.5z"/>
			<path class="st0" d="M206.8,287.8c-0.4-2.4-1.8-3.7-3.7-4.6C201.7,285.1,204.1,288,206.8,287.8z"/>
			<path class="st0" d="M214.8,283.5c2.6,6.7,10.1,9.4,16.3,12.3c6.5,3.1,13.6,6,21.3,7.3c-13.1-5.7-27.7-9.9-36.9-19.6
				C215.2,283.5,215,283.5,214.8,283.5z"/>
			<path class="st0" d="M201.5,285.5c0.2-2-4.9-1.7-5.6-0.7C196.6,287,199.4,285,201.5,285.5z"/>
			<path class="st0" d="M371.5,286.8c0.7,1.3,3,2,4.6,1.3c-1.5-1.7-3.5-1.4-4-3.7c-2.2,1.3-4.5,2.4-7,3.3
				C366.6,290.5,369.8,287.8,371.5,286.8z"/>
			<path class="st0" d="M349.3,285.8c-0.3-1.7-2.8-1.2-4.6-1.3C344.7,286.6,348.1,286.7,349.3,285.8z"/>
			<path class="st0" d="M323.7,287.8c3.9-1.7,5.8,1.2,10,1c0.1-1.8-1.4-1.9-3-2c1-3.2-5.8-2-9-1.3
				C321.9,286.7,322.9,287.2,323.7,287.8z"/>
			<path class="st0" d="M259.6,289.8c2.5-1.4,6-1.8,8.3-3.3C266.1,283.6,257.2,286.4,259.6,289.8z"/>
			<path class="st0" d="M319.4,286.2c-7,1.3-14,2.6-22.6,2.3c-1.4,0.3,1.2,1.8,1.7,2.3c7.9,0.6,14.1-2.1,19.3,1
				c0.3-1.7-1.3-1.3-1.7-2.3c1.4-0.6,3.1-0.9,5-1C322,287.3,319.6,287.3,319.4,286.2z"/>
			<path class="st0" d="M279.9,288.2c-0.1,1.1,0.6,1.4,0.3,2.7c5.1,0,10.2,0,15.3,0c-0.4-0.8-1.3-1.1-1.3-2.3
				C289.1,288.7,285,287.9,279.9,288.2z"/>
			<path class="st0" d="M271.6,290.5c2.2,1,4.6-0.4,7.3,0C277.7,287.9,273.1,288.3,271.6,290.5z"/>
			<path class="st0" d="M364.2,292.5c0.2-1.3-0.7-1.5-1.7-1.7c0.1-0.6,1.1-0.2,1.3-0.7c-2.5-3-7.4,0.9-11.3,0.7
				C355.4,293.2,360.2,291.9,364.2,292.5z"/>
			<path class="st0" d="M191.9,289.2c-2.6,0.5-3.9,2.3-4.3,5C189.9,293.3,191.2,291.6,191.9,289.2z"/>
			<path class="st0" d="M211.1,289.8c-2.6,0.3-4.6,1.1-6,2.7C207,294,210.7,291.9,211.1,289.8z"/>
			<path class="st0" d="M371.2,293.8c1.9,2.5,4.2-1,5.6-2C374.7,290.9,373.3,293.6,371.2,293.8z"/>
			<path class="st0" d="M343.3,292.1c-0.7,0.9,1,1.7,1.7,2.3c2.3-0.3,4.2-0.9,6.6-1C350,290.8,346.8,291.9,343.3,292.1z"/>
			<path class="st0" d="M301.5,291.5c0.3,1.4,2.1,1.2,3.3,1.7C304,292.2,302.9,291.7,301.5,291.5z"/>
			<path class="st0" d="M219.8,295.1c-1.4-1-3.1-1.8-4-3.3c-0.9-0.2-0.7,0.7-1.3,0.7c0.1,1,0.6,1.6,1.3,2c-0.5,1.2-2.9,0.4-2.3,2.7
				C216.1,297,217.8,295.9,219.8,295.1z"/>
			<path class="st0" d="M30.9,293.1c0.3,2.5,3.2,2.3,5.6,2.7c-2.9,2.9-9.2-1.6-12.9,0.3c-3.3-1.3-7.1-3.7-10.6-3.7
				c2.8,5.3,8.9,7.3,14.9,9.3c1.2,0.4,1.1-0.7,1.7-1c8,2.2,19.8,5,30.2,4.3c0-0.6,0-1.1,0-1.7c-4.4,0.1-8.9,0.1-12.6-0.6
				c4.2-0.7,9.5-0.2,12.7-1.9c0.1-1.6,0.2-3.2,0.3-4.8C50.3,295.5,40.3,291.9,30.9,293.1z"/>
			<path class="st0" d="M339,295.5c1.7,0.2,2.6,2.4,4.3,1.3c-1.6-5.7-8-3-13.6-2.3c0,1,0.9,1.1,1,2
				C333.8,296.9,336.5,295.1,339,295.5z"/>
			<path class="st0" d="M196.9,294.5c-2,0.7-4.2,1.1-4.6,3.3C193.9,299.3,198,296.8,196.9,294.5z"/>
			<path class="st0" d="M359.2,297.8c0.7,2.1,2.9,2.6,5.3,3c0.4-1,0.2-1.5-1-1.7c2.1-1.2,4.7-1.9,7-3
				C367.9,293.3,363.3,297.8,359.2,297.8z"/>
			<path class="st0" d="M322.4,297.1c1.8,0.5,4.2,0.5,6.3,0.7C329,293.8,323.5,295.2,322.4,297.1z"/>
			<path class="st0" d="M301.1,300.1c2.8,1.3,9-1,9.6-3C307.6,296.9,302.9,297.9,301.1,300.1z"/>
			<path class="st0" d="M345.3,300.8c0.5,0.8,1.2,1.5,2,2c2.9-0.5,5.9-1.6,8.3,0c0.2-0.9-0.7-0.7-0.7-1.3c0.6-0.7,2-0.6,3-1
				C355.9,296.6,349.5,300.7,345.3,300.8z"/>
			<path class="st0" d="M222.4,299.8c0.8,1.6,6.4,1.1,7-0.7C227.6,298.3,223.4,297.9,222.4,299.8z"/>
			<path class="st0" d="M336.3,303.4c2,1.7,5.7-0.2,8.3,0C343.4,300.1,338.7,302.3,336.3,303.4z"/>
			<path class="st0" d="M203.5,302.1c-2.2-0.5-5.1,0.8-6,2.7C199.3,306,203,304.3,203.5,302.1z"/>
			<path class="st0" d="M188.9,301.8c-2.9-0.1-4.7,2.6-4.3,4.7C186.8,305.7,188.1,303.9,188.9,301.8z"/>
			<path class="st0" d="M231.7,306.1c2.5,0.4,5.7-1.1,7.6-2.3C237.5,301.6,232.1,303.6,231.7,306.1z"/>
			<path class="st0" d="M267.6,306.1c-2.4-0.5-5.5-2.5-7.3-0.3c9.8,2.2,21.3,4.6,31.2,5.6C285.3,308.1,275.7,307.9,267.6,306.1z"/>
			<path class="st0" d="M248.3,306.8c1.4,0,2.3,1.7,3.3,1c-0.4-4.8-10-1.5-11,2C243.7,310.5,246.1,307.9,248.3,306.8z"/>
			<path class="st0" d="M193.5,305.1c-2.2,0.9-3.6,2.6-4.3,5C191.7,310.9,194.5,307.6,193.5,305.1z"/>
			<path class="st0" d="M211.1,308.7c2,0.5,4.6-1.1,5-3.3C213.6,305.7,212.1,306.9,211.1,308.7z"/>
			<path class="st0" d="M215.8,312.1c2.3,1.6,6.3-0.7,8-2c0-0.3,0-0.7,0-1C221.6,309,216.3,310.5,215.8,312.1z"/>
			<path class="st0" d="M252.6,313.7c3.1-0.3,4.6-2,6.3-3.7C256.7,308.7,252.2,311.4,252.6,313.7z"/>
			<path class="st0" d="M265.6,312.7c-0.3-2.4-4.4-3.6-6.3-2.3C260.7,311.6,263.6,313.1,265.6,312.7z"/>
			<path class="st0" d="M199.9,311.1c-2.1,0-4.7,2.1-5.6,4.3c2.5,1.7,4.9-1.8,6-3.7C200.2,311.3,200.1,311.1,199.9,311.1z"/>
			<path class="st0" d="M204.5,311.7c2.2,1.8,5.5,4.2,8.6,4C211.4,313.7,207.3,310.5,204.5,311.7z"/>
			<path class="st0" d="M274.2,313.7c-1.4-3.9-6-0.7-6.6,2C270.8,317.3,271.4,312.5,274.2,313.7z"/>
			<path class="st0" d="M186.2,312.1c0.7,1.9,2.5,4.3,4.6,3.7C190.3,313.6,188.1,311.8,186.2,312.1z"/>
			<path class="st0" d="M326,321.7c-7.9-4.2-17.9-9.7-28.6-9c4.6,2.1,9.8,2.8,14.6,4.3C316.9,318.6,321.5,320.1,326,321.7z"/>
			<path class="st0" d="M277.5,318c1.7,0.5,3.6-0.9,4.6-2c1.3,0.8,6.5,2.2,7-0.3C285.7,314.3,278.4,314,277.5,318z"/>
			<path class="st0" d="M236,315.1c-3.4-0.5-6.9,1.7-9.3,3.3C229.4,320.6,234.8,317.5,236,315.1z"/>
			<path class="st0" d="M193.5,316.7c-0.2,1.5,0.8,1.9,2,2C195.5,317.4,194.9,316.7,193.5,316.7z"/>
			<path class="st0" d="M249,317c-4.5,0.3-7.6,1.9-9.3,5c4,0.9,6-3.1,9.6-3.7C249.4,317.8,248.9,317.7,249,317z"/>
			<path class="st0" d="M186.2,321.4c2,1.8,4.6-2.4,4-4.3C187.8,317.3,187.1,319.4,186.2,321.4z"/>
			<path class="st0" d="M300.1,318.7c1.4,0.5,2.7,1.1,4.6,1c-2.5-4.6-10.3-1.2-11.3,2.7C296.5,323.2,299.3,321.1,300.1,318.7z"/>
			<path class="st0" d="M203.2,321.7c2.3-0.9,5.1-1.3,5.3-4.3c-2.5,0.7-5.2,1.2-5.6,4c-1.2-0.4-1.7-1.6-3.7-1.3
				c2.3,4.8,9.2,6.7,14.3,7.6C212.1,323.6,206.1,324.1,203.2,321.7z"/>
			<path class="st0" d="M262.9,321c0.9,0.4-0.3,2.8,1.3,2.3c1.1-0.2,0.7-1.9,1-3c-2.6-2.6-12.9-2.7-13.6,1.7
				C255.2,321.5,258.9,319.9,262.9,321z"/>
			<path class="st0" d="M228.7,323.4c0.5,1.3-2.8,1.6-2.7,3.7c3.1,1.5,3.2-3.5,6-2.3c-2.8-2.4-7.2-4.9-11.3-5
				C222.3,321.9,225.9,323.5,228.7,323.4z"/>
			<path class="st0" d="M194.9,325.7c1.8-0.4,3.7-2.1,3-4C196.3,322.3,194.6,324.3,194.9,325.7z"/>
			<path class="st0" d="M306.8,327c3.5-0.2,5.5-1.8,6.6-4.3C310.8,322.5,307.6,324.4,306.8,327z"/>
			<path class="st0" d="M267.3,326.3c2.4,0.2,5.5-1.8,7.6-3C272.7,320.9,266.8,324.1,267.3,326.3z"/>
			<path class="st0" d="M215.5,326c1.9-0.5,3.3-1.5,4-3.3C217.4,321.6,214.3,323.9,215.5,326z"/>
			<path class="st0" d="M234.1,324.7c0.7,1.5,2.7,1.7,5,1.7C238.3,325,235.6,324,234.1,324.7z"/>
			<path class="st0" d="M277.2,330c3.5-0.1,5.3-2,6.3-4.6C281,325.2,277.9,327.2,277.2,330z"/>
			<path class="st0" d="M190.9,330c1.9-0.2,2.5-1.7,2.7-3.7C192.3,327.2,191.3,328.3,190.9,330z"/>
			<path class="st0" d="M245.7,327.3c1.2,1.9,4,2.2,6.6,2.7C252.4,327.2,247.7,325.9,245.7,327.3z"/>
			<path class="st0" d="M344.6,336.6c-0.1-2.7-4.8-3.8-6.3-2C339.2,336.5,342.2,336.2,344.6,336.6z"/>
			<path class="st0" d="M321.4,339c-0.5-3.1-5.4-3.4-8.3-3C314,338.6,318.8,339.1,321.4,339z"/>
			<path class="st0" d="M271.9,336.3c-1-0.2-1.2,0.3-2,0.3C270,337.3,272.4,338,271.9,336.3z"/>
			<path class="st0" d="M360.5,339c0.4-2.4-4.9-3.3-5.6-1.3C355.7,339,359.1,339.4,360.5,339z"/>
			<path class="st0" d="M289.8,341.3c0-0.3,0-0.7,0-1c-1.1-1.7-5.3-2-7-1C283.7,341.4,287.9,341.4,289.8,341.3z"/>
			<path class="st0" d="M271.6,341.3c-0.2-2.3-4.4-2.9-5.6-1.3C266.6,341.4,269.8,342,271.6,341.3z"/>
			<path class="st0" d="M378.1,343.9c1.6-1.9-0.8-4.5-3.7-4C374.9,342.1,376.2,343.4,378.1,343.9z"/>
			<path class="st0" d="M333.3,340.9c0.8,1.2,2.7,1.3,4.3,1.7C340.3,340.3,334.5,339.4,333.3,340.9z"/>
			<path class="st0" d="M248.7,344.3c-0.6-2.4-4-3.7-6.3-3.3C243.1,343.4,245.9,343.8,248.7,344.3z"/>
			<path class="st0" d="M229.4,345.3c1.7,0.6,2.6,2.7,4,2c-0.7-2.7-3.2-3.4-3.7-6.3c-1.4,0,0.2,1.8,0,2.7c-1.6-0.3-3.7-1.2-5,0
				C225.3,345.5,227.9,344.7,229.4,345.3z"/>
			<path class="st0" d="M310.8,345.6c-1.4-2-3.3-3.3-6.6-3.3C304.9,344.6,308.7,345.6,310.8,345.6z"/>
			<path class="st0" d="M201.5,342.6c2.1,2.2,6,2.7,9,4C209.8,343.1,205.2,342,201.5,342.6z"/>
			<path class="st0" d="M372.5,348.9c1.5-3.4-2.2-7.3-4.6-5.6C369.6,345,369.9,348.1,372.5,348.9z"/>
			<path class="st0" d="M326,346.6c0.1-2.6-2.4-4.1-4.6-3.3C322.2,345.1,323.8,346.1,326,346.6z"/>
			<path class="st0" d="M344.3,345.6c-2.4,0.6-4.2,1.7-4.6,4.3c2.6,0.8,3.9-2.2,6-3c1.7,0.1,1.4,2.1,3.3,2c0.4-2.5-2.2-4.9-5.3-5
				C343.6,344.8,344.1,345,344.3,345.6z"/>
			<path class="st0" d="M262.6,348.6c-0.7-2.5-2.8-4.7-5.6-4C258.2,346.5,260.2,347.8,262.6,348.6z"/>
			<path class="st0" d="M358.2,345.9c-0.2,0.8-0.7,1.7,0,2.3c1.2,0.2,0.8-1.2,2-1c1.6,0.5,2.3,1.9,4.3,2
				C363.9,346.8,361.2,345,358.2,345.9z"/>
			<path class="st0" d="M358.6,351.6c0.8-2.8-2.9-5.7-5.6-5C354.2,348.9,356,350.5,358.6,351.6z"/>
			<path class="st0" d="M316.7,350.2c-0.1-2.1-4.1-4.7-5-2C312.6,349.6,315.1,351.8,316.7,350.2z"/>
			<path class="st0" d="M287.2,350.2c2.2-0.5,3.9-1.4,4.6-3.3C289.1,346.9,287,347.4,287.2,350.2z"/>
			<path class="st0" d="M300.5,351.2c1.1,0.7,0.8,2.7,2.7,2.7c-0.1-4.7-4.5-7-9-6.3C295.3,349.8,298.6,349.8,300.5,351.2z"/>
			<path class="st0" d="M266.9,349.6c1.5,0.7,4-1.2,6,0c1.1,1.2,0.6,4,3,4c1.1-1.9-1.3-2.8-1-5C273,347.7,267.4,346.4,266.9,349.6z"
				/>
			<path class="st0" d="M180.6,351.2c2.1,1.3,2.4,4.5,5.3,5c-0.5-4.4-4.4-5.6-6.3-8.6c-0.5-0.1-0.6,0.3-1,0.3c0,1,0.7,1.3,1,2
				c-2.9,1.4-6,4.2-6.3,7C177,356.3,177.4,352.4,180.6,351.2z"/>
			<path class="st0" d="M333.7,354.2c1.3-3.8-2.9-4.8-5-6.3C327.7,350.1,330.9,353.6,333.7,354.2z"/>
			<path class="st0" d="M254,350.2c2.5,0,2.7,2.1,5,3.3c0.2-6.6-9.7-6.4-11-1.3C250.5,353.6,251.9,350.3,254,350.2z"/>
			<path class="st0" d="M264.9,354.6c-0.3-2.1-0.2-4.4-2-5C262.3,351.4,262.2,355,264.9,354.6z"/>
			<path class="st0" d="M196.5,349.9c-3.4-0.3-6.5,2.6-8,5.3C192.5,354.7,194.8,352.6,196.5,349.9z"/>
			<path class="st0" d="M210.5,351.9c2,1.7,2.1,5.2,5,6c1-3.4-2.6-5.1-3.7-7.6c-3.6,0.5-6.2,2-8.3,4
				C205.8,355.9,208.2,352.4,210.5,351.9z"/>
			<path class="st0" d="M232.4,354.2c2.1,1.1,3.3-1.3,5-1.7c2.6,0.6,2.7,5.2,5.6,4.3C243,351.5,234.3,348.5,232.4,354.2z"/>
			<path class="st0" d="M201.2,355.6c-0.3-2.7-1.5-4.5-4.3-4.6C197.6,353.1,199.4,354.4,201.2,355.6z"/>
			<path class="st0" d="M166.7,355.2c2-1.8-1.2-4.9-3-4C163.9,353.3,166.1,353.5,166.7,355.2z"/>
			<path class="st0" d="M380.1,351.2c-1.9,0.8-0.2,4.3,0.7,5.3C382.3,355.4,381,352.2,380.1,351.2z"/>
			<path class="st0" d="M161.7,351.9c-2,1.1-5,2.9-4.6,5.3C159.4,356.3,160.6,354.2,161.7,351.9z"/>
			<path class="st0" d="M202.5,352.2c-1.5,1.5-1.2,6.5-0.7,9C203.9,359.9,203.3,354.5,202.5,352.2z"/>
			<path class="st0" d="M151.1,359.2c0-3.5-2.5-4.6-4-6.6c-0.4,0.1-0.5,0.6-1,0.7C147.4,355.5,148.2,358.5,151.1,359.2z"/>
			<path class="st0" d="M228.4,353.6c-2.8,0.2-4.6,3.1-4,5.6C226.8,358.4,227.5,355.9,228.4,353.6z"/>
			<path class="st0" d="M369.8,356.2c1.9,0.8,2.1,2.6,4,3c0.9-3.8-4.3-6.1-8.6-4.6C366,356.4,368.4,355.6,369.8,356.2z"/>
			<path class="st0" d="M284.5,356.2c1.7,1.2,0.9,4.9,3.7,5c1-2.2-1.8-4.2,0.3-6c-2.1-1-6-1.2-8.3,0
				C280.2,357,283.1,355.9,284.5,356.2z"/>
			<path class="st0" d="M185.6,360.9c2.3-0.3,2.7-4.1,2-6.3C186.2,355.8,185.2,359,185.6,360.9z"/>
			<path class="st0" d="M171.6,361.5c1-1.7,0.6-4.4,0.3-6.6c-0.3,0-0.7,0-1,0C170.6,356.6,169.2,361,171.6,361.5z"/>
			<path class="st0" d="M355.6,356.2c-0.1,1.7,2.8,0.5,3.7,1.3c1.7,1.3,1.8,4.2,3.3,5.6C365.5,360,359.3,352.7,355.6,356.2z"/>
			<path class="st0" d="M321,362.5c1.7-1,0.6-5.5,0-7.3c-0.8,0.2-0.7,1.3-1,2c-2,0.3-4.7-1.4-5,1c1.3,0.5,2.8,0.8,4.6,0.7
				C320.4,359.8,319.8,362.1,321,362.5z"/>
			<path class="st0" d="M354.9,362.9c-0.1-2.7-1.5-3-1.3-5.3c-1.9-0.7-2.9-2.4-6-2c0,1.5-0.9,2.5-1,4.7c2,0.1,2.5-1.2,3-2.7
				C353,357.7,351.5,362.7,354.9,362.9z"/>
			<path class="st0" d="M298.5,360.2c0-2.7-1.9-5.1-4.3-4.3C295.6,357.3,296.2,359.6,298.5,360.2z"/>
			<path class="st0" d="M257.3,360.2c2.8,0.7,3.1,3.9,6.3,4.3c0-4.3-4.4-4.2-5.3-7.6c-2.8,1.4-6.6,4.6-5.6,7.6
				C255.3,364.2,255.8,361.7,257.3,360.2z"/>
			<path class="st0" d="M383.8,357.9c-1.6,0-3.6,2.4-4,4.7C382,361.8,382.3,359.2,383.8,357.9z"/>
			<path class="st0" d="M248.7,365.8c0-3.2-3-7.3-7-6.6c-0.2,3.3-3.9,3-3.7,6.6c2.6-0.5,3.6-2.6,5-4.3
				C245.5,362.4,245.9,365.3,248.7,365.8z"/>
			<path class="st0" d="M337.6,359.9c-0.4,1.2-0.5,2.3,0.3,3.3c2.4-2.6,5.5-2,7,1C345.3,360.6,341.9,359.5,337.6,359.9z"/>
			<path class="st0" d="M329.3,362.2c2.3,0,3.9,0.8,5.6,1.3c-0.5,1.5-0.6,4.6,1,5c1.9-0.8,0.3-3.8,0.3-5.6c-3.1-3.1-11.4-4.3-10,2.3
				C328.6,365.5,328.5,363.3,329.3,362.2z"/>
			<path class="st0" d="M280.9,367.8c-0.3,4.3-6.7,2.4-7.3,6.3c3.6,1.6,4.7-3.2,7.6-2.3c0.7-0.5,1.2-1.2,1.7-2
				c2.2,1.7,4.9,3,6.6,5.3c-0.9,2.3-2.4,6.1-1,8.6c2.4-1.1,2-5.1,2.3-8.3c1.7-2.1,3.6-3.9,5-6.3c2.6,1.7,4.9,3.7,7,6
				c0.4,2-1.2,4.2,0.3,5.3c4.3-5.4-0.9-11.3-6-12.3c0.2-1.1,1.3-1.2,1.3-2.3c-1.7-2.2-3.3-4.5-7-4.6c0.5,2.4,2.7,3.1,4,4.6
				c-1.2,2.5-3.6,3.9-4.6,6.6c-2.5-1.2-4-3.5-7.6-3.7c0.3-1.2,1.1-1.8,1-3.3c-0.2-0.3-1.9-0.7-2,0c-2.9-2-3.6-5.9-7.6-5.6
				c-2.7,0.2-8.7,4.4-9.3,7.3c4.2-0.9,6.4-3.8,10-5.3C277.1,363.9,279,365.9,280.9,367.8z"/>
			<path class="st0" d="M211.8,367.2c2.4,0.8,3.3-2.7,4.6-4c2.7,1.4,3.7,7,7,7c2.3,0,4.2-3.4,5-6.3c-2.2,1.2-3.6,3.2-5.3,5
				c-1.1-3-5-4.3-5-7.3C214.8,360.9,213.2,364.8,211.8,367.2z"/>
			<path class="st0" d="M368.5,372.5c-0.3,1.1-1.3-1.7-1.7-0.7c0,3.6,1.6,7.7-1,9.3c-0.3-0.2-0.3-0.8-1-0.7c-0.5,0.5-0.7,1.3-1,2
				c-1.8-0.3-3.3-2.6-5.3-1.7c0.8,1.9,3,2.3,4.6,3.3c-0.3,3-3.2,8.4-0.7,11c2-3,1.6-8.6,3-12.3c3-1.2,5.6-4.3,5-8
				c-1.1-0.1-1,1-1.7,1.3c0-0.9,0.1-1.9-0.3-2.3c2.7-2.5,3.6-6.8,5.3-10.3c1.7,0.1,2.4,1.2,3.3,2c-0.2,1.6-1.2,5.8,0.7,6.3
				c1.5-2,1.5-7.1,1.3-9.6c-0.5,0.3-1.3,0.3-1,1.3C372.3,358.2,369.3,366.8,368.5,372.5z"/>
			<path class="st0" d="M311.1,365.5c0,1.6-0.3,3.4,1.3,3.3c-0.8,2.4-4.1,2.3-4.6,5c4.2-0.7,6.3-3.4,7.6-7c-1.3-0.1-1.5,0.7-2,1.3
				c-0.2-0.5,0.2-2.9-0.7-3.7c-3.1-0.6-6.5-2.7-10-2C303.9,365.2,308.3,364.5,311.1,365.5z"/>
			<path class="st0" d="M176,369.2c-0.6,1.6-1.5,4.4-0.7,6.3c2.9,0.4,1.7-3.4,2.7-5c2.2,0.4,5.3-5,6.3-5c2,0,1.4,4.1,4.3,4
				c-1.6-2.8-2.6-6.2-6-7.3c0.9,3.7-4.5,3.9-4.6,7.6c-1.4-2.2-2.3-6.5-6-5.3C172.9,366.4,174.6,367.6,176,369.2z"/>
			<path class="st0" d="M368.2,367.5c-0.2-2.9-2.3-3.9-5-4.3c-0.2,0.3-0.3,0.5-0.3,1C364.9,365,366,366.9,368.2,367.5z"/>
			<path class="st0" d="M344.6,366.8c-2.3,0.4-1.8,4-3.7,5.6c-0.5-0.6-0.4-1.8-2-1.3c-0.4,2.3-0.8,6.9,0.3,8.6
				c1.9-0.2,1.4-2.8,1.7-4.7c2.2-1.2,3.1-3.7,4-6.3c2.1,0.2,1.6,2.8,3.7,3c0,1-1,1.7-0.3,2.3c2.8-0.8,2.9-4.2,3.7-7
				c1.8,0.3,2.5,1.7,4,2.3c-0.8,1.9-0.8,6.1,0.7,7.6c2.4-0.2,0.9-4.1,1.3-6.3c1.1-2.6,3.2-4.1,3.7-7.3c-2.5-0.7-3.3,3.1-4.6,4.7
				c-1.9-0.5-2.6-2.3-4.6-2.7c-2,0.8-1.9,3.6-3,5.3C347.9,369.2,346.6,366.5,344.6,366.8z"/>
			<path class="st0" d="M171.3,363.2c-3.3,1.5-6.9,4.4-7,8c3.4-1.4,4.8-4.8,7.6-6.6C172.2,363.6,171.3,363.9,171.3,363.2z"/>
			<path class="st0" d="M241.4,382.5c4.4-4.1-0.7-11.2-5-12c0.6-4.3-2-8.1-5.3-6.3c0.3,1.6,2,1.8,3.3,2.3c0,1.3,0,2.7,0,4
				c-2.4,1.5-5.5,2.2-6,5.6c3.5,0.9,4.8-3.1,7.6-4c1.5,1.4,3.3,2.4,4.6,4C240.4,377.9,239.7,381.7,241.4,382.5z"/>
			<path class="st0" d="M145.1,371.8c0.7-2.9-1.2-5.9-2.3-8c-0.3,0-0.7,0-1,0c-0.6,3.1-5.6,1.7-6,5c2.7-0.1,4-1.6,6-2.3
				C143.4,367.8,142.5,371.5,145.1,371.8z"/>
			<path class="st0" d="M202.2,365.8c0-0.7,0.9-0.4,0.7-1.3c-4.4,0.1-6.8,2.3-8.6,5c3.1-0.1,4.4-2,6.3-3.3c2.2,1.1,2.6,4.1,5.3,4.6
				C206.5,368.6,203.8,366.9,202.2,365.8z"/>
			<path class="st0" d="M157,366.5c0.2,2.4,0.3,7.4,3,8.3c1.9-2.8-3.2-7.5-0.7-10c-3.8-0.7-7.1,1.6-8.6,4.3
				C153.1,369.9,155,367.3,157,366.5z"/>
			<path class="st0" d="M319.7,365.8c-0.6,3.4,3.5,3,3.7,5c0.1,2-4.9,3-3.3,6.6c2.9-1,3-4.9,5.6-6.3
				C324.2,368.9,323.3,366,319.7,365.8z"/>
			<path class="st0" d="M112.5,374.1c0.5-2.7-2.4-4.6-3.7-6.6C107.7,369.6,110.5,373.1,112.5,374.1z"/>
			<path class="st0" d="M332.7,375.5c3.6-0.9,4.7-4.3,6-7.6C335.2,368.9,333.8,372.1,332.7,375.5z"/>
			<path class="st0" d="M264.9,368.8c-3.2-0.5-5,3.2-7.3,4.7c-2.2-0.9-4.2-3.7-7.3-2.7c1,2.6,3.7,3.4,6,4.6c-0.2,1.4-1,4.6,0.7,5
				c1.5-0.2,1.6-3.5,1-4.6C260.2,373.4,263.8,372.3,264.9,368.8z"/>
			<path class="st0" d="M249.3,369.5c-0.4-0.4-1.2-0.4-2-0.3c-1.4,1.8-4.4,3.7-4,6.3C246.7,374.9,248.1,372.3,249.3,369.5z"/>
			<path class="st0" d="M121.2,369.8c-3.1-1.4-7.4-0.5-8.6,2c1.7,1.5,4.8-2.5,7.6-1c1.7,2.5,1.1,7.3,4,8.6
				C124.8,375.9,122.4,372.6,121.2,369.8z"/>
			<path class="st0" d="M191.6,375.5c1.8-0.9,3-4,2.7-6C192.5,370.5,190.9,373.2,191.6,375.5z"/>
			<path class="st0" d="M81.7,369.8c0.6,2,2,3.1,4.3,3.3C86.7,371.2,83.8,368.9,81.7,369.8z"/>
			<path class="st0" d="M74.7,374.5c0.3-2-1.5-4.7-3.3-5s-4.7,2.1-7,3c-2.3,0.9-5,2.2-7.3,2.7c-6.4,1.3-11.3-0.3-15.6,2.3
				c-0.2,1.2-0.6,2.2,0,3.3c-3.7,0.2-10.4-2.5-11.6,1.3c-3.1,0.3-6.3-2.4-8.6-0.7c0.1,2.2,4,1.9,6.3,2.7c1.4,0.5,3.6,1.5,6,1.7
				c18.3,1.6,40.5,0,44.5-13.6C76.3,371.2,75.7,373.7,74.7,374.5z"/>
			<path class="st0" d="M209.5,376.8c3.2,0.5,4.9-3.2,8-4c2.1,1,1.9,3.4,5,4c-0.3-3.5-3.2-4.5-5.3-6.3c-1.4-0.1-0.2,1.1-0.3,1.7
				C213.1,372.5,210.9,374.2,209.5,376.8z"/>
			<path class="st0" d="M331,379.8c3.1-3.7-1.5-9.7-5.3-8.6c0.7,2.9,3.2,3.9,5.3,5.3C330.7,377.3,330.4,379,331,379.8z"/>
			<path class="st0" d="M269.9,382.8c3.4-3.8,3.4-12.7-4.3-12c1.3,1.3,2.9,2.2,4.6,3c1.3,3-0.3,4.2-1.3,6.3
				c-3.4,0.4-8.4-0.8-8.6,2.7C263.2,383.8,266.5,382.4,269.9,382.8z"/>
			<path class="st0" d="M379.8,380.8c2.5-1.2,3.2-5.8,3-8.6C380.5,373.5,379.9,378.3,379.8,380.8z"/>
			<path class="st0" d="M317.1,383.1c4.9-3.7,0.6-11.3-4.3-10.6c0.8,2.7,3.4,3.7,5,5.6C317.8,379.9,316,381.4,317.1,383.1z"/>
			<path class="st0" d="M200.9,379.1c2.4-0.7,3.4-4.2,3-6.6C202.2,373.9,200.7,377.1,200.9,379.1z"/>
			<path class="st0" d="M128.8,375.8c-1.2,0.6-3.8,0.5-3.3,2.7c4,0,5.6-2.4,8.6-3.3c1.2,2,0.9,7.3,3,7.3c1.5-2.7-0.9-7-1.7-9.6
				C132.8,373.2,131,374.7,128.8,375.8z"/>
			<path class="st0" d="M107.2,380.1c2.3-0.2,2-4.5,1.7-6.3C107,374.5,107.1,378.5,107.2,380.1z"/>
			<path class="st0" d="M151.7,390.1c0-2.2,0.8-3.7,1.3-5.3c0.4-1,1,1.4,1.7,0.3c0.1-5-2.9-7.1-5-10c-3.5,1.9-7.5,3.4-8,8.3
				c2.9-1.5,4.6-4.2,7.3-6c1.3,1.8,2.6,3.6,3.7,5.6c-2.7,1.8-4.3,7.1-1.7,9.6c-0.1,0.4-0.6,0.3-1,0.3c1.3,1.4,2.3,3.2,4,4.3
				c0.1-2.1,2-0.6,2.7-1.7C155.1,393.8,152.6,392.7,151.7,390.1z"/>
			<path class="st0" d="M161.3,375.8c0.2,3-4.3,2.9-4.6,6.3c3.7,0.2,4.1-2.8,6.3-4c2.1,1.2,1.4,5.2,4.3,5.6
				C167.2,380.4,166.4,375.3,161.3,375.8z"/>
			<path class="st0" d="M119.5,375.8c-2.4,0.7-2.3,5.6-2.3,7.6C119.8,382.8,119.8,378.3,119.5,375.8z"/>
			<path class="st0" d="M225.8,381.8c1.9-0.4,1.3-3.9,1-5.6c-0.3,0-0.7,0-1,0C225.3,377.5,225.1,380.5,225.8,381.8z"/>
			<path class="st0" d="M95.9,378.5c-0.7-0.1-0.9,0.2-1.3,0.3c3,3.8,6.8,8.5,12.6,8.3C104.3,383.4,99.8,381.2,95.9,378.5z"/>
			<path class="st0" d="M357.6,380.1c-2.6-0.4-4.3,2.7-6,4.3c-1.3-2.3-3.6-5-6.6-4.3c0.9,2.6,4.2,2.9,5.6,5
				c-1.5,3.4-2.9,8.6-2.7,12.6c-1.8,2.3-4.9,3.2-6,6.3c3.1-0.5,5.4-2,6.6-4c2-3.3,1.3-8.4,2.7-12.3
				C352.5,384.1,356.8,383.6,357.6,380.1z"/>
			<path class="st0" d="M336.3,390.1c-1.1,2.2-0.6,6-1.3,8.6c-2.1,3.1-6.6,3.8-8.3,7.3c4.2,0.4,6.2-4.2,10-5.3c0.6-2.4,1.1-4.9,1-8
				c2.4-4,5.1-7.8,6.3-12.9C339.6,381.5,340.2,388,336.3,390.1z"/>
			<path class="st0" d="M370.8,389.4c3.2-1.2,4.2-6.1,4.3-9.3C372.2,381.5,370.8,386.1,370.8,389.4z"/>
			<path class="st0" d="M181.6,386.1c2.2-0.6,3.2-2.5,4.6-4c1.9,1.9,1.7,5.8,4.6,6.6c0.2-2.9-2.7-5.5-3.7-8.3
				C185.1,382.1,181.8,382.6,181.6,386.1z"/>
			<path class="st0" d="M177.3,381.5c-3.2-1.3-7.6,1.3-9,4c2.5,0.8,4.7-1.5,6.6-2.3c0.8,0.8,1.1,2,1.7,3c0.8-0.8-0.6-2.3-1-3
				C175.9,382.3,177.3,382.6,177.3,381.5z"/>
			<path class="st0" d="M331.7,382.1c-2.7,1.2-4.8,2.9-6.6,5c-1.1,0-0.2-2-1.7-1.7c-1.5,4.2-0.3,8.5-1.7,12c-1.3,3.3-5.5,4.1-6,7.6
				c6.2-2,9.1-7.3,9-15.6C326.8,387,331,384.9,331.7,382.1z"/>
			<path class="st0" d="M232.1,389.4c-1-3.8-4.5-6.8-8-7C226.3,385.1,229.1,388.7,232.1,389.4z"/>
			<path class="st0" d="M220.8,384.1c1.1,0,1.1,1.1,2.3,1c-0.2-1.6-1.2-1.8-1-3c-3.5,0.5-7.9,4.1-8.3,7.6
				C217.1,388.8,218.3,385.8,220.8,384.1z"/>
			<path class="st0" d="M200.9,394.1c3.2-2.4,0-10.5,1-11.9c-7.3,2.6-11.2,6-12,15.3c2.7-5.4,4.9-11.3,11-13.3
				C200.8,387.1,199.3,391.6,200.9,394.1z"/>
			<path class="st0" d="M207.2,382.5c1.2,2.6,2.6,4.9,5,6.3C211.3,385.8,209.5,383.8,207.2,382.5z"/>
			<path class="st0" d="M204.2,385.1c1.2-0.4,2.6-0.8,3-2C205.9,383.5,204.3,383.6,204.2,385.1z"/>
			<path class="st0" d="M247.3,391.1c2.7-0.2,5.4-3.2,6.3-6.3C250.5,385.9,248.5,388.1,247.3,391.1z"/>
			<path class="st0" d="M333.7,385.1c0.1,1.8,0.3,3.5,1.3,4.3C337,389,335.4,385,333.7,385.1z"/>
			<path class="st0" d="M295.8,402.7c2.2-0.8,1.4-4.6,2-7c2.8-2.5,5.9-6.4,6-10.6C300.1,389.5,293.8,394.8,295.8,402.7z"/>
			<path class="st0" d="M319.4,388.4c0.9-0.7,0-2.4-0.3-3c-0.5-0.1-0.6,0.3-1,0.3C317.7,387.5,319,387.4,319.4,388.4z"/>
			<path class="st0" d="M168,385.4c-0.2,0-0.4,0-0.7,0c-1.4,3.1-3.3,7.3-3.3,10.6C167.2,394.6,168.6,389.6,168,385.4z"/>
			<path class="st0" d="M316.7,386.1c-5.8,1.2-7.8,9.6-6.6,15.6c2.4-0.9,1.2-5.4,1.7-8.3C313.2,391,316.6,388.7,316.7,386.1z"/>
			<path class="st0" d="M261.6,391.1c-0.7-2.9-3.4-3.9-6-5C256.3,389.1,258.7,390.3,261.6,391.1z"/>
			<path class="st0" d="M178.9,392.7c2.9,0.1,2.9-4,2.3-6.3C179.1,387.1,179.3,390.3,178.9,392.7z"/>
			<path class="st0" d="M305.4,386.8c0.4,2.1,1.9,2.9,4.3,3C309.5,387.6,307.3,387.4,305.4,386.8z"/>
			<path class="st0" d="M287.2,386.8c-4.4,2.6-6.7,7.3-6.3,14.6c-1.2,2-4.4,2-4.6,5c6.4,0,8-6.6,6.6-13.3
				C284.8,391.5,286.6,389.7,287.2,386.8z"/>
			<path class="st0" d="M280.5,395.4c-0.8-4.2-5.3-4.7-6.6-8.3c-3.1,1.4-7,3.8-7.3,7c2.9-0.7,4.5-2.8,6.3-4.6
				C276.1,390.8,276.8,394.6,280.5,395.4z"/>
			<path class="st0" d="M241.5,390.7c-1.5-0.2-3.3-2.6-5.1-3.3c-1.3,2.2-2.8,4.1-4.3,6c-0.5-0.1-0.1-1-0.7-1
				c-1.8,1.2-3.2,8.4-0.7,9.6c-1.2,2.1-4.4,2.2-5,5c3.7,0.2,5-1.9,6.3-4c0.1-0.7-0.3-1.1-1-1c0.7-1.7,0.8-5.7,0.7-7.3
				c2.2,0,4.1-2.6,5-5c3,1,3.1,4.8,7.3,4.7c0-2.2-0.9-3.5-2-4.7C241.3,389.3,241.1,390.5,241.5,390.7z"/>
			<path class="st0" d="M288.8,387.8c1.1,1.9,2.6,3.4,5.3,3.7C293.5,389,291.3,388.3,288.8,387.8z"/>
			<path class="st0" d="M137.8,388.8c0.7,1.4,0.7,3.5,2.7,3.7C140.3,390.5,139.5,389.1,137.8,388.8z"/>
			<path class="st0" d="M214.1,398.4c1.9-1.8,1.5-6,2.3-9C213.8,390.3,213.4,395.2,214.1,398.4z"/>
			<path class="st0" d="M244.7,402.4c2.6-2.1,1.8-7.7,2.3-12C243.7,391.9,244.2,399.2,244.7,402.4z"/>
			<path class="st0" d="M141.4,392.4c0.9,1.8,3.7,0.1,5.6,0c0-0.3,0-0.7,0-1C145.3,390.6,142.6,391.6,141.4,392.4z"/>
			<path class="st0" d="M115.2,392.7c0.3,2.4,3.7,4.5,7,5C121.6,394.5,118.1,392.5,115.2,392.7z"/>
			<path class="st0" d="M264.3,392.7c-0.8,2.9-0.9,6.7-1.3,10c-1.9,1.9-5.7,2.1-7,4.6c3.7,1.1,6-1.9,8.6-3c0.7-3.4,1.4-7.8,0.7-11.6
				C264.9,392.7,264.6,392.7,264.3,392.7z"/>
			<path class="st0" d="M360.2,393.4c-2.3,0.2-5.3,2.4-6.3,5c3.3,0.9,5.2-2.3,6.6-4.3C360.6,393.7,360.5,393.5,360.2,393.4z"/>
			<path class="st0" d="M180.3,399.7c0.4-3.1-1.4-3.9-2.3-5.6c-3.2,1.9-7.6,2.6-10.6,4.6c2.8,2.4,7.1-1.3,10-2
				C178.5,397.5,177.9,400.1,180.3,399.7z"/>
			<path class="st0" d="M187.6,397.1c-1.6,1,1.6,2.7,2,4c-2.3,1.7-6.9,1.1-7.6,4.3c4.2-0.4,7.3-1.8,10.6-3
				C191.1,400.4,189.4,398.7,187.6,397.1z"/>
			<path class="st0" d="M217.5,403.4c-1.4-2.3-2.9-4.7-6.3-5c0.6,3,3.7,3.4,4.6,6c-1.1,1.3-3.4,1.5-3.7,3.7c4.8-1.6,9.1-3.7,12-7.3
				C221.1,399.5,219.6,402.6,217.5,403.4z"/>
			<path class="st0" d="M123.5,398.7c0.5,2.1,5,3.3,5.6,0.7C127.8,398.7,125.1,398,123.5,398.7z"/>
			<path class="st0" d="M199.9,407c1-1.4-0.3-2.9-1-3.7c1.9-1.7,5.5-1.5,6.3-4.3c-4.2-0.1-6,2.2-9,3.3
				C197.9,403.5,197.1,407,199.9,407z"/>
			<path class="st0" d="M237.7,407.3c3.7-0.1,6.6-2.6,6-6C240.9,402.5,238.6,404.3,237.7,407.3z"/>
			<path class="st0" d="M302.5,407.3c3.5-0.6,5.3-2.9,6.6-5.6C305.6,402.3,303.5,404.3,302.5,407.3z"/>
			<path class="st0" d="M285.8,409c3.8-1.1,6.6-3.4,8.3-6.6C290.8,402.5,286.5,406.1,285.8,409z"/>
			<path class="st0" d="M178.9,411c2.8-0.2,4.6-1.4,5.3-3.7C182,406.7,178.4,408.8,178.9,411z"/>
			<path class="st0" d="M155.4,413c4.8,2.7,11.4,2.1,16.9,1c0-0.3,0-0.7,0-1C167.4,412.4,160.3,412.4,155.4,413z"/>
			<path class="st0" d="M282.9,194.5c0.1,2.6,5.3,2.9,6.6,5.3c0.9,0.1,1-0.8,1-1.7c4.1,0.6,7.7,1.6,10,4
				C300.7,194.7,288.3,197.9,282.9,194.5z"/>
			<path class="st0" d="M214.8,199.8c-2.3-0.3,4.7,2.3,6.3,2.7c1.5,0,2.3-0.8,4-0.7c-2.3-1-5.2-1.3-7.3-2.3
				C216.5,199.3,216.2,200.1,214.8,199.8z"/>
			<path class="st0" d="M227.1,203.5c1.2,0.6,3.7,1.2,6,1.7c1.8,0.4,5.7,1.2,4.6,0.3C234.1,205,231.1,202.5,227.1,203.5z"/>
			<path class="st0" d="M76.7,358.9c-0.8-0.1-1,0.5-1.3,1c-1.1-1.6-1.6-4-2.7-5.6c-0.5,4.8,1.5,10,5.3,11.6c0-1.7-0.8-2.5-1.7-3.3
				c0.4-0.9,0.7,1,1.7,0.7C79,361.6,77.8,359.5,76.7,358.9z"/>
			<path class="st0" d="M70.4,6.5c-3.9,2-7.3,4.7-11,7c-0.9,0.6-1.1,2.1,0,2.6c2.3,1,4.8,1.5,7.3,1.8c1.1,0.1,2.1-1.1,2.1-2.1
				c0-2,0.2-4.3-1.8-5.3c1.4-1.1,2.7-2.1,4.1-3C71.6,7.1,71.1,6.1,70.4,6.5z"/>
			<path class="st0" d="M92.5,84.1c12.7-1.4,25.4-2.5,38-4.6c1.2-0.2,0.9-2.3-0.3-2.2c-12.7,1.1-25.3,3.3-37.9,5.1
				C91.3,82.5,91.5,84.2,92.5,84.1z"/>
			<path class="st0" d="M80.8,71.1c13.8-0.3,28.9-2.6,40.7-10.2c1.4-0.9,0.6-3.6-1.2-2.9c-3.1,1.2-6.1,2.3-9,3.4
				c-0.1-0.7-0.7-1.4-1.6-1.5c-0.6,0-1.3,0-2,0c0.1-0.1,0.2-0.1,0.2-0.2c0.9-0.8,0.2-2.5-1-2.4c-3.1,0.2-5.9,1.6-8.8,2.3
				c-3.7,0.9-7.4,1.3-11.1,1.3c-2.2,0-2.2,3.4,0,3.4c0.1,0,0.3,0,0.5,0c-1.6,0.6-1.7,2.5-0.7,3.6c-1.9,0.2-3.9,0.4-5.9,0.5
				C79.2,68.5,79.2,71.1,80.8,71.1z"/>
			<path class="st0" d="M70.2,212.1c-4.3-1.9-9.1-2.1-13.7-2.6c-5.8-0.7-11.6-1.4-17.5-2.1c-1.1-0.1-1.8,0.7-2,1.7
				c-0.1,0-0.3-0.1-0.4-0.1c-1.3-0.4-1.9,1.6-0.6,2.1c10.5,3.6,21.4,5.8,32.5,5.7c0.9,0,1.3-0.7,1.2-1.4l0,0
				C71.2,215.2,71.5,212.7,70.2,212.1z"/>
			<path class="st0" d="M46.1,207.1l12.7,1.9c2.5,0.4,9.9,0.4,11.7,2.2c0.9,0.9,2.4,0.7,3-0.4c0.1-0.2,0.2-0.3,0.3-0.5
				c0.5-0.9,0.4-2.2-0.4-2.9c-2.7-2.3-6.8-1.8-10.2-2.1c-5.6-0.5-11.1-1-16.7-1.5C44.7,203.7,44.2,206.8,46.1,207.1z"/>
			<path class="st0" d="M84.6,82.3c14.2-2.7,28.6-3.5,42.8-6.1c1.7-0.3,1.2-2.9-0.4-2.9c-14.4-0.4-29.2,2.9-43.2,6.1
				C81.9,79.9,82.7,82.7,84.6,82.3z"/>
			<path class="st0" d="M47.1,74.8c-3,2-7,1.8-9.4-0.9c-0.6-0.7-1.6,0.3-1,1c2.8,3.3,8,3.9,11.2,0.9C48.4,75.3,47.7,74.4,47.1,74.8z
				"/>
			<path class="st0" d="M46.8,96.8c-2.4,0.9-7.2,2.9-8.4-0.8c-0.4-1.1-2-0.6-1.7,0.5c0.5,1.9,2.1,3.2,4,3.6c2.4,0.5,4.7-0.7,6.7-1.9
				C48.1,97.8,47.7,96.5,46.8,96.8z"/>
			<path class="st0" d="M70.6,73.9c0.9-0.3,0.8-1.9-0.2-1.8c-4.8,0.5-11.8,1.3-13.3-4.9c-0.3-1.3-2.2-0.7-2,0.5
				C56.5,74.9,64.8,76.1,70.6,73.9z"/>
			<path class="st0" d="M60.1,116.2c0.9-0.6,0.3-2.1-0.7-1.8c-4.2,1.4-9,0.3-11.2-3.8c-0.5-1-2.2-0.3-1.8,0.8
				C48.5,116.5,55.2,119.5,60.1,116.2z"/>
			<path class="st0" d="M47.6,123.4c3,1.1,6.5,0.5,8.7-1.8c0.9-0.9-0.3-2.6-1.4-1.8c-1.3,0.9-2.7,1.5-4.3,1.6
				c-0.6,0-4.9-0.6-4.2-1.9c0.5-0.8-0.5-1.7-1.3-1.3C42.2,119.8,45.9,122.8,47.6,123.4z"/>
			<path class="st0" d="M43.2,139.7c2.9,0.7,5.8-0.5,8.3-1.8c1-0.5,0.3-2.2-0.8-1.9c-3.1,1.1-9.1,3.3-10.2-1.6
				c-0.3-1.4-2.4-0.8-2.1,0.6C38.9,137.4,40.9,139.1,43.2,139.7z"/>
			<path class="st0" d="M44,142.6c1.1-0.7,0.1-2.2-1-1.7c-1.5,0.7-3.2,0.6-4.6-0.3c-1.2-0.7-2.2,1.1-1.1,1.8
				C39.4,143.8,41.9,144,44,142.6z"/>
			<path class="st0" d="M40.7,153.7c0.9-0.1,0.7-1.4,0-1.6c-1.7-0.5-3.3-1.1-4.4-2.7c-0.8-1.2-2.7-0.1-1.9,1.1
				C35.9,152.6,38.1,154.1,40.7,153.7z"/>
			<path class="st0" d="M22.9,186.1c-1.5,0.7-3.2,0.8-4.7,0c-1-0.5-1.9,1-0.9,1.5c2.1,1.1,4.4,1.1,6.4-0.2
				C24.6,186.9,23.8,185.6,22.9,186.1z"/>
			<path class="st0" d="M31.3,166.1c-2.4,1.2-5.1,1.4-7.6,0.2c-1.2-0.6-2.3,1.2-1.1,1.9c3,1.7,6.8,1.9,9.7-0.3
				c0.4-0.3,0.5-0.7,0.5-1.1c1.8,1.2,4.2,0.8,6.1-0.1c0.8-0.3,0.4-1.8-0.4-1.6c-1.2,0.2-2.8,0.5-4,0.1c-1.1-0.3-1.9-1.5-1.2-2.6
				c0.6-0.9-0.9-2.1-1.5-1.2c-1.1,1.4-0.9,3.3,0.2,4.6C31.8,166,31.6,166,31.3,166.1z"/>
			<path class="st0" d="M31,189.3c-2,2.6-5.3,3.9-8.5,3.1c-1.5-0.4-2.2,2-0.7,2.4c4.2,1,8.6-0.7,10.8-4.5
				C33.3,189.2,31.8,188.3,31,189.3z"/>
			<path class="st0" d="M43.9,131.5c1.4-0.5,0.8-2.4-0.6-2.2c-1.7,0.3-3.6,0.1-5.2-0.5c-1.8-0.7-2.8-1.9-4.2-3
				c-0.7-0.5-1.8-0.1-1.5,0.9C33.6,131.1,40,132.9,43.9,131.5z"/>
			<path class="st0" d="M55.8,60.2c3.7,0.7,7.7-0.2,10.2-3.1c0.8-0.9-0.3-2.6-1.4-1.8c-2.4,1.8-5.1,3-8.2,2.5
				C55,57.7,54.3,60,55.8,60.2z"/>
			<path class="st0" d="M187.1,87.8c6.7-0.8,11.8-6.3,12.9-12.9c0.2-1.5-1.9-2.1-2.2-0.6c-1.1,5.7-5.5,9.7-10.9,11.5
				C185.8,86.1,185.9,87.9,187.1,87.8z"/>
			<path class="st0" d="M174.2,50.3c2.8-1.1,4.9-3,6.1-5.8c0.2-0.5,0.4-1.1,0.6-1.7c0.2,0.3,0.5,0.6,0.8,0.9
				c3.7,3.2,10.1,2.7,14.1,0.5c1-0.6,0.3-2-0.7-1.8c-2.9,0.6-5.8,1.2-8.8,0.6c-2.2-0.4-6.8-3.7-3-5.6c1.2-0.6,0.1-2.3-1.1-1.8
				c-0.6,0.3-1.1,0.7-1.5,1.2c-0.1-0.2-0.2-0.4-0.3-0.5c-0.5-0.7-1.4-0.4-1.5,0.4c-0.3,2.3,0.1,4.4-1,6.6c-1,2-2.6,3.7-4.5,5
				C172.3,48.8,172.9,50.7,174.2,50.3z"/>
			<path class="st0" d="M146.9,94.9c5.5,1.6,12.2-0.8,14.5-6.3c0.4-1-1.1-1.5-1.7-0.7c-2.8,4.1-7.3,6.7-12.3,5.4
				C146.2,92.9,145.8,94.6,146.9,94.9z"/>
			<path class="st0" d="M80,250.3c1.1,0.1,1.2-1.5,0.3-1.8c-2.1-0.8-4-2-5.2-4c-0.7-1.2-2.6-0.1-1.9,1.1
				C74.6,248.2,77,250.1,80,250.3z"/>
			<path class="st0" d="M159.9,112.7c-2,0.6-4.1,1.2-6.2,1.4c-1.2,0.1-2.3,0.2-3.4-0.1c-1.1-0.3-4.2-2.3-1.9-3.1
				c0.6-0.2,0.6-1.1,0-1.3c-1.4-0.4-2.8,0.3-3.3,1.7c-0.6,1.6,0.3,3.2,1.5,4.2c4,3.4,10.1,1.6,14.2-0.6
				C162.1,114.3,161.2,112.4,159.9,112.7z"/>
			<path class="st0" d="M175,111c0.9-0.8-0.3-2.4-1.3-1.7c-2.5,1.7-6,1.8-8.4-0.2c-1-0.9-2.5,0.5-1.5,1.5
				C166.8,113.7,171.7,114,175,111z"/>
			<path class="st0" d="M161.6,118.2c3.9,2.8,11.6,2.2,13.3-3c0.4-1.3-1.3-2.1-2.2-1.3c-1.4,1.3-2.5,2.4-4.4,2.9s-3.7,0.1-5.4-0.9
				C161.5,115,160.3,117.2,161.6,118.2z"/>
			<path class="st0" d="M161.8,130.2c3.6,1.6,8.2,1.4,11.7-0.1c1.3-0.6,0.3-2.3-0.9-2.1c-1.9,0.3-3.7,0.6-5.6,0.5
				c-0.1,0-6.7-0.8-5.4-2c0.9-0.9-0.4-2.2-1.4-1.4C158,126.9,159.8,129.4,161.8,130.2z"/>
			<path class="st0" d="M147.3,142c-2.8,2.6-7.2,1.9-8.6-1.8c-0.4-1.1-2.1-0.6-1.7,0.5c1.7,5.1,8,6.9,11.8,2.8
				C149.6,142.4,148.3,141.1,147.3,142z"/>
			<path class="st0" d="M142.1,163.5c0.8-0.9-0.2-2.2-1.3-1.7c-3.6,1.8-8.1,0.2-7.9-4.4c0.1-1.5-2-1.4-2.2,0
				C129.9,163.5,137.6,168.5,142.1,163.5z"/>
			<path class="st0" d="M157,155.8c2.5,1.7,5.5,1,8.2,0.2c1-0.3,0.9-2.1-0.3-1.9c-2.3,0.3-9,0.9-8-3.3c0.4-1.5-1.8-2.1-2.2-0.6
				C154,152.3,155.1,154.5,157,155.8z"/>
			<path class="st0" d="M193.3,102.4c0,0.1,0,0.2,0,0.4c2.2,8.6,15.8-1.1,18.5-4.8c0.3-0.4,0.2-0.9-0.1-1.2c2.3-1.3,4.3-3,5.8-5.1
				c0.5-0.7-0.6-1.5-1.1-0.9c-4,4.7-9.3,5.5-15.1,5.2c-1.2-0.1-1.2,1.5-0.3,1.9c2.2,0.9,4.5,0.9,6.7,0.4c-4,2.7-10.9,7-11.9,3.8
				c-0.2-0.8-0.9-1-1.5-0.9c0.5-0.7,0.9-1.6,1-2.5c0.2-1.3-1.4-2.1-2.2-0.9c-2.2,3.4-6.2,5.4-10,3.1c-1.5-0.9-2.8,1.3-1.4,2.3
				C185,105.5,190.3,105.1,193.3,102.4z"/>
			<path class="st0" d="M113,211.8c0.9-0.2,1-1.7,0-1.9c-2-0.4-4.2-1.2-5.3-3.1c-1.2-2.1-0.5-4.6,1.1-6.3c1.2-1.2-0.7-3.1-1.9-1.9
				c-2.3,2.3-3.3,5.9-1.8,9C106.5,210.7,109.7,212.6,113,211.8z"/>
			<path class="st0" d="M106.2,221.5c1.1-0.1,1.4-1.6,0.3-2c-2-0.7-4-1.7-4.8-3.8s0.2-4.4,1.8-5.8c1.1-1-0.5-2.5-1.6-1.6
				c-2.4,2-3.6,5.3-2.6,8.4C100.3,219.5,103.1,221.9,106.2,221.5z"/>
			<path class="st0" d="M94.3,227.5c2.7,2.1,6.5,1.2,9.2-0.3c0.8-0.4,0.2-1.5-0.6-1.4c-2,0.3-4.2,1.1-6.2,0.6
				c-1.8-0.4-3.5-2.4-2.4-4.3c0.6-0.9-0.9-1.7-1.4-0.8C91.5,223.3,92.4,226,94.3,227.5z"/>
			<path class="st0" d="M147.9,33.4c0.5-1.1-0.8-2.2-1.7-1.3c-4.3,3.8-10.3,5.8-15.3,1.8c-1.2-0.9-2.8,0.6-1.7,1.7
				C134.2,40.2,144.6,40.4,147.9,33.4z"/>
			<path class="st0" d="M164,26.4c0.5-1.5-1.5-2.1-2.4-1c-3.7,5-9,6.4-14.1,2.5c-1.1-0.8-2.2,0.9-1.4,1.8
				C151.3,35.2,161.4,33.9,164,26.4z"/>
			<path class="st0" d="M161.4,33.4c-0.2-1-1.7-0.9-1.9,0c-0.7,2.6-1.7,5.2-4.2,6.6c-2.9,1.6-6.3,0.8-8.7-1.3
				c-0.9-0.8-2.1,0.4-1.3,1.3c2.7,2.9,6.9,4.1,10.6,2.6C159.6,41.2,162.1,37.4,161.4,33.4z"/>
			<path class="st0" d="M182.8,50.7c0.3-1.1-1.3-2.2-2.1-1.2c-4.1,5-9.3,8.5-16.1,6.4c-0.2-0.1-0.4-0.1-0.6-0.1
				c1.6-1.8,2.8-4.1,3.7-6.3c0.4-1.1-1.2-1.6-1.8-0.7c-2.5,3.9-4.7,9.1-10.2,8.9c-1.2-0.1-1.1,1.6,0,1.8c2.9,0.4,5.3-0.7,7.3-2.5
				c-0.1,0.6,0.1,1.3,0.9,1.6C170.6,61.1,180.6,58.3,182.8,50.7z"/>
		</g>
		<path class="st0" d="M134.3,68.1c-1-1.8-3.5-0.2-2.7,1.6c11.1,25.3,10.2,51.3-2.1,76.1c-11.2,22.5-26.9,43-40.8,63.8
			c-6,8.9-11.9,17.9-16.1,27.9c-0.5,1.1-0.9,2.2-1.3,3.3c-0.4,0-0.7,0.2-0.9,0.6c-9.8,32.5-17.8,68.8-1,100.5
			c0.8,1.5,3.4,0.5,2.8-1.2c-8.1-23.7-6.2-51.4-3.5-76c3.1-27.5,18.8-48.1,33.8-70.3c13.6-20.1,29.4-40.2,36.8-63.6
			C145.7,110.3,144.3,87.2,134.3,68.1z M64.9,276.8c-1.1,13.9-1.7,28.2-0.3,42.2C61.9,305.2,62.7,290.9,64.9,276.8z"/>
		<path class="st0" d="M357.3,373.2c-0.8-4.6-1.5-9.2-2-13.8c-0.4-4.2-6.4-4.4-6.7,0l0,0c-2-1.1-5.1-0.3-5.8,1.9
			c-1.5-0.2-3.1,0.4-4.2,1.6c-2-2.9-6.6-2-8,1c-1.3,0.1-2.5,1-2.6,2.7c-0.2,1.8-0.4,3.5-0.6,5.3c-0.3-1.3-0.7-2.5-1-3.8
			c-0.8-3-4.9-2.6-5.7,0c-1.4-2.5-5-2.5-7-0.6c-1.5-2.7-5.6-2.8-7.5-0.8c-2.6-0.8-6,0.7-5.7,4c0.2,2.4,0.3,4.6,0.2,6.9
			c-0.4-1.4-0.9-2.8-1.3-4.2c-1.2-3.9-7.8-4.7-8.8-0.2c-0.3-0.8-0.5-1.7-0.8-2.6c-1.4-4-8.3-5-9.2,0c-0.1,0.9-0.3,1.7-0.4,2.6v-0.1
			c-1.3-4.5-6.9-4-8.6-0.3c-1.6-1.2-4.1-1.2-5.7,0c-1.4-3.4-6.9-3.1-7.8,0.6c-0.6,2.2-1.2,4.3-1.8,6.4c-0.7-2.3-1.3-4.6-2-6.9
			c-1.2-4.1-7-3.1-7.2,1c-0.1,2.6-0.4,5.2-0.8,7.7l-2-9.4c-0.7-3.5-6.4-3.5-7.1,0c-0.1,0.6-0.3,1.3-0.4,1.9V374
			c-0.2-2.6-3.5-3.2-4.7-1.5c-1.1-2.2-5.2-1.7-5.4,1.4c0,0.6-0.1,1.2-0.2,1.8c-0.6-1-1.8-1.3-2.8-0.9c0.1-1.3,0.1-2.6,0.2-3.9
			c0.4-4.8-7.9-6-8.5-1.2c-0.1,0.5-0.2,0.9-0.2,1.4c-1.7-1.3-4.4-1.1-6,0.5c-0.7-3.4-6-3.8-7.1-0.1c0,0.1,0,0.1,0,0.2
			c-1.7-0.7-3.9-0.3-5.2,1.4c-1.2-1.4-3.2-1.7-4.9-1c-1.4-2.3-4.6-3.7-6.6-1.9c0-0.3-0.1-0.6-0.1-0.9c-0.3-4.6-6.6-5.6-8.1-1.1
			c-0.4,1.2-0.8,2.4-1.2,3.5c-0.1-0.4-0.3-0.8-0.4-1.2c-0.6-1.8-3.2-2.9-4.6-1.2c-1.6,1.9-3.2,3.7-4.7,5.6c-0.3-0.7-0.7-1.4-1-2.1
			c-0.7-1.5-2.7-1.4-3.7-0.5c-2.2,2.2-3.3,1.7-3.3-1.5c-0.4-1.2-1.9-2.1-3.1-1.2c-3.4,2.5-3.3,2.6-5.2-1.2c-0.5-0.9-2-1.4-2.8-0.7
			c-2.7,2.8-3.2,2.4-1.6-1.1c0.7-2.8-3.6-3.9-4.2-1.2c-1,4.5-1,3.8,0,8.3c0.4,1.7,2.4,1.8,3.6,0.9c3.3-2.5,2.6-2.3,4.5,1.4
			c0.5,0.9,1.9,1.3,2.8,0.7c3.3-2.4,2.6-3,3.5,0.8c0.3,1.1,1.6,1.9,2.7,1.5c2.1-0.6,3-0.9,3.9-1.4c0.4,1,0.8,2,1.3,3
			c0.6,1.5,2.9,1.6,3.9,0.5c1.2-1.3,2.5-2.6,3.7-3.9c0.4,2.5,0.8,5,1.3,7.5c0.6,3.2,4.2,3.3,6.2,1.6c0,0.3,0.1,0.6,0.1,0.9
			c0.4,3,4.6,3.9,6.8,2.3c1.2,2.3,4,3.1,6.1,2c1.4,2.7,5.4,2.6,7.4,0.3c1.1,0.8,2.6,1,3.8,0.5c0.1,0.5,0.1,1.1,0.2,1.6
			c0.6,4.2,6.7,3.5,7.8,0c0.1-0.2,0.1-0.5,0.2-0.7c0.8,2.5,3.5,3.1,5.7,2.2c0.1,0.8,0.2,1.5,0.4,2.3c0.7,3.9,6.7,3.6,7.6,0
			c0-0.1,0-0.2,0.1-0.3c1.5,0.2,3.1-0.6,3.8-2.3c0.1-0.3,0.2-0.7,0.3-1c0,0.2,0.1,0.3,0.1,0.5c0.4,2.1,2.9,2.3,4.3,1.1
			c1.3,2.4,5.2,2.6,6.1-0.6c0.4-1.5,0.8-3.1,1.1-4.6c0.6,2.9,1.2,5.7,1.8,8.6c0.8,3.8,6,3.2,7.1,0c0.8-2.4,1.5-4.7,2.2-7.1
			c0.1,0.5,0.3,1,0.4,1.6c0.8,3.1,5.8,4.1,7.2,0.9c0.7-1.5,1.4-3.1,2-4.6c0.2,0.8,0.4,1.7,0.6,2.5c0.7,3.2,5.1,3.9,7.2,1.9
			c2.4,1.2,6,0.3,6.6-2.6c0-0.2,0.1-0.3,0.1-0.5c0.4,1.5,0.8,2.9,1.2,4.4c1.2,4.2,8.2,4.7,9.1,0c0.2-1,0.3-2,0.5-3
			c0.3,1.1,0.6,2.1,0.9,3.2c1.1,4.2,8.4,4.8,9.1,0c0.1-0.5,0.2-1,0.2-1.6c0.2,0.7,0.5,1.5,0.7,2.2c1.4,4.2,7.1,4.2,8.5,0
			c0-0.1,0.1-0.2,0.1-0.3c1.6,2.3,5.1,1.9,7-0.3c1.5,0.7,3.3,0.8,4.6,0.1c1.8,2.9,7.3,2.7,8-1c1.5,3.3,7,2.2,7.1-1.7
			c0-1,0.1-2.1,0.1-3.1c2.4,2.6,7.5,1.8,7.5-2.7c0-0.5,0-1.1,0-1.6c1,0.6,2.2,0.7,3.3,0.4c2.4,3.3,8.2,2.3,8.3-2.5c0-0.5,0-1,0-1.5
			c0.2,0,0.4,0,0.7,0c0.9,3.1,6,2.1,6-1.1c0-1.7,0-3.4,0.1-5.2C358.6,374.4,358.1,373.7,357.3,373.2z"/>
		<path class="st0" d="M366.1,365.1c-0.2-0.7-0.8-1.2-1.5-1.4c-0.7-2.8-1.4-5.7-1.8-8.6c-0.5-3.1-5.5-2.3-5.4,0.7c0,0.4,0,0.9,0,1.3
			c-1.4-0.1-3.1,1.1-2.4,2.7c0.6,2.5,1.2,5,1.7,7.5c0,0.1,0,0.2,0,0.2c-0.5-1.6-2.8-0.9-2.5,0.8c0.6,3.6,1.7,7,2.8,10.5
			c0.7,2.2,3.7,1.9,4.2-0.2c1.5,3.1,7,2.3,6.8-1.5C367.8,372.9,367.4,369,366.1,365.1z"/>
		<path class="st0" d="M354.7,355.2c-5.5,0-5.5,8.6,0,8.6C360.2,363.8,360.2,355.2,354.7,355.2z"/>
		<path class="st0" d="M354.7,355.2c-5.5,0-5.5,8.6,0,8.6C360.2,363.8,360.2,355.2,354.7,355.2z"/>
		<path class="st0" d="M382,354.9c-0.5-1.3-1-2.5-1.5-3.6c0.2-0.6,0.4-1.3,0.2-2c-0.1-0.8-0.3-1.5-0.4-2.3c1-1.2,1.3-2.9,0-4.4
			c-0.8-1.5-1.6-2.9-2.5-4.4c-0.7-1.9-2.5-2.5-4.1-2.2c-6-6.2-12-12.6-18.8-18c-3-2.4-7.3,1.5-4.3,4.3c4.1,5,8.8,9.5,13.5,13.9
			c0.8,1,1.6,1.9,2.4,2.9c-1.4,0.6-2.3,1.9-1.7,3.7c0.5,1.5,1.1,3,1.6,4.5c-1,0-2.1,0.8-1.9,2.2c0.2,0.9,0.3,1.7,0.4,2.6
			c-1.3-0.5-2.8,0.2-3,2c-0.5,5,0.8,9.1,3.1,13.6c1.3,2.6,4,2.3,5.6,0.7c1.6,0.8,4-0.6,3.7-2.9c-0.2-1.1-0.4-2.3-0.5-3.4
			c1.7,0,3.5-1.6,3-3.6c-0.4-1.6-0.9-3.2-1.3-4.7c0.1-0.1,0.2-0.1,0.4-0.2c0.4,0.9,0.8,1.8,1.2,2.8
			C378.2,359.4,383.2,358.1,382,354.9z"/>
		<path class="st0" d="M393,253.9c-0.2-6.2-1.5-11.3-4.2-16.8c-1.8-3.6-7.5-0.4-5.5,3.2c0.8,1.2,1.4,2.3,2,3.6
			c-1.1,0.6-1.9,1.7-1.5,3.1c0.2,0.5,0.4,1,0.5,1.6c-0.2,0.4-0.4,0.8-0.3,1.4c0.1,1.6,0.2,2.5,0.3,3.3c-0.5,0.1-0.9,0.4-1.3,0.7
			c-0.1-0.2-0.1-0.4-0.2-0.6c-1.2-3.1-6.1-1.9-5.1,1.4c0.5,1.8,1,3.5,1.4,5.3c-1.3-0.3-2.7,0.3-3.2,1.5c-0.2-0.5-0.4-1.1-0.5-1.6
			c-0.9-2.8-5-1.7-4.4,1.2c0.5,2.6,0.9,5.1,1.3,7.7c-0.6-1.1-1.1-2.3-1.7-3.4c-1.2-2.3-4.2-0.6-3.9,1.6c0.8,4.5,1.2,8.9,1.5,13.3
			c-1.7-3-3.2-6.1-4.6-9.5c-0.8-1.9-4.3-2-4,0.5c0.5,3.8,0.6,6.9,0.3,10.2c-1.4-2.4-3-4.8-4.9-7.1c-1.8-2.3-4.6,0.3-4.3,2.5
			c0.3,2.2,0.5,4.3,0.6,6.4c-0.7-1.5-1.3-3-2-4.5c-1.3-3-6-2.9-6,0.8c0,3.4-0.1,6.6-0.2,9.8c-0.8-2-1.6-3.9-2.4-5.9
			c-1.2-3-6.5-3-6.2,0.8c0.2,3.1,0.2,6-0.2,8.8c-0.8-1.7-1.6-3.3-2.4-5c-1.5-3.1-5.6-0.7-5.2,2.2c0,0,0,0,0,0.1
			c-0.4-1.3-0.8-2.5-1.2-3.7c-0.7-2.3-3-2.6-4.5-1.6c-1.1-0.8-2.7-0.7-3.7,0.2c-1.3-2.6-5.3-2.5-6.5,0c0-0.1-0.1-0.2-0.1-0.2
			c-1.2-2.8-5-1.6-5.8,0.8c-1.8-1.1-4.6-0.9-5,1.8c-0.1,0.5-0.1,0.9-0.2,1.4c-1.3-2-4.5-1.4-5.2,0.8c-0.1,0.1-0.1,0.2-0.2,0.4
			c-0.3-0.6-0.6-1.2-0.9-1.7c-1.4-2.4-4.7-1.7-5.5,0.7c-0.1,0.4-0.2,0.7-0.4,1.1c-0.3-0.4-0.6-0.8-0.9-1.1c-1-1.3-3-0.9-4,0
			c-0.4,0.3-0.7,0.6-0.9,0.9c-0.2-0.3-0.4-0.6-0.6-0.9c-0.9-1.6-3.1-1.7-4.4-0.7c-1.1-0.4-2.5-0.2-3.4,0.5c-1.4-1.2-3.1-1-4.3,0
			c-0.7-0.2-1.4-0.3-2-0.1c-2.8,1.3-5.5,1.7-8,1.3c-2.2-1.4-4.4-2.7-6.6-4.1c-3.4-2.1-6.5,3.2-3.1,5.4c0.4,0.3,0.9,0.6,1.3,0.8
			c0.1,0.9,0.6,1.8,1.6,2.2c0.2,0.1,0.5,0.2,0.8,0.2v0.1c1.6,0.7,3.3,1.3,4.9,2c1.3,0.5,2.5,0,3.1-0.9c3.3,0.4,6.3,0.8,6.7,1.4
			c1.3,1.7,3.1,1.9,4.5,1.2c1.3,0.6,2.9,0.4,3.9-0.6c1.3,0.7,3.1,0.4,3.9-0.8c0,0.1,0.1,0.1,0.1,0.1c1.4,1.5,4.2,0.8,4.7-1.2l0,0
			c0.4,0.6,0.8,1.1,1.2,1.7c1.5,2.1,4.4,1.8,5.3-0.6c0.2,0.4,0.5,0.9,0.7,1.3c1.1,1.8,4.2,2.1,5.2,0c0.1-0.3,0.3-0.5,0.4-0.8
			c0.6,1.3,1.3,2.5,1.9,3.8c1,2.1,3.6,1.8,5,0.4v0.1c1,2.6,4.1,2.8,5.4,0.9c0.1,0.4,0.2,0.7,0.2,1c0.5,2.8,5.3,2.9,5.8,0
			c0.1-0.8,0.2-1.7,0.3-2.5c0.3,0.7,0.6,1.4,1,2.1c0.8,1.6,2.3,1.7,3.6,1.1c0.1,0.3,0.2,0.6,0.3,0.9c1.1,3,5.4,2.6,5.6-0.8
			c0-0.4,0-0.7,0-1.1c0.2,0.5,0.4,1,0.6,1.5c0.9,2.5,4,1.9,4.4-0.6c0.1-0.6,0.1-1.2,0.2-1.7c0.2,0.4,0.4,0.9,0.6,1.3
			c1.2,2.8,4.9,1.4,5.8-0.8c0.8-2,1.3-3.8,1.8-5.6c0.6,1.4,1.2,2.9,1.8,4.3c1,2.5,5.2,3.3,5.9,0c0.7-3.4,1.2-6.6,1.5-9.9
			c0.8,1.7,1.6,3.3,2.4,5c1.3,2.7,5,1.1,5.1-1.4c0.2-3.3,0.2-6.5,0-9.7c0.7,1.4,1.3,2.8,1.9,4.4c0.9,2.2,4.4,2.7,5,0
			c0.4-2,0.7-3.8,0.9-5.7c1.2,2.7,2.6,5.4,4.2,8.1s6.2,1.6,6-1.6c-0.1-1.2-0.2-2.4-0.3-3.6c1.2,2.1,5,1.4,4.9-1.4
			c0-0.6-0.1-1.3-0.1-1.9c0.5,1.1,1,2.3,1.5,3.4c1.2,2.5,5.5,1.3,5.3-1.4c-0.2-1.7-0.4-3.4-0.6-5.1c1.5,0.1,2.9-0.7,2.7-2.6
			c0-0.3-0.1-0.5-0.1-0.8l0,0l0,0c-0.2-1.8-0.5-3.6-0.8-5.4c0.9-0.3,1.7-1.1,1.7-2.5c0-0.1,0-0.1,0-0.2c1.3-0.3,2.4-1.3,2.5-2.8
			c0.1-2.4,0-4.7-0.1-7.1c0.4-0.5,0.7-1.1,0.6-2c-0.1-0.6-0.1-1.2-0.2-1.8C392.4,255.7,393,254.9,393,253.9z"/>
		<path class="st0" d="M379.9,219c-0.6-1.9-1.2-3.8-2-5.7c-0.3-0.8-1.2-1.5-2.1-1.2c-6.9,2.7-12.9-1.7-19.5-4.1
			c-4.6-1.7-8-2.1-12.7-2.2c-8.5-0.2-16.2-1.3-24.7-2.7c-12.6-2.1-25.1-3.8-37.8-4.7c-3.5-0.3-26.9,0.3-28.3-1.5
			c-0.9-1.3-2.3-1.4-3.6-0.5c-1.2,1-2.5,2-3.7,3c-1,0.8,0.1,2.3,1.2,2c1.2,0.1,2.4,0.2,3.6,0.3c0.4,0.8,1.3,1.2,2.1,1.2
			c27.7,0.1,54.6,5.6,82.4,8.1c3.3,0.3,6.2-0.5,9.3-0.3c6.9,0.3,13.4,2.2,19.6,4.8c1.5,0.6,4,2.2,5.5,2.4c4.9,0.6,4.7-2.9,7.7,2.2
			C377.9,221.7,380.4,220.7,379.9,219z"/>
		<path class="st0" d="M385.9,217c-0.2-0.8-1.1-1.3-1.9-1.2c0-0.1-0.1-0.3-0.1-0.4c-0.5-1.7-3.4-1.5-3.2,0.4c0.1,1.4,0.5,2.7,1,4
			c0.4,1,1.8,1.2,2.7,0.7C385.5,219.8,386.2,218.5,385.9,217z"/>
		<path class="st0" d="M381.1,208.4c-5.5,0-5.5,8.6,0,8.6S386.7,208.4,381.1,208.4z"/>
		<path class="st0" d="M381.1,208.4c-5.5,0-5.5,8.6,0,8.6S386.7,208.4,381.1,208.4z"/>
		<path class="st0" d="M460.7,209.8c-8.1,1.7-15.4,1.1-23.5,1.4c-2.6,0.1-5.9,1.5-7.9-0.1c-0.8-0.6-1.9-1.2-3-0.8
			c-4.4,1.9-3.4,1.6-7.8,0.3c-1.3-0.4-2.5,0.3-3.2,1.3c-1.5,2.1-3.9,0.4-5.7,0.6c-2.8,0.4-4.1,4.8-6.4,1c-0.9-1.4-2.7-1.3-3.6,0
			c-1.1,0.1-2.1,0.3-3.2,0.4c-0.5-1.2-2.5-1.1-3,0c-0.3,0.6-0.6,1.1-0.9,1.7c-0.4-1-0.9-2.1-1.4-3.3c-0.8-1.7-2.9-1.2-3.7,0.1
			c-0.2-0.7-0.4-1.4-0.6-2.1c-1-3.7-6.5-2.1-5.7,1.6c0.9,4.2,1.7,8.5,2.6,12.7c0.9,4.1,6.5,2.5,6.4-1.3c1.3,1.4,4,1.2,4.5-1
			c0.3-1.3,0.6-2.7,0.9-4c0.6,0.2,1.5,0.3,2.8,0.9c-0.3-0.1,3.8-0.2,2.6-0.5c0.6,0.1,3.8,1.9,4.1,1.9c0.8,0.3,1.7,0,2.3-0.6
			c2.6-2.6,10.4-2.6,13.1-0.5c0.9,0.7,2.2,0.5,3.1,0c4.5-2.4,3.2-0.6,8.7-0.5c8.7,0.2,21.3-2.4,29.3-5.8
			C463.7,212.4,463,209.3,460.7,209.8z"/>
		<path class="st0" d="M506.7,197.7c-5.4-0.6-11.2,1.6-16.5,2.9c-6.1,1.5-11.7,3.7-17.6,5.9c-1.1,0.4-1,2,0.3,2.1
			c6.1,0.1,11.9,0.2,17.9-0.9c5.7-1,12.4-1.6,17.2-5C510.3,201.1,509.3,198,506.7,197.7z"/>
		<path class="st0" d="M92.8,64c0.1,0.1,0.2,0.3,0.3,0.4c-0.2,1.2,0.1,2.4,0.9,3.4c-0.2,0.6-0.2,1.2-0.1,1.8
			c5-1.6,10.1-2.7,15.3-3.4c0.1-0.6,0.1-1.1,0-1.7c0.3-0.9,0.2-1.9-0.1-2.8c0.2-0.6,0.2-1.1,0.2-1.7c-6.4,0.9-12.8,1.4-19.2,1.5
			C90.6,62.7,91.5,63.7,92.8,64z"/>
		<path class="st0" d="M110.3,71.7c-5.9,0.9-11.7,2.1-17.4,4.1c0.4,0.7,1,1.4,1.7,1.8c-1.4,3.1,1.1,7.4,5.1,6.2c1.4-0.4,2.8-1,4-1.6
			c1.6-0.3,3-0.1,5,0.2c4.4,0.6,5.3-4.9,2.8-7.6C111.5,73.7,111.1,72.5,110.3,71.7z"/>
		<path class="st0" d="M86.2,50.2c-0.6,1-0.6,2.3,0,3.3c-0.3,0.8-0.3,1.6-0.1,2.4c0.1,0,0.2-0.1,0.3-0.1c6.3-0.1,12.6-0.8,18.8-1.5
			c-0.3-0.2-0.5-0.5-0.8-0.7c-0.6-1.8-2.3-3.1-4.6-2.6c-0.3,0.1-0.6,0.1-0.8,0.2c-0.1-0.2-0.3-0.4-0.5-0.6c0.1-0.6,0-1.2-0.2-1.7
			c0-0.1,0.1-0.1,0.1-0.1c0.7-0.8,1-2,0.8-3.1c0.7-0.5,1.5-1,2.2-1.6c3.3-2.3,0.4-7.5-3.2-5.4c-4.6,2.6-9.2,4.9-14,7.2
			C81.4,47.2,83.5,50.9,86.2,50.2z"/>
		<path class="st0" d="M95.5,94.1c0.9,0.3,1.7,0.5,2.6,0.8c0.3,1,1,1.8,2,2.2c-1.1,1.7-0.9,4.1,0.7,5.4c-0.7,0.8-1.1,1.8-1.2,2.8
			c5.9-0.3,11.8-0.8,17.7-1.2c-0.4-0.4-1-0.8-1.6-1c0-0.4,0-0.9-0.2-1.2c-0.5-1.2-1.1-2.2-1.8-2.9c0.6-0.4,1.2-0.8,1.8-1.3
			c2.1-1.7,1.3-4.9-0.7-6.3c0.4-1.1,0.4-2.3-0.1-3.4c2.6-2.4,1.8-7.9-2.5-7.4c-0.4,0-0.7,0.1-1.1,0.2l0,0l0,0
			c-4,0.5-7.6,1.3-11.5,2.7c-1.1,0.4-1.9,1.2-2.3,2.1c-0.9,0.4-1.9,0.9-2.8,1.4C91.4,88.5,92.4,93,95.5,94.1z"/>
		<path class="st0" d="M117.6,114.1c0.5-0.9,0.7-1.9,0.6-2.9c-6.9,0.4-13.9,0.9-20.9,1.1c-0.1,0.9,0,1.7,0.5,2.5
			c-2.5,1-4.3,3.9-3.3,6.1c-1.6,2.3-1.1,6.2,1.8,7.4c-0.5,1.9,0.1,4.1,1.9,5.1c0,0.2-0.1,0.4-0.1,0.6c-0.1,0-0.2,0.1-0.3,0.1
			c-1.8,0.6-2.8,1.9-3,3.3c-0.6-0.1-1.3-0.2-1.9-0.2c-1.1-0.1-2,0.2-2.7,0.7c-1.3,0-2.6,0-3.9-0.1c-1.1,0-2.1,0.3-2.8,0.9
			c-1.3-0.3-2.5-0.6-3.8-0.9c-4.1-1.1-7,5.1-3,7.1c7,3.4,13.9,5.3,21.7,5.9c0.7,0.1,1.4-0.1,2-0.3c1.5,0.2,3,0.4,4.4,0.5
			c2.8,0.2,4.2-4.3,1.5-5.5c-0.3-0.1-0.5-0.2-0.8-0.3c0.5-0.5,0.9-1.1,1.2-1.9c0.7-1.7,0.6-3.2,0.1-4.4c0.5-0.4,0.8-1,1-1.6h0.1
			c1.8,0,3.2-1.2,3.9-2.7c0.1,0,0.1,0,0.2,0c3-0.1,4.8-2.7,4.6-5.2c2.3-1.4,2.3-5.1,0.3-7.3C119.7,120.6,120.8,115.8,117.6,114.1z"
			/>
		<path class="st0" d="M97.1,157.4c-2.3-0.6-4.8-0.9-7.3-1c-1.1-0.2-2.2-0.3-3.3-0.5c-1.5-0.6-3.1-0.8-5-0.7c-2,0.1-3.4,1.7-3.7,3.5
			c-0.2,0.1-0.3,0.1-0.5,0.2c-2.8,1.5-1.5,6,1.6,6c2.7-0.1,5.2-0.6,7.9-0.5c2.8,0,5.4,0.4,8.1,1C100,166.2,102.3,158.7,97.1,157.4z"
			/>
		<path class="st0" d="M75.6,198.6c0.7-1,0.9-2.4,0.7-3.7c1.5-0.2,3.1-0.5,4.6-0.9c4.1-1.1,4.4-7.6,0-8.6
			c-5.2-1.2-10.4-1.5-15.8-0.8c-2.4,0.3-3.7,2.2-3.8,4.1c-0.1,0.2-0.1,0.4-0.2,0.6c-1.8,1-2.7,3.2-2.5,5.1c-0.2,0.2-0.3,0.4-0.4,0.6
			C64.1,195.8,69.9,197,75.6,198.6z"/>
		<path class="st0" d="M71.5,204.3c-4.8-1.2-9.6-2.3-14.5-3c-0.6,1.5-0.4,3.2,0.6,4.3c-1.9,2.1-1.2,6.4,2,7.1c1.5,0.3,2.6,0.4,4.1,0
			c0.8-0.2,1.5-0.8,2-1.5c1.1-0.5,2.2-1.1,3.2-1.9c1.7-1.2,2.2-3,1.9-4.7c0.2-0.1,0.4-0.2,0.6-0.3C71.4,204.4,71.4,204.3,71.5,204.3
			z"/>
		<path class="st0" d="M54,259.4c0.1-1.9-0.9-3.8-2.9-4.4c-0.3-0.2-0.6-0.3-1-0.4c-3.4-0.8-6.9-1.7-10.3-2.5
			c-5.1-1.3-7.3,6.8-2.2,7.9c0.1,0,0.3,0.1,0.4,0.1c0,0.1,0,0.1,0.1,0.2c-0.2,0.2-0.5,0.4-0.8,0.6c-1.2,1-1.5,3-0.9,4.5l0,0
			c-1.8,1.6-1.7,4.8,0,6.4l0.1,0.1c-0.6,0.4-1.2,0.8-1.7,1.2c-2.5,1.9-3.3,6,0,7.8c0.1,0.1,0.3,0.2,0.4,0.2
			c-0.9,2.8,0.4,6.2,4.2,6.1c3.1-0.1,5.6-0.8,8.3-2.3c2.2-1.2,2.6-3.5,1.9-5.5c0.3-0.2,0.7-0.4,1-0.7c2.3-1.6,2.8-5,1.1-7
			c1.5-1.2,1.6-3.8,0.7-5.5c0.1,0,0.1-0.1,0.2-0.1C55.1,264.6,55.4,261.5,54,259.4z"/>
		<path class="st0" d="M59.6,227.1c0-0.9-0.3-1.7-0.8-2.3c-0.1-1.6-1-3.2-2.8-3.7c-2.5-0.8-4.8-0.8-7.4-0.4
			c-2.6,0.4-3.5,3.1-2.9,5.4h-0.1c-3.8-0.3-4.5,4.5-2.1,6.5c0.3,1.2,1.1,2.2,2.5,2.4c3.1,0.4,5.9,0.3,9,0.1c2.5-0.1,4.1-2.9,3.2-4.9
			C59,229.4,59.6,228.3,59.6,227.1z"/>
		<path class="st0" d="M79.3,176.6c-1.4,0.5-2.9,0.9-4.4,0.6c-3.3-0.6-3.9,4.4-0.6,4.5c2.4,0.1,4.8-0.6,6.6-2.3
			C82.2,178.4,81,176.1,79.3,176.6z"/>
		<path class="st0" d="M80.3,174.1c-1.9-1.1-4.4-0.4-5.5,1.5c-0.6,1.1-1.1,4.2,0.4,5c2.2,1.1,4.6,1.8,6.3-0.5
			C82.9,178.2,82.4,175.3,80.3,174.1z"/>
		<path class="st0" d="M61.3,216.1c-2.9-1.5-6.2-2.2-9.4-1.8c-0.6,0.1-1.1,0.3-1.7,0.5C53.9,215.4,57.6,215.8,61.3,216.1z"/>
		<path class="st0" d="M49.3,221.2c-0.8,2.6,1.1,6.3,4.3,5.6c1.6,0,3,0.3,4.7,0c1.4-0.3,2.2-1.3,2.4-2.5c0.6-0.3,1.3-0.6,1.9-1
			c0.2-0.1,0.3-0.3,0.5-0.4C58.4,222.4,53.8,221.9,49.3,221.2z"/>
		<path class="st0" d="M52.5,285c-3.6-3.6-9.3-3.6-14-2.4c-4.7,1.3-2.7,8.7,2,7.4c3.4-1,6.4-0.1,9.8,0.2
			C53,290.4,54.2,286.8,52.5,285z"/>
		<path class="st0" d="M48.8,291.2l-0.1-0.1c1.3-1.3,1.7-3.4,0.1-4.9c-0.9-0.7-1.8-1.4-2.8-2c-0.4-0.6-1.1-1-1.9-1.1
			c-3.7-1.9-7.9-3-12.1-2.9c-4.5,0.1-4.8,5.9-1,7.4c1.2,0.5,2.4,0.9,3.7,1.2c-0.3,1.2,0,2.4,1.4,3.1c0.8,0.4,1.5,0.7,2.3,0.9h0.1
			c-3.4,1.2-4.3,7.5,0.2,8.4c1.4,0.3,2.4,1,4,1c1.4,0,3.2-1.1,3.5-2.6c0,0,0,0,0-0.1c1.6-1,2.9-2.3,4-3.9
			C51,294.2,50.2,292.2,48.8,291.2z"/>
		<path class="st0" d="M155.4,414c-0.3-1-1.2-1.7-2.1-2c-1.3-0.4-2.2-0.1-3.4,0.4c-0.2,0.1-0.5,0.2-0.7,0.2c-1.4-1.9-5-2-5.8,1
			c-0.2,0.8-0.5,1.6-0.7,2.5c-0.8,2.7,1.7,4.4,4.1,4.1C149.8,419.7,156.6,418.5,155.4,414z"/>
	</g>
</g>
<g id="DESIGNED_BY_FREEPIK">
</g>
<path class="st0" d="M34.2,14.5c0,0,5.5-14.9,42.6-13.3s93.6,6.6,122.6,42s24.4,78,7.4,100.3s-53.6,50.4-81.4,73.2
	S77,275.5,71,308.8s6.9,45.1,21.5,47c14.6,1.8,87.9-19.9,87.9-19.9l5.2-0.7c0,0-8.6,1.2-8.3-8.2s-3.9-19.5,1.7-32.6
	s18.5-33.8,51-38.8c0,0,4.4-1.3-9.8-5.5c-14.1-4.2-40-9.7-37.3-33.4c2.8-23.7,18.3-37.5,39.5-38.2c21.2-0.6,37.8-9.9,123.3,14
	c0,0,38,12.2,40.3,11.1c2.3-1,11.5,0.7,27.6,1.3c16.1,0.6,81.4-10.8,96.4-14.9s23.6-7.8,27.3-10.2c3.7-2.3,5.2-5.4,7.7-4.9
	c2.5,0.5,2.4,6.3,0,10.5c-2.4,4.2-23.8,19.3-36.4,23.3c-12.5,3.9-27.3,14.7-47.3,16.1s-29.3,5.2-76.1,3.8c0,0,8.3,9.9,10.3,16.3
	s9.2,20.6-0.2,37.8c-9.4,17.2-26.2,27.9-55.7,28.3c-29.5,0.4,0,0.5,0,0.5l-3.9,1.2c0,0,27.6,11.5,35.4,16.6s15.7,15.9,17.1,26.9
	c1.4,11,2.5,21.4-6.1,30.2c-8.6,8.9-19.8,30.5-70.1,27.9s-82.3-1.3-86.8-0.6c-4.5,0.7-63.3,6.6-80.1,7.2c-16.8,0.7-35.6,6.5-60.9,0
	c-25.3-6.5-49-17.7-57.3-27S2.1,365.4,3,334.5s8.7-62.5,11-70.6c2.3-8.1,3.7-19.6,1.3-46.2s-7.4-53.8,5.2-86.6
	c0,0,6.1-24.7,10.7-49.4s7.7-31.6,7.7-36.1s-3.5-6.1-3.4-11.1c0,0,7,3.2,9.3,2.6c2.2-0.5,19.8-3,27.3-3.9s26-3.3,26-3.3
	s-19.7-3-20.6-3.8c-0.8-0.8-8.6-1.4-18.8-1.4s-17.4,1.8-20.3-1C35.5,20.9,34.2,14.5,34.2,14.5z"/>
</svg>
