<?xml version="1.0" encoding="utf-8"?>
<!-- Generator: Adobe Illustrator 16.0.0, SVG Export Plug-In . SVG Version: 6.00 Build 0)  -->
<!DOCTYPE svg PUBLIC "-//W3C//DTD SVG 1.1//EN" "http://www.w3.org/Graphics/SVG/1.1/DTD/svg11.dtd">
<svg version="1.1" id="Layer_1" xmlns="http://www.w3.org/2000/svg" xmlns:xlink="http://www.w3.org/1999/xlink" x="0px" y="0px"
	 width="766.932px" height="660.803px" viewBox="0 0 766.932 660.803" enable-background="new 0 0 766.932 660.803"
	 xml:space="preserve">
<path fill="#231F20" d="M605.925,589.937l1.633,9.789l4.348-2.719l-5.98,13.594l7.613-1.09c-5.98,3.807-5.98,13.051-5.98,13.051
	l6.523-1.633l-3.262,7.613l8.154-2.719l-4.893,7.068l4.893-1.631l-2.719,8.699l5.438-2.719l-2.176,9.244l4.895-4.895
	c0,0-1.086,12.506,7.07,15.225s34.27-0.84,34.27-0.84c11.617,0.625,21.732-9.49,21.732-9.49c25.555-15.768,3.807-32.08,3.807-32.08
	c-6.525-8.156-15.225-5.98-15.225-5.98s-2.719-2.719-9.244-44.043c-6.523-41.32-5.438-47.848-5.438-47.848
	c0,16.855,15.225,62.527,15.225,62.527s-1.086,5.984,3.262,15.227c4.352,9.242,40.238,14.68,40.238,14.68
	c15.768,0,26.641-8.699,33.711-27.186c7.066-18.486-23.928-25.012-30.992-28.818c-7.07-3.805-3.266-46.215-2.719-61.984
	c0.543-15.766-1.09-69.596,0-84.82c1.086-15.223-2.176-17.398-2.176-17.398l5.98,3.262l-2.719-11.418l6.525,3.262l-2.721-10.328
	l4.35,1.629l-1.629-10.328l5.438,2.172l-3.266-9.785l7.07,4.35l-5.98-10.875l7.066,2.719l-5.98-10.873l6.527,3.262
	c14.678-21.75,9.24-70.141,13.049-77.209c3.805-7.068,5.98-9.787,2.719-22.293c-3.266-12.506,2.719-21.205,5.98-30.99
	c3.26-9.789-4.352-19.031-4.352-19.031l7.611,1.631l-7.611-8.701l5.982,1.633l-2.174-9.244l7.064,4.35l-7.064-11.961l7.064,3.262
	c1.09-10.875-11.416-21.75-11.416-21.75l7.068,3.809c-5.436-12.508-10.873-16.855-10.873-16.855l7.066,4.348l-6.523-11.416
	l4.895,2.174l-7.07-13.593l5.438,3.263l-9.242-11.962l2.719,2.175c-1.633-10.874-7.068-15.225-7.068-15.225
	c13.049-20.661,2.174-34.798,1.631-41.866c-0.545-7.068,8.699-14.137,8.699-14.137l-16.857,4.35
	c-14.678-4.894-30.445,8.699-30.445,8.699s-6.527,0.544-21.205-3.806c-14.682-4.35-38.063-8.155-38.063-8.155
	C620.606,36.974,605.382,0,605.382,0c-4.35,9.244-3.807,25.012-3.807,25.012l-4.895-3.263l4.895,9.243l-5.98-1.631l10.875,11.418
	l-6.523-1.088l7.066,10.331h-6.523l9.24,11.962c0,0-13.049,13.593-17.396,28.274c-4.352,14.68-13.594,24.467-13.594,24.467
	s-76.666,34.254-104.395,41.322c-27.73,7.068-88.627,8.156-133.211,2.719c-44.585-5.436-103.851-9.244-121.794-8.699
	s-51.109,14.682-68.508,26.643c-17.4,11.961-26.644,11.418-26.644,11.418l3.264,1.631c-4.352,4.35-16.857,4.893-16.857,4.893
	c-25.554,4.352-46.759,70.684-51.652,89.172c-4.894,18.486-16.855,44.041-23.381,53.828c-6.524,9.787-14.136,20.66-14.136,20.66
	l6.524,1.633c-8.156,6.523-10.875,14.68-10.875,14.68l9.243-4.35l-6.524,9.244l6.524-3.264l-8.155,10.875l10.331-3.807
	l-4.894,10.875l9.242-7.068v7.611L46.437,376.8l1.632,9.785l10.874-22.836l0.543,5.438c7.069-7.066,16.313-21.748,16.313-21.748
	s0.543,13.592-11.962,25.01l-0.544,4.895l-4.35-1.633l0.543,9.246l-3.262-2.176c0,0,4.894,9.242-0.544,15.768
	c-5.437,6.525-14.136,14.137-14.136,14.137l3.261,7.611l-8.155,3.807l11.419,2.176l-16.313,5.436c0,0,1.632,5.438-7.068,9.789
	c-8.7,4.348-22.292,7.611-24.468,33.711c-2.174,26.098,12.507,88.625,12.507,96.781s9.243,27.186,57.09,21.75
	c0,0,8.699-1.633,9.787-9.244c0,0,5.981-1.631,5.438-10.875c0,0,7.612-7.068-2.719-12.506c0,0-23.923-8.156-23.923-18.486
	s0.543-25.012,5.979-29.904c5.438-4.895,14.68-5.438,20.117-10.875c5.438-5.438,22.294-6.523,30.992-11.418
	c8.7-4.895,16.855-6.523,34.254-17.941c17.4-11.418,17.943-25.012,40.236-30.449l12.506,3.805l-4.894,3.807l11.961,1.088
	c0,0-8.698,3.805-9.242,8.156c0,0,10.875,3.805,14.68,8.156l-8.698-1.088l8.698,8.154l-8.698-2.174l5.979,7.611l-9.243,0.543
	l10.331,6.527h-8.155l5.981,4.348l-4.894,0.545l3.806,7.611c0,0-3.806,3.262-7.612,5.98c0,0,9.243,1.09,12.505,8.156l-4.893,5.438
	l7.611,3.262l-3.805,1.09l5.979,4.891l-10.874,1.633l8.699,7.611l-5.98,1.088c0,0,3.262,3.262,13.593,21.75
	c10.331,18.484,38.062,82.645,101.676,97.867c0,0,9.788,6.527,20.662,0c0,0,7.069,5.982,10.874,0.545
	c0,0,12.506,0.545,22.293-13.049c0,0,14.137-3.807,4.893-14.137c-9.242-10.332-15.768-16.313-35.342-15.225
	c0,0-5.437,4.35-17.942-8.154c-12.505-12.508-36.43-34.256-35.885-44.586l4.349,5.438v-11.963c0,0-1.086-19.029-1.086-27.186
	l3.262,4.893v-14.135l5.437,6.523c0,0,2.176-5.438,1.631-14.68l3.807,3.805c0,0,1.087-8.156,1.632-16.855l3.262,5.98l2.176-19.029
	l3.262,4.893c0,0,3.324-9.973,1.983-20.156c-0.093-0.711-0.21-1.426-0.352-2.135c-2.176-10.875,4.348,7.611,4.348,7.611
	s-1.086-18.486-1.629-26.098l4.892,7.611c0,0,2.176-4.893,2.176-20.119c0,0,8.7,2.719,5.981,14.139c0,0,3.805-5.438,3.805-16.311
	c0,0,5.981,20.66,4.894,26.098c0,0,5.645-9.234,10.949-32.184c0.156-0.68-0.075,20.766-0.075,20.766s4.352-6.525,4.352-19.574
	c0,0,5.437,17.398,3.261,33.711c0,0,8.156-14.137,6.525-28.273l3.805,17.398l4.352-20.117c0,0,9.242,16.855,9.242,28.273
	c0,0,4.35-7.613,3.807-23.381c0,0,5.98,7.611,5.438,18.486c0,0,2.174-6.523,5.979-22.836l1.633,16.855l7.07-14.68
	c0,0,6.523,11.418,4.891,23.922c0,0,9.244-11.961,9.244-27.184l2.176,14.68c0,0,7.068,1.086,9.787-20.662l1.629,17.943l7.613-16.855
	v16.855l7.07-15.77l-0.543,15.77c0,0,6.523-19.031,5.436-30.992c0,0,2.174,13.594,2.719,23.922c0,0,8.697-4.348,11.416-20.66
	l2.719,15.225c0,0,2.719-13.049,11.965-24.467c0,0,2.719,12.504-1.09,21.203c0,0,12.506-11.961,13.592-25.555l1.633,15.225
	c0,0-1.086-13.592,7.611-21.205c0,0,7.07,7.613-1.086,24.469l8.699-10.875l-3.809,15.768c0,0,12.508-13.049,14.684-35.885
	c0,0,7.611,5.98,0.543,22.293l10.33-18.488c0,0,0,22.836-3.262,29.361l14.682-23.924l-7.07,19.574l10.332-12.504l-1.09,8.154
	l7.07-2.174l-5.438,5.436l5.98,3.807l-6.523,2.719l10.332,12.504l-4.895-1.086l6.523,8.699l-4.891-1.086l5.979,10.328l-6.525-1.086
	c0,0-1.629,5.98,5.982,19.574l-4.893,1.631l10.33,13.592l-4.895-2.719l8.156,15.77l-4.895-1.633c0,0,5.438,7.613,9.787,11.963
	l-4.893,1.088c0,0,4.35,10.332,9.24,14.68l-7.066-2.176c0,0,6.523,14.139,12.508,18.488l-4.352,1.086c0,0,4.352,6.525,9.242,10.875
	l-4.348,0.545l6.523,8.154l-3.805-0.543l4.895,9.242l-4.895-1.086l8.154,7.611h-7.068l8.701,6.525h-6.525L605.925,589.937z"/>
</svg>
