<?xml version="1.0" encoding="utf-8"?>
<!-- Generator: Adobe Illustrator 25.0.0, SVG Export Plug-In . SVG Version: 6.00 Build 0)  -->
<svg version="1.1" id="Layer_1" xmlns="http://www.w3.org/2000/svg" xmlns:xlink="http://www.w3.org/1999/xlink" x="0px" y="0px"
	 viewBox="0 0 400 400" style="enable-background:new 0 0 400 400;" xml:space="preserve">
<path d="M357.1,199c3.5,1.4,6.5,2.4,9.2,3.8c13.6,7.3,19.6,22.7,14.4,38.1c-15.5,46.3-45.5,79.4-90.2,99.3
	c-3.6,1.6-7.1,3.7-10.2,6.1c-13,9.9-25.7,20.1-38.6,30.1c-5,3.9-8.5,4.3-11.6,1.2c-3.7-3.6-2.5-7.4-0.3-11.3
	c2.8-4.7,5.3-9.5,8.6-15.3c-9.9,2.3-18.9,4.3-27.9,6.4c-16.2,3.8-32.4,7.7-48.6,11.4c-7.2,1.7-12.1-1.7-10.7-7.8
	c0.5-2.3,2.9-4.9,5.1-6c13.1-6.2,26.3-12,39.5-18c2-0.9,3.9-1.8,4.9-2.3c-0.2-3.9-1.6-7.8-0.3-10.1c1.4-2.5,5.3-4.1,8.4-5
	c8.6-2.5,17.3-4.5,25.5-6.5c0-8.1,0-15.7,0-23.7c-17.1-2.6-34.4-5.3-50.9-7.9c-4.9,6.7-9.3,14.3-15.3,20.3
	c-8.5,8.6-19,13.5-31.8,13.1c-17.8-0.5-35.7-0.2-53.5-0.1c-4.5,0-8-1.3-8.9-6.2c-0.8-4.2,1.4-7.3,6.3-8.7c9.4-2.6,18.9-5.2,29.3-8.1
	c-3.8-3.2-6.8-5.8-10-8.4c-3.2-2.6-4.8-5.7-2.9-9.6c2-4.2,5.7-4.8,9.8-3.7c7.7,2.1,15.4,4.2,23.1,6.5c3.5,1.1,5.1,0.4,5.9-3.4
	c2.1-10.1,4.7-20.1,6.9-30.2c0.3-1.3,0.1-3-0.6-4.1c-6.6-10.8-13.3-21.5-20.3-32c-1.3-1.9-3.7-3.9-5.9-4.3
	c-25-5.3-43.2-19.1-54-42.4c-0.7-1.6-1.9-3.1-3.2-4.4c-3.6-3.5-7.1-7.1-11-10.2c-11.7-9.3-20-21.2-27.2-34.1
	c-6.3-11.3-2.2-23.4,9.2-29.5c13.1-6.9,27.5-8.8,41.7-11.1c3.6-0.6,6.2-1.9,8.6-5c13.5-17.7,38.7-15.1,49.2,4.7
	c1.2,2.3,3.8,4.6,6.3,5.6c36.3,13.6,72.6,27.1,109,40.5c22.6,8.3,42.1,21.3,58.4,39c2.3,2.5,4.6,3.3,7.8,3.2
	c8.2-0.3,16.3,0.1,24.5-0.4c10.8-0.7,20,2.1,25.4,12.1C366,180.8,364.2,190.2,357.1,199z M261.1,343.2c10.3-10.8,23-15.7,35-22.2
	c34.8-18.6,58.2-47.1,70.5-84.5c4-12.2-3.3-22.5-15.9-22.6c-2,0-4-0.2-6,0c-5.2,0.5-9.1-1.4-12.7-5.3c-13.2-14.4-26.7-28.4-40-42.6
	c-15-16-32.6-27.8-53.2-35.3c-36.7-13.5-73.3-27.2-110-40.6c-5.9-2.1-9.7-5.3-12.4-11.1c-5.9-12.6-18.4-13.4-26.1-1.9
	c-3.2,4.9-7.2,7-12.9,8C63.7,87.6,49.6,88.5,37,95.4c-5.1,2.8-5.9,4.9-3.2,9.9c6.1,11,13.2,21.1,23.1,29.1
	c4.4,3.5,8.5,7.5,12.4,11.6c2.2,2.3,4.3,5.1,5.6,8c9.2,19.3,23.9,31.3,45.2,34.4c5.9,0.8,9.7,3,12.5,8.3c2.7,5.3,6.2,10.2,9.7,15.8
	c0.5-1.2,0.6-1.4,0.6-1.5c0-3.7,0-7.3-0.1-11c0-5.6,2.2-8.6,6.6-8.8c4.6-0.3,7.6,2.6,7.9,8.2c0.6,11.5,1,23,1.3,34.5
	c0.1,3.3-0.3,6.7-1,9.9c-2.2,10.1-4.9,20.1-6.9,30.2c-2,10.2-6.1,18-17.5,18.9c-0.3,2.7-0.5,4.9-0.9,8.1c5.1-0.7,10.2-0.4,14.4-2.2
	c13.6-5.7,21.9-16.3,23.3-31.1c0.8-8.4,0-16.9-0.5-25.4c-0.7-11.8-1.8-23.6-2.5-35.4c-0.3-4.3,2-7,6.3-7.6c4.2-0.6,7.4,1.9,8.2,6.2
	c0.3,1.5,0.2,3,0.3,4.5c1.2,16.3,2.4,32.6,3.7,48.8c0.3,4.3,4.3,9.1,8.5,9.7c14.6,2.3,29.2,4.5,43.3,6.6
	c6.4-10.4,12.4-20.6,18.8-30.5c8.9-13.7,23.1-21.4,36-30.3c3.5-2.4,7.2-1.2,9.5,2.4c2.3,3.6,1.6,7.2-1.8,9.8
	c-4.5,3.5-9.1,6.7-13.8,9.9c-7.6,5.2-14.6,11-19.4,19.1c-2.8,4.7-5.7,9.4-8.8,13.9c-7.3,10.5-9.1,22.3-9.2,34.7
	c0,4.7,2.6,7.2,7.4,7.4c11.9,0.6,22.3-3.1,31.1-11.1c6.2-5.6,12.1-11.4,18.2-17.1c11.6-11,23.1-22.1,35-32.8c1.9-1.8,5.8-2.5,8.4-2
	c1.9,0.4,4.4,3.7,4.4,5.8c0,2.6-1.8,5.7-3.7,7.6c-16.7,16.1-33.7,31.8-50.4,47.8c-13.2,12.6-28.9,18.2-47,16.3
	c-10.4-1.1-19.2,3.9-28.8,5.3c0.3,3,0.6,5.3,0.9,7.9c8.2-1.9,16.3-3.9,24.4-5.7C256.8,331.6,259.9,333.7,261.1,343.2z M321.1,173.5
	c-0.1,0.4-0.3,0.9-0.4,1.3c4.4,4.6,8.8,9.3,13.2,13.9c5.2,5.5,5.2,5.6,11,1c3.1-2.4,4.9-5.4,3.8-9.5c-1.2-4.2-4.1-6.5-8.3-6.7
	C333.9,173.3,327.5,173.5,321.1,173.5z"/>
<path d="M76.4,105.4c0-9.8,7.1-17,16.8-17.1c9.9-0.1,17.5,7.4,17.5,17.1c-0.1,9.2-8.1,17.2-17.2,17.2
	C84.1,122.6,76.4,114.8,76.4,105.4z M97.4,105.2c-1.8-1.2-3-2.6-4-2.5c-1,0.1-2.5,1.8-2.5,2.7c0,1,1.6,2.6,2.6,2.6
	C94.5,108.1,95.6,106.6,97.4,105.2z"/>
</svg>
