<?xml version="1.0" encoding="utf-8"?>
<!-- Generator: Adobe Illustrator 16.0.0, SVG Export Plug-In . SVG Version: 6.00 Build 0)  -->
<!DOCTYPE svg PUBLIC "-//W3C//DTD SVG 1.1//EN" "http://www.w3.org/Graphics/SVG/1.1/DTD/svg11.dtd">
<svg version="1.1" id="Layer_1" xmlns="http://www.w3.org/2000/svg" xmlns:xlink="http://www.w3.org/1999/xlink" x="0px" y="0px"
	 width="110.134px" height="128.493px" viewBox="0 0 110.134 128.493" enable-background="new 0 0 110.134 128.493"
	 xml:space="preserve">
<g>
	<path fill="#680101" d="M103.929,86.119c-0.003-0.001-0.006-0.003-0.009-0.005c-0.061-0.007-0.109-0.012-0.167-0.018
		c-0.053-0.006-0.094-0.011-0.144-0.015c-0.133-0.014-0.249-0.024-0.352-0.032c-0.223-0.224-0.55-0.453-1.035-0.661
		c0.003,0,0.005,0,0.008,0c-0.237-0.101-0.509-0.198-0.827-0.286c-0.274-0.077-0.611-0.106-0.977-0.111
		c-0.044,0-0.083-0.004-0.128-0.004c-0.356,0.003-0.748,0.038-1.159,0.095c-0.065,0.009-0.129,0.018-0.196,0.027
		c-0.414,0.064-0.844,0.149-1.283,0.254c-0.063,0.016-0.125,0.031-0.188,0.048c-0.457,0.113-0.917,0.242-1.372,0.389
		c-0.021,0.007-0.042,0.015-0.063,0.021c-0.479,0.155-0.949,0.325-1.394,0.503c-0.003,0.001-0.006,0.002-0.009,0.003
		c-0.064,0.026-0.126,0.053-0.189,0.078l0,0c-0.001,0.001-0.003,0.001-0.004,0.002c-0.301,0.125-0.584,0.252-0.854,0.381
		c0.331-0.754,0.632-1.504,0.901-2.25c0.064-0.179,0.134-0.356,0.194-0.534c0.352-1.024,0.647-2.038,0.896-3.039
		c0.046-0.184,0.086-0.364,0.129-0.546c0.236-1.021,0.437-2.03,0.581-3.016c0.008-0.056,0.013-0.107,0.021-0.162
		c0.14-0.986,0.234-1.947,0.296-2.888c0.005-0.068,0.018-0.144,0.022-0.212c-0.002,0.013-0.007,0.024-0.009,0.036
		c0.108-1.773,0.093-3.45-0.006-5.006c0.002-0.014,0.004-0.027,0.005-0.042c-0.004-0.069-0.014-0.13-0.019-0.198
		c-0.051-0.736-0.117-1.444-0.198-2.119c-0.017-0.142-0.036-0.272-0.055-0.411c-0.078-0.596-0.163-1.166-0.257-1.704
		c-0.017-0.097-0.031-0.197-0.049-0.292c-0.037-0.209-0.076-0.404-0.115-0.604c0.054-0.246,0.094-0.504,0.116-0.773
		c0.004-0.051,0.001-0.104,0.004-0.155c0.019-0.293,0.019-0.593,0.003-0.899c-0.006-0.125-0.018-0.247-0.029-0.373
		c-0.023-0.247-0.057-0.49-0.1-0.734c-0.021-0.122-0.039-0.241-0.064-0.361c-0.071-0.325-0.155-0.643-0.259-0.943
		c0.001,0.007,0.002,0.014,0.003,0.021c-0.261-0.761-0.615-1.423-1.052-1.843c-0.725-0.698-2.511-0.986-4.349-1.087
		c0-0.001-0.001-0.001-0.001-0.002c-0.037-0.002-0.074-0.002-0.112-0.004c-0.086-0.004-0.171-0.01-0.257-0.013
		c-0.173-5.078-0.59-8.355-0.59-8.355c-0.033-0.337-0.13-0.656-0.227-0.975c0.009,0.011,0.021,0.018,0.031,0.029
		c-0.014-0.045-0.041-0.086-0.056-0.131c-0.075-0.231-0.176-0.451-0.28-0.671c-0.075-0.159-0.148-0.316-0.237-0.469
		c-0.087-0.149-0.174-0.296-0.273-0.439c0.009-0.006,0.019-0.015,0.027-0.021c0.205-0.15,0.416-0.321,0.635-0.499
		c0.143-0.115,0.277-0.218,0.423-0.345c0.352-0.306,0.708-0.641,1.059-1.015c0.093-0.099,0.177-0.215,0.268-0.318
		c0.261-0.295,0.516-0.601,0.757-0.935c0.129-0.177,0.24-0.37,0.361-0.558c0.125-0.196,0.263-0.376,0.378-0.584
		c-0.017,0.008-0.036,0.013-0.053,0.02c0.436-0.779,0.817-1.611,1.032-2.556c0.646-2.853,1.366-7.231,1.711-11.429
		c0.417,0.078,3.671,0.66,6.74,0.476c3.283-0.199,2.44-2.507,2.906-2.114c0.464,0.394,1.265,0.426,3.006,0.979
		c1.742,0.554,2.923-5.412,2.646-6.067c-0.011-0.023-0.021-0.041-0.033-0.055c-0.004,0.012-0.008,0.022-0.011,0.034
		c-0.339-0.354-1.588,2.74-2.469,3.5c-0.198,0.171-0.321,0.211-0.414,0.184c-0.078-0.022-0.133-0.096-0.172-0.223
		c-0.004-0.014-0.007-0.033-0.012-0.048c-0.037-0.143-0.066-0.325-0.1-0.542c-0.001-0.003-0.002-0.008-0.003-0.011
		c-0.005-0.037-0.013-0.073-0.019-0.112c-0.019-0.118-0.039-0.235-0.066-0.363c-0.01-0.045-0.022-0.091-0.034-0.137
		c-0.014-0.056-0.028-0.107-0.045-0.165c-0.02-0.072-0.035-0.142-0.06-0.215c-0.06-0.175-0.133-0.351-0.228-0.521
		c-0.053-0.093-0.105-0.162-0.16-0.221c0.003,0.014,0.003,0.028,0.006,0.042c-0.515-0.574-1.147,0.271-2.175,1.005
		c-0.022,0.015-0.044,0.03-0.065,0.045c-0.379,0.264-0.81,0.505-1.307,0.645c-1.775,0.497-6.191,1.612-7.789,1.704
		c0.008-0.168,0.021-0.342,0.028-0.509c-0.39,0.109-0.776,0.221-1.151,0.345c0,0.001-0.001,0.003-0.001,0.005
		c-1.338,0.442-2.55,1.05-3.386,2.368c-0.63,0.991-0.923,2.16-1.123,3.336c0.079,2.531,0.193,5.522,0.351,9.027
		c0,0,0.021,0.063,0.038,0.126c0.005,0.017,0.01,0.037,0.015,0.057c0.026,0.1,0.054,0.232,0.064,0.382
		c0.001,0.004,0,0.009,0.001,0.013c0.01,0.143-0.002,0.298-0.034,0.45c-0.005,0.022-0.008,0.043-0.015,0.065
		c-0.035,0.126-0.112,0.24-0.199,0.349c-0.042,0.053-0.081,0.105-0.139,0.151c-0.036,0.028-0.068,0.059-0.111,0.083
		c-0.145,0.084-0.317,0.154-0.552,0.182c-0.235,0.029-0.469,0.079-0.699,0.136c0,0-0.001-0.001-0.001-0.001
		c-0.016,0.004-0.028,0.01-0.044,0.014c-0.314,0.081-0.619,0.179-0.899,0.287c-0.266-0.75-0.546-1.383-0.745-1.746
		c-0.362-0.659-1.24-0.767-2.111-0.694c-0.003-0.003-0.006-0.007-0.009-0.011c-0.063,0.005-0.12,0.02-0.182,0.027
		c-0.16,0.018-0.31,0.04-0.463,0.067c-0.007,0.001-0.014,0.002-0.021,0.003c-0.341-2.407-1.242-5.235-2.147-6.777
		c-0.394-0.67-0.804-1.288-1.223-1.882c-0.111-0.159-0.226-0.313-0.339-0.467c-0.352-0.476-0.711-0.93-1.079-1.358
		c-0.082-0.096-0.162-0.199-0.246-0.293c-0.447-0.503-0.906-0.972-1.377-1.412c-0.102-0.095-0.205-0.182-0.308-0.274
		c-0.394-0.354-0.796-0.688-1.205-1.003c-0.115-0.089-0.23-0.181-0.348-0.267c-0.505-0.371-1.018-0.722-1.545-1.041
		c-0.033-0.02-0.067-0.037-0.1-0.056c-0.497-0.298-1.007-0.57-1.524-0.827c-0.132-0.065-0.264-0.129-0.397-0.192
		c-0.5-0.237-1.008-0.46-1.525-0.665c-0.056-0.022-0.109-0.046-0.164-0.068c-0.579-0.225-1.17-0.428-1.769-0.619
		c-0.046-0.015-0.088-0.033-0.134-0.047c0.005,0.004,0.011,0.008,0.016,0.011c-0.715-0.224-1.443-0.43-2.187-0.615
		c0.036-0.025,0.063-0.063,0.098-0.091c0.048-0.039,0.09-0.08,0.133-0.125c0.1-0.1,0.184-0.21,0.256-0.334
		c0.028-0.048,0.058-0.093,0.082-0.145c0.071-0.153,0.114-0.317,0.135-0.493c0.004-0.028,0.02-0.05,0.021-0.079
		c-0.002,0.001-0.005,0-0.007,0.002c0.037-0.538-0.206-1.148-0.852-1.732c0.116-0.143,0.237-0.281,0.391-0.378
		c0.042-0.027,0.086-0.048,0.129-0.068c0.005-0.02,0.012-0.037,0.017-0.057c0.031,0.007,0.062,0.007,0.092,0.011
		c0.219-0.083,0.449-0.11,0.684-0.129c0.236-0.12,0.461-0.311,0.672-0.55c0.006-0.007,1.599,0.001,1.736-0.019
		c0.462-0.065,0.914-0.237,1.255-0.576c0.222-0.219,0.402-0.416,0.604-0.656c-0.014,0.015,0.38,0.161,0.474,0.168
		c0.633,0.04,1.141-0.203,1.706-0.458c0.306-0.235,0.602-0.49,0.898-0.751c0.136-0.342,0.336-0.629,0.753-0.646
		c1.291-0.051,2.403,0.058,3.081-1.279c0.024-0.051,0.089-0.086,0.145-0.083c0.137,0.004,0.27,0.003,0.402,0.001
		c0.226-0.059,0.504-0.127,0.5-0.127c0.417-0.114,0.893-0.486,1.157-0.807c0.166-0.201,0.332-0.404,0.466-0.629
		c0.016-0.026,0.871-0.182,0.996-0.239c0.9-0.407,1.507-1.423,1.884-2.285c0.242-0.555,0.706-0.427,1.079-0.857
		c0.302-0.351,0.435-0.674,0.514-1.052c0.463,0.009,0.783-0.089,1.272-0.459c0.093-0.071,0.169-0.15,0.236-0.233
		C87.142,6.37,87.264,6,87.303,5.612c0.009-0.1,0.07-0.159,0.169-0.171c0.629-0.069,1.435-0.213,1.878-0.715
		c0.416-0.469,0.538-1.177,0.59-1.786c0.065-0.753,0.053-1.526-0.113-2.262c-0.095-0.174-0.214-0.318-0.344-0.439
		c-0.017-0.015-0.026-0.041-0.043-0.055c0,0.007-0.003,0.015-0.003,0.022c-0.299-0.25-0.671-0.321-1.104,0.063
		c-0.935,0.828-1.089,2.127-1.448,3.284c-0.022-0.017-0.041-0.034-0.066-0.049c-0.123-0.071-0.259-0.05-0.377,0.029
		c-0.448,0.303-0.749,0.842-0.849,1.404c-0.549,0.349-1.096,1.1-1.5,1.683c-0.001,0-0.001-0.001-0.001-0.001
		c-0.009,0.015-0.018,0.026-0.027,0.041c0,0,0,0.001,0,0.001c-0.057,0.082-0.12,0.171-0.17,0.243
		c-1.087,0.094-2.129,1.254-2.297,2.4c-0.903,0.201-1.451,0.907-1.911,1.699c0-0.003-0.001-0.005-0.002-0.007
		c-0.015,0.025-0.03,0.052-0.045,0.079c-0.002,0.006-0.005,0.012-0.006,0.018c-0.029,0.051-0.063,0.099-0.091,0.151
		c-0.979,0.027-1.38,0.336-1.695,1.099c-0.001-0.001-0.001-0.002-0.002-0.003c-0.004,0.013-0.01,0.022-0.015,0.035
		c-0.055,0.007-0.117,0.029-0.189,0.076c0.055-0.035,0.05-0.055,0.027-0.069c-0.007-0.004-0.014-0.007-0.024-0.01
		c-0.009-0.002-0.009-0.006-0.02-0.008c0,0.002-0.001,0.004-0.001,0.006c-0.136-0.023-0.46,0.015-0.497,0.015
		c-0.305,0.007-0.675,0.054-0.939,0.22c-0.35,0.219-0.601,0.423-0.819,0.652c-0.001-0.009-0.003-0.016-0.004-0.025
		c-0.096,0.099-0.187,0.205-0.267,0.323c-0.028-0.006-0.058-0.006-0.087-0.01c-0.001,0.002-0.003,0.004-0.004,0.006
		c-0.917-0.155-1.848,0.298-2.552,0.896c-0.055,0.046-0.073,0.064-0.11,0.098c0,0,0-0.001,0-0.001
		c-0.115,0.102-0.157,0.141-0.199,0.164c-0.006,0.004-0.017,0.014-0.022,0.016c-0.043,0.018-0.082,0.009-0.19,0.003
		c0,0.001-0.001,0.001-0.002,0.002c-0.051-0.003-0.097-0.008-0.189-0.005c-0.793,0.023-1.569,0.248-2.288,0.579
		c-0.134,0.063-0.762,0.581-1.14,0.812c-0.137,0.083-0.244,0.133-0.278,0.104c-0.086-0.078-0.177-0.125-0.271-0.158
		c0,0.001-0.001,0.002-0.001,0.003c-0.312-0.105-0.652,0.002-0.953,0.137c-0.195,0.087-0.504,0.317-0.787,0.583
		c-0.001-0.003-0.003-0.005-0.004-0.008c-0.051,0.047-0.104,0.095-0.151,0.146c-0.09-0.057-0.188-0.099-0.294-0.135
		c0.004,0.007,0.002,0.017,0.005,0.023c-0.597-0.21-1.401-0.123-1.894-0.056c-1.308,0.177-2.567,1.001-2.998,2.275
		c-1.527-0.554-3.302-0.908-5.444-0.912c-2.744-0.005-4.939,0.521-6.694,1.381c-0.225-1.559-1.684-2.546-3.152-2.745
		c-0.492-0.067-1.296-0.154-1.893,0.056c0.003-0.007,0.001-0.017,0.005-0.024c-0.105,0.036-0.205,0.078-0.294,0.135
		c-0.048-0.051-0.102-0.099-0.152-0.146c0,0.003-0.003,0.005-0.003,0.008c-0.283-0.266-0.592-0.496-0.787-0.583
		c-0.302-0.135-0.642-0.242-0.953-0.138c0-0.001-0.001-0.001-0.001-0.002c-0.094,0.032-0.186,0.08-0.272,0.158
		c-0.034,0.029-0.142-0.02-0.278-0.104c-0.377-0.23-1.006-0.749-1.139-0.812c-0.719-0.332-1.495-0.556-2.288-0.579
		c-0.093-0.003-0.14,0.001-0.19,0.005c0-0.001-0.001-0.001-0.001-0.002c-0.108,0.006-0.147,0.015-0.19-0.003
		c-0.007-0.002-0.019-0.014-0.026-0.018c-0.04-0.023-0.082-0.061-0.195-0.162c0,0,0,0,0,0.001c-0.037-0.033-0.056-0.051-0.11-0.098
		c-0.705-0.599-1.636-1.052-2.553-0.896c0-0.002-0.002-0.004-0.003-0.006c-0.029,0.004-0.059,0.004-0.087,0.01
		c-0.08-0.118-0.171-0.224-0.267-0.323c0,0.009-0.003,0.017-0.003,0.025c-0.22-0.229-0.471-0.434-0.819-0.653
		c-0.267-0.166-0.636-0.212-0.94-0.22c-0.037,0-0.362-0.038-0.497-0.015c0-0.002-0.001-0.004-0.001-0.006
		c-0.011,0.002-0.012,0.006-0.02,0.008c-0.011,0.003-0.018,0.006-0.023,0.01c-0.024,0.014-0.029,0.034,0.025,0.069
		c-0.071-0.047-0.134-0.069-0.188-0.076c-0.005-0.013-0.011-0.022-0.016-0.035c0,0.001-0.001,0.002-0.001,0.003
		c-0.315-0.763-0.717-1.072-1.695-1.099c-0.029-0.052-0.062-0.1-0.091-0.151c-0.002-0.006-0.005-0.012-0.006-0.018
		c-0.016-0.027-0.03-0.053-0.046-0.079c0,0.002-0.001,0.004-0.002,0.007c-0.459-0.792-1.007-1.498-1.91-1.699
		c-0.168-1.146-1.211-2.306-2.297-2.4c-0.05-0.072-0.113-0.162-0.17-0.243c0,0,0-0.001,0-0.001
		c-0.011-0.014-0.019-0.026-0.028-0.041c0,0,0,0.001,0,0.001c-0.404-0.583-0.952-1.334-1.5-1.683c-0.1-0.563-0.4-1.101-0.849-1.404
		c-0.117-0.079-0.254-0.1-0.377-0.029c-0.026,0.015-0.044,0.032-0.066,0.049c-0.359-1.156-0.515-2.456-1.448-3.284
		c-0.435-0.384-0.807-0.313-1.104-0.063c0-0.006-0.004-0.015-0.003-0.022c-0.017,0.014-0.026,0.04-0.043,0.055
		c-0.13,0.121-0.249,0.265-0.344,0.439c-0.166,0.736-0.179,1.509-0.114,2.262c0.053,0.609,0.175,1.317,0.589,1.786
		c0.443,0.501,1.25,0.646,1.879,0.715c0.099,0.012,0.16,0.071,0.171,0.171C21.814,6,21.938,6.37,22.119,6.708
		c0.067,0.083,0.144,0.163,0.236,0.233c0.488,0.37,0.809,0.469,1.271,0.459c0.08,0.377,0.213,0.701,0.515,1.052
		c0.373,0.431,0.837,0.303,1.079,0.857c0.377,0.861,0.983,1.878,1.885,2.285c0.124,0.057,0.98,0.212,0.996,0.239
		c0.133,0.225,0.299,0.428,0.465,0.629c0.265,0.32,0.74,0.693,1.157,0.807c-0.004,0,0.274,0.068,0.499,0.127
		c0.134,0.002,0.267,0.003,0.401-0.001c0.057-0.002,0.122,0.032,0.147,0.083c0.677,1.337,1.79,1.228,3.08,1.279
		c0.417,0.017,0.618,0.303,0.753,0.646c0.297,0.261,0.593,0.516,0.898,0.751c0.564,0.254,1.073,0.497,1.707,0.458
		c0.093-0.007,0.486-0.153,0.473-0.168c0.202,0.24,0.383,0.437,0.604,0.656c0.341,0.339,0.793,0.511,1.255,0.576
		c0.138,0.02,1.73,0.012,1.736,0.019c0.211,0.239,0.435,0.431,0.672,0.55c0.234,0.019,0.464,0.046,0.684,0.129
		c0.03-0.003,0.061-0.003,0.092-0.011c0.005,0.02,0.012,0.037,0.016,0.057c0.043,0.021,0.088,0.042,0.13,0.068
		c0.257,0.163,0.426,0.443,0.626,0.664c0.017,0.019,0.042,0.02,0.061,0.036c-0.407,0.484-0.566,0.971-0.536,1.411
		c-0.001-0.001-0.004,0-0.006-0.001c0.002,0.026,0.017,0.046,0.02,0.071c0.021,0.178,0.064,0.345,0.137,0.5
		c0.023,0.052,0.053,0.096,0.082,0.145c0.072,0.123,0.155,0.233,0.254,0.333c0.044,0.045,0.086,0.087,0.135,0.126
		c0.106,0.086,0.221,0.152,0.342,0.209c0.011,0.005,0.02,0.014,0.031,0.019c-5.993,1.577-11.056,4.343-14.929,10.937
		c-0.226,0.385-0.448,0.869-0.667,1.388c0.002-0.009,0.001-0.018,0.002-0.026c-0.05,0.119-0.097,0.252-0.146,0.376
		c-0.063,0.161-0.126,0.315-0.188,0.483c-0.085,0.236-0.166,0.482-0.247,0.729c-0.046,0.142-0.095,0.276-0.139,0.421
		c-0.116,0.381-0.224,0.771-0.323,1.164c-0.038,0.152-0.07,0.303-0.105,0.456c-0.062,0.263-0.119,0.524-0.171,0.786
		c-0.031,0.162-0.058,0.318-0.085,0.478c-0.033,0.196-0.065,0.39-0.093,0.582c0-0.001-0.001-0.001-0.002-0.002
		c0,0.003,0,0.005,0,0.007c-0.021-0.004-0.044-0.007-0.063-0.012c-0.1-0.021-0.196-0.037-0.301-0.055
		c-0.152-0.027-0.301-0.049-0.46-0.067c-0.062-0.007-0.12-0.021-0.182-0.027c-0.004,0.004-0.006,0.008-0.01,0.011
		c-0.871-0.073-1.748,0.035-2.111,0.694c-0.199,0.362-0.479,0.996-0.745,1.746c-0.28-0.107-0.584-0.205-0.897-0.286
		c-0.016-0.004-0.03-0.011-0.046-0.015c-0.001,0-0.001,0.001-0.001,0.001c-0.23-0.058-0.464-0.107-0.699-0.136
		c-0.234-0.028-0.407-0.097-0.552-0.182c-0.043-0.024-0.075-0.055-0.111-0.083c-0.057-0.045-0.097-0.098-0.139-0.151
		c-0.087-0.109-0.165-0.223-0.2-0.35c-0.006-0.021-0.009-0.042-0.013-0.064c-0.034-0.153-0.045-0.309-0.034-0.452
		c0-0.003,0-0.007,0-0.011c0.011-0.15,0.038-0.283,0.064-0.383c0.005-0.02,0.01-0.041,0.015-0.057
		c0.019-0.063,0.038-0.126,0.038-0.126c0.158-3.505,0.271-6.496,0.351-9.027c-0.2-1.176-0.493-2.345-1.123-3.336
		c-0.836-1.318-2.048-1.925-3.386-2.368c0-0.001-0.001-0.003-0.001-0.005c-0.375-0.124-0.762-0.235-1.151-0.345
		c0.007,0.167,0.021,0.341,0.028,0.509c-1.598-0.092-6.014-1.207-7.787-1.704c-0.5-0.14-0.932-0.381-1.312-0.646
		c-0.02-0.013-0.038-0.026-0.057-0.04c-1.031-0.735-1.665-1.583-2.181-1.008c0.003-0.014,0.003-0.028,0.007-0.042
		c-0.056,0.059-0.108,0.128-0.161,0.221c-0.095,0.17-0.168,0.346-0.228,0.521c-0.024,0.073-0.04,0.143-0.06,0.215
		c-0.017,0.057-0.032,0.108-0.045,0.165c-0.011,0.046-0.024,0.092-0.034,0.137c-0.027,0.131-0.049,0.251-0.067,0.372
		c-0.006,0.032-0.012,0.063-0.017,0.094c-0.001,0.008-0.003,0.018-0.004,0.026c-0.033,0.215-0.063,0.395-0.1,0.536
		c-0.004,0.015-0.008,0.034-0.012,0.048c-0.038,0.127-0.094,0.201-0.172,0.223c-0.093,0.028-0.216-0.012-0.414-0.184
		c-0.881-0.761-2.129-3.854-2.469-3.5c-0.003-0.011-0.007-0.022-0.01-0.034c-0.014,0.014-0.023,0.031-0.034,0.055
		c-0.276,0.655,0.904,6.621,2.646,6.067c1.741-0.553,2.542-0.585,3.006-0.979c0.466-0.394-0.377,1.915,2.908,2.114
		c3.068,0.184,6.322-0.398,6.738-0.476c0.345,4.198,1.065,8.577,1.712,11.429c0.215,0.945,0.597,1.777,1.032,2.557
		c-0.018-0.008-0.036-0.013-0.054-0.021c0.117,0.211,0.257,0.395,0.385,0.594c0.117,0.184,0.227,0.372,0.353,0.545
		c0.245,0.339,0.504,0.65,0.77,0.95c0.087,0.099,0.167,0.21,0.256,0.305c0.352,0.375,0.709,0.71,1.062,1.018
		c0.145,0.125,0.276,0.226,0.417,0.34c0.221,0.179,0.434,0.351,0.641,0.502c0.088,0.064,0.17,0.126,0.254,0.186
		c-0.01,0.015-0.019,0.031-0.028,0.046c-0.004,0.006-0.009,0.011-0.013,0.017c0.002-0.001,0.004-0.002,0.006-0.003
		c-0.47,0.737-0.79,1.554-0.877,2.432c0,0-0.417,3.272-0.589,8.344c-0.205,0.006-0.409,0.014-0.614,0.024
		c-0.038,0.002-0.076,0.002-0.114,0.004c0,0.001-0.001,0.001-0.001,0.002c-1.837,0.102-3.622,0.39-4.348,1.087
		c-0.437,0.42-0.792,1.083-1.053,1.845c0.001-0.008,0.001-0.016,0.003-0.024c-0.104,0.3-0.188,0.619-0.259,0.945
		c-0.025,0.118-0.042,0.235-0.063,0.354c-0.043,0.247-0.077,0.492-0.101,0.741c-0.012,0.125-0.022,0.245-0.029,0.368
		c-0.016,0.308-0.016,0.611,0.003,0.907c0.003,0.049,0,0.1,0.004,0.148c0.022,0.269,0.063,0.527,0.116,0.774
		c-0.039,0.2-0.078,0.394-0.115,0.603c-0.018,0.094-0.032,0.194-0.049,0.29c-0.094,0.542-0.18,1.116-0.259,1.716
		c-0.017,0.134-0.035,0.26-0.052,0.397c-0.081,0.674-0.148,1.38-0.198,2.115c-0.005,0.072-0.015,0.134-0.02,0.206
		c0.001,0.015,0.004,0.029,0.005,0.044c-0.099,1.556-0.114,3.232-0.005,5.006c-0.002-0.013-0.007-0.025-0.009-0.038
		c0.004,0.072,0.018,0.15,0.022,0.223c0.062,0.932,0.155,1.886,0.294,2.863c0.009,0.061,0.014,0.119,0.022,0.18
		c0.145,0.981,0.344,1.986,0.579,3.003c0.043,0.188,0.085,0.372,0.132,0.56c0.248,0.999,0.543,2.009,0.894,3.03
		c0.062,0.181,0.132,0.361,0.198,0.543c0.269,0.745,0.568,1.493,0.898,2.245c-0.265-0.127-0.542-0.251-0.837-0.373
		c-0.007-0.003-0.012-0.007-0.02-0.01v0.001c-0.063-0.026-0.126-0.053-0.191-0.079c-0.001-0.001-0.004-0.002-0.006-0.002
		c-0.445-0.179-0.917-0.349-1.397-0.505c-0.021-0.007-0.04-0.014-0.061-0.021c-0.455-0.146-0.915-0.275-1.373-0.389
		c-0.063-0.017-0.124-0.032-0.188-0.048c-0.44-0.104-0.87-0.189-1.285-0.254c-0.066-0.01-0.13-0.019-0.195-0.027
		c-0.411-0.057-0.803-0.092-1.159-0.095c-0.045,0-0.084,0.004-0.128,0.004c-0.365,0.005-0.702,0.034-0.977,0.111
		c-0.318,0.088-0.59,0.186-0.827,0.286c0.003,0,0.005,0,0.008,0c-0.485,0.208-0.813,0.438-1.035,0.661
		c-0.102,0.008-0.216,0.019-0.347,0.031c-0.053,0.005-0.097,0.01-0.153,0.017c-0.055,0.006-0.103,0.01-0.161,0.017
		c-0.002,0.002-0.005,0.003-0.008,0.005c-1.647,0.191-4.64,0.772-5.335,2.53c-0.994,2.512-0.676,2.515,0.367,1.739
		c0.052-0.038,0.114-0.086,0.17-0.128c0.167-0.127,0.347-0.266,0.543-0.417c0.125-0.098,0.264-0.203,0.4-0.307
		c0.104-0.08,0.209-0.159,0.319-0.241c0.225-0.167,0.46-0.336,0.707-0.504c0.03-0.021,0.061-0.042,0.093-0.063
		c0.247-0.167,0.506-0.328,0.77-0.482c0.091-0.053,0.187-0.101,0.278-0.151c0.198-0.108,0.399-0.211,0.604-0.306
		c0.107-0.05,0.216-0.096,0.325-0.141c0.208-0.086,0.419-0.158,0.632-0.223c0.101-0.031,0.201-0.066,0.303-0.091
		c0.273-0.068,0.549-0.112,0.825-0.135c4.275,0.101,8.337,1.398,10.245,1.572c0.031,0.024,0.064,0.045,0.101,0.064
		c-0.002,0.001-0.003,0.003-0.006,0.004c0.078,0.042,0.168,0.07,0.269,0.086c0.033,0.005,0.072,0,0.108,0.002
		c0.094,0.004,0.196-0.008,0.31-0.032c0.046-0.01,0.092-0.021,0.141-0.036c0.164-0.051,0.34-0.121,0.545-0.241
		c1.157-0.674,1.399-5.124,1.238-10.16c-0.55-2.527-1.343-5.007-2.261-7.436c-0.375-0.991-0.841-1.982-0.944-3.051
		c-0.074-0.767-0.002-1.514,0.076-2.274c0.261-0.083,0.538-0.201,0.838-0.366c1.03-0.565,1.869-1.411,2.745-2.186
		c0.1,5.648,0.61,12.311,2.017,18.919c-0.007-0.026-0.017-0.053-0.024-0.079c0.022,0.102,0.05,0.203,0.072,0.306
		c0.151,0.702,0.313,1.403,0.486,2.104c-0.005,0.001-0.008,0.002-0.012,0.003c-0.08,0.023-0.167,0.044-0.242,0.07
		c0,0.001,0,0.003,0,0.004c-0.439,0.15-0.807,0.333-1.048,0.565c-1.152,1.108-1.752,3.837-1.402,5.826
		c-0.009-0.014-0.022-0.022-0.031-0.035c0.024,0.147,0.063,0.283,0.099,0.422c0.015,0.057,0.023,0.116,0.04,0.172
		c0.084,0.283,0.197,0.536,0.332,0.763c0.031,0.055,0.066,0.103,0.103,0.153c0.086,0.124,0.182,0.233,0.287,0.332
		c0.677,4.157,2.395,11.624,3.957,15.479c-0.183-0.002-0.356-0.013-0.548-0.005c-0.024,0-0.044-0.002-0.067-0.001
		c-0.108,0.005-0.225,0.02-0.334,0.026c-0.064,0.004-0.119-0.002-0.185,0.003c0.003,0.005,0.005,0.009,0.008,0.014
		c-0.018,0.001-0.036,0.003-0.054,0.005c-0.18,0.015-0.359,0.03-0.545,0.051c-0.223,0.025-0.442,0.048-0.673,0.082
		c-0.158,0.023-0.322,0.056-0.483,0.083c-0.082,0.014-0.163,0.027-0.245,0.042c-0.144,0.026-0.28,0.045-0.425,0.073
		c-0.252,0.05-0.511,0.11-0.769,0.169c-0.201,0.045-0.401,0.093-0.606,0.143c-0.2,0.05-0.395,0.093-0.597,0.146
		c-0.01,0.003-0.019,0.004-0.029,0.007c0,0,0,0.001-0.001,0.002c-0.293,0.078-0.59,0.17-0.886,0.258
		c-0.171,0.05-0.338,0.095-0.51,0.148c-0.677,0.21-1.355,0.438-2.033,0.686c-0.099,0.036-0.194,0.076-0.293,0.113
		c-0.579,0.217-1.15,0.443-1.717,0.682c-0.203,0.085-0.398,0.172-0.6,0.26c-0.473,0.207-0.935,0.418-1.39,0.636
		c-0.189,0.091-0.376,0.18-0.562,0.271c-0.533,0.265-1.046,0.534-1.538,0.808c-0.063,0.034-0.134,0.067-0.195,0.103
		c0.014-0.007,0.028-0.013,0.042-0.02c-2.457,1.382-4.324,2.833-4.893,4.02c-0.021,0.043-0.028,0.112-0.047,0.162
		c-0.154,0.036-0.309,0.1-0.461,0.183c-0.016,0.009-0.031,0.007-0.047,0.016c0,0.002,0,0.003,0,0.005
		c-0.008,0.004-0.015,0.004-0.021,0.009c0-0.001,0.001-0.001,0.001-0.001c-0.001,0-0.001,0.001-0.001,0.001
		c-0.027,0.017-0.052,0.049-0.08,0.067c-0.291,0.199-0.566,0.494-0.78,0.963c-0.127,0.277-0.283,0.594-0.455,0.936
		c-0.153,0.307-0.319,0.632-0.491,0.973c-0.062,0.121-0.119,0.241-0.182,0.365c-0.137,0.273-0.271,0.548-0.406,0.832
		c-0.067,0.141-0.129,0.278-0.194,0.42c-0.121,0.261-0.235,0.519-0.345,0.779c-0.031,0.074-0.068,0.148-0.099,0.222
		c0.007-0.013,0.017-0.023,0.023-0.036c-0.504,1.228-0.824,2.388-0.674,3.218c-0.006,0.022-0.015,0.04-0.021,0.063
		c0.014,0.063,0.029,0.127,0.049,0.187c0.598,1.851,0.246,2.689,0.598,1.851c0.352-0.841,0.067-1.144,0.826-3.773
		c0.532-1.846,2.405-3.966,3.486-5.08c0.559,0.104,1.057-0.175,1.487-0.535c0.812-0.682,1.687-1.283,2.518-1.939
		c0.776-0.615,1.532-1.253,2.339-1.822c0.221-0.084,0.442-0.167,0.666-0.249c-0.433,0.429-1.178,1.07-1.134,1.654
		c0.142,1.827,2.674-0.475,3.146-0.84c1.164-0.904,2.728-1.778,4.168-2.105c1.29-0.293,2.608-0.423,3.888-0.757
		c0.95-0.249,1.88-0.618,2.619-1.284c0.056-0.051,0.11-0.101,0.163-0.148c0.459-0.236,0.769-0.515,0.999-0.802
		c0.079,0.047,0.158,0.111,0.233,0.116c0.075,0.004,0.146-0.003,0.218-0.006c-0.005-0.006-0.009-0.012-0.015-0.017
		c1.865-0.074,2.612-2.545,1.984-3.149c-0.4-0.385-4.074-6.246-4.289-12.984c-0.031-0.978-0.039-1.646-0.079-2.228
		c0.246-0.17,0.495-0.334,0.726-0.526c0.346,0.898,0.706,1.788,1.1,2.659c5.123,11.34,14.733,19.275,26.117,21.655
		c0.787,0.165,1.516,0.328,2.256,0.368c0.032,0.003,0.066,0.006,0.099,0.009c0.078,0.002,0.159,0,0.239,0s0.159,0.002,0.238,0
		c0.034-0.003,0.066-0.006,0.1-0.009c0.08-0.004,0.158-0.021,0.236-0.029c0.002,0.01,0.003,0.021,0.004,0.029
		c0-0.009,0.001-0.021,0.002-0.029c0.658-0.06,1.312-0.191,2.013-0.339c11.385-2.38,20.994-10.315,26.118-21.655
		c0.345-0.762,0.663-1.539,0.971-2.322c0.018-0.044,0.038-0.087,0.055-0.131c0.144,0.112,0.292,0.217,0.441,0.32
		c-0.04,0.582-0.048,1.25-0.08,2.228c-0.214,6.738-3.888,12.6-4.288,12.984c-0.626,0.604,0.119,3.075,1.984,3.149
		c-0.006,0.005-0.009,0.011-0.015,0.017c0.072,0.003,0.143,0.01,0.218,0.006c0.075-0.005,0.155-0.069,0.233-0.116
		c0.23,0.287,0.54,0.565,0.999,0.802c0.053,0.048,0.107,0.098,0.164,0.148c0.738,0.666,1.668,1.035,2.617,1.284
		c1.28,0.334,2.601,0.464,3.889,0.757c1.44,0.327,3.004,1.201,4.169,2.105c0.471,0.365,3.003,2.667,3.145,0.84
		c0.044-0.584-0.701-1.226-1.133-1.654c0.222,0.082,0.444,0.165,0.665,0.249c0.807,0.569,1.563,1.207,2.339,1.822
		c0.831,0.656,1.706,1.258,2.518,1.939c0.43,0.36,0.929,0.639,1.487,0.535c1.081,1.114,2.954,3.234,3.486,5.08
		c0.759,2.63,0.475,2.933,0.825,3.773c0.353,0.839,0,0,0.599-1.851c0.02-0.06,0.035-0.123,0.049-0.187
		c-0.006-0.022-0.014-0.04-0.021-0.063c0.15-0.83-0.17-1.989-0.674-3.218c0.007,0.013,0.017,0.023,0.023,0.036
		c-0.029-0.072-0.066-0.146-0.097-0.219c-0.111-0.265-0.228-0.525-0.35-0.79c-0.063-0.137-0.123-0.271-0.188-0.407
		c-0.138-0.288-0.274-0.566-0.413-0.845c-0.061-0.121-0.117-0.238-0.177-0.356c-0.173-0.342-0.338-0.667-0.492-0.974
		c-0.172-0.342-0.328-0.658-0.455-0.936c-0.213-0.47-0.488-0.765-0.782-0.964c-0.026-0.019-0.051-0.05-0.078-0.066
		c-0.001-0.001-0.001-0.001-0.001-0.001l0,0c-0.006-0.004-0.014-0.004-0.02-0.008c-0.001-0.002-0.001-0.003-0.001-0.005
		c-0.016-0.009-0.031-0.007-0.047-0.015c-0.152-0.084-0.306-0.147-0.461-0.184c-0.019-0.05-0.026-0.119-0.047-0.162
		c-0.568-1.187-2.435-2.638-4.893-4.02c0.015,0.007,0.028,0.013,0.042,0.02c-0.062-0.035-0.132-0.067-0.194-0.102
		c-0.493-0.274-1.008-0.545-1.542-0.811c-0.183-0.09-0.367-0.178-0.553-0.267c-0.46-0.22-0.927-0.434-1.405-0.643
		c-0.194-0.086-0.387-0.17-0.584-0.254c-0.575-0.242-1.157-0.473-1.746-0.692c-0.089-0.034-0.176-0.07-0.266-0.104
		c-0.68-0.249-1.361-0.478-2.041-0.688c-0.168-0.053-0.331-0.096-0.498-0.146c-0.299-0.088-0.599-0.181-0.894-0.26
		c-0.001-0.001-0.001-0.002-0.002-0.002c-0.009-0.003-0.018-0.004-0.027-0.007c-0.203-0.054-0.399-0.097-0.601-0.146
		c-0.203-0.051-0.401-0.097-0.603-0.143c-0.258-0.059-0.517-0.118-0.77-0.169c-0.145-0.028-0.281-0.047-0.424-0.073
		c-0.083-0.015-0.165-0.028-0.248-0.042c-0.16-0.027-0.323-0.06-0.481-0.083c-0.229-0.034-0.45-0.058-0.673-0.082
		c-0.186-0.021-0.365-0.036-0.545-0.051c-0.018-0.002-0.036-0.004-0.054-0.005c0.003-0.005,0.005-0.009,0.008-0.014
		c-0.065-0.005-0.12,0.001-0.185-0.003c-0.109-0.007-0.226-0.021-0.334-0.026c-0.023-0.001-0.043,0.001-0.067,0.001
		c-0.191-0.008-0.364,0.003-0.548,0.005c1.563-3.855,3.28-11.322,3.957-15.479c0.106-0.099,0.202-0.209,0.289-0.333
		c0.035-0.05,0.068-0.098,0.101-0.15c0.135-0.229,0.249-0.481,0.333-0.767c0.016-0.053,0.024-0.11,0.038-0.165
		c0.036-0.141,0.075-0.277,0.1-0.427c-0.009,0.013-0.022,0.022-0.031,0.035c0.35-1.989-0.251-4.718-1.402-5.826
		c-0.227-0.218-0.563-0.396-0.967-0.541c0.042-0.173,0.083-0.347,0.124-0.52c0.046-0.188,0.092-0.377,0.136-0.565
		c0.195-0.841,0.379-1.683,0.545-2.524c0.001-0.008,0.003-0.017,0.004-0.024c0.164-0.836,0.312-1.672,0.448-2.506
		c0.028-0.172,0.057-0.344,0.084-0.516c0.126-0.795,0.243-1.588,0.347-2.376c0.005-0.04,0.012-0.08,0.017-0.12
		c0.113-0.868,0.213-1.729,0.301-2.584c0.004-0.032,0.008-0.064,0.012-0.096c-0.001,0.003-0.002,0.006-0.003,0.009
		c0.332-3.235,0.497-6.35,0.556-9.214c0.753,0.683,1.5,1.382,2.392,1.871c0.3,0.165,0.577,0.283,0.838,0.366
		c0.078,0.76,0.15,1.507,0.077,2.274c-0.104,1.068-0.57,2.06-0.945,3.051c-0.918,2.429-1.711,4.908-2.26,7.436
		c-0.161,5.036,0.082,9.486,1.237,10.16c0.205,0.12,0.381,0.19,0.545,0.241c0.049,0.016,0.095,0.026,0.141,0.036
		c0.113,0.025,0.216,0.036,0.31,0.032c0.036-0.002,0.075,0.003,0.108-0.002c0.101-0.016,0.19-0.044,0.269-0.086
		c-0.003-0.001-0.004-0.003-0.007-0.004c0.036-0.02,0.069-0.04,0.102-0.064c1.908-0.174,5.969-1.472,10.245-1.572
		c0.277,0.022,0.553,0.066,0.825,0.135c0.102,0.024,0.202,0.06,0.303,0.091c0.212,0.064,0.424,0.137,0.632,0.223
		c0.108,0.045,0.217,0.091,0.324,0.141c0.205,0.095,0.407,0.197,0.606,0.307c0.092,0.05,0.186,0.098,0.275,0.15
		c0.265,0.154,0.523,0.315,0.771,0.482c0.03,0.021,0.06,0.04,0.09,0.061c0.249,0.17,0.487,0.341,0.714,0.51
		c0.103,0.076,0.199,0.149,0.297,0.224c0.146,0.111,0.293,0.223,0.426,0.326c0.193,0.149,0.371,0.286,0.535,0.411
		c0.057,0.042,0.118,0.09,0.17,0.128c1.043,0.775,1.361,0.772,0.367-1.739C108.566,86.892,105.576,86.312,103.929,86.119z
		 M47.064,20.381c-0.211-0.422-0.494-0.903-0.836-1.292c-0.002-0.002-0.003-0.005-0.005-0.007c0,0,0,0-0.001,0.001
		c-0.028-0.033-0.059-0.062-0.088-0.093c0.261-0.002,0.518,0.056,0.802,0.219c0.243,0.139,0.449,0.338,0.643,0.552
		c0.061,0.066,0.12,0.132,0.177,0.202c0.002,0.001,0.003,0.002,0.004,0.004C47.527,20.104,47.28,20.231,47.064,20.381z
		 M63.468,19.083c0,0-0.001-0.001-0.001-0.001c-0.003,0.003-0.005,0.007-0.008,0.01c-0.192,0.221-0.367,0.47-0.521,0.723
		c-0.002,0.004-0.005,0.007-0.007,0.012c-0.043,0.071-0.083,0.141-0.122,0.211c-0.318-0.193-0.627-0.394-0.979-0.563
		c0.104-0.088,0.193-0.2,0.312-0.267c0.472-0.271,0.876-0.259,1.338-0.138C63.476,19.075,63.472,19.079,63.468,19.083z"/>
</g>
</svg>
