<?xml version="1.0" encoding="utf-8"?>
<!-- Generator: Adobe Illustrator 25.0.0, SVG Export Plug-In . SVG Version: 6.00 Build 0)  -->
<svg version="1.1" id="Layer_1" xmlns="http://www.w3.org/2000/svg" xmlns:xlink="http://www.w3.org/1999/xlink" x="0px" y="0px"
	 viewBox="0 0 400 400" style="enable-background:new 0 0 400 400;" xml:space="preserve">
<g>
	<g>
		<path d="M322.4,324.4c2,4.4,1,8.2-2.1,11.7c-1.7,2-3.1,4.1-4.4,6c4.7,0.9,9.3,1.9,13.9,2.5c1.5,0.2,3.2-0.6,4.6-1.2
			c7.2-3.2,13.3-2,17.7,4.6c2.5,3.7,4.2,8.1,5.9,12.3c1.1,2.9-0.7,5.1-3.8,5.4c-0.9,0.1-1.7,0-2.6,0c-99.3,0-198.7,0-298,0
			c-0.7,0-1.3,0-2,0c-2.6,0.1-4.3-1-4.6-3.6c-0.2-2.4,1.2-3.8,3.5-4.3c9.9-2.3,18.9-6.4,27.5-11.7c1.2-0.7,2.5-1.9,3-3.2
			c8-18.7,15.5-37.6,19.8-57.6c0.7-3.2,0.9-6.5,1.2-9.7c0.5-4.6-1.6-8.1-5.4-10.4c-3.1-2-6.6-3.4-9.6-5.5
			c-5.3-3.6-10.6-7.2-15.6-11.2c-5.7-4.5-11-9.6-16.6-14.3c-4.2-3.6-5.5-8.8-2.9-13.1c2.7-4.4,7.7-6,12.8-3.5
			c7.4,3.6,14.6,7.6,22.1,11.5c6.9-7.4,10.6-16.2,8.6-27.1c-0.8-4.3-0.9-8.9-0.8-13.3c0.1-5.8-2-10.4-6.9-13.2
			c-5.1-3-10.6-5.5-15.9-8.2c-6.5-3.3-13.2-6.2-19.4-9.9c-5-3-8.3-7.7-10.1-13.3c-1.7-5.1,0.8-9.3,6.2-9.4c3.9-0.1,8,0.6,11.8,1.8
			c5.3,1.7,10.2,4.3,15.4,6.3c2.5,1,5.1,2,7.7,2.6c2.8,0.7,4-0.4,3.5-3.3c-0.3-1.6-1-3.1-1.8-4.5c-6.9-12.5-14.5-24.6-20.5-37.5
			c-4.8-10.5-8-21.8-11.2-33c-2-7-0.9-13.9,4.8-19.3c4.1-3.9,9.3-4.2,12.5,0.4c3.3,4.7,5.6,10.2,7.7,15.7c2.2,5.9,3.2,12.2,7.1,17.4
			c0.5,0.7,1,1.4,1.9,2.7c0.8-3.3,1.4-6,2.2-8.7c0.6-2.2,1.2-4.4,2.2-6.5c3.6-7.9,10.7-10.9,17.9-7.8c7.2,3.1,10.9,11.9,7.4,19.2
			c-2,4.2-5,8.2-8.1,11.8c-6.3,7.3-8.6,15.5-6.4,24.9c0.3,1.4,1,3,1.9,4.1c5.1,5.8,8.7,12.4,11.1,20.6c3.2-4,6.1-7.5,8.9-10.9
			c3-3.6,6.7-5.2,11.3-4c7.6,2,10.6,10.2,6.3,17.2c-5.9,9.5-11.8,19.1-18,28.4c-2.1,3.1-2.1,5.4,0.2,8.5c4.4,6,5.9,12.9,4.5,20.2
			c-1.5,7.9-0.6,15.4,2.1,22.8c2.2,6.1,4.9,12.1,7.5,18.1c0.3,0.7,1.3,1.2,2,1.8c0.4-0.8,0.9-1.6,1-2.4c0.9-6,1.6-12.1,2.7-18.1
			c0.3-1.8,1.2-3.6,2.2-5c1.6-2.3,1.4-4.3,0-6.6c-6.2-9.6-12.2-19.3-18.4-29c-1.9-3-2.8-6.2-1.8-9.6c1.1-4.1,3.8-6.9,8-7.9
			c4.2-1,8,0.1,10.9,3.6c3,3.6,5.9,7.3,9.2,11.3c0.5-1.2,0.7-2.1,1.1-2.9c2.5-4.8,4.3-10.2,7.7-14.3c7-8.4,6.5-16.9,2.3-25.9
			c-1.4-3.1-4-5.6-6.2-8.3c-3.3-4-6.4-8-7.2-13.3c-1-7.3,3.2-14.2,9.8-16.2c7-2.1,13.3,0.7,16.4,8.1c2,4.6,3.1,9.7,5.4,14.9
			c1.9-4,4.1-7.9,5.8-12c1.8-4.6,3-9.5,4.6-14.3c0.8-2.2,1.9-4.4,3.2-6.4c4.9-7.8,11.9-7.9,17.1-0.2c3.9,5.7,3.7,11.9,2.2,18.2
			c-4.6,18.5-12,35.9-21.7,52.3c-3.2,5.4-6.4,10.9-9.6,16.3c-0.4,0.7-1,1.3-1.1,2c-0.2,1.9-0.1,3.8-0.2,5.7c1.6,0,3.4,0.5,4.7-0.1
			c6.4-2.5,12.6-5.5,19-7.8c3.9-1.4,8.2-2.5,12.3-2.8c6.8-0.4,10,4.5,7.5,10.8c-2.4,6.1-6.5,10.9-12.3,14c-6.2,3.3-12.8,6-19.1,9.1
			c-4.8,2.4-9.6,4.7-14.1,7.5c-4.4,2.8-6.4,7-6.4,12.5c0,5.4-0.4,10.9-1.1,16.3c-1.4,10,2.8,17.7,9.2,25.1c3-2,6-4,9-5.9
			c5.6-3.4,10-3.1,13.6,0.6c3.5,3.6,3.7,8.1,0.6,13.5c-6.1,10.5-14.6,18.1-26.7,20.9c-4,0.9-8.2,1.3-12.3,1.6
			c-5.3,0.4-9.4,2.6-12.1,7.2c-1.6,2.9-3.1,5.8-4.8,9.1c6-0.7,11.2-1.6,16.5-2c15-1,29.2,1.6,41.7,10.2c6.1,4.2,12.5,5.4,19.5,4.8
			c7.7-0.7,15.4-1.8,23.1-2.3c3.3-0.2,6.7,0.6,10,0.9c1.6,0.1,3.3,0.2,6.1,0.3c-2.3-5-4.1-9.2-6.1-13.2c-3.5-7-6.6-14-6.1-22
			c0.1-1.4,0.3-2.8,0.7-4.2c0.9-3.4,3-5.9,6.5-6.6c3.3-0.6,6,1,8,3.5c2,2.5,3.8,5.2,6,8.2c3-5.3,3.9-10.7,4.2-16.1
			c0.7-10,2.9-19.2,9.7-27.2c3.9-4.5,2.2-13.3-2.6-19c-2.4-2.9-4.8-6-6.4-9.4c-2-4.3-1.1-8.6,2.1-12.1c2.9-3.3,6.7-4.4,10.9-3.4
			c4.2,1.1,6.4,4.3,7.8,8.1c0.8,2.1,1.3,4.3,2.8,6.5c1.1-2.8,2.1-5.6,3.2-8.4c1.6-4.1,2.8-8.5,4.9-12.4c3.7-6.7,9.9-6.6,14.2-0.3
			c3.2,4.7,2.8,9.7,1.5,14.8c-3.4,13.1-8.7,25.5-15.6,37.2c-2.2,3.7-4.5,7.5-6.6,11.3c-0.6,1.1-1,2.3-1.9,4.6c2.5-0.7,4.1-1,5.6-1.6
			c5.6-2.1,11.1-4.3,16.7-6.3c1.5-0.5,3.3-0.5,4.8-0.3c4.2,0.5,6.5,3.9,5.3,8c-1.5,5.3-5,9.2-9.7,11.8c-4.6,2.5-9.4,4.5-14.1,6.7
			c-3.1,1.5-6.3,3-9.2,4.9c-3.1,1.9-4.5,4.7-4.5,8.5c0,4-0.2,8.1-0.7,12.1c-0.9,6.3,1.8,11.2,5.6,15.8c5.5-3.3,10.6-9.1,17.4-2.6
			C321.9,323.9,322.1,324.1,322.4,324.4z M64.5,52.7c-4.4,3.8-4.8,8.3-3.6,12.7c2.4,8.5,4.3,17.2,8.1,25.1c7,14.7,15.1,28.9,23,43.2
			c1.9,3.4,2.8,6.8,2.6,10.6c-0.3,5.4-4.1,9.5-9.5,9.1c-3.9-0.3-7.9-1.5-11.6-2.8c-5.9-2.1-11.6-4.8-17.5-7.1
			c-1.7-0.7-3.7-0.8-6.1-1.3c2.1,4.8,4.9,8,8.9,10.1c4.9,2.6,10,4.8,15,7.2c6.2,3.1,12.6,5.9,18.5,9.6c7,4.4,10.4,11.1,10.2,19.6
			c-0.1,3.8,0,7.7,0.6,11.4c2.1,11.5-0.2,21.8-7.6,31c-0.4,0.5-0.6,1.3-0.9,2.1c3,0.3,5.6,0.8,7.4-1.9c1.5-2.2,3.5-2.7,5.6-1.4
			c2.4,1.5,2.3,3.8,0.9,6c-2.1,3.4-5.4,4.9-9.3,5.3c-7.7,0.7-13.8-2.9-20-6.7c-5.6-3.4-11.4-6.4-17.1-9.4c-0.8-0.4-2.1-0.1-3.2,0
			c0.4,1.1,0.6,2.5,1.4,3.2c4.6,4.1,9.6,7.9,14.1,12.2c5.7,5.4,11.8,9.9,18.8,13.5c2.9,1.5,5.8,3.1,8.5,4.9c6,4,8.8,9.8,8.5,17
			c-0.2,3.9-0.7,7.8-1.5,11.6c-3.3,15.8-9,30.9-14.9,45.9c-0.4,1-0.7,2-1.4,3.7c1.7-1,2.6-1.6,3.5-2.1c7.9-4.7,15.9-9,25-11
			c3.9-0.8,7.7-2.1,11.6-2.9c6.5-1.3,9.8-5.3,11.9-11.5c4.3-12.6,13.3-19.1,27.1-19.4c13.2-0.3,22.3-7.7,28.4-19
			c0.4-0.7,0.4-2.3,0.1-2.6c-0.8-0.5-2.1-0.6-2.9-0.2c-2.4,1.3-4.5,3.2-6.9,4.4c-5,2.4-10.1,5.1-15.4,6.7c-5.5,1.6-11.9-1.3-14-5.4
			c-1.1-2.2-1.2-4.3,1-5.8c2-1.4,4.1-1,5.4,1c2.1,3.2,4.8,2.4,8,2c-1.6-2.5-3.1-4.6-4.5-6.8c-2.8-4.5-4.8-9.3-4.9-14.7
			c-0.1-3.1,0.3-6.3,0.5-9.5c0.3-4.1,1.1-8.3,0.8-12.4c-0.6-10,3.8-17.2,12.1-21.9c7.1-4,14.7-7,22-10.6c4.2-2.1,8.4-4.2,12.2-6.9
			c2.5-1.8,4.1-4.7,6.2-7.1c-0.3-0.3-0.5-0.6-0.8-0.8c-1.4,0.3-2.8,0.3-4.1,0.8c-5,1.8-9.9,3.9-14.9,5.7c-4.5,1.6-8.9,3.5-13.5,4.5
			c-5.8,1.2-10.3-2.3-11.3-8.1c-0.6-3.8,0.1-7.3,2-10.7c7-12.4,14.7-24.5,20.6-37.5c4.9-10.8,7.8-22.5,11.2-34
			c1.1-3.8-0.2-7.5-4.2-10.6c-1.6,3.6-3.4,6.7-4.5,10.1c-3.3,10.4-6,21-13.9,29.3c0.9,0.9,1.5,1.7,2.2,2.4c1.9,2,2.6,4.1,0.5,6.3
			c-1.7,1.7-3.9,1.2-6.3-0.8c-5.1-4.2-7.1-9.9-8.6-16.1c-1-4.2-2.2-8.4-3.7-12.5c-0.9-2.6-3.1-3.9-6-3.2c-2.9,0.7-4.7,2.7-4.7,5.5
			c0.1,2.3,0.8,4.8,2,6.7c2.3,3.5,5.3,6.6,7.9,10c8.2,10.8,9.2,29.4-0.6,39c-2.8,2.8-4.7,6.9-5.9,10.8c-3.1,9.9-3.7,7.3,4.2,13.3
			c0.2,0.1,0.4,0.3,0.5,0.4c2.2,1.5,3.1,3.5,1.5,5.8c-1.6,2.4-3.9,2.2-6,0.7c-2.4-1.7-4.9-3.3-6.9-5.4c-5.8-6.2-11.4-12.6-17.1-18.9
			c-1.3-1.4-2.6-2.5-4.5-1.2c-1.7,1.3-1.7,2.9-0.6,4.6c0.5,0.7,0.9,1.5,1.4,2.2c5.9,9.3,11.8,18.6,17.7,27.9c2.8,4.4,3,8.7,0.4,13.3
			c-1.2,2.1-2.3,4.5-2.7,6.9c-0.9,4.8-1.3,9.7-1.8,14.6c-0.5,4.8-3.2,8.1-7.6,9c-4,0.8-8-1.2-10.1-5.5c-2.3-4.8-4.6-9.6-6.5-14.6
			c-3.8-10.3-6.5-20.7-4.1-31.9c1.1-5.2-0.2-10.4-3.4-14.9c-4.3-6-4.3-9.9-0.4-16.2c6-9.5,12-19,18-28.4c1.2-1.8,1.8-3.7-0.2-5.2
			c-2.2-1.6-3.6,0.1-4.9,1.7c-2.2,2.8-4.3,5.8-6.8,8.3c-5.3,5.2-10.6,10.3-16.2,15.1c-2.7,2.3-5,1.9-6.5-0.3c-1.5-2.1-0.8-4.2,2-6.2
			c1.4-1,2.7-2.2,4.2-3.1c2-1.3,2.3-2.9,1.7-5c-1.8-6.8-4.6-13-9.2-18.5c-1.9-2.3-3.4-5.1-4.2-8c-3.1-11.7-0.2-22.1,7.5-31.4
			c2.5-3,5-6.1,6.9-9.4c2.2-3.8,0.6-8.1-3-9.6c-3.4-1.5-6.2,0-7.8,4.7c-1.3,3.9-2.3,7.9-3.2,12c-1.4,6.2-4.1,11.4-9,15.5
			c-1.9,1.6-3.7,1.9-5.6,0.2c-1.8-1.7-1.7-3.7-0.3-5.6c0.8-1,1.7-1.9,2.7-3c-6-7.5-10.2-15.8-12.2-25.1c-0.6-2.9-1.9-5.8-3.1-8.6
			C67,56.5,65.7,54.8,64.5,52.7z M74.4,357.6c91.6,0,182.7,0,273.9,0c-2.9-7.7-5.4-8.6-12.8-6.1c-2.9,1-6.3,0.6-9.5,0.5
			c-3.2-0.1-6.4-0.8-9.6-0.8c-3.9,0.1-6.5-1-8.1-4.2c-1.8-3.6-1.1-7,1.2-10.1c1.8-2.5,3.7-4.9,5.5-7.4c-2.3,0.7-4.1,1.9-5.8,3
			c-6.5,4.3-13.2,6.6-20.8,2.8c-0.7-0.3-1.5-0.6-2.2-0.6c-7.8,0-15.7-0.6-23.4,0.4c-6.7,0.8-13.2,3.3-19.7,5.4
			c-2,0.7-4.1,2.6-5.9,0.7c-1.3-1.3-1.5-3.6-2.4-5.8c-1,0.1-2.7,0.2-4.4,0.4c-9.5,0.9-18.4-0.1-26.4-6.1c-2.7-2-5.8-3.4-8.9-4.7
			c-12.1-5-24.6-5.1-37.3-3c-4.7,0.8-9.4,2.1-15,3.4c14.7,7.1,28.3,13.9,43.2,17.7c3.1,0.8,4.5,2.8,3.6,5.1c-1,2.7-3,3.2-5.8,2.5
			c-13.3-3.3-25.6-9.1-37.9-14.8c-4.4-2-9.2-3.6-13.9-4.3c-10-1.5-18.9,2.4-27.2,7.3C94.9,344.9,84.9,351.2,74.4,357.6z
			 M327.9,267.9c-0.2-0.4-0.5-0.9-0.7-1.3c-3.2,1.3-6.4,2.6-9.6,3.8c-3.3,1.3-6.6,2.9-10.1,3.6c-7,1.5-11.7-3.4-10.4-10.4
			c0.3-1.8,1.1-3.5,2-5.1c3.9-6.9,8-13.7,11.8-20.7c4.9-9.2,8.4-18.9,10.3-29.1c0.3-1.8-0.4-3.7-0.6-5.6c-0.3,0-0.6,0.1-0.9,0.1
			c-3.6,8.8-7.2,17.5-10.7,26.3c-0.7-0.1-0.6,0.2-0.3,0.5c1.9,2,2.5,4.2,0.3,6.3c-2.3,2.1-4.2,0.8-6.3-0.9
			c-3.9-3.4-5.3-7.8-6.4-12.5c-0.6-2.6-1.2-5.3-2.3-7.8c-0.4-0.9-2.3-1.9-3.3-1.7c-1,0.3-2,1.9-2.3,3c-0.2,1,0.3,2.4,0.9,3.3
			c1.4,2.1,3,4,4.6,5.9c7.6,8.8,8.3,23.4,0.9,30.9c-4,4-5,9.7-5.9,15.3c-1.1,7.3-2,14.7-4.4,21.6c-2.9,8.5-9.9,9.3-15.8,2.5
			c-1-1.1-1.8-2.5-2.7-3.7c-0.7-1-1.4-2-2.5-3.6c-1.6,5.7-0.2,10.3,1.7,14.7c3.2,7.6,6.8,15,10,22c6.9,1.1,13.8,2.2,20.8,3.3
			c-3.6-5.2-6.1-10.9-5.5-17.6c0.5-4.9,0.4-9.8,1.2-14.6c0.6-3.3,1.8-6.7,3.7-9.4c1.8-2.4,4.6-4.3,7.4-5.8c5.6-2.9,11.5-5.2,17.1-8
			C322.8,271.8,325.3,269.7,327.9,267.9z"/>
		<path d="M281.8,153.1c-0.1,10.1-8.2,17.9-18.4,17.7c-10.2-0.2-17.8-8.3-17.6-18.7c0.2-9.7,8.4-17.5,18.4-17.3
			C274.3,134.8,282,142.8,281.8,153.1z M263.7,162.8c5.6,0.1,10.2-4.5,10.2-10.1c0-5.6-4.7-10.3-10.2-10.2c-5.3,0-10,4.7-10.1,10
			C253.5,158,258.2,162.7,263.7,162.8z"/>
		<path d="M62.8,323.1c-7.9,0-14.1-6.1-14.1-14c0-8,6.1-14.1,14-14.2c8.1,0,14.3,6.1,14.3,14.2C76.9,317,70.7,323.1,62.8,323.1z
			 M62.8,302.8c-3.4,0-6.2,2.8-6.1,6.3c0,3.4,2.9,6.2,6.3,6.2c3.3,0,6.2-3,6.2-6.3C69.1,305.6,66.1,302.7,62.8,302.8z"/>
		<path d="M153,75.1c-7.5,0-13.7-6.2-13.7-13.7c0-7.8,6.3-14,14.2-14c7.6,0.1,13.9,6.4,13.7,14.1C167.1,69.1,160.8,75.1,153,75.1z
			 M159.2,61.1c-0.1-3.4-2.8-5.9-6.2-5.7c-3.3,0.1-5.6,2.7-5.5,6c0.1,3.2,2.6,5.8,5.8,5.8C156.5,67.2,159.3,64.4,159.2,61.1z"/>
		<path d="M221.9,232.1c7.6,0,13.5,6,13.5,13.7c0,7.6-6.1,13.7-13.6,13.7c-7.6,0-14-6.5-13.8-14C208.1,238.1,214.4,232,221.9,232.1z
			 M227.5,245.7c-0.1-3.1-2.8-5.8-5.9-5.7c-3.2,0.1-5.7,2.8-5.5,6.1c0.1,3.1,2.7,5.5,5.8,5.5C225,251.5,227.6,248.8,227.5,245.7z"/>
		<path d="M322.4,324.4c-0.2-0.2-0.5-0.4-0.7-0.7c-1.7-3.7-3.3-7.4-2.2-11.6c1.5-6,6.6-10.4,12.5-10.7c6.5-0.3,11.9,3.3,13.9,9.2
			c2,5.7-0.1,12.2-5,15.7c-5.2,3.7-11.6,3.4-16.7-0.5C323.6,325.3,322.9,324.8,322.4,324.4z M332.7,320.9c3.1,0.1,6-2.6,6-5.7
			c0-3.1-2.7-5.9-5.9-5.9c-3,0-5.7,2.5-5.8,5.5C326.8,317.9,329.5,320.8,332.7,320.9z"/>
		<path d="M321.8,138.7c0,6.3-4.9,11.1-11.3,11c-6-0.1-11-5-11-11c0-6.2,5-11.2,11.2-11.2C317,127.5,321.8,132.3,321.8,138.7z
			 M310.7,134c-1.5,2.1-3,3.4-2.9,4.5c0.1,1.2,1.8,2.2,2.8,3.3c1.1-1.1,2.9-2.1,3.1-3.3C313.9,137.4,312.2,136.1,310.7,134z"/>
		<path d="M276.5,210.5c0,5.8-4.9,10.5-10.7,10.5c-5.8-0.1-10.5-4.9-10.4-10.7c0.1-5.7,4.7-10.3,10.5-10.3
			C271.7,200,276.5,204.7,276.5,210.5z M265.9,206.7c-1.2,1.7-2.5,2.8-2.4,3.6c0.2,1,1.6,1.8,2.4,2.7c0.8-0.9,2.1-1.7,2.2-2.6
			C268.3,209.5,267.1,208.5,265.9,206.7z"/>
		<path d="M115.2,275.1c-0.2-1.1-0.4-3.1-0.9-5.1c-0.8-2.7-0.1-4.6,2.5-5.5c2.5-0.9,4.2,0.6,5.1,2.9c2,5.1,1.7,10.4,0.7,15.5
			c-1.7,8.2-4,16.2-6.2,24.3c-0.9,3.4-2.9,4.6-5.3,3.8c-2.5-0.9-3.2-2.8-2.2-6.2C111.6,295.3,114.6,286,115.2,275.1z"/>
		<path d="M109.3,313.3c1.9,0.1,3.3,1.5,3.4,3.9c0.2,3.5-2.6,7.3-5.2,7.2c-2.5,0-3.8-1.4-3.9-3.9
			C103.5,316.9,106.1,313.3,109.3,313.3z"/>
	</g>
</g>
</svg>
