<?xml version="1.0" encoding="utf-8"?>
<!-- Generator: Adobe Illustrator 25.0.0, SVG Export Plug-In . SVG Version: 6.00 Build 0)  -->
<svg version="1.1" id="Layer_1" xmlns="http://www.w3.org/2000/svg" xmlns:xlink="http://www.w3.org/1999/xlink" x="0px" y="0px"
	 viewBox="0 0 400 400" style="enable-background:new 0 0 400 400;" xml:space="preserve">
<style type="text/css">
	.st0{stroke:#000000;stroke-width:15;stroke-linecap:round;stroke-linejoin:round;stroke-miterlimit:10;}
</style>
<path class="st0" d="M-164.3,299.8"/>
<g>
	<g>
		<path d="M55.6,253c7.3,0.1,14,4.9,21.6,3.3c2.4-0.5,4.8-1.1,7.1-1.9c5.9-2.3,11.8-2.9,17.8-0.9c8.7,3,17.5,1.5,26.3,0.5
			c4.6-0.5,9.1-1.6,13.6-2c3.9-0.3,6.4-2.4,8.2-5.5c0.8-1.2,1.5-2.5,2.3-3.7c1-1.6,2.3-2.6,4.2-1.5c1.8,1,2.2,2.8,1,4.3
			c-3.8,4.8-7.4,10-12,13.9c-4.2,3.6-9.6,5.7-14.5,8.4c-1.9,1-3.8,1.2-4.8-1.1c-1-2.3,0.5-3.5,2.5-4.4c1.7-0.8,3.4-1.6,5-2.9
			c-5.7,0.5-11.4,1.3-17,1.5c-4.3,0.1-8.7-0.2-13-1.1c-2.8-0.6-4.6-0.3-6.6,1.9c-3.2,3.5-6.9,6.4-10.1,9.4c0.8,2.5,1.7,5,2.6,7.9
			c1-0.4,2.3-1,3.6-1.6c7.4-3.2,14.8-6.4,22.2-9.7c2.1-0.9,4.1-1.2,5.1,1.3c0.9,2.3-0.7,3.4-2.7,4.2c-8.3,3.6-16.6,7.3-25,10.8
			c-2.6,1.1-5.3,1.9-8,2.4c-5.8,1.2-10.7-0.4-13.8-5.7c-0.3-0.1-0.6-0.2-0.7-0.1c-1.8,1.3-3.7,2.7-5.5,4.1c1.9,1.5,3.6,3.7,5.8,4.5
			c8.8,3.4,17.6,2.7,26.2-0.8c12.8-5.1,25.6-10.1,38.2-15.6c7.1-3.1,14.2-6.8,20.5-11.3c7.9-5.6,11.7-13.7,10.5-23.7
			c-0.4-3.8-2.2-6.8-5.4-8.9c-1.8-1.2-2.6-2.7-1.3-4.5c1.4-2.1,3.3-1.4,5-0.2c6.3,4.7,8.4,11.1,7.8,18.7c-0.6,7.9-3.8,14.7-9.4,20.3
			c-0.4,0.4-0.7,0.8-1.1,1.3c0,0.1,0,0.2,0.1,0.5c11.5-1,22.9-2.3,33.9-6.9c-2.1-0.4-4.2-0.7-6.3-1.2c-2.9-0.8-5.9-1.5-8.6-2.8
			c-0.9-0.4-1.5-2.5-1.3-3.5c0.2-0.8,2.3-1.9,3-1.7c11.4,4.1,23.5,3.4,35.2,5.4c1.8,0.3,4.5,1.5,4.8,2.7c0.4,1.6-0.7,4.1-2,5.5
			c-6.3,7.3-12.8,14.5-19.5,21.3c-1.9,1.9-4.9,2.9-7.5,4c-1.9,0.8-4.1,0.9-6.2,2.2c1.9,0.3,3.7,0.6,5.6,0.9c3.9,0.6,4.8,2.5,2.6,5.7
			c-0.8,1.1-1.5,2.2-2.2,3.4c-0.4,0.7-0.7,1.4-0.6,2.8c2.4-1.4,4.7-2.9,7.2-4.1c1.2-0.6,3.1-1.3,3.8-0.7c1,0.8,1.3,2.6,1.5,4
			c0.2,1.6-0.2,3.3,0.3,5.3c1.1-1.6,2.3-3.1,3.3-4.8c1.9-3.1,3.3-3.3,6.1-0.9c1,0.9,2,1.7,3.8,2.1c-1.1-2.5-2.2-5-3.4-7.4
			c-2.1-4.2-1.8-6.5,1.2-10.2c2.9-3.4,5.8-6.9,8.6-10.3c1.3-1.6,2.9-2.8,4.8-1.2c2,1.6,1.2,3.3-0.2,5c-2.5,2.9-4.8,6-7.4,8.7
			c-2.2,2.2-2.5,4.1-1,7c1.9,3.9,3.1,8.1,4.1,12.4c0.3,1.5-0.3,3.8-1.4,4.7c-0.9,0.7-3.2,0.2-4.6-0.4c-2.3-1-4.4-2.6-6.7-4.1
			c-2.3,2.5-4.5,5.1-7,7.5c-2.9,2.8-5.3,2-6.2-1.9c-0.5-2.1-0.6-4.2-1-6.5c-2.7,0.8-5.3,1.7-8.1,2.3c-5.4,1.1-7-0.8-5.2-5.9
			c0.8-2.3,1.8-4.5,2.7-6.6c-3.1-1.5-6.2-2.8-9.1-4.5c-3.1-1.9-3-4.7,0.4-6c4.3-1.8,8.9-2.8,13.4-4.3c1.6-0.6,3.3-1.4,4.5-2.6
			c5.7-6,11.2-12.3,16.7-18.4c0.2-0.2,0.3-0.5,0.6-1c-3.5-0.7-6.4-0.5-9.6,1.3c-9.5,5.2-20,7.2-30.6,8.5c-5.8,0.7-11.6,0.9-17.4,1.6
			c-3.1,0.4-6.2,1.4-9.2,2.6c-10.1,3.9-20.3,7.8-30.3,11.9c-5,2-9.9,4.2-14.7,6.6c-10.6,5.2-21.6,6.7-32.9,3
			c-2.7-0.9-5.4-2.4-7.6-4.2c-3.9-3.2-4.2-6.7-1.6-11c0.5-0.9,0.5-2.2,0.5-3.4c0-1.7-0.6-3.4-0.2-5c0.3-1.1,1.8-3,2.4-2.9
			c1.2,0.2,2.5,1.5,3.2,2.6c0.6,0.9,0.3,2.4,0.4,4c9.5-3.8,17.4-9.4,25.2-16.8c-6.9,1.7-13,3.2-19.4,4.7c0.1,0.6,0.6,1.6,0.4,2.5
			c-0.3,1.3-0.9,3.3-1.6,3.4c-1.2,0.2-2.6-0.9-3.9-1.5c-0.3-0.2-0.4-0.8-0.5-1.2c-0.6-1.7-0.6-4.3-1.8-5c-2.4-1.4-5.4-1.7-8.8-2.6
			c0.2,2.2,0.7,3.5,0.4,4.7c-0.4,1.4-1.4,2.6-2.2,3.9c-1.2-0.8-3.3-1.6-3.3-2.4c-0.1-5-2.6-8.3-6.1-11.6c-3.6-3.4-2.3-9.1,1.9-12.8
			c4.1-3.7,9.2-4.9,14.6-5.4c2.3-0.2,4.8-0.5,6.7-1.5c6.3-3.4,12.6-6.8,18.5-10.8c5.3-3.6,8.8-8.6,10.1-15.3
			c1.3-6.9,5.4-11.7,12.8-13.1c4.9-0.9,9.1,0.7,12.7,4.4c3.2-1.8,6.5-3.4,9.5-5.4c1.1-0.8,1.8-2.7,1.9-4.1c0.2-2.2-0.4-4.5-0.5-6.7
			c-0.1-3.4,1.9-4.7,5-3.3c1.4,0.7,2.9,1.3,4.1,2.2c2.8,2.1,5.4,1.9,7.8-0.3c0.9-0.8,1.7-2,1.8-3.1c0.4-2.5,0.5-5.1,0.7-7.7
			c0.3-3.6,2.4-4.8,5.4-2.8c1.9,1.2,3.7,2.5,5.5,3.8c3.5,2.4,6.6,1,7.3-3.1c0.4-2.8,0.9-5.5,1.4-8.3c0.7-3.5,3-4.3,5.8-2
			c1.3,1.1,2.6,2.2,3.7,3.5c2.6,3.2,5.5,3.8,9.3,2.1c1.9-0.9,3.1-1.8,3.5-3.9c0.4-2.4,1.1-4.8,1.9-7.1c0.9-2.8,2.9-3.3,5.2-1.5
			c0.9,0.7,1.8,1.4,2.4,2.3c3.1,4.3,6.9,5.2,11.9,3.2c2-0.8,3.3-1.6,3.9-3.6c0.6-2,1.5-4,2.3-6c1.8-4.5,3.8-4.9,6.9-1.3
			c1.3,1.5,2.8,2.9,4,4.6c1.4,2,3.1,2.3,5.2,1.9c2-0.4,4-0.7,6-1c2.2-0.4,4,0.1,4.4,2.5c0.3,2.2-1.1,3.1-3.2,3.4
			c-3.4,0.5-6.8,1.3-10.3,1.5c-1.2,0.1-2.8-0.6-3.8-1.4c-1.6-1.3-2.9-3.1-4.8-5.3c-1.3,6.6-4.4,9.9-10.9,11.1
			c-5.9,1.1-10.6,1.7-14.6-4.3c-0.2,6.8-4,9.2-9.5,11.2c-6,2.2-9.8,0.9-13.5-4.4c-1.9,4.7-0.7,9.8-6.6,12.2c-5.3,2.2-8.9,1-13.1-3.2
			c0.1,5.8-0.1,9.9-5.4,12.5c-4.5,2.2-8.1,4.1-12.8-0.4c0,3.6,0,6.3,0,9c2.1,1,4.4,2.2,6.7,3.2c0.8,0.3,1.7,0.6,2.5,0.5
			c9.4-1.6,18.3,0.6,26.9,4.3c2.1,0.9,3.8,2.1,2.7,4.5c-1.1,2.5-3.2,1.7-5.2,0.9c-5.9-2.5-11.9-4.3-19.1-4.1
			c2.8,2.8,5.1,5.2,7.4,7.5c1.5,1.5,2.6,3.1,0.9,4.9c-1.9,2.1-3.6,0.8-5.2-0.7c-4.1-3.8-8-7.9-12.4-11.4c-7.5-5.9-16.4-5.3-23.1,1.4
			c-2.4,2.4-4.4,5.1-6.6,7.6c-1.4,1.6-2.9,2.7-4.8,1.1c-1.7-1.5-1.1-3.2,0.2-4.7c2.2-2.6,4.4-5.3,6.6-8c-3.8-3.3-8.5-3.1-11.7,0.5
			c-1.3,1.5-2.5,3.4-2.8,5.2c-1.2,6-3.7,11.2-8.4,15.9c3.2,0.6,5.9,0.9,8.5,1.6c2.3,0.6,4.4,1.5,6.6,2.4c2,0.8,3,2.6,1.8,4.3
			c-0.7,0.9-3.1,1.5-4.2,1c-5.4-2.5-11-3.1-16.7-2.9c-1.5,0.1-3.1,0.4-4.8,1.2c1.1,0.5,2.2,1,3.4,1.4c2,0.7,3.1,2.1,2.3,4.1
			c-0.8,2-2.4,2-4.5,1.5c-3.6-1-7.4-1.6-11.1-2.3c-0.1,0.3-0.1,0.7-0.2,1c1.7,1,3.6,1.8,4.9,3.2c1.5,1.4,2.7,3.3,3.4,5.2
			c0.3,0.8-0.8,2.6-1.7,3.1c-0.7,0.4-2.9,0-3.2-0.7c-3.3-6.3-9.4-6.4-15.1-6.9c-3.1-0.3-6.4,0.6-9.5,1.6c-2.5,0.8-5.4,2.4-5,5.5
			C50,251.7,52.9,252.7,55.6,253L55.6,253z M76.4,277.8c-0.1,0.4-0.1,0.8-0.2,1.1c2.1,0.8,4.2,1.6,7,2.6c-0.2-3.1-0.3-5.1-0.5-7.5
			C80.4,275.5,78.4,276.7,76.4,277.8z"/>
		<path d="M278.7,260.3c2.1-1,3.3-1.7,4.6-2.2c2.9-1.3,4.4-0.5,5.1,2.6c0.3,1.4,0.5,2.9,0.8,4.3c0.1,0.3,0.3,0.5,0.7,1.3
			c0.9-2,1.7-3.7,2.5-5.4c1.6-3.3,4-3.6,6-0.6c0.9,1.3,1.7,2.6,3.1,3.8c-0.2-1.5-0.5-3.1-0.5-4.6c-0.2-3,1.2-4.2,4.1-3.7
			c1.5,0.3,3,0.7,5.6,1.2c-1.7-2.4-3-4-4.1-5.7c-3.1-4.6-6.6-9.1-9.1-14.1c-3-5.9-3.1-12.3-0.2-18.5c1.3-2.9,2.3-5.8,3.4-8.8
			c0.7-1.8,1.8-3.3,4-2.5c2.2,0.8,2.3,2.6,1.6,4.5c-0.9,2.6-1.8,5.4-3,7.8c-3.2,6.2-2.5,12.2,1,17.9c2.2,3.7,5.1,7.1,7.6,10.7
			c2.1,3,4.2,6.1,6,9.3c1.4,2.6,0.5,4.3-2.4,4.8c-2.4,0.4-4.9,0.3-7.4,0.5c-0.3,2.3-0.4,4.9-0.9,7.4c-0.9,4.6-3.2,5.3-6.8,2.1
			c-1.5-1.3-2.8-2.9-4.1-4.4c-1.3,1.6-2.4,3.3-3.8,4.8c-2.1,2.3-4,2.3-5.8-0.3c-1.5-2.1-2.5-4.7-3.7-7.1c-2,0.6-4.1,1.3-6.3,1.8
			c-4.6,1-6.2-0.8-4.7-5.3c1.1-3.4,2.6-6.7,3.9-10c0.4-0.9,0.8-1.9,1.2-2.8c4.5-11,2.8-16.2-7.3-22.1c-0.6-0.4-1.9-0.1-2.7,0.3
			c-9,4.9-18,10-27.3,15.1c1.1,1.6,2.4,3.4,3.8,5.3c2.3,3.1,2.8,6.4,1,9.8c-2.8,5-5.8,9.9-8.8,14.7c-1,1.6-2.9,2.4-4.2,0.9
			c-0.8-0.9-1-3.2-0.4-4.3c2.2-4.1,4.8-8.1,7.3-12.1c1.5-2.4,1.4-4.6-0.6-6.7c-4-4.2-8-8.5-12-12.7c-0.8-0.8-2-1.4-2.3-2.4
			c-0.4-1.2-0.4-2.9,0.2-3.8c0.5-0.6,2.6-0.8,3.5-0.3c1.6,0.9,3.2,2.2,4.3,3.7c2.2,2.9,4.5,2.8,7.4,1.2c8.6-4.6,17.2-9,25.8-13.5
			c-1.6-3.8-3-6.9-4.4-10.1c-0.9-2.1-0.6-3.9,1.7-4.6c2.2-0.7,3.3,0.8,3.9,2.7c2.1,6.6,6.3,11.7,11.8,15.9
			c7.5,5.7,9.3,11.7,6.4,20.7C282.5,251.1,280.7,255.2,278.7,260.3z"/>
		<path d="M324,124.7c5.9,5,1.8,8.6-0.6,12.2c-3.8,5.8-4,5.7-10.6,4.1c1.7,8.5-5.5,8.2-10.1,10.5c-3.7,1.8-6.7,1-9.2-3.8
			c-0.8,6.9-5,6.7-9.4,7c-4.7,0.4-8.2-0.4-9.7-6c-0.9,1.5-1.6,2.4-2,3.3c-1,2.4-2.8,3.2-5.3,3.2c-2.8,0-5.6,0.6-8.4,0.5
			c-1.4-0.1-3.3-0.9-4.2-2c-2.1-2.6-3.7-5.6-5.5-8.4c-1-1.6-1.2-3.3,0.5-4.4c1.8-1.2,3.4-0.5,4.6,1.3c0.7,1,1.5,2,1.9,3.1
			c1.6,3.9,4.2,5.2,8.5,4.2c1.9-0.5,3.3-0.8,4.1-2.7c0.6-1.5,1.6-3,2.4-4.4c2-3.6,4.3-3.5,6.4,0.1c0.7,1.3,1.6,2.5,2.1,3.8
			c0.9,2.1,2.2,2.6,4.4,2.6c2.6,0,3.9-1,4.4-3.4c1.5-6.1,4.3-8.3,9-1.5c2.4,3.5,4.8,1.2,7.3,0.5c2.7-0.8,2-2.7,1.7-4.6
			c-0.2-0.9-0.2-1.8-0.3-2.7c-0.2-4,1.5-5.2,5.1-3.7c1.8,0.7,3.5,1.5,5.4,2.3c0.6-0.7,1.2-1.3,1.8-2c2.1-2.3,2.6-4.6-0.2-6.7
			c-0.6-0.5-1-1.2-1.5-1.8c-2.2-2.9-1.3-5.2,2.3-5.7c1.4-0.2,2.9-0.4,4.3-0.6c0.4-0.1,0.9-0.2,1.4-0.3c1-5.2,1.7-10.4,3.2-15.4
			C331.3,91.6,338.6,84,351,82c3-0.5,5.5-0.1,6.6,3c1.1,3-0.6,4.8-3.1,6.2c-6.1,3.5-7.7,6.9-6.8,13.9c1.8,14,0,27.5-4.5,40.8
			c-0.7,2.1-1.7,4-4.2,3.1c-2.7-0.9-2.1-3-1.4-5.1c4.4-13,6-26.2,4.1-39.8c-0.7-5.2,0.7-9.9,4-14.1c-5.3,2-8.9,5.8-10.5,10.9
			c-1.8,5.6-2.9,11.5-4.1,17.3C330.3,121.9,329.8,125.4,324,124.7z"/>
		<path d="M308.7,187.2c4.5-5.2,8.7-10.1,12.9-15c1.5-1.8,3.1-3.4,5.3-1.5c2,1.7,0.9,3.6-0.6,5.3c-5.2,5.7-10.4,11.4-15.4,17.3
			c-1,1.1-1.6,2.8-2,4.3c-0.4,1.6-0.5,3.3-0.6,5c-0.2,2.1-1.5,3.7-3.5,3c-1.1-0.4-2.2-2.6-2.3-4.1c-0.3-4.4,0.1-8.9-0.4-13.3
			c-0.3-2.6-1.6-5.1-2.7-7.5c-0.8-1.8-1-3.6,0.9-4.2c1.1-0.4,3.5,0.3,4.1,1.3C306,180.3,307.1,183.5,308.7,187.2z"/>
		<path d="M195.2,208.9c-0.6,1.8-0.8,3.8-1.8,5.3c-0.8,1.1-2.5,1.5-3.8,2.2c-0.6-1.3-1.8-2.7-1.6-3.8c0.7-3.5,1.9-6.9,3-10.3
			c1-2.9,3.2-3.4,5.4-1.4c2.5,2.3,4.9,4.6,7,7.2c0.7,1,0.2,2.9,0.3,4.4c-1.5-0.1-3.3,0.2-4.4-0.5c-1.3-0.8-2-2.6-2.9-4
			C195.9,208.3,195.5,208.6,195.2,208.9z"/>
		<path d="M236.5,171.9c-0.8,2.7-1,4.7-2,6.1c-0.8,1.2-2.4,1.7-3.7,2.5c-0.7-1.4-2.1-2.8-1.8-4c0.7-3.5,1.9-6.9,3-10.3
			c0.9-2.7,3.1-3.3,5.2-1.4c2.5,2.3,4.9,4.6,7,7.2c0.8,1,1,3.3,0.4,4.3c-1.2,1.8-3.1,1.2-4.6-0.3C238.9,175,238,173.7,236.5,171.9z"
			/>
		<path d="M218.8,199.5c-0.6,1.8-0.8,3.8-1.8,5.2c-0.8,1.1-2.5,1.5-3.8,2.2c-0.6-1.3-1.8-2.7-1.6-3.8c0.7-3.5,1.8-6.9,3-10.3
			c1-2.9,3.2-3.4,5.4-1.4c2.4,2.3,4.9,4.6,7,7.2c0.7,1,0.2,2.9,0.3,4.4c-1.5-0.1-3.3,0.2-4.4-0.5c-1.3-0.8-2-2.6-2.9-4
			C219.6,198.9,219.2,199.2,218.8,199.5z"/>
		<path d="M209.8,178.9c-0.9,2.7-1.1,4.6-2.1,6c-0.8,1.1-2.4,1.7-3.7,2.4c-0.6-1.4-1.9-2.8-1.7-4c0.6-3.4,1.7-6.7,2.8-10
			c1-3,3.2-3.6,5.6-1.3c2.4,2.2,4.8,4.4,6.8,7c0.8,1,0.3,2.9,0.4,4.4c-1.5-0.1-3.2,0.2-4.4-0.4C212.2,182.3,211.4,180.8,209.8,178.9
			z"/>
		<path d="M185.8,189.3c-0.6,1.8-0.8,3.8-1.8,5.4c-0.7,1-2.4,1.4-3.6,2.1c-0.6-1.3-2-2.7-1.8-3.8c0.7-3.6,1.9-7.1,3.1-10.6
			c0.9-2.5,3.1-3.1,5.1-1.3c2.6,2.4,5.3,4.9,7.5,7.7c0.7,0.8,0.5,3.1-0.2,4c-0.4,0.6-2.9,0.6-3.7-0.1c-1.4-1-2.2-2.8-3.3-4.2
			C186.5,188.8,186.1,189.1,185.8,189.3z"/>
		<path d="M260,168c-0.5,1.5-0.7,3-1.5,4c-0.8,0.9-2.5,1.9-3.4,1.6c-0.9-0.3-2.1-2.2-2-3.2c0.6-3.2,1.6-6.3,2.7-9.3
			c0.8-2.2,3.1-2.6,4.9-0.9c2.1,1.9,4.2,3.8,5.8,6c0.7,1,0.1,2.9,0.1,4.4c-1.4-0.1-2.9,0.1-4.2-0.3C261.6,170,260.9,168.9,260,168z"
			/>
		<path d="M242.4,192.2c-0.5,1.5-0.6,2.9-1.4,3.7c-0.9,0.9-2.5,1.9-3.4,1.6c-0.9-0.3-2.2-2.2-2-3.2c0.5-3.1,1.5-6.1,2.6-9
			c0.8-2.2,3-2.7,4.9-1c1.9,1.7,3.7,3.6,5.5,5.5c1.4,1.4,2.1,3,0.5,4.7c-1.6,1.6-3.2,1-4.7-0.4C243.9,193.5,243.3,193,242.4,192.2z"
			/>
		<path d="M283.2,164.6c-0.7,1.4-1,2.7-1.8,3.2c-1.1,0.8-2.8,1.5-3.9,1.2c-0.7-0.2-1.6-2.5-1.2-3.5c0.9-2.7,2.3-5.4,3.7-7.9
			c1.2-2.3,3.5-2.5,5.2-0.5c1.7,2,3.1,4.1,4.6,6.2c1.2,1.6,1.3,3.2-0.3,4.4c-1.7,1.3-3.1,0.7-4.4-0.8
			C284.5,166.3,284,165.7,283.2,164.6z"/>
		<path d="M329.6,169.8c-2.5,0.1-4-2.3-2.8-4.6c2-3.7,4.1-7.5,6.5-11c0.6-0.9,2.6-1.4,3.6-1.1c0.8,0.2,1.9,2.4,1.5,3.1
			c-2.3,4.4-4.8,8.6-7.4,12.8C330.8,169.5,330,169.6,329.6,169.8z"/>
		<path d="M70.7,252.9c-1.5-0.3-3.3-0.2-4.5-1c-1-0.6-2.1-2.3-1.9-3.3c0.2-1,1.8-2.1,3-2.3c1.3-0.3,2.8,0.3,4.2,0.6
			c1.9,0.4,3.6,1.4,2.9,3.6c-0.4,1.2-2,2-3.1,3C71.1,253.3,70.9,253.1,70.7,252.9z"/>
		<path d="M55.7,253.1c-1.4-1.2-3.6-2.5-2.2-4.5c0.8-1.2,3.1-1.8,4.8-1.7c1.1,0,2.1,1.7,3.1,2.6c-1,1-1.8,2.3-2.9,3
			c-0.7,0.5-1.9,0.3-2.9,0.5C55.6,253,55.7,253.1,55.7,253.1z"/>
	</g>
</g>
</svg>
