<?xml version="1.0" encoding="utf-8"?>
<!-- Generator: Adobe Illustrator 16.0.0, SVG Export Plug-In . SVG Version: 6.00 Build 0)  -->
<!DOCTYPE svg PUBLIC "-//W3C//DTD SVG 1.1//EN" "http://www.w3.org/Graphics/SVG/1.1/DTD/svg11.dtd">
<svg version="1.1" id="Layer_1" xmlns="http://www.w3.org/2000/svg" xmlns:xlink="http://www.w3.org/1999/xlink" x="0px" y="0px"
	 width="595.279px" height="841.891px" viewBox="0 0 595.279 841.891" enable-background="new 0 0 595.279 841.891"
	 xml:space="preserve">
<g>
	<path fill="#E8D103" d="M171.739,489.254c-12.501-1.191-25.3-4.614-37.503-2.977c-19.049,2.529-37.503,5.06-56.402-0.149
		c-2.53-0.744-7.144,0.744-8.632,2.679c-5.953,8.632-10.715,18.008-16.52,26.788c-2.381,3.571-6.102,8.78-9.077,8.78
		c-3.423-0.148-8.483-4.763-9.525-8.334c-6.846-21.728,0.298-41.074,11.757-59.528c13.245-21.281,33.782-19.347,54.022-16.37
		c9.971,1.488,19.495,6.251,29.615,8.186c6.994,1.339,14.286,0.298,21.43,0.298c0.298-12.501-5.209-20.538-13.245-28.425
		c-11.607-11.311-22.472-23.514-31.698-36.759c-36.164-52.385-10.864-120.247,50.599-136.617c4.018-1.042,9.078,1.488,13.691,2.381
		c-1.042,4.614-0.744,9.971-3.274,13.542c-12.203,16.817-18.156,29.467-19.049,46.432c5.357-9.822,10.715-19.793,16.222-29.466
		c2.529-4.465,4.762-9.524,8.482-12.799c2.679-2.232,8.186-3.274,11.459-2.083c2.382,0.893,4.316,6.548,4.019,9.822
		c-1.786,17.263-3.721,34.526-6.697,51.641c-1.488,8.483-4.018,16.965-7.738,24.704c-9.078,18.751-8.036,29.317,6.846,45.241
		c22.918-15.328,45.39-32.294,75.898-26.937c0.446-1.19,0.893-2.232,1.488-3.423c-2.828-1.786-5.655-4.613-8.632-4.911
		c-9.227-0.893-15.328-4.465-15.328-14.436c0-9.227,5.654-14.138,14.436-13.543c9.375,0.595,13.394,6.697,13.096,16.222
		c-0.596,16.072,4.167,20.686,20.239,20.834c10.715,0,21.431,0,32.146,0c15.774-0.149,19.644-4.167,20.388-19.942
		c0.149-3.423-0.297-8.631,1.786-9.971c4.763-3.274,11.608-7.292,15.924-5.953c4.465,1.34,10.12,9.673,9.376,13.692
		c-1.042,4.911-7.888,9.078-12.947,12.798c-2.828,2.083-6.846,2.53-9.822,6.102c30.806-2.232,53.575,13.84,76.195,29.466
		c14.585-14.436,15.924-26.639,7.441-44.646c-4.315-9.078-6.846-19.347-8.632-29.317c-2.679-15.478-4.315-31.252-5.655-47.027
		c-0.298-3.571,2.232-10.269,4.167-10.566c3.721-0.744,9.822,1.042,12.055,4.018c5.209,6.846,8.93,14.882,13.096,22.472
		c3.423,6.102,6.846,12.203,11.162,17.858c-1.637-16.37-8.78-30.21-18.008-43.456c-3.125-4.464-3.273-11.013-4.91-16.519
		c5.804-0.297,12.203-2.53,17.263-0.893c58.933,19.198,81.554,83.935,46.878,135.128c-8.78,13.096-19.644,24.853-30.656,36.164
		c-7.888,8.036-16.52,14.733-13.245,30.508c9.227-1.488,19.347-3.274,29.615-5.06c11.607-2.084,23.216-4.316,34.973-6.102
		c21.132-2.977,34.973,7.887,43.753,25.448c7.292,14.584,12.799,30.21,8.334,46.878c-1.488,5.209-6.846,9.376-10.418,13.989
		c-3.422-4.167-7.44-8.036-10.269-12.501c-6.102-9.376-11.607-19.198-17.411-28.723c-22.473,7.888-43.01,5.655-63.993,2.382
		c-11.905-1.786-24.853,2.083-37.354,3.571c0,1.935,0,3.721,0,5.655c15.18,2.679,30.359,5.357,45.539,8.186
		c35.865,6.548,51.491,45.538,29.912,75.451c-2.679,3.721-8.78,5.06-13.394,7.59c-1.637-4.762-4.762-9.673-4.613-14.286
		c0.744-15.329-4.911-22.473-19.495-26.64c-10.418-2.976-20.091-9.078-30.359-13.096c-8.632-3.423-17.561-6.697-26.639-8.93
		c-3.423-0.744-7.739,1.786-13.841,3.423c31.55,12.353,30.657,47.177,16.817,63.249c-2.53,2.827-7.144,3.869-10.716,5.655
		c-1.785-3.572-4.762-6.995-5.06-10.715c-1.786-23.217-7.441-27.979-30.359-26.342c-11.311,0.744-22.77-0.148-34.229-0.148
		c-33.484-0.149-67.117-0.298-100.603-0.298c-11.161,0-18.899,4.613-20.239,16.816c-0.298,3.572,0,7.292-0.893,10.566
		c-1.042,3.572-2.53,8.334-5.209,9.524c-2.381,1.042-7.59-1.19-9.971-3.571c-17.561-18.454-12.947-55.51,12.798-63.1
		c0.149-1.042,0.149-2.084,0.298-3.126c-5.655-0.297-11.757-1.935-16.816-0.446c-9.673,2.828-18.603,7.739-27.979,11.608
		c-8.036,3.273-15.924,7.292-24.258,9.375c-12.798,3.126-17.858,8.186-18.602,21.579c-0.149,2.828,0.893,5.655,0.148,8.334
		c-1.042,3.721-2.53,9.674-4.911,10.269c-3.125,0.894-8.78-1.488-11.013-4.315c-11.905-14.733-12.055-31.996-8.632-49.558
		c3.869-19.346,18.9-25.001,35.271-28.424c15.18-2.977,30.508-5.357,45.688-8.036C171.589,493.421,171.589,491.337,171.739,489.254z
		 M429.941,470.354c0.596,1.339,1.34,2.679,1.935,4.018c5.357-0.446,11.162,0.149,16.222-1.488c2.827-0.893,4.613-5.357,6.846-8.185
		c-3.274-1.042-7.144-3.571-9.822-2.679C439.763,463.656,435.001,467.377,429.941,470.354z M163.405,474.521
		c0.595-1.19,1.19-2.53,1.786-3.721c-5.358-3.125-10.418-6.994-16.073-9.227c-2.381-0.894-5.952,1.488-9.078,2.381
		c1.638,2.827,2.828,7.292,5.061,8.036C151.052,473.776,157.303,473.776,163.405,474.521z M54.022,465.591
		c-3.274,9.972-5.953,17.858-8.482,25.746c0.893,0.298,1.935,0.596,2.827,0.893C50.45,484.045,68.159,481.068,54.022,465.591z
		 M547.211,493.421c0.893-0.298,1.935-0.744,2.827-1.042c-2.976-8.334-5.952-16.52-9.673-26.788
		C527.269,482.259,545.574,484.64,547.211,493.421z"/>
	<path fill="#FFFFFF" d="M292.134,476.157c-1.042,12.947-1.786,25.895-3.423,38.842c-0.446,4.019-2.679,8.483-5.357,11.608
		c-1.786,2.083-5.953,1.935-9.078,2.827c-0.744-2.827-2.977-6.25-2.084-8.334c11.013-24.406,4.613-50.003,4.316-74.856
		c-0.149-6.102-7.59-12.947-12.947-18.155c-6.399-6.251-14.436-10.864-20.984-17.115c-1.935-1.785-0.744-6.696-0.893-10.269
		c3.423,0.298,7.144,0,10.269,1.34c2.679,1.19,4.315,4.911,6.994,6.25C287.521,422.284,296.598,445.649,292.134,476.157z"/>
	<path fill="#FFFFFF" d="M303.741,470.502c0-0.595,0.596-3.869,0.298-6.994c-3.125-24.704,7.144-41.818,29.169-52.98
		c4.018-2.083,6.846-6.696,10.863-8.929c2.53-1.488,6.102-0.894,9.376-1.19c0.148,3.273,1.637,7.738,0.148,9.375
		c-5.357,5.655-11.31,11.311-18.007,15.18c-13.394,7.739-19.793,18.156-18.305,33.932c1.19,13.394-0.298,26.937,0.446,40.33
		c0.298,6.548,3.571,12.799,4.465,19.347c0.446,3.571-1.042,7.292-1.638,11.013c-3.423-1.786-8.929-2.828-9.971-5.655
		c-3.125-8.78-5.208-18.156-6.399-27.383C302.849,488.807,303.741,480.92,303.741,470.502z"/>
</g>
</svg>
