<?xml version="1.0" encoding="utf-8"?>
<!-- Generator: Adobe Illustrator 25.0.0, SVG Export Plug-In . SVG Version: 6.00 Build 0)  -->
<svg version="1.1" id="Layer_1" xmlns="http://www.w3.org/2000/svg" xmlns:xlink="http://www.w3.org/1999/xlink" x="0px" y="0px"
	 viewBox="0 0 400 400" style="enable-background:new 0 0 400 400;" xml:space="preserve">
<g>
	<path d="M115.4,245.9c-8.4-0.8-17-3.1-25.2-2c-12.8,1.7-25.2,3.4-37.9-0.1c-1.7-0.5-4.8,0.5-5.8,1.8c-4,5.8-7.2,12.1-11.1,18
		c-1.6,2.4-4.1,5.9-6.1,5.9c-2.3-0.1-5.7-3.2-6.4-5.6c-4.6-14.6,0.2-27.6,7.9-40c8.9-14.3,22.7-13,36.3-11c6.7,1,13.1,4.2,19.9,5.5
		c4.7,0.9,9.6,0.2,14.4,0.2c0.2-8.4-3.5-13.8-8.9-19.1c-7.8-7.6-15.1-15.8-21.3-24.7c-24.3-35.2-7.3-80.8,34-91.8
		c2.7-0.7,6.1,1,9.2,1.6c-0.7,3.1-0.5,6.7-2.2,9.1c-8.2,11.3-12.2,19.8-12.8,31.2c3.6-6.6,7.2-13.3,10.9-19.8c1.7-3,3.2-6.4,5.7-8.6
		c1.8-1.5,5.5-2.2,7.7-1.4c1.6,0.6,2.9,4.4,2.7,6.6c-1.2,11.6-2.5,23.2-4.5,34.7c-1,5.7-2.7,11.4-5.2,16.6
		c-6.1,12.6-5.4,19.7,4.6,30.4c15.4-10.3,30.5-21.7,51-18.1c0.3-0.8,0.6-1.5,1-2.3c-1.9-1.2-3.8-3.1-5.8-3.3
		c-6.2-0.6-10.3-3-10.3-9.7c0-6.2,3.8-9.5,9.7-9.1c6.3,0.4,9,4.5,8.8,10.9c-0.4,10.8,2.8,13.9,13.6,14c7.2,0,14.4,0,21.6,0
		c10.6-0.1,13.2-2.8,13.7-13.4c0.1-2.3-0.2-5.8,1.2-6.7c3.2-2.2,7.8-4.9,10.7-4c3,0.9,6.8,6.5,6.3,9.2c-0.7,3.3-5.3,6.1-8.7,8.6
		c-1.9,1.4-4.6,1.7-6.6,4.1c20.7-1.5,36,9.3,51.2,19.8c9.8-9.7,10.7-17.9,5-30c-2.9-6.1-4.6-13-5.8-19.7c-1.8-10.4-2.9-21-3.8-31.6
		c-0.2-2.4,1.5-6.9,2.8-7.1c2.5-0.5,6.6,0.7,8.1,2.7c3.5,4.6,6,10,8.8,15.1c2.3,4.1,4.6,8.2,7.5,12c-1.1-11-5.9-20.3-12.1-29.2
		c-2.1-3-2.2-7.4-3.3-11.1c3.9-0.2,8.2-1.7,11.6-0.6c39.6,12.9,54.8,56.4,31.5,90.8c-5.9,8.8-13.2,16.7-20.6,24.3
		c-5.3,5.4-11.1,9.9-8.9,20.5c6.2-1,13-2.2,19.9-3.4c7.8-1.4,15.6-2.9,23.5-4.1c14.2-2,23.5,5.3,29.4,17.1
		c4.9,9.8,8.6,20.3,5.6,31.5c-1,3.5-4.6,6.3-7,9.4c-2.3-2.8-5-5.4-6.9-8.4c-4.1-6.3-7.8-12.9-11.7-19.3c-15.1,5.3-28.9,3.8-43,1.6
		c-8-1.2-16.7,1.4-25.1,2.4c0,1.3,0,2.5,0,3.8c10.2,1.8,20.4,3.6,30.6,5.5c24.1,4.4,34.6,30.6,20.1,50.7c-1.8,2.5-5.9,3.4-9,5.1
		c-1.1-3.2-3.2-6.5-3.1-9.6c0.5-10.3-3.3-15.1-13.1-17.9c-7-2-13.5-6.1-20.4-8.8c-5.8-2.3-11.8-4.5-17.9-6c-2.3-0.5-5.2,1.2-9.3,2.3
		c21.2,8.3,20.6,31.7,11.3,42.5c-1.7,1.9-4.8,2.6-7.2,3.8c-1.2-2.4-3.2-4.7-3.4-7.2c-1.2-15.6-5-18.8-20.4-17.7
		c-7.6,0.5-15.3-0.1-23-0.1c-22.5-0.1-45.1-0.2-67.6-0.2c-7.5,0-12.7,3.1-13.6,11.3c-0.2,2.4,0,4.9-0.6,7.1
		c-0.7,2.4-1.7,5.6-3.5,6.4c-1.6,0.7-5.1-0.8-6.7-2.4c-11.8-12.4-8.7-37.3,8.6-42.4c0.1-0.7,0.1-1.4,0.2-2.1
		c-3.8-0.2-7.9-1.3-11.3-0.3c-6.5,1.9-12.5,5.2-18.8,7.8c-5.4,2.2-10.7,4.9-16.3,6.3c-8.6,2.1-12,5.5-12.5,14.5
		c-0.1,1.9,0.6,3.8,0.1,5.6c-0.7,2.5-1.7,6.5-3.3,6.9c-2.1,0.6-5.9-1-7.4-2.9c-8-9.9-8.1-21.5-5.8-33.3c2.6-13,12.7-16.8,23.7-19.1
		c10.2-2,20.5-3.6,30.7-5.4C115.3,248.7,115.3,247.3,115.4,245.9z M200.5,173.6C200.5,173.6,200.5,173.6,200.5,173.6
		c-12.8,0-25.6-0.1-38.3,0c-2.6,0-5.4,0.2-7.8,1.1c-14.1,5.4-26.7,13.3-36.9,24.4c-9.1,9.8-8.9,9.9-3,21.6c1.3,2.6,2.9,5.2,3.6,8
		c6.5,23.2,23.6,37.3,42.8,49.4c7.4,4.6,15.5,6.1,24.4,5.1c8.9-1,18.2-1.5,27.1-0.2c13.6,2.1,24.9-2.1,34.8-10.2
		c8.2-6.7,16.9-13.5,22.8-22.1c7.4-10.8,11.9-23.5,18.2-35.1c2.3-4.2,1.8-7.1-0.9-10.7c-11-14.4-25.5-24-42.1-30.4
		c-2.4-0.9-5.2-1-7.8-1C225,173.5,212.8,173.6,200.5,173.6z M295.4,200.2c9.1-10.7,17.9-20.3,25.8-30.5c8.7-11.3,11.2-24.2,8.6-38.4
		c-3.1-16.7-15-32-29.6-36c1.2,2.3,2.7,4.3,3.3,6.5c3.1,11.4,6.2,22.9,8.9,34.4c0.4,1.9-0.6,5.6-1.9,6.2c-2,0.8-5.4,0.3-7.1-1.1
		c-3.3-2.5-6.1-5.8-8.6-9.2c-2.9-3.9-5.2-8.2-8.6-13.6c-0.2,13,1.3,23.7,6.8,34.4c2.8,5.5,2.7,13.4,1.7,19.8c-1,6-5,11.4-8,17.6
		C288.9,192.9,291.5,195.8,295.4,200.2z M115.4,120.5c-0.8-0.1-1.5-0.1-2.3-0.2c-4.7,6.4-8.9,13.1-14.2,18.9
		c-2.1,2.3-6.4,2.5-9.7,3.6c-0.7-3.2-1.5-6.3-2.1-9.5c-0.2-1,0.2-2.1,0.5-3.1c3.4-11.8,6.8-23.6,10.1-34.6
		c-22.3,8.2-35.5,38.4-25.8,62c7,17.1,20.1,29.4,33.4,41.8c3.2-3.6,5.8-6.6,8.4-9.6c-0.5-0.9-0.8-1.6-1.3-2.2
		c-0.6-0.9-1.3-1.7-1.9-2.6c-7.7-11.8-9.2-23.2-2.2-36.6C112.8,140.2,113.2,129.9,115.4,120.5z M44.5,222
		c1.7,14,19.6,18.3,41.7,12.9c-1.4-3.1-2.1-7.7-4.2-8.5C70,221.5,57.6,218.1,44.5,222z M314.6,235.4c25.8,4.4,37.3,0.6,40.4-13.3
		c-10.9-4.1-21.3-0.3-31.9,1.8C317,225.2,314,228.6,314.6,235.4z M295.2,267.4c15.1,9.9,23.8,10.7,31.7,3.1
		C317.7,262.4,300.2,260.4,295.2,267.4z M72.6,270.3c8.3,7.9,20.6,6.4,31.7-3.4C99.6,260.7,84.3,262.2,72.6,270.3z M288.9,233.2
		c0.4,0.9,0.9,1.8,1.3,2.7c3.6-0.3,7.5,0.1,10.9-1c1.9-0.6,3.1-3.6,4.6-5.5c-2.2-0.7-4.8-2.4-6.6-1.8
		C295.5,228.7,292.3,231.2,288.9,233.2z M109.8,236c0.4-0.8,0.8-1.7,1.2-2.5c-3.6-2.1-7-4.7-10.8-6.2c-1.6-0.6-4,1-6.1,1.6
		c1.1,1.9,1.9,4.9,3.4,5.4C101.5,235.5,105.7,235.5,109.8,236z M36.3,230c-2.2,6.7-4,12-5.7,17.3c0.6,0.2,1.3,0.4,1.9,0.6
		C33.9,242.4,45.8,240.4,36.3,230z M367.7,248.7c0.6-0.2,1.3-0.5,1.9-0.7c-2-5.6-4-11.1-6.5-18C354.3,241.2,366.6,242.8,367.7,248.7
		z"/>
	<path d="M196.3,237.1c-0.7,8.7-1.2,17.4-2.3,26.1c-0.3,2.7-1.8,5.7-3.6,7.8c-1.2,1.4-4,1.3-6.1,1.9c-0.5-1.9-2-4.2-1.4-5.6
		c7.4-16.4,3.1-33.6,2.9-50.3c-0.1-4.1-5.1-8.7-8.7-12.2c-4.3-4.2-9.7-7.3-14.1-11.5c-1.3-1.2-0.5-4.5-0.6-6.9
		c2.3,0.2,4.8,0,6.9,0.9c1.8,0.8,2.9,3.3,4.7,4.2C193.2,200.9,199.3,216.6,196.3,237.1z"/>
	<path d="M204.1,233.3c0-0.4,0.4-2.6,0.2-4.7c-2.1-16.6,4.8-28.1,19.6-35.6c2.7-1.4,4.6-4.5,7.3-6c1.7-1,4.1-0.6,6.3-0.8
		c0.1,2.2,1.1,5.2,0.1,6.3c-3.6,3.8-7.6,7.6-12.1,10.2c-9,5.2-13.3,12.2-12.3,22.8c0.8,9-0.2,18.1,0.3,27.1c0.2,4.4,2.4,8.6,3,13
		c0.3,2.4-0.7,4.9-1.1,7.4c-2.3-1.2-6-1.9-6.7-3.8c-2.1-5.9-3.5-12.2-4.3-18.4C203.5,245.6,204.1,240.3,204.1,233.3z"/>
</g>
</svg>
