<?xml version="1.0" encoding="utf-8"?>
<!-- Generator: Adobe Illustrator 25.0.0, SVG Export Plug-In . SVG Version: 6.00 Build 0)  -->
<svg version="1.1" id="Layer_1" xmlns="http://www.w3.org/2000/svg" xmlns:xlink="http://www.w3.org/1999/xlink" x="0px" y="0px"
	 viewBox="0 0 400 400" style="enable-background:new 0 0 400 400;" xml:space="preserve">
<style type="text/css">
	.st0{stroke:#000000;stroke-width:15;stroke-linecap:round;stroke-linejoin:round;stroke-miterlimit:10;}
</style>
<path class="st0" d="M-164.3,299.8"/>
<g>
	<g>
		<path d="M51,309.5c-4,0-6.7,0.2-9.3,0c-8.9-0.9-13.1-7-10.6-15.6c2.9-9.9,9.7-17.1,17.3-23.5c7.7-6.5,16.1-11.9,26.6-12.9
			c0.9-0.1,1.7-0.5,2.5-1c48.7-25.9,96-54,138.4-89.6c10-8.4,19.1-17.8,28.2-27.2c13.9-14.6,21.7-32.1,24.5-52.2
			c1.3-9.6,4.6-19.1,8.1-28.3c5.1-13.5,14-23.4,29.6-23.8c16.3-0.4,30.9,4.9,37.8,20.3c4.6,10.3,12.2,15.5,20.6,20.9
			c1.8,1.2,3.7,2.9,4.5,4.8c1.6,3.9-0.7,7.7-5.2,9c-5.9,1.8-11.9,3.4-17.9,5.2c-1.2,0.4-2.4,1.1-3.1,2c-3.3,4.5-6.2,9.3-9.8,13.5
			c-3.5,4.2-4.9,8.4-4.4,14.1c2.1,23.9,5.6,47.9,4.6,71.7c-2,46.2-24.3,81-65.7,102.8c-2.9,1.5-6.2,2.6-9.3,3.6
			c-3,1-6.1,1.7-9.3,2.6c0,9.3,0,18.5,0,27.9c9.5-2,18.1-0.5,26.1,4.3c5.1,3.1,5.7,7.7,1.7,12.1c-0.7,0.8-0.8,2.2-1.3,3.3
			c-1.1,2.5-1.6,6-3.5,7.1c-1.9,1.1-5.4,0.3-7.9-0.7c-5.3-2.1-10.2-5.3-15.5-7.3c-4.6-1.8-6-0.5-6,4.5c0.1,5.3-4.8,8.7-9.7,6.6
			c-1.5-0.6-2.9-1.6-4.3-2.6c-1.8-1.3-3.2-2-5.6-0.4c-3.8,2.5-8.5,0.7-9.9-3.7c-0.9-2.8-2.6-2.9-4.7-2.9c-6.6,0.2-11.9,3-16.4,7.7
			c-2.8,2.9-5.9,3.6-9.3,1.1c-3.7-2.7-4-7.1-0.7-10.6c5.3-5.6,11.8-9.4,19.6-11.4c0-10.4,0-20.8,0-31.3c-10.4,0-20.7-0.6-30.9,0.1
			c-36.4,2.7-71.4,13.1-106.9,20.9c-7.8,1.7-15.7,3.3-23.6,4.9c-3.9,0.8-7.4,0.4-9.2-3.8c-1.7-4,0-6.9,3.3-9.4
			C39.6,318.5,44.8,314.3,51,309.5z M209.4,190.9c11.5,20.9,36.2,36,60,37.5c5.8,0.4,10-1.1,14.2-5c8.3-8,15.3-16.8,20.3-27.2
			c2-4.2,5.7-5.5,9.4-3.8c3.6,1.7,5.2,5.6,3.1,9.6c-3.6,6.7-7.1,13.5-11.7,19.4c-14.1,17.7-32.9,29-53.4,37.7
			c-54.4,23.3-110.7,26.3-168.1,13.9c-8.8-1.9-15.5-0.5-21.7,5c-5,4.4-9.5,9.3-14.2,14.1c-0.8,0.9-1.3,2.1-2.1,3.6
			c7.6-1,14.5-2,21.4-3c38.3-5.5,76.4-5.9,114.6,1.4c22.1,4.2,44.5,3,66.3-3.1c49.6-14,74.1-56,72.2-103
			c-0.9-20.8-2.8-41.5-4.7-62.2c-0.8-9.1,1.4-16.6,7.6-23.3c3.3-3.5,5.6-8.1,7.8-12.5c1.6-3.3,3.4-5.6,7-6.4
			c2.7-0.6,5.2-1.5,8.2-2.4c-7.7-5.4-7.7-5.5-10.9-13.8c-0.9-2.4-2-4.8-3.5-6.9c-6.1-9-15.1-11.7-25.4-11.1
			c-8.7,0.6-13.2,6.6-16,13.7c-2.9,7.4-5.5,15.2-6.9,23c-3.7,21.6-11.2,41.5-25.2,58.6c-0.2,0.3-0.2,0.8-0.3,1.5c0.7,0,1.3,0,1.9,0
			c0.9-0.1,1.8-0.2,2.7-0.4c20.4-3.5,36.8,4.2,50.9,18.3c2.7,2.7,2.6,7,0,9.5c-2.8,2.7-5.9,2.9-9.1,0.7c-1.5-1-2.7-2.4-4.1-3.6
			c-11.5-9.9-24.5-14.4-39.6-11.1C239.7,164.2,224.5,177.6,209.4,190.9z M214.6,257.1c-20.4-6.7-36.9-17.6-45.2-38.1
			c-24.1,14.4-47.8,28.5-72.3,43.1C137.1,268.4,176,267.1,214.6,257.1z M198,199.4c-5.1,3.5-10,6.6-14.5,10c-0.9,0.7-1.3,2.9-1,4
			c2.4,7.4,6.8,13.5,12.8,18.4c11,8.8,24.2,12,37.6,14.9c9.3,2.1,16.6-0.8,24.8-6.1C231.4,235.2,212.3,220.8,198,199.4z
			 M234.6,308.6c-6.6,0.4-12.7,0.8-18.6,1.2c0,9.3,0,17.9,0,26.4c6.5,0,12.5,0,18.6,0C234.6,327.2,234.6,318,234.6,308.6z
			 M127.3,302.9c0-0.5,0-1.1,0-1.6c-14.2,1.1-28.3,2.4-42.5,3.1c-7.7,0.4-11.4,6.3-16.5,10.6C87.9,310.9,107.6,306.9,127.3,302.9z"
			/>
		<path d="M317.6,66.6c0,3.6-2.3,6.1-5.8,6.2c-3.6,0.1-6.2-2.6-6.1-6.4c0.1-3.6,2.4-5.9,6-5.9C315.3,60.6,317.6,62.9,317.6,66.6z"/>
	</g>
</g>
</svg>
