<?xml version="1.0" encoding="utf-8"?>
<!-- Generator: Adobe Illustrator 25.0.0, SVG Export Plug-In . SVG Version: 6.00 Build 0)  -->
<svg version="1.1" id="Layer_1" xmlns="http://www.w3.org/2000/svg" xmlns:xlink="http://www.w3.org/1999/xlink" x="0px" y="0px"
	 viewBox="0 0 400 400" style="enable-background:new 0 0 400 400;" xml:space="preserve">
<style type="text/css">
	.st0{stroke:#000000;stroke-width:15;stroke-linecap:round;stroke-linejoin:round;stroke-miterlimit:10;}
</style>
<path class="st0" d="M-164.3,299.8"/>
<g>
	<g>
		<path d="M341.7,188.3c-0.4,0.7-0.9,1.4-1,2.2c-1.4,10.7-2.3,21.5-4.2,32.1c-2.1,11.8-0.4,22.9,3,34.2c2,6.6,3.6,13.4,5.1,20.1
			c0.9,4.2,0.1,8.3-2,12.1c-0.5,0.8-0.3,2.3,0.1,3.2c0.7,1.7,1.9,3.2,2.7,4.9c3.5,7.2-0.4,15.8-8.3,16.6c-8.3,0.8-16.7,0.6-25,0.3
			c-4-0.1-5.9-3.2-4.7-7c1.3-4.1,3.8-7.9,4.3-12c0.5-4.1-1.1-8.4-1.3-12.7c-0.7-13-5.3-24.8-12.2-36c-1.1,5.6-2.4,11.3-3.1,16.9
			c-0.6,4.8-0.5,9.6-0.6,14.5c0,0.7,0.1,1.3,0,2c-1.1,6.9-1.3,13.4,1.1,20.5c2.7,8.2-2.1,13.1-10.9,13.3c-6.8,0.2-13.7,0.5-20.5,0.8
			c-8.8,0.3-13.4-6.4-9.8-14.5c1.8-4.1,3.6-8.4,6.4-11.9c5-6.3,5.4-13.4,4.4-20.7c-1.7-12.6-6.2-24.5-11.3-36.1
			c-0.4-0.8-1.7-1.8-2.6-1.8c-15.9,0.3-31.3-1.9-46.1-8.6c-4.3,12.7-9.5,24.7-8.6,38.4c0.5,7.5-1.8,15.1-2.1,22.6
			c-0.2,3.9,0.4,8.2,1.8,11.9c4.5,11.5-2.2,21.8-14.4,21.9c-6.3,0-12.6-0.1-18.8,0.1c-3.4,0.1-5.5-1-6.1-3.9
			c-2.8,0.5-5.5,1.4-8.2,1.5c-6.9,0.2-13.9,0-20.8,0.1c-3.7,0-6.8-1-8.4-4.6c-1.6-3.5-0.4-6.4,2-9c3.6-4.1,5-8.9,4.9-14.3
			c-0.3,0-0.6-0.1-0.7,0c-8,9.4-18.5,11.3-29.7,8.5c-19-4.6-31.8-16.9-39.5-34.6c-6.2-14.1-7.6-29.1-6.9-44.3
			c0.1-1.1,0.1-2.2,0.2-3.3c0-0.3-0.1-0.6-0.1-1.1c-3.4-0.5-6.9-0.8-10.2-1.7c-1.6-0.5-3.7-2.2-3.9-3.5c-0.2-1.4,1.5-3.6,2.9-4.4
			c3.6-2.2,7.5-3.7,11.2-5.7c0.9-0.5,1.9-1.5,2.1-2.5c3.6-14.5,7.2-29,10.6-43.5c0.6-2.4,0.7-5,0.2-7.4c-1.3-7.1,0.3-13.1,6-17.8
			c5.2-4.2,9.4-9,12.3-15.2c3.8-8.2,10.1-14.3,19.5-15.7c3-0.4,6.4,0.1,9.3,1.1c5.6,1.8,11,2,16.8,0.7c13.9-3.1,28-5.8,42.1-8
			c9.4-1.4,18.5,0.1,26.5,6.4c2.3,1.9,6.2,2.1,9.4,2.5c14.1,1.8,28.1,0.5,42-2.3c8.6-1.7,17.1-4.3,25.8-5.5
			c21.7-3,40.8,3.4,57.2,17.6c19.2,16.7,29.5,38.3,32.5,63.4c0.6,5.4,1.2,10.7,3.5,15.9c4.1,9.6,1.6,18.8-4.1,27.2
			c-1.9,2.7-4.7,2.9-6.6,0.3c-3.5-4.5-7.3-8.9-10.1-13.9C342.7,195.6,342.5,191.8,341.7,188.3c0.7-2.4,1.3-4.8,2-7.2
			c0.3-1,1.4-2.1,1.2-3c-0.9-4.6-2.2-9-3.3-13.6c-0.5,6.2-0.5,12.2-0.4,18.2C341.2,184.6,341.5,186.5,341.7,188.3z M357.1,202.7
			c2.7-6.4,2.3-12-0.2-17.6c-1.2-2.7-2.2-5.8-2.4-8.8c-1.3-21.2-8.1-40.4-22.2-56.4c-18.8-21.4-42-29.7-70.1-22
			c-17.5,4.8-35.3,7.4-53.5,6.3c-2.3-0.1-4.5-0.4-6.9-0.6c0.8,3.3,1.3,6.3,2.1,9.3c3.8,13.9,0.6,25.9-9.7,35.9c-3.1,3-6,6.1-9.3,9
			c-7.3,6.4-12.9,13.9-16.2,23c-2.2,6-5,11.5-10.5,15c1.8,5.5,3.7,10.6,5.3,15.9c5,15.8,8.7,31.8,7.7,48.6
			c-0.4,7.2-0.2,14.5-0.1,21.8c0.1,6.8-1.3,13.3-4.1,19.5c-0.8,1.8-1.5,3.6-2.4,5.8c5.9,0,11.3,0,16.7,0c6.7,0,9.9-4.7,7.2-10.8
			c-2.5-5.6-3.1-11.4-2.3-17.4c0.9-6.6,2.3-13.4,2.1-20c-0.4-12,2.1-23.2,6.6-34.1c2.6-6.3,2.8-12.8,1.7-19.5
			c-1.5-8.9-5.1-17-9.7-24.7c-1.4-2.3-1.4-4.4,0.9-6.1c2-1.4,4.5-0.6,6,2c5.8,9.6,10.2,19.8,11.1,31.1c0.3,3,1.7,4.4,4.2,5.5
			c16,7.3,33,8.9,50.1,6.7c16.2-2,30.2,1,40.7,14c11.6,14.3,17.8,30.9,18.4,49.5c0.1,2.5,0.8,5,0.9,7.5c0.1,2.8,0,5.6-0.5,8.3
			c-0.5,2.2-1.8,4.3-2.7,6.4c6.7,0,13,0.2,19.2-0.1c3.1-0.2,4.2-2.7,2.7-5.5c-1-2.1-2.3-4-3.4-6c-1.5-2.6-1.9-5.3,0-7.8
			c2.8-3.6,2.7-7.6,1.7-11.6c-1.4-5.5-3-11-4.6-16.5c-3-10.5-5.2-21.1-3.7-32.2c2-14.4,3.9-28.8,4.9-43.3c1-14.8,0.4-29.5-6.4-43.3
			c-1-2.1-0.6-4.2,1.6-5.4c2.3-1.3,4-0.3,5.4,1.5c8.5,11.1,15.5,23,18.9,36.7c1.1,4.4,1.2,8.6-1.5,12.7c-2,3-1.4,6.4,0.4,9.4
			C352.9,197.2,354.9,199.7,357.1,202.7z M124.9,174.2c0-0.9,0.1-1.7,0-2.4c-2.8-22.2,2.7-43,11-63.3c1-2.5,2.8-3.8,5.5-2.7
			c2.6,1.1,3.1,3.2,2,5.8c-0.3,0.7-0.6,1.4-0.9,2.1c-6.3,16.1-10.8,32.6-10.3,50.1c0.3,9.4,2.4,18.4,8.1,26.1c0.8,1.1,2.7,2,4,1.9
			c7.4-0.3,13.2-3.4,15.8-10.8c4.2-12.2,11.4-22.2,21.2-30.6c3.3-2.9,6.3-6.1,9.3-9.4c4.1-4.5,7.5-9.7,6.9-15.9
			c-0.6-6.5-2-13.1-3.8-19.3c-1.7-5.8-6.4-9.2-12.3-10.4c-3.6-0.7-7.5-1.1-11.1-0.6c-12.6,2-25.2,4.1-37.6,7
			c-9.2,2.2-18,3.2-27.2-0.4c-2.3-0.9-6.1-0.3-8.1,1.1c-3.6,2.6-7.5,5.9-9.4,9.8c-3.5,7.2-8.2,13-14.4,17.8c-3.3,2.6-3.9,5.9-3.4,10
			c0.5,3.6,0.2,7.4-0.3,11c-0.4,2.9-1.6,5.7-2.3,8.6c-2.6,9.9-5.1,19.7-7.8,30.1c1.2-0.4,1.7-0.5,2-0.7c5.4-2.9,10.9-5.7,16.3-8.7
			c5.9-3.3,11.5-1.7,14.6,4.4c0.5,1,0.9,2,1.6,3.6c2.7-2.1,5.4-3.8,7.7-5.9c5.9-5.5,12.6-8.7,20.9-8.1
			C123.5,174.4,124.2,174.3,124.9,174.2z M131,265.9c0.8-2.8,1.7-4.8,1.9-6.9c2.2-19,4.4-38,6.5-57c0.1-0.7,0-1.8-0.4-2.1
			c-5.6-3.8-8.1-9.6-10.8-15.4c-0.4-0.9-1.8-1.8-2.8-2c-7.1-1-13,1.3-18.3,6.2c-3.2,3-7.4,5-11.3,7.2c-3.7,2.1-7.7,3.7-11.5,5.7
			c-0.8,0.4-1.6,1.3-1.8,2.1c-3.9,14.1-5.7,28.3-1.6,42.6c2.6,9.2,8,16.3,16.4,21.1c3.8,2.2,6.5,0.8,7-3.4c0.4-3.3,2.2-5.3,5.7-5.1
			c3,0.2,4.7-1,6-3.5c0.4-0.9,0.9-1.9,1.7-2.4c1.7-1.1,3.7-2.8,5.4-2.7c1.6,0.1,3.7,2.1,4.4,3.7C128.8,257.4,129.6,261.2,131,265.9z
			 M127.5,304.7c7.8,0,15,0,22.5,0c-0.1-2.5-0.2-4.7-0.3-6.8c-0.2-3.6-0.8-7.3-0.4-10.8c1.6-14.4,6-28.1,10.7-41.7
			c1.6-4.6,2.2-9,0.7-13.8c-3.3-10.8-6.3-21.7-9.5-32.7c-1.7,0.5-2.6,0.7-3.2,0.8c-1.8,16.8-3.3,33.3-5.4,49.8
			c-0.8,6.5-2.2,13.1-4.7,19.1c-2,4.8-3.7,9.4-3.7,14.5C134.3,291,132.8,298.2,127.5,304.7z M261.6,228.6c0.6,1.4,1.1,2.4,1.4,3.4
			c3.3,10.7,7,21.3,9.6,32.1c2.4,9.9,1.4,19.6-5.3,28.2c-2.2,2.8-3.6,6.3-5.2,9.5c-1.8,3.8-1.3,4.5,2.7,4.4
			c6.2-0.2,12.3-0.5,18.5-0.7c4.6-0.2,5.9-2.2,3.9-6.5c-0.4-1-1.1-1.9-2-2.6c-2.2-1.7-2.4-3.7-1.3-6.1c2.1-4.8,2.9-9.9,2.3-15.1
			c-0.2-1.9-0.3-4,0-5.9c1.6-9.7,3.5-19.5,5-29.2c0.2-1.4-0.1-3.4-1-4.3C282.2,228.4,272.6,226.6,261.6,228.6z M57.4,210.1
			c0,6.1-0.3,12.1,0.1,18.2c0.8,13.7,3.6,26.9,11.9,38.2c8.6,11.6,19.4,19.6,34.6,20.3c13,0.6,22.3-11,17.2-24.5
			c-3.2,3.8-3.2,3.7-7.9,4.9c-0.6,0.1-1.3,0.8-1.6,1.3c-4.3,8.2-11.5,10.3-19.5,5.4c-14.3-8.8-20.6-22.3-21.4-38.4
			c-0.4-9.6,0.8-19.2,1.3-28.6C67.9,207.7,62.9,208.9,57.4,210.1z M55.5,201.3c0.7,0.2,0.9,0.4,1.1,0.3c10.1-1.1,19.5-4.5,28.1-9.7
			c0.7-0.4,0.7-2.6,0.4-3.8c-0.1-0.4-2.3-0.9-3.1-0.5c-6.6,3.3-13.1,6.8-19.6,10.2C60.3,198.9,58,200,55.5,201.3z M162.4,265.5
			c-3.6,11.5-7.3,23-4.1,35.2C165.7,289.7,161.9,277.3,162.4,265.5z"/>
	</g>
</g>
</svg>
