<?xml version="1.0" encoding="utf-8"?>
<!-- Generator: Adobe Illustrator 25.0.0, SVG Export Plug-In . SVG Version: 6.00 Build 0)  -->
<svg version="1.1" id="Layer_1" xmlns="http://www.w3.org/2000/svg" xmlns:xlink="http://www.w3.org/1999/xlink" x="0px" y="0px"
	 viewBox="0 0 400 400" style="enable-background:new 0 0 400 400;" xml:space="preserve">
<g>
	<g>
		<path d="M12.2,78.3c4-6.5,6.5-7.5,13.9-5.2c15.7,4.8,28.7,13.4,38,27.2c2.8,4.3,5,4.7,9.6,2.3c17.6-9.2,36-16.3,55.2-21.3
			c1.2-0.3,2.7-1.3,3.3-2.4c5.3-9.6,13.2-16.5,22.4-22.3c4.4-2.8,8.7-6,12.5-9.5c9.8-9.1,24-9.3,33.8,0c7.6,7.3,13.9,15.5,18.4,25
			c1.7,3.5,3.8,4.9,7.5,5.6c17.6,3.1,34.4,8.5,49.7,17.8c5.4,3.3,10.5,7.1,15.4,11.2c6.6,5.5,6.4,12.1-0.3,17.6
			c-0.8,0.7-1.6,1.4-2.4,2.1c4.2,8.1,3.4,11.6-3.8,17.5c-17.9,14.5-38.7,22.7-61.1,26.9c-26,5-52,4.6-78-0.5c-1.9-0.4-4.4,0.1-6.2,1
			c-13.3,6.6-27.1,11.2-42,12.1c-11.3,0.7-18.1-8.6-14.7-19.5c1.4-4.4,2.9-8.8,4.4-13.4c-5.3-2.7-10.5-5.6-15.7-8
			c-3.2-1.5-5.9-0.3-7.8,2.7c-9.1,14-22.1,22.6-37.7,27.6c-7.6,2.4-10.1,1.6-14.5-4.8c0-1.7,0-3.4,0-5.1c1.3-1.9,2.6-3.8,4-5.7
			c9.9-13.6,13.2-28.7,10.2-45.3c-2-10.9-7.5-19.9-14.2-28.4C12.2,81.8,12.2,80.1,12.2,78.3z M230.5,89.9c-0.1,0-0.6-0.3-1.2-0.5
			c-25.8-5.4-51.8-5.5-77.7-1.4c-25.7,4.1-49.9,12.4-72.9,24.6c-9.2,4.9-17.7,2.5-23.7-5.9c-2.5-3.6-5.4-7-8.6-10
			c-5.2-5-11.3-8.6-18.6-11.2c14.6,25,14.7,49.5,0.1,74.9c1.9-0.7,3-1,4.1-1.5c9.5-4.5,17.3-10.8,23.2-19.7
			c5.8-8.8,14.2-10.8,23.6-5.9c2.3,1.2,4.5,2.4,6.8,3.5c30.7,15.4,62.9,25.6,97.5,26.5c15.7,0.4,31.2-1.1,45.8-4.8
			c-2.9-6.4-6-12.6-8.5-19c-1.9-4.9-0.2-8.2,3.6-9.1c3.4-0.8,5.5,1.2,7.2,6c1.4,4,3,8,5.2,11.6c4.5,7.4,4.6,7.3,12.5,4.1
			c0.8-0.3,1.6-0.6,2.4-0.9c10.2-4.5,20-9.7,27.3-16.2c-0.4-4.5-1.7-8.3-0.8-11.4c1-3.2,4.2-5.7,6.5-8.6c-0.1-0.1-0.4-0.5-0.8-0.8
			c-11.1-9.4-23.9-15.6-37.6-20c-1.1-0.4-3.3,0.4-4,1.4c-3.5,5.1-6.9,10.3-9.9,15.7c-1.9,3.4-4.4,5.1-7.5,3.9
			c-3-1.2-4.4-4.4-2.8-7.9C224.3,101.4,227.4,95.9,230.5,89.9z M147,76.3c0.2,0.3,0.4,0.7,0.6,1c19.8-3.3,39.7-4.2,60.4-2.3
			c-4.2-8-9.2-14.4-15.1-20c-5.2-5-12.4-4.7-17.9-0.1c-5.2,4.4-10.8,8.2-16.3,12.4C154.8,70.3,150.9,73.3,147,76.3z M98.2,155.3
			c-1.5,4.4-3.2,8.7-4.3,13.1c-0.7,2.7,1,4.2,3.8,4c9.6-1,18.9-3.1,28.1-7.1C116.4,161.9,107.5,158.7,98.2,155.3z"/>
		<path d="M135.4,315.5c-6.9-3.5-13.3-6.9-19.8-10.1c-4.8-2.3-8.6-1.1-11.8,3.9c-6.9,10.5-15.8,19.1-26.9,24.9
			c-6.9,3.6-14.3,6.3-21.6,9c-4.7,1.7-8.8,0.1-11.3-3.5c-2.5-3.6-2.4-8,0.9-11.9c21.6-25.6,21.6-64.7,0.2-90.4
			c-3.4-4.1-3.6-8.4-1-12.1c2.5-3.7,6.6-5,11.7-3.5c20,5.8,36.7,16.4,48.4,34.2c3.1,4.7,6.3,5.5,11.6,3.2c-1-3-1.7-6.2-3-9.2
			c-4.9-11.5,5.2-22.3,16.5-20.5c10.9,1.8,21.6,4.1,31.8,8.2c1.5,0.6,3.6,0.6,5.2,0.2c6.5-1.7,13-3.5,19.4-5.5
			c1.3-0.4,2.8-1.2,3.3-2.3c6.3-12.2,16.1-20.7,27.5-27.9c5.4-3.4,10.7-7.4,15.4-11.7c11.4-10.7,28.1-11.1,39.4-0.3
			c10.1,9.6,18.1,20.8,24,33.5c1.2,2.5,2.7,3.5,5.4,4c27.9,4.7,54.2,13.7,77,31.1c2.3,1.8,4.6,3.7,6.7,5.7
			c5.8,5.6,5.5,12.7-0.5,17.8c-1.7,1.4-3.4,2.8-5.2,4.3c0.2,0.4,0.4,0.9,0.7,1.2c4.9,6,4.4,12-1.4,17.1
			c-11.4,9.9-24.3,17.3-38.1,23.1c-5.6,2.4-11.4,4.4-17.2,6.3c-2.4,0.8-3.5,2.1-4.5,4.2c-3.4,7-6.7,14.1-10.7,20.8
			c-6.7,11.2-20.8,11.4-28.2,0.5c-3.1-4.5-6-9.3-9.2-13.7c-0.8-1.1-2.7-1.9-4.1-2c-3.5-0.2-7.1,0.1-10.6,0.1c-4.2,0-6.7-2.2-6.7-5.6
			c0-3.4,2.3-5.4,6.4-5.5c15.8-0.3,31.5-1.6,47-5c2.5-0.6,5-1.2,7.8-1.8c-20.3-28.9-19.8-57.2,2.3-85.5c-7.4-1.3-14.5-2.8-21.7-3.8
			c-21.3-2.9-42.7-3.1-64.1-0.7c-36.1,4.1-70.3,14.4-102.4,31.3c-5.1,2.7-10.2,4.8-16.1,3.6c-5.8-1.2-10.1-4.6-13.3-9.5
			c-8.6-13.1-20.6-21.7-35.2-27c-0.6-0.2-1.3-0.4-2.8-0.8c10.6,15,15.9,31.1,15.9,48.6c0,17.6-5.3,33.6-16,48.7
			c16.3-5.6,29.1-14.2,38-27.9c3.5-5.4,8.2-9,14.6-10c4.9-0.8,9.1,0.7,13.3,3c22.8,12.2,46.5,22.2,71.7,28.5
			c10.5,2.6,21.3,4.4,31.9,6.4c4.4,0.8,6.7,3,6.2,6.6c-0.5,3.5-3,5.1-7.4,4.5c-6.8-1-13.5-2.3-20.3-3.3c-1.7-0.2-3.7-0.2-5.2,0.6
			c-15.5,8.1-31.9,13.3-49.3,15.6c-11.1,1.5-19.3-3.3-21.1-13.2c-0.5-2.7,0-5.9,0.8-8.6C131.3,327.4,133.4,321.5,135.4,315.5z
			 M376.6,272.6c0,0-0.1-0.4-0.4-0.6c-0.7-0.7-1.4-1.4-2.2-2c-14-11.5-30-19.1-47.1-24.6c-1.2-0.4-3.3,0.5-4.4,1.5
			c-20.6,19.1-21.7,52.9-2.7,73.4c1.6,1.8,3,2.2,5.4,1.4c12.7-4.6,24.8-10.4,35.9-18.1c3.5-2.4,6.8-5.1,10.3-7.8
			c-3.8-3.9-5.8-8.2-3.5-12.7C370,279.4,373.5,276.4,376.6,272.6z M283.3,225.2c-3.3-7.9-11.6-19.1-19.4-26.6
			c-7.4-7-17.1-6.8-24.7,0.1c-5.1,4.6-10.9,8.6-16.4,12.8c-2.6,2-5.7,3.4-8.2,5.5c-4,3.3-7.6,7-11.4,10.5c0.2,0.3,0.5,0.7,0.7,1
			C230,223.6,256.4,222.6,283.3,225.2z M184.4,334.3c-13.4-4.8-25.9-9.3-38.8-13.9c-1.9,5.6-3.9,11.2-5.6,17
			c-1.3,4.4,1.6,7.7,6.1,6.9c8.4-1.5,16.8-3.2,25.1-5.2C175.5,337.9,179.6,336,184.4,334.3z M281.4,343.1c2.8,4.1,5.1,7.8,7.7,11.3
			c1.9,2.6,5.6,3.2,7.3,0.8c3.5-4.9,6.4-10.2,9.5-15.4c-0.3-0.2-0.6-0.4-0.9-0.6C297.3,340.5,289.6,341.7,281.4,343.1z M125.8,254
			c7.1-3.1,13.8-6.1,20.6-9.1c0-0.4,0-0.7,0-1.1c-6.6-1.1-13.1-2.3-19.7-3.1c-3.2-0.4-4.6,1.5-3.7,4.5
			C123.7,248.1,124.8,250.9,125.8,254z"/>
		<path d="M261.3,258.4c3.9,0,7.8-0.1,11.8,0c3.4,0.1,5.7,2.3,5.8,5.3c0.1,3.2-2.3,5.6-5.9,5.6c-6.7,0.1-13.5,0-20.2,0
			c-5.3,0-8.7,2.2-10.3,6.2c-1.5,4.1-0.3,7.7,3.8,11.3c5.3,4.5,11.5,6.8,18.4,7.5c2.2,0.2,4.4,0.3,6.6,0.6c3.2,0.4,5.4,2.8,5.1,5.6
			c-0.3,3-2.1,5.3-5.1,5.3c-14.4,0.1-27.5-3.7-36.8-15.5c-5-6.3-5.1-13.6-1.5-20.8c3.5-7,9.4-10.8,17.3-11.2
			C253.9,258.2,257.6,258.4,261.3,258.4z"/>
		<path d="M191.8,102.3c3.2,0,6.4-0.1,9.5,0c3.6,0.2,5.7,2.2,5.7,5.4c0.1,3.2-2.2,5.6-5.9,5.7c-5.5,0.1-11,0.1-16.5,0
			c-3.4-0.1-6,1.1-7.2,4.4c-1.2,3.3,0.2,5.6,2.6,7.7c5.4,4.6,11.8,6.2,18.7,6.4c4.3,0.1,7.2,3.2,6.3,6.7c-0.7,2.6-2.3,4.3-5.2,4.4
			c-10.8,0.2-20.6-2.6-28.5-10.3c-5.3-5.2-7.1-11.4-4.5-18.4c2.6-7.1,7.7-11.2,15.3-11.8c3.2-0.3,6.4,0,9.5,0
			C191.8,102.4,191.8,102.4,191.8,102.3z"/>
		<path d="M255.7,121.7c-4.3,0-6.4-1.4-6.9-4.4c-0.5-3,1.2-5.7,4.1-6.5c4.3-1.1,8.4,0.2,9.7,3.1
			C264.4,118.2,261.3,121.7,255.7,121.7z"/>
		<path d="M318.7,275.3c0.1-9.5,7.9-17,17.6-16.9c9.1,0.1,16.7,7.8,16.8,17c0,9.4-8,17.3-17.4,17.2
			C326.2,292.4,318.6,284.6,318.7,275.3z M341.7,275.6c0.1-3.3-2.6-6.2-5.8-6.2c-3,0-5.8,2.7-5.9,5.8c-0.1,3.3,2.5,6,5.9,6
			C339.1,281.3,341.6,278.9,341.7,275.6z"/>
	</g>
</g>
</svg>
