<?xml version="1.0" encoding="utf-8"?>
<!-- Generator: Adobe Illustrator 25.0.0, SVG Export Plug-In . SVG Version: 6.00 Build 0)  -->
<svg version="1.1" id="Layer_1" xmlns="http://www.w3.org/2000/svg" xmlns:xlink="http://www.w3.org/1999/xlink" x="0px" y="0px"
	 viewBox="0 0 400 400" style="enable-background:new 0 0 400 400;" xml:space="preserve">
<style type="text/css">
	.st0{stroke:#000000;stroke-width:15;stroke-linecap:round;stroke-linejoin:round;stroke-miterlimit:10;}
</style>
<path class="st0" d="M-164.3,299.8"/>
<g>
	<g>
		<path d="M343.7,153.6c6.3,9,11.4,18.6,13.4,29.5c0.4,2.1,1,4.4,0.7,6.5c-0.2,1.9-0.9,4.5-2.3,5.4c-1.2,0.8-3.9,0.3-5.5-0.5
			c-8.6-4.7-17-9.7-25.5-14.6c-1-0.6-2.2-0.9-2.7-1.1c2.7,6.6,5.9,13.3,8.1,20.3c1.5,4.6,1.7,9.7,2,14.7c0.3,5-3.1,6.7-7.7,4.7
			c-6.5-2.9-13-6.1-19.8-7.9c-11.8-3.3-18.9,0.3-24.4,11.2c-8.8,17.4-18,34.8-31.3,49.2c-8.7,9.5-18.8,17.8-28.3,26.6
			c-4.8,4.5-9.4,9.1-14.4,13.3c-3.1,2.6-6.6,4.8-10.1,6.8c-1.7,0.9-2.7,1.5-2.6,3.6c0.1,5.9-0.1,11.9,0.1,17.8
			c0.1,1.5,0.9,3.2,1.9,4.3c2.5,2.8,5.4,5.2,8.1,7.8c2.4,2.3,2.6,5,0.7,7.1c-1.9,2.1-4.6,2.1-7.1-0.1c-2.3-2-4.4-4.1-6.6-6.2
			c-0.4,0.1-0.9,0.1-1.1,0.4c-5,6.7-11.9,8.1-19.7,7.5c-2.5-0.2-5.1,0-7.6-0.1c-3-0.1-4.8-1.6-4.8-4.7c0-3.1,1.8-4.6,4.8-4.6
			c4.5,0,9,0,13.5,0c5.7-0.1,8.2-2.5,8.3-8.2c0.1-6.8,0.1-13.6-0.1-20.4c0-1.1-0.9-3-1.8-3.2c-5.5-1.4-9.7-4.7-13.9-8.3
			c-1.4-1.2-2.9-2.1-3.6-2.6c-4.8,3.5-9.2,6.6-13.5,9.9c-0.8,0.6-1.3,2.2-1.3,3.3c-0.1,7,0,14.1-0.1,21.1c0,10.6-6.8,17.5-17.4,17.7
			c-4.5,0.1-9,0.1-13.5,0c-3.5-0.1-5.2-1.6-5.2-4.7c0-3,1.7-4.6,5.2-4.7c4.5-0.1,9,0,13.5,0c5.9-0.1,7.9-2.2,8-7.9
			c0-7.5,0-15,0-22.6c0-0.4-0.1-0.7-0.2-1.3c-13-3.6-18.3-14.1-21.8-25.8c-1.4-4.6-3.8-7.2-8-9.3c-14.2-7.2-27.5-15.8-39.3-26.6
			c-14.1-13-23.9-28.5-26.8-47.8c-2.3-15.3-0.2-30.2,5.1-44.6c0.4-1.1,0.8-2.2,1.3-3.3c-13.5-5.7-16.1-14.3-9.8-31.9
			c-2.6,0.8-4.9,1.6-7.3,2.3c-4.4,1.3-7.3-1.3-6.8-6c0.9-7.7,4.8-13.8,10.4-19c0.5-0.5,1-1,1.6-1.5c-9-10.7-10.4-21.8-4.2-32
			c5-8.2,10.4-10.3,20-7.5c1.6-5.3,4-10.1,10.3-11.3C71,53,75,56.3,78.4,60.7c11.1-6,17.2-5.9,23,0.2c6.3,6.6,6.4,15,0.1,25
			c9.4,5.9,14.6,15.3,20.3,24.2c11,17.1,21.6,34.5,33.3,51.1c5.1,7.2,12.1,13.1,18.7,19.2c4.3,4,9.8,6.1,15.8,6.7
			c2.5,0.3,3.8-0.3,4.5-3.2c5.3-21.1,13.7-40.8,27.5-57.9c19.4-24,44.6-33.8,75.1-31.5c22.8,1.7,42.8,9.9,59.2,26.1
			c13.4,13.3,21.3,29.5,25.1,47.9c0.3,1.5-0.7,4.1-1.9,4.8c-1.4,0.8-4.2,0.6-5.5-0.3c-5-3.4-9.6-7.3-14.6-10.8
			c-4.7-3.3-9.7-6.2-14.6-9.3C344.1,153.1,343.9,153.3,343.7,153.6z M54.3,184.3c-0.3,1.1-0.7,1.7-0.7,2.4
			c-2.3,19.4,1.6,37.2,14.2,52.5c17.6,21.2,40.7,34.6,65.8,44.5c16.1,6.4,32.6,11.2,46,23.2c6,5.3,13.4,3.9,19.3-1.8
			c6.6-6.4,13.2-12.9,20.4-18.6c15.9-12.4,28.9-27.2,39.1-44.5c5-8.4,9.5-17.2,14.1-25.8c7.6-14.2,21.2-19.4,36.3-13.8
			c4,1.5,8,3.3,12.1,5.1c-0.6-11.9-4.5-22-13.7-29.5c-2.5-2.1-5.8-3.7-8.9-4.5c-10.2-2.5-19.2,0.9-27.3,6.8
			c-5.2,3.8-10,8.1-14.8,12.3c-2.4,2.1-4.6,2.6-7,0.3c-2-2-1.9-4.6,0.5-7c2.8-2.9,5.6-5.7,8.6-8.4c12.1-11,26.1-16.2,42.6-14.2
			c11.7,1.4,22.5,5.5,32.9,10.7c4.3,2.2,8.4,4.6,13.1,7.1c-0.3-1.1-0.3-1.8-0.6-2.5c-3.9-11.6-10.4-21.6-19.6-29.7
			c-4.7-4.1-9.9-7.5-16.1-8.8c-11.1-2.3-22.4-3.1-33.6-0.8c-14.2,2.9-27.1,8.3-35.9,20.6c-1.7,2.3-4.1,2.6-6.4,1.1
			c-2.4-1.6-3-4.1-1.2-6.3c3.2-3.9,6.3-8.1,10.3-11.2c14.5-11.3,31.4-15.4,49.4-14.8c17.5,0.5,34.2,5,49.7,13.2
			c8.4,4.5,16.5,9.5,24.5,14.2c-2.4-9.9-12-24.2-21.9-32.7c-15.5-13.3-33.7-19.2-53.8-19.6c-17.2-0.4-33.4,3.1-47.6,13.7
			c-10.7,8-18.8,18.1-25.3,29.6c-7.6,13.3-12.9,27.6-16.2,42.6c-0.6,2.6-1.1,5.5-4.3,6c-3.4,0.5-7,1-10.4,0.7
			c-10.5-1.1-18.8-6.7-26.3-13.6c-10.8-9.9-19.2-21.8-27.1-34c-0.7-1-1.4-2-2.5-3.5c-1.5,5.9-2.8,10.9-4.1,15.9
			c-1.3,5-3.3,6.1-8.2,4.4c-4.6-1.7-9.3-3.4-14.1-5.2c-1.7,4.1-3.3,8-4.9,11.9c-3,7.4-4,7.8-11.3,4.8c-3.1-1.3-6.2-2.5-9.5-3.8
			c-2.6,5.9-4.9,11.4-7.4,16.9c-2,4.6-4.9,5.3-8.8,2.1C60.5,189.6,57.5,187,54.3,184.3z M119.5,155.3c1.8-7,3.5-13.6,5.1-20.3
			c0.2-0.9-0.1-2.2-0.6-3c-5.9-9.6-11.7-19.2-18-28.6C98.4,92.3,87.5,87.9,74.5,89c-7.2,0.6-13.3,3.6-17.1,10.1
			c-1,1.7-1.3,3,0.3,4.8c3.9,4.5,4.7,9.9,3.6,15.7c-0.2,1.1,0,2.6,0.6,3.6c7,10.8,7.9,21.7,1.6,33.2c-2.6,4.7-4.4,9.9-6.4,15
			c-0.3,0.9-0.2,2.5,0.4,3.1c2.5,2.4,5.3,4.6,8.3,7.1c2.3-5.3,4.4-10.2,6.6-15.2c1.8-4.2,3.8-5,8.1-3.3c3.8,1.5,7.6,3.1,11.6,4.8
			c2.1-5.1,4-9.9,6.1-14.6c1.6-3.7,3.5-4.5,7.2-3.2C110,151.7,114.5,153.5,119.5,155.3z M46.6,98.3c2.8-3.6,5-7.4,8.1-10.3
			c9.7-8.9,21.3-10,33.6-7.5c3.8,0.8,6.4-0.2,7.9-3.1c1.7-3.3,0.5-8-2.5-10.5c-2.8-2.3-5.5-1.7-8.2,0.5c-6.2,5-8.5,4.8-13.9-1.2
			c-3-3.4-6.9-2.6-8.4,1.6c-0.3,0.9-0.4,1.9-0.7,2.8c-1.4,5.7-4.3,7.1-9.5,4.6c-5.8-2.8-8.1-2-10.8,3.8c-0.8,1.8-1.4,3.9-1.7,5.9
			C39.7,90.1,42.1,97.8,46.6,98.3z M155.5,301.9c-9-3.3-17.8-6.5-26.7-9.6c0.9,3.5,2.1,6.4,3.7,9.1
			C138.7,311.7,147.6,312.1,155.5,301.9z M53.3,129.6c-6,5.2-8,12.1-5.4,17.7c1,2.2,2.3,4,5.2,3.7c2.8-0.3,4.3-1.8,4.9-4.5
			C59.4,140.1,57.9,134.6,53.3,129.6z M39,120.3c3.8-0.8,7.2-1.4,10.6-2.2c0.9-0.2,2.4-1.1,2.3-1.4c-0.3-1.9-0.8-3.8-1.6-5.6
			c-0.2-0.4-1.9-0.6-2.7-0.3C43.5,112.6,40.4,115.4,39,120.3z"/>
		<path d="M203.3,252.5c-4.8-1.6-9.4-2.8-13.9-4.6c-3.6-1.5-4.5-4.2-3.1-6.9c1.4-2.6,3.8-3.2,7.2-1.4c14.5,7.7,33.2-2.6,39.1-13.1
			c1.5-2.6,1-3.8-2-4.5c-9.8-2.1-19.6-4.3-29.4-6.4c-3.7-0.8-5.4-2.8-4.9-5.6c0.6-3,3.1-4.4,6.8-3.6c9.8,2.1,19.6,4.2,29.4,6.4
			c10.3,2.3,13.6,9.5,8.2,18.7c-5.4,9.2-13.9,14.6-23.8,18c-2.2,0.7-3.1,1.7-3.8,4c-3.6,12.1-12.9,18.1-24.4,20.9
			c-18.9,4.5-35.4-1.5-50.2-12.9c-11.6-8.9-19.2-20.2-21.4-35c-2.5-17,8.7-34.4,25.3-38.8c2.9-0.8,5.1-0.1,6.2,2.7
			c1.1,2.7-0.2,5.3-3.4,6.2c-16,4.2-23.6,21.3-16.3,38c7.8,17.9,22.6,27.5,41.4,31.3c8.3,1.7,16.4,0.4,24-3.6
			C199,259.7,201.7,256.7,203.3,252.5z"/>
		<path d="M78.1,114.4c-4.8,0-8.6-3.6-8.7-8.4c-0.1-4.8,3.8-8.9,8.6-9c4.7,0,8.8,4.2,8.8,8.9C86.7,110.6,82.9,114.4,78.1,114.4z"/>
	</g>
</g>
</svg>
