<?xml version="1.0" encoding="utf-8"?>
<!-- Generator: Adobe Illustrator 25.0.0, SVG Export Plug-In . SVG Version: 6.00 Build 0)  -->
<svg version="1.1" id="Layer_1" xmlns="http://www.w3.org/2000/svg" xmlns:xlink="http://www.w3.org/1999/xlink" x="0px" y="0px"
	 viewBox="0 0 400 400" style="enable-background:new 0 0 400 400;" xml:space="preserve">
<style type="text/css">
	.st0{stroke:#000000;stroke-width:15;stroke-linecap:round;stroke-linejoin:round;stroke-miterlimit:10;}
</style>
<path class="st0" d="M-164.3,299.8"/>
<g>
	<g>
		<path d="M383,260.7c-1.9,2.9-4.5,3.6-7.8,3.6c-19.7-0.2-38.9-3-57.5-9.6c-1.2-0.4-3.1-0.1-4.1,0.6c-4.7,3.2-9,6.9-13.7,10.1
			c-2.1,1.4-2.1,3.1-1.1,4.8c1,1.7,2.3,3.3,3.7,4.7c4.8,4.8,6.8,10.7,6.6,17.4c-0.1,3.8-2.2,5.9-6,5.9c-16.8,0-33.6,0-50.5,0
			c-4,0-6.4-2.3-5.9-6.2c0.6-4.3,2-8.4,3.2-12.6c0.3-1.2,1.1-2.3,1.9-3.9c-1.7,0-3,0-4.2,0c-20.7,0-41.5-0.2-62.2,0.1
			c-18.3,0.3-36.4-0.7-54.1-7.1c0.5,5.7,1.2,11,1.5,16.3c0.3,6.1-1.6,7.8-7.7,7.8c-15.9,0-31.7,0-47.6,0c-5.4,0-7.3-1.9-7.2-7.3
			c0.2-8.8,3.2-16.3,9.5-22.6c1-1,1.7-2.8,1.8-4.2c0.2-4.4,1.4-9.6-0.5-12.9c-1.8-3.1-7.1-4.2-10.8-6.2
			c-12.5-6.6-24.5-13.9-35.2-23.2c-6.8-6-13.2-12.4-15.4-21.6c-1.6-6.9,0.1-13.6,1.6-20.3c1-4.6,2.1-9.2,3.8-13.6
			c0.7-1.8,2.9-4.2,4.5-4.2c9.6-0.3,19.2-0.7,28.7,0.3c12,1.3,21,8.6,29.1,17c2.1,2.2,4.1,4.6,6,6.8c5.4-4.3,10.6-8.8,16.2-12.7
			c21.3-14.8,45.2-22.9,70.7-26.6c18.1-2.6,36.3-3.3,54.5-0.7c40.2,5.7,73.5,24,99.8,55.1c2.2,2.6,3.2,5.3,3,8.7
			c-0.2,4.5,0.2,9-0.1,13.5c-0.3,3.9,1.1,6.8,3.5,9.6c9.6,11.7,21.8,19.4,35.8,24.7c2.3,0.9,4.2,2.7,6.3,4.1
			C383,257.9,383,259.3,383,260.7z M82.4,281c13,0,25.7,0,39.5,0c-1.9-6.7-3.4-13-5.3-19.2c-0.8-2.7-1.3-5.1,0.8-7.3
			c2.2-2.3,4.8-2.1,7.5-0.9c16.6,7.3,34,10.6,52.1,10.5c28.4-0.1,56.9,0,85.3-0.1c2.8,0,5.2,0.5,6.5,3.3c1.4,2.9,0,5.1-1.8,7.4
			c-2.9,3.7-5.4,7.6-8.4,11.9c13.3,0,25.6,0,38.7,0c-1.7-2-2.8-3.4-4.1-4.7c-4.8-4.7-7.1-10.4-6.7-16.9c0.1-2.1,1.3-4.6,2.9-5.9
			c6.9-5.6,14.1-10.7,21.2-16.1c2.3-1.8,4.6-1.8,7.3-0.9c7,2.3,14.2,4.5,21.3,6.5c2.5,0.7,5.1,1,8.5,1.7c-4.3-4-8-7.1-11.3-10.6
			c-5.8-6.1-11.7-12.3-10.4-21.8c0,0-0.2-0.1-0.4-0.2c-4,3.3-7.8,6.8-12,9.8c-39.1,28.1-82.8,36.1-129.5,28.2
			c-36.2-6.1-65.5-25.1-88.9-53c-4.9-5.8-8.9-12.3-13.7-18.1c-6.7-8.1-14.5-15.3-25.5-16.7c-5.9-0.8-12.1,0-18.1-0.5
			c-3.5-0.3-3.6,1.9-4.4,4.1c-1,2.7,1,3,2.5,3.7c6.3,3.2,12.7,6.3,19,9.5c3.5,1.8,4.7,4.8,3.2,7.9c-1.5,3.2-4.7,4.1-8.5,2.3
			c-1.7-0.8-3.4-1.7-5.1-2.6c-4.5-2.2-9-4.5-13.7-6.8c-1.9,7.1,1.5,11.8,5.6,16c13.2,13.7,29.5,22.6,46.2,31.3
			c0.6-1.1,1-1.9,1.5-2.7c4.1-7.3,10.6-10.9,18.8-11.5c4.1-0.3,6.5,1.7,6.8,5.1c0.3,3.6-1.8,5.8-6.1,6.3c-7.5,0.9-10.9,4.5-11,12.2
			c-0.1,7.1,0.2,14.2-0.1,21.3c-0.1,1.9-1.4,4.3-2.9,5.5C86.1,272.3,83.6,276,82.4,281z M117,176.8c25.9,27.5,57.3,41.7,94.5,41.8
			c35.8,0.1,69-8.2,96.8-33c-27.8-23.1-59.4-34.9-95-35.1C179.1,150.5,146.5,157.3,117,176.8z M316.9,193.4
			c-2.4,2.1-4.3,3.8-6.3,5.5c-2,1.6-4.1,3.3-6.2,4.7c-35.1,24-74.2,30.4-115.5,24.5c-31.7-4.5-58.1-19.8-79.9-43.2
			c-0.4-0.4-0.9-0.7-1.4-1.1c-2.4,2.3-4.7,4.5-7.4,6.9c30.5,36.8,68.5,57.4,116.7,56.2c41.6-1,78.6-13.5,107.9-45.2
			C321.9,198.8,319.5,196.2,316.9,193.4z"/>
		<path d="M218.1,181.7c0,6.4,0,12.8,0,19.2c0,4.2-2.2,6.6-5.8,6.5c-3.4-0.1-5.5-2.4-5.5-6.4c0-12.8,0-25.6,0-38.4
			c0-3.9,2.2-6.3,5.6-6.3c3.4,0,5.7,2.3,5.7,6.3C218.1,168.9,218.1,175.3,218.1,181.7z"/>
		<path d="M173.8,196c-5.3,0-8.2-4-6.3-7.9c3.7-7.9,7.6-15.7,11.7-23.4c1.5-2.8,4.7-3.5,7.4-2.2c2.7,1.3,4.1,4.3,2.7,7.2
			c-3.8,8-7.7,15.9-11.9,23.7C176.6,194.8,174.5,195.5,173.8,196z"/>
		<path d="M242.2,161.9c0.8,0.6,2.8,1.6,3.7,3.3c4,7.4,7.7,14.9,11.3,22.4c1.6,3.3,0.5,6.3-2.5,7.8c-2.9,1.4-6.1,0.4-7.7-2.8
			c-3.8-7.3-7.5-14.7-11.1-22.2C233.9,166.2,236.5,161.9,242.2,161.9z"/>
		<path d="M162,172.7c-1.1,2-1.6,3.6-2.6,4.8c-1.6,1.9-3.4,3.6-5.2,5.3c-2.6,2.4-5.9,2.5-8.2,0.2c-2.3-2.2-2.3-5.6,0-8.2
			c1.9-2.1,3.8-4.4,6.1-5.8c1.5-1,4.2-1.3,5.8-0.7C159.5,168.9,160.6,171.1,162,172.7z"/>
		<path d="M268.7,172.6c2,1.1,3.6,1.6,4.8,2.6c1.9,1.6,3.6,3.4,5.3,5.2c2.4,2.6,2.5,5.9,0.3,8.2c-2.2,2.3-5.6,2.4-8.2,0
			c-2.1-1.9-4.4-3.8-5.8-6.1c-1-1.5-1.3-4.1-0.7-5.8C264.9,175,267.1,174,268.7,172.6z"/>
	</g>
</g>
</svg>
