<?xml version="1.0" encoding="utf-8"?>
<!-- Generator: Adobe Illustrator 24.1.1, SVG Export Plug-In . SVG Version: 6.00 Build 0)  -->
<svg version="1.1" id="Layer_1" xmlns="http://www.w3.org/2000/svg" xmlns:xlink="http://www.w3.org/1999/xlink" x="0px" y="0px"
	 viewBox="0 0 952.61 660.76" style="enable-background:new 0 0 952.61 660.76;" xml:space="preserve">
<g>
	<path d="M874.63,395.44c-0.26,1.51-0.65,3.01-0.74,4.52c-0.09,1.48-0.22,3.11,0.28,4.44c1.54,4.14,1.16,8.29,0.42,12.43
		c-0.83,4.65-1.93,9.25-2.92,13.87c-1.33,6.17-5.23,10.36-10.63,13.13c-5.82,2.98-11.59,6.46-17.81,8.18
		c-8.27,2.3-15.73,6.26-23.62,9.22c-6.82,2.56-11.24,7.46-16.12,12.06c-8.02,7.56-16.18,14.83-25.48,20.93
		c-7.32,4.81-13.53,11.29-20.63,16.48c-6.23,4.56-12.89,8.58-19.58,12.46c-12.84,7.44-26.92,11.63-41.43,14.1
		c-8.51,1.44-17.2,1.82-25.82,2.52c-9.61,0.79-19.23,1.76-28.87,2.01c-9.32,0.24-18.72,0.22-27.99-0.69
		c-9.62-0.95-19.18-1.55-28.82-0.84c-6.05,0.45-12.11,0.71-18.17,1c-6.11,0.29-11.47,2.04-16.53,5.85
		c-6.69,5.03-13.83,9.57-21.2,13.54c-8.66,4.66-17.67,8.7-26.71,12.59c-9.72,4.18-20.11,5.92-30.49,7.8
		c-7.91,1.44-15.65,3.84-23.42,5.99c-12.64,3.5-24.41,9.08-35.86,15.36c-12.16,6.67-24.35,13.28-36.5,19.98
		c-3.61,1.99-9.96-2.09-10.9-6.39c-1.09-5,1.4-8.5,4.27-11.48c7.45-7.74,15.52-14.89,22.98-22.62c3.09-3.2,5.77-7.04,7.67-11.04
		c1.08-2.28,0.19-5.48,0.19-7.46c-4.32-0.55-7.57-1.42-10.77-1.25c-5.21,0.26-10.52,0.68-15.54,1.98
		c-7.01,1.82-13.78,4.58-20.68,6.84c-5.82,1.91-11.63,3.89-17.55,5.47c-6.53,1.74-9.24-1.3-8.97-8.18c0.29-7.24,5.18-11.1,9.92-14.9
		c5.63-4.52,11.89-8.26,17.83-12.4c1.59-1.11,3-2.46,4.49-3.7c-0.23-0.31-0.45-0.61-0.68-0.92c-4.55,0-9.12,0.24-13.65-0.06
		c-5-0.33-9.96-1.3-14.95-1.74c-6.55-0.57-13.14-1.44-19.66-1.11c-3.73,0.19-7.32,2.57-11.02,3.85
		c-12.51,4.32-24.89,9.1-37.61,12.71c-8.97,2.55-18.1,4.9-27.78,4.27c-6.37-0.42-12.85,1.01-19.29,1.21
		c-4.25,0.13-8.52-0.4-12.78-0.71c-1.71-0.13-3.4-0.68-5.09-0.67c-6.37,0.04-11.26-3.01-15.79-7.06c-2.22-1.98-1.74-4.08,0.2-5.29
		c4.32-2.7,8.98-4.87,13.45-7.33c3.8-2.1,7.56-4.27,11.3-6.48c3.28-1.94,6.6-3.83,9.73-6c2.11-1.47,4.03-3.29,5.78-5.18
		c0.57-0.62,0.82-2.58,0.4-2.91c-2.82-2.24-5.62-4.76-8.88-6.14c-4.02-1.7-8.43-2.6-12.74-3.49c-14.36-2.97-28.85-4.54-43.51-2.77
		c-6.42,0.78-14.42-4.58-15-10.67c-0.14-1.46,1.45-3.41,2.74-4.61c7.83-7.29,17.65-10.77,27.59-13.92
		c6.95-2.2,13.87-4.61,20.96-6.21c8.08-1.82,16.32-2.94,24.52-4.19c4.37-0.66,8.78-1.11,13.19-1.35c5.06-0.28,10.14-0.37,15.21-0.29
		c9.27,0.14,18.54,0.47,27.81,0.71c7.2,0.18,13.79-1.25,19.33-6.41c3.43-3.2,7.46-5.74,10.95-8.87c2.47-2.22,4.49-4.93,7.05-7.82
		c-3.78-1.12-7.11-2.14-10.46-3.09c-9.31-2.64-17.11-8.17-25.1-13.25c-6.9-4.38-13.49-9.25-20.15-14c-2.51-1.79-4.9-3.77-7.22-5.8
		c-6.65-5.81-13.59-11.34-19.73-17.65c-4.57-4.71-7.91-10.59-12.09-15.72c-5.43-6.67-8.77-14.67-15.15-20.89
		c-4.67-4.55-6.76-11.65-10.51-17.28c-4.19-6.3-8.93-12.24-13.49-18.29c-3.08-4.09-6.13-8.22-9.45-12.11
		c-3.55-4.15-7.58-7.89-11.07-12.08c-3.96-4.75-7.38-9.95-11.39-14.66c-2.52-2.95-5.43-5.71-8.6-7.94
		c-10.09-7.13-21.06-12.64-32.51-17.32c-4.02-1.64-7.52-4.62-11.16-7.12c-6.04-4.15-12.3-8.05-17.93-12.71
		c-4.74-3.93-10-7.53-12.72-13.54c-1.03-2.28-3.03-4.1-4.35-6.27c-2.11-3.48-3.76-7.27-6.09-10.59c-1.99-2.83-4.93-4.99-6.97-7.79
		c-3.59-4.92-6.51-10.35-10.27-15.14c-5.02-6.39-3.66-13.66-3.47-20.7c0.08-2.82,1.45-5.89,3.03-8.33
		c2.84-4.39,4.75-9.56,9.39-12.61c5.14-3.37,10.03-7.28,15.54-9.87c6.53-3.07,12.11-7.18,17.51-11.83
		c5.64-4.85,11.94-8.94,17.52-13.85c9.78-8.61,21.51-13.33,33.44-17.8c1.37-0.51,2.72-1.07,3.21-1.27c0.59-3.54,0.74-6.43,1.58-9.11
		c1.49-4.77,3.57-9.35,5.06-14.12c2.2-7.05,7.01-12.15,12.36-16.72c6.52-5.57,14.24-7.94,22.89-8.03
		c10.03-0.11,20.03-0.19,29.79,2.37c7.77,2.04,15.42,4.45,21.82,9.71c2.45,2.01,4.97,4.18,7.83,5.4c2.99,1.27,6.43,1.48,9.67,2.16
		c7.31,1.52,14.81,2.48,21.88,4.76c5.03,1.62,10.2,4.25,14.02,7.81c5.64,5.25,11.95,6.71,19.14,6.94c3.54,0.11,7.05,1.08,10.59,1.39
		c3.04,0.26,6.12-0.06,9.15,0.23c2.64,0.26,5.31,0.77,7.82,1.61c12.38,4.09,24.77,8.17,37.04,12.56
		c13.22,4.72,26.43,9.48,39.43,14.76c11.51,4.67,23.57,5.62,35.67,7.02c9.86,1.14,19.3-1.24,28.91-2.14
		c6.12-0.57,12.26-1.33,18.27-2.57c4.99-1.03,9.77-3.04,14.72-4.37c8.89-2.38,17.84-4.55,26.76-6.86
		c7.98-2.07,15.97-4.14,23.92-6.33c7.46-2.06,14.8-4.55,22.31-6.34c6.8-1.62,13.73-2.82,20.66-3.69c6.24-0.79,12.59-1.38,18.85-1.12
		c5.68,0.23,11.34,1.59,16.96,2.71c5.3,1.05,10.74,1.9,15.75,3.81c6.69,2.55,13.99,3.19,20.14,7.67c7.41,5.4,15.88,9.34,23.26,14.77
		c7.52,5.52,14.15,12.23,21.4,18.14c9.82,8.01,16.69,18.43,23.83,28.6c4.8,6.84,9.03,14.09,13.47,21.19
		c4.06,6.49,8.43,12.82,11.99,19.57c4.65,8.83,10.32,16.92,16.83,24.35c6.05,6.91,12.77,13.25,19.31,19.72
		c3.34,3.31,6.99,6.32,10.4,9.57c7.59,7.23,7.6,7.13,17.21,9.46c4,0.97,7.76,3.05,11.78,3.88c8.31,1.71,15.62,5.68,23.03,9.43
		c7.43,3.76,14.95,7.46,21.91,11.99c7.13,4.63,13.43,10.34,18.47,17.45c4.6,6.5,8.08,13.47,10.59,20.92
		c1.02,3.03,1.33,6.35,1.58,9.57c0.58,7.42,1.64,14.9,1.19,22.28c-0.74,12-4.12,23.13-14.51,30.85c-3.11,2.31-5.65,5.4-8.81,7.62
		c-3.98,2.79-8.32,5.05-12.51,7.54C874.14,394.93,874.39,395.18,874.63,395.44z M213.34,171.6c0.2-0.7,0.4-1.41,0.6-2.11
		c1.1,0.17,2.24,0.22,3.3,0.54c3.61,1.1,7.13,2.84,10.81,3.34c8.75,1.2,16.89-1.78,24.11-6.13c5.05-3.04,8.66-8.38,13.45-11.97
		c7.32-5.47,6.92-13.97,9.15-21.38c1.03-3.4,1.58-4.92,4.79-3.56c4.27,1.82,8.21,0.84,12.42,0.18c2.93-0.46,6.06,0.18,9.08,0.5
		c3.56,0.37,7.09,1.01,10.65,1.35c4.89,0.47,10.03-0.02,14.63,1.34c6.54,1.93,12.82,4.9,18.94,7.97c3,1.51,6.74,3.78,7.7,6.55
		c1.42,4.07,0.71,8.9,0.8,13.4c0.08,3.69-0.73,7.58,0.18,11.02c1.12,4.19,3.88,7.92,5.47,12.02c1.9,4.89,3.9,9.87,4.81,15
		c1.17,6.61,0.18,13.36-1.64,19.79c-2.47,8.72-8.16,15.62-14.48,21.74c-4.73,4.57-10.48,8.07-15.52,12.35
		c-1.39,1.19-2.45,3.44-2.6,5.29c-0.38,4.81,2.99,7.08,6.47,9.98c4.57,3.8,9.76,7.58,11.94,13.69c0.79,2.2,1.66,4.38,2.58,6.54
		c1.99,4.66,3.87,9.33,3.44,14.57c-0.49,5.99-0.93,11.98-1.24,17.97c-0.04,0.84,0.53,2.23,1.18,2.52c4.59,2,9.23,3.91,13.94,5.6
		c8.09,2.91,16.35,4.5,24.77,1.42c5.95-2.17,12.4-3.7,17.56-7.13c6.17-4.1,12.76-5.02,19.56-5.42c3.01-0.18,6.21,1.09,9.17,2.16
		c3.44,1.24,6.66,3.04,10.04,4.47c5.15,2.18,10.46,4,15.49,6.42c5.45,2.62,10.87,5.45,15.92,8.77c4.12,2.71,8.76,5.09,10.33,10.63
		c1.21,4.28,2.89,8.47,4.79,12.49c3.38,7.12,3.55,14.42,0.58,21.42c-2.34,5.52-5.33,11.01-9.14,15.6
		c-5.85,7.04-12,14.14-19.24,19.61c-7.17,5.43-11.77,11.81-14.56,20.08c-2.09,6.2-4.72,12.22-7.17,18.3
		c-0.99,2.46-2.12,4.85-3.31,7.54c3.37-0.42,6.39-1.03,9.43-1.13c5.51-0.18,11.09-0.57,16.54,0.07c9.04,1.06,17.95,3.24,26.99,4.23
		c7.13,0.78,14.52,1.41,21.54,0.38c5.42-0.8,10.45-4.28,15.7-6.59c-3-3.76-6.03-6.35-7.49-9.64c-2.94-6.62-5.78-13.46-7.27-20.5
		c-1.82-8.61-2.73-17.49-3.07-26.3c-0.27-6.99,0.21-14.18,1.61-21.03c1.45-7.11,4.23-13.98,6.77-20.83
		c2.06-5.57,5.85-10.01,10.73-13.36c3.48-2.38,7.19-4.43,10.84-6.56c10.95-6.39,21.96-12.67,32.85-19.15
		c7.53-4.48,14.67-9.66,22.39-13.76c8.49-4.5,17.28-8.55,26.27-11.93c4.95-1.87,10.55-2.53,15.9-2.73c9.23-0.34,18.5,0.59,27.71,0.1
		c9.12-0.48,18.19-2.01,27.27-3.16c3.5-0.45,7-1.02,10.46-1.73c4.12-0.84,8.17-2.04,12.3-2.76c1.18-0.21,2.55,0.7,3.84,1.1
		c-0.91,0.81-1.8,1.65-2.75,2.41c-0.37,0.3-0.88,0.47-1.35,0.58c-9.83,2.27-19.6,4.86-29.52,6.68c-10.21,1.88-20.56,2.99-30.84,4.45
		c-1.73,0.25-3.45,0.74-5.19,0.78c-4.74,0.11-9.5,0.23-14.24,0.01c-7.22-0.34-13.67,2.38-19.75,5.48
		c-10.22,5.2-20.04,11.18-29.99,16.89c-9.72,5.57-19.42,11.18-29.1,16.83c-6.4,3.74-12.99,7.21-19.02,11.48
		c-4.14,2.93-8.58,6.43-10.87,10.75c-3.42,6.47-5.23,13.83-7.38,20.91c-1.01,3.33-1.56,6.89-1.74,10.38
		c-0.27,5.13-0.34,10.32,0.07,15.43c0.66,8.18,2.67,16.1,5.7,23.75c2.17,5.49,5.53,10.29,10.96,12.35c6.4,2.43,13.3,3.38,20.29,2.66
		c10.26-1.05,20.52-2.32,30.81-2.86c5-0.26,10.07,0.86,15.1,1.48c9.19,1.13,18.36,2.44,27.56,3.5c8.11,0.94,16.24,1.94,24.39,2.32
		c4.4,0.21,8.85-0.84,13.28-1.28c7.18-0.72,14.46-0.91,21.52-2.23c10.3-1.92,20.58-3.85,30.12-8.87c8.43-4.44,17.52-7.63,26.3-11.44
		c2.19-0.95,4.25-2.18,6.4-3.21c3.89-1.85,8.01-3.31,11.69-5.5c8.94-5.33,17.82-10.79,26.47-16.59c6.56-4.4,14.47-6.81,19.45-13.66
		c1.89-2.6,5.39-1.29,6.3,1.88c0.41,1.42,1,2.79,1.41,4.22c1.04,3.66,0.1,4.72-3.79,5.18c-2.75,0.33-5.71,0.63-8.09,1.88
		c-6.4,3.35-12.54,7.21-18.8,10.83c-3.82,2.21-7.71,4.29-11.49,6.56c-3.59,2.16-6.99,4.65-10.65,6.69
		c-4.39,2.46-8.94,4.61-13.44,6.87c-3.56,1.8-7.04,3.83-10.73,5.3c-7.72,3.07-15.61,5.71-23.34,8.76
		c-5.63,2.22-10.94,5.43-16.72,7.06c-7.41,2.09-15.11,3.34-22.76,4.38c-4.95,0.67-10.03,0.35-15.05,0.38
		c-5.95,0.04-11.91,0.27-17.83-0.15c-5-0.35-9.92-1.65-14.9-2.28c-7.08-0.88-14.17-1.62-21.28-2.26c-7.79-0.7-15.38-2.74-23.46-1.17
		c-5.84,1.14-12.08,0.11-18.11,0.51c-5.74,0.37-11.48,1.12-17.15,2.13c-2.24,0.4-4.22,2.08-6.4,2.99c-2.36,0.98-5.05,1.37-7.17,2.7
		c-2.21,1.39-3.66,4.04-5.89,5.37c-6.84,4.08-14.11,6.97-22.36,6.31c-8.08-0.64-16.2-0.94-24.26-1.8c-4.72-0.5-9.32-2.39-14.02-2.64
		c-8.34-0.44-16.73-0.32-25.08,0c-3.39,0.13-7.96,0.3-9.82,2.38c-2.98,3.34-4.14,8.3-6.32,13.1c4.25,0.28,7.72,0.29,11.12,0.8
		c5.75,0.86,11.34,2.4,15.75,6.52c3.17,2.97,2.27,5.56-1.83,7.05c-10.82,3.94-22.3,2.52-33.4,4.25c-4.17,0.65-8.13,1.57-11.06,4.25
		c-5.4,4.92-10.45,10.07-17.05,13.58c-7.47,3.98-15.06,7.09-23.56,7.93c-2.21,0.22-5.7,0.02-4.41,4.33
		c0.15,0.49-0.71,1.25-1.04,1.91c-3.41,6.99-10.48,9.89-16.11,14.38c-4.47,3.56-9.15,6.86-13.73,10.28
		c0.33,0.54,0.66,1.07,0.99,1.61c2.85-1.28,5.75-2.48,8.54-3.87c5.07-2.52,9.87-5.74,15.16-7.59c6.7-2.34,13.8-3.53,20.69-5.36
		c3.29-0.87,6.45-2.19,9.73-3.11c4.31-1.22,8.72-2.09,13-3.4c7.24-2.22,14.42-4.66,21.62-7.02c6.32-2.07,12.64-4.14,18.96-6.2
		c7.25-2.36,14.29-5.51,22.22-5.15c2.42,0.11,5.04,0.26,5.54,2.63c0.42,2-0.12,5.06-1.47,6.4c-2.97,2.95-6.54,5.42-10.2,7.51
		c-6.6,3.76-13.5,7.01-20.18,10.63c-7.11,3.86-14.32,7.59-21.11,11.96c-6.35,4.09-13.12,7.66-16.58,15.37
		c-2.24,4.98-5.96,9.45-9.65,13.58c-3.61,4.04-8.16,7.22-12.04,11.04c-2.72,2.68-5,5.8-7.47,8.72c8.25-4.65,15.61-10.08,23.52-14.53
		c9.04-5.09,18.29-10,27.94-13.72c11.67-4.5,23.71-8.25,35.86-11.23c7.9-1.94,15.77-3.75,23.61-6.01
		c10.85-3.12,20.73-8.19,30.71-13.09c7.07-3.47,13.41-8.46,20.56-11.73c9.36-4.28,18.73-8.86,29.48-9.1
		c7.67-0.17,15.32-1.12,22.99-1.54c6.05-0.33,12.12-0.43,18.18-0.54c7.71-0.14,15.43-0.18,23.15-0.27c4.03-0.05,8.1,0.22,12.08-0.23
		c11.08-1.25,22.15-2.59,33.16-4.31c9.49-1.48,19.04-2.98,28.29-5.48c8.34-2.25,16.24-6.11,24.47-8.83
		c18.46-6.11,33.88-17.4,49.31-28.64c5.67-4.13,10.69-9.14,16.18-13.53c7.41-5.93,15.29-11.31,22.4-17.57
		c5.32-4.68,11.51-7.19,17.75-10.03c8.28-3.77,17.74-5.44,24.05-12.9c2.72-3.21,6.36-6.02,7.98-9.71
		c4.08-9.27,1.35-18.85-0.47-28.21c-1.5-7.73-3.98-15.3-5.1-23.08c-1.07-7.4-0.87-15.12-4.65-21.76
		c-4.09-7.2-6.84-15.38-16.79-17.95c-12.97-3.35-25.74-5.6-39.11-3.31c-11.66,2-23.42,3.42-35.06,5.51
		c-6.38,1.15-12.58,3.28-18.92,4.72c-11.83,2.68-23.69,5.22-35.56,7.72c-4.53,0.96-9.09,2.02-13.69,2.38
		c-10.47,0.82-20.82,1.97-30.61,6.17c-5.47,2.34-11.16,4.16-16.57,6.61c-4.7,2.14-9.06,5.02-13.72,7.25
		c-4.9,2.34-10,4.25-14.97,6.46c-4.12,1.82-8,4.45-12.29,5.53c-4.98,1.25-10.29,1.47-15.47,1.63c-5.68,0.17-9.32-5.39-7.43-10.77
		c0.92-2.62,2.44-3.41,5.15-2.12c5.03,2.39,10.15,4.63,15.31,6.75c0.88,0.36,2.26,0.05,3.2-0.39c6.07-2.86,12.06-5.87,18.1-8.79
		c2.53-1.23,5.37-2.01,7.62-3.61c6.31-4.49,12.36-9.27,19.77-12c5.98-2.2,11.59-5.53,17.67-7.25c6.76-1.91,13.86-2.6,20.83-3.73
		c5.46-0.88,10.93-2.05,16.44-2.31c9.07-0.43,17.41-3.86,26.16-5.6c7.7-1.53,15.21-3.97,22.88-5.66c5.95-1.31,12.01-2.14,18.04-3.11
		c6.45-1.03,12.91-2.01,19.39-2.92c4.06-0.57,8.14-1.06,12.22-1.42c3.32-0.3,6.74-0.91,9.97-0.41c8.77,1.35,17.46,3.22,26.78,5.01
		c-0.61-3.32-1.09-6.94-1.94-10.48c-2-8.32-5.24-16.16-10.49-22.95c-4.08-5.28-8.44-10.38-13.03-15.22
		c-3.66-3.85-6.6-8.22-10.6-11.88c-10.31-9.43-19.89-19.66-29.85-29.48c-5.52-5.44-11.44-10.5-16.77-16.12
		c-4.59-4.84-8.9-10.01-12.77-15.43c-4.4-6.15-8.2-12.74-12.24-19.15c-3.76-5.97-7.42-12.01-11.27-17.93
		c-2.17-3.33-4.73-6.41-6.91-9.73c-2.81-4.28-4.78-9.33-8.28-12.9c-5.05-5.14-9.25-10.98-14.09-16.27
		c-5.02-5.5-10.97-9.41-16.72-13.72c-5.56-4.17-11.43-7.92-17.33-11.6c-4.31-2.69-8.66-5.52-13.37-7.28
		c-6.4-2.38-13.16-3.83-19.78-5.62c-3.77-1.01-7.55-2.52-11.37-2.7c-11.54-0.55-23.12-0.65-34.57,1.16
		c-4.58,0.72-8.97,2.62-13.51,3.72c-5.06,1.23-10.22,2.02-15.28,3.26c-2.79,0.68-5.39,2.14-8.18,2.82
		c-5.15,1.26-10.42,2.02-15.56,3.33c-5.89,1.51-11.66,3.49-17.54,5.06c-2.49,0.66-5.2,0.54-7.68,1.23
		c-5.21,1.45-10.25,3.52-15.5,4.74c-7.49,1.74-15.05,3.38-22.67,4.25c-10.72,1.22-21.6,2.84-32.28,2.21
		c-14.24-0.85-28.43-3.36-42.52-5.84c-7.6-1.34-15.13-3.62-22.34-6.37c-7.95-3.03-15.51-7.11-23.25-10.7
		c-4.88-2.26-9.68-4.72-14.71-6.58c-3.1-1.15-6.59-1.19-9.85-1.96c-7.46-1.77-14.82-4.1-22.35-5.42c-6.4-1.13-13.07-0.74-19.48-1.85
		c-4.35-0.75-8.81-2.35-12.55-4.66c-2.83-1.75-4.46-4.6-8.48-5.59c-6.55-1.61-12.59-5.27-18.92-7.9c-1.67-0.69-3.61-1.17-5.39-1.08
		c-4.71,0.23-9.47,0.43-14.08,1.35c-6.59,1.32-13.46,2.4-19.47,5.19c-5.91,2.74-10.85,7.54-16.29,11.33
		c-2.18,1.52-5.09,2.3-6.75,4.21c-2.47,2.85-4.76,6.19-5.95,9.72c-1.46,4.33-2.8,2.63-4.72,0.79c1.26-2.41,2.48-4.72,3.68-7.05
		c1.37-2.67-0.45-2.94-2.3-2.78c-1.82,0.16-3.6,0.74-5.41,1.02c-5.96,0.93-12.11,1.2-17.86,2.85c-8.48,2.44-16.79,5.58-24.95,8.95
		c-5.98,2.47-11.89,5.37-17.32,8.86c-4.08,2.62-7.21,6.67-11.03,9.77c-4.73,3.84-9.62,7.52-14.64,10.98
		c-4.59,3.16-9.27,6.3-14.24,8.78c-8.54,4.26-16.97,8.52-21.24,17.72c-2.09,4.49-4.24,9.06-5.43,13.83
		c-1.82,7.26,3.93,11.83,7.3,17.16c0.71,1.12,1.84,2.36,3.02,2.72c8.2,2.52,14.29,9.89,23.71,9.83c4.99-0.03,9.97,1.59,14.99,1.9
		c5.57,0.34,11.18-0.19,16.76,0.06c4.06,0.18,8.26,0.46,12.08,1.68c4.93,1.57,9.51,4.24,14.33,6.2c6.83,2.79,13.8,5.24,20.62,8.06
		c10.3,4.25,20.39,9.06,30.82,12.95c7.83,2.92,16.24,4.26,24.05,7.22c7.84,2.97,15.91,4.29,24.06,4.83
		c7.03,0.47,14.15-0.33,21.23-0.64c2.41-0.1,4.94,0.01,7.2-0.67c8.61-2.61,17.21-5.3,25.65-8.4c2.65-0.97,6.77-1.87,4.94-6.69
		c-0.13-0.33,1.02-1.21,0.88-1.47c-1.12-2.18-2.17-4.47-3.74-6.3c-0.74-0.86-2.59-0.78-3.94-1.13c1.29-0.71,2.53-1.52,3.88-2.07
		c0.61-0.25,1.44-0.01,2.17,0.05c4.31,0.36,6.96,3.38,9.9,6.04c4.02,3.64,4.05,8.64-0.19,12.21c-0.82-1.05-1.63-2.1-2.63-3.37
		c-1.26,0.91-2.36,1.66-3.42,2.47c-4.17,3.19-8.04,6.91-12.58,9.45c-4.4,2.47-9.46,3.8-14.27,5.52c-9.39,3.36-19.25,2.56-28.8,2.08
		c-7.82-0.4-15.68-2.74-23.24-5.12c-11.68-3.67-23.1-8.16-34.66-12.2c-6.49-2.26-13.06-4.04-19.29-7.29
		c-7.75-4.05-16.2-6.77-24.32-10.14c-1.97-0.82-3.75-2.1-5.75-2.82c-8.71-3.13-17.58-5.03-26.97-4.47c-6.39,0.38-12.83,0-19.25-0.05
		c-7.74-0.06-15.47-0.13-23.65-0.2c2.98,4.29,5.79,9.35,9.55,13.54c6.67,7.41,16.06,10.86,24.67,15.33
		c7.48,3.89,15.62,6.61,22.73,11.04c7.74,4.82,15.3,10.34,21.71,16.78c9.98,10.03,19.37,20.73,28.17,31.81
		c11,13.83,21.31,28.22,31.64,42.58c9.53,13.25,18.87,26.64,27.92,40.22c6.93,10.39,16.88,17.51,26.22,25.25
		c5.92,4.9,12.75,8.56,20.07,11.38c9.41,3.63,18.4,8.39,27.83,11.94c7.31,2.76,15.04,4.42,20.85,6.07
		c4.49-3.89,8.34-6.92,11.75-10.37c1-1.01,1.66-3.95,0.99-4.75c-3.76-4.45-7.84-8.65-12.07-12.68c-5.32-5.07-8.94-10.99-10.63-18.18
		c-0.9-3.81-2.36-7.49-3.39-11.28c-0.2-0.75,0.39-1.72,0.61-2.58c0.96,0.38,2.53,0.53,2.78,1.19c2.38,6.32,5.78,11.81,10.16,17.1
		c3.22,3.9,6.39,7.36,10.67,9.93c5.49,3.29,10.09,7.4,12.2,13.72c-0.66,0.83-1.69,1.58-1.93,2.52c-1.21,4.75-2.93,9.18-6.59,12.66
		c-3.5,3.33-7.2,6.48-10.34,10.12c-3.73,4.31-6.83,9.16-10.46,13.57c-2.16,2.63-4.78,4.89-7.24,7.26c-0.52,0.5-1.27,0.75-1.91,1.12
		c-1.77,1.37-3.57,2.5-5.26,3.76c-1.04,0.78-1.81,1.94-2.89,2.63c-2.71,1.73-5.99,2.83-8.19,5.03c-3.29,3.29-7.32,3.01-11.07,3.09
		c-9.62,0.2-19.25-0.45-28.87-0.29c-9.17,0.15-18.34,1.25-27.51,1.3c-9.97,0.05-19.29,3.07-28.81,5.24
		c-12.86,2.92-25.19,7.36-36.78,13.72c-1.42,0.78-2.45,2.27-4.31,4.05c6.63,0,12.13,0.22,17.6-0.05c7.62-0.38,15.21-1.34,22.83-1.65
		c5.37-0.22,10.82,0.75,16.14,0.25c6.96-0.66,13.82-2.36,20.76-3.39c7.21-1.07,14.45-2.02,21.71-2.71c3.14-0.3,6.37,0.12,9.54,0.34
		c2.59,0.18,5.23,0.27,7.73,0.88c4.38,1.06,6.05,5.89,2.97,9.19c-2.77,2.97-5.9,5.86-9.41,7.82c-7.44,4.18-15.23,7.74-22.89,11.54
		c-4.99,2.48-9.58,5.43-13.12,9.87c-1.23,1.54-2.67,3.08-4.34,4.08c-6.89,4.12-13.88,8.06-20.87,12.01
		c-2.38,1.34-4.86,2.5-7.29,3.74c0.07,0.49,0.15,0.99,0.22,1.48c8.38,0.19,16.8,0.98,25.12,0.38c8.35-0.6,16.74-2.04,24.86-4.11
		c7.31-1.87,14.33-4.95,21.37-7.76c4.67-1.86,8.97-4.8,13.76-6.16c7.2-2.04,14.63-3.43,22.05-4.53c7.52-1.12,15.17-2.33,22.73-2.13
		c11.54,0.3,23.07,1.67,34.58,2.79c10.67,1.04,19.92-2.98,28.82-7.96c5.24-2.93,10.28-6.31,15.04-9.97
		c4.47-3.43,9.31-6.88,12.48-11.38c6.91-9.78,13.01-20.14,19.14-30.45c3.03-5.1,5.42-10.59,8.05-15.93c1.71-3.46,4.1-6.8,4.85-10.47
		c1.85-9.07,7.48-15.81,12.98-22.57c4.31-5.31,9.8-9.67,14.12-14.97c4.91-6.02,8.83-12.85,13.7-18.91c5.39-6.71,5.16-13.92,2.14-21
		c-2.65-6.22-7.3-11.3-12.76-15.45c-2.13-1.62-4.15-3.49-6.51-4.64c-4.9-2.39-9.98-4.43-15.02-6.5c-1.45-0.6-3.48-0.35-4.52-1.29
		c-3.65-3.3-8.31-4.03-12.67-5.22c-5.93-1.61-12.26-1.87-17.72,1.33c-11.54,6.77-23.13,12.19-37.18,11.35
		c-5.18-0.31-9.65-1.95-14.18-3.47c-6.25-2.1-12.09-5.44-18.12-8.23c-1.9-0.88-3.79-2.37-5.73-2.44
		c-5.16-0.19-10.34,0.31-15.51,0.35c-0.81,0.01-1.87-0.84-2.32-1.59c-0.2-0.33,0.67-1.74,1.33-2.06c0.95-0.45,2.17-0.47,3.27-0.47
		c5.23-0.02,10.47,0.2,15.69-0.07c1.36-0.07,3.39-1.31,3.81-2.48c1.05-2.93,1.78-6.13,1.85-9.23c0.06-3.06-1.4-6.16-1.24-9.19
		c0.33-6.3-2.46-11.6-5.13-16.75c-2.21-4.27-5.71-7.92-8.94-11.59c-2.63-2.98-5.95-5.37-8.54-8.38c-3.29-3.82-3.12-7.58,0.23-11.36
		c2.5-2.82,5.15-5.54,7.97-8.04c4.68-4.17,9.74-7.93,14.28-12.23c3.82-3.62,7.46-7.69,8.71-12.98c1.23-5.2,2.29-10.38,1.85-15.97
		c-0.64-8.08-3.1-15.33-6.74-22.41c-2.56-4.98-4.95-10.09-4.65-15.92c0.18-3.57,0.31-7.17,0.92-10.67
		c1.02-5.89-3.03-8.78-6.94-10.95c-9.76-5.42-19.8-9.91-31.58-9.39c-10.5,0.46-21.05-0.33-31.58-0.44
		c-0.88-0.01-2.36,0.78-2.55,1.47c-0.79,2.98-1.15,6.07-1.76,9.09c-0.31,1.53-0.39,3.36-1.3,4.46c-4.57,5.56-8.84,11.56-14.23,16.23
		c-8.32,7.21-18.49,10.77-29.6,10.56c-3.73-0.07-7.49-1.19-11.14-2.18C217.42,173.85,215.42,172.57,213.34,171.6z M870.91,379.75
		c5.53-2.85,11.32-5.8,17.06-8.83c0.85-0.45,1.7-1.14,2.22-1.93c3.29-5.03,6.46-10.14,9.73-15.18c1.17-1.81,3.38-3.45,3.57-5.32
		c0.53-5.37,0.62-10.84,0.18-16.21c-0.3-3.72-2.19-7.3-2.62-11.02c-0.89-7.64-4.89-13.86-9.12-19.7
		c-7.43-10.26-17.97-16.98-29.05-22.77c-5.42-2.83-10.93-5.49-16.47-8.08c-4.4-2.05-8.85-4.01-13.39-5.7
		c-2.19-0.81-4.64-0.89-6.93-1.3c5.17,6.44,10.15,12.66,15.15,18.87c6.97,8.64,13.96,17.32,15.53,28.8c0.74,5.38,1.17,10.86,1,16.27
		c-0.06,1.85-0.16,2.67,1.41,3.82c5.36,3.94,7.83,9.77,9.01,16.01c0.92,4.81,0.99,9.78,1.44,14.67c0.16,1.15,0.19,2.38,0.16,3.62
		c-0.05,1.56,0.03,3.15-0.26,4.66C868.93,373.57,866.94,376.76,870.91,379.75z M212.82,49.21c-3.79-2.25-7-4.12-10.17-6.06
		c-1.35-0.83-2.52-2.48-3.89-2.63c-7.42-0.8-14.87-1.51-22.33-1.75c-8.49-0.28-16.27,2.4-22.92,7.63
		c-5.54,4.35-10.27,9.45-12.03,16.71c-0.74,3.05-2.19,5.93-3.25,8.92c-0.3,0.86-0.35,1.81-0.51,2.71c1.02,0.1,2.09,0.46,3.04,0.27
		c3.7-0.76,7.36-1.74,11.05-2.54c4.27-0.93,8.55-1.82,12.85-2.62c3.75-0.7,7.66-2.14,11.27-1.64c3.67,0.5,5.33-1.37,7.61-3.14
		c4.65-3.62,9.14-7.58,14.25-10.43C202.12,52.21,207.21,51.16,212.82,49.21z M470.37,528.69c-7.49-0.45-13.42,0.62-19.4,2.76
		c-9.25,3.31-18.76,5.9-28.14,8.85c-7.27,2.28-14.53,4.62-21.77,6.99c-3.03,0.99-6,2.15-8.99,3.24c0.08,0.35,0.15,0.7,0.23,1.05
		c9.87,0.68,12.48,8.11,14.5,16.32c2.67-1.85,4.77-3.55,7.08-4.86c6.5-3.68,13.12-7.13,19.63-10.79c5.85-3.3,11.6-6.78,17.42-10.13
		c5.36-3.08,10.83-5.99,16.11-9.19C468.26,532.21,468.94,530.58,470.37,528.69z M231.19,514.62c6.81-3.77,13.08-7.68,19.73-10.77
		c5.09-2.36,10.16-4.5,13.99-8.74c0.81-0.9,2.22-2.48,1.96-2.88c-0.83-1.33-2.2-3.07-3.53-3.21c-5.29-0.59-10.67-1.14-15.95-0.77
		c-6.24,0.43-12.41,1.79-18.6,2.82c-3.35,0.56-6.66,1.28-9.99,1.93C226.52,498.5,230.65,502.78,231.19,514.62z M455.76,501
		c0.14-0.64,0.28-1.27,0.42-1.91c-3.33-1.67-6.5-4-10.03-4.85c-4.5-1.09-9.29-1.18-13.96-1.3c-1.6-0.04-3.84,0.64-4.74,1.8
		c-2.23,2.86-3.85,6.19-6.19,10.12C433.19,503.52,444.47,502.26,455.76,501z"/>
	<path d="M344.19,182.3c0.33,8.48-4.91,14.4-8.8,20.71c-2.48,4.02-5.82,7.51-8.81,11.22c-1.44,1.78-4.77,1.94-4.48,5.21
		c-1.35-0.15-3.35,0.21-3.95-0.54c-2.11-2.64-3.88-5.59-5.52-8.57c-3.29-5.95-8.9-8.83-14.82-10.96
		c-6.67-2.4-12.25-6.38-16.54-11.67c-3.42-4.22-3.92-10.04-2.75-15.28c1.86-8.35,5.99-14.94,14.1-19.5
		c4.43-2.49,8.3-5.55,13.47-5.17c6.71,0.5,13.44,0.91,19.64,4.41c6.88,3.88,11.45,9.62,14.48,16.55
		C342.08,173,342.9,177.75,344.19,182.3z M329.04,175.64c-0.2-0.04-0.4-0.09-0.61-0.13c0-1.12,0.33-2.38-0.06-3.35
		c-1.42-3.51-2.27-7.81-4.84-10.15c-3.32-3.02-8.08-4.46-12.23-6.56c-4.72-2.4-7.35-2.06-11.3,1.5c-1.2,1.08-2.35,2.24-3.45,3.42
		c-3.52,3.78-5.8,8.11-5.47,13.42c0.28,4.52,3.48,7.64,9.59,9.72c6.16,2.1,12.48,3.77,16.42,9.79c1.76,2.68,7.13,1.62,8.12-1.67
		C326.8,186.39,327.8,180.98,329.04,175.64z M319.89,214.37c0.81-0.94,1.49-1.53,1.92-2.27c4.18-7.21,8.54-14.33,12.36-21.72
		c1.71-3.31,2.88-7.12,3.33-10.83c0.63-5.23-0.54-10.26-3.82-14.73c-4.02-5.49-9.09-9.27-16.56-11.66c1.76,1.55,2.57,2.8,3.65,3.11
		c4.03,1.17,7.54,3.35,9.03,7.09c1.42,3.56,2.03,7.67,1.99,11.53c-0.04,4.51-1.11,9.01-1.85,13.5c-0.81,4.96-3.58,9.1-8.25,10.21
		c-2.38,0.56-6.23-1.6-8.22-3.67c-3.91-4.1-8.38-6.36-13.74-7.9c-5.1-1.46-10.62-3.97-11.55-9.79c-0.9-5.63-1.04-11.76,3.33-16.68
		c0.92-1.03,1.55-2.31,2.31-3.48c-1.78,0.9-3.14,2.08-4.56,3.18c-5.99,4.66-10.07,17.89-6.18,23.56c4.12,6,10.14,10.24,17.1,13.06
		c3.86,1.56,7.87,3.46,10.9,6.21C314.48,206.14,316.84,210.33,319.89,214.37z"/>
	<path d="M224.72,69.97c4.17,0,8.33-0.08,12.5,0.02c5.4,0.13,10.32,1.95,13.95,5.88c3.9,4.22,7.36,8.88,10.73,13.55
		c4.01,5.56,5.89,23.19,1.86,29.99c-4.81,8.11-10.32,15.18-17.76,20.64c-5.12,3.76-11.11,6.25-17.56,6.58
		c-6.79,0.35-13.77,0.94-20.39-0.19c-5.48-0.94-10.75-3.87-15.78-6.55c-8.07-4.29-11.77-11.64-14.15-20.33
		c-2.84-10.38,0.89-19,5.34-27.68c1.44-2.82,3.07-5.64,5.11-8.04c4.35-5.13,10.13-7.84,16.67-9.36c6.47-1.5,12.81-3.54,19.21-5.34
		C224.54,69.42,224.63,69.69,224.72,69.97z M262.82,107.03c-0.4-3.05-0.33-6.26-1.28-9.13c-2.19-6.65-6.22-12.1-11.32-17.02
		c-5.52-5.32-11.71-8.04-19.31-7.68c-7.34,0.34-14.48,1.48-21.59,3.63c-9.46,2.85-17.65,6.76-22.14,16.32
		c-4.16,8.87-8.56,17.43-4.99,27.77c1.64,4.74,3.57,9.2,7.43,12.31c9.59,7.75,20.43,11.99,33.02,10.36
		c6.04-0.78,12.39-0.52,17.63-4.41c3.79-2.81,7.83-5.41,11.11-8.74C257.7,124.02,263.42,117.06,262.82,107.03z"/>
	<path d="M93.73,118.88c3.91,0.67,4.99,3.54,5.39,5.83c0.3,1.75-0.74,4.6-2.15,5.58c-2.76,1.92-6.16,2.93-9.35,4.2
		c-3.18,1.27-6.4,2.44-9.65,3.54c-0.72,0.25-1.86,0.33-2.34-0.07c-0.47-0.39-0.77-1.78-0.44-2.24c2.71-3.88,5.15-8.11,8.55-11.31
		C86.43,121.89,90.35,120.68,93.73,118.88z M82.28,130.42c3.08,1.23,11.01-1.17,12.72-3.84c0.7-1.09,0.27-2.9,0.38-4.75
		c-3.04,1.49-5.37,2.36-7.39,3.7C85.99,126.85,84.3,128.65,82.28,130.42z"/>
	<path d="M213.76,83.22c9.22,1.16,16.6,1.66,22.92,6.18c1.81,1.29,5.07,8.79,3.97,10.51c-0.62,0.96-2.33,1.35-3.63,1.72
		c-1.07,0.3-2.31,0.02-3.39,0.31c-2.1,0.57-4.99,1.27-4.49,3.8c0.39,1.96,2.53,3.83,4.33,5.16c1.26,0.94,3.23,1.11,4.91,1.26
		c4.25,0.36,6.17,3.82,4.18,7.78c-5.77,11.51-16.29,16.62-29.49,14.97c-8.44-1.06-15.19-4.61-20.05-11.51
		c-1.22-1.73-1.93-3.93-2.47-6.02c-2.57-10.03,2.38-24.6,11.06-30.07C205.56,84.81,210.71,84.19,213.76,83.22z M212.15,97.35
		c-3.49-2.12-6.22-1.44-8.73,4.87c-2.21,5.58,0.68,9.83,6.98,11.7C210.96,108.7,211.52,103.34,212.15,97.35z"/>
</g>
</svg>
