<?xml version="1.0" encoding="utf-8"?>
<!-- Generator: Adobe Illustrator 25.0.0, SVG Export Plug-In . SVG Version: 6.00 Build 0)  -->
<svg version="1.1" id="Layer_1" xmlns="http://www.w3.org/2000/svg" xmlns:xlink="http://www.w3.org/1999/xlink" x="0px" y="0px"
	 viewBox="0 0 400 400" style="enable-background:new 0 0 400 400;" xml:space="preserve">
<style type="text/css">
	.st0{stroke:#000000;stroke-width:15;stroke-linecap:round;stroke-linejoin:round;stroke-miterlimit:10;}
</style>
<path class="st0" d="M-164.3,299.8"/>
<g>
	<path d="M372.2,129.5c-1.5-11-5.2-21.3-10.8-30.7c-10.4-17.1-24.9-26.4-35.2-31.2c-0.3-0.1-0.6-0.2-0.9-0.3
		c-16.8-5.3-34-7.2-51.1-5.7c-2,0.2-4,0.4-6,0.7c9.6-8.6,15.6-20.9,16-34.3l0.1-2.6c0.1-3.4-1.5-6.7-4.3-8.6c-2.8-2-6.4-2.4-9.5-1.2
		l-49.2,19.2c-17.9,7-29.9,23.9-30.5,43.2l-0.1,2.7c-0.1,3.4,1.5,6.6,4.3,8.6c1.7,1.2,3.8,1.9,5.8,1.9c1.2,0,2.5-0.2,3.7-0.7
		l11.6-4.5c-3.7,4.3-6.6,9.1-8.7,14.4c-11.4,29.6,8.4,64.1,10.7,68.1l0.2,0.4c-4.2,0.5-8.4,1.3-12.5,2.3
		c-55.2,13.4-91.7,47-109.2,101.1c-1.2,3.7-2,7.3,0.9,10.6c-6.9,8.8-13.7,17.5-20.5,26.2c-13.3,17-26.6,33.9-39.8,50.8
		c-7.2,9.2-5.7,20.9,3.6,27.2c5.3,3.6,10.7,6.9,16.2,10.2c4.6,2.8,9.6,3.4,14.8,1.8c4.8-1.5,8.2-4.6,10.9-8.8
		c17.1-26.2,34.2-52.4,51.4-78.6c0.8-1.2,2.2-2.6,3.4-2.7c6.2-0.7,12.5-0.9,19.1-1.4c1.9,7.5,3.8,15,5.8,22.9c-3,0-5.4-0.1-7.8,0
		c-4.4,0.2-7.5,2.9-7.5,6.8c-0.1,4,2.9,7.1,7.5,7.1c22.3,0.1,44.7,0.1,67,0c4.5,0,7.4-2.9,7.4-6.8c0-4-2.9-6.9-7.6-7.1
		c-2.8-0.1-5.7,0.2-8.5-0.1c-1-0.1-2.5-1.1-2.8-2c-1.4-4.7-2.5-9.4-3.6-14.2c-0.2-1-0.1-2.3,0.5-3.1c4.8-6.4,7.6-13.7,9.5-21.4
		c0.7-2.7,1.9-4.2,4.2-5.7c27.1-17,47.6-39.9,61.3-68.5l0.5-0.5l0.5-1.4c4.1-10.6,4.9-20.7,2.5-29.9c-2.1-8.2-6.2-13.5-9.8-18.2
		c-1.6-2.1-3-3.9-4.2-5.9c-1.2-2-2.1-4.1-2.6-6.6c-1.2-5.7-0.3-12,2.9-19c4.1-5.2,9-8.9,15.2-11.1l0.2-0.1l9.5-3.5l-0.1-0.1
		c7-2.1,16.4-3.6,27.2-1.9c18.1,2.7,30.1,12.7,35.7,18.4c1.4,1.5,3.4,2.3,5.4,2.3c1.1,0,2.2-0.2,3.3-0.8
		C371,135.8,372.7,132.7,372.2,129.5z M203.6,77.1c1-13.6,9.6-25.4,22.4-30.4l45.5-17.8c-1,13.6-9.6,25.4-22.4,30.4L203.6,77.1z
		 M70.2,384.1c-1.6,2.3-4,2.6-6.3,1.2c-5-3.1-10-6.2-15-9.5c-2.7-1.8-3.2-4.1-1.3-6.7c3.9-5.2,7.9-10.2,12.1-15.5
		c7.9,3.7,15.5,7.3,23.3,11C78.6,371.3,74.5,377.8,70.2,384.1z M99.9,338.7c-7-3.3-13.8-6.5-20.9-9.8c8.5-10.8,16.7-21.3,24.8-31.8
		c1.8-2.2,3.8-4.3,5.2-6.8c2.1-3.5,4.8-4.5,8.8-3.9c4.9,0.6,10,0.7,15.6,1C122.2,304.6,111.2,321.5,99.9,338.7z M145.1,294.9
		c2.1-3.3,3.5-6,5.5-8.2c1-1.1,3-1.3,4.6-1.6c7.3-1.3,7.3-1.3,10.7,5.3c0.1,0.2,0.1,0.4,0.4,1.5
		C159.4,292.8,152.7,293.8,145.1,294.9z M176.7,330.3c-2.1-8.2-4.2-16.5-6.4-24.8c3.9-2.5,4.9-2.2,8.2,0.4c3.8,3,8,5.6,11.9,8.5
		c1.1,0.8,2.1,2,2.5,3.2c1.3,4.1,2.2,8.3,3.4,12.7H176.7z M196.4,301.8c-9.2-5-15.5-12.6-20.2-21.5c10.1-4.7,20.1-9.4,29.9-14
		C206.6,274.1,201.7,296.3,196.4,301.8z M111.2,272.1c1-2.7,1.6-5.2,2.7-7.4c4.2-8.3,8.6-16.5,12.9-24.7c0.9-1.7,1.9-2.1,3.8-1.6
		c24.4,6.8,49.3,9.4,74.6,8.5c0.9,0,1.7,0,2.6,0C179.1,268.3,147.1,276.7,111.2,272.1z M148.2,217.3c-0.3-0.1-0.6-0.3-1.3-0.8
		c10.7-9.8,22.4-17.5,35.4-23.3c13.7-6.1,27.9-10,42.7-11.1c1.8-0.1,3.6-0.2,5.4-0.3c13.3-0.4,21.1,12.3,14.3,23.8
		c-1.4,2.4-3,4.8-4.6,7.2c-2.9,4.2-5.9,8.4-8.9,12.5c-0.7,0.9-2.2,1.8-3.3,1.8C200.8,228.4,174.2,225,148.2,217.3z M221.6,267
		c-0.2,0.2-0.6,0.2-0.7,0.3c0-3.8-0.2-7.6,0.1-11.3c0.1-1.2,1.6-2.3,2.7-3.2c8.9-7.6,16.8-16.1,23.6-25.4c3.2-4.4,6.2-9,8.9-13.8
		c0.2-0.3,0.4-0.6,0.5-0.9c0.6-1.1,1.2-2.2,1.7-3.3c0.7-1.4,1.2-3,2.1-5.5c1.2,3.5,2.2,6.5,3.2,9.3c0.4,1.3,0.9,2.6,1.2,3.9
		c0.2,0.7-0.1,1.8-0.5,2.5c-3.7,6.4-7.7,12.4-12.1,18C243.6,248.7,233.4,258.5,221.6,267z M259.3,125.7l-0.5,0.6l-0.3,0.7
		c-3.4,7.3-5.1,14.3-5.1,21.1c0,2.8,0.3,5.5,0.9,8.2c1.8,8.4,6,13.8,9.6,18.5c3.1,4,5.8,7.5,7.2,12.7c0.5,2.1,0.8,4.3,0.9,6.5
		c-14.3-18.3-34.3-25.8-34.3-25.8c-1-0.1-1.9-0.1-2.9-0.2l-3.3-6.7l-0.3-0.6c-0.2-0.3-18.9-31.4-9.7-55.2
		c4-10.4,13.1-18.3,27.1-23.3l24.2,30.9C267.6,116.5,263.1,120.6,259.3,125.7z M326,102.5c-4-0.6-7.8-0.8-11.4-0.8
		c-11.4,0-21,2.5-27.8,5.1l-22.4-28.7c3.7-0.7,7.4-1.2,11.1-1.5c15-1.3,30.1,0.3,44.8,4.9c8.4,4,20,11.5,28.3,25.2
		c0.8,1.4,1.6,2.8,2.3,4.2C344.1,107.1,335.8,104,326,102.5z"/>
	<circle cx="245.9" cy="101.3" r="7.3"/>
</g>
</svg>
