<?xml version="1.0" encoding="utf-8"?>
<!-- Generator: Adobe Illustrator 16.0.0, SVG Export Plug-In . SVG Version: 6.00 Build 0)  -->
<!DOCTYPE svg PUBLIC "-//W3C//DTD SVG 1.1//EN" "http://www.w3.org/Graphics/SVG/1.1/DTD/svg11.dtd">
<svg version="1.1" xmlns="http://www.w3.org/2000/svg" xmlns:xlink="http://www.w3.org/1999/xlink" x="0px" y="0px"
	 width="274.347px" height="432.503px" viewBox="0 0 274.347 432.503" enable-background="new 0 0 274.347 432.503"
	 xml:space="preserve">
<g id="BG">
</g>
<g id="insects">
	<g>
		<path fill="#020202" d="M89.175,165.682l-1.68-0.64c-1.237,3.23-2.349,6.635-3.306,10.117l1.737,0.479
			C86.866,172.212,87.959,168.863,89.175,165.682z"/>
		<path fill="#020202" d="M75.378,284.54l1.799,0.077c0.147-3.441,0.419-6.966,0.809-10.469l-1.79-0.198
			C75.806,277.493,75.529,281.057,75.378,284.54z"/>
		<path fill="#020202" d="M77.038,291.005c-0.002-1.566,0.024-3.117,0.073-4.642l-1.799-0.058c-0.049,1.547-0.076,3.112-0.073,4.699
			c0,1.944,0.039,3.923,0.121,5.926l1.799-0.077C77.076,294.879,77.038,292.928,77.038,291.005z"/>
		<path fill="#020202" d="M80.459,226.114c0.471,3.887,1.132,7.521,1.91,10.504l1.74-0.456c-0.757-2.904-1.402-6.457-1.865-10.266
			L80.459,226.114z"/>
		<path fill="#020202" d="M79.603,213.74c0.081,3.644,0.302,7.215,0.659,10.609l1.788-0.189c-0.351-3.342-0.569-6.863-0.648-10.462
			L79.603,213.74z"/>
		<path fill="#020202" d="M94.247,154.591l-1.583-0.857c-1.65,3.054-3.17,6.301-4.519,9.65l1.669,0.674
			C91.138,160.77,92.628,157.585,94.247,154.591z"/>
		<path fill="#020202" d="M80.892,322.746l-1.743,0.45c0.888,3.444,1.944,6.866,3.14,10.168l1.69-0.613
			C82.804,329.505,81.765,326.139,80.892,322.746z"/>
		<path fill="#020202" d="M78.469,310.77l-1.778,0.268c0.529,3.539,1.212,7.049,2.03,10.438l1.75-0.421
			C79.666,317.714,78.993,314.256,78.469,310.77z"/>
		<path fill="#020202" d="M85.475,177.325l-1.743-0.45c-0.87,3.367-1.615,6.863-2.216,10.399l1.775,0.302
			C83.883,184.09,84.618,180.643,85.475,177.325z"/>
		<path fill="#020202" d="M77.241,298.604l-1.795,0.099c0.193,3.584,0.528,7.144,0.996,10.581l1.782-0.238
			C77.763,305.653,77.432,302.142,77.241,298.604z"/>
		<path fill="#020202" d="M82.908,335.025c1.268,3.331,2.711,6.61,4.289,9.743l1.606-0.81c-1.548-3.078-2.966-6.298-4.216-9.572
			L82.908,335.025z"/>
		<path fill="#020202" d="M79.791,262.027l-1.768-0.331c-0.652,3.486-1.199,7.018-1.62,10.494l1.785,0.218
			C78.606,268.968,79.146,265.475,79.791,262.027z"/>
		<path fill="#020202" d="M83.564,240.46c-0.318,0.87-1.224,3.453-2.34,7.439l1.732,0.484c1.341-4.786,2.401-7.584,2.411-7.611
			l0.124-0.327l-0.127-0.323c-0.27-0.685-0.532-1.451-0.788-2.299l-1.722,0.521C83.085,239.109,83.322,239.816,83.564,240.46z"/>
		<path fill="#020202" d="M80.121,260.308c0.692-3.482,1.49-6.927,2.375-10.233l-1.74-0.463c-0.893,3.345-1.701,6.824-2.399,10.346
			L80.121,260.308z"/>
		<path fill="#020202" d="M83.01,189.298l-1.778-0.274c-0.54,3.458-0.952,7.007-1.229,10.553l1.792,0.141
			C82.069,196.218,82.478,192.714,83.01,189.298z"/>
		<path fill="#020202" d="M81.373,211.952l-0.005-1.265c0-3.065,0.103-6.168,0.302-9.222l-1.796-0.119
			c-0.202,3.096-0.306,6.237-0.306,9.341l0.006,1.279L81.373,211.952z"/>
		<path fill="#020202" d="M70.381,210.064c-0.037-1.322-0.056-2.639-0.056-3.964c0-2.355,0.061-4.706,0.185-6.99l-1.796-0.099
			c-0.125,2.316-0.188,4.703-0.188,7.089c0,1.338,0.02,2.678,0.057,4.013L70.381,210.064z"/>
		<path fill="#020202" d="M65.158,275.152l-1.792-0.147c-0.312,3.701-0.47,7.419-0.47,11.092l1.799-0.046
			C64.696,282.473,64.853,278.807,65.158,275.152z"/>
		<path fill="#020202" d="M64.711,287.92l-1.799,0.028c0.058,3.757,0.286,7.488,0.68,11.092l1.789-0.198
			C64.992,295.297,64.767,291.621,64.711,287.92z"/>
		<path fill="#020202" d="M63.807,300.881c0.468,3.718,1.125,7.4,1.954,10.943l1.754-0.408c-0.815-3.482-1.462-7.102-1.923-10.761
			L63.807,300.881z"/>
		<path fill="#020202" d="M71.91,237.574l-0.204-0.084c-0.007,0.013-0.024,0.06-0.053,0.13l-0.064,0.01l0.018,0.106
			c-0.373,0.938-1.731,4.478-3.287,9.994l1.733,0.485c1.759-6.242,3.302-10.002,3.316-10.037l0.1-0.243l-0.109-0.614L71.91,237.574z
			"/>
		<path fill="#020202" d="M73.048,235.515c-0.648-3.827-1.163-7.383-1.574-10.869l-1.785,0.21c0.412,3.517,0.933,7.102,1.584,10.96
			L73.048,235.515z"/>
		<path fill="#020202" d="M77.132,161.215c-1.41,3.438-2.661,6.958-3.717,10.469l1.722,0.52c1.041-3.455,2.272-6.923,3.66-10.308
			L77.132,161.215z"/>
		<path fill="#020202" d="M71.866,186.417l-1.775-0.289c-0.585,3.589-1.01,7.303-1.266,11.039l1.796,0.119
			C70.873,193.61,71.291,189.952,71.866,186.417z"/>
		<path fill="#020202" d="M68.645,211.962c0.146,3.566,0.425,7.289,0.835,11.06l1.788-0.196c-0.404-3.729-0.682-7.409-0.824-10.934
			L68.645,211.962z"/>
		<path fill="#020202" d="M66.807,262.469l-1.771-0.309c-0.645,3.662-1.151,7.361-1.504,10.996l1.792,0.176
			C65.672,269.743,66.171,266.09,66.807,262.469z"/>
		<path fill="#020202" d="M70.402,184.297l1.771,0.316c0.643-3.588,1.469-7.172,2.454-10.655l-1.732-0.492
			C71.894,177.009,71.056,180.653,70.402,184.297z"/>
		<path fill="#020202" d="M65.368,260.34l1.768,0.331c0.677-3.596,1.495-7.191,2.433-10.69l-1.739-0.465
			C66.88,253.059,66.053,256.699,65.368,260.34z"/>
		<path fill="#020202" d="M95.065,69.042l4.859,8.473c0.141-0.129,0.282-0.231,0.401-0.294c0.222-0.13,0.473-0.183,0.72-0.243
			l-2.611-9.151c-0.921-0.193-1.941,0.232-3.115,1.034C95.227,68.923,95.142,68.982,95.065,69.042z"/>
		<path fill="#020202" d="M92.698,57.016c-0.553,0.798,0.642,5.226,2.548,9.809c0.682-0.373,1.344-0.632,1.985-0.745
			c0.169-3.402,0.07-7.549-0.044-9.534c-0.008-0.173-0.349-0.37-0.806-0.471c-0.994-0.172-2.338,0.06-3.242,0.583
			C92.948,56.778,92.788,56.894,92.698,57.016z"/>
		<path fill="#020202" d="M91.412,32.747c-0.21,0.074-0.307,0.112-0.341,0.137c-0.479,0.643,0.104,4.404,1.234,8.287
			c0.959-0.172,2.049-0.162,2.967-0.007c0.629-3.064,1.292-7.784,1.013-8.645c-0.014,0-0.095-0.045-0.283-0.109
			C94.96,32.029,92.737,32.198,91.412,32.747z"/>
		<path fill="#020202" d="M95.807,54.237c0.773-5.747,0.206-10.009,0.028-11.074c-0.043-0.021-0.102-0.045-0.18-0.074
			c-0.894-0.305-2.655-0.376-3.663-0.003c-0.267,0.084-0.441,0.179-0.529,0.281c-0.367,0.86,0.625,6.326,1.841,11.259
			C94.106,54.35,94.979,54.219,95.807,54.237z"/>
		<path fill="#020202" d="M88.604,22.471c0.023,1.113,1.46,4.948,2.963,8.349c1.182-0.341,2.667-0.502,3.949-0.33
			c0.518-4.105,0.264-8.979-0.583-9.924c-0.031-0.028-0.277-0.098-0.618-0.098c-1.306,0-3.471,0.815-4.994,1.595
			C89.038,22.214,88.794,22.354,88.604,22.471z"/>
		<path fill="#020202" d="M83.78,13.292c0.142,0.64,2.797,4.002,5.352,6.867c0.942-0.436,2.697-1.167,4.263-1.406
			c-0.624-3.37-2.031-7.675-2.756-9.01c-0.007,0.06-0.525,0.031-1.624,0.449c-1.138,0.37-2.452,1.027-3.558,1.775
			C84.264,12.722,83.843,13.179,83.78,13.292z"/>
		<path fill="#020202" d="M84.865,10.234c0.849-0.542,1.756-0.999,2.646-1.364c-3.925-9.306-11.514-9.126-14.189-8.733
			C75.109,4.903,78.905,8.21,84.865,10.234z"/>
		<path fill="#020202" d="M174.028,77.515l4.86-8.473c-0.077-0.06-0.161-0.119-0.252-0.182c-1.174-0.802-2.196-1.227-3.118-1.034
			l-2.608,9.151c0.247,0.06,0.501,0.112,0.717,0.243C173.747,77.283,173.887,77.386,174.028,77.515z"/>
		<path fill="#020202" d="M178.71,66.825c1.904-4.583,3.098-9.011,2.544-9.809c-0.089-0.123-0.247-0.238-0.44-0.358
			c-0.903-0.523-2.248-0.755-3.244-0.583c-0.457,0.102-0.794,0.298-0.805,0.471c-0.115,1.985-0.213,6.132-0.045,9.534
			C177.364,66.192,178.028,66.452,178.71,66.825z"/>
		<path fill="#020202" d="M181.647,41.17c1.132-3.883,1.715-7.644,1.237-8.287c-0.035-0.024-0.134-0.063-0.344-0.137
			c-1.321-0.548-3.547-0.717-4.591-0.337c-0.186,0.063-0.268,0.109-0.281,0.109c-0.28,0.861,0.384,5.581,1.013,8.645
			C179.602,41.008,180.692,40.999,181.647,41.17z"/>
		<path fill="#020202" d="M178.298,43.089c-0.077,0.029-0.138,0.053-0.18,0.074c-0.176,1.064-0.745,5.327,0.029,11.074
			c0.829-0.018,1.7,0.113,2.502,0.39c1.216-4.934,2.206-10.399,1.84-11.259c-0.087-0.103-0.26-0.197-0.527-0.281
			C180.952,42.713,179.194,42.784,178.298,43.089z"/>
		<path fill="#020202" d="M182.384,30.82c1.505-3.401,2.942-7.236,2.968-8.349c-0.19-0.117-0.438-0.257-0.718-0.408
			c-1.524-0.78-3.69-1.595-4.997-1.595c-0.338,0-0.583,0.07-0.618,0.098c-0.845,0.945-1.1,5.819-0.584,9.924
			C179.721,30.318,181.204,30.479,182.384,30.82z"/>
		<path fill="#020202" d="M190.172,13.292c-0.063-0.113-0.485-0.569-1.672-1.325c-1.11-0.748-2.422-1.405-3.561-1.775
			c-1.1-0.418-1.617-0.39-1.624-0.449c-0.727,1.335-2.132,5.64-2.759,9.01c1.568,0.239,3.325,0.971,4.268,1.406
			C187.375,17.294,190.032,13.931,190.172,13.292z"/>
		<path fill="#020202" d="M200.631,0.138c-2.674-0.394-10.262-0.573-14.189,8.733c0.892,0.365,1.798,0.822,2.649,1.364
			C195.051,8.21,198.846,4.903,200.631,0.138z"/>
		<path fill="#020202" d="M152.07,102.186c0.345,0.925,0.791,1.81,1.341,2.653c-0.729-0.207-1.579-0.46-2.521-0.762l-0.548,1.714
			c3.064,0.981,5.172,1.47,5.261,1.487l2.952,0.682l-2.103-2.183c-1.219-1.261-2.126-2.681-2.694-4.217L152.07,102.186z"/>
		<path fill="#020202" d="M148.387,89.541c1.772,0.506,3.262,0.992,4.162,1.297c-0.394,0.952-0.942,2.555-1.191,4.515l1.785,0.225
			c0.354-2.797,1.416-4.825,1.43-4.846l0.485-0.914l-0.973-0.355c-0.093-0.031-2.237-0.805-5.206-1.652L148.387,89.541z"/>
		<path fill="#020202" d="M147.369,87.397c-3.735-0.991-6.889-1.542-9.369-1.648l-0.073,1.799c2.351,0.098,5.373,0.633,8.979,1.585
			L147.369,87.397z"/>
		<path fill="#020202" d="M127.464,89.13c3.612-0.953,6.635-1.487,8.983-1.582l-0.078-1.799c-2.473,0.103-5.63,0.654-9.368,1.645
			L127.464,89.13z"/>
		<path fill="#020202" d="M121.201,95.579l1.785-0.225c-0.246-1.96-0.794-3.563-1.188-4.515c0.899-0.306,2.39-0.791,4.161-1.297
			l-0.492-1.729c-2.969,0.847-5.113,1.621-5.204,1.652l-0.974,0.355l0.485,0.914C119.788,90.753,120.849,92.781,121.201,95.579z"/>
		<path fill="#020202" d="M124.005,105.791l-0.548-1.714c-0.938,0.302-1.792,0.555-2.52,0.762c0.552-0.844,0.995-1.729,1.339-2.653
			l-1.687-0.625c-0.569,1.533-1.473,2.952-2.692,4.217l-2.102,2.183l2.952-0.682C118.833,107.261,120.941,106.772,124.005,105.791z"
			/>
		<path fill="#020202" d="M125.214,103.497l0.598,1.694l0.633-0.222c0.949-0.331,1.875-0.679,2.788-1.013
			c2.687-0.998,5.224-1.939,7.108-2.175l-0.225-1.786c-2.088,0.264-4.723,1.237-7.51,2.271c-0.9,0.334-1.824,0.678-2.752,1.005
			L125.214,103.497z"/>
		<path fill="#020202" d="M147.896,104.969l0.617,0.217l0.485-1.735l-0.498-0.176c-0.942-0.333-1.869-0.678-2.776-1.012
			c-2.791-1.034-5.426-2.007-7.515-2.267l-0.22,1.786c1.879,0.232,4.416,1.174,7.108,2.168
			C146.011,104.291,146.95,104.635,147.896,104.969z"/>
		<path fill="#020202" d="M151.628,138.12c2.069-0.141,3.738-0.271,4.646-0.344c0.358,0.998,1.266,2.688,3.466,3.946l0.892-1.56
			c-2.445-1.399-2.789-3.392-2.805-3.469l-0.119-0.844l-0.847,0.074c-0.003,0-2.218,0.19-5.352,0.404L151.628,138.12z"/>
		<path fill="#020202" d="M118.267,114.338c-3.3-0.436-6.758-0.945-10.29-1.521l-0.288,1.778c3.546,0.576,7.025,1.09,10.343,1.529
			L118.267,114.338z"/>
		<path fill="#020202" d="M119.76,116.349c2.861,0.358,5.434,0.618,7.845,0.832c2.656,0.358,5.333,0.566,8.019,0.682
			c2.84,0.015,5.733-0.081,8.576-0.463v0.007c3.071-0.221,6.574-0.579,10.42-1.064l-0.226-1.785
			c-3.813,0.478-7.289,0.836-10.325,1.058l0.054,0.755c-0.578,0.031-1.154,0.052-1.733,0.07l-0.042-0.713
			c-3.862,0.235-6.64,0.225-10.315,0.003l-0.03,0.552c-0.581-0.024-1.157-0.039-1.733-0.071l0.042-0.594
			c-3.004-0.222-6.48-0.576-10.325-1.054L119.76,116.349z"/>
		<path fill="#020202" d="M118.074,137.775c0.907,0.074,2.572,0.203,4.642,0.344l0.109-1.582c0.625,0.141,1.254,0.278,1.883,0.394
			l-0.084,1.311c3.162,0.204,7.728,0.45,11.555,0.492l0.007-0.656c0.64,0,1.286-0.014,1.926-0.029l0.007,0.685
			c3.808-0.039,8.385-0.285,11.556-0.488l-0.113-1.792c-0.084,0.003-0.189,0.01-0.276,0.018c0.607-0.193,1.226-0.334,1.816-0.573
			c-5.151,0.801-10.283,0.932-15.442,0.749c-5.165-0.057-10.311-0.51-15.525-0.749c0.471,0.134,0.949,0.221,1.423,0.337
			c-2.436-0.172-4.066-0.313-4.073-0.313l-0.833-0.063l-0.13,0.826c-0.014,0.084-0.358,2.077-2.804,3.476l0.893,1.56
			C116.805,140.464,117.711,138.773,118.074,137.775z"/>
		<path fill="#020202" d="M193.884,226.114l-1.785-0.217c-0.46,3.809-1.104,7.361-1.862,10.266l1.739,0.456
			C192.752,233.635,193.414,230,193.884,226.114z"/>
		<path fill="#020202" d="M192.83,187.274c-0.598-3.536-1.342-7.032-2.214-10.399l-1.743,0.45c0.856,3.317,1.593,6.765,2.186,10.251
			L192.83,187.274z"/>
		<path fill="#020202" d="M192.295,224.16l1.788,0.189c0.359-3.384,0.581-6.955,0.662-10.609l-1.801-0.042
			C192.865,217.304,192.646,220.825,192.295,224.16z"/>
		<path fill="#020202" d="M192.977,210.683l-0.003,1.269l1.8,0.014l0.003-1.282c0-3.104-0.102-6.245-0.302-9.337l-1.8,0.119
			C192.879,204.515,192.977,207.618,192.977,210.683z"/>
		<path fill="#020202" d="M192.552,199.718l1.792-0.141c-0.277-3.546-0.688-7.095-1.227-10.553l-1.778,0.274
			C191.871,192.714,192.279,196.218,192.552,199.718z"/>
		<path fill="#020202" d="M181.682,153.733l-1.582,0.857c1.617,2.987,3.107,6.174,4.436,9.467l1.666-0.674
			C184.853,160.031,183.334,156.784,181.682,153.733z"/>
		<path fill="#020202" d="M186.851,165.039l-1.679,0.64c1.219,3.19,2.315,6.54,3.251,9.956l1.736-0.478
			C189.202,171.685,188.092,168.279,186.851,165.039z"/>
		<path fill="#020202" d="M190.784,240.46c0.238-0.644,0.479-1.351,0.711-2.116l-1.722-0.521c-0.26,0.848-0.521,1.617-0.787,2.303
			l-0.128,0.323l0.121,0.323c0.014,0.027,1.071,2.825,2.409,7.611l1.736-0.484C192.006,243.913,191.101,241.33,190.784,240.46z"/>
		<path fill="#020202" d="M193.877,321.054l1.75,0.421c0.815-3.389,1.501-6.898,2.031-10.438l-1.778-0.268
			C195.353,314.256,194.681,317.714,193.877,321.054z"/>
		<path fill="#020202" d="M196.125,309.045l1.778,0.238c0.472-3.457,0.81-7.018,0.998-10.581l-1.796-0.099
			C196.917,302.121,196.583,305.633,196.125,309.045z"/>
		<path fill="#020202" d="M195.993,259.957c-0.7-3.521-1.508-7.001-2.401-10.346l-1.739,0.463c0.887,3.307,1.681,6.751,2.376,10.233
			L195.993,259.957z"/>
		<path fill="#020202" d="M197.236,286.363c0.05,1.524,0.079,3.075,0.074,4.642c0,1.926-0.039,3.877-0.123,5.853l1.8,0.077
			c0.084-2.004,0.123-3.981,0.123-5.93c0.003-1.587-0.025-3.152-0.074-4.699L197.236,286.363z"/>
		<path fill="#020202" d="M190.37,332.755l1.688,0.612c1.197-3.3,2.255-6.724,3.142-10.168l-1.743-0.449
			C192.584,326.142,191.543,329.509,190.37,332.755z"/>
		<path fill="#020202" d="M194.559,262.027c0.643,3.447,1.181,6.94,1.602,10.381l1.785-0.218c-0.421-3.477-0.969-7.008-1.624-10.494
			L194.559,262.027z"/>
		<path fill="#020202" d="M198.968,284.54c-0.15-3.483-0.425-7.047-0.817-10.59l-1.79,0.198c0.392,3.503,0.661,7.027,0.81,10.469
			L198.968,284.54z"/>
		<path fill="#020202" d="M185.544,343.962l1.605,0.81c1.579-3.132,3.022-6.411,4.289-9.743l-1.681-0.638
			C188.51,337.665,187.094,340.884,185.544,343.962z"/>
		<path fill="#020202" d="M272.633,277.085c0.013-0.024,0.045-0.049,0.059-0.073c0.511-0.879,1.427-2.52-6.272-12.177
			c0.098-0.267,0.252-0.511,0.303-0.798c0.151-0.941,0.08-2.742-2.109-4.253c-2.116-1.454-5.743-5.426-7.738-7.725
			c0.555-1.026,0.705-1.939,0.721-2.088l0.077-0.843l-0.598-0.595c-2.203-2.199-3.423-5.699-3.918-7.42
			c1.162-1.042,2.13-2.187,2.776-3.217c1.781-2.85-1.448-8.817-11.134-25.148c-5.561-9.37-11.809-19.926-15.02-27.929
			c0.287-0.706,0.467-1.623,0.267-2.857c-1.23-7.496-15.818-22.379-31.4-32.12c-1.128-4.674-2.485-9.58-4.023-14.437
			c6.437-1.076,10.942-4.808,12.531-6.839c1.09-1.385,0.809-3.262-0.377-5.708c3.322-5.063,2.978-19.521,1.376-39.497
			c-0.054-0.664-0.106-1.3-0.151-1.901c3.496,0.984,6.616,1.504,9.141,1.504c2.164,0,3.904-0.362,5.12-1.1
			c1.392-0.839,1.845-1.981,1.978-2.793c0.042-0.249,0.485-3.047,0.334-6.734c1.29-1.412,4.847-5.419,8.002-10.04
			c2.277-3.338,3.393-4.994,3.258-6.642c7.37-10.333,9.297-19.723,9.377-20.127l0.447-2.27l-2.313,0.126
			c-0.353,0.021-0.88,0.021-1.491-0.003c1.456-2.33,3.389-7.152,1.588-15.126c0,0-0.941,12.768-4.75,13.899
			c0,0-4.699-3.251-4.633-12.567c0,0-1.883,5.317,0.414,11.011c-0.705-0.341-1.335-0.229-1.634-0.124
			c-1.816,0.654-1.827,2.73-1.847,8.273c-0.019,3.996-0.054,9.331-1.073,12.321c-2.396,0.984-5.082,4.207-8.697,9.043
			c-0.511-0.812-1.069-1.6-1.732-2.327c-2.06-2.246-4.116-3.296-6.31-3.083c-4.343,0.338-8.185,5.311-13.666,13.47
			c-1.778-1.398-3.613-2.684-5.244-3.7c-1.493-0.924-3.05-0.791-4.175,0.355c-4.525,4.589-0.733,32.503,4.46,44.976
			c-2.766,0.72-5.781,3.265-7.737,5.163c-4.264-9.151-8.892-15.927-13.179-17.224c-0.826-3.363-2.887-6.532-5.898-8.135
			c2.91-3.338,5.159-7.886,5.213-10.019c0.023-0.492-0.093-0.738-0.205-0.798c-0.231-0.137-0.492-0.162-0.801-0.088
			c-1.605,0.404-4.189,3.269-8.098,7.601l-0.756,0.833c-1.415-4.154-5.352-8.185-10.019-11.316
			c9.225-8.304-1.272-22.878-5.998-20.597c0,0,11.225,11.176,3.813,19.227c-4.751-2.78-9.903-4.573-13.717-4.573
			s-8.965,1.792-13.716,4.573c-7.408-8.051,3.811-19.227,3.811-19.227c-4.724-2.281-15.224,12.293-5.996,20.597
			c-4.787,3.212-8.803,7.376-10.117,11.64l-1.05-1.157c-3.909-4.333-6.493-7.197-8.098-7.601c-0.31-0.074-0.567-0.049-0.804,0.088
			c-0.112,0.06-0.227,0.306-0.203,0.798c0.056,2.161,2.367,6.807,5.336,10.156c-2.841,1.638-4.823,4.716-5.628,7.998
			c-4.286,1.297-8.916,8.077-13.179,17.228c-1.956-1.894-4.969-4.428-7.74-5.155c5.196-12.469,8.992-40.391,4.465-44.986
			c-1.133-1.146-2.694-1.28-4.175-0.355c-1.634,1.016-3.469,2.306-5.247,3.7c-5.482-8.159-9.321-13.132-13.667-13.47
			c-2.206-0.214-4.25,0.836-6.303,3.083c-0.666,0.727-1.225,1.515-1.735,2.33c-3.616-4.843-6.305-8.063-8.701-9.046
			c-1.018-2.99-1.053-8.325-1.068-12.321c-0.023-5.546-0.03-7.619-1.851-8.273c-0.3-0.105-0.929-0.217-1.635,0.124
			c2.296-5.693,0.417-11.011,0.417-11.011c0.066,9.316-4.631,12.567-4.631,12.567c-3.813-1.132-4.753-13.899-4.753-13.899
			c-1.798,7.964,0.132,12.785,1.583,15.115c-0.606,0.028-1.135,0.032-1.487,0.014l-2.309-0.124l0.446,2.267
			c0.079,0.404,2.009,9.794,9.376,20.123c-0.135,1.652,0.98,3.311,3.259,6.649c3.154,4.621,6.71,8.628,8,10.04
			c-0.151,3.684,0.287,6.481,0.329,6.73c0.135,0.812,0.589,1.954,1.981,2.797c1.217,0.735,2.958,1.097,5.12,1.097
			c2.524,0,5.643-0.52,9.144-1.504c-0.047,0.604-0.099,1.237-0.151,1.901c-1.602,19.979-1.95,34.437,1.373,39.5
			c-1.185,2.447-1.462,4.319-0.378,5.7c1.592,2.036,6.099,5.768,12.534,6.843c-1.537,4.856-2.898,9.759-4.024,14.433
			c-15.581,9.745-30.172,24.628-31.396,32.124c-0.202,1.234-0.025,2.151,0.267,2.857c-3.214,8.002-9.466,18.563-15.023,27.932
			c-9.685,16.327-12.914,22.295-11.134,25.145c0.643,1.03,1.613,2.175,2.78,3.217c-0.5,1.725-1.719,5.221-3.92,7.42l-0.596,0.595
			l0.076,0.84c0.014,0.147,0.166,1.064,0.717,2.091c-1.996,2.299-5.621,6.267-7.74,7.725c-2.188,1.508-2.258,3.312-2.105,4.25
			c0.048,0.287,0.202,0.53,0.304,0.798c-7.701,9.664-6.784,11.305-6.274,12.176c0.014,0.025,0.045,0.053,0.061,0.077
			c-2.864,5.68-1.829,19.505,0.79,23.132c0.495,0.695,1.127,0.938,1.788,0.956c-0.082,2.924,0.751,8.666,8.043,11.436
			c0,0-6.189-5.181-5.168-12.278c0.526-0.247,1.084-0.479,1.64-0.665c0.923,2.399,3.486,6.551,10.372,7.875
			c0,0-5.844-3.054-7.408-8.799c0.62-0.341,1.185-0.823,1.52-1.572c0.792-1.768-0.24-3.73-1.087-5.056
			c-1.55-2.412-3.137-7.647-2.817-11.19c0.111,0.008,0.236,0.031,0.341,0.031c0.114,0,0.225-0.003,0.331-0.01
			c1.674-0.135,2.261-1.206,2.433-1.659c0.17-0.435,0.349-1.146,0.559-2.035c0.531-2.22,1.434-5.834,3.488-8.289
			c1.381-0.359,2.759-1.356,3.678-3.655c1.154-2.882,2.984-7.819,3.81-10.065c0.201-0.011,0.394-0.011,0.599-0.03l0.806-0.083
			l0.471-0.659c0.127-0.177,2.78-4.007,2.862-10.137c0.118-0.007,0.236-0.007,0.352-0.02c1.859-0.222,4.363-1.364,5.739-5.535
			c0.822-2.488,2.509-6.267,4.644-11.045c4.821-10.796,11.374-25.507,14.76-40.404c0.191-0.103,0.385-0.208,0.582-0.32
			c-5.401,15.14-9.339,34.584-9.339,59.188c0,28.992,8.274,56.231,20.451,78.831c-1.173,15.675,2.715,34.667,7.778,38.684
			c0.873,13.34,13.081,33.614,17.287,36.148c0.216,0.129,0.413,0.199,0.608,0.27c4.308,6.516,11.542,16.742,14.881,17.322
			c0.155,0.025,0.31,0.038,0.462,0.038c0.527,0,1.026-0.161,1.436-0.467l0.063-0.045c3.121,4.287,6.087,8.292,9.984,8.535
			c0.123,0.007,0.243,0.011,0.365,0.011c0.938,0,1.87-0.245,2.797-0.699c5.103,8.009,9.665,7.678,9.665,7.678
			s-3.599-2.516-7.152-9.54c0.158-0.156,0.319-0.275,0.481-0.443c1.182-1.261,1.771-2.485,2.011-3.588
			c2.396,0.488,6.7,1.736,9.6,4.794c0,0,0.007-3.428-9.594-7.219c-0.028-0.158-0.063-0.313-0.102-0.457
			c-1.071-3.817-5.626-6.455-8.6-7.741c0.064-0.215,0.119-0.431,0.133-0.64c0.039-0.742-0.235-1.425-0.78-1.92
			c-0.52-0.474-2.129-1.813-4.182-3.521c-3.392-2.817-8.308-6.908-11.123-9.452c0.262-0.759,0.295-1.521-0.044-2.268
			c-0.342-0.755-1.086-1.55-2.881-3.434c-4.227-4.432-11.972-12.609-16.024-24.063c1.254-1.807,1.988-4.789,2.279-9.442
			c16.995,20.023,36.428,32.205,51.869,32.205c21.258,0,50.076-23.104,69.689-57.969c1.197,4.484,2.502,7.253,4.082,8.774
			c-1.718,12.034-7.706,21.575-10.982,26.747c-1.383,2.197-1.959,3.122-2.143,3.93c-0.187,0.798-0.003,1.54,0.4,2.235
			c-2.259,3.048-6.27,8.023-9.038,11.449c-1.68,2.084-2.998,3.715-3.416,4.284c-0.437,0.591-0.569,1.312-0.383,2.031
			c0.052,0.203,0.151,0.405,0.256,0.604c-2.664,1.846-6.606,5.332-6.909,9.278c-0.013,0.147-0.013,0.309-0.013,0.47
			c-8.667,5.605-7.985,8.966-7.985,8.966c2.242-3.566,6.22-5.641,8.474-6.593c0.453,1.036,1.268,2.123,2.677,3.127
			c0.187,0.134,0.369,0.229,0.553,0.35c-2.103,7.58-5.132,10.754-5.132,10.754s4.54-0.574,7.975-9.448
			c0.579,0.155,1.155,0.261,1.715,0.261c0.517,0,1.019-0.067,1.511-0.196c3.771-1.006,5.895-5.515,8.111-10.329l0.07,0.031
			c0.319,0.151,0.66,0.229,1.009,0.229c0.313,0,0.628-0.059,0.938-0.183c3.164-1.229,8.262-12.723,11.2-19.958
			c0.177-0.107,0.345-0.172,0.524-0.336c3.622-3.309,11.594-25.557,9.835-38.813c4.366-4.973,3.969-24.484,0.282-38.513
			c5.227-15.822,8.371-32.954,8.371-50.761c0-24.604-3.939-44.049-9.342-59.188c0.197,0.113,0.395,0.218,0.588,0.323
			c3.384,14.897,9.935,29.608,14.756,40.401c2.135,4.779,3.82,8.557,4.644,11.048c1.377,4.168,3.882,5.311,5.737,5.532
			c0.119,0.013,0.237,0.013,0.353,0.02c0.084,6.13,2.741,9.96,2.867,10.137l0.472,0.659l0.805,0.083
			c0.206,0.02,0.396,0.02,0.598,0.03c0.826,2.246,2.656,7.184,3.812,10.065c0.907,2.276,2.268,3.275,3.663,3.637
			c2.066,2.46,2.974,6.088,3.499,8.315c0.212,0.882,0.388,1.589,0.556,2.027c0.177,0.453,0.766,1.524,2.438,1.659
			c0.105,0.007,0.215,0.01,0.327,0.01c0.106,0,0.229-0.023,0.342-0.031c0.315,3.539-1.265,8.775-2.812,11.193
			c-0.852,1.322-1.884,3.281-1.09,5.053c0.334,0.753,0.9,1.234,1.518,1.572c-1.566,5.745-7.407,8.799-7.407,8.799
			c6.887-1.324,9.446-5.476,10.373-7.875c0.553,0.187,1.112,0.418,1.64,0.665c1.019,7.098-5.168,12.278-5.168,12.278
			c7.29-2.77,8.126-8.512,8.042-11.436c0.66-0.019,1.293-0.261,1.785-0.949C274.46,296.59,275.493,282.768,272.633,277.085z
			 M235.5,45.62c-0.422,1.163-0.905,2.309-1.436,3.43c0.488-3.212,0.512-7.011,0.525-10.287c0.005-1.146,0.012-2.432,0.047-3.497
			c2.045,1.17,4.618,1.564,6.487,1.687c-0.885,2.987-2.984,8.789-7.162,15.073c-0.014-0.015-0.028-0.018-0.035-0.032
			c0.932-2.007,1.701-4.048,2.264-6.16c0.698-2.65,1.109-5.366,1.18-8.083C237.058,40.45,236.415,43.089,235.5,45.62z
			 M231.154,54.233l0.309,0.422c0.341,0.463,0.766,1.04,0.798,1.215c0.007,0.492-1.351,2.478-2.656,4.4
			c-1.892,2.772-3.979,5.359-5.577,7.239c-0.109-0.552-0.229-1.103-0.373-1.658c2.621-3.49,5.239-6.987,7.645-10.627
			c-2.566,3.173-5.315,6.196-8.063,9.208c-0.077-0.225-0.163-0.447-0.243-0.672C225.738,60.042,229.899,54.476,231.154,54.233z
			 M40.39,52.026c-4.181-6.288-6.278-12.086-7.164-15.077c1.866-0.119,4.438-0.516,6.487-1.687c0.035,1.065,0.04,2.354,0.046,3.5
			c0.012,3.289,0.041,7.103,0.532,10.325c-0.501-1.065-0.968-2.155-1.373-3.254c-0.889-2.463-1.538-5.022-1.943-7.633
			c0.167,2.636,0.581,5.268,1.256,7.847c0.548,2.035,1.283,4.01,2.188,5.95C40.411,52.008,40.398,52.012,40.39,52.026z
			 M51.098,64.498c-2.475-2.572-4.896-5.215-7.135-8.016c2.063,3.248,4.35,6.35,6.73,9.394c-0.143,0.548-0.262,1.093-0.368,1.634
			c-1.597-1.876-3.685-4.467-5.577-7.239c-1.311-1.922-2.667-3.908-2.661-4.396c0.034-0.179,0.458-0.755,0.798-1.216l0.033-0.341
			c1.519,0.166,5.69,5.725,8.44,9.447C51.268,64.006,51.178,64.252,51.098,64.498z M213.459,58.289
			c0.357-0.025,1.496-0.12,3.373,1.929c5.777,6.301,3.879,18.144,3.859,18.264c-0.009,0.039-0.022,0.144-0.292,0.306
			c-1.483,0.899-6.034,0.872-12.642-1.143c-0.373-1.96-2.625-4.601-5.468-7.148C206.753,63.845,210.662,58.506,213.459,58.289z
			 M192.468,67.591c6.651,4.154,11.475,9.32,11.783,10.388c-0.085,0.538-0.021,1.487,0.315,5.672
			c1.505,18.819,1.525,30.705,0.064,35.498c-0.88-1.356-1.897-2.829-3.045-4.456c-0.836-1.181-1.605-2.273-2.191-3.184
			C193.315,102.045,189.997,71.534,192.468,67.591z M195.987,113.207c0.139,0.01,0.238,0.035,0.386,0.256
			c0.608,0.942,1.409,2.081,2.271,3.304c1.897,2.685,5.84,8.276,5.679,9.584c-1.529,1.954-5.585,4.863-10.839,5.583
			c-1.574-4.688-3.285-9.246-5.092-13.453C191.019,115.709,194.373,113.03,195.987,113.207z M188.746,129.256
			c-0.238,1.518-1.022,2.941-2.133,4.108c-1.423,1.521-3.297,2.636-5.281,3.416c-0.282,0.109-0.585,0.166-0.872,0.26
			c0.506-1.283,0.85-2.699,0.854-4.369c1.557-0.667,3.055-1.486,4.313-2.681c0.924-0.854,1.694-1.954,2.213-3.163
			C188.141,127.629,188.448,128.43,188.746,129.256z M185.271,120.422c-0.109,1.729-0.919,3.363-2.165,4.67
			c-0.731,0.78-1.585,1.448-2.507,2.024c-0.267-1.125-0.618-2.316-1.029-3.539c0.903-0.523,1.775-1.125,2.548-1.859
			c0.964-0.889,1.751-2.042,2.27-3.311C184.683,119.068,184.979,119.732,185.271,120.422z M183.506,116.471
			c-0.158,1.659-0.952,3.223-2.154,4.484c-0.611,0.653-1.342,1.198-2.095,1.711c-0.379-1.079-0.808-2.186-1.3-3.332
			c0.85-0.502,1.676-1.058,2.406-1.753c0.91-0.84,1.67-1.915,2.19-3.1C182.87,115.125,183.187,115.79,183.506,116.471z
			 M178.083,106.529c0.556,0.84,1.129,1.761,1.715,2.766c-0.351,1.244-1.022,2.412-1.953,3.388c-0.64,0.682-1.392,1.259-2.183,1.782
			c-0.76-1.452-1.312-2.386-1.342-2.439l-0.074-0.126c0.084-0.053,0.182-0.07,0.271-0.127c1.434-0.917,2.583-2.319,3.193-3.957
			C177.873,107.401,177.993,106.968,178.083,106.529z M163.542,92.11c3.897,0,6.719,4.343,6.913,8.398
			c0.077,1.627-0.222,5.458-4.679,5.88l-0.322,0.018c-3.508,0-6.678-5.282-6.717-9.447C158.71,93.8,160.291,92.17,163.542,92.11z
			 M103.893,100.509c0.194-4.055,3.013-8.398,7.009-8.398h0.001c3.149,0.06,4.734,1.69,4.703,4.85
			c-0.036,4.165-3.206,9.447-6.709,9.447l-0.324-0.018C104.118,105.967,103.816,102.136,103.893,100.509z M96.097,106.786
			c0.081,0.348,0.17,0.695,0.3,1.029c0.611,1.638,1.763,3.041,3.196,3.957c0.146,0.095,0.312,0.127,0.461,0.211l-0.025,0.042
			c-0.034,0.053-0.614,1.037-1.414,2.576c-0.86-0.552-1.661-1.184-2.35-1.919c-0.865-0.907-1.501-1.975-1.87-3.117
			C94.976,108.557,95.541,107.632,96.097,106.786z M91.658,114.767c0.519,1.076,1.25,2.042,2.088,2.815
			c0.787,0.748,1.667,1.36,2.589,1.891c-0.488,1.148-0.918,2.263-1.3,3.341c-0.83-0.542-1.609-1.146-2.277-1.859
			c-1.095-1.149-1.877-2.545-2.13-4.038C90.973,116.172,91.315,115.466,91.658,114.767z M89.831,118.703
			c0.524,1.153,1.274,2.196,2.162,3.015c0.83,0.791,1.755,1.447,2.734,1.996c-0.399,1.209-0.751,2.391-1.01,3.504
			c-0.996-0.601-1.93-1.29-2.711-2.126c-1.132-1.188-1.915-2.639-2.138-4.189C89.188,120.144,89.509,119.427,89.831,118.703z
			 M88.077,122.836c0.522,1.152,1.275,2.2,2.161,3.018c0.986,0.939,2.124,1.645,3.309,2.246c-0.116,0.58-0.241,1.167-0.316,1.715
			l1.782,0.245c0.055-0.393,0.151-0.815,0.227-1.226c0.275,0.105,0.529,0.259,0.805,0.351c4.244,1.377,8.772,1.36,13.042,0.527
			c-4.309,0.602-8.787,0.348-12.797-1.206c-0.315-0.123-0.596-0.313-0.904-0.453c0.246-1.146,0.582-2.358,0.995-3.624
			c0.475,0.204,0.931,0.457,1.418,0.619c4.243,1.378,8.771,1.36,13.041,0.527c-4.308,0.6-8.788,0.348-12.798-1.206
			c-0.486-0.19-0.931-0.468-1.398-0.703c0.383-1.106,0.82-2.252,1.325-3.444c0.528,0.228,1.039,0.509,1.583,0.689
			c4.244,1.377,8.771,1.359,13.04,0.527c-4.307,0.601-8.785,0.348-12.795-1.205c-0.529-0.208-1.012-0.506-1.518-0.762
			c0.018-0.04,0.032-0.078,0.05-0.12l-1.547-0.682c-0.826-0.537-1.604-1.142-2.269-1.852c-1.008-1.057-1.735-2.33-2.043-3.689
			c0.381-0.752,0.761-1.48,1.137-2.168c0.503,0.938,1.148,1.796,1.894,2.484c0.821,0.78,1.736,1.427,2.703,1.971
			c-0.23,0.461-0.463,0.921-0.715,1.452l1.627,0.773c0.254-0.538,0.501-1.034,0.735-1.497c0.488,0.208,0.957,0.467,1.457,0.632
			c4.244,1.378,8.771,1.36,13.043,0.527c-4.31,0.601-8.79,0.348-12.799-1.206c-0.466-0.183-0.887-0.449-1.335-0.667
			c0.436-0.84,0.809-1.518,1.048-1.943c0.846,0.154,2.499,0.453,4.694,0.818l0.199-1.181c1.041-0.113,2.068-0.302,3.029-0.639
			c-0.97,0.264-1.98,0.375-2.991,0.415l0.062-0.366c-3.233-0.545-5.282-0.931-5.287-0.935l-0.306-0.056
			c-0.212-0.134-0.457-0.208-0.658-0.362c-1.248-0.936-2.161-2.256-2.584-3.711c-0.215-0.724-0.304-1.465-0.292-2.208
			c1.169-1.609,2.248-2.748,3.218-3.437c0.344,4.562,3.301,7.707,7.887,8.146c0.222,0.021,0.445,0.032,0.665,0.032
			c5.738,0,10.251-6.994,10.308-13.01c0.039-3.838-1.716-6.617-4.808-7.819c1.385-7.338,15.576-15.699,22.776-15.699
			c7.19,0,21.357,8.34,22.776,15.671c-3.068,1.187-4.847,3.981-4.809,7.847c0.058,6.016,4.569,13.01,10.313,13.01
			c0.217,0,0.442-0.011,0.66-0.032c4.59-0.439,7.549-3.581,7.89-8.146c0.89,0.632,1.87,1.659,2.929,3.065
			c0.055,0.868,0.006,1.732-0.24,2.579c-0.425,1.455-1.339,2.776-2.586,3.711c-0.239,0.183-0.527,0.277-0.781,0.428
			c-0.161,0.032-2.123,0.401-5.229,0.924l0.061,0.362c-1.09-0.018-2.183-0.126-3.229-0.411c0.432,0.151,0.898,0.232,1.349,0.341
			c-3.548,0.58-6.972,1.086-10.163,1.507l0.235,1.785c3.244-0.428,6.728-0.945,10.343-1.532l-0.28-1.726
			c0.589,0.138,1.181,0.225,1.785,0.278l0.196,1.167c2.196-0.365,3.853-0.664,4.695-0.818c0.231,0.407,0.582,1.05,0.997,1.848
			c-0.505,0.257-0.99,0.555-1.524,0.763c-4.007,1.553-8.487,1.807-12.796,1.206c4.271,0.833,8.798,0.851,13.043-0.527
			c0.565-0.19,1.103-0.478,1.65-0.72c0.247,0.492,0.507,1.013,0.781,1.585l1.623-0.773c-0.275-0.58-0.527-1.085-0.78-1.578
			c0.899-0.524,1.765-1.114,2.53-1.845c0.805-0.745,1.508-1.669,2.023-2.695c0.359,0.657,0.724,1.37,1.09,2.081
			c-0.26,1.476-1.043,2.854-2.126,3.988c-1.424,1.522-3.296,2.636-5.281,3.417c-4.014,1.553-8.492,1.806-12.799,1.205
			c4.269,0.833,8.799,0.851,13.041-0.527c0.611-0.204,1.19-0.509,1.781-0.776c0.506,1.187,0.942,2.326,1.328,3.433
			c-0.533,0.271-1.044,0.583-1.602,0.801c-4.007,1.553-8.487,1.806-12.796,1.206c4.271,0.833,8.796,0.851,13.041-0.527
			c0.556-0.187,1.083-0.468,1.624-0.706c0.408,1.254,0.759,2.463,1.009,3.602c-0.379,0.179-0.731,0.407-1.121,0.562
			c-4.014,1.553-8.49,1.807-12.8,1.206c4.271,0.833,8.801,0.851,13.041-0.527c0.353-0.116,0.679-0.309,1.024-0.446
			c0.091,0.478,0.196,0.97,0.259,1.423l1.787-0.239c-0.086-0.615-0.219-1.269-0.353-1.922c1.106-0.58,2.164-1.265,3.09-2.148
			c0.965-0.893,1.756-2.052,2.273-3.327c0.296,0.709,0.583,1.417,0.871,2.15c-0.141,1.684-0.941,3.275-2.157,4.551
			c-1.068,1.139-2.418,1.982-3.85,2.696l-1.503,0.06c0.011,0.214,0.014,0.421,0.014,0.632c0,0.018-0.003,0.028-0.003,0.046
			c-3.997,1.532-8.452,1.785-12.739,1.187c4.143,0.809,8.525,0.823,12.658-0.436c-0.103,1.722-0.481,3.173-1.224,4.298
			c-3.146,0.693-6.462,0.725-9.682,0.274c2.991,0.583,6.104,0.73,9.159,0.317c-0.739,0.864-1.646,1.584-2.868,2.038l0.621,1.687
			c2.196-0.812,3.729-2.281,4.698-4.225c0.479-0.116,0.961-0.193,1.431-0.344c2.106-0.699,4.144-1.75,5.806-3.332
			c0.84-0.773,1.572-1.74,2.093-2.815c0.302,0.868,0.604,1.737,0.898,2.629c-0.323,1.308-1.026,2.538-2.004,3.56
			c-1.426,1.522-3.296,2.636-5.284,3.417c-3.036,1.177-6.348,1.602-9.645,1.479l-0.329-1.588c-4.523,0.935-8.22,0.942-10.898,0.053
			l-0.569,1.708c1.501,0.502,3.265,0.755,5.239,0.755c1.955,0,4.168-0.253,6.58-0.749c3.296,0.303,6.663,0.06,9.867-0.98
			c2.103-0.699,4.145-1.75,5.807-3.331c0.73-0.675,1.355-1.508,1.855-2.418c1.015,3.163,1.981,6.445,2.882,9.822
			c-2.849-2.66-4.791-4.017-5.132-4.245l-1.399-0.935l-1.457,0.839c-0.184,0.106-18.595,10.536-48.709,10.536
			s-48.525-10.43-48.708-10.536l-1.46-0.839l-1.397,0.935c-0.341,0.228-2.287,1.585-5.133,4.245c0.876-3.286,1.817-6.48,2.804-9.566
			c0.478,0.805,1.041,1.553,1.698,2.162c1.662,1.581,3.702,2.632,5.805,3.331c3.253,1.055,6.668,1.283,10.011,0.96
			c2.437,0.506,4.684,0.766,6.677,0.77c1.924,0,3.651-0.243,5.127-0.717l-0.551-1.715c-2.708,0.875-6.435,0.83-10.907-0.105
			l-0.334,1.599c-3.343,0.137-6.698-0.278-9.778-1.469c-1.987-0.781-3.859-1.894-5.284-3.417c-0.882-0.924-1.529-2.024-1.893-3.19
			c0.308-0.935,0.625-1.831,0.94-2.741c0.509,0.97,1.174,1.849,1.939,2.558c1.663,1.582,3.703,2.632,5.806,3.332
			c0.546,0.179,1.108,0.271,1.664,0.404c0.949,1.88,2.438,3.3,4.596,4.123l0.64-1.68c-1.169-0.446-2.039-1.146-2.759-1.978
			c2.973,0.368,5.996,0.225,8.9-0.341c-3.125,0.436-6.336,0.404-9.396-0.228c-0.754-1.121-1.154-2.562-1.265-4.284
			c4.063,1.184,8.351,1.17,12.414,0.375c-4.202,0.587-8.559,0.337-12.492-1.113c0-0.046-0.012-0.077-0.012-0.124
			c0-0.238,0.005-0.481,0.016-0.727l-1.796-0.085c-0.002,0.032-0.002,0.064-0.002,0.099c-1.408-0.71-2.743-1.546-3.796-2.671
			c-1.092-1.146-1.875-2.541-2.129-4.034C87.438,124.382,87.758,123.616,88.077,122.836z M145.787,156.977
			c-2.474,2.756-5.517,6.91-8.613,13.024c-3.097-6.115-6.14-10.269-8.609-13.024c2.759,0.177,5.619,0.285,8.609,0.285
			C140.165,157.261,143.026,157.153,145.787,156.977z M88.485,129.991c1.325,1.261,2.917,2.111,4.563,2.79
			c0.018,1.666,0.349,3.071,0.849,4.336c-0.369-0.119-0.754-0.196-1.116-0.337c-1.987-0.78-3.859-1.894-5.284-3.416
			c-1.011-1.062-1.74-2.337-2.047-3.7c0.309-0.862,0.624-1.68,0.938-2.513C86.907,128.234,87.641,129.211,88.485,129.991z
			 M66.561,77.652c-6.585,2.003-11.129,2.028-12.612,1.135c-0.271-0.162-0.289-0.267-0.295-0.306
			c-0.02-0.12-1.904-11.974,3.862-18.264c1.875-2.049,2.991-1.954,3.372-1.929c2.796,0.217,6.707,5.552,11.165,12.205
			C69.173,73.066,66.896,75.727,66.561,77.652z M69.784,83.651c0.335-4.185,0.4-5.134,0.316-5.405
			c0.306-1.325,5.063-6.431,11.788-10.645c2.458,3.985-0.856,34.447-6.932,43.907c-0.588,0.911-1.362,2.007-2.195,3.188
			c-1.146,1.627-2.165,3.1-3.043,4.457C68.256,114.359,68.274,102.474,69.784,83.651z M70.123,126.536
			c-0.255-1.49,3.684-7.078,5.579-9.766c0.865-1.227,1.666-2.362,2.275-3.307c0.144-0.221,0.243-0.246,0.389-0.256
			c1.499-0.177,4.943,2.502,7.592,5.274c-1.806,4.21-3.521,8.765-5.091,13.453C75.613,131.218,71.564,128.317,70.123,126.536z
			 M10.023,295.612c-0.122,0.061-0.402,0.17-0.984,0.264c-1.292,0.207-2.486,0.766-3.444,1.213
			c-0.181,0.084-0.388,0.183-0.585,0.271c-1.59-3.641-1.996-13.906-0.436-17.993c0.032,0.018,0.06,0.035,0.092,0.05
			c-0.402,2.375-0.561,4.751-0.352,7.115c0.271,2.936,1.074,5.82,2.471,8.374c-2.086-4.733-2.17-10.092-0.992-14.952
			c0.028,0.014,0.059,0.027,0.088,0.042c-0.669,4.719,1.348,11.028,3.293,14.061C9.796,295.026,9.937,295.528,10.023,295.612z
			 M9.552,276.417c-0.082,0.344-0.153,0.655-0.222,0.922c-1.144-0.177-3.393-1.157-4.282-1.867c0.543-1.394,2.862-4.761,5.247-7.829
			c0.215,0.145,0.417,0.303,0.638,0.418c-0.469,0.805-0.966,1.599-1.388,2.432c-0.651,1.409-1.457,2.875-1.418,4.471
			c0.202-1.554,1.193-2.833,2.036-4.101c0.582-0.813,1.232-1.572,1.865-2.341c0.087,0.031,0.181,0.087,0.267,0.112
			c0.01,0.003,0.029,0.007,0.041,0.01C10.758,271.364,10.031,274.4,9.552,276.417z M16.876,263.971
			c-0.744,1.865-1.516,1.823-3.552,1.216l-0.355-0.106c-0.663-0.189-1.7-1.062-1.79-1.624c-0.041-0.248,0.444-0.604,0.592-0.705
			c1.889-1.302,4.481-3.965,6.463-6.136c-1.186,2.522-2.702,4.912-4.86,6.754c1.822-1.181,3.315-2.836,4.598-4.604
			c0.907-1.268,1.682-2.618,2.399-4.009C19.467,257.201,17.904,261.404,16.876,263.971z M23.389,251.673
			c-1.795-0.017-2.541-0.766-2.848-1.377c1.909-2.245,3.087-5.064,3.753-7.046c0.04,0.02,0.081,0.035,0.122,0.056
			c-0.146,1.006-0.329,2.01-0.593,2.99c-0.427,1.505-0.965,3.036-2.052,4.226c1.262-1.017,2.065-2.509,2.73-3.982
			c0.233-0.533,0.426-1.079,0.622-1.623C24.955,248.163,23.976,250.569,23.389,251.673z M36.214,226.262
			c-2.176,4.874-3.895,8.723-4.774,11.39c-0.949,2.871-2.305,3.032-2.751,3.089c-2.263,0.307-5.681-2.28-7.143-4.572
			c-0.396-2.203,5.979-12.946,11.099-21.581c5.261-8.871,11.132-18.795,14.587-26.807c0.967,0.664,1.893,0.98,2.801,0.98
			c0.058,0,0.116-0.021,0.174-0.021C46.773,202.54,40.734,216.147,36.214,226.262z M53.47,183.658
			c-3.588,2.007-3.726,2.081-5.529-0.081c-0.135-0.159-0.166-0.545-0.085-1.034c0.754-4.6,9.799-14.988,21.462-23.896
			c-0.763,1.078-1.531,2.2-2.304,3.391c-2.029,2.006-4.102,3.971-6.056,6.048c-3.314,3.56-6.558,7.208-9.349,11.186
			c2.984-3.833,6.389-7.302,9.862-10.679c1.087-1.048,2.249-2.011,3.357-3.041c-1.396,2.348-2.783,4.906-4.142,7.644
			c-0.007,0.007-0.01,0.014-0.017,0.021c-2.483,2.723-5.031,5.416-7.965,7.675c2.56-1.719,4.862-3.785,7.105-5.904
			c-1.039,2.182-2.047,4.499-3.027,6.923C55.521,182.54,54.382,183.145,53.47,183.658z M75.97,360.944
			c-2.361-0.896-6.646-14.824-6.647-29.956c0.699,1.181,1.394,2.371,2.114,3.524c0.225,3.039,0.506,6.075,0.915,9.099
			c0.648,4.418,1.38,8.895,3.104,13.031c-1.496-4.217-1.978-8.688-2.386-13.112c-0.193-2.366-0.318-4.737-0.397-7.109
			c0.523,0.813,1.042,1.63,1.574,2.428c0.279,3.83,0.575,7.662,1.209,11.446c-0.204-3.253-0.155-6.508-0.069-9.766
			c0.791,1.152,1.585,2.298,2.392,3.416c0.23,2.579,0.441,5.158,0.483,7.748c0.258-2.123,0.4-4.255,0.517-6.392
			c0.314,0.425,0.634,0.837,0.952,1.258c0.112,3.542,0.056,7.105-0.344,10.646c0.667-3.084,1.054-6.214,1.309-9.369
			c0.381,0.499,0.759,1.004,1.144,1.493c-0.123,9.073-1.376,11.52-2.158,12.103c-0.562,0.427-1.574,0.159-3.165-0.322L75.97,360.944
			z M120.776,415.254c-0.672-0.679-1.41-1.283-2.158-1.866c-0.949-0.727-1.965-1.356-2.963-2.01
			c0.029-0.028,0.064-0.061,0.095-0.089c2.643,0.999,6.646,3.36,7.313,5.732c0.176,0.622,0.253,1.612-1.083,3.036
			c-1.212,1.297-2.305,1.937-3.303,1.859c-2.229-0.138-4.805-3.634-7.303-7.071c0.201-0.151,0.387-0.291,0.577-0.436
			c0.956,1.329,1.975,2.6,3.176,3.725c0.841,0.76,1.757,1.47,2.826,1.901c1.047,0.453,2.34,0.457,3.268-0.193
			c-1.002,0.543-2.186,0.392-3.113-0.133c-0.952-0.507-1.747-1.27-2.467-2.077c-1.048-1.212-1.912-2.583-2.7-3.981
			c0.654-0.507,1.259-0.987,1.782-1.434c1.177,0.563,2.365,1.109,3.49,1.768c0.802,0.471,1.592,0.966,2.32,1.538
			c0.653,0.576,1.592,1.206,1.476,2.184C122.256,416.716,121.363,415.925,120.776,415.254z M99.875,395.726
			c2.878,2.579,7.438,6.371,10.919,9.266c1.407,1.171,2.599,2.161,3.358,2.805c-1.266,1.529-5.277,4.435-6.707,5.47l-0.623,0.456
			c-2.015-1.35-7.174-8.119-11.548-14.623c0.278-0.162,0.581-0.349,0.891-0.545c1.501,2.594,3.196,5.064,5.123,7.352
			c0.959,1.156,1.914,2.324,3.002,3.373c1.086,1.052,2.139,2.151,3.442,3.013l0.327,0.219l0.262-0.173
			c1.146-0.741,2.235-1.54,3.012-2.737c0.365-0.585,0.576-1.456,0.162-2.106c-0.384-0.636-1.03-0.923-1.633-1.145
			c0.54,0.348,1.083,0.769,1.299,1.312c0.222,0.54-0.021,1.1-0.398,1.55c-0.669,0.821-1.645,1.451-2.618,1.966
			c-2.068-1.855-3.914-4.055-5.862-6.124c-1.951-2.225-3.988-4.386-6.109-6.505C97.362,397.794,98.734,396.816,99.875,395.726z
			 M96.445,389.558c0.817,0.856,1.727,1.81,2.082,2.259c-0.52,1.034-3.407,3.293-5.999,4.71c-2.975-2.518-13.5-19.421-15.077-31.475
			c0.495,0.1,0.994,0.187,1.501,0.187c0.342,0,0.684-0.077,1.024-0.145C84.386,376.825,92.444,385.364,96.445,389.558z
			 M91.185,352.345c0.154,0.101,0.308,0.217,0.461,0.315c0.13,0.21,0.264,0.419,0.396,0.629
			C91.757,352.977,91.471,352.66,91.185,352.345z M91.732,349.336c-0.734-1.265-1.458-2.538-2.133-3.824l-1.592,0.837
			c0.804,1.536,1.658,3.061,2.547,4.569l-0.299,0.399c-6.558-7.446-12.816-16.172-18.354-25.963
			c-0.007-0.018-0.015-0.036-0.023-0.053l-0.005,0.004c-0.302-0.538-0.609-1.064-0.907-1.607l0.252-0.094
			c-1.272-3.357-2.374-6.86-3.274-10.42l-1.743,0.443c0.146,0.572,0.327,1.13,0.481,1.699c-9.477-19.859-15.783-43.33-15.783-69.132
			c0-52.554,18.886-80.939,29.931-93.052c-1.058,2.116-2.071,4.238-2.984,6.364l1.656,0.709c1.412-3.296,3.018-6.609,4.771-9.846
			l-0.506-0.274c1.515-1.476,2.759-2.552,3.605-3.237c1.496,0.752,4.024,1.919,7.445,3.198c-0.43,0.71-0.886,1.405-1.294,2.123
			l1.563,0.886c0.459-0.805,0.967-1.589,1.453-2.383c0.579,0.204,1.155,0.408,1.775,0.611c-2.102,3.803-3.881,7.732-5.491,11.742
			c-1.947,4.923-3.607,9.959-4.928,15.08c-2.676,10.23-4.091,20.773-4.233,31.32c0.383-10.54,2.035-21.016,4.928-31.13
			c1.43-5.061,3.192-10.023,5.232-14.858c1.722-4.024,3.693-7.956,5.9-11.706c0.78,0.246,1.589,0.492,2.428,0.735
			c-2.27,4.013-4.171,8.17-5.877,12.419c-1.947,4.924-3.607,9.96-4.928,15.081c-2.676,10.23-4.091,20.772-4.233,31.319
			c0.383-10.54,2.035-21.016,4.928-31.129c1.43-5.062,3.192-10.023,5.232-14.859c1.831-4.277,3.92-8.47,6.308-12.427
			c0.637,0.175,1.302,0.348,1.973,0.521c-2.323,3.985-4.221,8.132-5.92,12.371c-1.808,4.586-3.348,9.27-4.575,14.036
			c-2.481,9.523-3.791,19.335-3.916,29.146c0.364-9.804,1.912-19.55,4.61-28.957c1.333-4.706,2.978-9.32,4.879-13.815
			c1.759-4.101,3.762-8.125,6.075-11.899c2.505,2.375,4.704,5.18,6.598,8.093c2.674,4.168,4.772,8.708,6.386,13.414
			c3.212,9.433,4.52,19.463,4.642,29.447c0.116-9.984-0.945-20.069-3.96-29.671c-1.51-4.79-3.528-9.443-6.154-13.762
			c-1.704-2.748-3.635-5.363-5.88-7.725c1.207,0.278,2.463,0.542,3.762,0.794c2.713,3.423,5.271,7.004,7.563,10.743
			c2.625,4.319,4.976,8.842,6.613,13.657c-1.409-4.888-3.556-9.545-5.995-14.019c-1.901-3.458-4.035-6.779-6.304-10.026
			c2.811,0.506,5.798,0.949,8.982,1.29c2.496,2.098,7.471,7.26,12.416,18.035v171.114c-1.982,3.694-5.792,6.179-10.57,6.791
			c-4.602,0.593-9.149-0.725-11.37-3.266l-1.265-1.435l-1.362,1.347c-0.116,0.116-1.242,1.196-3.159,2.095
			c-4.913-7.04-9.101-14.688-12.174-22.783c2.626,8.163,6.355,15.948,10.907,23.293c-0.608,0.21-1.272,0.387-1.988,0.513
			c-3.184-4.898-6.113-10.005-8.652-15.29c-2.729-5.788-5.132-11.815-6.136-18.187c0.767,6.407,2.952,12.563,5.482,18.485
			c2.274,5.218,4.918,10.254,7.827,15.167c-0.341,0.021-0.696,0.014-1.054,0.004c-2.991-3.377-5.525-7.278-7.689-11.302
			c-2.402-4.485-4.329-9.226-5.881-14.082c-3.077-9.734-4.488-19.975-4.627-30.208c-0.102,10.233,1.069,20.534,3.938,30.42
			c1.45,4.93,3.283,9.761,5.611,14.366c1.898,3.721,4.05,7.306,6.669,10.616c-0.642-0.116-1.301-0.264-1.986-0.485
			c-2.734-3.223-5.082-6.87-7.103-10.627c-2.402-4.485-4.33-9.226-5.881-14.082c-3.077-9.734-4.488-19.975-4.626-30.208
			c-0.102,10.233,1.068,20.534,3.938,30.42c1.449,4.93,3.282,9.761,5.61,14.366c1.592,3.123,3.372,6.143,5.441,8.995
			c-0.991-0.512-2.005-1.113-3.06-1.9L91.732,349.336z M104.858,365.487c2.635-2.156,6.451-2.839,10.762-1.831
			c5.975,1.389,11.268,5.673,12.301,9.956l1.348,5.57C121.82,377.138,113.385,372.449,104.858,365.487z M137.173,380.373
			c-1.937,0-3.998-0.255-6.146-0.733l0.438-6.326c0.006-0.077,0.602-7.83,5.708-7.83c5.071,0,5.704,7.757,5.711,7.834l0.464,6.315
			C141.19,380.115,139.117,380.373,137.173,380.373z M145.078,379.183l1.349-5.57c1.034-4.287,6.326-8.567,12.304-9.959
			c4.313-1.001,8.126-0.322,10.758,1.834C160.961,372.449,152.527,377.138,145.078,379.183z M179.25,356.52l-0.815-0.565
			c-1.149,1.665-2.375,3.299-3.641,4.911c-0.844,0.777-1.683,1.53-2.527,2.264c-3.517-3.216-8.639-4.315-14.352-2.979
			c-5.279,1.229-9.914,4.191-12.654,7.847c-1.312-3.153-3.797-6.112-8.088-6.112c-4.287,0-6.775,2.964-8.085,6.112
			c-2.742-3.652-7.374-6.618-12.652-7.847c-5.718-1.33-10.84-0.233-14.356,2.979c-0.839-0.73-1.675-1.476-2.511-2.248
			c-1.271-1.621-2.504-3.262-3.657-4.931l-0.817,0.566c-0.418-0.427-0.836-0.845-1.252-1.28l1.089-0.727
			c-0.024-0.039-0.047-0.077-0.072-0.116c8.122,3.587,14.444,0.284,17.113-1.624c2.639,2.185,6.512,3.426,10.642,3.426
			c0.875,0,1.761-0.056,2.646-0.168c5.007-0.643,9.189-2.987,11.913-6.522c2.724,3.535,6.905,5.88,11.914,6.522
			c0.889,0.112,1.771,0.168,2.646,0.168c4.129,0,8.007-1.241,10.642-3.426c2.671,1.904,8.99,5.208,17.111,1.624
			c-0.025,0.039-0.045,0.077-0.074,0.116l1.09,0.727C180.087,355.672,179.666,356.09,179.25,356.52z M182.3,353.294
			c0.135-0.212,0.267-0.424,0.401-0.634c0.147-0.099,0.306-0.211,0.457-0.312C182.873,352.664,182.589,352.979,182.3,353.294z
			 M187.577,401.348c-0.938,0.253-2.163-0.138-3.604-1.171c-1.589-1.132-1.708-2.119-1.657-2.762
			c0.189-2.454,3.646-5.563,6.043-7.06c0.279,0.174,0.585,0.354,0.9,0.537c-1.09,0.974-2.175,1.946-3.177,3.013
			c-0.647,0.695-1.276,1.412-1.827,2.191c-0.473,0.752-1.223,1.681-0.823,2.619c-0.273-0.945,0.556-1.72,1.104-2.395
			c0.626-0.682,1.325-1.3,2.038-1.895c1.251-1.025,2.58-1.963,3.918-2.862c0.427,0.222,0.873,0.45,1.351,0.685
			c-0.569,1.624-1.241,3.229-2.14,4.695c-0.578,0.914-1.237,1.795-2.096,2.448c-0.83,0.665-1.975,1.006-3.05,0.634
			c1.02,0.491,2.291,0.281,3.255-0.338c0.983-0.593,1.774-1.444,2.479-2.329c1.084-1.405,1.937-2.949,2.707-4.544
			c0.113,0.055,0.232,0.112,0.352,0.168C191.572,396.842,189.733,400.774,187.577,401.348z M197.588,390.983l-0.707-0.326
			c-1.605-0.735-6.104-2.794-7.644-4.042c0.619-0.779,1.592-1.988,2.742-3.412c2.843-3.521,6.563-8.136,8.883-11.234
			c1.688,1.071,3.711,1.895,5.174,2.406C203.028,381.607,199.299,389.266,197.588,390.983z M208.221,371.311
			c-2.817-0.878-6.085-2.522-6.806-3.433c0.271-0.542,0.966-1.639,1.592-2.626c3.092-4.892,9.305-14.83,11.33-27.179
			c0.864,0,1.694-0.244,2.474-0.569C217.63,349.631,210.639,368.258,208.221,371.311z M217.458,333.163l-0.506,0.27
			c-1.462,0.788-2.396,1.241-3.036,0.942c-0.878-0.415-2.575-2.544-4.47-11.312c0.386-0.745,0.759-1.508,1.139-2.26
			c0.829,3.553,1.827,7.056,3.155,10.441c-1.129-4-1.785-8.107-2.264-12.21c0.198-0.403,0.408-0.801,0.604-1.209
			c0.556,2.619,1.132,5.226,1.881,7.795c-0.482-3.268-0.707-6.564-0.939-9.854c0.543-1.164,1.094-2.319,1.614-3.507
			c0.744,3.818,1.479,7.649,1.865,11.526c0.019-4.653-0.449-9.293-0.864-13.928c0.348-0.822,0.697-1.644,1.034-2.477
			c0.448,3.104,0.843,6.217,1.095,9.343c0.311,4.429,0.56,8.921-0.234,13.324c1.029-4.361,1.029-8.898,0.952-13.362
			c-0.104-3.95-0.407-7.89-0.821-11.829c0.199-0.517,0.386-1.043,0.582-1.563C221.094,318.172,219.448,331.915,217.458,333.163z
			 M223.446,246.195c0,25.799-6.304,49.267-15.778,69.125c0.154-0.565,0.334-1.123,0.477-1.692l-1.743-0.443
			c-0.898,3.56-2.001,7.063-3.274,10.42l0.254,0.094c-0.299,0.543-0.604,1.069-0.907,1.607l-0.007-0.004
			c-0.008,0.021-0.019,0.039-0.024,0.056c-5.535,9.792-11.794,18.514-18.348,25.96l-0.303-0.403
			c0.892-1.505,1.743-3.029,2.548-4.565l-1.593-0.837c-0.675,1.286-1.398,2.556-2.132,3.82l-0.482-0.643
			c-0.99,0.742-1.948,1.312-2.882,1.807c2.039-2.823,3.799-5.813,5.374-8.901c2.329-4.605,4.159-9.437,5.612-14.366
			c2.866-9.886,4.037-20.187,3.936-30.42c-0.141,10.233-1.55,20.474-4.624,30.208c-1.554,4.856-3.479,9.597-5.885,14.082
			c-2.01,3.731-4.336,7.355-7.046,10.564c-0.698,0.231-1.374,0.406-2.027,0.525c2.615-3.303,4.758-6.88,6.655-10.594
			c2.327-4.605,4.161-9.437,5.608-14.366c2.869-9.886,4.043-20.187,3.937-30.42c-0.136,10.233-1.545,20.474-4.624,30.208
			c-1.554,4.856-3.479,9.597-5.883,14.082c-2.161,4.023-4.695,7.921-7.683,11.298c-0.361,0.014-0.724,0.029-1.064,0.011
			c2.91-4.917,5.557-9.957,7.833-15.178c2.531-5.923,4.716-12.078,5.483-18.485c-1.006,6.371-3.409,12.398-6.136,18.187
			c-2.546,5.292-5.477,10.405-8.667,15.312c-0.717-0.119-1.382-0.299-1.99-0.507c4.556-7.352,8.294-15.146,10.924-23.32
			c-3.08,8.107-7.274,15.771-12.201,22.821c-1.965-0.903-3.119-2.013-3.234-2.129l-1.364-1.37l-1.271,1.454
			c-2.222,2.544-6.798,3.869-11.365,3.266c-4.783-0.612-8.593-3.097-10.575-6.791V174.552c4.944-10.775,9.92-15.937,12.419-18.035
			c3.23-0.344,6.257-0.797,9.103-1.311c-2.273,3.251-4.411,6.582-6.322,10.047c-2.439,4.474-4.582,9.13-5.991,14.019
			c1.637-4.814,3.988-9.337,6.616-13.657c2.299-3.75,4.858-7.337,7.58-10.767c1.302-0.257,2.563-0.524,3.771-0.801
			c-2.26,2.372-4.196,4.997-5.911,7.756c-2.628,4.319-4.64,8.972-6.152,13.762c-3.016,9.602-4.074,19.687-3.962,29.671
			c0.126-9.984,1.432-20.014,4.646-29.447c1.609-4.705,3.707-9.246,6.382-13.414c1.891-2.913,4.091-5.718,6.6-8.093
			c2.313,3.774,4.315,7.798,6.073,11.899c1.901,4.496,3.545,9.109,4.877,13.815c2.7,9.407,4.245,19.153,4.611,28.957
			c-0.126-9.812-1.435-19.624-3.914-29.146c-1.228-4.766-2.77-9.45-4.576-14.036c-1.701-4.246-3.605-8.403-5.933-12.396
			c0.668-0.172,1.331-0.345,1.971-0.52c2.395,3.96,4.489,8.164,6.323,12.451c2.038,4.835,3.803,9.797,5.232,14.859
			c2.893,10.113,4.544,20.589,4.927,31.129c-0.143-10.547-1.557-21.089-4.233-31.319c-1.321-5.121-2.98-10.157-4.927-15.081
			c-1.713-4.259-3.614-8.423-5.895-12.448c0.84-0.243,1.649-0.488,2.428-0.734c2.216,3.757,4.19,7.7,5.918,11.734
			c2.039,4.835,3.804,9.798,5.229,14.858c2.896,10.114,4.548,20.59,4.927,31.13c-0.14-10.547-1.553-21.09-4.229-31.32
			c-1.322-5.12-2.981-10.156-4.928-15.08c-1.617-4.02-3.401-7.96-5.511-11.772c0.588-0.193,1.132-0.387,1.681-0.58
			c0.483,0.797,1.004,1.585,1.454,2.383l1.567-0.886c-0.403-0.709-0.865-1.413-1.297-2.123c3.428-1.283,5.956-2.449,7.454-3.202
			c0.563,0.457,1.315,1.093,2.2,1.894c0,0.007,0.007,0.014,0.007,0.018l0.007-0.003c0.437,0.397,0.903,0.836,1.401,1.322
			l-0.521,0.285c1.749,3.237,3.354,6.55,4.767,9.846l1.656-0.709c-0.927-2.158-1.961-4.319-3.036-6.466
			C204.497,165.063,223.446,193.381,223.446,246.195z M217.563,181.911c-1.025-2.537-2.08-4.944-3.17-7.215
			c2.341,2.224,4.745,4.396,7.422,6.196c-2.934-2.259-5.48-4.952-7.963-7.675c-0.154-0.168-0.287-0.352-0.435-0.521
			c-1.351-2.681-2.721-5.183-4.1-7.482c1.234,1.139,2.524,2.211,3.733,3.378c3.473,3.377,6.873,6.846,9.86,10.679
			c-2.789-3.978-6.037-7.625-9.347-11.186c-2.123-2.256-4.366-4.393-6.576-6.561c-0.656-1.001-1.312-1.961-1.965-2.882
			c11.668,8.909,20.714,19.297,21.47,23.901c0.08,0.489,0.045,0.875-0.081,1.034c-1.81,2.161-1.947,2.087-5.54,0.081
			C219.959,183.145,218.825,182.54,217.563,181.911z M245.661,240.74c-0.446-0.057-1.804-0.218-2.756-3.089
			c-0.878-2.663-2.598-6.516-4.772-11.386c-4.519-10.114-10.558-23.722-13.99-37.526c0.056,0,0.113,0.021,0.172,0.021
			c0.91,0,1.835-0.316,2.801-0.98c3.458,8.012,9.327,17.937,14.588,26.803c5.12,8.635,11.496,19.382,11.176,21.41
			C251.343,238.46,247.906,241.047,245.661,240.74z M250.963,251.673c-0.619-1.155-1.646-3.743-1.739-7.211
			c0.238,0.702,0.495,1.396,0.794,2.077c0.664,1.474,1.468,2.966,2.73,3.982c-1.09-1.189-1.624-2.721-2.052-4.226
			c-0.254-0.934-0.43-1.895-0.578-2.853c0.676,1.968,1.836,4.67,3.685,6.846C253.493,250.914,252.746,251.656,250.963,251.673z
			 M261.38,265.08l-0.359,0.106c-2.023,0.604-2.805,0.649-3.55-1.216c-1.04-2.608-2.642-6.905-3.538-9.33
			c0.045-0.019,0.08-0.051,0.122-0.067c0.739,1.457,1.547,2.866,2.492,4.191c1.283,1.769,2.775,3.424,4.602,4.604
			c-2.046-1.746-3.509-3.985-4.669-6.357c1.927,2.087,4.322,4.516,6.094,5.739c0.148,0.101,0.634,0.457,0.595,0.709
			C263.077,264.019,262.041,264.891,261.38,265.08z M264.795,276.426c-0.479-2.022-1.209-5.065-2.79-7.789
			c0.112-0.035,0.267-0.067,0.369-0.099c0.032-0.007,0.067-0.03,0.094-0.042c0.644,0.78,1.302,1.546,1.888,2.366
			c0.843,1.268,1.835,2.547,2.035,4.101c0.042-1.596-0.766-3.062-1.417-4.471c-0.432-0.846-0.931-1.655-1.412-2.474
			c0.176-0.096,0.341-0.228,0.514-0.344c2.371,3.053,4.677,6.395,5.223,7.79c-0.916,0.728-3.146,1.701-4.284,1.874
			C264.951,277.075,264.879,276.767,264.795,276.426z M269.336,297.359c-0.198-0.088-0.401-0.187-0.584-0.271
			c-0.959-0.447-2.149-1.006-3.444-1.213c-0.541-0.091-0.854-0.145-0.924-0.187c0.039-0.206,0.196-0.706,0.791-1.634
			c1.946-3.039,3.96-9.349,3.29-14.061c0.084-0.035,0.161-0.07,0.245-0.108c1.195,4.878,1.121,10.265-0.978,15.019
			c1.398-2.554,2.2-5.438,2.476-8.374c0.196-2.255,0.048-4.519-0.303-6.786C271.304,284.055,270.881,293.817,269.336,297.359z"/>
		<path fill="#020202" d="M209.189,275.152c0.306,3.654,0.46,7.32,0.46,10.944l1.8-0.046c0-3.627-0.154-7.345-0.468-11.046
			L209.189,275.152z"/>
		<path fill="#020202" d="M208.967,298.845l1.788,0.198c0.395-3.602,0.623-7.335,0.679-11.091l-1.799-0.029
			C209.579,291.624,209.353,295.3,208.967,298.845z"/>
		<path fill="#020202" d="M206.831,311.416l1.757,0.408c0.823-3.538,1.483-7.223,1.955-10.943l-1.785-0.226
			C208.292,304.314,207.645,307.934,206.831,311.416z"/>
		<path fill="#020202" d="M202.76,237.63l-0.065-0.01c-0.028-0.07-0.047-0.117-0.054-0.13l-0.203,0.084l-1.447-0.253l-0.112,0.614
			l0.101,0.243c0.015,0.035,1.557,3.795,3.314,10.037l1.736-0.485c-1.557-5.517-2.917-9.057-3.289-9.994L202.76,237.63z"/>
		<path fill="#020202" d="M210.816,273.156c-0.351-3.635-0.858-7.334-1.505-10.996l-1.771,0.309
			c0.637,3.621,1.136,7.274,1.484,10.863L210.816,273.156z"/>
		<path fill="#020202" d="M205.699,211.962l-1.8-0.071c-0.14,3.525-0.418,7.205-0.821,10.934l1.789,0.196
			C205.278,219.25,205.555,215.528,205.699,211.962z"/>
		<path fill="#020202" d="M201.299,235.515l1.775,0.302c0.653-3.872,1.17-7.457,1.583-10.96l-1.785-0.21
			C202.461,228.117,201.946,231.674,201.299,235.515z"/>
		<path fill="#020202" d="M204.02,206.1c0,1.325-0.019,2.643-0.058,3.964l1.801,0.048c0.038-1.335,0.056-2.674,0.056-4.013
			c0-2.386-0.064-4.772-0.187-7.089l-1.796,0.099C203.959,201.394,204.02,203.745,204.02,206.1z"/>
		<path fill="#020202" d="M202.171,184.613l1.771-0.316c-0.655-3.645-1.491-7.289-2.492-10.831l-1.733,0.492
			C200.702,177.441,201.532,181.025,202.171,184.613z"/>
		<path fill="#020202" d="M199.208,172.205l1.722-0.52c-1.052-3.504-2.303-7.025-3.715-10.469l-1.666,0.682
			C196.942,165.288,198.171,168.753,199.208,172.205z"/>
		<path fill="#020202" d="M203.724,197.286l1.799-0.119c-0.257-3.735-0.682-7.45-1.265-11.039l-1.778,0.289
			C203.056,189.952,203.474,193.61,203.724,197.286z"/>
		<path fill="#020202" d="M208.982,260.34c-0.69-3.641-1.515-7.281-2.463-10.824l-1.74,0.465c0.938,3.499,1.757,7.095,2.432,10.69
			L208.982,260.34z"/>
		<path fill="#020202" d="M131.259,201.31l-0.1,44.087l0.177,44.089c-0.007,14.697,0.119,29.397,0.344,44.095
			c0.338-14.697,0.553-29.395,0.615-44.091l0.302-44.093l-0.383-44.098c-0.031-7.341-0.47-14.784-2.199-21.975
			c-1.554-6.115-3.859-12.174-7.524-17.326c3.49,5.248,5.497,11.383,6.842,17.484C130.944,186.638,131.315,193.965,131.259,201.31z"
			/>
		<path fill="#020202" d="M126.586,216.394l-0.267,29.433l-0.148,29.438c-0.032,9.813,0.014,19.628,0.104,29.443
			c0.44-9.809,0.778-19.617,1.002-29.43l0.482-29.442c0.014-9.815,0.074-19.631-0.07-29.446c-0.232-9.805-0.173-19.659-1.414-29.412
			c0.518,4.878,0.359,9.798,0.381,14.7L126.586,216.394z"/>
		<path fill="#020202" d="M68.157,236.137l0.105-0.232l-0.049-0.228c-1.976-9.43-2.963-19.069-3.063-28.716
			c-0.069-9.629,0.621-19.357,3.169-28.715c-3.094,9.21-4.171,19.009-4.308,28.715c-0.072,9.651,0.833,19.325,2.776,28.793
			c-1.831,4.066-3.228,8.227-4.431,12.468c-1.212,4.319-2.174,8.709-2.798,13.15c-1.328,8.867-1.442,17.906-0.302,26.763
			c-0.646-8.901-0.132-17.842,1.36-26.593C62.172,252.827,64.494,244.138,68.157,236.137z"/>
		<path fill="#020202" d="M55.666,228.089c0.694-7.317,1.844-14.592,3.19-21.825c1.385-7.225,2.944-14.433,4.941-21.536
			c-2.5,6.948-4.443,14.097-6.022,21.318c-1.585,7.222-2.72,14.542-3.539,21.894c-0.701,7.366-1.088,14.774-0.851,22.175
			c0.22,7.397,1.031,14.781,2.573,22.004c-1.016-7.311-1.439-14.672-1.466-22.021C54.486,242.748,54.858,235.398,55.666,228.089z"/>
		<path fill="#020202" d="M58.84,244.497c0.181-3.897,0.396-7.795,0.757-11.682c0.539-7.794,1.43-15.557,2.049-23.38
			c-1.794,7.65-2.769,15.448-3.483,23.268c-0.492,7.813-0.864,15.763,0.585,23.514C58.594,252.296,58.663,248.398,58.84,244.497z"/>
		<path fill="#020202" d="M151.966,162.003c-3.663,5.147-5.975,11.207-7.525,17.321c-1.726,7.191-2.168,14.634-2.199,21.975
			l-0.383,44.098l0.302,44.093c0.063,14.696,0.277,29.394,0.618,44.091c0.225-14.697,0.345-29.397,0.338-44.095l0.18-44.089
			l-0.103-44.087c-0.049-7.345,0.324-14.672,1.93-21.827C146.468,173.381,148.48,167.25,151.966,162.003z"/>
		<path fill="#020202" d="M147.872,216.394l-0.066-14.715c0.02-4.902-0.142-9.822,0.376-14.7
			c-1.241,9.752-1.183,19.606-1.411,29.412c-0.146,9.815-0.087,19.63-0.071,29.446l0.479,29.442
			c0.226,9.813,0.563,19.621,1.003,29.43c0.094-9.815,0.136-19.631,0.104-29.443l-0.151-29.438L147.872,216.394z"/>
		<path fill="#020202" d="M206.244,235.677l-0.049,0.228l0.105,0.232c3.661,8.001,5.985,16.69,7.538,25.405
			c1.493,8.751,2.011,17.691,1.363,26.593c1.139-8.856,1.026-17.896-0.302-26.763c-0.626-4.441-1.589-8.831-2.798-13.15
			c-1.205-4.241-2.601-8.401-4.435-12.468c1.946-9.468,2.85-19.142,2.775-28.793c-0.133-9.706-1.212-19.505-4.309-28.715
			c2.553,9.358,3.241,19.086,3.17,28.715C209.206,216.607,208.218,226.247,206.244,235.677z"/>
		<path fill="#020202" d="M218.79,228.089c0.809,7.309,1.182,14.659,1.173,22.01c-0.023,7.349-0.448,14.71-1.464,22.021
			c1.538-7.223,2.354-14.606,2.572-22.004c0.239-7.4-0.147-14.809-0.851-22.175c-0.818-7.352-1.953-14.672-3.539-21.894
			c-1.578-7.222-3.521-14.37-6.02-21.318c1.996,7.103,3.557,14.311,4.94,21.536C216.945,213.498,218.097,220.772,218.79,228.089z"/>
		<path fill="#020202" d="M216.292,232.703c-0.71-7.819-1.688-15.617-3.479-23.268c0.617,7.823,1.506,15.586,2.045,23.38
			c0.364,3.887,0.576,7.784,0.759,11.682c0.175,3.901,0.245,7.799,0.091,11.72C217.155,248.466,216.783,240.516,216.292,232.703z"/>
		<path fill="#020202" d="M196.207,90.951c-0.889-6.059-1.584-12.146-1.696-18.257c1.573,0.945,3.11,1.996,4.494,3.208
			c1.634,1.417,3.209,3.083,3.749,5.258c-0.218-2.267-1.756-4.158-3.268-5.768c-1.599-1.595-3.37-2.965-5.286-4.192l-0.794-0.513
			l-0.036,0.984c-0.206,6.537,0.389,13.077,1.547,19.491c1.104,6.424,2.763,12.75,4.991,18.861
			C198.435,103.689,197.244,97.329,196.207,90.951z"/>
		<path fill="#020202" d="M197.064,78.872c-0.276,3.93,0.053,7.82,0.405,11.703c0.534,3.859,1.039,7.767,2.438,11.463
			c-0.219-3.918-0.64-7.752-1.013-11.625C198.375,86.564,197.971,82.702,197.064,78.872z"/>
		<path fill="#020202" d="M213.424,61.392c1.229-0.105,2.255,0.97,2.962,2.217c0.733,1.248,1.226,2.682,1.683,4.112
			c0.475,1.424,0.857,2.875,0.922,4.294c0.049,1.42-0.359,2.769-1.477,3.476c-1.139,0.695-2.71,0.742-4.174,0.573
			c-1.491-0.158-2.994-0.513-4.401-1.128c1.266,0.903,2.762,1.417,4.283,1.813c1.526,0.309,3.216,0.468,4.83-0.306
			c1.704-0.818,2.28-2.864,2.238-4.449c-0.025-1.658-0.408-3.216-0.858-4.713c-0.499-1.486-1.062-2.962-1.921-4.35
			c-0.434-0.689-0.932-1.368-1.631-1.915c-0.675-0.566-1.669-0.903-2.591-0.731c-1.827,0.376-2.943,1.652-3.972,2.798
			c-0.969,1.23-1.837,2.502-2.628,3.827c1.055-1.128,2.039-2.313,3.152-3.343C210.9,62.541,212.144,61.5,213.424,61.392z"/>
		<path fill="#020202" d="M216.699,74.036c1.013-1.704,0.629-3.799,0.138-5.549c-0.672-1.74-1.515-3.423-2.949-4.685
			c0.401,1.845,1.106,3.451,1.582,5.134C216.074,70.592,216.501,72.184,216.699,74.036z"/>
		<path fill="#020202" d="M196.358,118.58c1.398,1.431,2.484,3.265,4.035,4.825c-0.515-2.147-1.533-4.055-2.981-5.802
			c-0.772-0.735-1.833-1.736-3.286-1.518c-1.358,0.298-2.014,1.233-2.73,2.035c1.031-0.344,2.019-0.999,2.826-0.939
			C194.981,117.216,195.726,117.817,196.358,118.58z"/>
		<path fill="#020202" d="M193.919,129.815c1.672,0.284,3.282-0.19,4.794-0.844c1.419-0.791,2.889-1.954,3.253-3.655
			c-1.345,0.98-2.509,1.747-3.897,2.369C196.755,128.427,195.338,128.94,193.919,129.815z"/>
		<path fill="#020202" d="M75.515,75.27c1.385-1.212,2.918-2.264,4.493-3.208c-0.108,6.111-0.806,12.197-1.695,18.256
			c-1.036,6.379-2.229,12.74-3.703,19.072c2.227-6.111,3.888-12.437,4.993-18.86c1.16-6.414,1.754-12.954,1.545-19.491l-0.032-0.984
			l-0.797,0.513c-1.914,1.226-3.685,2.597-5.286,4.192c-1.51,1.609-3.047,3.5-3.265,5.767C72.309,78.352,73.883,76.686,75.515,75.27
			z"/>
		<path fill="#020202" d="M77.456,78.239c-0.907,3.831-1.313,7.693-1.833,11.541c-0.37,3.872-0.791,7.707-1.013,11.625
			c1.4-3.697,1.907-7.605,2.441-11.464C77.404,86.059,77.734,82.168,77.456,78.239z"/>
		<path fill="#020202" d="M61.231,59.652c-0.92-0.173-1.917,0.165-2.592,0.73c-0.699,0.548-1.2,1.227-1.63,1.916
			c-0.859,1.388-1.425,2.864-1.922,4.351c-0.452,1.497-0.833,3.054-0.86,4.712c-0.039,1.584,0.538,3.63,2.241,4.449
			c1.611,0.773,3.303,0.615,4.829,0.306c1.52-0.397,3.019-0.91,4.285-1.813c-1.405,0.615-2.91,0.97-4.402,1.127
			c-1.465,0.169-3.036,0.124-4.175-0.572c-1.116-0.706-1.523-2.056-1.476-3.476c0.062-1.419,0.447-2.871,0.923-4.294
			c0.457-1.43,0.949-2.864,1.682-4.112c0.705-1.248,1.732-2.323,2.964-2.217c1.275,0.109,2.521,1.149,3.58,2.175
			c1.116,1.029,2.1,2.214,3.154,3.342c-0.792-1.325-1.661-2.597-2.632-3.827C64.172,61.304,63.058,60.028,61.231,59.652z"/>
		<path fill="#020202" d="M57.822,73.403c0.196-1.852,0.624-3.443,1.227-5.099c0.476-1.684,1.184-3.289,1.585-5.134
			c-1.436,1.262-2.28,2.945-2.95,4.684C57.192,69.604,56.809,71.699,57.822,73.403z"/>
		<path fill="#020202" d="M80.298,116.548c0.81-0.06,1.796,0.594,2.827,0.939c-0.719-0.802-1.372-1.736-2.732-2.035
			c-1.452-0.218-2.513,0.784-3.288,1.518c-1.446,1.747-2.465,3.655-2.977,5.802c1.548-1.561,2.636-3.395,4.033-4.825
			C78.794,117.185,79.541,116.584,80.298,116.548z"/>
		<path fill="#020202" d="M72.555,124.685c0.363,1.7,1.833,2.864,3.251,3.655c1.512,0.653,3.122,1.128,4.797,0.843
			c-1.421-0.875-2.838-1.388-4.152-2.129C75.062,126.431,73.899,125.665,72.555,124.685z"/>
		<path fill="#020202" d="M145.435,78.148c2.816,1.153,5.381,2.91,7.838,4.835c-2.046-2.358-4.513-4.411-7.377-5.84
			c-2.847-1.452-6.118-2.116-9.341-1.968c-6.519,0.471-12.244,4.01-16.682,8.315c5.173-3.385,10.698-6.61,16.763-6.881
			C139.633,76.37,142.641,76.981,145.435,78.148z"/>
		<path fill="#020202" d="M128.532,81.356c3.322-0.829,6.538-1.637,9.825-1.545c3.29-0.092,6.503,0.717,9.824,1.545
			c-2.843-1.933-6.322-2.92-9.824-2.983C134.851,78.439,131.378,79.431,128.532,81.356z"/>
		<path fill="#020202" d="M111.333,103.641c1.139-0.91,1.859-2.222,2.32-3.563c0.337-1.378,0.475-2.851,0.031-4.25
			c-0.235-0.685-0.59-1.359-1.142-1.869c-0.566-0.479-1.354-0.72-2.005-0.577c1.358,0.344,1.92,1.536,2.076,2.699
			c0.154,1.184,0.056,2.438-0.341,3.588c-0.622,2.365-2.269,4.357-4.883,5.106C108.731,104.987,110.207,104.558,111.333,103.641z"/>
		<path fill="#020202" d="M160.856,101.146c0.655,1.237,1.477,2.499,2.791,3.258c1.3,0.809,3.058,0.667,4.104-0.225
			c-1.342,0.331-2.6,0.077-3.493-0.696c-0.903-0.751-1.613-1.799-2.101-2.948c-0.581-1.111-0.922-2.348-1.167-3.581
			c-0.131-0.622-0.196-1.255-0.148-1.873c0.014-0.625,0.142-1.245,0.676-1.698c-1.46,0.516-1.624,2.383-1.624,3.676
			C159.922,98.475,160.315,99.838,160.856,101.146z"/>
		<path fill="#020202" d="M111.031,99.694c0.253-0.794,0.499-1.602,0.471-2.463c-0.032-0.433-0.084-0.864-0.24-1.282
			c-0.186-0.401-0.511-0.847-0.91-0.918c0.422,0.742,0.196,1.375,0.051,2.092c-0.188,0.685-0.381,1.384-0.706,2.031
			c-0.222,0.688-0.567,1.322-0.91,1.954c-0.36,0.622-0.752,1.209-1.399,1.722c0.861,0.063,1.669-0.457,2.271-1.041
			C110.267,101.188,110.664,100.439,111.031,99.694z"/>
		<path fill="#020202" d="M164.609,102.14c0.401,0.243,0.858,0.44,1.357,0.482c0.502,0.018,1.022-0.201,1.251-0.583
			c-0.865,0.25-1.428-0.246-1.911-0.759c-0.481-0.537-0.936-1.149-1.237-1.838c-0.408-0.64-0.65-1.357-0.865-2.073
			c-0.203-0.728-0.313-1.473-0.183-2.338c-0.674,0.598-0.921,1.582-0.907,2.481c0,0.921,0.317,1.785,0.682,2.604
			C163.267,100.878,163.808,101.631,164.609,102.14z"/>
		<path fill="#020202" d="M135.674,148.448c-8.281-0.144-16.54-0.899-24.835-1.634c8.12,1.912,16.455,2.755,24.799,3.071
			c8.308,0.084,16.851-0.25,24.755-3.071c-4.078,0.854-8.195,1.296-12.321,1.515C143.946,148.542,139.806,148.606,135.674,148.448z"
			/>
		<path fill="#020202" d="M159.563,143.5c-3.942,0.815-7.921,1.24-11.912,1.447c-3.987,0.201-7.985,0.26-11.982,0.106
			c-8.001-0.133-15.979-0.865-23.998-1.553c7.847,1.866,15.899,2.685,23.963,2.991C143.664,146.568,151.927,146.245,159.563,143.5z"
			/>
		<path fill="#020202" d="M135.624,143.862c5.202,0.024,10.586-0.208,15.478-2.186c-5.151,0.801-10.283,0.931-15.442,0.748
			c-5.165-0.056-10.311-0.51-15.525-0.748C125.172,143.092,130.394,143.633,135.624,143.862z"/>
		<path fill="#020202" d="M135.659,139.536c-5.165-0.057-10.311-0.51-15.525-0.749c5.039,1.417,10.261,1.957,15.49,2.186
			c5.202,0.025,10.586-0.207,15.478-2.186C145.95,139.588,140.818,139.718,135.659,139.536z"/>
		<path fill="#020202" d="M151.101,133.009c-5.151,0.801-10.283,0.931-15.442,0.749c-5.165-0.056-10.311-0.509-15.525-0.749
			c5.039,1.417,10.261,1.958,15.49,2.187C140.826,135.22,146.209,134.988,151.101,133.009z"/>
		<path fill="#020202" d="M120.133,130.121c5.039,1.416,10.261,1.957,15.49,2.186c5.202,0.024,10.586-0.208,15.478-2.186
			c-5.151,0.801-10.283,0.931-15.442,0.748C130.494,130.813,125.348,130.359,120.133,130.121z"/>
		<path fill="#020202" d="M135.659,127.981c-5.165-0.056-10.311-0.51-15.525-0.749c5.039,1.417,10.261,1.957,15.49,2.186
			c5.202,0.025,10.586-0.207,15.478-2.186C145.95,128.033,140.818,128.163,135.659,127.981z"/>
		<path fill="#020202" d="M135.659,125.092c-5.165-0.056-10.311-0.51-15.525-0.748c5.039,1.416,10.261,1.957,15.49,2.186
			c5.202,0.024,10.586-0.208,15.478-2.186C145.95,125.145,140.818,125.275,135.659,125.092z"/>
		<path fill="#020202" d="M135.659,122.204c-5.165-0.057-10.311-0.51-15.525-0.749c5.039,1.417,10.261,1.957,15.49,2.187
			c5.202,0.024,10.586-0.208,15.478-2.187C145.95,122.255,140.818,122.386,135.659,122.204z"/>
		<path fill="#020202" d="M135.659,119.314c-5.165-0.057-10.311-0.51-15.525-0.748c5.039,1.416,10.261,1.957,15.49,2.186
			c5.202,0.024,10.586-0.208,15.478-2.186C145.95,119.367,140.818,119.497,135.659,119.314z"/>
		<path fill="#020202" d="M135.624,114.974c5.202,0.024,10.586-0.208,15.478-2.186c-5.151,0.801-10.283,0.931-15.442,0.748
			c-5.165-0.056-10.311-0.509-15.525-0.748C125.172,114.204,130.394,114.746,135.624,114.974z"/>
		<path fill="#020202" d="M128.468,107.169c2.63-0.745,5.314-1.272,8.026-1.265c2.707-0.119,5.409,0.288,8.034,1.016
			c2.637,0.709,5.158,1.841,7.654,3.104c-4.301-3.568-9.98-5.658-15.72-5.557c-2.856,0.116-5.696,0.654-8.343,1.656
			c-2.66,0.984-5.113,2.375-7.447,3.901C123.289,109.021,125.827,107.904,128.468,107.169z"/>
		<path fill="#020202" d="M137.234,107.581c-4.457,0.151-8.962,0.956-12.902,3.046c4.306-0.956,8.593-1.623,12.916-1.608
			c4.322-0.135,8.589,0.544,12.876,1.608C146.249,108.431,141.689,107.598,137.234,107.581z"/>
		<path fill="#020202" d="M126.711,111.404c3.396,0.59,6.789,0.625,10.185,0.706c3.395-0.092,6.79-0.13,10.182-0.735
			c-3.396-0.594-6.791-0.625-10.185-0.706C133.498,110.761,130.102,110.803,126.711,111.404z"/>
		<path fill="#020202" d="M34.794,214.078c-2.104,4.07-4.467,7.889-7.092,11.657c-1.264,1.908-2.608,3.764-3.724,5.81
			c-0.497,1.016-1.113,2.171-0.818,3.423c0.381,1.216,1.45,1.859,2.36,2.509c-0.851-0.721-1.831-1.512-2.04-2.579
			c-0.156-1.069,0.485-2.088,1.066-3.022c1.23-1.887,2.64-3.701,4.013-5.528c2.853-3.577,5.272-7.587,7.488-11.59
			c2.161-4.055,4.178-8.178,6.057-12.36c1.871-4.189,3.599-8.438,5.159-12.75l-6.176,12.265
			C39.037,205.998,36.989,210.082,34.794,214.078z"/>
		<path fill="#020202" d="M33.691,226.377c-1.3,3.008-2.559,6.031-3.972,9c1.936-2.678,3.461-5.616,4.976-8.533
			c1.499-2.928,2.843-5.929,4.224-8.909c2.574-6.045,5.119-12.103,7.094-18.395c-3.072,5.831-5.683,11.847-8.41,17.811
			L33.691,226.377z"/>
		<path fill="#020202" d="M27.253,235.599c-0.73,0.345-1.252,0.155-1.306-0.438c-0.165-1.308,0.794-2.748,1.796-4.042
			c1.861-2.766,4.008-5.511,5.124-8.785c-2.144,2.66-4.249,5.215-6.3,7.956c-0.855,1.388-2.207,2.994-1.685,5.162
			c0.154,0.513,0.627,1.079,1.251,1.167c0.608,0.092,1.1-0.158,1.489-0.421c0.72-0.616,1.189-1.375,1.495-2.169
			C28.536,234.665,27.954,235.282,27.253,235.599z"/>
		<path fill="#020202" d="M250.542,231.544c-1.118-2.045-2.46-3.901-3.727-5.81c-2.621-3.768-4.985-7.587-7.092-11.657
			c-2.192-3.996-4.241-8.08-6.29-12.167l-6.178-12.265c1.56,4.313,3.289,8.561,5.158,12.75c1.881,4.182,3.897,8.305,6.059,12.36
			c2.214,4.003,4.635,8.013,7.486,11.59c1.377,1.828,2.782,3.641,4.012,5.528c0.585,0.935,1.225,1.953,1.069,3.022
			c-0.211,1.067-1.188,1.858-2.038,2.579c0.907-0.649,1.975-1.293,2.357-2.509C251.656,233.715,251.041,232.56,250.542,231.544z"/>
		<path fill="#020202" d="M236.917,217.353c-2.727-5.964-5.338-11.98-8.409-17.811c1.975,6.292,4.519,12.349,7.091,18.395
			c1.386,2.98,2.728,5.981,4.226,8.909c1.518,2.917,3.043,5.855,4.976,8.533c-1.412-2.97-2.67-5.992-3.972-9L236.917,217.353z"/>
		<path fill="#020202" d="M249.635,235.451c0.522-2.168-0.829-3.774-1.684-5.162c-2.049-2.741-4.158-5.296-6.301-7.956
			c1.116,3.274,3.264,6.019,5.123,8.785c1.006,1.294,1.962,2.734,1.8,4.042c-0.057,0.594-0.577,0.783-1.308,0.438
			c-0.702-0.316-1.283-0.934-1.862-1.57c0.302,0.794,0.772,1.553,1.493,2.169c0.391,0.263,0.883,0.513,1.487,0.421
			C249.009,236.53,249.481,235.964,249.635,235.451z"/>
		<path fill="#020202" d="M85.396,384.216c1.332,2.445,2.552,4.94,4.184,7.26c0.93,1.17,1.648,2.196,2.882,3.195
			c0.337,0.26,0.965,0.252,1.271,0.01c0.327-0.203,0.59-0.435,0.852-0.668l1.558-1.384c-0.604,0.344-1.2,0.717-1.772,1.104
			c-0.577,0.372-1.2,0.822-1.543,0.401c-0.82-0.858-1.705-2.145-2.364-3.228c-1.312-2.387-2.595-4.847-3.793-7.337
			c-2.555-4.907-4.962-9.896-7.845-14.669C80.603,374.188,82.954,379.222,85.396,384.216z"/>
		<path fill="#020202" d="M97.13,391.278c-1.73-1.627-3.298-3.184-4.727-4.962c-1.534-1.683-2.854-3.528-4.481-5.271
			c0.596,2.338,1.919,4.341,3.388,6.203C92.9,388.984,94.767,390.678,97.13,391.278z"/>
		<path fill="#020202" d="M209.369,364.599c-0.387,0.997-0.964,2.222-1.505,3.039c-0.189,0.383-0.763,0.123-1.307-0.109
			c-0.542-0.241-1.097-0.467-1.659-0.663l1.489,0.975c0.254,0.161,0.503,0.325,0.813,0.46c0.29,0.168,0.853,0.084,1.109-0.19
			c0.931-1.022,1.388-1.968,2.024-3.093c1.079-2.171,1.754-4.445,2.549-6.684c1.354-4.547,2.638-9.109,3.319-13.834
			c-1.855,4.394-3.2,8.924-4.683,13.4C210.865,360.163,210.121,362.409,209.369,364.599z"/>
		<path fill="#020202" d="M208.629,360.877c0.932-2.035,1.701-4.164,1.701-6.444c-1.139,1.942-1.943,3.921-2.984,5.791
			c-0.913,1.943-1.998,3.706-3.2,5.604C206.202,364.785,207.548,362.813,208.629,360.877z"/>
		<path fill="#020202" d="M196.52,388.088c-0.967-0.271-1.954-0.633-2.713-1.223c-0.429-0.327-0.76-0.771-0.676-1.296
			c0.081-0.524,0.479-1.02,0.894-1.446c-0.499,0.317-1.034,0.704-1.258,1.357c-0.247,0.675,0.119,1.431,0.566,1.887
			c0.943,0.936,2.082,1.438,3.271,1.888l0.287,0.109l0.275-0.282c1.012-1.036,1.743-2.241,2.516-3.405
			c0.774-1.162,1.399-2.41,2.032-3.647c1.278-2.464,2.306-5.053,3.113-7.722c-1.524,2.338-2.952,4.695-4.271,7.104
			C199.212,383.656,197.997,386.001,196.52,388.088z"/>
		<path fill="#020202" d="M128.982,358.153c1.608-0.379,3.162-0.971,4.65-1.708c1.271-0.665,2.528-1.405,3.587-2.498
			c0.899,0.814,1.835,1.511,2.851,2.122c1.213,0.737,2.516,1.31,3.873,1.708c2.695,0.84,5.576,0.991,8.278,0.453
			c-2.754,0.011-5.457-0.443-7.938-1.427c-2.44-1.02-4.83-2.419-6.593-4.281l-0.521-0.544l-0.534,0.573
			c-1.99,2.129-5.004,3.576-7.96,4.467c-2.974,0.892-6.238,1.303-9.292,0.187C122.203,358.948,125.805,358.853,128.982,358.153z"/>
		<path fill="#020202" d="M155.916,358.055c-3.846,0.488-7.634,1.62-10.982,3.833c-2.115-1.904-4.976-3.151-7.9-2.988
			c-2.931,0.161-5.605,1.319-7.935,3.007c-3.708-2.189-7.743-3.707-11.98-4.312c-4.351-0.676-9.027,0.073-12.643,2.533
			c3.822-2.171,8.334-2.399,12.495-1.637c4.175,0.821,8.217,2.522,11.8,4.727l0.395,0.242l0.383-0.285
			c2.162-1.605,4.867-2.734,7.545-2.847c2.705-0.187,5.338,0.936,7.338,2.813l0.396,0.371l0.45-0.332
			c1.486-1.112,3.307-1.977,5.106-2.686c1.82-0.714,3.718-1.23,5.657-1.564c3.881-0.625,7.895-0.653,11.837,0
			C164.013,357.978,159.939,357.527,155.916,358.055z"/>
	</g>
</g>
</svg>
