<?xml version="1.0" encoding="utf-8"?>
<!-- Generator: Adobe Illustrator 16.0.0, SVG Export Plug-In . SVG Version: 6.00 Build 0)  -->
<!DOCTYPE svg PUBLIC "-//W3C//DTD SVG 1.1//EN" "http://www.w3.org/Graphics/SVG/1.1/DTD/svg11.dtd">
<svg version="1.1" id="Layer_1" xmlns="http://www.w3.org/2000/svg" xmlns:xlink="http://www.w3.org/1999/xlink" x="0px" y="0px"
	 width="595.279px" height="841.891px" viewBox="0 0 595.279 841.891" enable-background="new 0 0 595.279 841.891"
	 xml:space="preserve">
<g>
	<g>
		<path fill="#E75CFF" d="M19.347,399.515c1.785-6.101,3.125-12.352,5.506-18.305c5.507-14.287,13.691-27.085,21.877-39.884
			c20.983-32.74,45.092-62.951,73.963-89.292c7.888-7.292,16.668-13.691,25.002-20.537c0.744-0.595,1.638-1.19,2.828-2.083
			c-4.316-1.935-8.186-3.572-12.055-5.357c-17.114-7.441-34.08-14.882-51.194-22.174c-0.446-0.149-0.744-0.297-1.19-0.446
			c-3.721-1.637-4.911-3.721-3.869-6.548c1.19-2.976,3.721-3.72,7.59-2.083c20.537,8.929,41.223,17.858,61.76,26.788
			c1.786,0.744,3.572,1.488,5.655,2.381c0-4.167-0.744-8.185,0.149-11.608c1.041-3.87,3.273-7.59,5.655-10.864
			c1.339-1.786,1.488-2.977,0.595-4.911c-7.292-14.436-18.9-23.96-33.484-30.062c-11.161-4.763-23.067-6.548-35.121-6.846
			c-1.638,0-3.721-0.447-4.763-1.488c-0.893-1.042-1.339-3.274-0.893-4.762c0.595-2.232,2.529-3.125,4.911-2.977
			c12.203,0.297,24.108,1.786,35.717,5.804c18.751,6.399,32.591,18.454,41.669,36.014c1.042,1.935,2.084,2.381,4.316,2.083
			c4.167-0.446,8.482-0.149,13.096-0.149c2.53-4.018,5.209-8.929,8.632-13.394c11.905-16.222,28.573-24.853,47.92-28.425
			c6.846-1.339,13.989-1.786,20.983-2.53c3.423-0.298,5.805,1.637,5.953,4.464s-2.083,4.762-5.655,4.762
			c-15.626,0.298-30.657,3.572-44.199,11.757c-10.864,6.548-19.347,15.18-24.556,26.788c-0.446,1.042-0.744,2.679-0.148,3.274
			c5.804,6.548,7.44,14.138,5.655,22.918c7.292-3.125,14.138-6.102,21.132-9.078c15.478-6.697,30.955-13.394,46.432-20.09
			c1.042-0.447,2.382-1.191,3.274-0.893c1.637,0.595,3.869,1.488,4.167,2.828c0.446,1.488-0.446,3.72-1.19,5.208
			c-0.446,0.893-2.084,1.339-3.125,1.786c-20.091,8.78-40.182,17.412-60.272,26.192c-0.893,0.447-1.786,0.893-2.679,1.191
			c5.953,4.613,12.055,8.929,17.71,13.84c21.728,18.9,40.628,40.479,58.486,63.1c13.988,17.709,27.233,35.717,37.8,55.659
			c5.655,10.715,11.459,21.579,13.542,33.782c0.744,4.614,1.34,9.375,0.744,13.84c-1.19,10.566-8.036,16.222-19.049,16.668
			c-7.144,0.297-13.988-1.488-20.537-3.87c-4.762-1.637-9.524-3.571-14.138-5.506c-3.273-1.34-4.613-3.869-3.423-6.548
			s3.721-3.274,7.144-2.084c7.59,2.679,15.18,5.507,22.918,7.739c3.125,0.893,6.846,0.893,10.12,0.446
			c5.208-0.596,8.185-4.019,8.036-9.376c-0.149-4.613-0.744-9.227-2.084-13.691c-1.488-5.506-3.869-10.864-5.952-16.221
			c-0.446,0.149-0.744,0-0.894,0.149c-6.696,10.566-16.965,13.096-28.573,12.5c-12.203-0.595-23.514-4.167-34.823-8.631
			c-20.091-7.739-38.693-18.156-57.147-29.317c-1.041-0.596-2.083-1.191-3.423-1.935c-0.148,1.488-0.148,2.679-0.595,3.72
			c-1.042,2.53,0.297,3.869,2.232,5.208c16.37,11.459,33.633,21.579,51.343,30.806c4.762,2.53,9.524,4.911,14.286,7.292
			c3.274,1.637,4.316,4.167,2.977,6.697c-1.339,2.53-4.167,3.274-7.292,1.637c-21.728-10.715-42.86-22.62-62.951-36.163
			c-0.893-0.595-1.935-1.19-2.977-1.935c-1.041,3.721-1.935,7.144-3.125,10.566c-0.893,2.679-1.935,5.208-3.423,7.59
			c-4.315,6.548-11.607,6.846-15.626,0c-2.679-4.613-3.869-9.971-5.804-14.882c-0.298-0.893-0.446-1.786-0.744-3.125
			c-1.19,0.744-2.232,1.488-3.125,2.083c-30.509,20.388-62.653,37.503-96.733,51.045c-8.036,3.126-16.072,5.953-24.853,5.805
			c-10.418-0.298-17.858-5.061-19.645-15.329c0-0.297-0.298-0.595-0.446-0.744C19.347,406.51,19.347,403.087,19.347,399.515z
			 M37.205,376.597c-3.87,8.334-6.995,16.37-8.334,25.002c-1.786,11.161,4.167,17.114,15.18,14.882
			c4.613-0.893,9.227-2.083,13.691-3.869c35.865-13.691,69.499-31.848,101.347-53.575c3.571-2.53,4.018-4.911,1.785-8.632
			c-10.863,6.102-21.579,12.352-32.592,18.007c-17.858,9.227-36.014,17.709-56.254,20.537
			C58.635,391.032,45.836,390.139,37.205,376.597z M198.973,319.152c-0.298,0-0.447,0.148-0.744,0.148
			c-0.298,5.506-0.447,10.864-1.042,16.371c-0.298,2.976,0.595,4.464,3.125,5.804c5.357,2.977,10.417,6.25,15.775,9.375
			c18.007,10.269,36.461,19.942,56.402,26.044c9.078,2.679,18.305,4.762,27.829,2.827c4.613-1.042,9.376-2.381,11.161-7.59
			c2.084-6.399-2.083-18.602-7.738-22.918c0,0.595-0.148,1.339-0.148,1.935c-1.34,11.459-10.269,16.668-20.835,11.906
			c-3.125-1.339-5.804-3.423-8.632-5.506c-3.571-2.53-7.143-3.274-11.459-2.083c-11.905,3.572-19.793,0.297-25.746-10.864
			c-3.72-6.995-5.952-7.888-13.84-6.25c-6.697,1.488-12.353-0.298-16.52-5.804c-1.935-2.53-3.273-5.506-4.91-8.185
			C200.758,322.575,199.865,320.789,198.973,319.152z M158.791,319.599c-0.298,0-0.446-0.149-0.744-0.149
			c-1.19,2.381-2.381,4.762-3.572,7.144c-5.357,10.566-11.31,13.542-22.918,11.162c-4.465-0.893-7.59,0.297-9.971,4.315
			c-1.34,2.232-2.53,4.613-4.019,6.697c-5.208,6.995-12.798,9.971-20.835,7.144c-6.25-2.083-11.161-0.893-16.072,3.125
			c-2.977,2.381-6.399,4.315-9.822,5.655c-6.994,2.53-13.84-1.19-15.924-8.185c-0.744-2.381-1.041-4.911-1.637-8.036
			c-2.083,3.572-4.465,6.399-5.953,9.822c-4.018,9.822-2.083,19.347,11.311,21.579c7.144,1.191,14.287,0.447,21.133-1.637
			c28.425-8.037,54.021-22.025,78.874-37.8c0.744-0.447,1.34-1.786,1.34-2.679C159.684,331.504,159.089,325.551,158.791,319.599z
			 M164.893,219.591c4.613-1.042,9.078-2.976,13.542-2.976c4.614,0,9.078,1.935,13.691,2.976c2.084-5.357,0.149-11.756-4.91-15.626
			c-5.507-4.018-12.799-3.72-17.858,0.447C164.447,208.579,162.66,214.978,164.893,219.591z"/>
	</g>
</g>
<g>
	<g>
		<path fill="#E75CFF" d="M592.75,533.453c-0.446,4.167-0.744,8.334-1.19,12.501c-1.19,12.203-3.423,24.108-8.483,35.419
			c-7.59,16.966-20.834,26.49-38.99,29.913c-1.488,0.298-2.977,0.446-4.613,0.744c-1.488,0.298-2.977,0.446-5.209,0.744
			c1.042,0.595,1.488,1.041,2.083,1.19c6.251,2.827,11.608,6.846,16.222,11.757c8.334,9.078,11.013,19.644,7.59,31.252
			c-4.763,16.072-12.055,30.954-24.258,43.009c-9.375,9.376-20.537,15.031-33.931,15.924c-7.144,0.446-13.543-2.083-19.942-5.06
			c-9.375-4.315-17.709-9.971-25.15-17.114c-0.595-0.596-1.19-1.042-1.786-1.637c-6.846,5.357-13.691,5.357-20.537,0.148
			c-3.571,2.977-6.994,6.25-10.863,8.78c-5.804,3.869-11.905,7.292-18.156,10.417c-12.799,6.549-25.448,5.061-37.8-1.488
			c-11.311-5.804-19.794-14.732-25.896-25.597c-4.613-8.482-8.78-17.263-12.054-26.341c-4.763-13.395-0.149-27.086,11.905-36.907
			c4.019-3.274,8.482-5.805,12.947-8.632c-3.274-0.596-6.846-1.042-10.269-1.637c-22.323-4.465-35.271-18.454-41.521-39.735
			c-3.125-10.864-4.911-22.174-5.209-33.484c-0.298-11.162-0.446-22.472,0.149-33.782c0.446-7.292,1.637-14.584,3.72-21.43
			c4.763-16.966,21.877-26.044,39.735-21.729c15.328,3.721,28.275,11.757,40.33,21.579c19.941,16.37,36.015,36.163,50.599,57.296
			c1.488,2.083,2.977,4.315,4.465,6.399c0.148,0.148,0.298,0.298,0.595,0.446c-2.529-11.459-6.398-22.174-11.161-32.74
			c-8.78-19.347-19.941-37.205-32.889-54.022c-0.298-0.446-0.744-0.893-1.042-1.339c-2.084-2.827-1.935-5.507,0.298-7.441
			c2.381-1.935,5.357-1.637,7.44,1.34c6.251,8.632,12.649,17.114,18.454,26.192c11.013,17.263,19.941,35.419,25.895,55.063
			c0.148,0.298,0.298,0.595,0.595,1.339c1.638-4.613,2.977-8.631,4.465-12.798c9.524-25.3,23.365-48.069,40.033-69.351
			c0.148-0.148,0.297-0.298,0.446-0.446c2.381-2.828,5.208-3.274,7.59-1.488c2.381,1.935,2.381,4.613,0.298,7.59
			c-6.103,8.78-12.65,17.263-18.306,26.192c-11.459,18.156-20.686,37.205-25.895,58.188c-0.148,0.893-0.298,1.786,0,2.827
			c3.423-4.762,6.697-9.524,10.12-14.286c13.096-18.008,27.383-34.973,44.795-49.11c11.311-9.228,23.662-16.668,37.8-20.984
			c20.389-6.25,39.884,5.061,43.753,26.192c1.042,5.805,1.638,11.608,2.382,17.412c0.148,0.893,0.297,1.935,0.595,2.828
			C592.75,516.487,592.75,524.971,592.75,533.453z M440.209,627.21c0,17.263,0,34.526,0,51.938c0,1.191,0,2.382,0.149,3.423
			c0.446,2.53,2.083,3.87,4.613,3.87s4.167-1.34,4.613-3.87c0.148-1.19,0.148-2.231,0.148-3.423c0-34.526,0-69.052,0-103.43
			c0-0.893,0-1.935-0.148-2.827c-0.298-2.679-2.232-4.316-4.911-4.316c-3.125,0-4.613,2.084-4.613,5.953
			C440.209,591.939,440.209,609.648,440.209,627.21z"/>
	</g>
</g>
</svg>
