<?xml version="1.0" encoding="utf-8"?>
<!-- Generator: Adobe Illustrator 25.0.0, SVG Export Plug-In . SVG Version: 6.00 Build 0)  -->
<svg version="1.1" id="Layer_1" xmlns="http://www.w3.org/2000/svg" xmlns:xlink="http://www.w3.org/1999/xlink" x="0px" y="0px"
	 viewBox="0 0 400 400" style="enable-background:new 0 0 400 400;" xml:space="preserve">
<g>
	<g>
		<path d="M13,185.6c1.2-4.1,2.1-8.3,3.7-12.3c3.7-9.6,9.2-18.2,14.7-26.8c14.1-22,30.3-42.3,49.7-60c5.3-4.9,11.2-9.2,16.8-13.8
			c0.5-0.4,1.1-0.8,1.9-1.4c-2.9-1.3-5.5-2.4-8.1-3.6c-11.5-5-22.9-10-34.4-14.9c-0.3-0.1-0.5-0.2-0.8-0.3c-2.5-1.1-3.3-2.5-2.6-4.4
			c0.8-2,2.5-2.5,5.1-1.4c13.8,6,27.7,12,41.5,18c1.2,0.5,2.4,1,3.8,1.6c0-2.8-0.5-5.5,0.1-7.8c0.7-2.6,2.2-5.1,3.8-7.3
			c0.9-1.2,1-2,0.4-3.3c-4.9-9.7-12.7-16.1-22.5-20.2c-7.5-3.2-15.5-4.4-23.6-4.6c-1.1,0-2.5-0.3-3.2-1c-0.6-0.7-0.9-2.2-0.6-3.2
			c0.4-1.5,1.7-2.1,3.3-2c8.2,0.2,16.2,1.2,24,3.9c12.6,4.3,21.9,12.4,28,24.2c0.7,1.3,1.4,1.6,2.9,1.4c2.8-0.3,5.7-0.1,8.8-0.1
			c1.7-2.7,3.5-6,5.8-9c8-10.9,19.2-16.7,32.2-19.1c4.6-0.9,9.4-1.2,14.1-1.7c2.3-0.2,3.9,1.1,4,3c0.1,1.9-1.4,3.2-3.8,3.2
			c-10.5,0.2-20.6,2.4-29.7,7.9c-7.3,4.4-13,10.2-16.5,18c-0.3,0.7-0.5,1.8-0.1,2.2c3.9,4.4,5,9.5,3.8,15.4
			c4.9-2.1,9.5-4.1,14.2-6.1c10.4-4.5,20.8-9,31.2-13.5c0.7-0.3,1.6-0.8,2.2-0.6c1.1,0.4,2.6,1,2.8,1.9c0.3,1-0.3,2.5-0.8,3.5
			c-0.3,0.6-1.4,0.9-2.1,1.2c-13.5,5.9-27,11.7-40.5,17.6c-0.6,0.3-1.2,0.6-1.8,0.8c4,3.1,8.1,6,11.9,9.3
			c14.6,12.7,27.3,27.2,39.3,42.4c9.4,11.9,18.3,24,25.4,37.4c3.8,7.2,7.7,14.5,9.1,22.7c0.5,3.1,0.9,6.3,0.5,9.3
			c-0.8,7.1-5.4,10.9-12.8,11.2c-4.8,0.2-9.4-1-13.8-2.6c-3.2-1.1-6.4-2.4-9.5-3.7c-2.2-0.9-3.1-2.6-2.3-4.4
			c0.8-1.8,2.5-2.2,4.8-1.4c5.1,1.8,10.2,3.7,15.4,5.2c2.1,0.6,4.6,0.6,6.8,0.3c3.5-0.4,5.5-2.7,5.4-6.3c-0.1-3.1-0.5-6.2-1.4-9.2
			c-1-3.7-2.6-7.3-4-10.9c-0.3,0.1-0.5,0-0.6,0.1c-4.5,7.1-11.4,8.8-19.2,8.4c-8.2-0.4-15.8-2.8-23.4-5.8
			c-13.5-5.2-26-12.2-38.4-19.7c-0.7-0.4-1.4-0.8-2.3-1.3c-0.1,1-0.1,1.8-0.4,2.5c-0.7,1.7,0.2,2.6,1.5,3.5
			c11,7.7,22.6,14.5,34.5,20.7c3.2,1.7,6.4,3.3,9.6,4.9c2.2,1.1,2.9,2.8,2,4.5c-0.9,1.7-2.8,2.2-4.9,1.1
			c-14.6-7.2-28.8-15.2-42.3-24.3c-0.6-0.4-1.3-0.8-2-1.3c-0.7,2.5-1.3,4.8-2.1,7.1c-0.6,1.8-1.3,3.5-2.3,5.1
			c-2.9,4.4-7.8,4.6-10.5,0c-1.8-3.1-2.6-6.7-3.9-10c-0.2-0.6-0.3-1.2-0.5-2.1c-0.8,0.5-1.5,1-2.1,1.4c-20.5,13.7-42.1,25.2-65,34.3
			c-5.4,2.1-10.8,4-16.7,3.9c-7-0.2-12-3.4-13.2-10.3c0-0.2-0.2-0.4-0.3-0.5C13,190.3,13,188,13,185.6z M120,173
			c0.6-1.6,1-2.6,1.4-3.6c2.8-8.2,3.9-16.6,4.7-25.1c1-11.1,1.3-22.3-0.1-33.3c-0.7-5.3,0.1-9.9,3.2-14.4c4.5-6.5,4.1-16.5-0.7-22.8
			c-1.3-1.7-3.3-3.3-5.3-4.2c-4.5-1.9-9.4,0.2-12.3,5.2c-1.2,1.9-1.8,4.2-2.6,6.3c-0.7,1.8-2,2.8-3.6,2.5c-1.8-0.3-2.8-1.7-2.6-3.7
			c0.1-0.8,0.2-1.5,0.4-2.9c-25.3,18.8-44.6,42.4-61.9,66.8c0.8,3.6,1.4,6.6,2,9.5c0.7,2.8,2.2,3.6,4.7,2.2c1.7-0.9,3.3-2.1,4.8-3.3
			c3.9-2.8,8.1-3.9,12.8-2.4c5.5,1.7,7.5,0.8,10.3-4.3c3.7-6.9,8.2-9,15.9-7.2c2.4,0.6,4.3-0.1,5.6-2.1c1.1-1.7,1.9-3.5,2.8-5.3
			c1.4-2.6,2.9-5.1,5.8-6.3c1.1-0.5,1.3-1.1,1.4-2.2c0.3-4.6,0.7-9.3,1.1-13.9c0.2-2.5,0-4.8-1.6-6.9c-0.7-1-1.4-2.1-1.9-3.2
			c-0.8-1.6-0.3-3.4,1.1-4.2c1.5-0.9,3.2-0.5,4.3,1.1c0.8,1.1,1.5,2.3,2.2,3.5c1.7,2.7,2.5,5.7,2.1,8.9c-0.4,3.4-0.7,6.8-0.9,10.2
			c-0.8,12.9,0.2,25.7,2.1,38.5C116.2,161.7,117.3,167.2,120,173z M137.4,76.9c0.1,0.8,0.1,1.2,0.2,1.5c2,8.4,0.8,16.2-4.3,23.4
			c-0.9,1.2-1.4,3-1.3,4.5c0.2,5.4,0.7,10.8,1.2,16.2c0.1,0.6,0.5,1.3,1,1.6c3,1.3,4.7,3.8,6.2,6.5c0.9,1.8,1.8,3.6,2.8,5.3
			c1.5,2.3,3,2.6,5.7,2.2c2.3-0.3,4.7-0.6,7-0.3c4.5,0.7,7,4.1,9,7.9c2.4,4.6,4.8,5.5,9.7,4c3.7-1.2,7.3-1.1,10.7,0.8
			c2.1,1.2,4,2.7,6.1,4.1c3.8,2.4,5.7,1.5,6.3-3c0.4-2.5,1-4.9,1.7-7.9C182,119.2,162.8,95.5,137.4,76.9z M25,170.2
			c-2.6,5.6-4.7,11-5.6,16.8c-1.2,7.5,2.8,11.5,10.2,10c3.1-0.6,6.2-1.4,9.2-2.6c24.1-9.2,46.7-21.4,68.1-36
			c2.4-1.7,2.7-3.3,1.2-5.8c-7.3,4.1-14.5,8.3-21.9,12.1c-12,6.2-24.2,11.9-37.8,13.8C39.4,179.9,30.8,179.3,25,170.2z M133.7,131.6
			c-0.2,0-0.3,0.1-0.5,0.1c-0.2,3.7-0.3,7.3-0.7,11c-0.2,2,0.4,3,2.1,3.9c3.6,2,7,4.2,10.6,6.3c12.1,6.9,24.5,13.4,37.9,17.5
			c6.1,1.8,12.3,3.2,18.7,1.9c3.1-0.7,6.3-1.6,7.5-5.1c1.4-4.3-1.4-12.5-5.2-15.4c0,0.4-0.1,0.9-0.1,1.3c-0.9,7.7-6.9,11.2-14,8
			c-2.1-0.9-3.9-2.3-5.8-3.7c-2.4-1.7-4.8-2.2-7.7-1.4c-8,2.4-13.3,0.2-17.3-7.3c-2.5-4.7-4-5.3-9.3-4.2c-4.5,1-8.3-0.2-11.1-3.9
			c-1.3-1.7-2.2-3.7-3.3-5.5C134.9,133.9,134.3,132.7,133.7,131.6z M106.7,131.9c-0.2,0-0.3-0.1-0.5-0.1c-0.8,1.6-1.6,3.2-2.4,4.8
			c-3.6,7.1-7.6,9.1-15.4,7.5c-3-0.6-5.1,0.2-6.7,2.9c-0.9,1.5-1.7,3.1-2.7,4.5c-3.5,4.7-8.6,6.7-14,4.8c-4.2-1.4-7.5-0.6-10.8,2.1
			c-2,1.6-4.3,2.9-6.6,3.8c-4.7,1.7-9.3-0.8-10.7-5.5c-0.5-1.6-0.7-3.3-1.1-5.4c-1.4,2.4-3,4.3-4,6.6c-2.7,6.6-1.4,13,7.6,14.5
			c4.8,0.8,9.6,0.3,14.2-1.1c19.1-5.4,36.3-14.8,53-25.4c0.5-0.3,0.9-1.2,0.9-1.8C107.3,139.9,106.9,135.9,106.7,131.9z M110.8,64.7
			c3.1-0.7,6.1-2,9.1-2c3.1,0,6.1,1.3,9.2,2c1.4-3.6,0.1-7.9-3.3-10.5c-3.7-2.7-8.6-2.5-12,0.3C110.5,57.3,109.3,61.6,110.8,64.7z"
			/>
	</g>
</g>
<g>
	<g>
		<path d="M398.3,275.6c-0.3,2.8-0.5,5.6-0.8,8.4c-0.8,8.2-2.3,16.2-5.7,23.8c-5.1,11.4-14,17.8-26.2,20.1c-1,0.2-2,0.3-3.1,0.5
			c-1,0.2-2,0.3-3.5,0.5c0.7,0.4,1,0.7,1.4,0.8c4.2,1.9,7.8,4.6,10.9,7.9c5.6,6.1,7.4,13.2,5.1,21c-3.2,10.8-8.1,20.8-16.3,28.9
			c-6.3,6.3-13.8,10.1-22.8,10.7c-4.8,0.3-9.1-1.4-13.4-3.4c-6.3-2.9-11.9-6.7-16.9-11.5c-0.4-0.4-0.8-0.7-1.2-1.1
			c-4.6,3.6-9.2,3.6-13.8,0.1c-2.4,2-4.7,4.2-7.3,5.9c-3.9,2.6-8,4.9-12.2,7c-8.6,4.4-17.1,3.4-25.4-1c-7.6-3.9-13.3-9.9-17.4-17.2
			c-3.1-5.7-5.9-11.6-8.1-17.7c-3.2-9-0.1-18.2,8-24.8c2.7-2.2,5.7-3.9,8.7-5.8c-2.2-0.4-4.6-0.7-6.9-1.1c-15-3-23.7-12.4-27.9-26.7
			c-2.1-7.3-3.3-14.9-3.5-22.5c-0.2-7.5-0.3-15.1,0.1-22.7c0.3-4.9,1.1-9.8,2.5-14.4c3.2-11.4,14.7-17.5,26.7-14.6
			c10.3,2.5,19,7.9,27.1,14.5c13.4,11,24.2,24.3,34,38.5c1,1.4,2,2.9,3,4.3c0.1,0.1,0.2,0.2,0.4,0.3c-1.7-7.7-4.3-14.9-7.5-22
			c-5.9-13-13.4-25-22.1-36.3c-0.2-0.3-0.5-0.6-0.7-0.9c-1.4-1.9-1.3-3.7,0.2-5c1.6-1.3,3.6-1.1,5,0.9c4.2,5.8,8.5,11.5,12.4,17.6
			c7.4,11.6,13.4,23.8,17.4,37c0.1,0.2,0.2,0.4,0.4,0.9c1.1-3.1,2-5.8,3-8.6c6.4-17,15.7-32.3,26.9-46.6c0.1-0.1,0.2-0.2,0.3-0.3
			c1.6-1.9,3.5-2.2,5.1-1c1.6,1.3,1.6,3.1,0.2,5.1c-4.1,5.9-8.5,11.6-12.3,17.6c-7.7,12.2-13.9,25-17.4,39.1c-0.1,0.6-0.2,1.2,0,1.9
			c2.3-3.2,4.5-6.4,6.8-9.6c8.8-12.1,18.4-23.5,30.1-33c7.6-6.2,15.9-11.2,25.4-14.1c13.7-4.2,26.8,3.4,29.4,17.6
			c0.7,3.9,1.1,7.8,1.6,11.7c0.1,0.6,0.2,1.3,0.4,1.9C398.3,264.2,398.3,269.9,398.3,275.6z M305.6,294.9c2.9,2.7,3.4,6.1,3.4,9.7
			c0,23.1,0,46.3,0,69.4c0,1,0.5,2.3,1.2,3c5.3,5.6,11.6,9.9,18.8,12.6c2.4,0.9,5.1,1.8,7.6,1.8c6.2,0.1,11.7-2.6,16.4-6.5
			c9-7.5,13.7-17.7,17.3-28.6c0.3-1,0.4-2.2,0.4-3.3c0.1-5.9-2.6-10.4-7.2-13.8c-5.6-4.2-12.1-6.3-18.8-7.8c-4.1-0.9-8.3-1.4-12.4-2
			c-2.1-0.3-3.5-1.6-3.4-3.5c0-1.9,1.3-3.2,3.5-3.3c1.3-0.1,2.6,0,3.9,0c8.6-0.3,17.3-0.3,25.9-1.1c7.7-0.7,14.6-3.7,19.6-10.1
			c3.4-4.3,5.5-9.3,6.8-14.6c2.8-11.6,3.3-23.4,2.9-35.2c-0.2-6.1-0.8-12.2-2.5-18.2c-2.2-7.6-9.8-12.1-17.5-10.5
			c-8.7,1.8-16.3,6.1-23.2,11.5C330.7,258.4,317.8,276.2,305.6,294.9z M292.4,294.9c-2.6-3.9-5.1-7.7-7.7-11.4
			c-9.1-13.1-19.1-25.6-31.4-35.9c-7.9-6.7-16.5-12.2-26.8-14.4c-7.4-1.6-15.1,2.7-17.3,9.9c-1,3.4-1.8,7-2,10.6
			c-0.4,7.9-0.6,15.7-0.4,23.6c0.2,7.5,1.2,15,3.4,22.3c3,9.6,8.3,17.4,18.4,20.3c5,1.5,10.2,2.2,15.4,2.5
			c7.1,0.4,14.2,0.2,21.3,0.3c2.4,0,3.8,1.2,3.9,3.2c0.1,2.1-1.3,3.3-3.7,3.6c-4.1,0.6-8.2,1.1-12.2,2c-6.8,1.5-13.4,3.8-19.1,8.1
			c-6,4.6-8.3,11.3-6.1,18c2,6.1,4.6,12.1,8.2,17.5c3.7,5.7,8.3,10.6,14.5,13.7c5.4,2.6,10.9,3.9,16.8,1.6
			c7.7-3.1,14.5-7.3,20.3-13.2c0.9-1,1.3-1.9,1.3-3.2c0-23.1,0-46.3-0.1-69.4C289,300.9,289.5,297.6,292.4,294.9z M295.8,338.6
			c0,11.6,0,23.2,0,34.9c0,0.8,0,1.6,0.1,2.3c0.3,1.7,1.4,2.6,3.1,2.6c1.7,0,2.8-0.9,3.1-2.6c0.1-0.8,0.1-1.5,0.1-2.3
			c0-23.2,0-46.4,0-69.5c0-0.6,0-1.3-0.1-1.9c-0.2-1.8-1.5-2.9-3.3-2.9c-2.1,0-3.1,1.4-3.1,4C295.8,314.9,295.8,326.8,295.8,338.6z"
			/>
	</g>
</g>
</svg>
