<?xml version="1.0" encoding="utf-8"?>
<!-- Generator: Adobe Illustrator 25.0.0, SVG Export Plug-In . SVG Version: 6.00 Build 0)  -->
<svg version="1.1" id="Layer_1" xmlns="http://www.w3.org/2000/svg" xmlns:xlink="http://www.w3.org/1999/xlink" x="0px" y="0px"
	 viewBox="0 0 400 400" style="enable-background:new 0 0 400 400;" xml:space="preserve">
<style type="text/css">
	.st0{stroke:#000000;stroke-width:15;stroke-linecap:round;stroke-linejoin:round;stroke-miterlimit:10;}
</style>
<path class="st0" d="M-164.3,299.8"/>
<g>
	<g>
		<path d="M173.3,220.4c-1.1,10.1-5.9,17.8-15.1,22.3c-7,3.4-14.5,2.2-20.1-3.2c-1.4-1.3-2.6-1.7-4.4-1.2c-1.7,0.5-3.4,1-5.1,1.1
			c-2.4,0.2-4-1-4.5-3.3c-0.5-2.3,0.5-4.1,2.7-5c1.4-0.6,2.9-0.9,5.1-1.5c-1.4-1-2.4-1.8-3.5-2.5c-2.6-1.9-3.3-4.1-2-6.4
			c1.3-2.2,3.5-2.6,6.5-1.3c0.3,0.1,0.5,0.2,1.2,0.4c-0.6-1.8-1.2-3.3-1.7-4.9c-0.8-2.6,0.2-5,2.6-5.8c2.6-0.9,4.5,0.3,5.5,2.7
			c1.3,3,2.4,6.1,3.6,9.2c3.1-1.1,3.6-3.7,4-6c0.6-3.7,0.7-7.4,1.2-11.1c1.8-12.6,9.3-17.7,21.7-14.8c2.2,0.5,4.4,1.2,6.8,1.9
			c2.5-12.2,6.9-23.5,13.7-34.5c-2.4-1.4-4.5-3.3-6.9-3.9c-14.1-3.9-19.9-14.6-22.6-27.7c-0.6-2.8-1.8-4.9-4-6.7
			c-2.8-2.3-5.4-4.8-8.1-7.3c-2.2-2-2.5-4.7-0.8-6.6c1.7-1.9,4.3-1.9,6.6,0c2.1,1.8,4.1,3.7,6.7,5.4c-0.6-1.7-1.3-3.5-1.9-5.2
			c-1-2.9,0-5.1,2.6-6c2.4-0.9,4.4,0.2,5.6,3c0.5,1.1,0.9,2.3,1.3,3.5c0.4,1.1,0.8,2.1,1.7,4.1c1-4.4,1.7-7.9,2.6-11.5
			c0.3-1.2,0.6-2.8,1.5-3.3c1.5-0.7,3.8-1.5,5-0.8c1.2,0.6,2.4,3,2.2,4.5c-0.6,4.8-1.8,9.5-2.9,14.3c-0.9,4.2,4.2,13.3,8.3,14.4
			c1.1,0.3,2.4,0,3.5-0.4c2.8-1,5.6-2.3,8.3-3.4c6.4-2.5,11.9-1.1,16.2,4.1c1.8,2.1,3.3,2.4,5.4,0.7c0.9-0.7,1.9-1.2,3-1.7
			c3.2-1.6,4.9-4.2,4.9-7.7c-0.1-4.7-0.3-9.3-0.9-13.9c-0.8-7-0.2-13.8,2-20.5c0.4-1.2,0.6-2.6,0.7-3.9c0.4-4.7,2.6-8.2,6.8-10.4
			c1.5-0.8,3-1.7,4.3-2.8c10.2-8.7,22.2-12.7,35.3-13.5c6.8-0.4,12.3,2.9,16,8.5c6,8.8,9.5,18.6,10.3,29.2c0.1,1.3,0.6,2.6,1.3,3.7
			c2.9,5.2,2.1,10.6-2.1,14.8c-0.5,0.5-1.2,0.9-1.5,1.5c-4.5,10.1-12,18.1-18.9,26.5c-3.9,4.8-5.7,10-4.8,16.4
			c8.7,0.9,11,7.8,13.3,14.7c2.4,7.2,3.2,7.7,10.7,6.7c4.5-0.6,8.2-2.2,10.6-6.4c1.8-3.1,4.2-5.9,6.4-8.8c1.9-2.5,4.4-2.9,6.5-1.2
			c2,1.5,2.3,4,0.6,6.4c-2.2,3.2-4.6,6.3-7.5,10.3c3-1.1,5.2-2,7.4-2.7c3-1.1,5.6,0,6.4,2.5c0.8,2.4-0.4,4.6-3.3,5.8
			c-1.4,0.6-2.9,1.1-4.3,2.3c2.5,0.3,5.1,0.7,7.6,1c3.4,0.4,5.1,2.1,4.8,4.8c-0.2,2.6-2.1,4.1-5.3,3.8c-4.3-0.3-8.6-1-13-1.2
			c-1.4-0.1-3,0.3-4.4,0.9c-4.1,1.7-8.1,3.7-12.2,5.4c-7.1,2.9-14,2.1-20.6-1.5c-1.8-1-3.7-1.8-5.8-2.8c-3.1,12.7-8.3,24-16.1,34.2
			c2.7,1.8,5.3,3.4,7.7,5.2c9.1,7,10,16.1,2.4,24.7c-2.7,3-5.7,5.8-8.1,9c-1.3,1.6-1.7,3.9-2.6,5.9c0.3,0.2,0.6,0.5,0.9,0.7
			c2.6-0.9,5.1-1.9,7.7-2.8c3.8-1.4,6.3-0.7,7.3,2c1,2.7-0.5,4.8-4.3,6.3c-0.8,0.3-1.7,0.7-3.1,1.2c3.4,1.4,5.9,3.4,4.2,6.8
			c-2.2,4.5-6.1,1.9-9.9,1.3c0.7,1.5,1.3,2.6,1.8,3.8c1.3,2.8,0.6,5.2-1.8,6.4c-2.3,1.1-4.4,0.3-6-2.3c-0.2-0.3-0.3-0.5-0.5-0.8
			c-1.3-3.3-3-5.1-7.2-5.6c-8.4-1-14.1-8.8-14.6-18c-0.4-8,2.3-14.8,7.8-20.7c-2.2-1.7-3.8-1.2-5.9,0.1
			c-8.2,5.3-16.5,10.3-24.7,15.5c-1.4,0.9-2.9,2.4-3.5,3.9c-6.1,14.1-12.5,28-21.8,40.3c-13.3,17.6-30,30.6-52,35.4
			c-15.5,3.4-31,2-46-2.6c-9-2.7-17.8-6.7-26.3-10.8c-7.5-3.6-12.9-9.7-15.9-17.6c-0.7-1.7-0.7-4.5,0.3-5.6c1-1.1,3.8-1.6,5.5-1.1
			c12.3,3.5,24.5,7.6,36.8,11c11.1,3,22.6,5,34.1,2.8c5.3-1,10.8-2.7,15.3-5.5c19.9-12.3,33.8-29.9,42.7-51.5
			c1.8-4.3,2-8.6,0.3-13.2c-3.3-9.4-4.8-19.2-5.2-29.2c0-1.1-0.9-2.1-1.4-3.2C173.9,220.2,173.6,220.3,173.3,220.4z M237.9,91.3
			c-0.2,3.6-0.5,6.9-0.4,10.1c0.2,4.3,0.9,8.7,1.2,13c0.6,8.9-2.1,15.8-10.5,20.3c-13.1,6.9-23.3,17.1-30.8,30
			c-6.9,11.9-10.6,24.9-12.2,38.5c-1.8,15.9-1.2,31.8,3.9,47c2.2,6.4,1.9,12.1-0.3,18c-8,21.2-21.7,38.2-39.4,52.1
			c-11.2,8.8-23.9,12.7-38.2,12.1c-10.1-0.5-19.9-2.2-29.6-4.9c-7.1-2-14.2-4.2-21.3-6.3c1.8,1.9,3.7,3.7,6,4.7
			c8.4,3.6,16.8,7.6,25.5,10.2c15.7,4.7,31.6,5.4,47.4,0.2c16.8-5.6,29.7-16.5,40.1-30.6c9.1-12.3,15.3-26.2,21.2-40.3
			c1-2.5,2.6-4.1,4.9-5.2c11.6-5.8,22.6-12.6,32.5-21.1c13.8-11.8,24.2-25.8,29-43.5c3.4-12.4,3.2-25,2.5-37.7
			c-0.6-10.5,1.4-19.8,8.8-27.8c5-5.3,9.1-11.5,13.7-17.4c-5.7-2.9-8.8-6.9-8.1-12.9c0.8-6.5,5.1-9.6,11.2-10.6c0-0.5,0.1-1,0.1-1.4
			c-1.2-7.8-4-15-8.8-21.3c-1.3-1.7-3.6-3.3-5.6-3.5c-3.4-0.4-7,0-10.4,0.6c-6.8,1.3-13.3,3.6-19,8.1c4.3,4.7,5.5,9.9,2.2,15.2
			C250,92.5,244.6,93.5,237.9,91.3z M246.6,242.9c6.9,6.1,7.1,8.7,0.8,15.7c-2.9,3.2-4.3,7.1-4.5,11.3c-0.4,6.2,3.1,11.2,8.1,11.9
			c0.8,0.1,2-0.1,2.4-0.7c0.3-0.5,0.1-1.7-0.4-2.4c-2.4-4-2.8-8.2-0.6-12.1c2-3.7,4.8-6.9,7.4-10.2c1.6-2,3.7-3.7,5.2-5.8
			c2.3-3.1,2.2-5.8-0.7-8.3c-2.7-2.4-5.9-4.2-8.9-6.1c-0.5-0.3-1.8,0-2.3,0.5C250.9,238.7,248.8,240.8,246.6,242.9z M175.6,211.1
			c0.1-1.2,0.1-2.5,0.2-3.7c0.5-7.9-0.1-8.6-8.3-9.7c-6.3-0.9-8.8,1.2-9.4,7.5c-0.3,4-0.5,8.1-1.3,12c-1.4,6.5-4.4,11.8-11.9,12.9
			c-2.2,0.3-2,1.7-0.8,3.1c2.3,2.5,6.5,3.3,10,1.6c6.2-3,9.6-8,10.3-14.8C165.2,212.3,167.6,210.3,175.6,211.1z M210.7,133.9
			c-2.9-3.5-3.9-3.8-9-1.8c-1.8,0.7-3.6,1.5-5.4,2.3c-7,3.1-12.5,2.1-17.5-3.8c-2.1-2.4-3.5-5.3-5.4-7.9c-0.4-0.6-1.3-0.9-2-1.3
			c-0.2,0.8-0.8,1.7-0.7,2.3c0.7,2.8,1.5,5.6,2.5,8.3c1.4,3.7,3.2,7.3,6.9,9.2c5.5,2.8,11.1,5.3,16.2,7.7
			C201.1,144,205.8,139.1,210.7,133.9z M310.6,183.7c-0.3-0.2-0.7-0.4-1-0.6c-2.3,0.5-4.6,1.1-7,1.4c-9,1.1-16.6-1.5-18.8-11.6
			c-0.5-2.3-1.4-4.5-2.4-6.7c-0.5-1.1-1.5-1.9-2.3-2.8c-0.3,0.1-0.6,0.3-0.9,0.4c0,7.1,0,14.2,0,21.5c2.2,1,4.8,2,7.2,3.4
			c5.2,3.1,10.6,3.2,16,0.9c2.6-1.1,5.1-2.2,7.6-3.6C309.7,185.7,310.1,184.5,310.6,183.7z M247,81.3c0-0.4,0-0.9,0-1.3
			c-1.1-0.8-2.2-2-3.4-2.2c-1.9-0.3-3.4,1.1-3,2.9c0.2,1.1,1.8,2.5,2.9,2.6C244.7,83.5,245.9,82,247,81.3z M298.9,101.9
			c0-0.4,0-0.9,0.1-1.3c-1.1-0.8-2.2-2.3-3.3-2.2c-1.1,0.1-2.7,1.4-3,2.5c-0.5,1.8,0.8,3.3,2.8,3
			C296.7,103.7,297.8,102.6,298.9,101.9z"/>
		<path d="M253.1,195.9c4,0,6.4,2.8,5,5.7c-2.5,5.3-5.4,10.5-8.5,15.5c-1.2,2-3.5,2.1-5.5,0.9c-2.2-1.4-2.7-3.5-1.6-5.7
			c2.4-4.8,5-9.5,7.8-14.1C251.1,197,252.6,196.3,253.1,195.9z"/>
	</g>
</g>
</svg>
