<?xml version="1.0" encoding="utf-8"?>
<!-- Generator: Adobe Illustrator 25.0.0, SVG Export Plug-In . SVG Version: 6.00 Build 0)  -->
<svg version="1.1" id="Layer_1" xmlns="http://www.w3.org/2000/svg" xmlns:xlink="http://www.w3.org/1999/xlink" x="0px" y="0px"
	 viewBox="0 0 400 400" style="enable-background:new 0 0 400 400;" xml:space="preserve">
<style type="text/css">
	.st0{stroke:#000000;stroke-width:15;stroke-linecap:round;stroke-linejoin:round;stroke-miterlimit:10;}
</style>
<path class="st0" d="M-164.3,299.8"/>
<g>
	<g>
		<path d="M280.5,29.7c7.7,3,15.8,5.4,23.2,9.2c15.6,8.1,29.6,18.5,41.4,31.6c19.2,21.3,11.6,54.7-14.7,66.1c-2.2,0.9-4.3,2.4-6,4
			c-9.5,8.8-18.8,17.7-28.4,26.8c0.6,1.2,1,2.3,1.6,3.4c14.9,29.6,29.9,59.2,44.8,88.7c0.4,0.7,0.7,1.5,1.1,2.2
			c1.5,3.4,0.7,6.4-2.1,7.8c-2.8,1.4-5.7,0.4-7.5-3.1c-5.7-11.2-11.3-22.4-17-33.6c-9.1-18.1-18.2-36.1-27.3-54.2
			c-0.5-1-1.1-2-1.8-3.4c-3.8,3.6-7.4,7-11.1,10.4c-2.5,2.3-4.7,5-7.4,6.9c-5.9,4.1-8.1,10.6-11.4,16.3c-0.2,0.4-0.4,0.9-0.4,1.3
			c0.3,6.1,0.5,12.1,0.8,18.1c1.3-0.8,3-1.9,4.9-2.8c3.4-1.8,6.3-1.1,8,2.3c3.7,7.3,7.2,14.6,10.6,22c1.4,3.1,0.2,6-2.7,7.3
			c-3,1.4-5.3,0.5-7.1-3c-2.7-5.4-5.3-10.8-8-16.5c-3.9,2.4-7.6,4.5-10.7,6.4c0,7.5,0,14.5,0,22c1.7-1,3.1-1.9,4.7-2.7
			c3.2-1.6,6.1-0.9,7.7,2.3c3.7,7.4,7.2,14.8,10.7,22.3c1.3,2.9,0,5.8-2.6,7c-2.7,1.2-5.5,0.3-7-2.7c-2.8-5.5-5.4-11-8.2-16.7
			c-3.5,2.1-6.9,4-10,6.1c-0.8,0.5-1.5,2.1-1.3,3c2.6,12.2,0.9,23.4-7.4,33.6c2.9,2.8,5.9,5.5,8.7,8.4c4.9,5,9.2,10.3,11.2,17.4
			c4.7,17.2-10,35.4-27.8,33.9c-3.9-0.3-6.5,0.3-9.5,3.1c-10.7,9.8-27.6,8.4-37.8-2.4c-0.9-0.9-2.8-1.6-4-1.4
			c-11.9,2.5-23.1-1.8-29.5-11.6c-6.4-9.7-5.9-22.4,1.5-32c2.4-3.1,5.2-5.9,7.9-8.9c2.6-2.8,5.2-5.6,8.1-8.8
			c-3.6-4.9-6.3-10.8-6.5-17.5c-0.1-4.5,0.3-9,0.8-13.5c0.2-1.9,0.1-3-1.7-3.9c-3.2-1.7-6.2-3.6-9.6-5.7c-2.2,4.6-4.4,9-6.6,13.5
			c-0.6,1.3-1.1,2.6-1.9,3.7c-1.6,2.5-4.5,3.4-7,2.1c-2.5-1.4-3.8-3.6-2.5-6.4c3.5-7.7,7.1-15.4,10.9-23c1.5-3.1,4.3-3.7,7.5-2.1
			c1.5,0.7,3,1.7,4.2,2.3c0.4-6.7,0.9-13.3,1.2-19.8c0-0.7-0.4-1.6-1-2c-3.3-2.1-6.7-4.1-10.4-6.2c-2.6,5.5-5.1,10.7-7.6,15.9
			c-1.2,2.5-3,4.2-6,3.9c-3.8-0.4-5.7-4-4-7.9c2.2-5,4.7-9.9,7.1-14.8c1.1-2.2,2-4.4,3.2-6.6c2-3.7,4.8-4.5,8.5-2.5
			c1.7,0.9,3.4,2,5.5,3.3c0-6.5,0.7-12.7-0.2-18.5c-0.7-4.2-2.9-8.9-5.9-12c-7.6-8-16.1-15.2-24.4-22.8c-0.8,1.5-1.5,2.8-2.2,4.2
			c-14.3,28.2-28.5,56.5-42.8,84.7c-0.5,0.9-0.9,1.9-1.5,2.8c-1.7,2.6-4,3.6-6.9,2.4c-2.7-1.1-3.7-4-2.6-7.1c0.4-1.1,1-2.1,1.5-3.1
			c14.8-29.4,29.6-58.8,44.5-88.1c1.3-2.5,1.3-3.9-0.9-5.9c-9.9-8.9-19.5-18-29.3-27c-1-0.9-2.2-1.7-3.4-2.3
			c-18.7-9.3-27.5-27.4-23.1-47.8c0.9-4,3.5-6.2,6.7-5.4c3.1,0.7,4.6,3.5,3.8,7.4c-1.9,8.8-0.9,17.1,4,24.8c0.8,1.2,1.8,2.4,2.9,3.9
			c20.5-26.2,40.8-52.1,61.5-78.6c-8,0.4-14.6,3.1-20.7,6.6c-7.6,4.3-14.8,9.2-22.1,13.9c-0.7,0.4-1.3,1-2,1.5
			c-3.8,2.7-6.8,2.7-8.9-0.2c-2-2.7-1-5.8,2.7-8.5c12.4-9.2,25.2-17.5,40.1-22.2c2.2-0.7,4.4-1.2,6.7-1.9c3,0,6.1,0,9.1,0
			c5.7,2.1,11.1,4.9,12.8,11.2c1.3,4.6,2.1,9.6,2,14.4c-0.2,13.7-4.4,26.6-9.6,39c-4.1,9.8-9.1,19.2-13.9,29.2
			c0.9,0.9,2.3,2.2,3.8,3.6c0.8-1.6,1.5-2.7,2-3.8c9.3-18.4,18.5-36.7,27.8-55.1c2.6-5.1,5.9-5.8,10.3-2.2c4.2,3.5,8.4,7,12.6,10.5
			c12-10.1,23.9-10,35.7,0c4-3.4,7.9-6.6,11.7-9.8c5.5-4.6,8.5-4,11.6,2.3c9.1,18,18.2,36.1,27.3,54.1c0.6,1.2,1.3,2.4,1.9,3.6
			c1.6-1.5,3-2.9,4.2-4c-3.2-5.8-6.6-11.4-9.3-17.3c-7.3-16-13.6-32.3-14.5-50.2c-0.7-13.6,3-20.2,14.9-25.6
			C273.9,29.7,277.2,29.7,280.5,29.7z M205,214.3c9.5-1,19-1.6,28.4-2.9c12.8-1.8,19.9-10.1,19.8-22.9c-0.1-6.9-0.9-13.9-2.1-20.8
			c-3.7-22-10.4-43.1-20.7-62.9c-4.1-8-8.9-15.5-16.1-21.3c-6.1-4.9-12.4-5-18.4,0c-3.1,2.6-6,5.6-8.4,8.8
			c-10.8,14.7-17.2,31.6-22.3,48.9c-4.5,15.3-8.4,30.7-8.4,46.8c0,13.3,7,21.5,20.2,23.4C186.1,212.7,195.5,213.4,205,214.3z
			 M163.3,218.2c-2.5,15.5,10.7,31.6,26.4,32.4c7.7,0.4,15.4,0.1,23,0.3c4.1,0.1,6.3,2.2,6.3,5.5c0,3.3-2.3,5.3-6.4,5.3
			c-3.1,0.1-6.3,0.2-9.4,0c-6.9-0.4-14-0.3-20.8-1.7c-5.3-1.1-10.1-4.2-15.2-6.4c0,0.8-0.1,1.8-0.1,2.8
			c-0.1,15.3,8.8,26.3,23.9,27.9c9.4,1,19,0.3,28.6,0c5.8-0.2,10.7-2.9,14.9-6.9c7-6.6,9.2-14.8,8-24.3c-2.9,1.6-5.3,3.2-7.9,4.5
			c-3,1.5-6.3,0.6-7.6-1.9c-1.4-2.7-0.5-5.5,2.5-7.4c2.1-1.3,4.3-2.4,6.2-3.9c8.2-6.7,12-15.3,11.2-26.3
			C218.8,226.3,191,226.4,163.3,218.2z M336.8,118.7c10.3-10.1,11.1-28.8,1.1-40c-15-16.7-33.1-29.2-54.3-36.8
			c-2.3-0.8-4.8-0.9-8.1-1.5C296.4,67,316.6,92.8,336.8,118.7z M267.7,47.9c-0.3,0.1-0.6,0.2-0.9,0.3c0,3.7-0.4,7.4,0.1,11
			c1.8,14.6,6.8,28.2,13,41.4c3.6,7.7,7.4,15.3,13.8,21.2c10.6,9.6,27.4,8.9,34.6,3.5C308.1,99.5,287.9,73.7,267.7,47.9z
			 M143.6,48.2c-0.5-0.1-1-0.1-1.4-0.2c-20.2,25.8-40.4,51.6-60.6,77.4c12.5,7.6,31,3.5,39.4-8.9c11.1-16.4,18-34.5,21.6-53.9
			C143.5,57.9,143.3,53,143.6,48.2z M172.8,290.3c0,2.7-0.2,5.8,0,8.8c0.8,9.5,9.8,18.7,19.2,19.2c8.6,0.4,17.2,0.5,25.8,0
			c13-0.7,23-16.4,18.9-27.8C215.4,297.9,194.3,297.9,172.8,290.3z M193.8,329.5c-1.8,9.6-3.8,19-5.2,28.5
			c-1.5,9.9,5.5,18.1,15.6,18.8c9.1,0.7,17.7-7,17.4-16.5c-0.3-10.5-2.9-20.6-6.2-30.6c-0.7-0.1-1.3-0.1-1.9-0.1
			C207.3,329.5,201.2,329.5,193.8,329.5z M183.7,327.7c-1.9-1-3.6-2.1-5.4-2.7c-0.8-0.3-2.1-0.1-2.7,0.4
			c-5.1,5.1-10.3,10.1-14.9,15.6c-3.7,4.3-4.2,9.7-2.5,15.2c2.8,8.4,12.8,13.6,19.8,10.2C176.5,352.9,180.6,340.4,183.7,327.7z
			 M230.2,84.4c13.4,18.1,20.5,38.7,26.9,60.2c3.6-3.4,6.9-6.5,10.3-9.7c-9.6-19.1-19.2-38-28.9-57.3C235.6,79.9,233,82,230.2,84.4z
			 M152.9,144.6c6.4-21.6,13.6-42.2,26.9-60.2c-2.7-2.3-5.4-4.5-8.3-6.9c-9.8,19.3-19.3,38.3-28.9,57.3
			C146,138,149.3,141.1,152.9,144.6z M226.3,327.8c3.1,12.9,7.4,25.7,5.5,39.6c7,0.3,12.3-2.5,15.8-8.4c3.5-6,3-13.3-1.5-18.5
			c-3.5-4.2-7.4-8.1-11.2-12C231.2,324.7,231.1,324.8,226.3,327.8z M145.5,182.7c1.5-8.6,2.8-16.6,4.1-24.5c0.1-0.7,0-1.8-0.5-2.2
			c-3.8-3.7-7.6-7.3-11.6-11c-3.6,7.2-7,13.9-10.4,20.7C133.3,171.3,139.3,176.9,145.5,182.7z M264.4,182.5
			c6.2-5.9,12.2-11.5,18.3-17.3c-3.4-6.8-6.8-13.4-10.3-20.3c-4,3.7-7.6,7.1-11.2,10.6c-0.6,0.6-1,1.6-0.9,2.4
			C261.6,165.9,263,173.8,264.4,182.5z M122.5,130.6c-6.2,6.5-14.1,8.2-22.9,9.5c6.6,6.2,12.8,11.9,19.3,17.8
			c3.6-7.2,7.1-14,10.5-20.8C127.1,134.9,125,133,122.5,130.6z M290.8,157.5c6.3-6,12.2-11.6,17.9-16.9c-5.6-2.2-11-3.9-16-6.4
			c-6-3-5.9-3.4-10.5,1.5c-0.7,0.7-1,2.6-0.6,3.4C284.5,145.1,287.6,151,290.8,157.5z"/>
		<path d="M78.8,69.2c0,3.5-7.3,10.6-10.8,10.5c-3.5-0.1-6.3-4.3-4.3-7.3c1.9-2.9,4.4-5.7,7.2-7.8C74.2,62.2,78.9,65.1,78.8,69.2z"
			/>
		<path d="M243.4,184c0,1,0.1,2.1,0,3.1c-0.2,3-1.9,4.7-4.9,4.9c-3,0.2-5-1.4-5.5-4.2c-1.5-9.1-2.9-18.3-4.3-27.4
			c-0.6-4,0.8-6.4,3.9-7c3.2-0.7,5.7,1,6.5,5.1c1.7,8.5,3.2,17,4.8,25.6C243.8,183.9,243.6,183.9,243.4,184z"/>
		<path d="M234.9,141.5c-0.4,2.9-1.9,5.1-4.4,5.1c-2,0.1-4.9-1.1-5.7-2.6c-1.8-3.3-2.8-7.1-3.8-10.8c-0.6-2.5,0.7-4.6,3.1-5.5
			c2.4-0.9,5-0.6,6.1,1.8C232.1,133.4,233.3,137.5,234.9,141.5z"/>
		<path d="M187.6,102.2c0.3-3.4,3.4-5.9,6.8-5.6c3.6,0.3,6.1,3.4,5.6,7c-0.4,3.4-3.5,5.6-7,5.2C189.8,108.4,187.3,105.3,187.6,102.2
			z"/>
		<path d="M223.8,102.8c0,3.3-2.9,6.1-6.3,6.1c-3.4,0-6.2-2.8-6.2-6.2c0-3.4,2.9-6.2,6.3-6.1C220.9,96.5,223.8,99.5,223.8,102.8z"/>
	</g>
</g>
</svg>
