<?xml version="1.0" encoding="utf-8"?>
<!-- Generator: Adobe Illustrator 25.0.0, SVG Export Plug-In . SVG Version: 6.00 Build 0)  -->
<svg version="1.1" id="Layer_1" xmlns="http://www.w3.org/2000/svg" xmlns:xlink="http://www.w3.org/1999/xlink" x="0px" y="0px"
	 viewBox="0 0 400 400" style="enable-background:new 0 0 400 400;" xml:space="preserve">
<style type="text/css">
	.st0{stroke:#000000;stroke-width:15;stroke-linecap:round;stroke-linejoin:round;stroke-miterlimit:10;}
</style>
<path class="st0" d="M-164.3,299.8"/>
<g>
	<g>
		<path d="M169.6,377.3c-8.3-1.8-16.3-4.5-23.3-9.4c-3.4-2.4-6.7-4.8-9.8-7.5c-5.9-5.1-6-11-0.6-16.4c10.4-10.5,20.9-20.9,31.4-31.4
			c0.7-0.7,1.4-1.4,2.7-2.8c-45.3-3.4-69-28-72.5-73c-1.4,1.3-2.2,2-2.9,2.8c-10.3,10.3-20.6,20.6-30.9,30.9c-6,5.9-11.8,6-17.1-0.6
			c-4.3-5.5-8.5-11.2-11.6-17.4c-7.8-16-6.5-31.9,2.6-47.1c4.4-7.3,10.1-13.6,16.8-18.8c8.8-6.8,18.8-8.6,29.6-5.8
			c5.8,1.5,11.5,3.3,17.6,5.1c10.2-36.3,30.4-64.3,65.5-80.8c-0.7-2.4-1.5-5-2.2-7.5c-6.6,1-13,2.2-19.3,2.8
			c-22.8,2.3-44.8-0.2-65.6-10.3c-9.1-4.4-10.3-11.1-3.5-18.6c11.2-12.5,23.7-23.2,39.2-29.9c25.1-10.7,49.1-7.3,71.8,7
			c4.5,2.8,8.5,6.4,12.7,9.7c2.9,2.3,4.1,5.4,4.1,9.1c0,9.9,0,19.8,0,29.7c0,1.6-0.2,3,2.2,3.2c13.7,1.5,26.2,6.6,37.9,13.6
			c0.8,0.5,1.7,1,2.5,1.5c2.8-1.7,4-4,4-7.3c-0.1-28.9,25.1-48.1,47.6-50c13.7-1.2,26.5,1.7,38.7,7.5c1.5,0.7,3.2,1.9,3.9,3.3
			c8.8,18.1,12.4,36.8,4,55.9c-8.7,19.8-23.8,31.2-46,31.7c-3.1,0.1-5.3,1.2-6.8,3.6c3.1,6.4,6.6,12.4,9,18.9
			c2.5,6.8,4.1,14,5.6,21.2c0.5,2.2,1.1,2.9,3.3,2.9c9.8-0.1,19.6,0,29.4-0.1c4,0,7.1,1.3,9.7,4.3c11.7,13.3,19.6,28.5,22,46.2
			c0.1,0.5,0.4,1,0.6,1.5c0,4.7,0,9.3,0,14c-0.2,0.8-0.5,1.7-0.7,2.5c-1.5,5.8-2.5,11.8-4.6,17.3c-6.3,16.8-17.6,29.9-30.7,41.8
			c-7.6,6.9-14.4,5.7-18.8-3.6c-10.1-20.8-12.6-42.9-10.2-65.6c0.7-6.4,1.8-12.7,2.8-19.2c-2.6-0.7-5.1-1.4-7.6-2.2
			c-5.4,12.7-13.1,23.4-22.5,32.9c-2.8,2.9-5.6,3.2-7.9,1c-2.3-2.2-2.2-5,0.5-7.9c2.7-3,5.5-5.9,8-9c19.1-24,23.4-50.3,10.2-78.3
			c-13.1-27.8-33.9-48.5-61.6-61.9c-16.8-8.1-34.5-9.9-52.5-4.1c-14.2,4.6-26,13-36.2,23.6C110.8,166.7,99.1,219.1,112,259
			c5.5,17.1,15.9,29.5,33.2,35.1c8,2.6,16.3,4.8,24.6,5.6c30.7,3,59.4-3.3,85.7-19.8c3.3-2.1,6.2-1.7,7.9,0.9c1.7,2.7,1,5.6-2.4,7.5
			c-6.8,3.8-13.6,7.6-20.6,10.8c-6.2,2.8-12.8,4.7-19.5,7.1c1.7,5.6,3.5,11.2,5,16.9c2.7,9.8,1.7,19.3-4.2,27.7
			c-8,11.4-18.5,19.7-31.8,24.3c-2.7,0.9-5.5,1.5-8.3,2.3C177.6,377.3,173.6,377.3,169.6,377.3z M286.7,151.1
			c2.9-2.9,6.9-4.7,11.7-4.8c18-0.4,32.2-10.4,38.3-27.4c5.3-14.8,2.8-29.1-3.3-43c-0.3-0.7-1-1.5-1.8-1.8
			c-13.7-6.1-27.8-8.6-42.4-3.7c-16,5.4-27.8,20.4-28.1,35.5c-0.1,5.8-0.8,11.2-4.8,14.9C266.5,130.9,276.4,140.8,286.7,151.1z
			 M194.1,99.2c0-1.1,0-2.3,0-3.5c0-7-0.5-14.1,0.2-21c0.7-6.8-2-10.8-7.3-14.5c-13.6-9.5-28.3-15.6-45-14.6
			c-25.2,1.6-43.2,16.2-59.4,34.2c1,0.6,1.7,1.2,2.5,1.5c4.1,1.7,8.2,3.5,12.4,4.8c22.6,7,45.3,6,68.1,0.6c5.1-1.2,6.7-0.3,8.2,4.9
			c1.1,3.5,2.1,6.9,3.1,10.1C182.8,100.9,188.2,100,194.1,99.2z M327.4,324.8c11.2-9.8,20.7-20.3,27.2-33.2
			c5.1-10,7.8-20.6,7.2-31.8c-0.9-17.1-7.9-31.7-19-44.5c-1-1.1-3-2-4.5-2c-9.1-0.2-18.2-0.1-27.4-0.1c-1,0-1.9,0.1-2.8,0.2
			c-0.9,5.8-1.7,11.4-2.5,17.1c3.6,1.1,7.1,2.1,10.6,3.2c4.4,1.4,5.5,3.2,4.4,7.7c-4.7,19.2-6,38.6-2.2,58.1
			C320.2,308.2,322.9,316.6,327.4,324.8z M211.5,308.5c-8.9,0.7-16.9,1.3-25,2.1c-1.6,0.2-3.5,0.9-4.6,1.9
			c-12.6,12.4-25.1,24.9-37.6,37.5c-0.7,0.7-1.3,1.4-2.4,2.7c5.6,3.6,10.8,7.4,16.3,10.3c6.5,3.4,13.5,5,21,4
			c14.4-1.8,24.8-10.1,33.5-21c3.1-3.9,5.1-8.7,4.2-13.7C215.6,324.1,213.3,316.1,211.5,308.5z M54.2,264.6c0.6,0.1,1.2,0.1,1.8,0.2
			c0.7-1,1.3-2.2,2.1-3c10.7-10.8,21.4-21.7,32.4-32.2c4.3-4.1,7.6-8.2,6.5-14.5c-0.1-0.6,0.1-1.3,0.2-2c0.7-5.7,1.3-11.4,2-17.2
			c-6.1-1.8-12.1-3.8-18.2-5.4c-7.8-2.1-15-0.3-21.2,4.9c-5.9,4.9-11,10.6-14.7,17.5c-5.8,10.8-6.9,22.1-1.7,33.3
			C46.4,252.5,50.6,258.4,54.2,264.6z"/>
		<path d="M183.4,291.2c-12.1-0.6-23.8-2.3-35.1-6.4c-13-4.6-21.5-13.4-26-26.3c-12.8-36.3-3.3-89.4,27.5-118
			c9.3-8.6,19.5-15.5,31.7-19c14.6-4.1,28.8-2.4,42.2,4c26,12.4,45.6,31.7,57.8,57.8c11.9,25.5,6.7,48.9-11.1,70
			c-15.9,18.8-36.6,29.3-60.3,34.2C201.4,289.4,192.4,290,183.4,291.2z M216.8,133.3c-2.1,7.1-3.6,13.6-5.9,19.8
			c-2,5.3-2.4,9.7,3,13.1c0.2,0.1,0.3,0.3,0.5,0.5c1.9,2.3,1.9,5.4-0.1,7.2c-2.2,2-4.6,2-6.9,0c-1.4-1.2-2.8-2.5-4-4
			c-1.2-1.5-2.5-1.7-4.3-1.1c-8.4,2.6-16.8,4.9-25.2,7.5c-1.4,0.5-3,2-3.5,3.4c-2.7,8.6-5.2,17.2-7.6,25.8c-0.3,1,0.1,2.7,0.8,3.4
			c11.5,11.6,23,23.2,34.7,34.7c0.8,0.8,2.6,1.2,3.7,0.9c8.8-2.4,17.5-5,26.2-7.7c1.1-0.3,2.4-1.7,2.7-2.8
			c2.7-8.7,5.2-17.4,7.6-26.2c0.3-1.1-0.2-2.8-0.9-3.6c-4.5-4.8-9.2-9.3-13.8-14c-2.9-3-3.2-5.9-0.7-8.1c2.2-2.1,5.2-1.7,7.9,1
			c4.6,4.5,9.1,9.2,13.7,13.6c0.8,0.8,2.4,1.6,3.4,1.3c8.5-2.3,17-4.9,26.1-7.6C261.7,164.6,243,145.8,216.8,133.3z M184.3,280.5
			c2.7-9,5.3-17.8,7.8-26.6c0.2-0.8-0.4-2.1-1-2.8c-11.5-11.6-23-23.2-34.7-34.6c-0.7-0.7-2.4-1.2-3.4-0.9c-8,2.2-16,4.5-23.9,7
			c-0.9,0.3-2.1,1.7-2.1,2.6c0.3,11.7,1.7,23.2,6.6,34.1c2.7,6,6.7,10.7,12.7,13.6C158.2,278.7,171,280.2,184.3,280.5z M206.9,131.1
			c-16.1-4.9-38.3,2.9-53.8,21c4.6,4.6,9.2,9.3,14,13.8c0.8,0.7,2.4,1.1,3.5,0.8c8.8-2.5,17.5-5.1,26.2-7.7c1-0.3,2.2-1.2,2.5-2.1
			C201.9,148.3,204.4,139.7,206.9,131.1z M276.4,200.4c-8.8,2.6-17.4,5.1-25.9,7.7c-0.8,0.3-1.7,1.3-2,2.2
			c-2.7,8.8-5.3,17.6-7.8,26.5c-0.3,1,0.1,2.7,0.8,3.5c4.5,4.8,9.1,9.4,13.7,14.1C273.3,238.6,280.9,217.4,276.4,200.4z
			 M127.5,212.3c7.9-2.3,15.5-4.4,23-6.8c0.9-0.3,2-1.5,2.3-2.4c2.7-8.8,5.2-17.6,7.7-26.5c0.3-0.9,0.2-2.4-0.4-3
			c-4.4-4.7-8.9-9.2-13.7-14C135.2,175.7,129.7,193.1,127.5,212.3z M247.7,260.9c-4.8-4.7-9.1-9.1-13.7-13.4
			c-0.7-0.6-2.2-0.9-3.2-0.7c-8.9,2.5-17.7,5.1-26.5,7.7c-0.9,0.3-2.2,1.1-2.4,1.9c-2.4,7.7-4.6,15.4-6.9,23.4
			C214.2,277.7,231.6,272.1,247.7,260.9z"/>
		<path d="M330.9,105.4c-0.8,3.2-1.5,6.9-2.8,10.4c-0.9,2.4-3.1,3.5-5.7,2.8c-2.7-0.7-4.2-2.7-3.7-5.5c0.6-3.4,1.5-6.7,2.5-9.9
			c0.8-2.6,2.9-3.6,5.5-3.1C329.4,100.5,330.6,102.3,330.9,105.4z"/>
		<path d="M301.6,76.5c3.3,0.1,5.1,1.2,5.7,3.9c0.6,2.6-0.4,4.8-2.9,5.7c-3.4,1.2-7,2.1-10.6,2.6c-2.6,0.4-4.5-1.3-5.1-3.8
			c-0.7-2.6,0.4-4.8,2.9-5.7C295,78,298.6,77.3,301.6,76.5z"/>
	</g>
</g>
</svg>
