<?xml version="1.0" encoding="utf-8"?>
<!-- Generator: Adobe Illustrator 16.0.0, SVG Export Plug-In . SVG Version: 6.00 Build 0)  -->
<!DOCTYPE svg PUBLIC "-//W3C//DTD SVG 1.1//EN" "http://www.w3.org/Graphics/SVG/1.1/DTD/svg11.dtd">
<svg version="1.1" id="Layer_1" xmlns="http://www.w3.org/2000/svg" xmlns:xlink="http://www.w3.org/1999/xlink" x="0px" y="0px"
	 width="595.279px" height="841.891px" viewBox="0 0 595.279 841.891" enable-background="new 0 0 595.279 841.891"
	 xml:space="preserve">
<g>
	<g>
		<path fill="#F99C5D" d="M576.406,421.033c-5.375-1.003-10.832,1.186-11.329,8.113c-0.165,1.459,0.083,2.827,0.579,4.193
			c-29.189,33.094-59.619,65.093-98.232,84.235c-3.143-7.657-7.689-12.763-13.23-15.952c0,0,0,0,0-0.093
			c5.209-83.05,3.059-167.468-59.287-224.536c-57.303-52.328-137.189-73.479-209.293-47.406
			c-26.212-13.583-67.061,5.197-89.799,15.499c-11.494-2.735-26.875,4.193-36.466,10.21c-17.282,0.729-29.52,14.039-36.218,30.904
			c-3.059,7.567-7.606,28.079-0.578,36.465c-8.27,16.683-13.893,62.083,7.606,72.203c1.902,0.82,3.887,1.186,5.789,1.186
			c0,0.182-0.165,0.182-0.165,0.364c0.082,27.896,0.661,55.519,6.201,82.959c8.682,30.814,30.843,82.049,66.151,80.134
			c-0.746,8.479,3.473,14.587,6.697,21.88c-10.336,8.021-21.168,15.132-33.158,20.329c0,0,0,0-0.083,0
			c-0.331,0.091-0.578,0.547-0.578,1.003c0,0.547,0.166,1.003,0.578,1.093c0.083,0,0.083,0.092,0.083,0.092
			c107.577,47.496,230.297,77.58,343.826,38.288c6.947,10.759,18.274,11.487,31.752,10.577c17.365-0.821,46.885-0.092,57.882-18.507
			c13.974-23.339-17.944-59.075-24.971-79.677c22.407-43.213,55.399-77.217,88.228-110.766c5.539,1.094,10.336-2.826,9.756-9.572
			C587.57,427.415,582.442,422.036,576.406,421.033z"/>
	</g>
	<g>
		<path fill="#FFFFFF" d="M576.375,421.043c-5.355-0.982-10.768,1.165-11.33,8.075c-0.122,1.488,0.16,2.889,0.635,4.222
			c-29.248,33.083-59.634,65.09-98.28,84.27c-3.111-7.711-7.703-12.786-13.224-16.008c0.001-0.016,0.016-0.019,0.017-0.034
			c5.21-83.051,3.099-167.541-59.31-224.579c-57.277-52.35-137.174-73.5-209.304-47.379c-26.183-13.588-67.036,5.146-89.8,15.481
			c-11.415-2.713-26.815,4.216-36.389,10.205c-17.299,0.713-29.518,14.009-36.262,30.858c-3.035,7.583-7.62,28.08-0.571,36.51
			c-8.271,16.668-13.875,62.07,7.638,72.162c1.89,0.886,3.814,1.258,5.751,1.254c-0.034,0.112-0.121,0.172-0.121,0.311
			c0.029,27.929,0.622,55.589,6.185,82.939c8.698,30.837,30.851,82.05,66.096,80.221c-0.729,8.442,3.481,14.53,6.745,21.851
			c-10.358,8.015-21.215,15.108-33.198,20.273c-0.014,0.004-0.014,0.021-0.026,0.027c-0.398,0.137-0.605,0.542-0.603,1.035
			c-0.026,0.514,0.182,0.956,0.599,1.102c0.015,0.008,0.015,0.026,0.03,0.032c107.573,47.496,230.303,77.639,343.853,38.36
			c6.91,10.681,18.236,11.404,31.758,10.512c17.377-0.797,46.889-0.09,57.834-18.436c13.975-23.419-17.879-59.119-24.965-79.74
			c22.469-43.176,55.467-77.211,88.302-110.707c5.508,1.027,10.255-2.867,9.702-9.566
			C587.573,427.445,582.406,422.015,576.375,421.043z M190.861,367.344c70.121-57.433,164.384-67.435,244.208-29.179
			c9.621,22.502,14.789,46.805,17.172,72.062c-87.247-49.204-191.348-36.374-278.365,7.153c0.84-3.041,1.648-6.1,2.581-9.08
			C179.993,397,185.409,382.819,190.861,367.344z M173.069,420.219c0.011-0.006,0.019,0.005,0.03-0.002
			c87.037-44.08,191.954-57.328,279.335-7.378c1.74,20.077,1.815,40.712,1.055,61.489c-90.057-61.635-199.322-71.728-290.619-8.555
			C166.044,450.439,169.116,435.049,173.069,420.219z M433.65,335.119c-79.113-36.826-171.649-27.294-241.467,28.441
			c5.289-15.229,10.442-31.562,13.828-47.72c52.25-46.028,114.25-54.566,178.858-43.65c0.145,0.024,0.24-0.069,0.365-0.098
			c2.751,2.291,5.501,4.583,8.15,7.008C411.57,295.751,424.466,314.681,433.65,335.119z M209.922,280.584
			c26.15-32.643,68.495-46.769,107.044-47.565c23.32,8.302,45.473,20.618,65.217,36.488c-63.489-10.105-123.977-1.258-175.5,42.94
			C208.798,301.543,210.08,290.775,209.922,280.584z M311.396,231.089c-36.955,1.963-76.352,15.984-101.675,46.51
			c-0.531-12.052-3.191-23.188-8.769-32.763c0.043-0.072,0.121-0.085,0.153-0.174c2.357-6.54,10.927-11.503,16.254-14.971
			c5.422-3.531,11.121-6.181,17.245-7.811c0.208-0.055,0.297-0.213,0.414-0.346C260.761,219.647,286.673,223.046,311.396,231.089z
			 M226.876,222.192c-5.035,2.101-9.803,4.845-14.373,8.162c-4.579,3.324-10.057,6.903-12.677,12.399
			c-0.131-0.201-0.21-0.43-0.342-0.631c-3.171-4.789-6.997-8.321-11.223-10.996C200.93,226.716,213.854,223.724,226.876,222.192z
			 M26.695,283.204c6.7-14.258,17.579-25.002,32.695-25.632c14.896,11.55-10.629,54.479-21.326,61.463
			C14.234,334.593,21.826,293.565,26.695,283.204z M18.026,360.28c-1.305-13.293,0.224-24.166,6.151-36.056
			c1.147,0.875,2.47,1.554,4.082,1.892c12.452,2.611,25.371-23.369,30.014-32.894c4.84-9.935,12.4-27.743,3.141-36.567
			c7.787-4.843,20.53-12.098,29.353-9.733c22.152,5.936,17.86,30.033,14.361,46.073c-4.185,19.185-13.466,36.66-23.437,52.834
			c-7.327,11.886-20.732,39.249-34.025,42.227C28.836,392.273,19.775,378.088,18.026,360.28z M85.456,549.477
			c-22.502-13.064-34.428-45.846-41.453-70.752c-5.519-27.136-6.082-54.649-6.111-82.335c0-0.21-0.114-0.323-0.186-0.473
			c13.723-1.691,27.768-22.091,34.296-31.397c18.3-26.088,46.323-69.125,37.238-104.85c-1.86-7.323-5.632-11.47-10.362-13.542
			c23.687-10.772,56.334-25.489,81.146-16.25c52.248,19.458,14.339,117.533,2.984,151.668
			c-11.618,34.924-21.727,70.015-29.346,106.269C147.324,517.974,137.945,579.949,85.456,549.477z M110.145,559.275
			c1.489-0.16,2.96-0.246,4.495-0.602c16.021-3.712,26.64-18.979,32.712-34.814c6.634-17.3,10.91-36.061,14.865-55.006
			c91.319-64.24,201.135-54.012,291.164,8.046c-0.313,7.878-0.711,15.767-1.199,23.653c-13.352-6.543-31.238-3.786-46.199-2.359
			c-0.088,0.01-0.121,0.089-0.197,0.115c-9.619-9.359-18.219-20.112-26.064-31.815c0.147-3.525-1.611-6.81-5.115-8.843
			c-0.051-0.03-0.093,0.007-0.143-0.014c-0.047-0.025-0.052-0.082-0.104-0.103c-4.87-1.834-12.985,2.189-15.938,6.61
			c-3.397,5.086-2.305,12.789,3.107,15.563c1.436,0.734,2.965,0.919,4.502,0.738c5.17,7.21,11.015,13.7,16.584,20.445
			c-9.658,3.238-21.143,7.511-27.745,16.172c-1.218,1.6-1.915,3.172-2.397,4.73c-71.812-41.67-165.752-23.354-219.076,44.037
			c-5.48,5.014-11.108,9.729-16.84,14.251C113.478,573.306,109.132,567.324,110.145,559.275z M441.599,525.572
			c0.177,9.672,1.917,18.717-4.587,26.642c-5.295,6.452-11.317,12.006-18.822,14.837c-0.309-16.766-11.923-32.172-19.407-46.031
			c-8.479-15.701-20.23-27.071-30.471-41.112c3.513-1.217,6.845-4.078,8.925-6.859c0.895-1.195,1.496-2.438,1.91-3.684
			C395.82,493.826,415.527,514.082,441.599,525.572z M373.673,459.7c11.124,6.655-4.849,23.241-12.378,17.173
			C352.069,469.438,366.024,457.019,373.673,459.7z M84.561,602.681c18.61-8.483,34.832-21.097,50.296-35.238
			c52.763-66.682,146.037-84.946,217.05-43.43c-0.748,6.489,3.985,12.401,9.406,16.828c15.692,11.513,31.715,23.286,43.123,40.116
			c11.447,16.89,11.229,34.502,17.258,53.279c0.727,2.267,1.571,4.257,2.51,6.029C312.004,678.759,191.059,649.356,84.561,602.681z
			 M511.821,635.235c-11.709,15.198-38.221,14.478-54.557,15.228c-16.828,1.111-29.541-0.929-34.627-20.914
			c-2.91-11.434-3.422-23.144-7.864-34.175c-10.261-25.478-32.097-41.595-52.416-56.5c-4.411-3.603-10.125-8.895-8.354-15.743
			c1.149-4.444,5.053-7.663,8.37-10.066c6.596-4.781,14.229-7.785,21.746-10.295c3.665,4.539,7.2,9.198,10.164,14.425
			c8.01,14.122,22.405,34.189,21.936,51.493c-0.001,0.1,0.067,0.138,0.082,0.225c0.018,0.089,0.053,0.148,0.085,0.231
			c0.073,0.168,0.132,0.326,0.266,0.421c0.11,0.107,0.255,0.122,0.409,0.159c0.088,0.016,0.156,0.04,0.244,0.032
			c0.081-0.005,0.135,0.06,0.225,0.03c8.955-2.93,16.407-9.699,22.295-17.594c5.995-8.04,3.908-17.712,3.82-27.357
			c-0.001-0.164-0.101-0.243-0.148-0.371c-0.015-0.05-0.034-0.09-0.057-0.141c-0.104-0.191-0.217-0.329-0.393-0.416
			c-0.066-0.048-0.08-0.135-0.161-0.17c-13.195-5.702-24.761-13.742-35.114-23.446c20.777-2.113,48.649-6.739,58.17,19.14
			c0.91,6.594,4.984,12.29,8.648,17.42c4.33,6.066,8.833,12.194,13.438,18.028c0.002,0.002-0.002,0.003,0,0.006
			C494.874,575.322,528.039,614.186,511.821,635.235z M488.889,552.454c-3.573-4.637-6.844-9.54-10.467-14.145
			c-4.027-5.118-8.953-11.721-10.24-18.59c38.773-19.166,69.166-51.101,98.499-84.255c2.134,3.594,5.958,6.321,9.396,7.701
			C543.653,476.254,511.223,509.974,488.889,552.454z M585.414,439.056c-1.884,3.392-5.515,3.138-8.332,2.065
			c-3.289-1.251-7.519-4.16-9.196-7.625c-1.608-3.324-0.721-7.676,2.258-9.693c1.902-1.288,3.578-0.949,5.683-0.563
			c3.896,0.628,7.25,3.02,9.083,6.948C586.072,432.678,586.842,436.482,585.414,439.056z"/>
	</g>
</g>
</svg>
