<?xml version="1.0" encoding="utf-8"?>
<!-- Generator: Adobe Illustrator 25.0.0, SVG Export Plug-In . SVG Version: 6.00 Build 0)  -->
<svg version="1.1" id="Layer_1" xmlns="http://www.w3.org/2000/svg" xmlns:xlink="http://www.w3.org/1999/xlink" x="0px" y="0px"
	 viewBox="0 0 400 400" style="enable-background:new 0 0 400 400;" xml:space="preserve">
<g>
	<g>
		<path d="M152.7,301c-13.9,11.8-29.4,19.2-46.8,23c-12.2,2.6-23.4,1.5-33.3-6.7c-4.4-3.6-7.6-8.1-9.8-13.3
			c-11.5-27.2-15.8-55.5-12.9-84.9c4.6-47.6,27.1-85.8,63.2-116.3c19.5-16.4,41.7-27.9,66.8-32.6c38.9-7.2,75.6-0.2,109,21.1
			c39.4,25.1,63,61.2,70.3,107.3c5.8,36.1-1.1,69.9-23.8,99.3c-19.5,25.3-45.4,40.6-77.1,45c-40.1,5.5-73.8-7.2-101.3-36.8
			C155.5,304.5,154.2,302.8,152.7,301z M207.5,76.7c-14.9,0.1-29.6,1.9-43.5,7.2c-51.8,19.9-84.7,57.4-100.7,110
			c-5.5,18.3-6.2,37.1-4.7,56.1c1.4,17.4,5.6,34.2,12.3,50.3c4.3,10.3,14.5,17,24.8,16c18.8-1.9,35.3-9.2,49.8-21.2
			c1.6-1.3,1.6-2.2,0.7-4c-15.4-27.2-17.5-55.9-8.5-85.4c6.9-22.7,19.2-42.4,39.2-55.8c33.3-22.2,68.3-21.3,101.9-1.6
			c39.2,23,46.3,76.5,15.6,110.2c-16.2,17.8-36.8,22.1-59.7,16.6c-27.6-6.6-43.9-30.6-38.7-57.4c4.1-21.3,22.6-41.1,51.6-33.8
			c25.2,6.3,34.8,34.8,18.1,53.7c-12.3,13.9-36,10.9-43.6-5.5c-3.7-7.9-1.7-18.8,4.4-24.4c2-1.8,4.6-2,6.4-0.3
			c1.9,1.8,2,3.9,0.5,6.1c-0.3,0.4-0.7,0.8-1,1.2c-4.4,5.6-4.1,12.6,0.9,17.8c7,7.2,19.8,6.5,26.3-1.4c9-10.9,6.6-26.9-5.3-34.5
			c-8.3-5.3-17.4-6.6-26.8-3.9c-15.6,4.5-26.2,23.6-22.9,40.7c2.8,14.8,11.3,24.9,25.1,30.6c20.3,8.4,42.9,4.4,56.9-10.1
			c26-26.8,23-70.9-6.5-93.9c-12.8-10-27.6-14.7-43.6-16.3c-22-2.3-42.2,2.6-59.1,17.1c-23.7,20.3-35.2,46.7-35.7,77.8
			c-0.4,21.8,5.7,41.7,19.7,58.4c25,29.8,57.4,42.4,95.9,36.8c36.5-5.3,64-24.9,81.2-57.6c15.8-29.9,17.1-61.6,7.9-93.7
			C328.4,119.5,272,76.7,207.5,76.7z"/>
		<path d="M307.3,138.4c-1.2,1.4-2.1,3.3-3.3,3.7c-1.6,0.4-3.9,0-5.1-1c-3.9-3.3-7.3-7.2-11.2-10.6c-8.7-7.7-18.4-14-28.9-18.8
			c-0.9-0.4-1.8-0.8-2.6-1.2c-2.6-1.5-3.5-3.8-2.3-6.1c1.2-2.4,3.6-3.3,6.2-1.9c7.7,4.2,15.7,7.9,22.8,13
			c7.7,5.5,14.5,12.3,21.5,18.7C305.5,135,306.1,136.6,307.3,138.4z"/>
		<path d="M327.6,168.1c-1.6,1.7-2.6,3.6-4,4c-1.4,0.4-4-0.2-4.7-1.3c-2.3-3.4-4.3-7.1-5.8-11c-0.5-1.2,0.6-3.6,1.8-4.5
			c1-0.8,4-0.9,4.6-0.1C322.3,159,324.7,163.4,327.6,168.1z"/>
	</g>
</g>
</svg>
