<?xml version="1.0" encoding="utf-8"?>
<!-- Generator: Adobe Illustrator 16.0.0, SVG Export Plug-In . SVG Version: 6.00 Build 0)  -->
<!DOCTYPE svg PUBLIC "-//W3C//DTD SVG 1.1//EN" "http://www.w3.org/Graphics/SVG/1.1/DTD/svg11.dtd">
<svg version="1.1" id="Layer_1" xmlns="http://www.w3.org/2000/svg" xmlns:xlink="http://www.w3.org/1999/xlink" x="0px" y="0px"
	 width="595.279px" height="841.891px" viewBox="0 0 595.279 841.891" enable-background="new 0 0 595.279 841.891"
	 xml:space="preserve">
<g>
	<g>
		<path fill="#008AAA" d="M529.353,225.991c-0.446,1.339-1.042,2.679-1.488,4.167c-7.59,22.174-35.568,28.574-51.641,11.459
			c-2.381-2.53-4.019-2.53-6.846-1.339c-27.681,12.203-51.641,29.615-71.88,52.087c-1.042,1.042-1.935,2.232-3.274,3.87
			c8.186-1.637,15.626-4.018,23.216-4.613c8.334-0.595,12.947-3.572,17.114-11.162c9.078-16.37,31.55-19.198,45.837-7.144
			c5.06,4.316,9.674,9.078,14.287,13.84c5.655,6.102,5.506,14.882-0.149,20.984c-3.721,4.018-7.44,7.887-11.311,11.608
			c-17.263,16.816-44.199,10.715-52.533-12.055c-0.148-0.595-0.298-1.19-0.744-2.083c-16.072,1.339-31.55,5.209-46.432,11.013
			c2.53,11.162,5.06,22.174,7.738,33.336c7.293-1.042,15.18-2.53,23.217-3.423c15.923-1.637,31.55,0.446,46.878,5.06
			c8.334,2.53,12.352,11.013,10.269,19.942c-5.655,23.663-16.072,44.944-30.955,64.141c-0.595,0.894-1.339,1.638-2.231,2.828
			c2.231,2.827,4.464,5.506,6.696,8.334c12.353,16.072,21.133,33.931,26.192,53.575c2.679,10.566-1.935,18.603-12.501,21.281
			c-24.108,6.102-48.218,6.548-72.476,0.893c-1.339-0.298-2.827-0.595-4.91-1.042c1.785,6.103,3.423,11.46,5.06,16.817
			c3.571,12.054-3.274,21.579-15.924,21.728c-4.167,0-8.482,0-12.649,0c-7.144,0.148-12.501-2.53-16.222-8.78
			c-1.637-2.679-3.423-5.209-5.507-8.186c-2.231,3.274-4.166,5.953-5.952,8.93c-3.423,5.357-8.334,8.036-14.733,8.036
			c-4.762,0-9.673,0.148-14.436,0c-11.607-0.298-18.453-9.674-15.328-20.686c1.637-5.655,3.274-11.162,5.209-17.562
			c-3.87,0.744-7.293,1.34-10.566,2.232c-0.744,0.149-1.637,1.637-1.786,2.53c-3.125,22.174-6.548,44.349-8.929,66.671
			c-1.488,14.139-1.638,28.574-2.53,42.86c-0.596,10.864-6.697,16.37-17.412,16.37c-4.315,0-8.78,0.149-13.096,0
			c-9.376-0.148-15.775-6.846-15.775-16.072c0-2.232-0.298-4.613,0.298-6.697c1.935-7.44-1.786-11.31-7.441-15.328
			c-17.561-12.203-35.419-12.947-53.872-2.381c-14.287,8.185-25.002,20.091-35.271,32.591c-2.679,3.274-6.399,6.399-10.269,7.59
			c-9.376,2.977-19.05-4.315-19.198-14.286c-0.148-17.114,1.935-33.931,8.632-50.004c7.888-19.049,21.579-31.55,41.967-36.312
			c24.556-5.805,48.218-4.763,69.499,10.565c3.274,2.382,6.251,5.061,9.674,7.888c2.381-14.882,4.762-29.615,6.994-44.646
			c-6.102-1.34-12.055-2.382-18.007-3.87c-10.418-2.529-15.329-10.863-12.353-21.132c6.251-21.728,16.37-41.372,30.806-58.784
			c0.744-0.893,1.488-1.935,2.232-2.977c-10.715-13.245-19.645-27.531-25.746-43.455c-2.827-7.59-5.357-15.329-7.44-23.216
			c-2.679-9.822,2.232-18.305,12.203-20.686c8.78-2.083,17.71-3.125,26.639-4.614c2.232-0.297,4.465-0.446,7.144-0.744
			c-7.441-15.328-18.603-25.597-33.782-31.847c-12.501-5.06-25.895-7.144-39.14-7.888c-12.947-0.595-25.895-0.149-39.586-0.149
			c0.148-0.148-0.298,0.596-0.596,1.34c-7.888,22.472-33.187,29.317-51.194,13.691c-4.613-4.019-8.929-8.632-12.947-13.245
			c-5.655-6.25-5.506-14.733,0.298-20.984c4.019-4.464,8.334-8.78,12.649-12.798c15.924-14.584,41.67-8.632,49.855,11.459
			c1.19,2.977,2.679,4.019,5.804,4.019c19.049-0.149,37.949,0.148,56.7,3.571c17.264,3.125,33.336,8.929,46.878,20.686
			c0.447,0.447,1.042,0.595,2.084,1.339c-8.186-26.043-21.133-48.366-39.288-68.16c-7.144,3.721-14.585,4.911-22.323,3.125
			c-13.989-3.125-23.812-15.329-24.258-30.062c-0.148-3.572,0.148-7.292,0-10.864c-0.744-9.524,2.679-16.37,11.607-20.239
			c8.483,0,16.817,0,25.3,0c0.893,0.446,1.786,0.893,2.828,1.19c18.155,5.804,27.085,25.002,19.346,42.414
			c-1.339,2.977-0.595,4.465,1.191,6.548c13.691,15.18,24.704,32.294,32.889,51.045c7.292,16.667,12.203,33.931,14.436,51.938
			c0.298,1.935,1.19,4.911,2.53,5.357c4.167,1.637,8.78,2.232,12.947,3.125c1.19-6.548,1.935-12.799,3.274-18.9
			c6.25-26.936,20.983-49.11,39.883-68.606c6.399-6.697,17.264-6.548,23.365,0.744c8.036,9.524,15.328,19.644,22.918,29.615
			c0.744,1.042,1.34,2.083,2.084,3.125c0.744-0.595,1.041-0.893,1.339-1.19c23.514-31.699,53.575-55.063,89.888-70.689
			c1.19-0.595,2.529-2.828,2.529-4.316c0.298-14.436,9.078-26.043,22.77-30.359c0.894-0.297,1.638-0.744,2.382-1.042
			c8.482,0,16.816,0,25.299,0c5.655,2.083,9.674,6.102,11.757,11.757C529.353,209.77,529.353,217.806,529.353,225.991z
			 M483.219,298.168c-4.019-4.167-7.59-7.887-11.162-11.608c-6.399-6.25-15.774-6.399-22.323-0.446
			c-6.102,5.655-6.548,15.626-1.041,22.025c5.804,6.548,15.328,7.441,22.174,1.637C475.182,306.205,478.903,302.187,483.219,298.168
			z M82.297,298.764c2.828,2.977,5.953,6.25,8.93,9.524c0.893,1.042,1.935,1.935,2.977,2.828c6.548,5.06,15.626,4.316,21.281-1.637
			c5.506-5.804,5.655-15.478,0.298-21.43c-5.507-6.102-15.031-7.292-21.133-2.083C90.185,289.537,86.614,294.15,82.297,298.764z
			 M513.875,205.305c-6.102,0-11.607-0.446-17.114,0.149c-8.78,0.893-14.286,7.739-13.691,16.519
			c0.446,7.888,6.995,13.989,15.031,13.989c8.482,0.148,15.328-6.102,15.924-14.733
			C514.173,216.168,513.875,211.109,513.875,205.305z M174.417,205.305c0,5.506-0.149,10.417,0,15.329
			c0.148,9.227,6.399,15.477,15.18,15.626c8.632,0,15.626-6.548,15.774-15.18c0.149-8.334-6.548-15.328-15.328-15.626
			C185.132,205.007,180.073,205.305,174.417,205.305z"/>
	</g>
</g>
<path fill="#FFFFFF" d="M271.15,465.74c0,0-13.135,7.455-15.385,9.33s-5.625,5-1.625,11.375c0,0,2.625,2.563,4.75,2.5
	s2.65-0.125,4.075-1.031s22.55-13.594,22.55-13.594s4.292-2.292,5.708-2.208s1.75,0.167,1.75,0.167L271.15,465.74z"/>
<path fill="#FFFFFF" d="M307.462,411.271c0,0-25.197-14.576-28.322-16.076s-7.5-1.125-9.25,0.875s-4.5,8,0.875,11.375
	s18.125,10.875,21.875,13s6.862,3.268,6.75,6.125C299.39,426.57,301.034,416.723,307.462,411.271z"/>
<path fill="#FFFFFF" d="M344.072,382.401l-8.432,9.044l-7.046-8.598c0,0,0.287-22.328,0-23.365s1.861-7.809,8.037-7.59
	s7.51,5.72,7.343,6.886S344.072,382.401,344.072,382.401z"/>
<path fill="#FFFFFF" d="M373.092,424.963c0,0-3.702-10.268-9.702-15.268c0,0,1.938,1.563,4.438,0.125s25.188-14.563,26.688-15.375
	s8.438-3.5,11.438,5.438c0,0,1.125,5-3.5,7.813S373.092,424.963,373.092,424.963z"/>
<path fill="#FFFFFF" d="M402.112,464.996c0,0-20.409,6.762-23.222,7.262c0,0,2.438-0.875,5.094,0.531s23.989,14.324,25.489,14.907
	s5.084,2.499,8.334,0.416s3.666-5.75,3.666-6.583s0.083-3.917-3-6.25S402.112,464.996,402.112,464.996z"/>
</svg>
