<?xml version="1.0" encoding="utf-8"?>
<!-- Generator: Adobe Illustrator 25.0.0, SVG Export Plug-In . SVG Version: 6.00 Build 0)  -->
<svg version="1.1" id="Layer_1" xmlns="http://www.w3.org/2000/svg" xmlns:xlink="http://www.w3.org/1999/xlink" x="0px" y="0px"
	 viewBox="0 0 400 400" style="enable-background:new 0 0 400 400;" xml:space="preserve">
<g>
	<g>
		<path d="M355.7,69c-0.3,0.9-0.7,1.8-1,2.8c-5.1,14.9-23.9,19.2-34.7,7.7c-1.6-1.7-2.7-1.7-4.6-0.9c-18.6,8.2-34.7,19.9-48.3,35
			c-0.7,0.7-1.3,1.5-2.2,2.6c5.5-1.1,10.5-2.7,15.6-3.1c5.6-0.4,8.7-2.4,11.5-7.5c6.1-11,21.2-12.9,30.8-4.8
			c3.4,2.9,6.5,6.1,9.6,9.3c3.8,4.1,3.7,10-0.1,14.1c-2.5,2.7-5,5.3-7.6,7.8c-11.6,11.3-29.7,7.2-35.3-8.1c-0.1-0.4-0.2-0.8-0.5-1.4
			c-10.8,0.9-21.2,3.5-31.2,7.4c1.7,7.5,3.4,14.9,5.2,22.4c4.9-0.7,10.2-1.7,15.6-2.3c10.7-1.1,21.2,0.3,31.5,3.4
			c5.6,1.7,8.3,7.4,6.9,13.4c-3.8,15.9-10.8,30.2-20.8,43.1c-0.4,0.6-0.9,1.1-1.5,1.9c1.5,1.9,3,3.7,4.5,5.6
			c8.3,10.8,14.2,22.8,17.6,36c1.8,7.1-1.3,12.5-8.4,14.3c-16.2,4.1-32.4,4.4-48.7,0.6c-0.9-0.2-1.9-0.4-3.3-0.7
			c1.2,4.1,2.3,7.7,3.4,11.3c2.4,8.1-2.2,14.5-10.7,14.6c-2.8,0-5.7,0-8.5,0c-4.8,0.1-8.4-1.7-10.9-5.9c-1.1-1.8-2.3-3.5-3.7-5.5
			c-1.5,2.2-2.8,4-4,6c-2.3,3.6-5.6,5.4-9.9,5.4c-3.2,0-6.5,0.1-9.7,0c-7.8-0.2-12.4-6.5-10.3-13.9c1.1-3.8,2.2-7.5,3.5-11.8
			c-2.6,0.5-4.9,0.9-7.1,1.5c-0.5,0.1-1.1,1.1-1.2,1.7c-2.1,14.9-4.4,29.8-6,44.8c-1,9.5-1.1,19.2-1.7,28.8c-0.4,7.3-4.5,11-11.7,11
			c-2.9,0-5.9,0.1-8.8,0c-6.3-0.1-10.6-4.6-10.6-10.8c0-1.5-0.2-3.1,0.2-4.5c1.3-5-1.2-7.6-5-10.3c-11.8-8.2-23.8-8.7-36.2-1.6
			c-9.6,5.5-16.8,13.5-23.7,21.9c-1.8,2.2-4.3,4.3-6.9,5.1c-6.3,2-12.8-2.9-12.9-9.6c-0.1-11.5,1.3-22.8,5.8-33.6
			c5.3-12.8,14.5-21.2,28.2-24.4c16.5-3.9,32.4-3.2,46.7,7.1c2.2,1.6,4.2,3.4,6.5,5.3c1.6-10,3.2-19.9,4.7-30
			c-4.1-0.9-8.1-1.6-12.1-2.6c-7-1.7-10.3-7.3-8.3-14.2c4.2-14.6,11-27.8,20.7-39.5c0.5-0.6,1-1.3,1.5-2
			c-7.2-8.9-13.2-18.5-17.3-29.2c-1.9-5.1-3.6-10.3-5-15.6c-1.8-6.6,1.5-12.3,8.2-13.9c5.9-1.4,11.9-2.1,17.9-3.1
			c1.5-0.2,3-0.3,4.8-0.5c-5-10.3-12.5-17.2-22.7-21.4c-8.4-3.4-17.4-4.8-26.3-5.3c-8.7-0.4-17.4-0.1-26.6-0.1
			c0.1-0.1-0.2,0.4-0.4,0.9c-5.3,15.1-22.3,19.7-34.4,9.2c-3.1-2.7-6-5.8-8.7-8.9c-3.8-4.2-3.7-9.9,0.2-14.1c2.7-3,5.6-5.9,8.5-8.6
			c10.7-9.8,28-5.8,33.5,7.7c0.8,2,1.8,2.7,3.9,2.7c12.8-0.1,25.5,0.1,38.1,2.4c11.6,2.1,22.4,6,31.5,13.9c0.3,0.3,0.7,0.4,1.4,0.9
			c-5.5-17.5-14.2-32.5-26.4-45.8c-4.8,2.5-9.8,3.3-15,2.1c-9.4-2.1-16-10.3-16.3-20.2c-0.1-2.4,0.1-4.9,0-7.3
			c-0.5-6.4,1.8-11,7.8-13.6c5.7,0,11.3,0,17,0c0.6,0.3,1.2,0.6,1.9,0.8c12.2,3.9,18.2,16.8,13,28.5c-0.9,2-0.4,3,0.8,4.4
			c9.2,10.2,16.6,21.7,22.1,34.3c4.9,11.2,8.2,22.8,9.7,34.9c0.2,1.3,0.8,3.3,1.7,3.6c2.8,1.1,5.9,1.5,8.7,2.1
			c0.8-4.4,1.3-8.6,2.2-12.7c4.2-18.1,14.1-33,26.8-46.1c4.3-4.5,11.6-4.4,15.7,0.5c5.4,6.4,10.3,13.2,15.4,19.9
			c0.5,0.7,0.9,1.4,1.4,2.1c0.5-0.4,0.7-0.6,0.9-0.8c15.8-21.3,36-37,60.4-47.5c0.8-0.4,1.7-1.9,1.7-2.9c0.2-9.7,6.1-17.5,15.3-20.4
			c0.6-0.2,1.1-0.5,1.6-0.7c5.7,0,11.3,0,17,0c3.8,1.4,6.5,4.1,7.9,7.9C355.7,58.1,355.7,63.5,355.7,69z M216.9,186.2
			c-19.4-23.8-42-30.6-71.8-21.9c5.1,18,11.8,35.1,27.2,47.2c9.5,7.5,26.7,14.4,32.2,13.4c-3.6-6-5-12.4-3.4-19.2
			c0.6-2.6-0.2-3.6-2.2-4.7c-5.5-3-11-6.1-16.2-9.5c-1.5-0.9-2.8-3.2-2.9-4.8c0-1.5,1.5-3.8,2.9-4.3c1.5-0.6,4-0.3,5.6,0.6
			c6.3,3.4,12.5,7.1,18.3,10.5C210.1,190.8,213.4,188.6,216.9,186.2z M247.3,225.4c14.4-3,27.2-8.3,37.4-18.4
			c10.4-10.2,16.2-23.1,20.3-36.8c2.3-7.6,3.1-6.2-4.6-7.9c-21.6-4.6-41-0.7-57.2,15.1c-2.9,2.8-5.7,5.6-8.3,8.3
			c3.1,2.1,6,3.8,8.5,6c1.6,1.4,2.6,1.6,4.4,0.5c5.6-3.4,11.3-6.7,17-9.9c2.8-1.6,5.9-0.7,7.4,1.9c1.4,2.5,0.6,5.3-2,7.1
			c-1.3,0.8-2.6,1.5-3.9,2.3c-5.2,3-10.4,6.1-15.6,9.1C252.9,210.7,251.8,218,247.3,225.4z M226,101.8c-7.5,7.2-13.4,15.2-17.9,24.2
			c-4.5,9.1-7.8,18.6-8.1,29c0,2,0.6,3.2,2.3,4.4c5.2,3.8,10.2,7.9,15.3,12c1,0.8,1.8,1.7,3.2,3c0-4.7,0-8.7,0-12.7c0-1-0.1-2,0-3
			c0.2-3,2.6-5.2,5.4-5.1c2.8,0.1,4.9,2.1,5,5.1c0.1,4.9,0,9.8,0,15.4c1.2-1,1.8-1.6,2.5-2.2c5.3-4.2,10.6-8.5,16-12.5
			c1.7-1.2,2.3-2.4,2.3-4.4c-0.1-8.7-2.7-16.7-6.2-24.5C240.9,119.8,234.2,110.4,226,101.8z M249.8,283.4c-0.3-1.2-0.6-2.2-0.9-3.1
			c-4.6-15.2-9-30.4-13.8-45.5c-1.8-5.6-1.3-10,2.8-14.5c4.9-5.5,4.6-14,0-19.5c-4.8-5.7-12.8-7.2-19.3-3.7
			c-8.8,4.8-10.9,16-4.2,23.9c3.4,3.9,4.2,7.9,2.6,12.9c-4.9,15.5-9.5,31.1-14.2,46.7c-0.2,0.8-0.4,1.7-0.7,2.8
			c3.1,0,5.8,0.2,8.5-0.1c1.2-0.1,2.6-0.9,3.4-1.8c1.9-2.1,3.5-4.5,5.1-6.8c0.7-1.1,1.5-2.4,1.6-3.6c0.2-4.6,0-9.1,0.1-13.7
			c0.1-3,2.6-5.2,5.3-5.1c2.7,0.1,4.9,2.2,5,5.1c0.1,2.8,0.1,5.7,0.1,8.5c0,4,0.6,7.2,3.1,11c3.8,5.7,8,7.5,14.2,6.8
			C248.8,283.4,249.1,283.4,249.8,283.4z M246.6,236.3c1.8,5.7,3.5,11.1,5.1,16.6c0.5,1.8,1.4,2.8,3.2,3.5c9,3.5,18.4,4.5,28,4.3
			c8-0.2,15.9-1.3,23.8-3.4c-3.4-14.5-9.8-27-19.4-37.8c-5.9,3.5-11.5,6.8-17.1,10.1c0.2,0.2,0.3,0.4,0.5,0.5
			c2.9,1.7,5.7,3.5,8.6,5.2c3.8,2.3,4.9,5,3.2,7.9c-1.7,3-4.7,3.4-8.7,1c-5-2.9-9.9-6-14.9-8.9c-0.9-0.5-2.1-1.1-3-1
			C252.8,234.8,249.9,235.6,246.6,236.3z M145.1,257.6c5.4,0.9,10.7,2.1,15.9,2.6c12.2,1.2,24.3,0.6,35.9-3.8c1-0.4,2.3-1,2.5-1.8
			c2-6,3.8-12.1,5.7-18.3c-2.7-0.5-5.2-0.7-7.4-1.5c-2.1-0.7-3.6-0.2-5.4,0.8c-5.2,3.2-10.4,6.3-15.6,9.4c-2.4,1.4-4.8,0.7-6.3-1.6
			c-1.6-2.5-0.9-5.5,1.9-7.3c3.3-2.1,6.6-4.1,9.9-6c-5.9-3.5-11.5-6.8-17.2-10.2C155.8,230.8,149.2,243.2,145.1,257.6z M149.6,321
			c-0.4-2.2,0-4.8-1.1-6.3c-2.9-3.8-6.2-7.6-9.9-10.5c-10.9-8.5-23.3-9-36.4-6.4c-11.6,2.3-19.4,8.8-23.3,19.8
			c-1.8,5.1-2.9,10.5-3.9,15.8c-0.7,3.7-0.6,7.5-0.8,11.2c1.7-1.2,2.8-2.6,3.9-3.9c8-9.4,16.7-17.9,28-23.3c8.8-4.2,18.1-6,27.7-3.1
			C138.9,315.8,143.9,318.5,149.6,321z M168.9,345.5c0.4-25,3-49.6,7.4-74.2c-3.2,0-6,0-8.8,0c-0.4,0-0.8,0.1-1.3,0.2
			c-4.8,24.5-7.4,49-7.5,74C162.2,345.5,165.4,345.5,168.9,345.5z M324.7,117.5c-2.7-2.8-5.1-5.3-7.5-7.8c-4.3-4.2-10.6-4.3-15-0.3
			c-4.1,3.8-4.4,10.5-0.7,14.8c3.9,4.4,10.3,5,14.9,1.1C319.3,122.9,321.8,120.2,324.7,117.5z M55.3,117.9c1.9,2,4,4.2,6,6.4
			c0.6,0.7,1.3,1.3,2,1.9c4.4,3.4,10.5,2.9,14.3-1.1c3.7-3.9,3.8-10.4,0.2-14.4c-3.7-4.1-10.1-4.9-14.2-1.4
			C60.6,111.7,58.2,114.8,55.3,117.9z M345.3,55.1c-4.1,0-7.8-0.3-11.5,0.1c-5.9,0.6-9.6,5.2-9.2,11.1c0.3,5.3,4.7,9.4,10.1,9.4
			c5.7,0.1,10.3-4.1,10.7-9.9C345.5,62.4,345.3,59,345.3,55.1z M117.2,55.1c0,3.7-0.1,7,0,10.3c0.1,6.2,4.3,10.4,10.2,10.5
			c5.8,0,10.5-4.4,10.6-10.2c0.1-5.6-4.4-10.3-10.3-10.5C124.4,54.9,121,55.1,117.2,55.1z"/>
	</g>
</g>
</svg>
