<?xml version="1.0" encoding="utf-8"?>
<!-- Generator: Adobe Illustrator 25.0.0, SVG Export Plug-In . SVG Version: 6.00 Build 0)  -->
<svg version="1.1" id="Layer_1" xmlns="http://www.w3.org/2000/svg" xmlns:xlink="http://www.w3.org/1999/xlink" x="0px" y="0px"
	 viewBox="0 0 400 400" style="enable-background:new 0 0 400 400;" xml:space="preserve">
<style type="text/css">
	.st0{stroke:#000000;stroke-width:15;stroke-linecap:round;stroke-linejoin:round;stroke-miterlimit:10;}
</style>
<path class="st0" d="M-164.3,299.8"/>
<g>
	<g>
		<path d="M285.4,21.8c5.1,1.1,10.2,2,15.2,3.4c33.8,9.6,58.5,39.5,61.6,74.4c2.3,26-3.8,49.5-21,69.7c-0.8,0.9-1.2,2.5-1.2,3.8
			c-0.4,22.1-5.1,43.3-14.1,63.4c-18,40.1-49,64.6-91.1,75.9c-4,1.1-6.9-0.5-7.8-3.8c-0.8-3,1.1-5.7,5-6.7
			c18.6-5,35.8-12.9,50.7-25.3c21.1-17.6,34-40.2,40.9-66.5c2.3-8.6,3.3-17.5,4.9-26.3c0.2-0.9,0-1.8,0-3c-3.1,1.8-5.9,3.6-8.8,5.2
			c-3.3,1.8-6.3,1.1-7.9-1.7c-1.7-2.8-0.7-6,2.7-7.9c26.2-14.9,37.1-38.4,37.1-67.5c0.1-35.3-21.8-64.2-54.9-73.6
			c-43.3-12.3-88.6,17.3-94.4,61.8c-0.4,3-0.6,6-0.7,9c-0.2,4.6-2,7-5.6,7c-3.6,0-5.3-2.2-5.4-6.9c0-0.3-0.1-0.7-0.2-1.8
			c-25.5,18.2-48.1,38.6-64.1,65.5c-16,26.9-22.4,56.7-27,87.9c3.3-3.6,6-6.7,8.8-9.8c1.1-1.2,2.1-2.5,3.3-3.6
			c2.5-2.4,5.5-2.6,7.8-0.6c2.2,2,2.4,5.2,0.3,7.8c-5.1,5.9-10.3,11.7-15.5,17.5c-14,15.8-28.1,31.6-42.1,47.4
			c-0.8,0.8-1.4,1.8-1.8,3.3c5.4-1.4,10.9-2.8,16.3-4.4c25.1-7.1,49.9-15.4,72.5-28.7c8.5-5,16.2-11.6,24.2-17.5
			c0.9-0.7,1.5-1.6,2.2-2.3c-5.6-1-11.1-1.8-16.5-3c-3.9-0.9-5.6-3.7-4.9-6.7c0.8-3.2,3.9-4.8,7.8-3.6c23.7,7.3,48.2-9.5,56.9-27.9
			c-1.9,0.3-3.5,0.6-5.2,0.9c-3.3,0.6-6.1-1.1-6.7-4c-0.7-3.4,1.1-6.1,4.8-6.7c8.9-1.5,17.5-3.8,25.5-7.9
			c8.9-4.6,16.7-10.5,21.5-19.7c1.6-3.1,4.6-4.1,7.3-2.7c2.8,1.4,3.9,4.5,2.3,7.7c-4.3,8.6-10.9,15-18.9,20.1
			c-4.4,2.8-9.3,4.7-13.8,7.3c-1.5,0.8-3.1,2.1-3.7,3.6c-7.7,17.7-20.1,30.7-38.1,38.2c-0.9,0.4-1.9,1-2.4,1.7
			c-9.3,14.4-22.7,24.1-37.2,32.4c-23.1,13.2-48,22.1-73.5,29.2c-11.6,3.2-23.4,5.7-35.1,8.6c-3,0.7-5.3,0-6.8-2.7
			c-1.4-2.6-0.4-4.8,1.5-6.9c14.5-16.3,29.1-32.6,43.5-49c1.6-1.9,2.8-4.5,3.2-7c2.9-19.5,6-38.9,11.1-58
			c9.8-36.5,29.2-67.1,57.5-91.8c11-9.6,23-18.1,34.4-27.2c1.5-1.2,2.9-3,3.5-4.8C203.6,51.2,227,30,263.3,22.8
			c1.6-0.3,3.1-0.6,4.7-0.9C273.8,21.8,279.6,21.8,285.4,21.8z"/>
		<path d="M276.7,67.8c6-5.6,12.8-9.7,21-11c16.9-2.8,30.2,3.5,40,16.9c11.4,15.6,11.4,32.9,5.4,50.5c-8.8,25.8-30.9,42.3-58.2,44.2
			c-16,1.1-31.3-0.6-45.4-8.6c-18.3-10.4-28.4-26.5-32-46.9c-2.7-15.6,0.3-30,10.8-42.4c14.4-17,38.6-19.2,55.7-4.9
			C274.8,66.2,275.7,66.9,276.7,67.8z M277.7,157.9c1.6-0.1,4.7-0.3,7.7-0.6c26.1-2.7,43.8-18.3,49.3-43.7c3-13.9,1.1-26.9-9.2-37.5
			c-12.2-12.6-31.3-11.9-42.7,1.4c-4.9,5.7-7.2,5.6-12.1,0c-10.1-11.7-26.5-13.8-38.8-4.8c-6.2,4.5-10.6,10.6-12.5,18
			c-4.9,19.3,0.6,36.1,13.6,50.4C244.4,153.7,259.7,157.6,277.7,157.9z"/>
		<path d="M55.7,351.3c5.9-2.5,10.9-4.6,16-6.8c4.5-1.9,8.9-3.8,13.4-5.8c2.9-1.2,5.5-0.9,7.4,1.8c1.7,2.5,1.1,5.2-1.7,7.6
			c-3.5,3.1-7.1,6-11.1,9.5c1.2-0.3,1.8-0.3,2.3-0.5c32.1-12.9,62.8-28.3,90.6-49.1c19.4-14.5,36.9-30.9,48.7-52.4
			c3.9-7.2,6.7-15,9.7-22.6c1.6-4,3.8-6,6.9-5.2c3.6,1,4.8,3.9,3.5,8.4c-6.8,23.3-20.3,42.3-37.3,59.1c-22.2,22-48.2,38.5-75.7,52.7
			c-23,11.9-46.9,21.8-71.5,29.7c-1,0.3-2,0.7-3,0.9c-2.7,0.5-5.3-0.4-6-3c-0.5-1.9,0.1-4.6,1.2-6.2c1.5-2.2,4-3.7,5.7-6
			c-3,1.2-5.9,2.5-8.9,3.7c-2.6,1.1-5,1.1-7-1.2c-1.8-2.1-1.6-4.4-0.3-6.8c3.4-6.2,6.8-12.4,10.2-18.6c2-3.6,4.8-4.6,7.7-3
			c3,1.6,3.6,4.8,1.7,8.4C57.8,347.6,56.9,349,55.7,351.3z"/>
		<path d="M213.6,344.4c7.8-1.2,15.3-2.3,22.7-3.5c6.5-1,13.1-1.9,19.6-3.1c10.2-1.9,26.6,10.3,23.9,21.3c-0.8,3.1-2.4,6.2-4.3,8.9
			c-1.9,2.5-5.2,2.4-7.4,0.4c-2.2-2.1-2.5-4.6-0.8-7.2c2.8-4.3,2.4-5-1.2-8.5c-3.7-3.6-7.8-4.2-12.8-3.3
			c-15.1,2.6-30.2,4.8-45.4,7.1c-4.4,0.7-7.6-2.5-6.8-6.9c3.2-17,6.5-33.9,9.8-50.9c0.7-3.8,3.5-5.9,6.6-5.2c3.4,0.7,5,3.6,4.2,7.6
			c-2.7,13.8-5.4,27.5-8,41.3C213.6,342.7,213.6,343.2,213.6,344.4z"/>
		<path d="M185.2,342.7c-1.8-6.3-3.5-12.1-5.2-18c-1.1-3.7,0.3-6.5,3.4-7.5c3-1,5.9,0.8,7,4.6c2.7,9,5.3,18,7.9,27
			c1.5,5.2-1.9,8.6-7.3,7.2c-3.9-1-7.9-2-11.7-3.2c-2.5-0.7-4.4,0.3-5,2.4c-0.4,1.4,0.4,3.6,1.5,4.7c2.9,3,3.7,5.5,1.6,8.2
			c-2,2.5-5.3,2.7-8.4,0.5c-5.4-3.8-7.5-10.8-5.1-17c2.5-6.4,8.8-10.4,15.3-9.8C181,341.9,182.9,342.3,185.2,342.7z"/>
		<path d="M248.1,121c-9.3,0-17-7.6-16.8-16.8c0.1-9,7.7-16.6,16.7-16.7c9.2,0,16.8,7.7,16.8,16.9C264.7,113.6,257.3,121,248.1,121z
			 M248.1,110.1c3.1,0,5.8-2.7,5.8-5.8c0-3-2.7-5.8-5.8-5.8c-3.2-0.1-6.1,2.8-6,5.9C242.3,107.5,245,110.2,248.1,110.1z"/>
		<path d="M321.8,104.3c0,9.4-7.4,16.7-16.8,16.7c-9.1-0.1-16.6-7.6-16.7-16.6c0-9.1,7.8-16.9,16.9-16.8
			C314.4,87.6,321.8,95.1,321.8,104.3z M311,104.4c0.1-3.1-2.6-5.8-5.7-5.9c-3.3-0.1-6,2.6-6,5.9c0,3.1,2.7,5.7,5.8,5.7
			C308.3,110.1,311,107.5,311,104.4z"/>
		<path d="M276.7,122.5c0.9-1.1,1.7-2.1,2.5-3c2.2-2.4,5.1-2.7,7.5-1c2.4,1.8,3,4.8,1.2,7.4c-2.2,3.1-4.5,6.2-6.9,9.1
			c-2.4,2.8-6,2.8-8.4-0.1c-2.4-2.8-4.7-5.7-6.9-8.7c-1.9-2.6-1.4-5.9,1-7.7c2.3-1.8,5.2-1.4,7.4,1
			C274.9,120.4,275.7,121.4,276.7,122.5z"/>
	</g>
</g>
</svg>
