<?xml version="1.0" encoding="utf-8"?>
<!-- Generator: Adobe Illustrator 25.0.0, SVG Export Plug-In . SVG Version: 6.00 Build 0)  -->
<svg version="1.1" id="Layer_1" xmlns="http://www.w3.org/2000/svg" xmlns:xlink="http://www.w3.org/1999/xlink" x="0px" y="0px"
	 viewBox="0 0 400 400" style="enable-background:new 0 0 400 400;" xml:space="preserve">
<g>
	<g>
		<path d="M220.9,263c-12.7-1.7-24.8-5-36.6-10.1c-1.1-0.5-2.5-0.4-3.8-0.4c-43.4,0-86.9,0-130.3,0c-1.3,0-2.6,0-4,0
			c0-3.5,0-6.7,0-10.3c39.3,0,78.6,0,118.7,0c-4.3-3.6-8.1-6.6-11.6-9.8c-7.4-6.6-13.6-14.3-19.1-22.5c-1-1.6-2.4-3.1-3.9-4.2
			C103.9,186.1,85,161,74.6,130c-2.2-6.5-4.9-11.6-9.7-16.6c-9.4-9.8-10.7-21.8-5.7-34.5c1.3-3.2,2.4-6.5,3.1-9.8
			c3-14.9,11.7-24.9,26.2-29c14.9-4.2,28.1-0.1,38.2,11.6c10.2,11.8,19.6,24.4,29.5,36.5c1.6,2,4,3.7,6.3,4.6
			c40.2,15.2,72.5,40.5,96.6,76.1c12,17.7,23.7,35.6,35.6,53.3c1.4,2.1,2.3,4.2,1,6.6c-1.4,2.4-3.6,2.9-6.1,2.6c-0.4,0-0.9,0-1.8,0
			c1.6,3.4,3,6.5,4.7,9.4c0.5,0.8,2.2,1,3.3,1c23.1,0.1,46.3,0,69.4,0c1.2,0,2.4,0,3.8,0c0,3.4,0,6.7,0,10.2c-23.3,0-46.8,0-70.9,0
			c2,3.7,3.6,6.9,5.4,9.9c0.4,0.6,1.9,0.6,2.9,0.6c19.7,0,39.3,0,59,0c1.2,0,2.3,0,3.6,0c0,3.5,0,6.7,0,10.3c-19.6,0-39.2,0-59.5,0
			c0.8,1.5,1.4,2.5,1.9,3.5c14.8,25.8,32.4,49.8,49.5,74.1c0.6,0.9,1.6,1.7,1.8,2.7c0.4,1.9,1.1,4.3,0.3,5.7c-0.8,1.4-3.2,2.7-5,2.7
			c-18.5,0-35.2-5.8-49.9-16.9c-25.3-19.1-46.5-42-63.4-68.9c-1.3-2.1-2.7-2.8-5.1-2.8c-63.2,0.1-126.4,0.1-189.6,0.1
			c-1.3,0-2.6,0-4,0c0-3.5,0-6.7,0-10.3C104.4,263,162.7,263,220.9,263z M280.1,219.6c-0.7-1.2-1-1.7-1.4-2.2
			c-9.6-14.4-19.1-29-28.9-43.3c-22.4-32.9-52.4-56.4-89.5-70.7c-2.2-0.9-3.6-0.7-5.3,1.2c-8.5,10-18.2,18.6-29.1,25.9
			c-1.6,1.1-1.9,2-1.2,3.7c1.6,3.9,2.8,8,4.7,11.8c17.2,36,45.4,57.9,84.8,64.9c14,2.5,28.1,3.9,42.2,5.8
			C264,217.6,271.6,218.5,280.1,219.6z M347.9,350.4c-1.1-1.6-1.8-2.7-2.6-3.7c-26-35.7-49.7-72.9-68.3-113.2
			c-1.4-3.1-3.2-4.3-6.5-4.6c-7.9-0.8-15.7-2-23.5-3c-6.7-0.9-13.4-1.7-20.7-2.6c0.8,1.5,1.3,2.4,1.9,3.3
			c6.5,11.3,13.1,22.5,19.5,33.8c12.9,22.5,28.7,42.7,47.8,60.1c10.4,9.5,20.9,19,34.1,24.7C335.2,347.7,341,349.7,347.9,350.4z
			 M89.1,137.6c23.5-8.7,43.2-22.6,59.6-41.8c-9.3-11.7-18.5-23.2-27.7-34.7c-1.2-1.4-2.3-2.9-3.6-4.2c-14.6-14.3-39-7.9-44.2,11.6
			c-0.5,1.9-0.2,2.9,1.7,4.1c3,1.8,6.1,4,8.2,6.7c5.9,7.4,6.3,15.9,2.6,24.2C80.2,115.6,83.3,126.6,89.1,137.6z M93.5,147.6
			c21.1,38.2,53,62.4,95,73.7c-1.2,3.6-2.2,6.8-3.3,10.3c-9-3.1-17.6-6.1-26.2-9.1c19.8,19.5,43.7,29.1,71.8,30
			c-0.7-1.4-1.1-2.3-1.6-3.2c-4.8-8.3-9.7-16.5-14.2-24.8c-1.3-2.4-2.9-3.3-5.4-3.8c-39.1-8-68-29.6-86.9-64.7
			c-3.1-5.8-5.4-12-8.1-18C107.7,141,100.8,144.2,93.5,147.6z M69.7,81.9c-4.7,8-3.2,18.7,3.6,25.1c1.2-3.6,2.4-7,3.4-10.5
			C78.4,90.2,75.8,84.9,69.7,81.9z"/>
	</g>
</g>
</svg>
