<?xml version="1.0" encoding="utf-8"?>
<!-- Generator: Adobe Illustrator 16.0.0, SVG Export Plug-In . SVG Version: 6.00 Build 0)  -->
<!DOCTYPE svg PUBLIC "-//W3C//DTD SVG 1.1//EN" "http://www.w3.org/Graphics/SVG/1.1/DTD/svg11.dtd">
<svg version="1.1" id="Layer_1" xmlns="http://www.w3.org/2000/svg" xmlns:xlink="http://www.w3.org/1999/xlink" x="0px" y="0px"
	 width="534.793px" height="500.967px" viewBox="835.068 174.491 534.793 500.967"
	 enable-background="new 835.068 174.491 534.793 500.967" xml:space="preserve">
<path fill="#90F94B" d="M1112.778,383.176c0,10.269,0,19.941,0,29.615c0,7.59-4.018,12.203-10.565,12.055
	c-6.549,0-10.269-4.614-10.269-12.353c0-23.514,0-46.878,0-71.136c-2.084,0-3.87,0-5.805,0c-16.37-0.297-32.74,0.447-48.962-1.19
	c-42.859-4.316-81.106-40.33-89.143-83.19c-1.34-7.292-1.935-14.733-2.084-22.174c-0.297-16.221,0-32.294-0.148-48.515
	c0-5.06,1.637-8.78,6.399-10.864c4.465-1.935,8.482-0.744,11.905,2.53c12.947,12.501,28.723,17.114,46.432,17.709
	c30.806,0.893,56.254,13.84,76.494,36.759c1.19,1.488,2.529,2.977,4.315,5.208c0.148-2.232,0.298-3.572,0.298-5.06
	c0-15.329,0-30.657,0-45.837c0-7.59,4.018-12.203,10.566-12.054c6.548,0,10.268,4.613,10.268,12.352c0,30.359,0,60.867,0,91.227
	c0.596,0.447,1.191,1.042,1.638,1.488c0.446-1.19,0.744-2.679,1.488-3.572c21.132-25.001,48.068-38.247,80.809-38.842
	c16.52-0.298,30.955-5.506,43.01-16.966c3.72-3.571,7.738-5.208,12.798-2.976c4.911,2.232,6.251,6.399,6.251,11.459
	c-0.149,16.817,0,33.782-0.149,50.599c-0.297,48.664-36.907,93.31-84.976,101.495c-15.924,2.679-32.443,1.786-48.813,2.381
	C1121.261,383.324,1117.391,383.176,1112.778,383.176z M1090.752,309.361c0.596-0.595,0.894-0.595,0.894-0.744
	c2.827-44.646-26.788-81.256-66.82-90.185c-3.721-0.893-7.59-1.637-11.311-1.637c-16.072-0.149-31.848-2.232-47.474-11.162
	c0.744,15.924-0.148,30.657,2.381,44.795c7.144,39.735,38.099,66.671,78.429,69.945c7.44,0.595,15.03,0.149,23.812,0.149
	c-8.632-6.548-16.222-12.203-23.663-17.709c-11.31-8.483-22.62-16.817-33.782-25.3c-5.357-4.167-6.398-10.12-2.679-15.031
	c3.572-4.911,9.674-5.506,15.18-1.786c1.786,1.19,3.274,2.53,5.061,3.72C1050.72,279.299,1070.811,294.181,1090.752,309.361z
	 M1237.936,248.642c-0.894,0.149-1.488,0-1.935,0.149c-12.948,6.697-26.64,9.078-41.224,9.524
	c-36.609,1.042-68.606,26.341-78.726,61.463c-2.828,10.12-4.167,20.537-3.125,31.699c2.679-2.083,4.762-3.572,6.846-5.06
	c19.347-14.436,38.692-29.02,57.891-43.456c6.102-4.613,12.353-4.167,16.072,0.893c3.87,5.06,2.679,11.162-3.423,15.775
	c-8.334,6.25-16.668,12.501-25.002,18.751c-10.119,7.59-20.388,15.329-31.847,23.96c8.036,0,14.584,0.149,21.132,0
	c35.866-1.042,67.564-24.853,78.727-58.933C1239.573,285.401,1237.489,267.096,1237.936,248.642z"/>
<path fill="#90F94B" d="M918.717,404.011c13.542,0.297,23.662,6.102,32.591,15.18c9.822,9.821,19.347,20.091,30.657,28.127
	c17.264,12.352,37.801,16.965,58.486,20.388c29.02,4.763,51.343,30.062,51.343,59.528c0.149,45.39,0,90.78,0,136.171
	c0,8.185-3.869,12.054-12.203,12.054c-35.568,0-71.285,0-106.853,0c-8.632,0-12.353-3.721-12.353-12.352
	c0-16.52-0.148-33.038,0.149-49.558c0-3.571-1.19-5.208-4.167-6.696c-16.073-7.888-32.294-15.478-47.92-23.96
	c-47.325-26.044-72.327-66.374-73.071-120.545c-0.595-47.027-0.148-94.203-0.148-141.379c0-20.983,15.18-38.396,35.865-41.521
	c20.091-2.977,39.884,9.673,45.837,29.615c1.19,3.869,1.637,8.185,1.637,12.352c0.149,25.597,0.149,51.045,0.149,76.642
	C918.717,399.546,918.717,401.48,918.717,404.011z"/>
<path fill="#90F94B" d="M1286.211,398.058c0-25.597,0-51.045,0.149-76.642c0-4.167,0.446-8.483,1.637-12.352
	c5.953-19.942,25.746-32.592,45.837-29.615c20.686,3.125,35.865,20.537,35.865,41.521c0,47.176,0.446,94.352-0.148,141.379
	c-0.744,54.171-25.746,94.501-73.071,120.545c-15.626,8.482-31.847,16.072-47.92,23.96c-2.977,1.488-4.167,3.125-4.167,6.696
	c0.298,16.52,0.149,33.038,0.149,49.558c0,8.631-3.721,12.352-12.353,12.352c-35.567,0-71.284,0-106.853,0
	c-8.334,0-12.203-3.869-12.203-12.054c0-45.391-0.149-90.781,0-136.171c0-29.467,22.323-54.766,51.343-59.528
	c20.686-3.423,41.223-8.036,58.486-20.388c11.311-8.036,20.835-18.306,30.657-28.127c8.929-9.078,19.049-14.883,32.591-15.18
	C1286.211,401.48,1286.211,399.546,1286.211,398.058z"/>
</svg>
