<?xml version="1.0" encoding="utf-8"?>
<!-- Generator: Adobe Illustrator 25.0.0, SVG Export Plug-In . SVG Version: 6.00 Build 0)  -->
<svg version="1.1" id="Layer_1" xmlns="http://www.w3.org/2000/svg" xmlns:xlink="http://www.w3.org/1999/xlink" x="0px" y="0px"
	 viewBox="0 0 400 400" style="enable-background:new 0 0 400 400;" xml:space="preserve">
<g>
	<g>
		<path d="M381.9,246.4c-1.2,5.6-2,11.2-3.7,16.6c-1.9,6-4.4,11.8-7,17.5c-1.9,4.2-5.9,5.6-9.5,3.9c-3.8-1.8-5.2-5.9-3-10.1
			c7-13.4,9.4-27.6,9.2-42.6c-0.2-29.2-0.1-58.4-0.1-87.6c0-7.3-3.6-12.8-9.6-14.7c-8.9-2.9-18.2,3.3-18.3,12.7
			c-0.3,19.5-0.1,39,0,58.5c0,0.9,0.8,2.1,1.6,2.7c15.4,11.8,16.8,30.5,3.1,44.3c-11.1,11.2-22.3,22.3-33.4,33.5
			c-0.7,0.7-1.3,1.3-2,1.9c-2.9,2.2-6.8,1.9-9.3-0.6c-2.5-2.5-2.9-6.4-0.5-9.2c1.9-2.2,4-4.2,6.1-6.3c10-10,20-20,30-30
			c4-4,5.6-8.9,3.7-14.4c-1.8-5.3-5.6-8.5-11.1-9.5c-4.7-0.8-8.8,0.8-12.1,4c-3.2,3.1-6.5,6.1-9.4,9.4
			c-11.8,13.6-27.2,20.9-44.2,25.5c-5.1,1.4-10.2,2.5-15.3,3.4c-13.3,2.4-23.1,12.5-23.3,25.9c-0.4,28.3-0.1,56.5-0.1,84.8
			c0,0.2,0.2,0.4,0.3,0.8c19.7,0,39.6,0,59.9,0c0-1.2,0-2.4,0-3.6c0-10,0.1-20.1,0-30.1c-0.1-3.9,1.5-6.4,5-8
			c8.2-4,16.3-8.1,24.4-12.2c4.9-2.4,8.9-1.4,10.8,2.6c1.9,4,0.2,7.7-4.7,10.1c-6.3,3.2-12.7,6.5-19.1,9.5c-1.8,0.9-2.5,2-2.4,4
			c0.1,11.2,0.1,22.4,0,33.6c0,5.8-2.5,8.2-8.3,8.3c-23.8,0-47.7,0-71.5,0c-6,0-8.4-2.4-8.4-8.5c0-29.2,0.5-58.4-0.2-87.6
			c-0.4-20.9,13.5-40.5,37.5-44.1c9.3-1.4,18.4-4.9,27.4-8c7.2-2.5,13.4-7.1,18.7-12.7c3.4-3.6,7-6.8,10.4-10.4
			c6-6.6,13.1-10.7,22.5-10.9c0-1.4,0-2.7,0-3.9c0-16.9,0-33.9,0-50.8c0-15.2,10-27.2,24.3-29.1c14.3-1.9,27.1,7.1,31.1,21.8
			c0.1,0.4,0.4,0.8,0.6,1.2C381.9,174,381.9,210.2,381.9,246.4z"/>
		<path d="M209.5,184.7c0,6.9,0,13.4,0,19.9c0,5.1-2.7,8.2-7.1,8.1c-4.4,0-6.9-3.1-6.9-8.3c0-15.8,0-31.5,0-47.8c-1.4,0-2.6,0-3.9,0
			c-11-0.2-22,0.3-32.9-0.8c-28.8-2.9-54.5-27.1-59.9-55.9c-0.9-4.9-1.3-9.9-1.4-14.9c-0.2-10.9,0-21.7-0.1-32.6
			c0-3.4,1.1-5.9,4.3-7.3c3-1.3,5.7-0.5,8,1.7c8.7,8.4,19.3,11.5,31.2,11.9c20.7,0.6,37.8,9.3,51.4,24.7c0.8,1,1.7,2,2.9,3.5
			c0.1-1.5,0.2-2.4,0.2-3.4c0-10.3,0-20.6,0-30.8c0-5.1,2.7-8.2,7.1-8.1c4.4,0,6.9,3.1,6.9,8.3c0,20.4,0,40.9,0,61.3
			c0.4,0.3,0.8,0.7,1.1,1c0.3-0.8,0.5-1.8,1-2.4c14.2-16.8,32.3-25.7,54.3-26.1c11.1-0.2,20.8-3.7,28.9-11.4c2.5-2.4,5.2-3.5,8.6-2
			c3.3,1.5,4.2,4.3,4.2,7.7c-0.1,11.3,0,22.7-0.1,34c-0.2,32.7-24.8,62.7-57.1,68.2c-10.7,1.8-21.8,1.2-32.8,1.6
			C215.2,184.8,212.6,184.7,209.5,184.7z M194.7,135.1c0.4-0.4,0.6-0.4,0.6-0.5c1.9-30-18-54.6-44.9-60.6c-2.5-0.6-5.1-1.1-7.6-1.1
			c-10.8-0.1-21.4-1.5-31.9-7.5c0.5,10.7-0.1,20.6,1.6,30.1c4.8,26.7,25.6,44.8,52.7,47c5,0.4,10.1,0.1,16,0.1
			c-5.8-4.4-10.9-8.2-15.9-11.9c-7.6-5.7-15.2-11.3-22.7-17c-3.6-2.8-4.3-6.8-1.8-10.1c2.4-3.3,6.5-3.7,10.2-1.2
			c1.2,0.8,2.2,1.7,3.4,2.5C167.8,114.9,181.3,124.9,194.7,135.1z M293.6,94.3c-0.6,0.1-1,0-1.3,0.1c-8.7,4.5-17.9,6.1-27.7,6.4
			c-24.6,0.7-46.1,17.7-52.9,41.3c-1.9,6.8-2.8,13.8-2.1,21.3c1.8-1.4,3.2-2.4,4.6-3.4c13-9.7,26-19.5,38.9-29.2
			c4.1-3.1,8.3-2.8,10.8,0.6c2.6,3.4,1.8,7.5-2.3,10.6c-5.6,4.2-11.2,8.4-16.8,12.6c-6.8,5.1-13.7,10.3-21.4,16.1
			c5.4,0,9.8,0.1,14.2,0c24.1-0.7,45.4-16.7,52.9-39.6C294.7,119,293.3,106.7,293.6,94.3z"/>
		<path d="M79.1,198.7c9.1,0.2,15.9,4.1,21.9,10.2c6.6,6.6,13,13.5,20.6,18.9c11.6,8.3,25.4,11.4,39.3,13.7
			c19.5,3.2,34.5,20.2,34.5,40c0.1,30.5,0,61,0,91.5c0,5.5-2.6,8.1-8.2,8.1c-23.9,0-47.9,0-71.8,0c-5.8,0-8.3-2.5-8.3-8.3
			c0-11.1-0.1-22.2,0.1-33.3c0-2.4-0.8-3.5-2.8-4.5c-10.8-5.3-21.7-10.4-32.2-16.1c-31.8-17.5-48.6-44.6-49.1-81
			c-0.4-31.6-0.1-63.3-0.1-95c0-14.1,10.2-25.8,24.1-27.9c13.5-2,26.8,6.5,30.8,19.9c0.8,2.6,1.1,5.5,1.1,8.3
			c0.1,17.2,0.1,34.3,0.1,51.5C79.1,195.7,79.1,197,79.1,198.7z M181.1,366.8c0.2-0.4,0.3-0.6,0.3-0.9c0-28.1,0.2-56.3-0.1-84.4
			c-0.1-13.4-9.9-23.8-23-26.2c-5.7-1-11.4-2.5-17-4c-16.7-4.7-31.9-11.9-43.4-25.4c-2.9-3.4-6.1-6.4-9.5-9.4
			c-8.3-7.3-20.5-3.3-22.9,7.5c-1.3,5.5,0.9,9.8,4.6,13.6c11.3,11.3,22.6,22.6,33.9,34c3.8,3.8,4.1,8,0.9,11c-3.1,3-7.1,2.7-10.8-1
			c-11.5-11.5-23-22.9-34.4-34.4c-13.1-13.2-11.5-32.4,3.4-43.6c0.9-0.7,1.8-2.2,1.8-3.3c0.1-19.2,0.2-38.3,0-57.5
			c-0.1-8-6.4-14.1-14-14.1c-7.6,0-13.9,6.2-14,14.2c-0.1,32.5-0.6,65,0.2,97.4c0.7,27.2,13.1,48.7,36.4,62.9
			c11.9,7.3,24.8,12.9,37.3,19.2c11.1,5.6,10.2,4.6,10.2,16.7c0,9.2,0,18.4,0,27.8C141.3,366.8,161.1,366.8,181.1,366.8z"/>
		<path d="M345,295.5c3.9,0.1,6.9,3.4,6.7,7.4c-0.2,3.8-3.2,6.7-7.1,6.6c-4-0.1-7-3.2-6.9-7.2C337.8,298.3,341,295.4,345,295.5z"/>
	</g>
</g>
</svg>
