<?xml version="1.0" encoding="utf-8"?>
<!-- Generator: Adobe Illustrator 25.0.0, SVG Export Plug-In . SVG Version: 6.00 Build 0)  -->
<svg version="1.1" id="Layer_1" xmlns="http://www.w3.org/2000/svg" xmlns:xlink="http://www.w3.org/1999/xlink" x="0px" y="0px"
	 viewBox="0 0 400 400" style="enable-background:new 0 0 400 400;" xml:space="preserve">
<g>
	<g>
		<path d="M84.7,128.7c-4-3.1-8-6.1-11.9-9.4c-3-2.5-5.9-5.1-8.5-8c-1-1.2-1.1-3.2-1.6-4.9c1.7-0.3,3.6-1.3,5.1-0.9
			c13.4,3.4,26.8,7.1,40.1,10.7c15.4,4.1,30.8,8.3,47.1,12.7c-2-2.8-3.7-4.7-4.9-7c-0.7-1.3-1.1-3.3-0.5-4.5c1-2,3-1.3,4.7-0.5
			c3.4,1.6,6.8,3.1,10.6,4.3c-1.7-2-3.4-3.9-5-5.9c-2.2-2.8-4.3-5.7-6.3-8.6c-1.1-1.5-1.8-3.2-0.1-4.8c1.8-1.7,3.4-0.5,5,0.6
			c6.7,4.7,13.5,9.3,20.3,13.9c0.8,0.6,1.9,0.7,2.9,1c0,0.1-0.1,0.1-0.1,0.2c0.1,0,0.1-0.1,0.2-0.1c-10.9-11.3-19.6-24.1-26.3-38.2
			c-0.5-1.1,0.3-2.9,0.5-4.4c1.5,0.3,3.4,0.1,4.4,1c6.7,5.5,13.2,11.3,19.8,16.9c0.6,0.5,1.2,0.9,2.2,1.1c-0.6-1-1.2-2-1.8-2.9
			c-7.3-10.8-13.8-22-17.8-34.5c-0.4-1.2,0.1-3.5,1-4.3c1.6-1.4,3.3-0.2,4.5,1.4c0.1,0.2,0.3,0.4,0.4,0.5c6.3,7,12.7,14,19,21
			c0.5,0.6,1.2,1,1.8,1.5c0.4,0,0.8,0.1,1.2,0.1c0,0-0.1,0.1-0.1,0.1l0.2-0.1c-0.3-0.2-0.6-0.4-0.9-0.6c-3.9-9.8-7.8-19.7-11.7-29.5
			c-0.4-1.1-1-2.4-0.9-3.5c0.2-1.5,0.6-3.3,1.6-4.1c0.6-0.5,3,0.3,3.8,1.2c3.1,3.3,5.9,6.9,8.9,10.3c3.3,3.8,6.7,7.6,10,11.5
			c-0.1-0.1-0.1-0.1-0.2-0.2c0.1,0,0.2,0,0.3,0.1c-0.1,0-0.1,0.1-0.2,0.1c-0.3-1.3-0.5-2.5-0.9-3.8c-2.4-7.8-4.9-15.6-7-23.5
			c-0.4-1.4,0.2-3.7,1.3-4.6c1.9-1.5,3.4,0.3,4.7,1.7c14,15.7,28,31.4,42,47.1c5.8,6.5,11.7,13.1,17.9,20.1c0-2.9-0.3-5.3,0.1-7.6
			c0.2-1.7,1.3-3.2,2-4.8c1.4,0.9,3.3,1.4,4.1,2.6c17.9,28.4,35.7,56.9,53.3,85.4c10.3,16.7,3.7,36.3-14.6,43.7
			c-6.6,2.7-11.3,6.8-14,13.4c-0.9,2.3-0.5,3.4,1.7,4.7c16.1,8.9,33.1,15.7,50.3,22.1c4.4,1.6,8.7,3.2,9,8.9c0,0.6,1.2,1.2,1.9,1.6
			c2.5,1.2,5.1,2.3,7.5,3.6c6.7,3.6,8,11.4,2.7,16.8c-2.8,2.9-5.8,5.6-8.9,8.1c-0.9,0.7-2.8,1.1-3.8,0.7c-0.8-0.3-1.4-2.1-1.4-3.3
			c-0.1-5.1-1.4-6.8-6.4-7.4c-3.4-0.4-6.8-0.8-11.2-1.3c4,3.9,7.3,7.2,10.6,10.4c0.8,0.8,1.8,1.5,2.2,2.5c0.4,1.1,0.6,2.8,0.1,3.6
			c-0.6,0.8-2.5,1.2-3.4,0.8c-3.3-1.3-6.5-2.8-9.6-4.6c-5.9-3.5-11.8-7.6-18.8-8.1c-6.9-0.5-13.9,0-20.9,0.2c-2,0.1-4.1,0.6-6.1,0.9
			c-0.2,0.3-0.4,0.7-0.6,1c3.2,3.3,6.6,6.4,9.7,9.8c1.1,1.2,1.8,2.8,2.7,4.2c-1.5,0.8-3,2-4.7,2.4c-2.8,0.6-5.6,0.7-8.7,1.7
			c4.2,2,8.6,3.7,12.6,6.1c3.9,2.4,7.1,2,10.9-0.4c8.2-5.2,7.1-4.4,12.6,2.4c1.9,2.3,3.7,4.7,5.6,7.1c1.2,1.6,1.7,3.3-0.1,4.7
			c-1.8,1.4-3.4,0.5-4.6-1c-2.5-3.1-5-6.3-7.7-9.6c-3,1.7-6,3.4-8.9,5c0,0.3,0.1,0.6,0.1,0.9c2.1,0,4.2-0.2,6.3,0.1
			c1.3,0.2,3,0.6,3.8,1.5c2.1,2.5,4.1,5.3,5.7,8.2c0.6,1.1-0.3,2.9-0.5,4.4c-1.4-0.3-2.8-0.5-4.1-1c-0.5-0.2-1-0.9-1.2-1.5
			c-2.4-5.8-7-6.7-12.8-5.3c-0.7,3-1.4,6.2-2.3,10c2.4,0,4.6-0.4,6.5,0.1c1.3,0.3,2.3,1.8,3.5,2.8c-1.1,1-2.1,2.8-3.3,3
			c-3.3,0.4-6.7,0.3-10,0.1c-2.9-0.2-3.7-2.1-3.1-4.7c0.9-4.1,1.8-8.2,2.7-12.7c-4.5-1.7-9.1-3.3-13.6-5.1
			c-5.8-2.3-11.4-4.8-17.3-7.1c-1-0.4-2.7,0-3.6,0.7c-2,1.7-3.6,4-5.6,5.7c-1,0.9-3.3,2-3.8,1.6c-1.2-0.9-2.2-2.8-2.2-4.3
			c0.1-6.1,0.7-12.2,1.1-18.6c-6.1,1.3-11.9,2.4-17.9,3.7c2,6.9,5.8,12.6,11.4,17.1c1.7,1.4,4.6,2.4,3.6,5.4c-1,3-4,2.2-6.3,2.6
			c-2.3,0.4-4.6,0.5-7.1,1.3c5.9,2.7,11.7,5.5,17.7,8.1c0.7,0.3,1.9-0.2,2.7-0.7c2.6-1.3,5.1-2.8,7.6-4.2c2-1.2,3.7-1.1,5.2,0.9
			c2.9,3.7,5.8,7.3,8.7,11c1.3,1.7,1.8,3.5-0.2,4.9c-1.9,1.4-3.3,0.2-4.5-1.2c-2.5-3.1-5-6.2-7.6-9.5c-3,1.7-5.8,3.3-8.6,4.9
			c0.1,0.2,0.1,0.5,0.2,0.7c0.7,0.1,1.4,0.1,2.1,0.2c2.4,0.3,5.5-0.1,6.9,1.2c2.8,2.7,4.8,6.3,6.9,9.8c0.4,0.6-0.3,2.5-1,3
			c-0.8,0.5-2.3,0.4-3.3,0c-0.8-0.3-1.5-1.4-1.9-2.2c-2.5-5.8-7.1-6.7-13-5.2c-0.7,2.9-1.4,6.1-2.2,9.9c1.9,0,3.6,0,5.3,0
			c4.7,0,5.7,1.9,3.4,6c-4.7,0-9.3,0-14,0c-0.3-2-0.9-4-0.7-5.9c0.2-2.7,0.8-5.5,1.7-8.1c1-2.9-0.1-3.8-2.7-4.8
			c-9.1-3.5-18.2-7.1-27.2-10.9c-1.9-0.8-3-0.6-4.2,0.9c-1.6,2-3.3,4-5.3,5.6c-1.1,0.9-3,1.7-4.2,1.4c-0.9-0.3-1.7-2.5-1.6-3.8
			c0.6-11.3,1.4-22.6,2.1-34c0-0.8,0-1.5,0-2.7c-4.3-0.4-8.6-0.6-12.8-1.1c-7.4-0.9-14.7-2.1-22.1-3c-1.3-0.2-2.9,0.2-3.9,1
			c-19.2,14-38.4,28.1-57.6,42.1c-1.4,1-3.6,1.7-5.3,1.5c-15.9-2.2-28.7-10.4-39.8-21.4c-4.9-4.9-9.2-10.5-13.6-16
			c-3.1-3.9-2.5-5.4,2.2-7.3c42.1-17,84.2-33.9,126.3-50.9c1.1-0.4,2.2-1,3.1-1.4c-2.2-0.7-5-1-6.6-2.4c-1.7-1.5-2.3-4.2-3.5-6.6
			c-8.1,1.2-10.6-4.1-10-9.6c-8.2-0.1-10.9-2.4-10.7-9.5c-2.6,0.4-5.2,0.6-7.8,1.1c-11,1.8-22.1,2.3-33.2,0.7
			c-2-0.3-4.2-0.5-4.2-3.3c0.1-2.5,2-2.7,4-3.1c4.6-1.1,9.1-2.4,13.5-4c-7.9-0.9-15.7-1.6-23.6-2.6c-3.3-0.4-6.5-1.3-9.8-1.8
			c-2.1-0.3-3.8-1.1-3.6-3.5c0.2-2.2,2-2.6,3.9-2.7c7-0.5,13.9-1.2,20.9-1.8c-9.8-2.3-19.4-4.5-28.9-6.9c-3.3-0.8-6.4-2.4-9.6-3.6
			c-1.8-0.7-3.5-2-2.4-3.9c0.6-1.1,2.8-2,4.3-2c9.1-0.2,18.2-0.1,27.5-0.1c-1.9-0.6-3.7-1.1-5.5-1.6c-12.6-3.7-24.7-8.7-36.1-15.3
			c-1.9-1.1-4-2.2-3-4.8c1-2.5,3.2-1.9,5.2-1.6c9.1,1.3,18.2,2.6,27.6,3.1c-2.7-1.2-5.4-2.3-8.1-3.5c-10.2-4.5-19.9-9.8-28.8-16.7
			c-1.6-1.2-3.1-2.5-2-4.7c1.1-2.3,3.1-1.6,4.9-1.1c9.8,2.6,19.5,5.1,29.3,7.6c0.5,0.1,1.1,0.1,1.9,0.2c-5.7-3.7-11.4-7-16.6-10.8
			c-4.5-3.2-8.7-6.9-12.9-10.6c-1-0.9-1.7-3-1.4-4.2c0.6-2.1,2.5-1.9,4.5-1.3c7.8,2.2,15.6,4.4,23.4,6.5
			C82.8,128.6,83.8,128.6,84.7,128.7c0.2,0.1,0.4,0.3,0.6,0.5c0.1-0.1,0.2-0.2,0.3-0.3C85.3,128.8,85,128.8,84.7,128.7z
			 M211.2,143.7c0.1,0,0.3,0.1,0.4,0.1C211.5,143.8,211.3,143.7,211.2,143.7c-0.2-0.5-0.2-1.1-0.5-1.3c-5-3.2-9.9-6.6-15.1-9.6
			c-6.5-3.8-13.2-7.2-19.8-10.7c-1-0.5-2.2-0.7-3.2-1l0-0.2l-0.1,0.2c0.8,0.6,1.6,1.2,2.3,1.9c4.5,4.6,9.5,8.4,15.6,11
			C197.6,136.9,204.3,140.4,211.2,143.7z M187.9,55.6c-0.1,0-0.1,0-0.2,0.1C187.8,55.6,187.9,55.6,187.9,55.6c0.2,1,0,2.1,0.4,2.8
			c4.5,8.6,8.6,17.6,13.9,25.7c9.2,14.3,21.6,25.6,35.8,34.9c1.7,1.1,3.2,2.5,1.8,4.6c-1.4,2.3-3.3,1.7-5.1,0.4
			c-3.1-2.2-6.4-4.2-9.2-6.6c-7.3-6.4-14.4-12.9-21.5-19.4c-8.2-7.5-16.4-15-24.6-22.5c-0.6-0.5-1.2-1-1.8-1.5
			c6.2,12,14,22.9,22.9,32.8c10.1,11.2,21.6,20.8,34.8,28.3c1.9,1.1,3.4,2.6,1.9,4.8c-1.3,2.1-3.2,1.5-5,0.4
			c-3.6-2.3-7.3-4.2-10.7-6.8c-13-10.2-25.9-20.6-38.9-30.9c-4.1-3.2-8.1-6.5-12.1-9.7c0.2,1.2,0.7,2.1,1.3,3
			c16.6,23.5,37.7,41.6,64.2,53.1c1.4,0.6,3.1,1.5,3.5,2.7c0.5,1.2-0.4,2.9-0.7,4.4c3,1.5,6.3,2.9,9.4,4.6
			c12.7,7,18.4,21.9,13.3,35.4c-1.5,3.9-3.9,7.5-5.9,11.1c-6.5,11.4-1.2,26.7,10.8,30.8c1.8-5.8,3-11.8,5.1-17.6
			c3.8-10.4,10.1-17.2,20.6-20.3c3.8-1.1,7.7-2.4,11.2-4.1c8.6-4.1,11.8-15.9,6.8-23.9c-13.9-22.4-27.9-44.7-41.8-67
			c-0.5-0.9-1.4-1.6-2.1-2.4c0,0-0.1,0-0.1-0.1c0.1,0,0.1,0,0.2,0c-0.1,0.9-0.2,1.7-0.2,2.6c0,2.1,0.6,4.5-2,5.5
			c-2.6,1-3.8-1.2-5.1-2.8C247.1,94.4,235,81,223,67.4c-6.8-7.7-13.6-15.5-20.4-23.3l-0.2,0.1l0.2,0c0,1-0.2,2.2,0.2,3.1
			c4.2,9,8.1,18.2,13,26.8c6.8,11.8,15.9,21.9,25.8,31.3c1.5,1.4,2.5,3.1,0.8,4.9c-1.7,1.9-3.4,0.9-4.9-0.5c-2.5-2.4-5-4.7-7.3-7.3
			c-9.7-10.7-19.3-21.4-29-32.1C196.8,65.5,192.4,60.5,187.9,55.6z M70.8,132c0,0-0.1-0.1-0.1-0.1C70.8,131.9,70.8,132,70.8,132
			c4.8,3.2,9.4,6.7,14.4,9.5c19.4,10.7,40.2,15.6,62.3,15.8c2.2,0,4.2,0.4,4.1,3.2c-0.1,2.5-2.1,3-4.1,2.9
			c-6.7-0.4-13.4-0.5-19.9-1.5c-18.4-2.9-36.7-6.2-55.1-9.3c-0.1,0.1-0.2,0.1-0.2,0.2c-0.1,0-0.1,0-0.2-0.1c0.2,0,0.3,0,0.5,0
			c0.3,0.4,0.5,0.9,0.9,1.1c20.4,10.4,41.9,17.1,64.9,18.4c5.5,0.3,11.1-0.1,16.7,0.2c1.2,0.1,2.2,1.8,3.3,2.8
			c-1.1,1-2.1,2.8-3.2,2.9c-4.1,0.5-8.2,0.7-12.3,0.4c-14-1.2-28.1-2.7-42.1-4c-8.1-0.8-16.2-1.3-25.1-2.1c1.7,0.8,2.6,1.3,3.6,1.7
			c27.2,10.8,55.1,14.4,84,9.1c2.2-0.4,4.3-0.3,4.8,2.2c0.6,2.6-1.4,3.5-3.6,3.8c-6.5,0.8-13,2.4-19.5,2.3
			c-15.7-0.4-31.3,1.4-46.9,2.4c-1.1,0.1-2.1,0.3-3.2,0.4c0,0.4,0,0.9,0,1.3c10.5,0.9,21,2.3,31.5,2.7c14.7,0.6,29.3-1.4,43.5-5.3
			c1.4-0.4,3.5-0.3,4.5,0.5c2,1.5,0.7,4.1-2.3,5c-12.5,3.7-25.4,5.1-38.4,6c-7.1,0.5-14.1,2.9-21.1,4.4c21.2,1.8,41.9,0.8,61.6-8.1
			c2-0.9,4-1.3,5,1.3c1,2.4-0.8,3.4-2.6,4.2c-9.2,4.3-18.9,7.1-29,8.1c-7.1,0.7-13.2,3.8-19.5,6.5c2.2,0.2,4.3,0.2,6.4,0
			c13.3-1.6,26.3-4.5,38.9-8.9c4.7-1.6,9.4-3.5,14.2-4.9c1.1-0.3,2.7,1,4.1,1.5c-0.6,1.3-1.2,2.6-1.9,3.8c-0.2,0.3-0.8,0.4-1.2,0.5
			c-9.6,3.1-19.2,6.2-28.8,9.4c-1.5,0.5-3,1.7-4.1,2.8c-0.5,0.5-0.4,1.8-0.5,2.7c0.8,0.1,1.7,0.4,2.5,0.3c2.5-0.4,5-1.1,7.5-1.2
			c1.3-0.1,3.4,0.4,3.9,1.3c0.5,1-0.2,2.8-0.8,4.1c-0.5,1.1-1.6,1.9-2.2,2.9c-0.3,0.6-0.5,1.5-0.3,2.1c0.1,0.3,1.2,0.6,1.7,0.5
			c2.4-0.4,4.8-1.1,7.2-1.3c1.4-0.1,3.4,0.4,4,1.3c0.6,0.9-0.1,2.8-0.6,4.1c-0.5,1.3-1.4,2.4-2.2,3.6c0.3,0.3,0.5,0.7,0.8,1
			c2.9-0.7,5.9-1.7,8.8-2.1c1.3-0.2,3.2,0.3,4,1.2c0.6,0.7,0.1,2.6-0.4,3.8c-0.7,1.7-1.9,3.3-2.8,4.9c0.3,0.4,0.5,0.7,0.8,1.1
			c2.6-0.8,5.1-1.7,7.7-2.2c1.4-0.3,3.4-0.3,4.2,0.6c0.7,0.7,0.2,2.7,0.2,4.2c0,0.4-0.5,0.8-0.5,1.2c0,0.7,0,1.6,0.3,2.1
			c0.2,0.3,1.2,0.2,1.8,0c1.8-0.7,3.4-1.7,5.2-2.1c1-0.2,2.6,0,3.3,0.7c0.6,0.7,0.5,2.2,0.5,3.3c0,0.6-0.5,1.2-0.7,1.8
			c-0.7,2.1,0,3,2.2,2.4c1.8-0.5,3.6-1.2,5.4-1.6c2.3-0.5,4.1,0.2,4.2,2.8c0.1,3.1,1.5,2.6,3.4,1.5c5.1-2.8,5.1-2.8,8.3,1.8
			c0.1,0.1,0.4,0.1,1.1,0.4c6.7-7.4,13.6-15.1,20.5-22.7c-11.1-6.4-15.3-10.4-20.2-19.9c-6-11.6-6.3-23,2.7-33.6
			c2.2-2.5,4-5.3,6.2-7.9c7.3-8.6,2.8-22.5-6.9-26.8c-23.9-10.5-47.4-21.8-71.1-32.7c-0.9-0.4-1.8-0.8-3.5-1.5
			c1.6,2.3,2.8,3.8,3.6,5.5c0.4,0.8,0.5,2.4,0,3c-0.6,0.8-2,1.1-3.1,1.4c-0.7,0.1-1.5-0.3-2.3-0.5c-15.1-4.1-30.2-8.2-45.3-12.2
			c-12.5-3.4-25-6.7-38.3-10.2c1.1,1,1.6,1.5,2.2,2c12.1,9.5,25.5,16.7,40.1,21.3c8.3,2.6,17,4.3,25.4,6.7c1.2,0.3,2.7,2.2,2.7,3.3
			c0,2-1.8,2.9-3.9,2.4c-2.5-0.5-5-0.9-7.5-1.5c-12.4-3.3-24.8-6.7-37.3-9.9C88.8,136.1,79.8,134.1,70.8,132z M207.2,339
			c0.9-0.7,1.5-1.1,1.8-1.6c2.2-3.2,4.9-3.2,8.1-1.5c2.2,1.2,4.6,2.1,7,3.1c0.1-0.6,0.2-0.9,0.2-1.2c-0.1-1.4-0.3-2.9-0.5-4.3
			c-0.4-3.8,0.4-4.7,4.2-5.2c3-0.3,6-0.7,8.8-1.1c-2.7-4.5-6.3-8.3-7.6-12.8c-2.5-8.6-3.9-17.5-5.4-26.3c-0.2-1,1.6-2.4,2.5-3.6
			c1.1,1,2.9,1.9,3.2,3.1c1,4.6,1.5,9.4,2.2,14c9.8-0.4,29.1-6.3,36.4-11.1c-4.7-12.3-4.8-25.1-3.6-37.8c-2.5-1.6-4.2-1.2-6,0.9
			c-6.1,7-12.5,13.9-18.7,20.9c-3,3.4-7.4,5.3-11.7,1.8c-0.5-0.4-1.5-0.5-2-0.3c-4.5,2.1-7.9,0.7-10.9-3.3
			c-13.9,9-27.7,18-41.5,26.9c0.1,0.3,0.2,0.6,0.3,0.9c9.7,1,19.3,2,29.4,3.1c0.1-2.7,0.3-4.7,0.4-6.6c0.1-2,0.9-3.6,3.1-3.6
			c2.2,0,3,1.6,2.9,3.7c-0.2,2.7-0.3,5.3-0.4,8C208.6,316.1,207.9,327.3,207.2,339z M327.1,279.1c-1.1-2.4-2.7-5.1-3.5-8.1
			c-0.6-2.1-1.5-3.2-3.5-3.9c-3.1-1.1-6.3-2.2-9.3-3.7c-1-0.5-1.3-2.4-1.9-3.6c1.4-0.6,2.7-1.3,4.1-1.7c0.5-0.1,1.2,0.4,1.9,0.6
			c8.7,3.4,17.4,6.8,26.1,10.1c1.2,0.4,3.7,0.2,3.9-0.4c1-2.3-1.2-2.6-2.7-3.2c-1.4-0.6-2.9-1.1-4.4-1.6
			c-19.2-7.4-38.3-14.8-55.7-26c-2.8-1.8-5.3-3.8-8.3-5.9c-3.3,19.2-7,37.8-0.2,56.2c9-1.2,17.4-2.5,25.9-3.5c8.7-1,17,0.6,24.5,3.8
			c-1-2.3-2.1-4.7-3.2-7C323.2,280.3,325.5,279.6,327.1,279.1z M81,335.8c0,0.4-0.1,0.9-0.1,1.3c6.3,2.2,12.7,4.5,19.1,6.5
			c1.1,0.3,2.9-0.2,3.9-1c15.1-11.1,30.2-22.4,45.2-33.6c0.6-0.5,1.2-1.1,1.8-1.6c-2.2-1.4-4.3-2.5-6.2-3.9
			c-1.5-1.1-2.5-1.2-4.1-0.3c-5.5,3.1-11.1,6.1-16.7,9.1C109.7,320.2,95.4,328,81,335.8z M61.7,320.5c23.4-11.4,46.6-22.6,69.8-34
			c-0.8-2.4-1.6-4.5-2.4-6.9c-25.3,10.2-50.4,20.3-75.9,30.6C56.3,313.9,58.9,317.1,61.7,320.5z M66.3,325c2.5,2.1,4.5,3.7,6.4,5.4
			c1.6,1.5,3,1.6,4.9,0.5c19.3-10.7,38.7-21.2,58.1-31.8c0.8-0.5,1.6-1,2.6-1.6c-1.4-2-2.6-3.7-3.9-5.6
			C111.6,303,89.2,313.9,66.3,325z M265.5,245.3c-0.6-0.5-1.1-1.3-1.8-1.6c-15.7-6.2-22.9-27.1-11.3-42.7c3-4.1,4.8-8.7,4.9-13.9
			c0.2-5.8-1.9-12.1-5.5-15c1.9,7.7,0,14.4-4.8,20.4c-2.2,2.7-4.3,5.4-6.3,8.2c-3,4.1-5.4,8.4-5.1,13.8
			C236.6,229.6,249.6,243.7,265.5,245.3z M284.3,231.4c3.1-9.2,9.2-15.2,18-18.5c4.7-1.8,8.5-4.7,11.4-8.8
			c3.1-4.4,4.8-11.4,3.4-15.2c-2.8,8.3-9,12.5-16.9,14.9c-2.4,0.7-4.8,1.6-7.2,2.4c-6,2.1-11.4,5.1-13.7,11.6
			c-3.4,9.5-3.3,7.7,4.1,13.3C283.5,231.2,283.8,231.3,284.3,231.4z M286.6,304.2c-2.2-3.1-4.4-5.8-6.1-8.7
			c-1.1-1.9-2.2-2.5-4.3-1.6c-6,2.6-12,5.1-18,7.8c-0.5,0.2-1.1,0.9-1.1,1.5c-0.3,4-0.5,8.1-0.7,12.8c0.9-0.8,1.4-1.1,1.6-1.5
			c2.3-3.3,5.1-3.4,8.4-1.6c2.1,1.2,4.5,1.9,7.1,3c-0.2-2.3-0.3-3.9-0.4-5.6c-0.2-4,0.6-4.9,4.6-5.3
			C280.6,304.8,283.4,304.6,286.6,304.2z M148.4,299.1c2.9,1.4,4.9,2.6,7,3.2c1.2,0.4,2.9,0.3,3.9-0.3c15-9.7,30-19.6,44.9-29.4
			c0.2-0.2,0.4-0.5,0.6-0.8c-0.6-0.8-1.2-1.6-2-2.5C185,279.1,167.2,288.9,148.4,299.1z M143.8,294.7c17.3-9.4,34.3-18.7,51.5-28.1
			c-1-1.1-1.9-2.1-2.7-3.1c-17.7,8.6-35.1,17.1-52.9,25.7C141.1,291.2,142.4,292.9,143.8,294.7z M184.3,260.9
			c-1.6-2.4-3.3-2.3-5.4-1.4c-6.4,2.7-12.9,5.3-19.4,7.9c-8.2,3.3-16.4,6.6-24.8,10c0.8,2.3,1.6,4.3,2.3,6.5
			C153,276.1,168.6,268.6,184.3,260.9z M354.9,289.5c1.7-1.6,3.2-2.8,4.5-4.3c2-2.3,1.7-5.4-1.1-6.7c-4.3-1.9-8.1-6.1-13.6-3
			c-3,1.7-6.1,3-9.2,4.5C342.9,282.1,351.1,280.6,354.9,289.5z M249,347.6c-6.1-2.8-12.1-5.7-18.5-8.7
			C231.1,342.1,242.4,347.4,249,347.6z M280.2,316.1c-0.2,0.3-0.4,0.6-0.6,1c1.3,3.8,5.5,3.2,8.3,4.6c3.1,1.5,6.5,2.5,9.8,3.7
			c0.1-0.3,0.2-0.6,0.3-1C292.1,321.7,286.2,318.9,280.2,316.1z M329.6,270.9c2,3.7,2.8,4,5.6,2.1
			C333.4,272.4,331.8,271.8,329.6,270.9z"/>
	</g>
</g>
</svg>
