<?xml version="1.0" encoding="utf-8"?>
<!-- Generator: Adobe Illustrator 25.0.0, SVG Export Plug-In . SVG Version: 6.00 Build 0)  -->
<svg version="1.1" id="Layer_1" xmlns="http://www.w3.org/2000/svg" xmlns:xlink="http://www.w3.org/1999/xlink" x="0px" y="0px"
	 viewBox="0 0 400 400" style="enable-background:new 0 0 400 400;" xml:space="preserve">
<path d="M369.7,351.1C314.4,269.4,259.1,187.7,203.8,106c-4-5.8-9-10.5-15.6-13c-2.9-1.1-3.9-2.7-4.4-5.6
	c-4-25.4-18.2-42.6-42.2-51.6c-4.3-1.6-9-2.4-13.5-3.5h-33c-5.3,2-10.7,4-13.8,8.9c-2.6,4.1-4.3,8.9-6.7,13.8
	c-0.4,0.1-1.6,0.3-2.8,0.6c-10.4,2.4-18.3,12.5-18,22.8c-0.3,1-0.3,2.1,0,3.1c0.7,1.9,2.5,3.2,4.5,3.2c0.5,0,1.1-0.1,1.6-0.3
	c2.1-0.8,4.3-1.4,6.4-2c3.1-0.8,6.3-1.4,9.5-1.9c0.1,26.5,0.2,52.9,3.3,79.3c3.1,26.8,13.2,49.9,33.2,68.5
	c10,9.3,19.2,19.4,28.4,29.4c14,15.1,23.3,32.6,27.4,52.9c4.1,20.1,4.5,40.4,5,60.8c0,0.3-0.2,0.6-0.4,1.2h-4.7
	c-16.3,0-32.5,0-48.8,0c-4.5,0-7,2.2-7,5.8c0,3.7,2.4,5.7,7,5.7c40.7,0,81.3,0,122,0c4.2,0,6.8-2.1,6.9-5.5c0.1-3.3-2.5-5.7-6.7-5.9
	c-2.6-0.1-5.3-0.2-7.9,0c-2.5,0.2-3.2-0.9-3.2-3.2c0-3.2-0.2-6.4-0.5-9.6c-0.7-7-1.6-13.9-2.5-21.1c4.5,0,8.8,0,13.2,0
	c5.7,0,7.6-2,7.6-7.6c0-13.6,0-27.3,0-40.9c0-2.3,0.1-4.6-0.1-6.9c-0.1-0.8-0.2-1.4-0.5-2.1v-22c21.9,32.5,43.9,65,65.8,97.5
	c2.2,3.3,4.8,4.8,8.8,4.6c4.9-0.2,9.9,0,14.8-0.1c1.4,0,2.6-0.2,3.6-0.6h22.7c2.2,1.1,4.6,0.8,6.4-1.1
	C372.2,357.6,372.1,354.7,369.7,351.1z M66.9,72.5c1.9-3.3,5.3-5.5,9.1-5.5v4c-0.2,0-0.4,0-0.6,0.1C72.6,71.3,69.7,71.8,66.9,72.5z
	 M158.3,260.8c0.3-0.2,0.6-0.5,0.8-0.7c5.9,4.6,12.1,8.9,17.6,13.8c5.6,5,10.6,10.7,15.8,16.2c0.9,0.9,1.6,2.4,1.6,3.6
	c0.1,10.8,0.1,21.5,0,32.3c0,0.3-0.2,0.6-0.3,1.1h-11.3C179.9,303.2,173.6,280.3,158.3,260.8z M219.1,372.4h-34.1
	c-0.4-11.1-0.7-22.1-1.1-33.6c4.6,0,8.9,0,13.2,0c7.2,0,8.7-1.6,8.7-8.9v-17.7C212.7,321.2,220.1,355.2,219.1,372.4z M236.8,323.6
	v3.8c-3.2,0-5.8-0.2-8.4,0.1c-3.1,0.4-4.4-0.8-5.3-3.7c-8.1-26.9-24.3-48.3-46.7-64.8c-14.2-10.4-29.2-19.7-43.7-29.7
	c-13.3-9.1-24.6-20.1-32-34.8c-4.5-9.1-7.3-18.7-8.9-28.7c4.9,5.6,9.3,11.2,14.4,16.3c14.9,15,32.5,26.2,51.5,34.9
	c26,11.9,52.5,22.7,78.9,33.9v40.6c0,0.6,0.1,1.1,0.2,1.6C236.8,303.2,236.8,313.4,236.8,323.6z M236.6,238.6
	c-11.9-4.8-23.8-9.6-35.6-14.6c-20.9-8.8-41.7-17.7-60.9-29.9c-15.2-9.7-29-20.8-39.1-36.1c-8.1-12.3-12.5-25.8-13.2-40.6
	c0-0.8,0.1-1.6,0.2-2.4c19.2-5.3,37.7-3.7,55.7,4.1c10.9,4.7,20.7,11.2,30.1,18.4c1.5,1.2,3.8,2.5,5.4,2.2c1.9-0.4,4-2.2,4.9-4
	c1.2-2.3-0.1-4.7-2.2-6.3c-9.6-7.5-19.5-14.4-30.6-19.5c-19.9-9.2-40.6-12-62.2-7c-0.4,0.1-0.9,0-1.5,0V80v-9.6v-4h3.7
	c8.4,0,16.7,0,25.1,0c1.4,0,2.8-0.1,4.1-0.4c3-0.7,4.5-3.1,4.2-6.1c-0.3-2.8-2.5-4.8-5.7-4.8c-9.2-0.1-18.3,0-27.5,0h-3.7
	c0.5-5.7,4.3-10.7,9.5-10.8c12.1-0.3,24.3-1.7,36.2,1.2c22.6,5.5,38.4,24.9,39.5,48.2c0.3,5.7,1.1,6.8,6.6,8.4
	c6.3,1.9,11.2,5.4,14.9,10.8c33.8,50,67.6,99.9,101.4,149.8c0.5,0.8,1,1.5,1.7,2.7c-0.9-0.2-1.5-0.2-1.9-0.4
	c-15.6-8-31.7-15-47.9-21.7C244.1,241.6,240.3,240.1,236.6,238.6z M265.7,265.5c-0.5-0.8-0.9-1.6-1.4-2.4c0.3-0.4,0.5-0.7,0.8-1
	c15.6,8.4,31.2,16.7,46.7,25.2c1.1,0.6,2,1.9,2.7,3c8.1,11.9,16.2,23.9,24.3,35.8c5.3,7.9,10.6,15.8,16,23.6h-31.3
	c-1-0.4-1.8-1.1-2.5-2.2C302.7,320.1,284.2,292.8,265.7,265.5z"/>
</svg>
