<?xml version="1.0" encoding="utf-8"?>
<!-- Generator: Adobe Illustrator 25.0.0, SVG Export Plug-In . SVG Version: 6.00 Build 0)  -->
<svg version="1.1" id="Layer_1" xmlns="http://www.w3.org/2000/svg" xmlns:xlink="http://www.w3.org/1999/xlink" x="0px" y="0px"
	 viewBox="0 0 400 400" style="enable-background:new 0 0 400 400;" xml:space="preserve">
<style type="text/css">
	.st0{stroke:#000000;stroke-width:15;stroke-linecap:round;stroke-linejoin:round;stroke-miterlimit:10;}
</style>
<path class="st0" d="M-164.3,299.8"/>
<g>
	<g>
		<path d="M227.7,380.5c-2.3-0.6-4.5-1.1-6.8-1.7c-24.1-6.4-40.9-28.1-41-53c0-8.9,0-17.8,0-27.3c3.3,0,6.4-0.2,9.4,0.2
			c0.6,0.1,1.5,2.1,1.5,3.2c0.2,9.4-0.1,18.8,0.4,28.2c1.1,19.5,18.4,37.4,37.9,39c8.5,0.7,17.2,0.9,25.6-0.4
			c18.5-3,28.4-15.5,33-32.8c0.8-2.9,1.3-5.8,1.5-8.8c0.9-9.5,5.4-17.1,13.1-22.4c6.9-4.7,14.5-8.5,21.9-12.6
			c1.2-0.7,2.5-1.2,3.7-2.3c-3.1,0-6.2-0.5-9.2,0.1c-5.8,1.1-11.7,2.2-17.2,4.3c-15.5,5.9-22.8,17.7-24.5,34
			c-1.9,18.1-15.4,29.4-33.6,29.2c-6.1-0.1-12.5-0.1-18.3-1.7c-13.6-3.8-22-16.4-22.1-31.5c-0.1-20.7,0-41.4,0-62.1
			c0-1.4,0-2.8,0-4.3c-4.1,0-7.9,0-12,0c0,9.9,0,19.7,0,29.8c-3.8,0-7.2,0-11,0c0-2.6,0-5.1,0-7.5c0-5.6,0-11.2,0-16.8
			c0-11.1,0-11.2-7.2-19.5c-0.6-0.7-2.5-0.8-3.5-0.5c-9.5,2.9-19,6-28.5,9c-1.8,0.6-3.7,0.9-5.6,1.1c-5.5,0.6-9.7-2.7-9.3-8.2
			c0.3-4.1,1.5-8.4,3.4-12.1c4.8-9.5,12-17,21.1-23.8c-6-7.2-11.7-14.5-17.9-21.3c-15.4-17.1-34-30.4-53.7-42.2
			c-2.8-1.6-5.5-3.3-8.2-5.1c-17-11.1-17.7-33.6-1.3-45.6c12.2-8.9,24.6-17.6,36.9-26.4c7.8-5.6,15.7-11.2,23.8-17
			c2.1,2.9,4.1,5.7,6.3,8.7c-1,0.8-1.8,1.5-2.8,2.1c-18.9,13.5-37.8,27-56.6,40.5c-11.9,8.5-11.5,21.5,0.9,29.2
			c17,10.5,34,20.9,48.9,34.5c11.4,10.5,21.8,21.9,30.9,34.5c0.7,1,1.4,1.9,2.2,3c4.4-2.1,8.6-4.1,13.3-6.3c1.6,3.2,3.1,6.4,4.9,10
			c-17.2,6.9-33.1,15.2-41,34.5c9.3-3.1,17.7-5.8,26.1-8.6c3.6-1.2,7.2-2.5,10.7-4c2-0.9,3-0.3,4,1.4c1.9,3,3.8,6,5.9,8.9
			c6.7,9.4,19.9,9.5,26.6,0c2.6-3.7,5-7.5,7.7-11.4c12.6,5.7,24.9,11.9,39.3,14.6c-3.5-9.6-9.1-17-16.7-22.3
			c-7.4-5.2-15.8-9.1-24.1-13.8c1.3-2.8,2.9-5.9,4.5-9.3c4.5,2.1,8.7,4.2,13.3,6.4c10.6-14.8,22.6-28.4,36.7-40.5
			c2.4,2.7,4.6,5.3,7.1,8.1c-12.7,11.4-24.2,23.6-33.4,36.7c5.9,6.7,12,12.7,17,19.5c3,4,4.9,9,6.3,13.8c1.9,6.7-2.8,12.8-9.7,12
			c-7.3-0.9-14.5-3.1-21.7-5.3c-5-1.5-9.7-3.9-14.5-5.8c-2.5,2.9-5,5.7-7.4,8.7c-0.6,0.7-0.7,2-0.7,3c0,23.9-0.1,47.9,0,71.8
			c0,11.1,8.7,19.8,19.9,20.2c3.6,0.1,7.1-0.1,10.7,0.1c11.5,0.5,20.7-8.4,21.5-19.2c2-28.3,21.2-42.5,44.3-47.2
			c9.6-1.9,19.3-2.6,29-0.2c1.3,0.3,2.5,0.7,3.7,1.3c6,2.8,6.9,8.9,1.5,12.7c-4.3,3-9.4,5-14.1,7.5c-5.9,3-11.9,5.9-17.7,9.2
			c-7.8,4.6-12,11.2-13.3,20.7c-2.3,17.7-9.8,32.9-26,42.1c-5.5,3.1-11.9,4.4-17.9,6.5c-0.8,0.3-1.5,0.5-2.3,0.8
			C244.9,380.5,236.3,380.5,227.7,380.5z"/>
		<path d="M145,54.2c-2.2-3.1-4.2-5.8-6.3-8.8c1.2-0.9,2.1-1.6,3-2.3c8.7-6.2,17.4-12.5,26.1-18.7c17.9-12.8,39.7-13.1,57.6-0.4
			c33.2,23.5,66.3,47.2,99.3,71c16.2,11.7,15.8,34.1-0.8,45.2c-12.5,8.4-25.4,16.3-38.4,24.6c-1.9-2.4-4-5-6.4-8.2
			c5.3-3.8,10.3-7.5,15.5-10.9c7.3-4.7,14.7-9.2,22-13.8c11.7-7.4,12-20.6,0.8-28.7c-32.3-23.1-64.6-46.2-97-69.3
			c-15.5-11.1-31.8-11-47.3,0.1C163.9,40.6,154.7,47.3,145,54.2z"/>
		<path d="M168.7,177.8c-3.6,1.4-6.6,2.5-10.3,3.9c-11.6-33.3-12.6-66.8-6.1-101.3c3.7,0.8,7,1.5,10.6,2.3c-2.8,16-4.5,31.9-3.5,48
			C160.5,146.7,163.1,162.3,168.7,177.8z"/>
		<path d="M235.6,181.7c-3.7-1.4-6.8-2.6-10.2-3.9c10.6-31,11.7-62.4,5.6-94.5c3.6-0.8,6.9-1.5,10.7-2.3
			C248.2,115.2,247.1,148.5,235.6,181.7z"/>
		<path d="M171.1,65.2c-2.3-2.2-4.8-4.6-7.1-6.7c4.3-4.3,8.5-8.5,12.8-12.7c2.2,2.2,4.6,4.7,6.7,6.9C179.4,56.8,175.3,61,171.1,65.2
			z"/>
		<path d="M209.9,52.6c2-2.1,4.4-4.5,6.6-6.8c4.2,4.2,8.4,8.4,12.6,12.8c-2.2,2.1-4.7,4.4-6.9,6.5C218.3,61.1,214.2,56.9,209.9,52.6
			z"/>
	</g>
</g>
</svg>
