<?xml version="1.0" encoding="utf-8"?>
<!-- Generator: Adobe Illustrator 25.0.0, SVG Export Plug-In . SVG Version: 6.00 Build 0)  -->
<svg version="1.1" id="Layer_1" xmlns="http://www.w3.org/2000/svg" xmlns:xlink="http://www.w3.org/1999/xlink" x="0px" y="0px"
	 viewBox="0 0 400 400" style="enable-background:new 0 0 400 400;" xml:space="preserve">
<style type="text/css">
	.st0{stroke:#000000;stroke-width:15;stroke-linecap:round;stroke-linejoin:round;stroke-miterlimit:10;}
</style>
<path class="st0" d="M-164.3,299.8"/>
<g>
	<g>
		<path d="M167.8,28.3c4.8,0.7,9.6,1.4,14.5,2c19.1,2.6,37.3,8.3,54.6,16.6c2,1,3.5,0.9,5.5,0c19.1-8.6,39.1-13.8,60.2-13.7
			c3,0,5.1,1.1,5.9,3.9c0.7,2.5-0.2,4.7-2.6,5.9c-1.3,0.6-2.9,0.7-4.4,0.7c-16.6,0.4-32.6,3.9-48,10c-0.5,0.2-1,0.5-1.7,0.9
			c4.7,3.3,9.4,6.3,13.7,9.9c1.5,1.3,2.9,3.9,2.7,5.8c-0.4,4.2-5.2,5.6-8.9,2.7c-9.7-7.6-20.4-13.5-31.6-18.5
			c-23.5-10.6-48.3-15.6-74-15.7c-37.4-0.1-74.7,0-112.1,0c-8.6,0-14.3,4.3-15.7,12c-0.4,2.3-0.3,5,0.6,7.2
			c7.5,18.5,18.3,34.8,32,49.6c8.4-6.1,17.5-10.4,27.4-12.8c19.5-4.7,38.6-3,57.6,2.8c2.9,0.9,4.8,2.7,4.5,5.8
			c-0.4,3.3-2.6,4.6-5.8,4.9c-19.5,1.7-36.4,9.3-51.2,21.9c-0.7,0.6-1.4,1.2-2.1,1.9c-0.2,0.1-0.2,0.4-0.5,1
			c31.2,21.1,66,32.1,103.5,37.8c-1.4-2.7-2.7-4.7-3.5-7c-2.8-7.8-5.5-15.5-8-23.4c-1.2-4,0.6-6.9,3.9-7.6c3-0.6,5.7,1.5,6.5,5.4
			c2.5,12.1,7.2,23.1,14.5,33.1c5.7,7.9,12.7,14.6,20.6,20.3c2.1,1.5,3.6,3.4,2.8,5.9c-0.6,1.6-2.2,3.5-3.7,4
			c-1.4,0.5-3.8-0.2-5.1-1.2c-5.7-4.7-11.2-9.5-16.5-14.6c-2-2-3.8-3.3-6.8-3.6c-5.3-0.5-10.6-1.5-16.3-2.3c0.2,2.3,0.5,4.3,0.4,6.4
			c-0.3,6.6,0.1,13.4-1.2,19.8c-1.8,8.9-8.7,12.1-17.3,8.9c-6.7-2.5-11.5-7.4-16-12.7c-9.2-10.8-16.1-23.1-22.5-35.8
			c-1.2-2.5-2.8-4-5.4-5c-14.3-6-27.8-13.6-40.5-22.8c-4.4-3.2-4.7-6.2-0.8-10.1c9.9-10,21.1-18,34.1-23.5c1-0.4,2-1,3.9-1.9
			c-9.5-1-17.9-0.1-26.2,1.8c-9.7,2.2-18.4,6.5-26.1,12.9c-4,3.3-6,3.1-9.6-0.6C38,101.8,26.1,84.1,17.5,64.2
			c-0.9-2.1-1.6-4.3-2.5-6.4c0-3,0-6.1,0-9.1c1.5-3.2,2.7-6.6,4.6-9.7c3.6-5.9,9.6-8.5,15.8-10.7C79.5,28.3,123.6,28.3,167.8,28.3z
			 M137.3,169.1c0.2,0.7,0.3,1.2,0.5,1.5c5.1,7.8,9.9,15.8,15.4,23.3c2.8,3.8,6.5,7,10.4,9.8c4.2,3.1,6.2,2.1,6.3-3.1
			c0.1-7.1-0.3-14.2-0.7-21.3c0-0.8-1.4-2-2.3-2.3c-3.7-1.1-7.5-1.8-11.2-2.8C149.7,172.7,143.7,170.9,137.3,169.1z"/>
		<path d="M320.4,108.2c18.8,16.5,32.3,36,39.4,59.7c7.8,26,6.5,51.8-1.6,77.5c-0.8,2.6-0.4,4.2,1.5,6c5.4,5.2,10.2,11,12.8,18.1
			c4.1,11.2-2.1,20.6-13.9,21.6c-7.7,0.6-15.1-0.6-22.4-2.9c-2.1-0.6-3.4-0.4-4.9,1.2c-5,5.2-10.3,10.2-15.2,15.5
			c-1.1,1.1-1.9,3-1.9,4.5c0.3,34.9-15.8,59.8-46.2,76c-5.3,2.8-10.6,2.3-14.6-1.3c-4-3.6-5-8.9-2.9-14.4c2.3-6.2,4.5-12.5,6.6-18.7
			c1.2-3.7,3.6-5.5,6.6-4.8c3.2,0.8,4.8,3.7,3.7,7.4c-2,6.4-4.4,12.8-6.5,19.2c-0.3,1-0.2,2.2-0.3,3.3c1.1-0.2,2.5,0,3.4-0.5
			c21.7-11.3,35.3-28.6,38.8-53.1c0.7-4.8,0.6-9.8,0.4-14.7c-0.1-3.1,0.4-5.6,2.7-7.8c7.2-7,14.3-14.1,21.3-21.3
			c2.3-2.4,4.7-2.7,7.9-1.9c7,1.7,14,3.3,21.2,3.9c6.4,0.6,8.9-3.3,5.5-8.8c-3.5-5.7-7.9-10.9-12.6-15.7c-3.1-3.1-3.9-5.9-2.5-9.9
			c5.1-14.4,7.9-29.2,7.7-44.5c-0.4-28.4-10.7-53-29.5-74c-4.2-4.7-9-8.8-13.7-13c-3.2-2.9-3.8-4.6-1.8-8.5
			c6.7-12.9,17.2-21.5,30.4-27.2c5.7-2.4,11.4-4.7,16.8-7.8c8.4-4.9,8.3-7.7,0.2-12.9c-10-6.4-20.9-10.1-32.5-12.4
			c-3.8-0.8-5.5-3-5.1-6.3c0.5-3.1,3-4.9,6.9-4.1c14.6,2.8,28.4,7.5,40.4,16.6c9.7,7.3,10,17.6,0.2,24.8c-6.2,4.6-13.4,7.9-20.5,11
			c-9.6,4.1-17.9,9.5-24.1,18C321.4,106.4,321,107.3,320.4,108.2z"/>
		<path d="M282.8,272.3c8.2-15.5,13.4-31.1,9-48.6c-12.9,3-24.4-1-35.9-5c-5.1-1.8-9.9-4-14.8-6.2c-4.1-1.8-5.5-4.5-4.1-7.6
			c1.4-3.1,4.3-3.9,8.3-2.2c10.5,4.6,21,9.1,32.3,10.9c2.7,0.4,5.6,0.4,8.4,0.2c3.1-0.2,4.1-1.7,2.5-4.5c-2-3.5-4.3-7-6.8-10.1
			c-5.4-6.6-11.3-12.7-16.6-19.4c-8.8-11.2-11.8-24.1-9.7-38.2c0.6-4,2.8-6,6.2-5.7c3.3,0.4,4.9,2.9,4.4,7
			c-1.9,13.6,2.2,25.3,11.5,35.3c5.7,6.2,11.1,12.6,16.4,19.1c3.8,4.8,6.8,10.1,6,16.6c-0.1,0.4,0.2,0.9,0.3,1.3
			c6.6,16.8,4.3,33.2-2.2,49.4c-2.3,5.7-5.3,11.1-8.4,16.5c-2.7,4.7-5.5,5.2-9.7,2c-14.8-11.2-31.7-14.3-49.7-12
			c-7.9,1-15.7,3.2-23.5,5c-1,0.2-1.7,1.2-2.6,1.9c0.9,0.6,1.8,1.6,2.8,1.9c13.4,2.9,26.3,7.2,37.7,15.1c11.1,7.7,20.2,17,23.5,30.7
			c0.3,1.4,0.7,2.7,0.7,4.1c0,2.8-1.2,4.8-4.1,5.3c-2.9,0.6-5-0.6-6.1-3.4c-0.1-0.2-0.2-0.4-0.2-0.7c-2.4-14.1-12-22.5-23.3-29.5
			c-9.5-5.9-20.1-9-31-11.3c-6.7-1.4-10.4-5.4-10.8-11.5c-0.4-5.9,3.1-10.5,9.5-12.6c14.9-4.9,30.1-7.5,45.8-6
			C260.9,261.5,272.1,265.3,282.8,272.3z"/>
		<path d="M214.7,88.5c-0.3,10.2-3.5,18.4-10.7,24.9c-2.8,2.5-5.9,2.6-8.1,0.4c-2.2-2.2-2-5.4,0.7-8c7.1-6.6,8.5-14.6,6.4-23.7
			c-0.9-3.9,0.4-6.8,3.6-7.5c3.3-0.7,5.8,1,6.8,4.9c0.3,1.2,0.6,2.5,0.8,3.8C214.3,85.2,214.5,87.2,214.7,88.5z"/>
		<path d="M234.1,94.9c-0.5,9.4-3.9,17.4-10.7,23.8c-3,2.8-6.1,3-8.4,0.8c-2.5-2.5-2.2-5.4,1-8.5c6.5-6.3,8.1-13.9,6.3-22.4
			c-0.2-0.8-0.5-1.6-0.6-2.4c-0.3-2.9,0.8-5,3.7-5.9c2.8-0.8,5.6,0.5,6.4,3.4C232.9,87.3,233.4,91.1,234.1,94.9z"/>
		<path d="M195.6,83.4c-0.2,9.8-3.7,18-11,24.6c-2.8,2.5-5.9,2.6-8.1,0.3c-2.2-2.3-2-5.4,0.8-8c7.1-6.6,8.5-14.6,6.4-23.7
			c-0.9-3.8,0.3-6.5,3.2-7.4c3.1-1,6,0.8,6.9,4.6C194.7,76.9,195.1,80.1,195.6,83.4z"/>
		<path d="M111.8,67.9c0,1,0.1,2.1,0,3.1c-0.2,3.1-2.2,5-5.1,5.1c-2.9,0.1-5.2-1.9-5.4-4.9c-0.2-2.4-0.2-4.9,0-7.3
			c0.2-3,2.5-4.9,5.3-4.9c2.9,0,4.9,2,5.1,5C111.8,65.3,111.8,66.6,111.8,67.9z"/>
	</g>
</g>
</svg>
