<?xml version="1.0" encoding="utf-8"?>
<!-- Generator: Adobe Illustrator 25.0.0, SVG Export Plug-In . SVG Version: 6.00 Build 0)  -->
<svg version="1.1" id="Layer_1" xmlns="http://www.w3.org/2000/svg" xmlns:xlink="http://www.w3.org/1999/xlink" x="0px" y="0px"
	 viewBox="0 0 400 400" style="enable-background:new 0 0 400 400;" xml:space="preserve">
<style type="text/css">
	.st0{stroke:#000000;stroke-width:15;stroke-linecap:round;stroke-linejoin:round;stroke-miterlimit:10;}
</style>
<path class="st0" d="M-164.3,299.8"/>
<g>
	<g>
		<path d="M39.7,204.5c1.5-3.1,4-4.5,7.4-5c4.3-0.6,8.6-1.7,13-3.4c-2.9-1.1-5.9-2.2-8.8-3.4c-2.9-1.2-4.5-3.4-4.5-6.4
			c0-2.9,1.5-5.2,4.3-6.2c25.6-9.7,47.4-25.7,69.1-41.7c15.4-11.4,31.6-21.4,50.3-26.7c12.7-3.6,21.5-4.6,32.5-3.2
			c0-2.5,0.2-5,0-7.4c-0.9-9.1-2.6-18.2-2.8-27.3c-0.4-22.8,18.2-40.2,41-38.9c17.1,1,32.2,15.3,34.4,33c0.2,1.9,0.9,2.9,2.5,3.8
			c23.7,12.9,48.8,21.7,75.6,25.5c7.5,1.1,15.1,1.7,22.6,2.5c4.5,0.5,6.9,3.2,6.7,7.2c-0.2,3.8-3.3,6.5-7.6,6.3
			c-20.7-1.1-41.1-4.4-60.7-11.2c-13.7-4.8-27.1-10.6-41.1-16.1c-0.7,2.1-1.8,4.9-2.5,7.9c-2.4,10.1-1.9,20.1,0.9,30.1
			c5.8,20.7,6.7,41.5,1.2,62.5c-5.6,21.3-17.4,37.8-37.3,47.7c-9,4.5-18.6,8-28,11.7c-2.1,0.8-3,1.4-3,3.8
			c0.1,37.4,0.1,74.9,0.1,112.3c0,0.9,0.1,1.7,0.2,2.9c7.9,0,15.7,0,23.5,0c0.8,0,1.6,0,2.3,0c4.8,0,7.3,1.4,8.3,4.7
			c1.1,3.4-0.3,6-4.4,8.7c-26.4,0-52.7,0-79.1,0c-0.2-0.2-0.4-0.5-0.6-0.7c-3.2-2.4-4.4-5.2-3.3-8.3c1.3-3.3,3.9-4.6,7.4-4.5
			c3,0.1,5.9,0,9.3,0c-0.9-1.6-1.5-2.7-2.2-3.8c-10.3-16.8-20.7-33.6-31.1-50.4c-1.8-2.9-2.2-5.6-1.2-8.9c3.2-11,6.3-22.1,9.3-33.1
			c1.7-6.2,3.4-12.4,5.2-18.8c-4.9-0.6-9.4-1.1-13.9-1.8c-32.2-5.3-62.1-16.5-89.5-34.2c-2.1-1.3-3.7-3.4-5.5-5.2
			C39.7,207.2,39.7,205.9,39.7,204.5z M65,209.9c4.7,2.4,8.9,4.7,13.3,6.7c26.6,12.3,54.6,19,83.9,20.5c25.3,1.3,48.9-3.9,70.8-16.7
			c10.8-6.3,18-15.4,23.3-26.4c0.6-1.3,0.8-3.1,0.4-4.4c-4.7-15.8-11.7-30.6-21.3-44c-0.4-0.6-1-1.2-1.8-2
			c1.2,18.1-5.3,31.8-20.9,40.1c-39.1,20.9-80.6,27.5-124.4,19.9c-1.6-0.3-3.4-0.6-4.9-0.1C77.5,205.3,71.6,207.5,65,209.9z
			 M162.6,251.1c-0.2,0.6-0.6,1.4-0.8,2.3c-4.5,16.1-9.1,32.1-13.4,48.3c-0.4,1.6-0.1,3.8,0.7,5.2c11,18.1,22.1,36.1,33.3,54.2
			c2.7,4.4,3.6,4.7,8.8,3.3c0-38.3,0-76.5,0-114.4C181.5,250.3,172.1,250.7,162.6,251.1z M262.9,166.3c0.1-1.5,0.2-2.3,0.3-3
			c0.7-11.8-0.6-23.4-3.8-34.8c-2.5-9-4.4-18.1-2.9-27.4c1.1-7.1,2.9-14.2,4.9-21.1c5.3-17.7-9.6-34.6-27.7-31.2
			c-11.8,2.2-20.7,13.2-19.9,25.8c0.7,10.3,2,20.6,3.2,30.9c0.1,0.9,1.1,1.8,1.9,2.5c16.3,13.3,29.2,29.4,38.9,48.1
			C259.4,159.2,260.9,162.4,262.9,166.3z M73.1,186c30.6,8.6,61.3,9.2,92.3,1.6c0.9-8.3,6.1-14.1,10.8-20.7
			c-6.7,2.9-12.7,5.8-18.9,8.2c-3.2,1.2-6.6,2.1-10,2.5c-4.5,0.4-7.2-2.9-5.9-7.3c0.7-2.6,2.1-5.2,3.6-7.5c2.2-3.3,4.7-6.4,7.6-10.1
			c-3.6,1.7-6.5,3.3-9.6,4.5c-7.4,2.8-14.8,5.5-22.3,7.8c-3.5,1.1-6.9,0.3-8.5-3.2C99,169.9,86.2,177.9,73.1,186z"/>
		<path d="M246.9,73.3c0,3.8-2.9,6.7-6.7,6.7c-3.7,0-6.5-2.9-6.6-6.5c-0.1-3.7,2.9-6.9,6.6-7C243.7,66.5,246.9,69.6,246.9,73.3z"/>
	</g>
</g>
</svg>
