<?xml version="1.0" encoding="utf-8"?>
<!-- Generator: Adobe Illustrator 25.0.0, SVG Export Plug-In . SVG Version: 6.00 Build 0)  -->
<svg version="1.1" id="Layer_1" xmlns="http://www.w3.org/2000/svg" xmlns:xlink="http://www.w3.org/1999/xlink" x="0px" y="0px"
	 viewBox="0 0 400 400" style="enable-background:new 0 0 400 400;" xml:space="preserve">
<style type="text/css">
	.st0{stroke:#000000;stroke-width:15;stroke-linecap:round;stroke-linejoin:round;stroke-miterlimit:10;}
</style>
<path class="st0" d="M-164.3,299.8"/>
<g>
	<g>
		<path d="M207.8,293.9c-2.6,6.4-4.3,12.9-7.6,18.4c-8.8,14.8-22.2,22.5-39.5,22.8c-10.1,0.2-20.3,0.1-30.4,0
			c-4.4,0-6.2-1.9-6.2-6.3c0.2-12.7,11.4-24.2,24.1-24.7c1.9-0.1,3.8,0,6.1,0c-0.9-6.6-1.8-12.7-2.7-18.9c-0.1-0.7-0.6-1.7-1.2-2
			c-5.1-2.7-10.3-5.2-15.9-7.9c0,4.5,0,8.8,0,13c0,26.1-20.6,46.7-46.8,46.8c-9.9,0-19.8,0-29.8,0c-4.5,0-6.3-1.8-6.3-6.2
			c0.1-12.8,11.5-24.4,24.4-24.8c1.8-0.1,3.6,0,5.8,0c-1.1-7.9-2.1-15.4-3.2-23c-2-14.2-4.1-28.3-6.1-42.5c-0.2-1.4-0.1-2.8-0.1-4.2
			c0-33.9,0-67.7,0-101.6c0-1.3,0-2.6,0-4.6c-2.6,1.9-4.8,3.5-7,5.1c-1.6,1.2-3.3,2.5-4.9,3.7c-2.9,2-5.9,1.8-7.7-0.6
			c-1.9-2.5-1.3-5.6,1.7-7.8c4.4-3.3,8.6-7,13.3-9.8c4.5-2.7,5.7-6.2,4.4-11.4c-4.5,0-9.2,0-13.9,0c-4.1,0-6.4-1.8-6.4-5.2
			c0-3.3,2.2-5.1,6.4-5.2c4.6,0,9.3,0,14,0c0.3-4.3,0.6-8.5,0.9-12.6c0.1-1.3,0.3-2.6,0.7-3.8c2.1-5.1,2.7-9.6-0.4-15.1
			c-3.2-5.7-0.2-13.2,5.1-17.2c5.5-4.1,12.8-4.3,18.4-0.2c1.6,1.2,2.7,1.4,4.6,0.6c5.8-2.5,11.9-3.6,18.3-3.4
			c9.3,0.3,18.5,0.4,27.8,0.7c1.1,0,2.2,0.3,3.2,0.6c5.2,1.9,9.8,3,15.5-0.3c5.6-3.3,13.2-0.1,17.2,5.2c4,5.4,4.3,12.7,0.3,18.1
			c-1.3,1.8-1.2,3.1-0.7,5.2c1.4,5.6,2.3,11.3,3.3,17c0.3,1.6,0,3.4,0,5.4c5,0,9.8,0,14.5,0c4.1,0,6.3,1.9,6.2,5.3
			c-0.1,3.2-2.3,5-6.2,5c-4.7,0-9.5,0-14.4,0c-0.3,4.7,0.6,8.4,4.5,11.2c4.3,3.1,8.5,6.3,12.7,9.5c3.5,2.7,4.4,5.5,2.5,8.2
			c-1.9,2.7-4.6,2.9-8.5,0.5c-0.2-0.1-0.4-0.1-1.3-0.4c2.8,7.1,5.5,13.8,8.2,20.5c8.7-4,17-8,25.5-11.6c16.8-7.1,33.9-12.8,52-16.1
			c37.3-6.9,73.2,17.9,79.6,55.4c0.6,3.6,0.8,7.3,0.8,10.9c0.1,31.1,0.1,62.1,0,93.2c0,34.1-24.9,62.4-58.7,66.7
			c-3.8,0.5-7.7,0.6-11.6,0.6c-12.4,0.1-24.8,0-37.2,0c-4.6,0-6.9-1.9-6.2-6.5c0.7-4.8,2.4-9.4,3.7-14.2c-2.5,0-5.6,0.1-8.7,0
			c-3.6-0.1-5.5-2-5.5-5.7c-0.2-12.9,11.2-24.9,24.1-25.3c1.9-0.1,3.8,0,6,0c-0.5-3.7-1-6.9-1.4-10.3
			C246.6,293.9,226.8,293.9,207.8,293.9z M82.8,97c5,0,9.9,0.1,14.7,0c2.7-0.1,4.7,0.9,5.6,3.4c0.9,2.7-0.1,4.8-2.4,6.4
			c-2.2,1.6-4.3,3.2-6.5,4.8c-3.8,2.9-9,5-10.9,8.8c-1.9,3.9-0.7,9.5-0.7,14.3c0.2,14.1-0.6,28.4,0.9,42.3
			c3.5,32.8,18.5,59.7,44.3,80.4c6.5,5.2,13.8,9.4,20.8,14c0.6-1.7,0.6-2.7,0.5-3.6c-1.4-9.7-2.9-19.4-4.2-29.1
			c-0.6-4,1.1-6.7,4.2-7.2c3.2-0.5,5.5,1.4,6.1,5.5c1.9,12.7,3.7,25.3,5.6,38c1.5,10.7,3.1,21.3,4.6,32c0.7,4.9-1.3,7.2-6.1,7.3
			c-3.1,0-6.3,0-9.4,0c-5.5,0-13.1,4.2-13.9,10.4c7.3,0,14.7,0.1,22,0c3.4-0.1,6.9-0.2,10.3-1c17.2-4,28.2-18.2,28.3-36.2
			c0.1-16.1,0-32.1,0-48.2c0-0.8,0-1.5,0-2.3c0.1-3.3,2-5.4,5.1-5.5c3.2-0.1,5.2,2.1,5.3,5.6c0,14,0,28,0,42.1c0,1.3,0,2.5,0,3.9
			c19.6,0,38.8,0,58.2,0c0-0.6,0.1-1,0-1.4c-2.1-14.3-4.2-28.5-6.2-42.8c-0.6-4.1,0.9-6.7,4-7.3c3.3-0.6,5.7,1.3,6.3,5.6
			c2.1,14.3,4.2,28.5,6.2,42.8c1.3,8.9,2.6,17.9,3.8,26.9c0.7,5.1-1.2,7.4-6.2,7.5c-3.1,0-6.3-0.1-9.4,0
			c-6.8,0.3-12.3,4.4-13.9,10.3c7.8,0,15.5,0,23.3,0c20-0.1,34.8-13.3,37.3-33.1c1.2-10.1-4.9-17.7-15.1-18.6
			c-3.6-0.3-5.6-2.3-5.4-5.5c0.2-3.1,2.4-4.9,6-4.8c11.3,0,22.2,8.6,24.3,20c2.5,13.6-1.6,25.6-10.4,36c-9,10.7-20.8,16.1-34.8,16.4
			c-7.4,0.2-13.5,4.4-14.7,10.3c12.3,0,24.6,0.4,36.9-0.1c30.2-1.1,54.3-25.4,54.7-55.5c0.4-31.9,0.7-63.9-0.1-95.8
			c-0.6-23.8-12.6-41-34.3-50.9c-14.3-6.6-29.1-5.4-44-1.8c-23.7,5.8-45.8,15.6-67.4,26.6c-5.3,2.7-7.8,1.9-10-3.6
			c-5.1-12.8-10.2-25.6-15.4-38.3c-0.7-1.7-2-3.3-3.4-4.5c-6.3-4.9-12.7-9.7-19.1-14.4c-2.3-1.7-3.7-3.7-2.8-6.6
			c1-2.9,3.3-3.6,6.2-3.6c4.7,0.1,9.4,0,14.2,0c0.6-8.3-0.7-15.9-4.5-22.9c-2.4-4.4-1.9-5.9,1.9-9.1c1.4-1.1,2.7-3.6,2.4-5
			c-0.4-1.7-2.4-3.8-4.1-4.1c-1.5-0.3-3.9,1.1-5,2.4c-3.2,3.7-4.5,4-9.1,2c-4.1-1.8-8.4-3.7-12.8-4.1c-7.6-0.8-15.3-0.5-22.9-0.7
			c-7.5-0.2-14.5,1.3-21.1,5.1c-3.4,2-5.7,1.3-8-2c-1.4-2.1-3.2-3.7-5.6-2.8c-1.7,0.7-3.4,2.4-4,4.1c-0.9,2.4,0.8,4.2,2.8,5.5
			c3.3,2.2,3.9,4.5,1.9,8C83.6,80.6,82.3,88.3,82.8,97z M82.7,216.9c0,1.1,0.1,2.1,0,3.2c-1,18.3,3.2,36.2,5.5,54.2
			c1.4,11.1,3.2,22.1,4.7,33.2c0.7,4.8-1.4,7-6.3,7c-3.1,0-6.3-0.1-9.4,0.1c-6.8,0.3-12.5,4.6-13.7,10.1c9.1,0,18.3,0.7,27.4-0.1
			c17.9-1.6,30.5-13.9,32.7-31.6c1-7.8,0.5-15.7,0.5-23.6c0-1-1.1-2.1-2-3c-6.7-6.6-13.9-12.9-20.2-19.9
			C94,237.7,88.2,227.5,82.7,216.9z"/>
		<path d="M129,114.9c-3,0.9-6.3,2.2-9.7,2.7c-3.1,0.4-5.3-1.8-5.5-4.6c-0.2-2.9,1.5-5.1,4.6-5.6c5.4-1,6.3-2.7,3.8-7.6
			c-2.5-5-5-10-7.5-15c-2.4-4.9-0.2-8.4,5.2-8.4c6.2,0,12.5,0,18.7,0c5.4,0,7.6,3.6,5.2,8.4c-2.5,5.1-5.1,10.2-7.6,15.3
			c-2.3,4.6-1.3,6.4,4,7.4c0.8,0.2,1.7,0.4,2.4,0.9c2,1.4,2.7,3.4,2.1,5.7c-0.6,2.3-2.3,4-4.7,3.7C136.3,117,132.8,115.9,129,114.9z
			"/>
		<path d="M103.4,81.6c-0.1,2.9-2.3,5.1-5.2,5c-3,0-5.3-2.4-5.1-5.4c0.1-2.9,2.5-5,5.4-4.9C101.3,76.4,103.4,78.7,103.4,81.6z"/>
		<path d="M165.5,81.4c0,2.9-2.1,5.2-5,5.3c-2.9,0.1-5.2-2-5.3-4.9c-0.1-3,2.1-5.4,5.1-5.4C163.2,76.3,165.5,78.5,165.5,81.4z"/>
	</g>
</g>
</svg>
