<?xml version="1.0" encoding="utf-8"?>
<!-- Generator: Adobe Illustrator 16.0.0, SVG Export Plug-In . SVG Version: 6.00 Build 0)  -->
<!DOCTYPE svg PUBLIC "-//W3C//DTD SVG 1.1//EN" "http://www.w3.org/Graphics/SVG/1.1/DTD/svg11.dtd">
<svg version="1.1" id="Ñëîé_ðèñóíêà" xmlns="http://www.w3.org/2000/svg" xmlns:xlink="http://www.w3.org/1999/xlink"
	 x="0px" y="0px" width="1250.1px" height="649px" viewBox="1174.9 1475.5 1250.1 649"
	 style="enable-background:new 1174.9 1475.5 1250.1 649;" xml:space="preserve">
<g>
	<path d="M1264.3,1617.1c3,6.9,9.7,17.8,12.3,1.6c-4.4-42.5,30.7,0.8,18.9-45.3c10.6-8.1,2.7-25.2-11.1-20.4
		c-0.9,31.4-8.6,20.6-17.8,47.2C1260.8,1604.4,1257.4,1609.2,1264.3,1617.1z"/>
	<path d="M1296.5,1664.6c-0.4,9,5.8,6.4,14.1,2.5c13.8-3.6-2-14.2-7.6-19.9c1.5-9.6,10.6-23.3-0.7-36.3c0.6,0.3,1.7,0.9,3.2,1.9
		c1.9-1.7-33.7-20.5-13.4,23.2C1291.7,1649.1,1289,1650.3,1296.5,1664.6z"/>
	<path d="M1318.9,1615.2c0-0.2,0-0.3,0-0.5c-0.1,0.2-0.1,0.4-0.2,0.6c-3.7,0.3,5.4,17.9,2.3,42.8c4.7,14.8,8.7-9.2,9.2-15.9
		c0.8-9.4,14.4-52-7.6-27.3l0.1,0c-0.2,0.2-0.2,0.2-1.1,0.7C1320.7,1615.8,1321.3,1615.1,1318.9,1615.2z"/>
	<path d="M1286.7,1659.3c10-10.5-5.5-20-4.7-2.8C1281.5,1658.8,1281,1665.6,1286.7,1659.3z"/>
	<path d="M1266.2,1661c1.9-0.6,6.9,6.9,7.7,1.5C1285.6,1645.7,1254.6,1652,1266.2,1661z"/>
	<path d="M1260.9,1642c8.8,3.3,13.7-14.6,2.5-6.1C1253.5,1629.8,1244.8,1640.8,1260.9,1642z M1265.7,1636.3c0.3-0.1,0.6-0.2,0.8-0.3
		c-0.1,0.3,0,0.1-0.3,0.6c-0.3-0.1-0.6-0.1-0.9-0.2C1265.5,1636.4,1265.6,1636.4,1265.7,1636.3z"/>
	<path d="M1274.1,1641.5c0.2,0.1-0.8,2.4,0.9,2.5c-0.4,3.1,1.5-1.1,2.2-6.7C1278.9,1631.7,1269.9,1632.5,1274.1,1641.5z
		 M1275.9,1636.6L1275.9,1636.6c0,0,0.1-0.1,0.1-0.2C1276,1636.5,1276,1636.6,1275.9,1636.6z"/>
	<path d="M1281.2,1637.1c1.5,3.3,1,0.2,0-5C1278.3,1627.5,1279.6,1645.6,1281.2,1637.1z"/>
	<path d="M1265.6,1649c1.8-2.2,0.5-5.8-5.5-2.9c-1-1-3.5-3.3-6.8-3.9c-1.9-4.8-14.2-0.6-5.2,4.1
		C1254.4,1645.5,1259.1,1654,1265.6,1649z"/>
	<path d="M1259.5,1657.8c-0.6-0.5-1.3-0.8-2-1.2C1242.2,1647.3,1267.3,1671.8,1259.5,1657.8z"/>
	<path d="M1254.7,1668.2c6.9,17.4,34.7,6.8,8.2,0.8c0.4-0.1,1.7-0.1-0.3-0.5c-3.1-4-7.5-8.6-12-12.6
		C1245.4,1657.2,1249.5,1663.6,1254.7,1668.2z"/>
	<path d="M1275,1681c14,3.9,6.7-17,2.6-6.9C1276.2,1675,1270.8,1678.2,1275,1681z M1279.5,1675.9c0.1,0.3,0.2,0.5,0.2,0.8
		c-0.2,0.1-0.4,0.2-0.6,0.3C1279.2,1676.8,1279,1676.7,1279.5,1675.9z M1276.1,1677.8L1276.1,1677.8c0,0-0.1,0-0.1,0
		C1276,1677.8,1276.1,1677.8,1276.1,1677.8z"/>
	<path d="M1244.5,1661.5c1-1,0.6-1.6-1.6-5C1238,1648.6,1238.7,1658.7,1244.5,1661.5z"/>
	<path d="M1250.8,1671.6c3.8-0.6-8.2-10.8-11.1-6.8c0.2,1.4-0.6,2.8,3.6,3.2C1244.5,1668.4,1246.4,1672.4,1250.8,1671.6z"/>
	<path d="M1246.8,1652.9c3.6,3.1,4.5-1.8-2.7-5.6C1241.8,1647.6,1244.5,1650.7,1246.8,1652.9z"/>
	<path d="M1257.2,1621.3c-2.9,2.6-7.6,2.1-12,3.9c-1.7,1-2.9,12.9,12.8,3.9l0,0c14,9.3,3.9-27.1,0.3-8.8
		C1257.9,1620.6,1257.6,1620.9,1257.2,1621.3z M1258.3,1623.2c-0.1,0,0,0-0.2,0c0.1-0.1,0.2-0.2,0.3-0.4L1258.3,1623.2z"/>
	<path d="M1228.7,1626.9c4.1,7.8,8.5,5.4,13.8-2.2c4.4-1.4,13.3-0.9,13.8-12.4c0.8,0,1.3,0.1,2.5-1l-0.1,0c-0.6,0.1-1.3,0.8-2.9-0.4
		c0,0.1,0,0.1,0,0.1c-16.3-15.6-17.4-1.5-27.8,12.4c0.4,0.1,0.1,0,0.8,0C1228.6,1624.2,1228.5,1625.1,1228.7,1626.9z M1245.9,1608.1
		c0.3,0,0.1,0,0.7,0c2.3,0.6,5.1,3,9.2,4.1c-0.8,1.7-1.8,3.6-3.8,5.6c-0.1-0.2-5.2,0.5-8.4-5.2
		C1248.7,1619.2,1259.2,1619,1245.9,1608.1z"/>
	<path d="M1244.8,1601.6c2.7-2.7,11.1,3.6,14.9-2.2c6.2-21.5-1.8-10-11.9-1.3c0.6-3.8,7-5,6.7-10c-3.2-0.9-3.9-10.1-9.4-6.9
		c-4.2,1.8,3.5,7.2,1.6,15c-0.1,0.8-0.1,1.2-0.5,3.2c-0.5,0.4-0.9,0.8-1.4,1.1c0.2,0,0.5,0,0.8,0
		C1245.3,1600.8,1245,1601.2,1244.8,1601.6z M1247.7,1597.4c0,0.3,0,0.5,0,0.8c-0.4,0.4-0.9,0.8-1.4,1.2
		C1246.9,1598.7,1247.4,1598.1,1247.7,1597.4z"/>
	<path d="M1249.3,1576.3c0.7,2.7,5,6.1,3.3-1.6c1.5-5,2.4-10.1-5.1-13.6c-0.4-2.8-6.5-2.7-5.3,1.8c-0.2,0.4-0.2,0.3-1,1.9
		C1238.6,1569.5,1241.6,1577.1,1249.3,1576.3z"/>
	<path d="M1256.2,1544.1c-4.3-6.6-12.5,5.3-4.5,15.7c4.1,4.6,5,2.4,11.4,12.1c5.2-3.9,7.2-16.1-1.7-20.3
		C1258.7,1550.6,1258.2,1548.3,1256.2,1544.1z"/>
	<path d="M1237.9,1585c0.8-4.6-2.2-0.8-5,6.7C1229.6,1596.6,1239.9,1614.5,1237.9,1585z M1233.9,1598.9L1233.9,1598.9
		c0,0,0,0.1,0,0.2C1233.9,1599,1233.9,1598.9,1233.9,1598.9z"/>
	<path d="M1228.1,1582.3C1228.1,1582.2,1228.1,1582.3,1228.1,1582.3C1228.1,1582.2,1228.1,1582.3,1228.1,1582.3z"/>
	<path d="M1220.8,1593.5c-1.7-9.4-6.8-8.8,0.9,5.7c0.1,0.3,0,0,0.5,1.4l0,0c0.1,0.5,0.9,0.4,1.1-0.4c0.3,0.1,0.8,0.3,0-0.4
		c0-0.4,0,0,0-1.7c0.1-1.3,0.2-2.6,0.4-3.9c-0.9-5.2,5.3-6.4,5.2-12.7C1227,1584.7,1220.1,1587.5,1220.8,1593.5z"/>
	<path d="M1233.6,1581.6c0-1-0.8-0.4-0.2-3.9c0.3,0.4,1.3,1.9,0.4-0.6C1230.4,1574.1,1232.1,1588.1,1233.6,1581.6z"/>
	<path d="M1229.6,1561.7c-0.2-0.1,0,0-0.8-0.3C1218.3,1571.2,1237,1586.2,1229.6,1561.7z"/>
	<path d="M1222.3,1565.6c0,0-0.1,0.1-0.1,0.1c-0.1-0.3,5-3,0-1.3c4.8-2.3-12.7,0.7-8.2,5.9
		C1216.2,1571.8,1219.1,1568.8,1222.3,1565.6z"/>
	<path d="M1236.4,1555.6c-0.1-2.3-1.7,2.1-1.3,7.8c4.3,4.9,2.1-3.3,2.4-10C1237.3,1553.7,1237.1,1554.1,1236.4,1555.6z"/>
	<path d="M1225.3,1557.6c4.4,0.4,8.2-2.8,12.9-5.1C1236.2,1553.6,1218.8,1552.1,1225.3,1557.6z"/>
	<path d="M1242.6,1544.7c-0.4-0.1-0.7-0.1-1.9-0.4c8.4,0-19.3-6.9-15.1,5.5C1226.8,1551.3,1233.2,1545.1,1242.6,1544.7z"/>
	<path d="M1247.5,1543.4c0.1-0.2,0.2-0.5,0.2-0.8l0,0c0,0,0,0,0,0l0,0c0.1-0.2,0.1-0.4,0.2-0.6l0,0c0.4-1.2-0.5,0.1-1.7,1.6
		c0-0.4,0.1-0.8,0.1-2.3C1238.5,1552.1,1245.1,1570.8,1247.5,1543.4z"/>
	<path d="M1196.6,1692.2c-1.2,1.1-3.8-3.4-8.6,0.7c0.4,0.1-2.5,0-0.2,0.4c0.3,0.8-0.4,2.1,3.3,1.9c-0.7,13,19.8-0.3,16.3-12.6
		C1201.2,1672.8,1202,1689.5,1196.6,1692.2z M1194.6,1697c0,0-0.1,0.1-0.1,0.1c-0.2-0.6-0.5-1.3-0.8-1.8c0.6,0.3,1.3,0.6,1.9,0.8
		C1195.3,1696.4,1195,1696.8,1194.6,1697z"/>
	<path d="M1191.9,1688.7c3.9,1.8,0.8-5.9-17,0.3C1180.3,1692.7,1185,1687,1191.9,1688.7z"/>
	<path d="M1233.7,1690.5c0.1-3.6-17.7,4.4-23.2,7.4c0.2,0,0.5-0.1,1.2-0.2C1212.2,1698,1236.2,1698.6,1233.7,1690.5z"/>
	<path d="M1210.4,1698c-0.1,0.1-0.2,0.1-0.3,0.2C1210.3,1698.1,1210.3,1698.1,1210.4,1698z"/>
	<path d="M1210.6,1697.9c-0.1,0-0.2,0.1-0.2,0.1C1210.5,1698,1210.5,1697.9,1210.6,1697.9z"/>
	<path d="M1241.6,1685.6c10.7-4-17.9-5.6-6.2,0.3c-0.3-0.5,0,0-1-1.6C1236.8,1684.9,1239.1,1685.9,1241.6,1685.6z"/>
	<path d="M1243.6,1688c0.4,0.6,9.7-4.5,4-5C1247.2,1683.7,1236.9,1690.8,1243.6,1688z"/>
	<path d="M1294,1693.1c-6.9-5.9-17.7,2.4-30.5-3.3c-1.7-2.5-6.9-10.3-7.1-0.7c-1-0.1-2.2-0.3-4.1,0.8c-3.6-5.9,1.1,8.8-41.4,10.7
		c-4.1,11.2,30.8,2.3,36.7-2.4c-0.4,0.7-1,1.7-1.9,3.6c-8.1,2.7-17,5.5-26.6,7.7c7.7,2.9,17.2-0.6,25.4-5.5
		c-2.9,5.8-10.7,7-17.7,9.5c-13.3,0.5,6.5,8.9,15.1,5.5c2.7,0.4,5.3,1.3,8.6,4c-1.2-0.6-2.6-1-3.6-1.3c1.1,1.2,1.7,1,4.7,5
		c-5.5-1-12.2-3.4-19.4-5c0,0,0,0,0.4,0.3l0,0l0,0c11.8,8.5,23.2,19.7,39.5,21.8C1285.6,1748.6,1304.4,1700.9,1294,1693.1z
		 M1238.3,1715.8c-0.2,0.1-0.5,0.2-0.7,0.2c0.3-0.1,0.6-0.2,0.8-0.3L1238.3,1715.8z M1255.5,1718.6c-2-0.9-5.3-3-8.6-3.8
		c0.2-0.2,0.4-0.5,0.6-0.7c1.4-0.2,3.8,0.7,6.3-1.3c0.8,1.7,2.8,3.8,4.2,6.8C1257,1719.3,1256.2,1718.9,1255.5,1718.6z"/>
	<path d="M1297.8,1675.5c1.6-0.1,3.1-2.7-2.6-4.7c-0.2-0.9-2.7-1.3-1.9,0.9c-0.2,0.5-0.2,1.1-0.2,1.6
		C1293,1674.4,1296.2,1679.1,1297.8,1675.5z M1296.1,1674.5c0.3,0.2,0.1,0.1,0.8,0.6c0,0,0,0.1-0.1,0.3c-0.2-0.1-0.4-0.1-0.7-0.5
		C1296.1,1674.7,1296.1,1674.7,1296.1,1674.5z"/>
	<path d="M1304.9,1673.8c-1.2-1-8.6,0-5,3.7C1300.8,1684.3,1318.3,1670.3,1304.9,1673.8z"/>
	<path d="M1305.1,1708.1c2.7-1,3.4-2.2,6.7-5c28.7-18-21.4-6.8-7.7,5.1C1304.1,1709.1,1302.9,1712.1,1305.1,1708.1z"/>
	<path d="M1328.3,1693c21.2,11.4,2.7-13.5,1.9-22.8c-8.4-8-6.4,9.3-3.3,13.8c-11.8-14.4-8.1,7.4-1.4,15c-0.9-2.3-2-7.2-2.1-10.9
		C1324.6,1689.5,1326.1,1691.2,1328.3,1693z"/>
	<path d="M1341.2,1652.1c-11.6,1.5-0.2,49.2-2.2,22.4c0,0.1,0,0.2,0,0.3c0-0.3,0-0.6,0-1c0,0.1,0,0.2,0,0.3
		c0.1-3.8,0.2-6.7,1.8-11.2c0.8,0.2,1,0.8,3-0.3c7.8,3.5,5-12.6,5.8-18.7C1351.6,1636.1,1342,1625.6,1341.2,1652.1z"/>
	<path d="M1343.7,1709c-0.3-1.6-5.1-6.4-5.6-0.6c-3.6-1.9-13.7,1.4-18.8,3.3c5.9,1.3,13.3-1.5,19.8,2.1c0.8,0.1,2,0,2.9-1.7
		c3.2,3.8,4.8-0.7,2.1-6.7C1343.9,1706.4,1343.9,1706.2,1343.7,1709z"/>
	<path d="M1356.7,1692.7c0.1-3.9-6.9-7.5-5.9,1.1c-14.5-20.4,0.2,19.6,2.4,28.7c7.2,9.8,7.3-5.8,5-14.4c5.6,16.7-0.8-12.6-1.5-15.5
		C1356.7,1692.6,1356.7,1692.7,1356.7,1692.7z"/>
	<path d="M1404.8,1687.4c3.9-7.5-4.4-42.7-8.1-21.9c-0.4,0.9-0.5,0.5-0.6,2.4l0,0c5.9,21.3-18.5,44.9,0.8,23.7c0.3,0.3,0,0,1.2,0.8
		c-0.4,0.5,0,0-1.7,2.5C1390.9,1701.6,1401.9,1700.3,1404.8,1687.4z M1398.3,1693.5c0.1-0.3,0.2-0.6,0.3-1c0.1,0,0.2,0,0.3,0
		c-0.2,0.4,0.1,0-0.8,1.6C1398.2,1694,1398.2,1693.7,1398.3,1693.5z"/>
	<path d="M1416.5,1660.2c-10.8,12.9,0.4,45.3,6.3,52.8c0,0,0,0,0,0c-8.9-65.1,16.3-39.2,16.4-82.2c1.7-31.5-7.6-51.5-6.2-78.5
		c-5.4,14.4-7.4,30.1-5.6,46.5c-1.6,20.4,3.7,43.5-10.6,60.9c1.8-43.2,9.4-86.6-41.9-97.2c6.5-5.7,3.5-11.2,3.2-20.7
		c9.5-6.2,12.4-17.8,6.1-22.7c2.3,16.8-13.9,8.8-16.6,24.5c3.8,15.3-7.9,23-15,36.1c6-4.1,13.7-8.1,19.5-14.1
		c4.9,5.2,12.9,6.4,18.7,12.2C1411.9,1599.3,1406,1633.1,1416.5,1660.2z"/>
	<path d="M1384.3,1519.2L1384.3,1519.2L1384.3,1519.2C1384.3,1519.2,1384.3,1519.2,1384.3,1519.2z"/>
	<path d="M1321.7,1553.4c7.5,17.5,31.3,7.3,39.3-6c-0.2,0.5,1.3,0.1,0,4.1C1372.9,1526.8,1340.4,1566.5,1321.7,1553.4z"/>
	<path d="M1299.2,1517.3c2.1,2,3.1,3.1,5.3,6.4c0.1,0,6.9,8,5,4c-3-3.8,1-13.4-5.3-16.5C1289.2,1511.3,1264,1517.7,1299.2,1517.3z"
		/>
	<path d="M1282.3,1520.5c-1.3,1-0.8,3.7,1.5,5.1c2.3,8.1,11.1,7.9,18.7,9c-6.9-4.2-10.3-16-21.3-14.8
		C1281.6,1520,1281.4,1519.8,1282.3,1520.5z"/>
	<path d="M1273.1,1552.4c0.2,1.2,0.3,1.7,1.3,3.5c0-0.8,0.1-1.6,0.2-2.2c0.2,0.2,0.3,0.4,0.5,0.6c0-0.5-0.2-1-0.4-1.5
		c12.6-20.9,3.4-8.8-1.5-29.5c0,0,0,0,0,0C1274.2,1527.5,1252,1538,1273.1,1552.4z"/>
	<path d="M1244.3,1533.8c12.2-5.7,9.2,7.5,27.4-9c-0.6-0.1,0-0.1-2.2-0.2c0.5-0.2,1-0.6,1.7-1c-9.6-3-32.4-3.4-32.4,11.1
		C1240.5,1535.3,1239.7,1535.9,1244.3,1533.8z"/>
	<path d="M1256.8,1517.1c4.1-0.6,8.9,0.9,14.1,1.2c15.9,2-9.6-10.1-16.5-1.2C1252.7,1519.1,1254.6,1517.6,1256.8,1517.1z"/>
	<path d="M1268.7,1510c0.2,0.1,0.2,0,1.1,0.4c6.7,2.4,10,2.1,19.4-3.6c5.4-2.9,15.1-0.8,20.6-7.3l0,0c1.1-0.2,2-0.4,4.9-0.9
		c0,0.1,0,0.1,0,0.2c-0.5,0-1,0.1-1.8,0.3c12.5,3.3,5,28.8,24.7,23.1c-2.6,4.9-5,10.6-8.8,16c17.7-5,34.7-54.7,53.9-25.7
		c-0.8-25.1-30.4-17-39.5,0.1c-2.3-2.7-6.1-5.5-7.5-10.2c4.5,0.8,9.9,1,15-2.1c-13.4-0.9-27.6-14.6-40.8-1.8
		c-9.2-4.7-10.7-30.1-29.8-20.8c-21.7,14.3-3.9,28-21.4,34.3c0.2,0.1,0,0,0.6,0.2C1262,1512.9,1265.5,1512.2,1268.7,1510z
		 M1278.8,1497.5c0.1-4.1,5.8-11.3,16.6-8.1c3,3.8,8.1,8.6,14.3,9.2c0.1,0-0.8,0.3-0.4,0.8c-9.4,1.6-20-1.3-30.6-1.6L1278.8,1497.5z
		"/>
	<path d="M1396.1,1523.2c18.4,9,31.7,6.5,42.2,32.8c0.5-17.4-7.2-28.7-19.4-40.8c-5.4-8.4-8.8-21.2-21.9-21
		c-0.7-0.8-1.9-1.9-3.7-2.1C1401.6,1499.5,1382.5,1515.5,1396.1,1523.2z"/>
	<path d="M1461.5,1547.6c-0.2-0.8-0.6-1.8-0.9-2.9c1.6,1,3.3,1.9,5.1,2.7c-0.9-1.3-2.3-2.9-7-9.8c-1.3-11.8,8.8-14,11.4-25.6
		c1.9-10.4-1.7-24.3-15.7-18.9c-5-0.4-21.5-4.7-10,7.3C1463.7,1519.6,1428.5,1521.3,1461.5,1547.6z"/>
	<path d="M1504.7,1555.8c28-37.4-34.2-86.8-16.8-53.6C1506.2,1528.4,1506.5,1531.2,1504.7,1555.8z"/>
	<path d="M1517.7,1502.1c36.1,27.6,16.9,54.5,34.5,81.5c-2.8-18.5-1.2-38.6-5.3-58.1c7,15.1-6.3-26.6-8.6-30.9
		c-5.9-2.1-12.9-4.7-20.4-5.6C1511.3,1489.6,1510,1500.6,1517.7,1502.1z"/>
	<path d="M1528.3,1724.3c0,0,0,0.1-0.1,0.1c0,0,0,0,0,0.1C1528.2,1724.4,1528.2,1724.3,1528.3,1724.3z"/>
	<path d="M1559.8,1641.7c-15.5,33.3-41.1,77.6-42.4,92.8c-1.5,8.9,1.9,16.2-4.9,24c11.5-6.5,7.7-23.3,15.7-34.2
		c31.8-58.8,40.5-72.6,43.6-92.7c5.3-66.1-29.2-127.9-17-83C1561.8,1580,1567.5,1615.4,1559.8,1641.7z"/>
	<path d="M1580.1,1647.5c-8.1,22.8-4.6,46.7-14.1,70.1c0.1-0.3,0.2-0.6,0.3-0.8c-4.2,12.9-10.9,25.4-12.6,40.3
		c5-11,11.5-22,17.5-33.9C1584,1697.3,1584.7,1669.1,1580.1,1647.5z"/>
	<path d="M1556.8,1709.7c-12.7,18.6-19.1,40.9-28.6,62.4c-9.9,12-18.2,26-29.3,38.2c19-4.2,28.9-22.6,33.6-40.9c0,0,0,0,0,0.1
		c0.8-3.2,1.1-3.6,0.1-2.4c11.1-15.8,31.7-47.3,26.9-61.7c0,0,0-0.1,0.1-0.1C1558.6,1706.7,1557.6,1708.2,1556.8,1709.7z"/>
	<path d="M1601.1,1638.6c7.9-23,28.7-79,0.8-109.2c-4.4-6-27.6-50.7-31.7-22.5c9.4,16.7,18.1,33.5,22.8,52.8
		C1593.1,1576.7,1597.2,1662.5,1601.1,1638.6z M1604.8,1567.4c0.8,12.9-0.7,27-1.9,40.8c0.3-26,4.4-54.2-8-79.3
		C1601.2,1539.9,1604,1553.6,1604.8,1567.4z"/>
	<path d="M1611.6,1515.3c26.4,11,23,22.1,24.6,43.5c-0.2,21.9,27.2-45.8-25-44.6C1611.4,1512.9,1609.7,1513.6,1611.6,1515.3z"/>
	<path d="M1651.9,1516.9c-0.1-0.1-0.1-0.2-0.2-0.2l0,0C1651.7,1516.7,1651.8,1516.8,1651.9,1516.9z"/>
	<path d="M1651.7,1516.6c46.8,53.9-4.8,39.4,21.4,98.8c3.9,10.2,0-13.7,0.8-21.7c4.6-12.2,14-23.9,13.7-38.4
		c1.5-17.1-30.3-38.9-39.5-42.4C1649.1,1513.7,1650.3,1514.7,1651.7,1516.6z"/>
	<path d="M1703.5,1544.6c-0.1-0.7-0.1-1.2-0.6-3.5c-7.1-26.4-5.4-30.3-35.1-25.7c2.7,1.2,5.9,5.1,9.4,6.9
		C1686.6,1527.3,1695.6,1535.9,1703.5,1544.6z M1686.1,1520.2c0.8,0.5,0.6,0.2,1.9,1.6c-1-0.5-1.6-1-5.6-2.3
		C1682.7,1519.6,1683.1,1519.4,1686.1,1520.2z"/>
	<path d="M1741,1547.4c0-0.1,0-0.1,0-0.2C1741,1547.3,1741,1547.3,1741,1547.4z"/>
	<path d="M1741,1547.4c0,0.1,0,0.2,0.1,0.4C1741.1,1547.7,1741,1547.5,1741,1547.4z"/>
	<path d="M1745.8,1564.1c-6.3-14.8-5.5-35.5-20-46.8c35.9,19.1,19,56.3,32,68.7c6.7,9.3-0.6-6.2,0.9-10.1c8-48.8-5.9-75.3-56.7-62.2
		c1.3,0.4,2.5,0.7,3.8,1C1729.7,1518,1728.1,1551.1,1745.8,1564.1z"/>
	<path d="M1824.1,1617.2c3.7,11.2,7.5,33.9,22.3,33.2c0.8,0.1,2.1,0.3,3.8,0.4c-23-13.7,6.1-61.4-39.6-87.4
		c-3.9-18.9-8.1-37-24.1-40.8c0,0,0,0-0.1,0c0.1,0.2,0.3,0.3,0.4,0.4c0.1,0.2-1.2-0.8-0.6,0l0,0c0.1,0.2,0.2,0.3,0.3,0.5l0,0
		C1801.3,1554.4,1795.8,1602.2,1824.1,1617.2z M1822.9,1612.7c-1.4-2.3-1.9-3.4-3.8-7.7c-3.7-8.7-6.3-19-7.3-29.8
		C1816.6,1586.8,1819.7,1599.4,1822.9,1612.7z"/>
	<path d="M1771.1,1510.9c2.4,14.2,20.7,8.7,30.9,13.6c-0.3-0.5-0.6-0.9-1.9-2.6c-0.2-0.3,5.8-2.4,1.8-9.4c3.3,0,7.9-1,12.2-2.1
		c-5.8,11.1,28.7,43.4,32.4,54.3c28.2,52.8,9.1,4.8,5.2-10.6c14.9-32.8-14-53.5-31.1-48.7c-15.5-4.8-38.4,4.1-51.5,4.2
		C1769.7,1509.9,1769,1509.5,1771.1,1510.9z M1835.1,1518.1c9.4,5.9,13.9,16.9,14.6,28.9v0c0,0.9,0.1,1.9,0.1,2.8
		c-6.7-11.6-15.2-23.2-21.7-36.3C1830.2,1514.3,1832.5,1516.1,1835.1,1518.1z M1779.4,1513.6c5.5,1,22.5-4.2,20,7.4
		c-6.4-7.2-18.7-2.5-26.5-9C1775,1512.9,1777.2,1513.5,1779.4,1513.6z"/>
	<path d="M1915.3,1658c-5.7-12.5,2.7-25.2-4.7-37.9c-17.8-29.4-19.6-83.9-44.4-92.6c-0.6-0.2,0,0-1.7-0.6c0.4,0.4,0,0,1.1,1
		c3.2,3.4,3.7,9.5,5.7,14.2c0,0,0,0,0-0.1c4.7,13.8,4,29.1,5.6,44.5c8.1,31.6,22.5,40.3,7.9,73.6c-2.3,9.5-0.8,17.9,0.6,28.1
		c1.7,20.6,11.2,28,18.3,40.1c2.3,9.8,0.8,22.5,12.1,28.6c-5.8-6.2-3.3-16.9-2.5-25.6c-0.8,7.5-0.3,17,5.6,23.3
		c-4.3-9-0.2-21.5,4.6-30.7C1941.3,1687.9,1925,1685.6,1915.3,1658z M1909.3,1716.1c-2-3.8-4.4-7.6-6.3-12.7
		c-3.5-12.1-7.4-34.9-1.5-46C1903.7,1676.3,1914.2,1695.7,1909.3,1716.1z"/>
	<path d="M1854.5,1501.4c64.5,10.9,51.6,84.8,71.8,92.9c-0.3-0.6-0.7-0.9-1.8-3c1.4,1.5,3.9,3.1,2.2,1.1c-5.9-27.8-4-59.6-24.2-84
		c-10.8-12.3-30.1-7.8-48.3-7.6v0C1854.4,1500.6,1853.8,1500.9,1854.5,1501.4z"/>
	<path d="M1962.6,1585c-10.6-16.5-21.9-33.3-34-49.9c-0.1,0.6-0.2,1.1-0.1,3.3c21.3,48-11.7,28.1,29.7,100.2
		c4.1,6.2-1.6-7.4,0.2-13.6C1957.9,1612,1966,1598.9,1962.6,1585z"/>
	<path d="M1938.8,1533c12.2,13.7,21,31.1,35.4,44.5c-6.9-22.8-29.3-76.4-52.3-70.6C1884.9,1495.6,1918.8,1510.8,1938.8,1533z"/>
	<path d="M2015.8,1642.8c-0.3-0.1-0.6-0.3-0.9-0.4C2015.1,1642.6,2015.4,1642.7,2015.8,1642.8z"/>
	<path d="M1953,1506.3c54.7,31.8,31.5,51.6,39.3,74.4c13.9,25.3,15.4,14.6,17.5,47.2c1.2,4.8,0.4,11.9,5,14.6
		c-0.5-0.5-0.4-1.5,0-3.7c11.7-38.7,2.1-35.2-4.2-68.2c-1.9-44.7-17.6-62.9-60.9-66.5C1950.6,1504.8,1951.3,1505,1953,1506.3z"/>
	<path d="M2011.9,1518.9c13.5,9.8,20.1,26.8,24.3,43.3c5.8,17.6,4.4,37.6,10.3,56.1c2.8,10.8,11.3,18.5,12.9,30.7
		c0.4-1.2,1.1-2.5,1.6-5.5c-12.7-44.9,10.7-76.6-10.8-97.4c-16.1-13.8-7.2-27.7-24.1-32.6c-9.8-1.3-17.2-1-27.2-5
		C1992.9,1506.2,2010.9,1517.2,2011.9,1518.9z M2023.7,1518.6c1.5,1,3.4,1.8,5.3,5.7c-1.9-1.9-4-4.5-7.2-6.6
		C2022.4,1518,2023,1518.3,2023.7,1518.6z"/>
	<path d="M2036.3,1562.5c0-0.1,0-0.2-0.1-0.3c0-0.2-0.1-0.3-0.2-0.5C2036.1,1562,2036.2,1562.2,2036.3,1562.5z"/>
	<path d="M2044.1,1520.2c27,34.6,25.9,35,24.8,74.9c-0.5,35.2,4.3,68-7.8,102.3c-19.8,48.6-15.3,68.6-24.2,94.2
		c-2.5,12.7-23.3,32.1-11.3,40.9c-0.4,11.3,10.6-7,14.9-11.8c33.9-40.7,19.2-62.2,38-96.8c8.8-17.3,13.8-37.1,10.4-57.6
		c-0.5-22.9,0.6-44.8-1-68.1c-6.1-62.6,6.9-52.9-23.1-84.2c-7.2-1.4-15.6-2.5-23.7-4.2C2039.6,1513.1,2040.6,1517.4,2044.1,1520.2z
		 M2026.4,1826.2c0,0.6,0,0,0.2,1.5c-0.1-0.1-0.3-0.2-0.4-0.4c0,0,0,0,0,0C2026.3,1826.9,2026.4,1826.6,2026.4,1826.2z
		 M2026.3,1830.3c-0.1-0.5-0.4-0.3-0.2-2.4c0.2,0.1,0.4,0.2,0.6,0.2c0.1,0.3,0.2,0.5,0.3,0.8
		C2026.8,1829.4,2026.6,1829.8,2026.3,1830.3C2026.3,1830.3,2026.3,1830.3,2026.3,1830.3z M2027.2,1833.1c0-0.2,0-0.3-0.1-0.5
		c0.1,0,0.2,0,0.3,0C2027.4,1832.8,2027.4,1832.6,2027.2,1833.1z M2027.8,1831.7c-0.2-0.1-0.2,0-0.8-0.4c0-0.5-0.2,0,0.1-2.2
		c0.3,0.6,0.6,1.1,1,1.6C2028.1,1830.9,2027.9,1831.3,2027.8,1831.7z M2029.5,1826.1c-0.5,1.3-0.9,2.7-1.3,4.1
		c-0.2-1.5,0.6-3.8,2.1-6C2030.1,1824.8,2029.8,1825.4,2029.5,1826.1z"/>
	<path d="M2094,1529.6c18.2,35.3-0.2,53.2,20.8,94.6c3,13.1-0.4,27.5,0.9,41.3c5.6,20.5,16.3,36.7,21.6,58
		c1.4-17.7-1.5-36.1-8.7-53.4c-2.5-13.3-0.4-25.7-0.7-39.9c8.6,24.7,2.9,55,18.7,77.6c-2.2-6.5-3.8-14.1-3.1-22.4c0,0.1,0,0.1,0,0.2
		c3.6-34.8,1.7-31.6-3.3-57c-4.8-34.7-8.6-36.5-24.6-58.4c-0.8-7.6-2.4-15.5-5.1-23.4c9.4,11.1,12.7,25.8,21.8,37.9
		c-2.1-7.9-2.9-16.7-5-25.8c-5.2-19.7-22.6-31.5-42.1-35.9C2087.4,1524.4,2091.4,1526.9,2094,1529.6z M2116.1,1578.8
		c0.5,1.4,1.9,4.4,3.3,7.4c5,9.8,6.2,21.7,7.2,33.7C2124.2,1606.5,2114.7,1594.1,2116.1,1578.8z"/>
	<path d="M2154.4,1602.1c-0.4,2.2-1.2,6-1.5,9.4c-4.5,13.1-4.8,47.7-1,68.3c18.7,48.2,17.3,56.7,18.6,85.1
		c18.2-49.5-6.5-69.5-9.7-102.6c17.5,42.8,20,64.2,19.5,41.4C2183,1673.7,2156.6,1625.8,2154.4,1602.1z"/>
	<path d="M2142.2,1551.7c-1-0.8-21.3-25.1-12.1-11c0,0,0,0,0,0c0.3,0.6,0.6,1.3,1,1.9c0-0.1-0.1-0.2-0.1-0.3
		c36.9,70.3,42.8,44.5,51.3,117.9c5.8-23,7.1-50.3-8.2-71.4c4.1,5.4,7.3,12.5,11.6,19c-0.4-14.5-5.6-28.8-15.2-41
		c-13.3-14.6-28-26-44.4-37.4c3.1,3.9,6.2,9.1,9.7,14.1C2137.3,1545.5,2139.7,1548.8,2142.2,1551.7z M2154.8,1565.6
		c4.2,4.3,9.1,9.2,13.1,15c-6.4-7.8-13.2-14.5-20.4-22.9C2149.4,1559.9,2152.1,1562.8,2154.8,1565.6z"/>
	<path d="M1468.1,1708.9c0,0.1-0.1,0.1-0.1,0.2C1468,1709,1468.1,1708.9,1468.1,1708.9z"/>
	<path d="M1468.1,1708.9c0.1-0.1,0.2-0.3,0.5-0.8C1468.4,1708.4,1468.3,1708.6,1468.1,1708.9z"/>
	<path d="M1429.2,1795.8c0.3-0.6,0.4-1.1,1.5-3.3c14.6-37.2,31.7-16.6,39.3-59.2c8.6-22.4,23.4-43,28.8-67.6
		c-71.1,93.8-20.7,52.2-64.5,104.8C1430.1,1777.9,1430,1786.7,1429.2,1795.8z"/>
	<path d="M1449.1,1819.6c-4.3,4.7-10.9,6.1,0.8,3.8c31.6-18.3,31.2-49.4,41.3-60.5c-5.6,2.7-11.5,7.7-14.9,14.2
		c0.2-0.2,0.3-0.5,0.5-0.8c-1.4,2.3-4,6.3-6.2,9.6C1462.4,1796.2,1456.6,1808.3,1449.1,1819.6z"/>
	<path d="M1508.8,1761.4c-11.6,13.7-18.3,31.7-26.9,48.2C1503.8,1793.3,1505.2,1782.7,1508.8,1761.4z"/>
	<path d="M1540.5,1872.3L1540.5,1872.3C1540.5,1872.3,1540.5,1872.3,1540.5,1872.3C1540.5,1872.3,1540.5,1872.3,1540.5,1872.3z"/>
	<path d="M1540.5,1872.3c-16-4.7-30.2-17.7-48.2-18.6c-29.4-1.4-55,38.2-75,29.2c-0.5-0.1-2.3-1.2-0.4,0.4
		c8.5,9.4,22.8,4.8,33.5,0.4C1507.2,1851.9,1501,1874.2,1540.5,1872.3z"/>
	<path d="M1554.6,1882.4c-18.6-10.2-29.3,6.1-43.6,0.6c-4.5-3.3-10-8.1-16.8-9.1c29.3,43.7,36.2,1.7,68.2,15.6
		C1560.9,1887.1,1557.7,1884.1,1554.6,1882.4z"/>
	<path d="M1572.3,1866.9c-0.5-0.2-0.6-0.2-5.6-2.1c-2.7-5.1-8.2-3.5-14.2-4.2c4-3.8,2.9-3.2-2.4-1c-2.1-0.6-7.4-7.7-1.7,2.4
		c1.7,3.7,7,5.7,11.6,8.5C1554.5,1895.1,1587.7,1875.2,1572.3,1866.9z"/>
	<path d="M1566.2,1816.6c1.8,8.1,4.8,16.6,10.5,24.2c4.2,5,16.1,7.6,11.1-3.2C1581.8,1830.4,1572.4,1825.1,1566.2,1816.6z"/>
	<path d="M1549.2,1827.1c8.4-2,12.8-3.4,19.9,5c-0.4-2.9-0.9-4.6-3.5-7.9c-12.5-12.8-17.9,4.6-31.5-8.8
		C1536,1821.2,1540.5,1828.6,1549.2,1827.1z"/>
	<path d="M1541.6,1837.2c-5.4-22.1-32.8-14.1-33.6-2.2C1519.8,1828.3,1531.5,1826,1541.6,1837.2z"/>
	<path d="M1529.4,1900.4c-0.6-1.3-24,8-13.4,6.9c0,0.2,1.2,2.4,0.8,0.1C1516.7,1907.6,1536.8,1907,1529.4,1900.4z"/>
	<path d="M1492.1,1941.1c-0.9-1.9-23.8,4.4-23-4.3c-2.6,3.3,1.2,6.9,5.4,8.8c-1.5,1.7-2.7,2.4-2.2,6.5c-12.3-0.7-35.1-8.2-44.3,2.5
		c19.9-5.8,56.5,29.9,63.9-2.9C1494.9,1950,1497.9,1943.5,1492.1,1941.1z"/>
	<path d="M1410.7,1901.8c0.3,17.6,7.4,22.7,22.1,27.8c-3.4-4-8.1-8.8-12.1-13.3C1417.2,1912,1414.4,1906.9,1410.7,1901.8z"/>
	<path d="M1394.7,1935.6c-1.5-1.4-1-0.7,0.2,2.4c5.7,13.2-1.7,26.2,2.6,40.3c4.2,15.3,32.6,33.1,43.2,23
		C1397.1,1994.4,1412.1,1944.9,1394.7,1935.6z"/>
	<path d="M1382.4,1958.4c1.5,11.3-14.7,36.9,9.4,36.5c-1.5-0.8-3.4-1.9-5.5-3.7C1380.8,1982.2,1391.9,1968.2,1382.4,1958.4z"/>
	<path d="M1334.9,2030.1c-12.8,2-24.7,6.1-26,20.7c-1.5,14,14.9,14.5,25.3,15.7c-2.4-2-6.4-4.4-10-6.2c0.1,0.1,0.3,0.1,0.4,0.2
		c-7.1-3.5-8.9-5.9-5.1-15.7C1322.8,2038.8,1329.6,2035.5,1334.9,2030.1z"/>
	<path d="M1299.5,2059.4c-28.6-14.6,9.7-28-5.2-24.8C1249.5,2056.3,1328.2,2072.8,1299.5,2059.4z"/>
	<path d="M1289.9,2029.2c-14.1-2.7-26.7,9.9-19.2,22.6C1270,2041.2,1280.6,2033.8,1289.9,2029.2z"/>
	<path d="M1773.1,1797.2c-27.2,13.6-36.2-34.7-51.2,16.1c-2,0.3-6.4,0.8-9.4,1.2c-3.7-2.5-6.7-3.9-9.1-9.1
		c28.7-45.1-0.2-60.9,5.7-86c11.7-40.3,15.2-60.3-0.8-88.5c0,3.1,0.5,7.8,0.9,11.9c-0.4-0.4,0,0-1.2-0.9
		c12.1,24.9-45.8,64.9-12.6,109.2c12.9,25.3-18.5,50.9,9.4,65l-0.1,0c-19,6.7-19.6,7.3-30.9,28.4c-3.9,8.8-13.4,14.4-13.1,25
		c12.9-2.9,27.1-4.7,41.3-4.3c25.6-19.6,6-22.5,54.9-49.7c1.4-1.7,3.1-5,3.7-8.5c0.2,0.2,5.5-1.5,4.4,1.1c0.7-0.2,1.5-1.9-1.2-2.8
		C1766.6,1803.8,1770.6,1800.1,1773.1,1797.2z M1702.6,1802.2c-0.2-1.8,0.5-4.1,1.7-6.8c-0.4,2-0.6,3.8-1.7,6.9V1802.2z
		 M1750.9,1813.7c-1.8,0.6-3.6,1-4.9,1.3c4.1-2.3,7.6-5,12.6-7.5C1756.8,1809.9,1754.8,1812.1,1750.9,1813.7z"/>
	<path d="M1658.6,1921.6c69.7-1,48.4-44.7,31.3-25.2c-7.8,10.2-18.3,9.8-30.7,11.2c-20.3-5.5-42-2.6-63.4-4.6
		C1615.6,1910.6,1636.1,1922.7,1658.6,1921.6z"/>
	<path d="M1704.7,1921.5c-3.8-2.6-7.1,1.4-12.1,2.7c-12.8,0.4-26-5.6-39,1.4c12.7,0.5,25.3,9.2,38.5,9.3
		C1697.6,1933.9,1712.9,1929.3,1704.7,1921.5z"/>
	<path d="M1695.1,1966.3C1695.1,1966.3,1695.1,1966.3,1695.1,1966.3c19-15.2-17.7-13.2-26.5-8.3c-12.4,5.2-20.2,14.6-33.4,18.6
		c5,1.7,10.9,1,16.7-1.9C1665.1,1970.4,1681.3,1972.9,1695.1,1966.3z"/>
	<path d="M1663.9,2007.9c14.2-5.8,30.7-1.3,45.6-7.7C1693.6,1997.9,1676.1,1991.3,1663.9,2007.9z"/>
	<path d="M1692.3,1986.1c-1.7-0.1-14.9,2.4-6.3,2.9C1694.5,1990,1704.9,1986.1,1692.3,1986.1z"/>
	<path d="M1723.7,2037c0,1.3,0,2.6,0.2,4.1c-0.3-1.5-1.9-3.9-1.3-6.8c1.1-1.1,0.8-1,3.9,0.6c-11.5-11.5-4.5,16.4-8,22.3
		c-9.3,15.7-16.9,16.8-1.4,33.4c-5.8,7.9-0.6,21,10.4,12.9c11.1-15.7,20.2-24.3,8.6-44.9C1733.1,2051.8,1726.8,2044.9,1723.7,2037z"
		/>
	<path d="M1718.9,2004.4c7.1,5.2,8,24.7,17.6,16.3c3.6-5.5-10.5-17-12.2-24.4c-0.1,1.3-0.1,3.4,0,5.8c-1.1-0.6-1.4-1.1-4.6-2.5
		C1708.2,1994.6,1714.6,1998.3,1718.9,2004.4z"/>
	<path d="M1664.7,2094.7c-0.1,0-0.2-0.1-0.3-0.2c5.2-19.4,4.8-21.3-5.6-3.3c-11.6-3.2,4.2-39.2-2.7-29.6c-12.8,14-18,34.8,5.3,39.1
		c1.9,2.3,20.6,7.6,9.8,1.3c1.6,0.2,4.4,0.6,7.3,0.9C1674.8,2100,1669.8,2097.4,1664.7,2094.7z"/>
	<path d="M1788.9,1782.1c0.2-51.4-18-58-28.6-92.5c-6.9-25,1.5-52.2-4.1-78.5c-10.9-32.2-4.2-5.2-23.6-56.7
		c1.3,4.5,0.7,9.1,0.5,14.9c-0.6-2.1-1.2-3.8-1.5-5.6c-0.8,5.4-0.5,11.5,0.3,17.5c7.4,27.8-2.2,53.8,1.5,82.6
		c4.4,33.6,21,92.8,27,108.3C1764.9,1786.6,1786.3,1810.2,1788.9,1782.1z"/>
	<path d="M1799.3,1705.6c20.5-81.7-15.7-55.5-30.1-108.5c-3.8,33.2,12,42.8,16.5,66.7c4,19.1-4.1,52.2,10,62.6
		c10.1,19.8,3.9,4,3.9-0.5C1798.6,1720,1798.1,1712.7,1799.3,1705.6z"/>
	<path d="M1799.5,1726L1799.5,1726L1799.5,1726L1799.5,1726z"/>
	<path d="M1877,1803.9c1.3,0.8,2.7,1.6,4.5,2.5c-1.3-1.7-3.5-4.4-5.5-7.1c12-42.6-6.9-50.8-25.9-84.7c-11.6-17.7-5.2-39-22.3-50.5
		c1.2,2.3,3.1,5,4.1,8.6c-0.8-2-2.5-5.2-4.3-8c3.1,32.8-25.7,69.4-0.4,110.5c-8.4-2.6-21.9,16.1-23.6,22.2
		c-2.7,8.3,2.3,16.3,2.5,25.8c0.8,5.6,1,9,1.8,15.3c0.4-1.3,1.1-3.4,1.8-5.8c0.6,0.3-3.1,11.9,7.1,7.3c-1.3-0.4-1,0.3-4.6-0.8
		c4.7-18.1,15.7-34.5,21.7-53c1.9,2.6,5.6,7.4,9.4,9.5c-9.9-19.3-9.1-36.3-3.5-56c9.1,21.1,24.4,13,21.3,34
		c-19.9-36.7-20.8,18.9,1.5,16.7c1.5,2.4,2.2,3.3,5.1,6.4c0,0.4,0.1,0.8,0.2,1.1c-17.9,5.4-42.2,14.3-27.1,38.5
		c-2.9,2.5,6.6,21.9,6.5,16.5c-5.6-20.4,16.2-31.4,22.6-49.5c3.4,7.3,9.5,11,17.4,13.7c-1-1-0.6-0.6-3-2.7
		C1881,1811.4,1878.6,1809,1877,1803.9z M1812.1,1839.1C1812.2,1839.2,1812.1,1839.1,1812.1,1839.1
		C1812.2,1839.2,1812.2,1839.1,1812.1,1839.1z M1861.3,1789.7c-3.3-1.7-4.5-6.3-5.3-10.9c1.5,1.9,2,2.5,4.7,5.6
		c0.2,1.2,0.7,3.2,1.8,5.6C1862.1,1789.9,1861.7,1789.8,1861.3,1789.7z M1851.4,1815c-0.3,0-0.6,0.1-0.9,0.2c1-0.8,1.9-1.6,2.9-2.4
		C1852.8,1813.5,1852.5,1813.8,1851.4,1815z"/>
	<path d="M1794.7,1828.9c0,0.1,0.1,0.2,0.1,0.3c-1.7-4.1-2.5-6.2-5.2-12.6c0.2-1.4,0.3-2.6,0.2-3.6l0,0c-0.2,0.3-0.3,0.6-1,1.7
		c-0.1-0.1-0.1-0.3-0.6-0.3c0,0,0,0,0.2,0c0.1,0.4,0,0,0,0.9c-9.4,12-18.9,26.1-33.3,34.2c-11.1,19.4,25.3,11,35.1,10.5
		c-0.8-0.5-1.6-0.9-2.4-1.3c12.8-4.7,12.5-18.8,7.1-29.6L1794.7,1828.9z"/>
	<path d="M1950.4,1785.8c-6.9-24.8-1.5-51.8-4-78.2c-0.2,0.5-0.5,0.9-1.3,2.5c-1.3-3.3-2.3-9.8-2.4-1c-4.7,36-43,60.3,7.6,83
		c2.6,1.7,0.5-0.6-1-2.8c5.4,4.4,3.1,2.8,1.1-3.4C1950.5,1786,1950.7,1786,1950.4,1785.8z"/>
	<path d="M1985.4,1691.2c15.7-16.4,1.4-21.9,6.3-37.3c11-22.5-14.9-40.7-21.9-60.6c3,32.7-1.4,66.7,7.1,100.1
		c-1.7,4-3.3,20.2,1.7,5.3c6.7,11.9,2.8,5,3.5-4.2C1983.2,1693.4,1984.3,1692.3,1985.4,1691.2z M1981.7,1642c-0.2-1.9-0.7-5.8-1-9
		c0.3,0.8,0.7,2.3,1.4,4.2C1982.3,1638.4,1982.9,1639.4,1981.7,1642z"/>
	<path d="M2000,1687.5c1.4-10,13.4-21.4,3.1-31.2c3,10.7-11.1,21.3-3.8,34.4v0c0.1-0.4,0.2-0.7,0.2-1.1c0,0,0,0,0,0.1
		C1999.7,1689,1999.8,1688.2,2000,1687.5z"/>
	<path d="M2000.9,1708c-0.2-3.1,2.6-8.5-1-11.2c0.8,0.7,0.4,2.1-1,4.8c0-1.3,0-1.8-0.1-4.2c-26.7,42.1-6.9,63.4-9.2,83.7
		c0.3-0.5,0.1,0.4,2.2-2.7c0,0,0,0,0.1,0.4c1.3-4.6,3-11.5,5.3-16.9C2017.5,1718.3,2009.1,1734.9,2000.9,1708z"/>
	<path d="M1999.7,1696.7c0.1,0,0.1,0.1,0.2,0.1C1999.9,1696.8,1999.8,1696.7,1999.7,1696.7z"/>
	<path d="M1998.9,1786.7c3.8,1.9,5.9,4.9,8.4,9.4c20.3-6,16.4-35.3,19.8-51.9c2.1-15,8.7-27.8,12-43.1c4.8-16.3-2.2-32.2-1.5-49.5
		c2.3-25.3,4.5-38.3-5.3-50.3c-10.2-23-4.7-8.8-3.5,7.7c-1.7,24.4-9.4,46.9-13.9,71.5c-11.8,72.6,3.6,71.2-15.4,105.3
		C1999.3,1786.2,1999.1,1786.4,1998.9,1786.7z"/>
	<path d="M1566.9,1761.6c0.3-0.8-2.9-21.1-3.8-14.7c-3.7,25.2-17.7,36.9-7.1,46.6c2.2,1.6,0-0.1-0.2-4.8
		C1558.5,1779.8,1567.6,1772.8,1566.9,1761.6z"/>
	<path d="M1580.4,1796.8c1.5-23,2.7-59.2,9.2-86.8C1574.4,1735.1,1564.6,1769,1580.4,1796.8z"/>
	<path d="M1604.2,1757c-11.7,28.4-23.4,81.5-5.2,38.6C1604.7,1786.5,1607.7,1761.3,1604.2,1757z"/>
	<path d="M2196.2,1680.1c0.9,2.9,2.2,6.9,3.7,10.7c0.1-0.6,0,0,0.2-1.8c0.6-23,1.2-44.8,1.4-68.4c0.2-12-2.2-24.7-12.4-33.4
		C2197.5,1616.9,2181.7,1649.8,2196.2,1680.1z"/>
	<path d="M2208.7,1631.9c0.2,1.2,0.2,1.9,0.4,3.5c0.2-0.6,0,0,0.5-1.7c10.9-35.9-11-75.3-36.7-83.1c1,1,2.8,2.8,4.6,4.9
		C2192.1,1578.2,2205.2,1603.7,2208.7,1631.9z"/>
	<path d="M2218.3,1602.4c5.4-14.1-1.9-27.1-14.7-34.3c2.1,4.3,4.1,8.6,6.4,13.9C2218.1,1595.7,2214.8,1614,2218.3,1602.4z"/>
	<path d="M2210.5,1650.6c-0.2,0.7-3.5-0.4-2.9,2.8c13.3,15.3,48.1-3.8,38.3-28.9c-4,18.1-19.3,30.7-38.2,28.9c0,0,0-0.1,0-0.2
		c31.9-0.5,46.5-33.1,27.8-52.4C2241,1620.4,2229.2,1641.8,2210.5,1650.6z"/>
	<path d="M2217,1682C2216.9,1682,2216.9,1682,2217,1682C2216.9,1681.9,2217,1682,2217,1682z"/>
	<path d="M2244,1666.1c-8,6.9-21.4,15.2-32.6,7.7c1.9,4.2,5.8,8.1,11.6,8.9c-1.3,0.5-12.7-3.4-3.6,3.2c-0.3,0.3,0-0.1-1.5,1.3
		c0-0.2-5.6-10.5-4.5-5.8c2,4-2.5,15.7,5.3,13.8c9-9,16.1,9,36.8-2.2c12.8-8,8.9-28.3,2.8-39.4c-0.4,3.3,0.7,3.6-2.3,8.5
		c1.7-5,2.5-10.9,1-17C2254.8,1652.7,2250.8,1659.9,2244,1666.1z"/>
	<path d="M2224.1,1755.6c0-0.6,0.1-1.3,0.1-1.9c0.1,0.2,0.2,0.3,0.3,0.5c-0.4,1.8-0.5,4.6-0.2,7.9c13.5-26.9,39.9-5.1,43.7-15.2
		c0.2,0.6,0.6,1,1.3,3.1c0.7-11.8,4.6-24.6,1.5-37.3c0.1,0.1,0.2,0.1,0.3,0.2c-0.7-1-1.5-3-3.3-5.2c0,0.5,0,1,0.1,2.6
		c-0.7,0-1.5,0-2.9,0.4c0.9-1.3,1.2-2.8,1.5-4.3l0,0l0,0c-1.6,1.5-1.7,2.4-5.4,3.7C2233.3,1716.2,2205.9,1722.2,2224.1,1755.6z"/>
	<path d="M2231.1,1798.1c-1.9,12.8,0.1,27.2,8.6,38.8c-2.9-8.6-2.2-24.5,13-19.6c1.7,1,1.6,2.1,6.7,4.2c-0.5,7.8,2.1,5.1,7.7,8
		c1.8,3.8,13.4,13.2,13.4,1.2c-2.9-5.5-5-10.4-6.6-17c3.2-2.5,0.6-13.2,0.1-21.6c-1.3-3.9,2.8-14.6-4.3-16.7
		C2259.1,1777.9,2230.1,1783.7,2231.1,1798.1z"/>
	<path d="M2261,1888.5c0.2-0.2,0.4-0.5,0.6-0.7c0.3,1,0.7,2,1.3,2.9c-1-12.3,11.9-5.8,17.7-14.8l0,0c1.9-2.6,2.3-3.4,4.9-7.1
		c0,0,0,0,0.1,0.1c0,0,0,0-0.1-0.2c0-0.1-0.1,0.1,0.4-0.5c-0.2,0-0.4,0.1-0.5,0.2c-0.1-0.3-0.2-0.6-0.4-0.9l0,0
		c-2.3-6.4-3.6-14.6-6.8-22.1l0,0c-0.2,0.6,0,0-0.4,1.8c-8.8-4.2-26.8,12.3-26.6,21.3l-0.3-0.5c-0.5,7.9,3.6,18.1,11.2,23
		C2261.8,1890.2,2261.5,1889.5,2261,1888.5z M2252.6,1870.3c0,0,0.1,0.2,0.3,0.4C2252.8,1870.6,2252.7,1870.4,2252.6,1870.3z"/>
	<path d="M2295.5,1893.6c0.8-0.4,1.9-0.6,4.2-2.3c0.2,0.1,0,0,0.6,0.2c-3.3-3.5-4.6-9.8-9.4-13.4c0.1,0.4,0.2,0.8,0.4,1.2
		c-1-3.3-10.4,4.6-19.1,8.8c-1.8,2.4-23.2,2.2,2.7,20.2l-0.6-0.9c0.6-0.3,0.2,0,1.1-1c-0.1,0.2-0.1,0.4-0.2,0.5
		C2281.2,1903.1,2287.9,1897.3,2295.5,1893.6z"/>
	<path d="M2338.2,1918.3v-0.1C2338.2,1918.2,2338.2,1918.2,2338.2,1918.3c-4.1-1.6-8.6-4.8-14.5-3.6c0.3,0.2,0.6,0.3,1,0.5
		c-0.2,0.1-0.5,0.3-0.7,0.5c-6.5-0.3-8.9,8.3-15.1,11.5c1.4-5.5,4.6-11.3,9.2-16.2c0.8,0,0.1,0,1.9-0.1c-4.4-0.8-9.3-11.8-15.5-8
		c-10.1,0.2-10.3,12.5-13.9,20.2c-0.6,0.2-0.4,0.6-2.2,0.4c0.1,0.1,0.2,0.2,0.4,0.3c0,0,0,0-0.1,0c5.3,5,11.4,11.3,20.4,12.9
		c-0.2-0.1-0.4-0.3-0.6-0.4c11.2,0,26.5-3,29.6-17c0.6,0,1.3-0.2,1.9-0.3C2339.3,1918.7,2338.8,1918.5,2338.2,1918.3z"/>
	<path d="M2367,1921.1c0,0,0.2-0.1,0.3-0.2c-2,0-4,0-9.4,1.2c0.2-0.3,0.4-0.7,0.6-1c-1.7,1-4,1.9-6.2,3.7c0.4,0,0.8-0.1,1.3-0.1
		c-3.5,4.1-1.3,11.3-13.1,23.5c0.4-0.1,0,0,1.7-0.5c-0.1,0.2-0.2,0.3-0.2,0.5c-1,0.1-2.1,0.2-3,0.4c6.9,4,20.2,6.6,27.9,0.2
		c-0.4,0.1-0.2,0.1-1,0.3c3.5-1.5,3.1-7.1,1.6-11.5C2364.9,1933,2368.9,1926,2367,1921.1z"/>
	<path d="M2424.7,1899.6c-3.1-24.5-24.9-30.1-32-3.2l0,0c-0.6,10.3-9.1,12.3-10.9,21.1c-9,10.1,5.4,18.6-2.6,30.6
		C2401.9,1941.2,2428.4,1929.3,2424.7,1899.6z"/>
	<path d="M2035.8,1839c13.6,0.6,49.1-28.6,51.8-35.9c20.3-57,13.3-52.8,36.2-96.7c-13.8,16.9-31.4,33.2-36.1,56.4
		C2061.2,1791.2,2063.8,1819.3,2035.8,1839z M2080.8,1792.2c-1.3,6.9-4.8,14.5-9.9,20.5c6.4-12.5,9.1-26.7,14.5-40.6
		C2084.1,1778.3,2082.5,1785.3,2080.8,1792.2z"/>
	<path d="M2122.8,1720.4c-6.5,18.1-20.9,32-21.9,52.7c8.8-10.9,17.3-22.5,21.6-36.9C2123.7,1734.9,2124.4,1714.8,2122.8,1720.4z"/>
	<path d="M2126.4,1762.5c15.7,0.5,27.8-30.1,20-36.9c-0.2,9.3-6.6,16.9-14.3,22.6c0.8-3.9,2.5-9.7,3.1-14.8
		c1.7-2.3-2.8-27.2-3.6-19.7C2133.8,1724.5,2109.2,1760.9,2126.4,1762.5z"/>
	<path d="M2102.5,1822.7c7.9-10,13.1-22.1,20.4-33.6c0.1-0.2,0.5-0.8,0.9-1.5c-17.2,7.8-24.8,24.6-36.2,39.4
		c-4.9,5.8-9.9,9.4-15.8,15.2c0.6-0.2,1-0.4,3.1-1.2c0,0-0.1,0-0.2,0.1c0.8-0.3,1.6-0.6,2.4-1c6.7-2.5,14.8-6.8,20.6-12.4
		c6.3-0.5,14-2.3,20.1-6.8c8.5-5.8,13.4-15.8,19.2-25.3c1.9,2.5,4.2,0.8,7.6-0.9c-1.1,1.4-3.6,3,1.5,1.1c31.8-8.6,18.5-21.9-3.9-7
		c5.5-6.5,12-14,12.9-23.8c5.5,29.6,7.3-18.1-0.7-18.5c-10.2-2.6-7.8,17.9-14.6,24.5C2122.4,1784.4,2123.1,1811.8,2102.5,1822.7z
		 M2151.4,1754L2151.4,1754c0,0-0.1-0.1-0.2-0.1C2151.3,1753.9,2151.4,1753.9,2151.4,1754z"/>
	<path d="M2158.1,1819.5c10-15.1,5.8-8.7-6.3-2.4c-4.6,4.6-30.4,7.5-17.8,16.1C2137,1836.9,2173,1814.1,2158.1,1819.5z"/>
	<path d="M2100.1,1882.6c0.4-0.3,0.8-0.6,1.3-0.9C2100.9,1882.1,2101.3,1881.7,2100.1,1882.6z"/>
	<path d="M2049.1,1892.9c5.6,4,13.9,7.9,21.9,5.1c55.5-22,46.2-50.2,83.1-57.8c-25.6-7.7-38.2,13.9-51.2,22.5
		c-18.2,6.3-31.5,25.9-52.4,26.9c-1.1,0.7-1.1,2.1,2.2,3.5C2051.8,1892.8,2048.4,1892.7,2049.1,1892.9z M2057.7,1894
		c-0.6-0.1,0,0.1-3.1-0.4c0.1,0,0.1,0,0.2,0c-0.5-0.1-0.9-0.2-1.4-0.3c-0.2-0.3-0.4-0.6-0.6-1
		C2054.5,1893.1,2056,1893.7,2057.7,1894z"/>
	<path d="M2032,1862.7c-0.1,40.6,47.9,6.2,60.8-9.6c3-2.9,24.9-31.5,11-18.9c6.3-11.3-6.9,6.8-16.1,8
		C2049.4,1855.7,2035.4,1852.1,2032,1862.7z"/>
	<path d="M2063.5,1921.8C2063.5,1921.8,2063.5,1921.8,2063.5,1921.8L2063.5,1921.8C2063.5,1921.7,2063.5,1921.8,2063.5,1921.8z"/>
	<path d="M2154.7,1939.4c23.1-122.2-70.4-5.6-89.8-20.6c-0.3-0.6-0.6-1.3-1-1.9c-0.1,0.5-0.2,1-0.2,1.5c0-0.5,0.1-1,0.2-1.5
		c-0.2,0.9-0.4,2.4-0.4,4.9c7,51.6,64.1-10,82.6-24.1c7.1,27.6-18.9,33.1-31.8,45.7c-10,12-9.5,34.2-32.1,20c0.2,0.3,0.4,0.6,0.6,1
		c-0.6-0.3-1.3-0.5-2.1-0.8c-0.1-0.1-0.4-1-1.2-2.4c-0.1,0.6-0.2,1.2-0.3,1.9c-0.6-0.2-1.2-0.4-1.9-0.6c0.5,0.7,1.1,1.5,1.8,2.2
		c-0.2,8.1,4.6,16.1,9.2,23.5c0-2-0.1-4.1-0.4-6.4c42.2,25.3,42.2-24.3,63.1-40.4c-0.4,1.2-0.6,2.3-0.9,3.3c1.6-1.5,3.5-3.4,4.6-5.7
		C2154.7,1939.1,2154.6,1939,2154.7,1939.4z"/>
	<path d="M2139.4,2014.9c0,0-0.1,0-0.1,0c0,0,0,0,0,0C2139.3,2014.9,2139.4,2014.9,2139.4,2014.9z"/>
	<path d="M2150.3,2010.7c-27.7-8.3-28.2,11.3-43.6,12.4c7.4,7,24-7.4,32.6-8.1C2144.4,2012,2167.7,2017.5,2150.3,2010.7z"/>
	<path d="M2160.9,1996.3c-6.2,0.5-14-1.8-20.7-3.1C2151.2,2007.6,2177.7,1999.1,2160.9,1996.3z"/>
	<path d="M2149.7,1984.9c3.2,2.1,24.8,13.7,18.8,1.8C2168.9,1984.5,2143.3,1982.3,2149.7,1984.9z"/>
	<path d="M2101,2017c-3.4-1.2-6.5-2.7-9.9-6.1C2084.9,2004.4,2082.4,2020.3,2101,2017z"/>
	<path d="M2131.8,2038.2c-2.3-1.1-4.8-2.5-8.4-2.5C2109.3,2036.4,2126.4,2039.3,2131.8,2038.2z"/>
	<path d="M2103.4,2046.3c-0.8-0.5-20.7-5.5-12.9-1.1C2093.5,2049,2121.2,2053.3,2103.4,2046.3z"/>
	<path d="M2076.7,2059.5c-1.7-2.4-13.5,0.5-7.9,4.3c2.1-0.4,14.3,4.1,7.2-0.9c0.6,0.2,0.9,0.4,2.3,1.2
		C2084.4,2069.9,2079.5,2061,2076.7,2059.5z"/>
	<path d="M2086,2111.1c-6.5-2.1-35.8,6-15.5,13.4c5.3-0.7,32.7,2.3,26.7-10.9C2094.8,2110.6,2090.9,2109.9,2086,2111.1z
		 M2090.7,2116.3L2090.7,2116.3L2090.7,2116.3L2090.7,2116.3z M2091.3,2114.7L2091.3,2114.7L2091.3,2114.7L2091.3,2114.7
		L2091.3,2114.7z M2091.4,2114.7L2091.4,2114.7C2091.4,2114.6,2091.4,2114.6,2091.4,2114.7
		C2091.4,2114.6,2091.4,2114.6,2091.4,2114.7z M2091.5,2114.7c0,0,0,0,0.1,0C2091.5,2114.7,2091.5,2114.7,2091.5,2114.7z"/>
	<path d="M2037.3,2109.7c4.5-2.1,3.1-22.7-3.1-5.1c-1.9,2.4-3.5,6.3-0.7,10.2c-15.7-4.6-23.9-3.5-11.6-23.6
		c-6.3,3-14.6,9.9-12.7,19.1c-15-4.3-3.9-16.3,4.6-24.3c-6.9,0-18.9,8.2-19.6,18c-1.2,16.7,49.8,13.8,65,17.9
		c-3.3-3.2-8.1-5.4-13.3-7.1C2043.9,2113.3,2037.8,2114.1,2037.3,2109.7z"/>
	<path d="M2164.1,1863.2c2.4-2.1,5.6-5,8.7-7.9c6.7-5.7,14.3-11,15.2-21.4c-3.5-2.5-8.1-6.6-9.7-12.1c-8.1,2.8-3.3,6.6-5,14.6
		c-4.6,10-11.7,19.6-12.5,30.8C2161.3,1867,2161.5,1865.6,2164.1,1863.2z"/>
	<path d="M2249,1892.6c2.5-12.4-16.9,6.4-35.1-29.1c0,0,0.1,0,0,0c0,0.1-0.5-1.2-0.4,0.1c-29.8,20-19.6,34.2-54.1,52.5
		c0.1,0.1,0.2,0.2,0.2,0.3l0,0c1.6,1.7,2.9,3,4.6,6.3c35.3-12.2,31.6-10.1,44.4-42.3c0.6,0.3,1.2,0.6,1.8,0.9
		c5.6,5.1,4.8,14,9.6,20.7c7.5,8.7,26.4,12.1,29.4-2.5c0-0.7-0.2-1.1,0.2-3.3C2249.5,1895,2249.2,1894.4,2249,1892.6z
		 M2208.9,1879.8c0.2-0.3,0.3-0.5,0.4-0.8c0.1,0.3,0.2,0.5,0.4,0.8C2209.4,1879.8,2209.2,1879.8,2208.9,1879.8z M2212,1866.1
		c0.4-0.6,0.7-1.1,1.1-1.7c0.1-0.1,0-0.1,0.4-0.5c0,0.8,0,1.6,0,2.4C2213,1866.2,2212.5,1866.1,2212,1866.1z"/>
	<path d="M2200.5,1943.9c-26.1,3.1-2.5,21.1,5,8.6c5.5-14.3,7.3-9.8,16.1-18.1c3.8-5.2,14.2-11.1,11.4-19.4
		C2233.9,1920.8,2204,1934.8,2200.5,1943.9z M2197.2,1949.6c-0.1,0-0.1,0-0.2,0c0.1-0.1,0.2-0.2,0.4-0.3
		C2197.3,1949.4,2197.3,1949.4,2197.2,1949.6z"/>
	<path d="M2228,2032.9c-41.4,39.9,16.1,30.1,8.9-5.1C2239.8,2020.3,2229.9,2016.3,2228,2032.9z"/>
	<path d="M2206.7,2067.7c-1.1,0.1-2.2,0.2-3.3,0.2c0-0.2,0.2-0.7-0.4,0c-36.8,5.1-25,18.6-17.9,14.2
		C2187.4,2081.5,2222.7,2063.1,2206.7,2067.7z"/>
	<path d="M2212.6,1994.3c-14.4-13.6-23,0.6-6.9,2.3c0.2,0.1,0.5,0.2,0.7,0.4C2208.3,1998.8,2215,1999.9,2212.6,1994.3z
		 M2200.2,1993.7C2200.2,1993.7,2200.2,1993.7,2200.2,1993.7C2200.2,1993.7,2200.2,1993.7,2200.2,1993.7z"/>
	<path d="M2208.6,1976.3c-2.7-0.6-12.6-12.9-11.6-3.1c2.7,5.6,11.9,4.3,15.6,10.4C2212.4,1981.3,2211.6,1977.8,2208.6,1976.3z"/>
	<path d="M2239.5,1987.2c3.3-8.3,6.7-17.6,4.9-27.6C2244.5,1944.2,2235.9,1979.8,2239.5,1987.2z"/>
</g>
</svg>
