<?xml version="1.0" encoding="utf-8"?>
<!-- Generator: Adobe Illustrator 25.0.0, SVG Export Plug-In . SVG Version: 6.00 Build 0)  -->
<svg version="1.1" id="Layer_1" xmlns="http://www.w3.org/2000/svg" xmlns:xlink="http://www.w3.org/1999/xlink" x="0px" y="0px"
	 viewBox="0 0 400 400" style="enable-background:new 0 0 400 400;" xml:space="preserve">
<g>
	<g>
		<path d="M395.8,117.8c-0.4,0.9-0.9,1.7-1.2,2.6c-2.9,8.4-8.5,14-16.8,17.1c-1.2,0.4-2.8,1.5-3.1,2.5
			c-5.7,20.2-21.1,27.4-39.8,28.3c-5.8,0.3-11.5,0.3-17.3,0.8c-10.1,1-16.9,6.4-20.5,15.8c-3.5,9.2-4,18.9-4,28.6
			c0,14.9-1.4,29.6-4.6,44.2c-0.3,1.2-0.1,2.7,0.4,3.9c6.7,17.4,13.6,34.8,20.3,52.3c0.8,1.9,1.7,2.6,3.8,2.6
			c5.9,0,11.9-0.3,17.6,0.7c11.4,2,19.4,11.7,20.1,23.3c0.3,4.6,0.2,9.3,0.1,14c-0.2,8.3-5.1,13.3-13.4,13.7c-2.3,0.1-4.5,0-6.8,0
			c-13.7,0-27.4-0.1-41.1,0c-9,0.1-15.5-3.6-20-11.5c-6.7-11.8-13.7-23.4-20.6-35.1c-0.6-1.1-1.3-2.1-1.8-2.9
			c-8.8,3.8-17.4,7.5-26.2,11.3c0.3,0.4,0.8,1.1,1.4,1.8c6.9,7.8,7.2,17.2,5.8,26.7c-0.8,5-4.6,8.2-9.8,9.2c-1.5,0.3-3,0.4-4.5,0.4
			c-39.7,0-79.4,0.2-119,0c-39.6-0.2-71.9-25.1-82.1-62.5c-2.7-9.8-3-19.8-2.6-29.9c1.3-29.4,5.6-58.3,15.8-86
			c27.9-75.5,81.7-121.4,159.8-138.9c19.8-4.4,40-5.6,60.2-4.8c2.8,0.1,4.3-0.4,5.6-3.4c6.9-15.7,22.7-24.2,40.6-22.3
			c15.4,1.7,28.9,14.4,32.2,30.6c0.5,2.5,1.5,3.6,4.2,4.3c16,4,31.6,9.1,45.3,18.6c10.6,7.4,18.8,16.6,21.5,29.7
			c0,0.2,0.3,0.3,0.5,0.5C395.8,108.7,395.8,113.3,395.8,117.8z M337.8,355c0-4.3,0-8.1,0-11.8c-0.1-8.4-5.2-13.6-13.6-13.8
			c-3.8-0.1-7.5,0-11.3,0c-9.3,0-12.5-2.2-15.8-10.8c-11.9-30.5-23.8-61-35.7-91.5c-6.3-16.1-12.6-32.2-18.9-48.4
			c-1.6-4.1-0.7-7.5,2.4-9.2c3.5-1.9,6.3-0.4,8.6,1.8c4.6-8.2,8.8-16.7,13.9-24.5c10-15.2,24.5-22.1,42.5-20
			c15.6,1.9,31.1,4.3,46.8,1.6c5.9-1,11.8-2.1,17.5-3.9c4.7-1.4,7.5-5,8.3-10.2c1-7-0.8-13.2-4.9-18.8c-4.7-6.5-11-10.9-17.9-14.7
			c-12.7-7-26.6-11-40.6-14.2c-5.6-1.3-6.9-2.8-7-8.4c-0.2-12.4-9.7-23.4-21.5-24.9c-13.4-1.7-25.2,5.7-28.8,18.2
			c-2.2,7.4-2.9,8-10.4,7.7c-23.2-0.9-46.2,0.3-68.8,5.9c-69.1,17.3-117,58.9-143.1,125.4c-9.5,24.4-14.3,49.9-15.9,76
			c-0.6,9.6-1.2,19.5,0.3,29c5.4,36,36.9,60.2,71.3,59.8c38.7-0.5,77.4-0.1,116-0.1c1.4,0,2.9,0,4.2,0c1.6-12.2-3.5-19.6-17-19.2
			c-19.4,0.6-38.9,0.2-58.4,0.1c-5,0-8-2.5-8-6.5c0-4.1,2.8-6.4,8-6.5c3.1-0.1,6.3-0.2,9.4,0c2.5,0.2,3.8-0.8,5.1-2.9
			c15.1-25.3,12.2-59.3-7.3-81.6c-13.9-15.9-31.3-24.3-52.4-24.8c-4.9-0.1-8-2.9-7.8-6.8c0.2-4,3.5-6.7,8.3-6.2c6,0.6,12,1,17.8,2.4
			c22.1,5.4,39.2,17.9,51.5,37.2c0.7,1,2.4,2.4,3.3,2.2c9.6-2.7,19-5.7,29-8.7c-2.5-4.3-4.5-7.5-6.2-10.8c-1.6-3.1-0.5-6.5,2.2-8.3
			c2.8-1.8,6.5-1.2,8.7,1.6c0.7,0.9,1.2,1.9,1.8,2.9c9.1,15.4,18.1,30.7,27.2,46.1c16.6,28.2,33.3,56.4,49.9,84.7
			c2.2,3.8,5,5.5,9.4,5.3c6.1-0.3,12.3-0.1,18.5-0.1C318,355,327.6,355,337.8,355z M167.9,322.8c25.6,0,49.9-2.8,72.3-15.9
			c-12.4-21-24.6-41.7-36.7-62.3c-10.6,3.6-20.9,7.1-31.4,10.7C180.1,277.9,178.8,300.4,167.9,322.8z M360,141.5
			c-8.7,0.4-16.8,1.3-24.9,1c-8.2-0.3-16.4-1.8-24.6-2.8c-15-1.8-26.6,3.6-34.1,16.9c-5.5,9.8-10.5,20-15.6,30
			c-0.5,1-0.3,2.7,0.2,3.8c2.4,6.5,5,12.9,7.5,19.3c3.3,8.4,6.6,16.7,9.8,25.1c1.1-6.6,1-13.1,1.6-19.6c0.7-9.4,1.1-18.9,3.1-28
			c3.6-16.5,13.2-28.9,33.5-31.1c7.5-0.8,15-0.7,22.5-1.3C348,154,355.6,150.6,360,141.5z"/>
		<path d="M286.6,84.5c-10.7,0-19.5-8.7-19.5-19.3c0-10.7,8.7-19.4,19.5-19.3c10.6,0,19.2,8.5,19.4,19.1
			C306,75.5,297.2,84.5,286.6,84.5z M292.7,65.2c0-3.7-2.8-6.4-6.4-6.3c-3.5,0.1-6,2.8-6,6.3c0,3.6,2.9,6.5,6.4,6.4
			C290,71.5,292.7,68.6,292.7,65.2z"/>
		<path d="M164.3,97.5c-0.1,3.5-3.2,6.5-6.6,6.4c-3.5-0.1-6.3-3.1-6.2-6.7c0.1-3.6,3.1-6.5,6.5-6.4C161.4,91,164.4,94.1,164.3,97.5z
			"/>
		<path d="M119.1,123.1c3.5-0.1,6.6,2.9,6.7,6.3c0.1,3.5-2.9,6.5-6.4,6.5c-3.6,0.1-6.5-2.7-6.6-6.3
			C112.7,126.2,115.6,123.2,119.1,123.1z"/>
		<path d="M151.4,129.7c-3.4,0-6.5-3-6.5-6.5c-0.1-3.5,2.9-6.5,6.4-6.5c3.6,0,6.4,2.8,6.5,6.4C157.8,126.7,154.9,129.7,151.4,129.7z
			"/>
		<path d="M100,155.4c0,3.5-3,6.4-6.5,6.4c-3.6,0-6.5-3-6.5-6.5c0-3.4,3.2-6.5,6.6-6.5C97,148.9,100,151.9,100,155.4z"/>
		<path d="M125.7,161.8c-3.6,0-6.4-2.8-6.4-6.4c0-3.5,3-6.5,6.4-6.5c3.5,0,6.4,2.9,6.4,6.5C132,159.1,129.3,161.8,125.7,161.8z"/>
	</g>
</g>
</svg>
