<?xml version="1.0" encoding="utf-8"?>
<!-- Generator: Adobe Illustrator 25.0.0, SVG Export Plug-In . SVG Version: 6.00 Build 0)  -->
<svg version="1.1" id="Layer_1" xmlns="http://www.w3.org/2000/svg" xmlns:xlink="http://www.w3.org/1999/xlink" x="0px" y="0px"
	 viewBox="0 0 400 400" style="enable-background:new 0 0 400 400;" xml:space="preserve">
<style type="text/css">
	.st0{stroke:#000000;stroke-width:15;stroke-linecap:round;stroke-linejoin:round;stroke-miterlimit:10;}
</style>
<path class="st0" d="M-164.3,299.8"/>
<g>
	<g>
		<path d="M331.5,217.1c4.8,2.6,9.4,5.2,13.9,7.6c9.3,5.1,18.5,10.1,27.8,15.1c2.9,1.6,4.8,3.7,3.9,7.1c-0.8,3.4-3.5,4.4-6.8,4.4
			c-11.6-0.1-23.3,0-35,0c0,0.5-0.1,0.9,0,1.1c5.8,7.2,8.1,15.4,7.8,24.5c-0.2,8.2,0,16.4-0.1,24.6c0,4.9-2,6.8-6.9,6.8
			c-14.4,0-28.7,0-43.1,0c-5.8,0-8.1-3.2-6.2-8.9c0.9-2.9,2.2-5.8,2.8-8.8c1.2-5.2,2-10.5,3.1-16.3c-57.8,0-114.6,0-171.9,0
			c0,1.3,0,2.7,0,4.1c0,7.8,0,15.7,0,23.5c0,4.3-2.1,6.3-6.3,6.3c-14.7,0-29.4,0-44.2,0c-5.2,0-7.4-3.3-5.9-8.3
			c0.4-1.4,0.8-2.7,1.3-4c3-7.3,4.3-14.9,3.9-22.9c-0.3-8,3-14.9,8.1-21.4c-4.8-0.4-9.4-0.3-13.9-1.1c-16.4-3-28.5-17.6-28.5-34.3
			c0-5.1,0-10.2,0-15.3c0-4.7,2-6.6,6.8-6.6c10.7,0,21.4-0.1,32,0.1c2.9,0.1,4.7-0.9,6.5-3.1c13.4-16.6,26.4-33.6,40.6-49.6
			c25.6-28.7,58.1-41.4,96.4-37.9c30.7,2.9,56,16.7,75.8,40.3c14,16.7,27.6,33.9,41.4,50.7c2.4,2.9,2.8,5.7,1.4,9.2
			C334.7,208.2,333.2,212.5,331.5,217.1z M229.2,137.4c0-5.6-0.1-11.2,0.1-16.7c0.1-2.5-0.5-3.7-3.3-4.2
			c-13.3-2.5-26.6-2.4-39.9,0.2c-1.9,0.4-2.5,1.2-2.5,3.1c0.1,11.7,0,23.5,0.1,35.2c0,1.3,0.8,3,1.8,3.8
			c6.2,5.2,12.6,10.1,18.8,15.2c1.6,1.3,2.7,1.2,4.3-0.1c6.1-5,12.5-9.9,18.5-15c1.1-1,2-2.9,2-4.4
			C229.3,148.8,229.2,143.1,229.2,137.4z M149.4,211.2c17.3,0,34.2,0,51.3,0c0-8.1,0-15.9,0-23.7c0-0.8-0.4-2-1-2.4
			c-7.3-6-14.7-11.9-22-17.8c-9.1,6-17.9,11.9-26.6,17.8c-0.8,0.5-1.5,1.8-1.6,2.8C149.3,195.6,149.4,203.3,149.4,211.2z M212,211.2
			c17.3,0,34.2,0,51.3,0c0-8.1,0-15.9-0.1-23.7c0-0.8-0.6-1.8-1.3-2.2c-8.9-6-17.9-12-26.9-18c-7.3,5.8-14.5,11.5-21.5,17.3
			c-0.8,0.6-1.5,1.9-1.5,2.9C212,195.3,212,203.1,212,211.2z M127.2,251.4c-9,0-16.8-0.3-24.6,0.1c-12.1,0.6-21.3,10.2-21.5,22.3
			c-0.1,7.6,0.1,15.2-3.1,22.3c-0.1,0.2,0.1,0.4,0.1,0.6c10.4,0,20.8,0,31.4,0c0-7,0.2-13.8-0.1-20.5c-0.3-7.3,2.3-12.9,8.2-17.1
			C120.7,256.9,123.5,254.4,127.2,251.4z M331.6,296.8c0-8.4,0.4-16.4-0.1-24.5c-0.7-9.9-7.6-18.7-16.9-20c-9.3-1.3-18.8-1-28.1-1.3
			c-0.1,0.3-0.1,0.7-0.2,1c3.2,2.6,6.3,5.2,9.6,7.7c4.9,3.8,7.4,8.7,7.4,15c0,6.9,0.3,13.8-2.8,20.2c-0.2,0.5-0.2,1.1-0.3,1.8
			C310.6,296.8,320.9,296.8,331.6,296.8z M240.5,121.1c0,11.6,0,23.2,0.1,34.8c0,0.8,1,1.8,1.7,2.3c3.8,2.6,7.6,5.2,11.5,7.7
			c4.5,3,9,5.9,13.6,9c5.6-8.4,10.9-16.4,16.2-24.4C275,138.6,251.8,122.7,240.5,121.1z M145.3,174.6c0.7-0.2,0.9-0.3,1.1-0.4
			c5.8-3.9,11.3-8.3,17.5-11.5c6.9-3.5,9-8.3,8.4-15.8c-0.7-8.6-0.2-17.2-0.2-25.9c-11.3,1.9-33.4,16.8-42.2,28.4
			C135,157.7,140.1,166.1,145.3,174.6z M274.7,211.5c2.5,0,4.7,0,6.8,0c8.3,0.2,14.3-3.3,17.9-10.9c1.9-4.1,3.6-8.4,6.1-12
			c3.7-5.3,2.9-9.2-1.5-13.7c-4.5-4.6-8.3-9.9-12.6-15.2c-5.5,8.3-10.8,16.2-16,24.1c-0.4,0.6-0.7,1.5-0.7,2.3
			C274.7,194.4,274.7,202.7,274.7,211.5z M99.1,239.5c-8.6-6.9-13.5-15.9-17.3-25.3c-2.7-6.9-6.6-9.5-14-8.6
			c-6.9,0.8-13.9,0.2-21,0.2c0,4.2-0.3,8,0.1,11.8c1,11.6,8.7,20.7,20.3,21.8C77.5,240.3,88,239.5,99.1,239.5z M104.6,180.2
			c5.1,8.1,9.9,16.1,15.1,23.9c4.3,6.4,10.7,8,18.3,7.2c0-8.7,0-17.2,0-25.7c0-0.5-0.1-1-0.3-1.3c-5.1-8.5-10.3-16.9-15.6-25.6
			C116.1,166,110.3,173.1,104.6,180.2z M96.9,189.6c-2.9,3.6-5.5,6.6-7.9,9.8c-0.5,0.7-0.6,2.2-0.2,3.1c2.8,5.9,5.6,11.8,8.8,17.4
			c8.1,14.4,24.6,21.9,40.2,19.5c0-5.5,0-11,0-16.5c-0.9,0-1.4-0.1-2-0.1c-12.5,0.5-21.6-5-27.8-15.6
			C104.4,201.4,100.7,195.8,96.9,189.6z M317,191.1c-2.9,5.7-5.4,10.9-8.1,16c-4.2,8.2-10.8,13.5-19.9,15.1
			c-4.6,0.8-9.4,0.6-14.1,0.9c0,5.6,0,11.1,0,16.6c15.2,1.5,27.6-2.7,36.9-12.2c7-7.1,9.6-16.5,12.8-25.4c0.2-0.6-0.2-1.6-0.6-2.2
			C321.9,197,319.6,194.3,317,191.1z M200.5,223.1c-17.2,0-34.1,0-50.9,0c0,5.8,0,11.3,0,16.7c17.1,0,33.9,0,50.9,0
			C200.5,234.2,200.5,228.7,200.5,223.1z M263.1,239.8c0-5.9,0-11.4,0-16.8c-17.1,0-33.9,0-50.8,0c0,5.7,0,11.2,0,16.8
			C229.3,239.8,246.1,239.8,263.1,239.8z M166.7,251.5c0,3.8,0,7.4,0,11c11.4,0,22.6,0,33.8,0c0-3.8,0-7.3,0-11
			C189.2,251.5,178.1,251.5,166.7,251.5z M212.3,251.5c0,3.8,0,7.4,0,11c9.5,0,18.8,0,28.1,0c0-3.8,0-7.3,0-11
			C231,251.5,221.8,251.5,212.3,251.5z M281,262.6c-4.7-3.8-8.6-7-12.6-10.1c-0.6-0.5-1.4-1.1-2.1-1.1c-4.7-0.1-9.4-0.1-14.1-0.1
			c0,4,0,7.6,0,11.3C261.6,262.6,270.8,262.6,281,262.6z M316.3,239.6c10.6,0,21,0,32.3,0c-7.9-4.3-14.9-8.1-21.8-11.9
			C323.2,231.8,319.8,235.6,316.3,239.6z M155,251.6c-3.4,0-7.1-1.1-9.4,0.2c-4.8,2.7-8.8,6.7-13.7,10.7c8.3,0,15.6,0,23.1,0
			C155,258.8,155,255.3,155,251.6z"/>
		<path d="M206.1,137.2c-3.7,0-7.2,0-10.9,0c0-3.6,0-7.2,0-11c3.6,0,7.2,0,10.9,0C206.1,129.8,206.1,133.3,206.1,137.2z"/>
		<path d="M161,188.8c3.6,0,7.1,0,10.9,0c0,3.6,0,7.2,0,11c-3.5,0-7.1,0-10.9,0C161,196.2,161,192.8,161,188.8z"/>
		<path d="M234.7,199.9c-3.7,0-7.2,0-10.9,0c0-3.6,0-7.2,0-11c3.6,0,7.2,0,10.9,0C234.7,192.5,234.7,196,234.7,199.9z"/>
		<path d="M257.5,137.7c0,3.7,0,7.2,0,10.9c-3.7,0-7.3,0-11.1,0c0-3.6,0-7.1,0-10.9C250,137.7,253.5,137.7,257.5,137.7z"/>
		<path d="M143.9,143.1c3.8,0,7.2,0,10.9,0c0,3.6,0,7.2,0,11.1c-3.5,0-7.1,0-10.9,0C143.9,150.6,143.9,147,143.9,143.1z"/>
	</g>
</g>
</svg>
