<?xml version="1.0" encoding="utf-8"?>
<!-- Generator: Adobe Illustrator 25.0.0, SVG Export Plug-In . SVG Version: 6.00 Build 0)  -->
<svg version="1.1" id="Layer_1" xmlns="http://www.w3.org/2000/svg" xmlns:xlink="http://www.w3.org/1999/xlink" x="0px" y="0px"
	 viewBox="0 0 400 400" style="enable-background:new 0 0 400 400;" xml:space="preserve">
<style type="text/css">
	.st0{stroke:#000000;stroke-width:15;stroke-linecap:round;stroke-linejoin:round;stroke-miterlimit:10;}
</style>
<path class="st0" d="M-164.3,299.8"/>
<g>
	<g>
		<path d="M243.9,15.9c3.1,0.7,6.3,1.3,9.4,2.2c11,3.1,20.6,8.7,28.8,16.8c1.2,1.2,2.8,2.2,4.3,2.5c28,6.5,54.7,16.1,80.4,29
			c4.3,2.2,6,5,5,8.8c-0.8,3.4-3.8,5.3-8.4,5.3c-40,0-80,0-120,0c-1.2,0-2.4,0-3.6,0c4,3,8,5.4,11.4,8.6
			c7.6,7.2,11.3,16.5,11.3,26.8c0,23.3-3,46.2-11.6,68c-3.9,10-9,19.3-16.3,27.3c-0.7,0.8-1.3,1.9-1.6,3c-3.7,13.3-9.9,25.6-15.9,38
			c-3,6.2-4.1,13.4-5.8,20.2c-1.5,6-2.4,12.3-4.2,18.2c-1.8,6.1,0,11.6,1.3,17.3c3.5,15.9,7,31.8,10.6,47.7c0.2,0.8,0.5,1.5,0.9,2.4
			c4.9,0,9.8,0,14.6,0c4.7,0,7.9,2.9,7.9,6.9c0,4-3.3,6.9-7.9,6.9c-23.8,0-47.5,0-71.3,0c-4.9,0-8.2-3-8.1-7.1
			c0.1-4,3.3-6.7,8.1-6.8c3.9,0,7.8,0,12,0c-3.5-15.9-7-31.5-10.4-47c-0.4-0.3-0.8-0.7-1.2-1c-0.7,1.2-1.2,2.6-2.1,3.6
			c-27.7,27.8-60.5,47.1-98.2,57.8c-5.9,1.7-10.2-1.2-9.8-7.3c0.8-13.4,2.1-26.7,3.4-40.1c0.2-2.1,0.2-3.6-1.5-5.2
			c-3.1-2.9-4.2-6.8-4.5-11c-0.7-10.1,1.8-19.6,5.5-28.7c16.2-39.3,36.9-75.8,68.1-105.3c15.2-14.4,32.8-25.1,53.8-28.6
			c6.9-1.1,14-0.7,21.1-0.4c5.2,0.2,5.6,0.4,7.9-5c-1.7-0.4-3.4-0.8-5-1.2c-15.3-4-23.3-14.8-26.7-29.4c-3.6-15.8-4.4-31.8-0.5-47.2
			c-7.4,1.2-14.8,2.8-22.3,3.4c-12.8,1-25.1-1.8-36.6-7.6c-4.5-2.2-6.1-6-4.3-9.9c1.8-3.8,5.8-4.8,10.4-2.7
			c22.6,10.3,44.1,8.2,64.2-6.3c3.9-2.8,7.2-6.5,11-9.5c8.8-6.9,18.8-11.2,30-12.8c0.5-0.1,1-0.4,1.5-0.7
			C233.7,15.9,238.8,15.9,243.9,15.9z M158.8,295.9c0.3,0.3,0.7,0.5,1,0.8c4-2.9,8.3-5.3,11.8-8.7c22.5-21.6,38.3-47.4,47.7-77.1
			c2.1-6.8,3.5-13.8,2.8-21.5c-1.4,1.6-2.3,2.9-3.4,4c-22.1,23.7-48.1,41.9-78.1,54.2c-19.3,7.9-39.3,12.7-60,15.1
			c-1.1,0.1-2.7,0.9-3.2,1.9c-5.3,10.4-9.8,21.2-12.2,32.7c-0.7,3.6-0.7,7.3-1.1,11c0.4,0.2,0.8,0.3,1.2,0.5
			c2.3-1.3,4.7-2.4,6.7-4.1c4.2-3.6,8.3-7.4,12.3-11.2c2.4-2.2,4.9-3.6,8.1-2.2c3.1,1.3,4.5,3.8,4.5,7.1c0,1.1,0.2,2.2,0.3,4.1
			c2.3-1.2,4.4-1.8,5.9-3.1c5.4-4.7,10.7-9.5,15.8-14.6c2.6-2.6,5.3-4.2,8.9-2.8c3.1,1.2,4.5,4,4.4,8.2c0,1.6,0,3.1,0,5.2
			c1.9-0.8,3.3-1.2,4.4-1.9c3.4-2.4,6.6-5,9.9-7.6c2.3-1.9,4.7-2.9,7.7-1.6c3,1.3,4.3,3.7,4.5,6.8
			C158.9,292.7,158.8,294.3,158.8,295.9z M270.6,43.5c-1.4-1.2-2.2-2.1-3.1-2.8c-25.9-20.6-64.6-10.9-77.2,19.8
			c-7.1,17.3-5.1,35,0.8,52.2c2.4,7,8,11.2,15.5,12.5c3,0.5,6,0.6,9,1c4.6,0.6,6.7,3,6.8,7.6c0.1,6.4-2.3,12.1-5.7,17.6
			c10.8,7.6,17.1,17.8,19.3,31.7c0.9-2,1.3-2.9,1.7-4c7.9-20.4,10.7-41.6,10.6-63.3c-0.1-17.9-19-29.8-34-19.5
			c-2.4,1.6-5.1,1.4-7.5-0.3c-2.4-1.7-3.3-4.1-3-7c0.8-6.7,3.3-12.7,7.3-18.1c2.4-3.3,5.3-4.7,9.4-4.7c14.4,0.1,28.7,0.1,43.1,0
			c1.2,0,2.4-0.1,4.7-0.2C259.8,57.2,262.3,50,270.6,43.5z M66.9,355.6c31.5-10.5,58.5-26.8,82-49.5c-0.6-0.9-1.2-1.6-1.7-2.3
			c-14.5,8.7-20.4,6.1-26.2,0c-4.4,3.1-8.7,6.6-13.4,9.2c-7.3,4.2-14.6,5.2-21.2-1.8c-1.4,1.1-2.6,2.2-3.9,3.2
			c-1.4,1.1-2.7,2.5-4.2,3c-6.7,2.2-8.4,7.3-8.9,13.5C68.8,339,67.8,347,66.9,355.6z M194.1,286.1c-0.3-0.1-0.6-0.1-0.9-0.2
			c-5.1,5.1-10.2,10.1-15.1,15.2c-0.6,0.6-0.8,1.9-0.6,2.7c3.8,17.4,7.6,34.7,11.5,52.1c0.2,0.8,1.1,2,1.8,2
			c4.7,0.2,9.4,0.1,14.3,0.1c-3-13.5-6.2-26.6-8.8-39.7C194.2,307.8,189,297.4,194.1,286.1z"/>
		<path d="M243.8,53.4c-4,0-6.9-3-6.9-7c0.1-3.8,3-6.8,6.8-6.8c3.9-0.1,7.1,3,7.1,6.9C250.8,50.4,247.7,53.4,243.8,53.4z"/>
	</g>
</g>
</svg>
