<?xml version="1.0" encoding="UTF-8" standalone="no"?>
<!-- Generator: Adobe Illustrator 24.1.1, SVG Export Plug-In . SVG Version: 6.00 Build 0)  -->

<svg
   version="1.1"
   id="Layer_1"
   x="0px"
   y="0px"
   viewBox="0 0 768 576"
   style="enable-background:new 0 0 768 576;"
   xml:space="preserve"
   sodipodi:docname="wild_bird.svg"
   inkscape:version="1.1.2 (0a00cf5339, 2022-02-04)"
   xmlns:inkscape="http://www.inkscape.org/namespaces/inkscape"
   xmlns:sodipodi="http://sodipodi.sourceforge.net/DTD/sodipodi-0.dtd"
   xmlns="http://www.w3.org/2000/svg"
   xmlns:svg="http://www.w3.org/2000/svg"><defs
   id="defs115" /><sodipodi:namedview
   id="namedview113"
   pagecolor="#ffffff"
   bordercolor="#666666"
   borderopacity="1.0"
   inkscape:pageshadow="2"
   inkscape:pageopacity="0.0"
   inkscape:pagecheckerboard="0"
   showgrid="false"
   inkscape:zoom="2.03"
   inkscape:cx="383.99015"
   inkscape:cy="287.93103"
   inkscape:window-width="2560"
   inkscape:window-height="1376"
   inkscape:window-x="0"
   inkscape:window-y="0"
   inkscape:window-maximized="1"
   inkscape:current-layer="Layer_1" />
<style
   type="text/css"
   id="style2">
	.st0{fill:none;stroke:#000000;stroke-miterlimit:10;}
	.st1{fill:#FFFFFF;stroke:#000000;stroke-width:4;stroke-miterlimit:10;}
	.st2{fill:none;stroke:#000000;stroke-width:2;stroke-miterlimit:10;}
	.st3{fill:#FFFFFF;stroke:#000000;stroke-width:2;stroke-miterlimit:10;}
</style>

















































<g
   id="g36">
	
		
</g><g
   id="g1755"
   transform="matrix(1.2470498,0,0,1.2470498,-135.68382,67.419143)"><path
     class="st1"
     d="m 267.61,33.97 c 0,0 22.7,-26.54 73.04,-15.33 0,0 24.65,5.48 33,22.17 8.35,16.7 36.39,34.43 37.3,36.52 l -7.04,-1.83 c 0,0 9.91,10.96 11.09,12.52 1.17,1.57 23.35,32.22 25.96,34.43 2.61,2.21 25.3,16.17 33,21.52 7.7,5.35 28.83,25.17 30.26,27.78 1.43,2.61 16.83,22.04 18.39,25.04 1.57,3 7.57,12.91 13.96,25.3 6.39,12.39 14.61,23.61 16.96,38.87 0,0 -0.65,4.43 1.7,7.7 2.35,3.26 30,36.52 39,46.7 9,10.17 23.48,23.48 25.04,33.91 1.57,10.43 -2.35,10.17 -2.35,10.17 0,0 0,0.52 -8.74,-14.61 -8.74,-15.13 -21,-30.39 -26.48,-38.09 -5.48,-7.7 -19.17,-22.57 -19.43,-23.02 -0.26,-0.46 -9.26,-11.02 -11.61,-13.57 -2.35,-2.54 -11.74,-9.85 -11.74,-9.85 0,0 50.93,47.15 75.39,98.02 0,0 -5.77,2.45 -11.25,-3.13 -5.48,-5.58 -10.96,-18.39 -13.79,-24.07 -2.84,-5.67 -18.39,-32.87 -23.48,-38.35 -5.09,-5.48 -26.61,-26.61 -27.59,-30.13 0,0 22.37,24.62 28.63,32.61 6.26,7.99 13.57,19.96 18,29.35 4.43,9.39 16.96,30.52 16.96,30.52 0,0 -4.12,0.86 -6.26,-1.04 -2.35,-2.09 -8.48,-13.3 -10.17,-16.17 -1.7,-2.87 6.73,13.02 4.83,16.96 -2.63,5.45 -8.87,2.74 -9.26,-0.65 -0.39,-3.39 -1.83,-11.87 -5.35,-21.39 -3.52,-9.52 -14.48,-29.09 -19.57,-37.57 -5.09,-8.48 -22.3,-29.61 -22.3,-29.61 0,0 26.51,24.78 42.29,68.35 5.74,15.86 4.53,19.83 2.45,21.92 0,0 -8.54,5.35 -17.35,-8.54 -8.81,-13.89 -18.98,-28.96 -22.7,-34.43 -3.72,-5.48 -26.22,-36 -26.22,-36 l -3.52,-4.5 c 0,0 10.37,13.89 8.41,14.87 -1.96,0.98 -17.22,-1.76 -28.76,-15.46 0,0 7.24,9.39 3.13,10.17 -4.11,0.78 -14.09,2.54 -19.17,2.15 -5.09,-0.39 -7.3105,-2.90897 -7.3105,-2.90897 0,0 -32.3395,-0.61103 -38.9995,-2.56103 -6.66,-1.95 -42.94,-9.35 -62.4,-29.74 -17.68,-18.52 -34.97,-40.85 -38.81,-49.43 -2.81,-6.28 -5.61,-11.91 -8.74,-24.04 -2.66,-10.3 -3,-23.76 -5.15,-28.46 -2.15,-4.7 -5.67,-9.78 -8.22,-13.11 l -2.54,-3.33 0.59,7.24 -2.93,-5.67 -0.59,5.28 -1.57,-10.37 -2.35,5.28 -0.2,-5.67 -1.57,3.91 v -6.46 l -1.17,7.83 c 0,0 -1.17,-7.24 -3.13,-13.5 -1.96,-6.26 -1.76,-7.24 -1.76,-7.24 0,0 -2.15,-2.54 -2.15,-3.13 0,-0.59 -1.76,1.37 -1.76,1.37 0,0 0.59,-5.87 0.59,-10.37 0,-4.5 -1.17,-13.11 -4.3,-18.98 -3.13,-5.87 -11.15,-14.48 -14.87,-16.43 -3.72,-1.96 -17.24,-7.44 -28.83,-9.85 -10.74,-2.23 -28.5,-5.41 -29.09,-10.11 0,0 4.01,-7.51 36.2,-0.96 5.27,1.07 18.29,5.09 18.29,5.09 0,0 -10.52,-3.37 -17.57,-4.93 -7.04,-1.57 -14.81,-3.29 -25.96,-2.7 -11.15,0.59 -10.97,2.35 -10.97,3.53 0,0 0.04,-9.69 13.5,-11.54 15.65,-2.16 49.11,1.75 49.11,1.75 z"
     id="path6"
     style="stroke-width:8.01893;stroke-miterlimit:10;stroke-dasharray:none"
     sodipodi:nodetypes="ccccccssscscccccssccccscscssccccssscccscccscsccscccscccccccccccscscssccccccsccc" /><ellipse
     cx="306.36325"
     cy="44.809975"
     rx="7.1851788"
     ry="7.1445556"
     id="ellipse10"
     style="stroke-width:1.45156" /><path
     d="M 377.7,204.91"
     id="path12" /><path
     d="m 529.2,263.96 c 0,0 -5.67,4.7 -15.65,4.11 -9.98,-0.59 -5.09,2.25 -5.09,2.25 0,0 7.63,0.68 11.64,-0.98 4.01,-1.66 7.73,-3.13 9.1,-5.38 z"
     id="path16" /><path
     class="st3"
     d="m 447.61,282.27 c 0,0 -19.96,29.35 -27.39,40.5 -7.43,11.15 -14.67,21.72 -14.67,21.72 0,0 -0.2,2.93 -4.7,4.5 -4.5,1.57 -9.59,5.09 -10.96,6.26 -1.37,1.17 -9,1.76 -11.15,3.91 -2.15,2.15 -4.5,7.43 -4.5,7.43 0,0 2.15,-1.76 4.89,-3.91 2.74,-2.15 4.37,-4.11 6.39,-2.35 2.02,1.76 6.33,5.67 9.46,4.5 3.13,-1.17 7.24,-3.91 7.24,-3.91 1.57,0 4.89,1.57 5.67,2.74 0.78,1.17 0.78,1.17 0.78,1.17 0,0 1.17,8.41 2.25,10.17 1.08,1.76 4.73,3.13 5.05,6.65 0.33,3.52 -1.24,10.96 0.91,14.09 l 1.76,-9.2 c 0,0 1.37,6.26 6.85,7.83 0,0 3.72,2.35 2.93,-3.52 -0.78,-5.87 -5.09,-10.37 -7.63,-18.59 -2.54,-8.22 -10.96,-16.43 -2.54,-28.37 8.41,-11.93 35.02,-53.41 35.02,-53.41 l 5.87,-8.8 z"
     id="path26"
     style="stroke-width:8.01893;stroke-miterlimit:10;stroke-dasharray:none" /><path
     class="st3"
     d="m 467.14,283.58 c 0,0 -11.6,17.07 -15.93,23.55 -4.33,6.48 -8.53,12.63 -8.53,12.63 0,0 -0.11,1.71 -2.73,2.62 -2.62,0.91 -5.57,2.96 -6.37,3.64 -0.8,0.68 -5.23,1.02 -6.48,2.28 -1.25,1.26 -2.62,4.32 -2.62,4.32 0,0 1.25,-1.02 2.84,-2.28 1.59,-1.25 2.54,-2.39 3.72,-1.37 1.18,1.02 3.68,3.3 5.5,2.62 1.82,-0.68 4.21,-2.28 4.21,-2.28 0.91,0 2.84,0.91 3.3,1.59 0.46,0.68 0.46,0.68 0.46,0.68 0,0 0.68,4.89 1.31,5.92 0.63,1.02 2.75,1.82 2.94,3.87 0.19,2.05 -0.72,6.37 0.53,8.19 l 1.02,-5.35 c 0,0 0.8,3.64 3.98,4.55 0,0 2.16,1.37 1.71,-2.05 -0.46,-3.41 -1.74,-2.72 -3.22,-7.5 -1.48,-4.78 -6.37,-9.56 -1.48,-16.5 4.89,-6.94 20.36,-31.06 20.36,-31.06 l 6.36,-8.42 z"
     id="path28"
     style="stroke-width:8.01893;stroke-miterlimit:10;stroke-dasharray:none" /><path
     class="st2"
     d="m 456.3641,133.12234 c 0,0 -14.18984,-17.7075 -20.16563,-9.8776 -8.9714,11.75498 37.78696,66.19405 48.98153,71.16526 l 5.09,4.11 c 0,0 5.67,-18.07 3.72,-36.72 l -17.02,-15.54 z"
     id="path40"
     style="stroke-width:4.00946;stroke-miterlimit:10;stroke-dasharray:none"
     sodipodi:nodetypes="csccccc" /><path
     class="st2"
     d="m 493.52,162.78 c 0,0 -1.7,39.52 -0.91,44.41 0.78,4.89 4.7,11.67 7.17,11.15 2.48,-0.52 3.13,-1.57 3.13,-1.57 0,0 5.09,9.91 9,10.83 0,0 3.65,0.27 3,-41.41 0,0 -9.98,-14.99 -21.14,-25.1 z"
     id="path42"
     style="stroke-width:4.00946;stroke-miterlimit:10;stroke-dasharray:none" /><path
     class="st2"
     d="m 513.77,184.69 c 0,0 -0.55,32.22 0,35.54 0.55,3.33 -1.21,8.67 -1.21,8.67 0,0 12.72,2.22 15.46,0 2.74,-2.22 1.17,-18.98 1.17,-18.98 0,0 -9.9,-21.25 -15.42,-25.23 z"
     id="path44" /><path
     class="st2"
     d="m 512.57,227.67 c 0,0 -2.54,3.33 0,6.55 2.54,3.23 16.63,13.66 16.63,13.66 l 0.78,-18.98 c 0,0.01 -13.89,2.88 -17.41,-1.23 z"
     id="path46" /><path
     class="st2"
     d="m 541.91,231.88 c 0,0 1.37,10.66 1.37,12.42 0,1.76 -1.17,2.87 -4.11,3.59 -2.93,0.72 -6.85,1.04 -8.8,0 -1.96,-1.04 -2.15,-3.59 -2.15,-3.59 l 1.79,-34.37 z"
     id="path48"
     style="stroke-width:4.00946;stroke-miterlimit:10;stroke-dasharray:none" /><path
     class="st2"
     d="m 547.78,245.15 c 0,0 0.39,6.2 -1.17,7.57 -1.57,1.37 -7.24,3.33 -11.35,0 -4.11,-3.33 -2.15,-2.87 -2.15,-2.87 0,0 8.02,0.85 9,-4.7 0.98,-5.54 -1.86,-16.24 -1.86,-16.24 0,0 7.7,11.3 7.53,16.24 z"
     id="path50" /><path
     class="st0"
     d="m 338.3683,171.5404 c 0,0 68.9417,50.2596 71.0917,51.4396 2.15,1.17 48.47178,32.60592 67.73178,29.05592"
     id="path72"
     style="stroke-width:4.00946;stroke-miterlimit:10;stroke-dasharray:none"
     sodipodi:nodetypes="ccc" /><path
     class="st0"
     d="m 328.92621,181.48808 c -8.22012,8.64858 127.75836,94.15444 155.0973,80.59483"
     id="path78"
     style="stroke-width:4.00946;stroke-miterlimit:10;stroke-dasharray:none"
     sodipodi:nodetypes="cc" /><path
     d="m 371.39201,93.61621 c 0,0 -43.50174,42.6548 -45.64201,54.81379 0,0 7.51072,-30.95637 45.64201,-54.81379 z"
     id="path102"
     style="stroke-width:4.00946;stroke-miterlimit:10;stroke-dasharray:none"
     sodipodi:nodetypes="ccc" /><path
     class="st2"
     d="m 529.64,269.34 c 0,0 20.1,26.22 26.36,39.65 6.26,13.43 13.83,38.87 20.61,39.13"
     id="path104" /><path
     class="st2"
     d="m 527.34,270.46 c 0,0 23.05,36.84 24.1,39.71 1.04,2.87 7.3,18.13 10.43,24 3.13,5.87 7.24,12.2 11.25,11.84"
     id="path106" /><path
     class="st2"
     d="m 524.17,275.99 c 0,0 22.11,27 26.05,38.22 3.95,11.22 12.29,25.66 15.03,25.68"
     id="path108" /><path
     class="st2"
     d="m 518.23,274.43 c 0,0 23.82,31.7 28.64,40.83 4.83,9.13 10.76,21.54 15.49,22.25"
     id="path110" /><path
     class="st0"
     d="m 382.10904,137.50752 c 0,0 19.96966,19.85687 27.68096,26.97248 26.50239,24.45512 82.19738,78.95313 60.88247,80.94088 -13.24,-1.3 -118.58537,-90.98194 -118.58537,-90.98194"
     id="path4435"
     style="stroke-width:4.00946;stroke-miterlimit:10;stroke-dasharray:none"
     sodipodi:nodetypes="cscc" /></g>
</svg>
